<svg id="Layer_1" data-name="Layer 1" xmlns="http://www.w3.org/2000/svg" viewBox="0 0 227 148"><defs><style>.cls-1,.cls-11,.cls-13{isolation:isolate;}.cls-1{font-size:5.2654px;font-family:OpenSans-SemiboldItalic, Open Sans;font-weight:600;font-style:italic;}.cls-1,.cls-2{fill:#ff4e5a;}.cls-3{fill:#ececec;}.cls-4{fill:#f5f5f5;}.cls-5{fill:#e1e1e1;}.cls-6{fill:#fafafa;}.cls-7{fill:#1a2e35;}.cls-8{fill:#375a64;}.cls-9{fill:#ff4f5b;}.cls-10,.cls-11{opacity:0.4;}.cls-12{fill:#ffbf9d;}.cls-13{opacity:0.2;}.cls-14{fill:#ff9a6c;}.cls-15{fill:#fff;}</style></defs><title>iArtboard 1 copy</title><text class="cls-1" transform="translate(43.5928 38.5112)">Reducir el costo de operaciones y mantenimiento</text><circle class="cls-2" cx="40.8477" cy="37.3955" r="0.9873"/><rect class="cls-3" x="43.1974" y="61.7074" width="20.3875" height="62.4499"/><rect class="cls-4" x="63.5217" y="61.9074" width="16.112" height="62.2472"/><rect class="cls-5" x="44.2926" y="71.701" width="17.2941" height="4.8678"/><rect class="cls-4" x="44.7744" y="72.3145" width="0.9688" height="3.7252"/><path class="cls-6" d="M46.8779,73.099a.3081.3081,0,1,1-.308-.308h.0026A.308.308,0,0,1,46.8779,73.099Z"/><path class="cls-6" d="M46.8779,74.4153a.3081.3081,0,1,1-.308-.308h.0026a.3054.3054,0,0,1,.3054.3054Z"/><rect class="cls-4" x="48.1152" y="72.791" width="0.9504" height="2.8617"/><rect class="cls-4" x="49.4895" y="72.791" width="0.9504" height="2.8617"/><rect class="cls-4" x="50.8638" y="72.791" width="0.9504" height="2.8617"/><rect class="cls-4" x="52.238" y="72.791" width="0.9504" height="2.8617"/><rect class="cls-4" x="53.6123" y="72.791" width="0.9504" height="2.8617"/><rect class="cls-4" x="54.9865" y="72.791" width="0.9504" height="2.8617"/><rect class="cls-4" x="56.3634" y="72.791" width="0.9504" height="2.8617"/><rect class="cls-4" x="57.7377" y="72.791" width="0.9504" height="2.8617"/><rect class="cls-4" x="59.112" y="72.791" width="0.9504" height="2.8617"/><rect class="cls-4" x="60.4862" y="72.791" width="0.9504" height="2.8617"/><rect class="cls-5" x="44.2926" y="79.499" width="17.2941" height="4.8678"/><rect class="cls-4" x="44.7744" y="80.1125" width="0.9688" height="3.7252"/><path class="cls-6" d="M46.8779,80.897a.3081.3081,0,1,1-.3079-.3081h.0077A.3055.3055,0,0,1,46.8779,80.897Z"/><path class="cls-6" d="M46.8779,82.2134a.3081.3081,0,1,1-.3079-.3082h.0077A.3055.3055,0,0,1,46.8779,82.2134Z"/><rect class="cls-4" x="48.1152" y="80.589" width="0.9504" height="2.8617"/><rect class="cls-4" x="49.4895" y="80.589" width="0.9504" height="2.8617"/><rect class="cls-4" x="50.8638" y="80.589" width="0.9504" height="2.8617"/><rect class="cls-4" x="52.238" y="80.589" width="0.9504" height="2.8617"/><rect class="cls-4" x="53.6123" y="80.589" width="0.9504" height="2.8617"/><rect class="cls-4" x="54.9865" y="80.589" width="0.9504" height="2.8617"/><rect class="cls-4" x="56.3634" y="80.589" width="0.9504" height="2.8617"/><rect class="cls-4" x="57.7377" y="80.589" width="0.9504" height="2.8617"/><rect class="cls-4" x="59.112" y="80.589" width="0.9504" height="2.8617"/><rect class="cls-4" x="60.4862" y="80.589" width="0.9504" height="2.8617"/><rect class="cls-5" x="44.2926" y="87.2971" width="17.2941" height="4.8678"/><rect class="cls-4" x="44.7744" y="87.9105" width="0.9688" height="3.7252"/><path class="cls-6" d="M46.8779,88.695a.3081.3081,0,1,1-.308-.308h.0026a.3054.3054,0,0,1,.3054.3054Z"/><path class="cls-6" d="M46.8779,90.0114a.3081.3081,0,1,1-.308-.3081h.0026a.3055.3055,0,0,1,.3054.3054Z"/><rect class="cls-4" x="48.1152" y="88.387" width="0.9504" height="2.8617"/><rect class="cls-4" x="49.4895" y="88.387" width="0.9504" height="2.8617"/><rect class="cls-4" x="50.8638" y="88.387" width="0.9504" height="2.8617"/><rect class="cls-4" x="52.238" y="88.387" width="0.9504" height="2.8617"/><rect class="cls-4" x="53.6123" y="88.387" width="0.9504" height="2.8617"/><rect class="cls-4" x="54.9865" y="88.387" width="0.9504" height="2.8617"/><rect class="cls-4" x="56.3634" y="88.387" width="0.9504" height="2.8617"/><rect class="cls-4" x="57.7377" y="88.387" width="0.9504" height="2.8617"/><rect class="cls-4" x="59.112" y="88.387" width="0.9504" height="2.8617"/><rect class="cls-4" x="60.4862" y="88.387" width="0.9504" height="2.8617"/><rect class="cls-5" x="44.2926" y="95.0951" width="17.2941" height="4.8678"/><rect class="cls-4" x="44.7744" y="95.7085" width="0.9688" height="3.7252"/><path class="cls-6" d="M46.8779,96.493a.3081.3081,0,1,1-.308-.308h.0026a.3054.3054,0,0,1,.3054.3054Z"/><path class="cls-6" d="M46.8779,97.8094a.3081.3081,0,1,1-.308-.3081h.0026a.3055.3055,0,0,1,.3054.3054Z"/><rect class="cls-4" x="48.1152" y="96.185" width="0.9504" height="2.8617"/><rect class="cls-4" x="49.4895" y="96.185" width="0.9504" height="2.8617"/><rect class="cls-4" x="50.8638" y="96.185" width="0.9504" height="2.8617"/><rect class="cls-4" x="52.238" y="96.185" width="0.9504" height="2.8617"/><rect class="cls-4" x="53.6123" y="96.185" width="0.9504" height="2.8617"/><rect class="cls-4" x="54.9865" y="96.185" width="0.9504" height="2.8617"/><rect class="cls-4" x="56.3634" y="96.185" width="0.9504" height="2.8617"/><rect class="cls-4" x="57.7377" y="96.185" width="0.9504" height="2.8617"/><rect class="cls-4" x="59.112" y="96.185" width="0.9504" height="2.8617"/><rect class="cls-4" x="60.4862" y="96.185" width="0.9504" height="2.8617"/><rect class="cls-5" x="44.2926" y="102.8957" width="17.2941" height="4.8678"/><rect class="cls-4" x="44.7744" y="103.5065" width="0.9688" height="3.7252"/><path class="cls-6" d="M46.8779,104.2831a.3081.3081,0,1,1-.308-.308h.0026a.3054.3054,0,0,1,.3054.3054Z"/><path class="cls-6" d="M46.8779,105.6a.3081.3081,0,1,1-.308-.308h.0026a.3054.3054,0,0,1,.3054.3053Z"/><rect class="cls-4" x="48.1152" y="103.983" width="0.9504" height="2.8617"/><rect class="cls-4" x="49.4895" y="103.983" width="0.9504" height="2.8617"/><rect class="cls-4" x="50.8638" y="103.983" width="0.9504" height="2.8617"/><rect class="cls-4" x="52.238" y="103.983" width="0.9504" height="2.8617"/><rect class="cls-4" x="53.6123" y="103.983" width="0.9504" height="2.8617"/><rect class="cls-4" x="54.9865" y="103.983" width="0.9504" height="2.8617"/><rect class="cls-4" x="56.3634" y="103.983" width="0.9504" height="2.8617"/><rect class="cls-4" x="57.7377" y="103.983" width="0.9504" height="2.8617"/><rect class="cls-4" x="59.112" y="103.983" width="0.9504" height="2.8617"/><rect class="cls-4" x="60.4862" y="103.983" width="0.9504" height="2.8617"/><rect class="cls-5" x="44.2926" y="110.6937" width="17.2941" height="4.8678"/><rect class="cls-4" x="44.7744" y="111.3045" width="0.9688" height="3.7252"/><path class="cls-6" d="M46.8779,112.0891a.3081.3081,0,1,1-.308-.3081h.0026a.3055.3055,0,0,1,.3054.3054Z"/><path class="cls-6" d="M46.8779,113.4054a.3081.3081,0,1,1-.308-.308h.0026a.3054.3054,0,0,1,.3054.3054Z"/><rect class="cls-4" x="48.1152" y="111.781" width="0.9504" height="2.8617"/><rect class="cls-4" x="49.4895" y="111.781" width="0.9504" height="2.8617"/><rect class="cls-4" x="50.8638" y="111.781" width="0.9504" height="2.8617"/><rect class="cls-4" x="52.238" y="111.781" width="0.9504" height="2.8617"/><rect class="cls-4" x="53.6123" y="111.781" width="0.9504" height="2.8617"/><rect class="cls-4" x="54.9865" y="111.781" width="0.9504" height="2.8617"/><rect class="cls-4" x="56.3634" y="111.781" width="0.9504" height="2.8617"/><rect class="cls-4" x="57.7377" y="111.781" width="0.9504" height="2.8617"/><rect class="cls-4" x="59.112" y="111.781" width="0.9504" height="2.8617"/><rect class="cls-4" x="60.4862" y="111.781" width="0.9504" height="2.8617"/><rect class="cls-5" x="44.2926" y="118.4918" width="17.2941" height="4.8678"/><rect class="cls-4" x="44.7744" y="119.1025" width="0.9688" height="3.7252"/><path class="cls-6" d="M46.8779,119.8871a.3081.3081,0,1,1-.308-.3081h.0026a.3055.3055,0,0,1,.3054.3054Z"/><path class="cls-6" d="M46.8779,121.2034a.3081.3081,0,1,1-.3107-.3054h.0053a.3055.3055,0,0,1,.3054.3054Z"/><rect class="cls-4" x="48.1152" y="119.5791" width="0.9504" height="2.8617"/><rect class="cls-4" x="49.4895" y="119.5791" width="0.9504" height="2.8617"/><rect class="cls-4" x="50.8638" y="119.5791" width="0.9504" height="2.8617"/><rect class="cls-4" x="52.238" y="119.5791" width="0.9504" height="2.8617"/><rect class="cls-4" x="53.6123" y="119.5791" width="0.9504" height="2.8617"/><rect class="cls-4" x="54.9865" y="119.5791" width="0.9504" height="2.8617"/><rect class="cls-4" x="56.3634" y="119.5791" width="0.9504" height="2.8617"/><rect class="cls-4" x="57.7377" y="119.5791" width="0.9504" height="2.8617"/><rect class="cls-4" x="59.112" y="119.5791" width="0.9504" height="2.8617"/><rect class="cls-4" x="60.4862" y="119.5791" width="0.9504" height="2.8617"/><path class="cls-5" d="M54.9865,71.7037a.891.891,0,0,1-.0184-.15,4.2166,4.2166,0,0,0-.0184-.4344c-.0184-.19,0-.416-.0211-.6819a4.2367,4.2367,0,0,0-.1211-.8872,3.1051,3.1051,0,0,0-.4607-.9714,2.1638,2.1638,0,0,0-.9451-.7609,4.6059,4.6059,0,0,0-1.3427-.2632l-1.4954-.129c-2.04-.1764-3.8911-.2923-5.2337-.316-.6687-.0158-1.2137-.0131-1.58,0h-.4343a.5658.5658,0,0,1-.1527,0,1.1791,1.1791,0,0,1,.15-.0158l.4318-.0289c.3765-.0158.9214-.0316,1.5928-.029,1.3453,0,3.1987.1027,5.2416.2817l1.49.129a4.699,4.699,0,0,1,1.3769.29,2.259,2.259,0,0,1,.9846.8056,3.2236,3.2236,0,0,1,.4634,1.0083,4.225,4.225,0,0,1,.1027.9083v1.1163A.7646.7646,0,0,1,54.9865,71.7037Z"/><path class="cls-5" d="M49.7422,71.7037a.4773.4773,0,0,1,0-.1422v-.4081c0-.1658,0-.3922-.021-.64a1.9773,1.9773,0,0,0-.2133-.79,1.5209,1.5209,0,0,0-.79-.5976,2.1537,2.1537,0,0,0-1.1373-.1159,1.9264,1.9264,0,0,0-.5845.2,1.1009,1.1009,0,0,0-.4554.4291.6158.6158,0,0,0,0,.6029.808.808,0,0,0,.5265.387.6557.6557,0,0,0,.6-.1737.8926.8926,0,0,0,.2632-.574.8687.8687,0,0,0-.179-.5844,1.3166,1.3166,0,0,0-.4554-.4028,1.7416,1.7416,0,0,0-.5713-.1474c-.1948-.029-.3844-.0553-.5687-.0738-.3659-.0421-.7108-.0658-1.0241-.0789-.6318-.0264-1.1426-.0158-1.4954-.0185h-.4159a.5209.5209,0,0,1-.1422,0,.4862.4862,0,0,1,.14-.0158l.4081-.021c.3528-.0158.8635-.0369,1.498-.0237.3159,0,.6634.0263,1.0347.0632.1842.0184.3764.0421.5739.0711.0974.0158.1948.0263.3.0473a1.08,1.08,0,0,1,.3054.1053,1.3954,1.3954,0,0,1,.5.4371.9871.9871,0,0,1,.2027.6634,1,1,0,0,1-.3054.6529.7713.7713,0,0,1-.7134.2054.9216.9216,0,0,1-.595-.4476.74.74,0,0,1,0-.7213,1.2373,1.2373,0,0,1,.5055-.4766,1.9838,1.9838,0,0,1,.6239-.2079,2.2183,2.2183,0,0,1,1.1926.1316,1.6142,1.6142,0,0,1,.8188.65,1.9615,1.9615,0,0,1,.2053.84c.0132.2633,0,.4686,0,.645a2.9729,2.9729,0,0,1-.0158.4081A.8688.8688,0,0,1,49.7422,71.7037Z"/><path class="cls-5" d="M56.3977,71.7037a1.0627,1.0627,0,0,1-.0343-.1606c-.021-.108-.05-.2633-.0947-.4634a8.863,8.863,0,0,0-.5108-1.648,4.8071,4.8071,0,0,0-1.5085-2.0061,2.8687,2.8687,0,0,0-1.3769-.5266,14.6206,14.6206,0,0,0-1.6191-.0869c-2.2352-.0421-4.2623-.0342-5.7261-.0921-.7345-.0263-1.3163-.0606-1.7349-.09l-.4713-.0421a.7146.7146,0,0,1-.1632-.0237h.1658l.4713.0158c.4081.0158,1,.0368,1.7349.05,1.4638.0368,3.4857.0158,5.7261.0579a13.8668,13.8668,0,0,1,1.6349.09,2.9454,2.9454,0,0,1,1.4269.5529,4.393,4.393,0,0,1,.9531,1.0083,5.8322,5.8322,0,0,1,.5634,1.0662,8.2407,8.2407,0,0,1,.4791,1.6744c.0342.2.0579.3581.0685.466A.7981.7981,0,0,1,56.3977,71.7037Z"/><rect class="cls-5" x="44.5322" y="62.484" width="16.8176" height="2.4405"/><rect class="cls-4" x="48.2284" y="63.7056" width="9.1565" height="1.2216"/><path class="cls-7" d="M190.096,123.9625h-1.5349l-4.4071.0289-16.2068.079-53.4672.1685c-20.8851.0421-39.79.0474-53.4751,0-6.845-.0211-12.3736-.0579-16.2042-.1079-1.914-.0237-3.3988-.0527-4.4071-.0843a8.3235,8.3235,0,0,1-1.53-.1079.4772.4772,0,0,0,.0948.0184c.0658,0,.1632.0158.2922.0237q.387.0184,1.1452.0395c1.0057.0237,2.49.0447,4.4045.0632,3.8253.0342,9.3618.0552,16.2042.0658,13.69.021,32.59,0,53.4751-.0421l53.4672-.1317,16.2068-.0368h5.5523Z"/><path class="cls-7" d="M154.4494,70.2162a1.2058,1.2058,0,0,0-1.4059-.8214,2.1615,2.1615,0,0,1-.6581.1659,1.6951,1.6951,0,0,1-.5582-.2,1.7928,1.7928,0,0,0-2.29,1,1.6375,1.6375,0,0,0-2.3694,1.8692,1.4374,1.4374,0,0,0-.2843,2.7406,1.6163,1.6163,0,0,0,1.2,2.3905,1.4716,1.4716,0,0,0,2.3009,1.419,1.4638,1.4638,0,0,0,2.6327.4766,1.4377,1.4377,0,0,0,1.9271-.05,2.3008,2.3008,0,0,0,.6187-1.9561,1.5217,1.5217,0,0,0,1.6481-2.3694,1.34,1.34,0,0,0,1.1426-.9372,1.6745,1.6745,0,0,0-.29-1.4848,2.246,2.246,0,0,0-1.3164-.8056,1.7217,1.7217,0,0,0-1.9908-1.402,1.7018,1.7018,0,0,0-.1785.0409"/><polygon class="cls-8" points="152.52 104.262 151.927 123.273 151.022 123.273 151.198 104.315 152.52 104.262"/><polygon class="cls-8" points="155.787 104.036 160.252 124.099 161.221 124.052 157.532 104.036 155.787 104.036"/><polygon class="cls-8" points="147.541 104.262 142.339 124.099 141.191 124.052 146.083 104.178 147.541 104.262"/><path class="cls-8" d="M160.1992,84.5933s4.8573-.2791,4.3729,5.3443-.7635,11.3206-2.5669,13.253-19.9873,2.0114-21.5143.4159,2.9144-1.5269,3.7489-1.5269,5.9683.487,7.6348-3.8859S153.1225,84.3142,160.1992,84.5933Z"/><path class="cls-8" d="M160.51,84.5959a4.2764,4.2764,0,0,1,3.3672,4.6467c-.3475,3.8859-1.3163,10.6861-3.1223,12.421s-8.8748,2.1062-12.7,1.8745a35.1976,35.1976,0,0,1-7.2425-1.1242s-.8109.5266-.566.8583,2.4115,1.6849,12.9,1.4611,9.7673-1.7744,10.2043-3.4672a92.2278,92.2278,0,0,0,1.2216-12.6948C164.4457,86.5889,163.4558,84.9434,160.51,84.5959Z"/><path class="cls-9" d="M138.1452,122.8936l-.0132-2.2115,4.1439-.05.0526,3.2356-.2632.0211a49.3757,49.3757,0,0,1-6.5818.09C134.6358,123.7308,138.1452,122.8936,138.1452,122.8936Z"/><g class="cls-10"><path d="M140.8253,123.8545a1.44,1.44,0,0,1,.5265-.89,1.3953,1.3953,0,0,1,.9636-.3133l.0157,1.1584Z"/></g><path class="cls-11" d="M136.4313,123.3649s-1.23.3685-1.0741.5713a39.3891,39.3891,0,0,0,6.9713-.0685v-.0921l-5.5155.1158S136.6735,123.37,136.4313,123.3649Z"/><path class="cls-7" d="M142.3864,123.765h-.071l-.2054.0158-.7529.0421c-.6345.029-1.5138.0606-2.4853.0738s-1.8429,0-2.4853,0l-.7555-.0211h3.2408c.9715,0,1.8429-.04,2.4853-.0606l.75-.0263h.2053Z"/><path class="cls-7" d="M136.8051,123.9572a1.5936,1.5936,0,0,0-.1448-.358,1.7016,1.7016,0,0,0-.2632-.2844.6689.6689,0,0,1,.4054.6424Z"/><path class="cls-7" d="M138.0214,123.32a.5057.5057,0,0,1-.1342-.1553c-.0632-.0948-.1027-.1791-.09-.1843s.071.06.1316.1553A.4611.4611,0,0,1,138.0214,123.32Z"/><path class="cls-7" d="M138.3532,123.1411a.7236.7236,0,0,1-.1475-.0974c-.0737-.0632-.1237-.1211-.1132-.1317s.0737.0316.1475.0948S138.3637,123.1305,138.3532,123.1411Z"/><path class="cls-7" d="M138.5611,122.7462a.5259.5259,0,0,1-.2158.0289.4829.4829,0,0,1-.2185-.0184.5392.5392,0,0,1,.2158-.0316A.498.498,0,0,1,138.5611,122.7462Z"/><path class="cls-7" d="M138.63,122.47a.4192.4192,0,0,1-.24.0738.414.414,0,0,1-.2632-.0316,1.3843,1.3843,0,0,1,.2448-.0185A1.241,1.241,0,0,1,138.63,122.47Z"/><path class="cls-7" d="M137.874,122.9752a.8078.8078,0,0,1-.2633,0,1.7934,1.7934,0,0,1-.2843-.0605,1.0948,1.0948,0,0,1-.1632-.0632.1475.1475,0,0,1-.0658-.0816.1078.1078,0,0,1,.04-.108.4922.4922,0,0,1,.6055.1343.5034.5034,0,0,1,.0895.1764.176.176,0,0,1,0,.0737.8368.8368,0,0,0-.1237-.2264.4878.4878,0,0,0-.2317-.1448.4132.4132,0,0,0-.3159.0263c-.0422.0316-.0237.079.0236.108a.69.69,0,0,0,.15.0605,1.7327,1.7327,0,0,0,.2633.0685C137.774,122.9542,137.874,122.9542,137.874,122.9752Z"/><path class="cls-7" d="M137.8056,122.9752a.2627.2627,0,0,1-.0316-.1843.4444.4444,0,0,1,.0684-.1948.2633.2633,0,0,1,.2212-.14.1105.1105,0,0,1,.0842.1237.3178.3178,0,0,1-.0447.1185.79.79,0,0,1-.1238.1632.4425.4425,0,0,1-.15.1106s.0526-.05.1237-.1343a.8934.8934,0,0,0,.1106-.1606c.0342-.0579.0579-.1606,0-.1711s-.1343.0632-.1738.1158a.4432.4432,0,0,0-.0737.1738A1.34,1.34,0,0,0,137.8056,122.9752Z"/><path class="cls-7" d="M142.2864,122.6409h-.3054a1.3476,1.3476,0,0,0-.6661.2843,1.3289,1.3289,0,0,0-.408.595c-.0606.179-.0659.2975-.0764.2975a.35.35,0,0,1,0-.0843,1.04,1.04,0,0,1,.0421-.2238,1.3175,1.3175,0,0,1,.4107-.6239,1.2721,1.2721,0,0,1,.6924-.2791,1.0571,1.0571,0,0,1,.2291,0A.595.595,0,0,1,142.2864,122.6409Z"/><path class="cls-7" d="M141.8362,120.9217a7.3216,7.3216,0,0,1,.0448.85,7.2219,7.2219,0,0,1,0,.85,7.5724,7.5724,0,0,1-.0474-.85A6.8355,6.8355,0,0,1,141.8362,120.9217Z"/><path class="cls-7" d="M140.2987,123.457a3.504,3.504,0,0,1-1.211.0263c0-.0158.2632,0,.6055,0S140.2961,123.4412,140.2987,123.457Z"/><path class="cls-7" d="M141.1122,123.4438s-.0237.058-.05.1211-.04.1185-.0553.1159-.021-.0632,0-.1369S141.1017,123.4359,141.1122,123.4438Z"/><path class="cls-7" d="M141.4123,123.06a.2745.2745,0,0,1-.0579.0974c-.0421.0447-.0842.0711-.0948.0632s.0158-.0527.058-.0975S141.3913,123.0516,141.4123,123.06Z"/><path class="cls-7" d="M141.8467,122.88c0,.0132-.0579.0158-.1184.0369s-.1027.0553-.1132.0448.021-.0659.0974-.0922S141.852,122.8673,141.8467,122.88Z"/><path class="cls-7" d="M142.1574,122.7936c0,.0131-.0184.0342-.0527.05s-.0658.0131-.071,0,.0184-.0342.0526-.0474S142.1521,122.783,142.1574,122.7936Z"/><path class="cls-9" d="M147.557,122.8936l-.0131-2.2115,4.1438-.05.0527,3.2356-.2633.0211a49.37,49.37,0,0,1-6.5817.09C144.0477,123.7308,147.557,122.8936,147.557,122.8936Z"/><g class="cls-10"><path d="M150.2371,123.8545a1.44,1.44,0,0,1,.5265-.89,1.3953,1.3953,0,0,1,.9636-.3133l.0158,1.1584Z"/></g><path class="cls-11" d="M145.8432,123.3649s-1.23.3685-1.0716.5713a39.3627,39.3627,0,0,0,6.9688-.0685v-.0921l-5.5155.1158S146.0854,123.37,145.8432,123.3649Z"/><path class="cls-7" d="M151.7983,123.765h-.0711l-.2053.0158-.753.0421c-.6345.029-1.5138.0606-2.4852.0738s-1.8429,0-2.4853,0l-.7529-.0211h3.2382c.9714,0,1.8428-.04,2.4852-.0606l.753-.0263h.2027Z"/><path class="cls-7" d="M146.217,123.9572a1.0851,1.0851,0,0,0-.4054-.6424.6823.6823,0,0,1,.4054.6424Z"/><path class="cls-7" d="M147.4465,123.32a.5039.5039,0,0,1-.1343-.1553.4753.4753,0,0,1-.0895-.1843.7629.7629,0,0,1,.1316.1553A.4626.4626,0,0,1,147.4465,123.32Z"/><path class="cls-7" d="M147.765,123.1411a.7245.7245,0,0,1-.1474-.0974c-.0737-.0632-.1211-.1211-.1132-.1317s.0763.0316.1474.0948S147.7755,123.1305,147.765,123.1411Z"/><path class="cls-7" d="M147.973,122.7462a.5266.5266,0,0,1-.2159.0289.4692.4692,0,0,1-.2159-.0184.5257.5257,0,0,1,.2159-.0316A.49.49,0,0,1,147.973,122.7462Z"/><path class="cls-7" d="M148.0414,122.47a.4187.4187,0,0,1-.24.0738.4142.4142,0,0,1-.2633-.0316,1.3843,1.3843,0,0,1,.2448-.0185A1.256,1.256,0,0,1,148.0414,122.47Z"/><path class="cls-7" d="M147.2885,122.9752a.8248.8248,0,0,1-.2633,0,1.6825,1.6825,0,0,1-.2843-.0605.9078.9078,0,0,1-.1632-.0632.1528.1528,0,0,1-.0685-.0816.108.108,0,0,1,.04-.108.4922.4922,0,0,1,.6055.1343.5017.5017,0,0,1,.0895.1764.176.176,0,0,1,0,.0737.8341.8341,0,0,0-.1237-.2264.493.493,0,0,0-.229-.1448.419.419,0,0,0-.3186.0263c-.0421.0316-.0237.079.0237.108a.7508.7508,0,0,0,.15.0605,1.7314,1.7314,0,0,0,.2632.0685C147.1832,122.9542,147.2885,122.9542,147.2885,122.9752Z"/><path class="cls-7" d="M147.22,122.9752a.2633.2633,0,0,1-.0342-.1843.4211.4211,0,0,1,.0711-.1948.2632.2632,0,0,1,.2185-.14.1079.1079,0,0,1,.0843.1237.28.28,0,0,1-.0448.1185.6985.6985,0,0,1-.1237.1632.4429.4429,0,0,1-.15.1106,1.81,1.81,0,0,0,.1237-.1343.8934.8934,0,0,0,.1106-.1606c.0369-.0579.0606-.1606,0-.1711s-.1343.0632-.1737.1158a.4434.4434,0,0,0-.0738.1738A.8247.8247,0,0,0,147.22,122.9752Z"/><path class="cls-7" d="M151.6982,122.6409h-.3054a1.34,1.34,0,0,0-.6634.2843,1.3167,1.3167,0,0,0-.4107.595c-.0605.179-.0658.2975-.0737.2975s0-.0316,0-.0843a1.04,1.04,0,0,1,.0421-.2238,1.2906,1.2906,0,0,1,.4134-.6239,1.2639,1.2639,0,0,1,.69-.2791,1.0571,1.0571,0,0,1,.2291,0C151.6588,122.63,151.6982,122.6356,151.6982,122.6409Z"/><path class="cls-7" d="M151.2481,120.9217a7.3215,7.3215,0,0,1,.0447.85,7.179,7.179,0,0,1,0,.85,7.5961,7.5961,0,0,1-.0474-.85A6.8549,6.8549,0,0,1,151.2481,120.9217Z"/><path class="cls-7" d="M149.7106,123.457a2.28,2.28,0,0,1-.6029.0658,2.229,2.229,0,0,1-.6055-.04c0-.0158.2632,0,.6055,0S149.7106,123.4412,149.7106,123.457Z"/><path class="cls-7" d="M150.5241,123.4438s-.0211.058-.05.1211-.0394.1185-.0552.1159-.0211-.0632,0-.1369S150.5135,123.4359,150.5241,123.4438Z"/><path class="cls-7" d="M150.8242,123.06a.2745.2745,0,0,1-.0579.0974c-.0422.0447-.0843.0711-.0948.0632s.0158-.0527.0579-.0975S150.8137,123.0516,150.8242,123.06Z"/><path class="cls-7" d="M151.2612,122.88c0,.0132-.0579.0158-.1185.0369s-.1053.0553-.1158.0448.0237-.0659.0974-.0922S151.2638,122.8673,151.2612,122.88Z"/><path class="cls-7" d="M151.5719,122.7936c0,.0131-.0185.0342-.0527.05s-.0684.0131-.0737,0,.0184-.0342.0527-.0474S151.5666,122.783,151.5719,122.7936Z"/><path class="cls-12" d="M139.5484,77.4008c-.29,2.896-1.0531,11.6417,2.9486,11.3363a6.2968,6.2968,0,0,0,5.8077-4.0806l-.9188-3.3646s-4.6572,4.0517-4.7783,3.5594a27.9864,27.9864,0,0,1-.3765-7.6717"/><path class="cls-2" d="M160.4309,87.7236l-.8083-4.0517c-.595-3.3146-5.2443-3.5436-5.2443-3.5436l-3.6489-.0659a7.2218,7.2218,0,0,0-4.3729,1.5165c-1.9561,1.6059-3.2513,2.8222-3.2513,2.8222l3.0539,3.53,1.806-1.1926a4.4241,4.4241,0,0,0-.5423,2.1746,2.9333,2.9333,0,0,0,1.1136,1.6981l.2475,6.2053,10.8335.1184-1.4612-9.2144Z"/><path class="cls-7" d="M155.3445,83.427a1.02,1.02,0,0,1,.0632.2633c.04.1948.0869.4317.1395.7108.1238.6292.2817,1.4454.4555,2.3457s.3238,1.7508.4212,2.3537c.0474.3027.0816.5476.1.7187a1.1329,1.1329,0,0,1,.0158.2633,1.02,1.02,0,0,1-.0632-.2633l-.1422-.7108-.4634-2.3431c-.1763-.9188-.3238-1.7508-.4212-2.3537-.0474-.3027-.0816-.55-.1-.7187A1.1264,1.1264,0,0,1,155.3445,83.427Z"/><path class="cls-7" d="M160.5046,87.7657a19.67,19.67,0,0,1-2.2009.0711,19.9085,19.9085,0,0,1-2.201-.0553,19.6709,19.6709,0,0,1,2.201-.0711A19.8822,19.8822,0,0,1,160.5046,87.7657Z"/><path class="cls-7" d="M146.1591,87.9394a21.3194,21.3194,0,0,1-1.5165-1.7533,20.9342,20.9342,0,0,1-1.419-1.8429,41.9186,41.9186,0,0,1,2.9355,3.5962Z"/><path class="cls-7" d="M147.4465,87.792a2.2525,2.2525,0,0,1,.2079-.49l.2633-.5265a.9557.9557,0,0,0,.179-.6266c-.0868-.487-.1737-.9372-.2238-1.261a2.112,2.112,0,0,1-.0579-.5266,2.391,2.391,0,0,1,.1448.5134c.0737.3238.1711.7608.2633,1.2611a.6263.6263,0,0,1-.0448.387,2.6333,2.6333,0,0,1-.1579.3106c-.1.179-.1922.3475-.2817.5055A2.369,2.369,0,0,1,147.4465,87.792Z"/><polygon class="cls-13" points="148.752 96.022 148.597 93.713 159.028 93.713 159.425 95.716 148.752 96.022"/><path class="cls-13" d="M155.4314,83.79q.0711,2.1193.1395,4.2387a2.6607,2.6607,0,0,1-.1869,1.3347,2.701,2.701,0,0,1-1.985,1.0742l-4.6362.9451,8.6115-.4186Z"/><path class="cls-12" d="M160.9258,90.9749c-.2343-1.9455-.4949-3.2013-.4949-3.2013l-4.236.0632a14.1979,14.1979,0,0,1,.2632,2.7116c-.1026.5-8.2771.8293-10.407.8635-.129-.0947-.3133.0659-.4765-.0789a1.7492,1.7492,0,0,1-.3633-.445,2.6466,2.6466,0,0,1-.29-.6608.2185.2185,0,0,0-.4054-.0921,1.8311,1.8311,0,0,0,.4159,1.3743c.416.5844-.6555.2843-1.053.179a6.04,6.04,0,0,0-1.73-.2633c-.1843.1422-.0711.3712.3212.466s1.54.4633,1.48.6713-2.035-.3528-2.035-.3528-.4028-.1869-.4818.05c-.1474.4291,1.99.8608,2.1957.8977.1421.0263.0816.2633-.0685.2185s-1.9561-.6029-2.1061-.1685c-.1185.3344,1.7533.3739,2.064.7056s-1.4164-.179-1.5165.1448c-.0368.1211.6819.1764,1.7139.3212a26.1106,26.1106,0,0,0,3.1935.1132c2.3931.1316,10.8572.3054,12.6658.179C161.6893,94.5133,161.0074,91.6463,160.9258,90.9749Z"/><path class="cls-7" d="M160.8732,85.5358h.0631a.9517.9517,0,0,1,.187.04,2.852,2.852,0,0,1,.6581.308,6.2715,6.2715,0,0,1,1.4112,1.2347,4.7466,4.7466,0,0,1,.487.6477,1.2069,1.2069,0,0,1,.0974.2027c.0158.0711.0342.1422.0527.2132.0342.1448.0737.2923.1053.4423.06.3028.1185.6187.1579.95a13.1533,13.1533,0,0,1,.0843,2.1193,22.0419,22.0419,0,0,1-.8135,4.781,19.054,19.054,0,0,1-.7609,2.3984,8.4459,8.4459,0,0,1-1.1689,2.035,5.3059,5.3059,0,0,1-.7556.79,4.4527,4.4527,0,0,1-.8872.5266,10.9067,10.9067,0,0,1-1.7533.59c-1.0926.2791-1.9877.4528-2.6038.5845l-.7108.15-.1843.0369a.2018.2018,0,0,1-.0658,0l.0632-.0211.1816-.0474.7056-.1737c.6108-.1475,1.5059-.3344,2.5932-.6213a11.04,11.04,0,0,0,1.73-.6,4.4727,4.4727,0,0,0,.8635-.5265,5.3755,5.3755,0,0,0,.7345-.79A8.5844,8.5844,0,0,0,162.49,98.794a19.2546,19.2546,0,0,0,.753-2.3694,22.2549,22.2549,0,0,0,.8187-4.7546,13.3378,13.3378,0,0,0-.0711-2.1062c-.0368-.3264-.0947-.64-.15-.94-.029-.1527-.0685-.2975-.1-.44-.0184-.0711-.0342-.1422-.05-.2106a1.3021,1.3021,0,0,0-.0869-.1843,4.4808,4.4808,0,0,0-.4712-.64c-.1633-.1922-.3291-.3633-.49-.5265a5.6766,5.6766,0,0,0-.8872-.7161,3.114,3.114,0,0,0-.64-.3265A1.99,1.99,0,0,1,160.8732,85.5358Z"/><path class="cls-12" d="M142.0652,77.8641s.0659-.3106.1738-1.211l.9925-1.9429s-.2211-.4054-.7319.4528a.49.49,0,0,1-.8819-.387.79.79,0,0,1,1.419-.287s.3159.0316.3528-.2158-.6792-.8583-1.2874-.6793a1.8761,1.8761,0,0,0-.6766.3791,8.5638,8.5638,0,0,0-.0316-2.0587c-.1659-.0185-.3975.1053-.5265,2.3457,0,0-.0685-1.7665-.1027-1.9929s-.34-.3792-.3791.1895c0,.0606-.1159,1.7981-.1159,1.7981s-.1974-1.1478-.2185-1.24c-.0552-.2422-.2948-.2158-.3185.1053-.0158.2422-.0948,1.2795-.0948,1.2795l-.15,3.1987h-.0184"/><path class="cls-12" d="M150.4214,81.1313c-.0237-1.0531-.0658-2.1351-.0658-2.1351A1.8579,1.8579,0,0,1,148.75,77.23c-.0658-1.5717.09-5.1917.09-5.1917l2.8354-1.3611,2.4748,2.8223.0368,7.5821a1.8822,1.8822,0,0,1-1.8744,1.89h-.0079A1.88,1.88,0,0,1,150.4214,81.1313Z"/><path class="cls-7" d="M149.2367,74.6839a.1975.1975,0,1,0,.2-.1975A.2.2,0,0,0,149.2367,74.6839Z"/><path class="cls-7" d="M148.9155,74.4627c.0237.0263.1711-.0974.3817-.1053s.3686.0974.39.0685-.0132-.0606-.0816-.1106a.51.51,0,0,0-.3133-.0895.4949.4949,0,0,0-.3028.1185C148.9234,74.4,148.9023,74.45,148.9155,74.4627Z"/><path class="cls-7" d="M151.5324,74.6839a.2.2,0,0,0,.1922.2053.2027.2027,0,1,0-.192-.2129Z"/><path class="cls-7" d="M151.2533,74.5022c.0237.0263.1711-.0974.3818-.1053s.3685.1.39.0711-.0132-.0632-.0816-.1106a.51.51,0,0,0-.3133-.0921.5267.5267,0,0,0-.3054.1184C151.2612,74.439,151.24,74.4917,151.2533,74.5022Z"/><path class="cls-7" d="M150.4609,76.3161a1.3206,1.3206,0,0,0-.3449-.0526c-.0553,0-.1053,0-.1158-.0527a.3053.3053,0,0,1,.0342-.1711c.0474-.1422.1-.29.1527-.4449a8.1108,8.1108,0,0,0,.34-1.1663,8.3776,8.3776,0,0,0-.4265,1.1347c-.05.158-.1.3054-.1448.4475a.3506.3506,0,0,0-.0237.2291.1369.1369,0,0,0,.0895.0816.3843.3843,0,0,0,.0922,0A1.2224,1.2224,0,0,0,150.4609,76.3161Z"/><path class="cls-14" d="M150.3556,79.0094a3.7418,3.7418,0,0,0,2.04-.6661,1.9728,1.9728,0,0,1-2.014,1.0531Z"/><path class="cls-14" d="M150.5346,76.8716a.4214.4214,0,0,1,.2448-.3027.3319.3319,0,0,1,.2633,0,.2314.2314,0,0,1,.1237.2317.2633.2633,0,0,1-.2185.2027.79.79,0,0,1-.3106-.0211.22.22,0,0,1-.0816-.0316.0658.0658,0,0,1-.0343-.0737"/><path class="cls-7" d="M151.0585,76.3082c.0158,0,.0421.058.0342.1606a.561.561,0,0,1-.54.5108c-.1027,0-.1606-.029-.1579-.0448a.9514.9514,0,0,0,.44-.2C151.03,76.5531,151.0243,76.3082,151.0585,76.3082Z"/><path class="cls-7" d="M146.5329,83.7482a3.6107,3.6107,0,0,1,.5265-1.2479A3.75,3.75,0,0,1,146.5329,83.7482Z"/><path class="cls-7" d="M150.1265,84.2747a2.5953,2.5953,0,0,1-1.2531-.8793,3.9764,3.9764,0,0,1,.6318.4318A3.8529,3.8529,0,0,1,150.1265,84.2747Z"/><path class="cls-7" d="M149.679,81.1708a1.4072,1.4072,0,0,1-.5266.2448,1.3306,1.3306,0,0,1-.5607.1264,1.3547,1.3547,0,0,1,.5265-.2448A1.3341,1.3341,0,0,1,149.679,81.1708Z"/><path class="cls-7" d="M149.4368,87.4945a5.5007,5.5007,0,0,1,.9662-1.3663,2.8685,2.8685,0,0,1-.4318.7187A3.05,3.05,0,0,1,149.4368,87.4945Z"/><path class="cls-7" d="M149.6421,90.0666a2.9547,2.9547,0,0,1-.6845-.5265,3.0183,3.0183,0,0,1-.6055-.6081,2.969,2.969,0,0,1,.6871.5133A2.9356,2.9356,0,0,1,149.6421,90.0666Z"/><path class="cls-7" d="M151.456,89.83a6.4222,6.4222,0,0,1-.2185-.79,6.3955,6.3955,0,0,1-.2316-.79,1.7674,1.7674,0,0,1,.3527.7477A1.7309,1.7309,0,0,1,151.456,89.83Z"/><path class="cls-7" d="M154.7916,89.8718a2.31,2.31,0,0,1-.6871.2765,2.1705,2.1705,0,0,1-.724.1579,2.2331,2.2331,0,0,1,.6872-.2764A2.17,2.17,0,0,1,154.7916,89.8718Z"/><path class="cls-7" d="M154.95,87.21a5.7057,5.7057,0,0,1-1.4875.8056,2.9459,2.9459,0,0,1,.7135-.4581A3.0265,3.0265,0,0,1,154.95,87.21Z"/><path class="cls-7" d="M153.1936,86.1624a2.4219,2.4219,0,0,1-.49-.59,2.347,2.347,0,0,1-.39-.6608,4.6724,4.6724,0,0,1,.8793,1.2505Z"/><path class="cls-7" d="M154.5047,83.3533a.1288.1288,0,0,1-.0685-.029l.0422-.0158a3.4234,3.4234,0,0,1-.0975.74,2.123,2.123,0,0,1-.2632.7688,3.58,3.58,0,0,1,.15-.79c.0711-.3212.129-.5976.1685-.7161l.0158-.05.0264.0342C154.4994,83.3243,154.5126,83.3454,154.5047,83.3533Z"/><path class="cls-7" d="M157.3638,81.4736a5.9945,5.9945,0,0,1-1.6849-.3423,2.988,2.988,0,0,1,.853.1106A2.9517,2.9517,0,0,1,157.3638,81.4736Z"/><path class="cls-7" d="M156.6793,84.1984a1.7248,1.7248,0,0,1,.0184-.65,1.77,1.77,0,0,1,.1422-.6371,1.7427,1.7427,0,0,1-.0184.6529A1.6706,1.6706,0,0,1,156.6793,84.1984Z"/><path class="cls-7" d="M158.1983,84.9987a2.7722,2.7722,0,0,1,.4423-1.0846,1.3553,1.3553,0,0,1-.1632.566A1.4064,1.4064,0,0,1,158.1983,84.9987Z"/><path class="cls-7" d="M158.2115,86.531a3.2429,3.2429,0,0,1-.7608-.4713,3.2823,3.2823,0,0,1-.6872-.5739,3.19,3.19,0,0,1,.7609.4712A3.36,3.36,0,0,1,158.2115,86.531Z"/><path class="cls-7" d="M150.9242,96.1929a1.8655,1.8655,0,0,1-.5976-.3291,1.9807,1.9807,0,0,1-.5265-.4344,1.8655,1.8655,0,0,1,.5976.3291A1.9829,1.9829,0,0,1,150.9242,96.1929Z"/><path class="cls-7" d="M153.67,95.2241a6.13,6.13,0,0,1-1.1,1.3558,3.14,3.14,0,0,1,.5-.7161A3.2177,3.2177,0,0,1,153.67,95.2241Z"/><path class="cls-7" d="M156.5213,96.5483a1.69,1.69,0,0,1,.2475-.5923,1.6629,1.6629,0,0,1,.3607-.5266,1.73,1.73,0,0,1-.25.5924A1.6344,1.6344,0,0,1,156.5213,96.5483Z"/><path class="cls-7" d="M155.7605,96.7063a1.7923,1.7923,0,0,1-.3791-.5266,1.7277,1.7277,0,0,1-.2633-.5923,3.39,3.39,0,0,1,.65,1.1215Z"/><path class="cls-7" d="M148.7286,71.6668a1.0057,1.0057,0,1,0,1.4611,1.1663.8424.8424,0,0,0,.1975,1.003,1.0029,1.0029,0,0,0,1.0346.15,1.2349,1.2349,0,0,0,.69-.8135,1.132,1.132,0,0,0,1.4532,1.0531,1.0872,1.0872,0,0,0,.2,1.9376.9951.9951,0,0,0,.8319,1.7876,1.7184,1.7184,0,0,0,.9531-1.09,5.1919,5.1919,0,0,0-.0158-3.949,4.436,4.436,0,0,0-2.9592-2.5379,3.875,3.875,0,0,0-3.6857,1.0952"/><path class="cls-8" d="M156.7161,71.8116a.179.179,0,0,1,0,.0527.7217.7217,0,0,1,0,.1527.9269.9269,0,0,1-.2474.5265.8821.8821,0,0,1-.832.2791.9873.9873,0,0,1-.7687-.8083h.1132a1.135,1.135,0,0,1-.5265.79,1.0531,1.0531,0,0,1-1.0136.0685,1.1321,1.1321,0,0,1-.6319-.7345.6031.6031,0,0,1,.0421-.4845.369.369,0,0,1,.2028-.1527.2791.2791,0,0,1,.2632.0422.3739.3739,0,0,1,.0922.4423.7914.7914,0,0,1-.2633.3054,1.0875,1.0875,0,0,1-.69.1869.99.99,0,0,1-.55-.2027,1.0267,1.0267,0,0,1-.29-.3318.8937.8937,0,0,1-.1-.2632.2615.2615,0,0,1,0-.0974,1.8793,1.8793,0,0,0,.1422.3185,1,1,0,0,0,1.3778.3214q.0264-.0163.0517-.0344a.6635.6635,0,0,0,.2317-.2633.2635.2635,0,0,0-.0579-.3054.208.208,0,0,0-.2836.0781l-.0034.0062a.4871.4871,0,0,0-.0237.387,1.0218,1.0218,0,0,0,.566.6529.9293.9293,0,0,0,.8951-.0606,1.0136,1.0136,0,0,0,.4766-.695l.06-.4081.0527.4081a.89.89,0,0,0,.6766.7319.8109.8109,0,0,0,.7608-.2343.9483.9483,0,0,0,.2633-.4792A1.2707,1.2707,0,0,1,156.7161,71.8116Z"/><path class="cls-8" d="M157.9772,73.4491a.4666.4666,0,0,1-.0184.2,1.0052,1.0052,0,0,1-.2844.4765.9921.9921,0,0,1-.774.2817,1.0977,1.0977,0,0,1-.853-.5265c-.021-.0369-.0368-.0763-.0552-.1106h.1184a.73.73,0,0,1-.35.39.9212.9212,0,0,1-.4686.1105,1.0528,1.0528,0,0,1-.7161-.3317,1.4755,1.4755,0,0,1-.2949-.4317c-.0526-.1132-.0684-.1791-.06-.1817a2.9847,2.9847,0,0,0,.4159.5529.9844.9844,0,0,0,.6556.279.7344.7344,0,0,0,.7-.4291l.05-.1343.0658.1317c.0158.0289.029.0632.0474.0947a1.0055,1.0055,0,0,0,.7556.4845.9323.9323,0,0,0,.7029-.2343,1.0537,1.0537,0,0,0,.3-.4239A1.5753,1.5753,0,0,1,157.9772,73.4491Z"/><path class="cls-8" d="M156.3976,76.4188a.6083.6083,0,0,1-.4792.0948.8348.8348,0,0,1-.4844-.2475.8976.8976,0,0,1-.2632-.6213l.0947.0553-.0342.0184a.9032.9032,0,0,1-.6819.0579.8425.8425,0,0,1-.4449-.3343.608.608,0,0,1-.129-.4818,1.4876,1.4876,0,0,0,.2.4291.79.79,0,0,0,.4081.2765.8159.8159,0,0,0,.59-.058l.0289-.0158.0948-.05v.1053a.805.805,0,0,0,.208.54.789.789,0,0,0,.4186.24A1.3891,1.3891,0,0,0,156.3976,76.4188Z"/><path class="cls-8" d="M147.5465,72.6119a1.58,1.58,0,0,0,.6134.3528,1.1483,1.1483,0,0,0,.7424-.05,1.2,1.2,0,0,0,.624-.65,1.6255,1.6255,0,0,0,.0579-.2053l.0369-.19.0816.1738a.2975.2975,0,0,0,.3264.1395.6764.6764,0,0,0,.3344-.1948,1.29,1.29,0,0,0,.3343-.595,1.8431,1.8431,0,0,0,.0158-.64.3766.3766,0,0,1,.0632.1658,1.242,1.242,0,0,1,0,.49,1.3162,1.3162,0,0,1-.337.6582.7636.7636,0,0,1-.3923.2343.416.416,0,0,1-.4607-.2054l.1159-.0158a1.0577,1.0577,0,0,1-.0632.2291,1.2715,1.2715,0,0,1-.6951.7108,1.1874,1.1874,0,0,1-.8108.029,1.1625,1.1625,0,0,1-.4686-.2765A.3534.3534,0,0,1,147.5465,72.6119Z"/><path class="cls-8" d="M148.2363,74.5865c.0131,0,.0158.1158-.1027.2395a.6266.6266,0,0,1-.6055.158,1.1865,1.1865,0,0,1-.5266-.3107c-.1105-.1105-.1685-.1869-.1579-.2s.0921.0421.2158.1316a1.4777,1.4777,0,0,0,.5082.2633.603.603,0,0,0,.5265-.0974A.8753.8753,0,0,0,148.2363,74.5865Z"/><path class="cls-8" d="M150.1871,74.9024a2.1163,2.1163,0,0,0-.0527-.2238.9507.9507,0,0,0-.3475-.49.89.89,0,1,0,0,1.43.9606.9606,0,0,0,.3475-.49c.04-.1422.0421-.2264.0527-.2264a.4752.4752,0,0,1,0,.2369.9341.9341,0,0,1-.3423.55.9871.9871,0,0,1-.94.1554,1,1,0,0,1,0-1.8824.9794.9794,0,0,1,.94.1553.9373.9373,0,0,1,.3423.5476A.4688.4688,0,0,1,150.1871,74.9024Z"/><path class="cls-8" d="M152.8593,74.9024a.7056.7056,0,0,0-.0527-.2238.9189.9189,0,0,0-.3475-.49.89.89,0,1,0,0,1.43.93.93,0,0,0,.3475-.49c.0421-.1422.0421-.2264.0527-.2264a.4752.4752,0,0,1,0,.2369.94.94,0,0,1-.34.55.9871.9871,0,0,1-.94.1554.9978.9978,0,0,1,0-1.8824.9794.9794,0,0,1,.94.1553.9428.9428,0,0,1,.34.5476A.4688.4688,0,0,1,152.8593,74.9024Z"/><path class="cls-8" d="M151.019,74.8576c0,.0342-.19.0632-.4238.0632s-.4265-.029-.4265-.0632.1921-.0632.4265-.0632S151.019,74.8234,151.019,74.8576Z"/><path class="cls-7" d="M141.5966,96.6957a62.9948,62.9948,0,0,1,10.9731-.1368l-4.6388,6.6712-4.186.0158-.8977,19.1185h-5.5287l.5266-21.48a4.315,4.315,0,0,1,3.7489-4.1755Z"/><path class="cls-7" d="M151.7851,103.7408s8.29.5634,8.0824-6.8818c0,0-13.2819-2.2431-14.1455,1.6164-.2764,1.24.4845,24.0312.4845,24.0312h5.7919"/><path class="cls-8" d="M151.8667,102.0928a3.7344,3.7344,0,0,1,0,.953,3.65,3.65,0,0,1-.1158.9478,7.3329,7.3329,0,0,1,.1079-1.9008Z"/><path class="cls-8" d="M151.6008,96.1718a.6655.6655,0,0,1-.1132.0527c-.0763.029-.1895.0685-.34.1106a11.0835,11.0835,0,0,1-1.2795.2632,11.4938,11.4938,0,0,0-1.88.4055,4.213,4.213,0,0,0-1.0136.487,2.8661,2.8661,0,0,0-.824.8609,3.9481,3.9481,0,0,0-.595,2.222c.0368.7214.0711,1.3743.1,1.93s.0448.9793.0606,1.3163v.3528a.4951.4951,0,0,1,0,.1264.4738.4738,0,0,1-.0211-.1238c0-.0948-.0184-.2132-.0342-.3528-.0237-.3264-.0579-.7661-.1-1.3s-.09-1.2005-.1264-1.935a4.0018,4.0018,0,0,1,.6055-2.2931,2.9682,2.9682,0,0,1,.8609-.8925,4.3491,4.3491,0,0,1,1.0531-.4976,10.9878,10.9878,0,0,1,1.9034-.3817c.545-.0764.982-.1527,1.2821-.2238S151.5982,96.1639,151.6008,96.1718Z"/><polygon class="cls-8" points="133.993 82.966 137.142 92.794 154.547 93.11 154.431 92.589 148.073 92.391 145.145 82.961 133.993 82.966"/><path class="cls-15" d="M141.06,87.8789a.7214.7214,0,0,1-.3976.9109.6911.6911,0,0,1-.7714-.5976.7206.7206,0,0,1,.3976-.9083A.6889.6889,0,0,1,141.06,87.8789Z"/><path class="cls-2" d="M172.7387,89.98a1.4609,1.4609,0,0,0-.9768-.2817v-.3028h-5.3285s-.1659,3.512,2.5221,3.6358a2.3142,2.3142,0,0,0,2.2878-1.1637,2.6284,2.6284,0,0,0,.6055.0737,1.3875,1.3875,0,0,0,.8372-.2369,1.0532,1.0532,0,0,0,.4-.9A1.0319,1.0319,0,0,0,172.7387,89.98Zm-.366,1.3163a1.29,1.29,0,0,1-.9.0948,4.6415,4.6415,0,0,0,.2633-1.1558,1.0215,1.0215,0,0,1,.6661.1554.5261.5261,0,0,1,.1632.4238.5635.5635,0,0,1-.1922.4713Z"/><path class="cls-7" d="M170.9748,88.2606a.5527.5527,0,0,1-.1027-.1184,1.12,1.12,0,0,1-.1738-.416,1.1824,1.1824,0,0,1,.0632-.7108,2.2787,2.2787,0,0,1,.5976-.7319,1.7744,1.7744,0,0,0,.5266-.9583,1.6532,1.6532,0,0,0-.2291-1.2216,1.6949,1.6949,0,0,0-.4765-.4923,2.6346,2.6346,0,0,0-.6582-.2975,1.9462,1.9462,0,0,1-.695-.35.9681.9681,0,0,1-.2475-.3239.6531.6531,0,0,1-.0526-.4186.2129.2129,0,0,1,.0184-.0579l.0632.0632a.6607.6607,0,0,0-.39.5687,1.3153,1.3153,0,0,0,.1579.7055c.1053.2238.237.4318.3317.6582a1.3658,1.3658,0,0,1,.1343.7056,1,1,0,0,1-.3159.6081A1.9894,1.9894,0,0,1,169,85.828a11.0983,11.0983,0,0,0-1.0346.4449,1.4534,1.4534,0,0,0-.6029.6687,1.5969,1.5969,0,0,0-.1448.6714,1.8613,1.8613,0,0,0,.1106.5818l-.0184-.0342a.8872.8872,0,0,1-.0474-.1053,1.4086,1.4086,0,0,1-.0843-.44,1.6544,1.6544,0,0,1,.1317-.6977,1.508,1.508,0,0,1,.6186-.7055,10.6562,10.6562,0,0,1,1.0347-.4607,1.845,1.845,0,0,0,.5081-.3423.9137.9137,0,0,0,.287-.5555,1.2743,1.2743,0,0,0-.129-.6581c-.0922-.2159-.2238-.4239-.3318-.653a1.3778,1.3778,0,0,1-.1685-.7582.9025.9025,0,0,1,.129-.387.6346.6346,0,0,1,.3239-.2632l.0921-.0316-.0263.0947-.0132.05a.6951.6951,0,0,0,.2633.645,1.884,1.884,0,0,0,.6608.3317,2.6668,2.6668,0,0,1,.6819.3106,1.7747,1.7747,0,0,1,.7319,1.8087,1.843,1.843,0,0,1-.5713.9925,2.3211,2.3211,0,0,0-.5977.703,1.2087,1.2087,0,0,0-.0763.6818A1.3164,1.3164,0,0,0,170.9748,88.2606Z"/><polygon class="cls-7" points="177.462 92.839 122.876 92.839 122.876 94.508 125.795 94.508 124.242 124.052 125.077 124.049 126.63 94.508 174.476 94.247 175.577 123.962 176.498 124.012 175.319 94.508 177.462 94.508 177.462 92.839"/><rect class="cls-3" x="69.9455" y="52.9774" width="23.2361" height="71.1799"/><rect class="cls-5" x="93.15" y="53.2064" width="18.363" height="70.9509"/><rect class="cls-7" x="71.2328" y="64.369" width="19.7109" height="5.5497"/><rect class="cls-2" x="71.7831" y="65.0667" width="1.1031" height="4.2465"/><path class="cls-15" d="M74.1867,65.9618a.3528.3528,0,1,1-.3554-.35h.0026A.3528.3528,0,0,1,74.1867,65.9618Z"/><path class="cls-15" d="M74.1867,67.4624a.3528.3528,0,1,1-.3554-.35h.0026A.3527.3527,0,0,1,74.1867,67.4624Z"/><rect class="cls-8" x="75.5873" y="65.609" width="1.0847" height="3.2619"/><rect class="cls-8" x="77.1564" y="65.609" width="1.0847" height="3.2619"/><rect class="cls-8" x="78.7228" y="65.609" width="1.0847" height="3.2619"/><rect class="cls-8" x="80.2893" y="65.609" width="1.0847" height="3.2619"/><rect class="cls-8" x="81.8557" y="65.609" width="1.0847" height="3.2619"/><rect class="cls-8" x="83.4222" y="65.609" width="1.0847" height="3.2619"/><rect class="cls-8" x="84.9886" y="65.609" width="1.0847" height="3.2619"/><rect class="cls-8" x="86.5551" y="65.609" width="1.0847" height="3.2619"/><rect class="cls-8" x="88.1215" y="65.609" width="1.0847" height="3.2619"/><rect class="cls-8" x="89.688" y="65.609" width="1.0847" height="3.2619"/><rect class="cls-7" x="71.2328" y="72.3408" width="19.7109" height="5.5497"/><rect class="cls-9" x="71.7831" y="73.0384" width="1.1031" height="4.2465"/><path class="cls-15" d="M74.1867,73.9336a.3528.3528,0,1,1-.3554-.35h.0026a.35.35,0,0,1,.3528.3475Z"/><path class="cls-15" d="M74.1867,75.4342a.3528.3528,0,1,1-.3554-.35h.0026a.35.35,0,0,1,.3528.3475Z"/><rect class="cls-8" x="75.5873" y="73.5808" width="1.0847" height="3.2619"/><rect class="cls-8" x="77.1564" y="73.5808" width="1.0847" height="3.2619"/><rect class="cls-8" x="78.7228" y="73.5808" width="1.0847" height="3.2619"/><rect class="cls-8" x="80.2893" y="73.5808" width="1.0847" height="3.2619"/><rect class="cls-8" x="81.8557" y="73.5808" width="1.0847" height="3.2619"/><rect class="cls-8" x="83.4222" y="73.5808" width="1.0847" height="3.2619"/><rect class="cls-8" x="84.9886" y="73.5808" width="1.0847" height="3.2619"/><rect class="cls-8" x="86.5551" y="73.5808" width="1.0847" height="3.2619"/><rect class="cls-8" x="88.1215" y="73.5808" width="1.0847" height="3.2619"/><rect class="cls-8" x="89.688" y="73.5808" width="1.0847" height="3.2619"/><rect class="cls-7" x="71.2328" y="80.3757" width="19.7109" height="5.5497"/><rect class="cls-2" x="71.7831" y="81.0734" width="1.1031" height="4.2465"/><path class="cls-15" d="M74.1867,81.9685a.3528.3528,0,1,1-.3554-.35h.0026a.35.35,0,0,1,.3528.3475Z"/><path class="cls-15" d="M74.1867,83.4691a.3528.3528,0,1,1-.3554-.35h.0026a.35.35,0,0,1,.3528.3475Z"/><rect class="cls-8" x="75.5873" y="81.6184" width="1.0847" height="3.2619"/><rect class="cls-8" x="77.1564" y="81.6184" width="1.0847" height="3.2619"/><rect class="cls-8" x="78.7228" y="81.6184" width="1.0847" height="3.2619"/><rect class="cls-8" x="80.2893" y="81.6184" width="1.0847" height="3.2619"/><rect class="cls-8" x="81.8557" y="81.6184" width="1.0847" height="3.2619"/><rect class="cls-8" x="83.4222" y="81.6184" width="1.0847" height="3.2619"/><rect class="cls-8" x="84.9886" y="81.6184" width="1.0847" height="3.2619"/><rect class="cls-8" x="86.5551" y="81.6184" width="1.0847" height="3.2619"/><rect class="cls-8" x="88.1215" y="81.6184" width="1.0847" height="3.2619"/><rect class="cls-8" x="89.688" y="81.6184" width="1.0847" height="3.2619"/><rect class="cls-7" x="71.2328" y="88.5239" width="19.7109" height="5.5497"/><rect class="cls-2" x="71.7831" y="89.2216" width="1.1031" height="4.2465"/><path class="cls-15" d="M74.1867,90.1167a.3528.3528,0,1,1-.3528-.3528h0A.3527.3527,0,0,1,74.1867,90.1167Z"/><path class="cls-15" d="M74.1867,91.6173a.3528.3528,0,1,1-.3528-.3528h0A.3528.3528,0,0,1,74.1867,91.6173Z"/><rect class="cls-8" x="75.5873" y="89.7639" width="1.0847" height="3.2619"/><rect class="cls-8" x="77.1564" y="89.7639" width="1.0847" height="3.2619"/><rect class="cls-8" x="78.7228" y="89.7639" width="1.0847" height="3.2619"/><rect class="cls-8" x="80.2893" y="89.7639" width="1.0847" height="3.2619"/><rect class="cls-8" x="81.8557" y="89.7639" width="1.0847" height="3.2619"/><rect class="cls-8" x="83.4222" y="89.7639" width="1.0847" height="3.2619"/><rect class="cls-8" x="84.9886" y="89.7639" width="1.0847" height="3.2619"/><rect class="cls-8" x="86.5551" y="89.7639" width="1.0847" height="3.2619"/><rect class="cls-8" x="88.1215" y="89.7639" width="1.0847" height="3.2619"/><rect class="cls-8" x="89.688" y="89.7639" width="1.0847" height="3.2619"/><rect class="cls-7" x="71.2328" y="97.8252" width="19.7109" height="5.5497"/><rect class="cls-2" x="71.7831" y="98.5228" width="1.1031" height="4.2465"/><path class="cls-15" d="M74.1867,99.4153a.3528.3528,0,1,1-.3554-.35h.0026A.3527.3527,0,0,1,74.1867,99.4153Z"/><path class="cls-15" d="M74.1867,100.9159a.3528.3528,0,1,1-.3554-.35h.0026A.3527.3527,0,0,1,74.1867,100.9159Z"/><rect class="cls-8" x="75.5873" y="99.0652" width="1.0847" height="3.2619"/><rect class="cls-8" x="77.1564" y="99.0652" width="1.0847" height="3.2619"/><rect class="cls-8" x="78.7228" y="99.0652" width="1.0847" height="3.2619"/><rect class="cls-8" x="80.2893" y="99.0652" width="1.0847" height="3.2619"/><rect class="cls-8" x="81.8557" y="99.0652" width="1.0847" height="3.2619"/><rect class="cls-8" x="83.4222" y="99.0652" width="1.0847" height="3.2619"/><rect class="cls-8" x="84.9886" y="99.0652" width="1.0847" height="3.2619"/><rect class="cls-8" x="86.5551" y="99.0652" width="1.0847" height="3.2619"/><rect class="cls-8" x="88.1215" y="99.0652" width="1.0847" height="3.2619"/><rect class="cls-8" x="89.688" y="99.0652" width="1.0847" height="3.2619"/><rect class="cls-7" x="71.2328" y="115.272" width="19.7109" height="5.5497"/><rect class="cls-2" x="71.7831" y="115.9696" width="1.1031" height="4.2465"/><path class="cls-15" d="M74.1867,116.8621a.3528.3528,0,1,1-.3554-.35h.0026A.3527.3527,0,0,1,74.1867,116.8621Z"/><path class="cls-15" d="M74.1867,118.3628a.3528.3528,0,1,1-.3554-.35h.0026A.3528.3528,0,0,1,74.1867,118.3628Z"/><rect class="cls-8" x="75.5873" y="116.512" width="1.0847" height="3.2619"/><rect class="cls-8" x="77.1564" y="116.512" width="1.0847" height="3.2619"/><rect class="cls-8" x="78.7228" y="116.512" width="1.0847" height="3.2619"/><rect class="cls-8" x="80.2893" y="116.512" width="1.0847" height="3.2619"/><rect class="cls-8" x="81.8557" y="116.512" width="1.0847" height="3.2619"/><rect class="cls-8" x="83.4222" y="116.512" width="1.0847" height="3.2619"/><rect class="cls-8" x="84.9886" y="116.512" width="1.0847" height="3.2619"/><rect class="cls-8" x="86.5551" y="116.512" width="1.0847" height="3.2619"/><rect class="cls-8" x="88.1215" y="116.512" width="1.0847" height="3.2619"/><rect class="cls-8" x="89.688" y="116.512" width="1.0847" height="3.2619"/><rect class="cls-7" x="71.2328" y="106.5552" width="19.7109" height="5.5497"/><rect class="cls-2" x="71.7831" y="107.2528" width="1.1031" height="4.2465"/><path class="cls-15" d="M74.1867,108.1479a.3528.3528,0,1,1-.3528-.3528h0A.3528.3528,0,0,1,74.1867,108.1479Z"/><path class="cls-15" d="M74.1867,109.6486a.3528.3528,0,1,1-.3528-.3528h0A.3527.3527,0,0,1,74.1867,109.6486Z"/><rect class="cls-8" x="75.5873" y="107.7952" width="1.0847" height="3.2619"/><rect class="cls-8" x="77.1564" y="107.7952" width="1.0847" height="3.2619"/><rect class="cls-8" x="78.7228" y="107.7952" width="1.0847" height="3.2619"/><rect class="cls-8" x="80.2893" y="107.7952" width="1.0847" height="3.2619"/><rect class="cls-8" x="81.8557" y="107.7952" width="1.0847" height="3.2619"/><rect class="cls-8" x="83.4222" y="107.7952" width="1.0847" height="3.2619"/><rect class="cls-8" x="84.9886" y="107.7952" width="1.0847" height="3.2619"/><rect class="cls-8" x="86.5551" y="107.7952" width="1.0847" height="3.2619"/><rect class="cls-8" x="88.1215" y="107.7952" width="1.0847" height="3.2619"/><rect class="cls-8" x="89.688" y="107.7952" width="1.0847" height="3.2619"/><path class="cls-7" d="M83.4222,64.3716a.7045.7045,0,0,1-.0211-.1711c0-.1132,0-.279-.0184-.4949s0-.4739-.0237-.79a5.145,5.145,0,0,0-.1343-1.0136,3.6421,3.6421,0,0,0-.5265-1.111,2.4777,2.4777,0,0,0-1.082-.8688,5.146,5.146,0,0,0-1.5323-.3107l-1.698-.1474c-2.3247-.2027-4.4361-.3317-5.9657-.358-.7635-.0158-1.3822,0-1.8113,0h-.4923a.7308.7308,0,0,1-.1711,0,1.0789,1.0789,0,0,1,.1711-.0185l.4923-.0289c.4265-.0185,1.0531-.0369,1.8139-.0316,1.5322,0,3.6463.1211,5.9736.3238l1.7007.1474a5.3022,5.3022,0,0,1,1.5638.3291,2.54,2.54,0,0,1,1.1215.9136,3.6287,3.6287,0,0,1,.5266,1.1478,4.7912,4.7912,0,0,1,.1184,1.032v1.2821A1.316,1.316,0,0,1,83.4222,64.3716Z"/><path class="cls-7" d="M77.4407,64.3716a1.0105,1.0105,0,0,1,0-.1632v-.4633c0-.2,0-.4476-.0237-.7319a2.2131,2.2131,0,0,0-.2422-.9136,1.74,1.74,0,0,0-.89-.6845,2.4545,2.4545,0,0,0-1.2979-.1342,2.2531,2.2531,0,0,0-.6714.229,1.3162,1.3162,0,0,0-.5265.4923.7082.7082,0,0,0,0,.6977.9371.9371,0,0,0,.59.4449.7529.7529,0,0,0,.6924-.2,1.0321,1.0321,0,0,0,.3107-.6608,1.0058,1.0058,0,0,0-.2054-.6739,1.4793,1.4793,0,0,0-.5265-.4608,1.9719,1.9719,0,0,0-.6529-.1658c-.2212-.0343-.44-.0632-.6477-.0869-.4186-.0474-.8135-.0737-1.1715-.0869-.7161-.0289-1.3006-.0184-1.7034-.0184h-.4633a.6347.6347,0,0,1-.1606,0,.6426.6426,0,0,1,.1606-.0158l.4633-.0237c.4028-.0158.9847-.0395,1.706-.0237.3607,0,.7582.0316,1.18.0737.2106.0211.4291.0474.6529.079.1132.0184.2237.0316.3422.0553a1.2878,1.2878,0,0,1,.3475.1185,1.58,1.58,0,0,1,.5661.4949,1.1267,1.1267,0,0,1,.2316.753,1.1552,1.1552,0,0,1-.3475.74.8818.8818,0,0,1-.8056.2317,1.0527,1.0527,0,0,1-.6713-.5055.8264.8264,0,0,1,0-.8161,1.3872,1.3872,0,0,1,.5713-.54,2.3658,2.3658,0,0,1,.7108-.2369,2.5564,2.5564,0,0,1,1.3558.15,1.8433,1.8433,0,0,1,.9294.7372,2.3207,2.3207,0,0,1,.2343.9556c.0158.287,0,.5266,0,.7346s-.0158.3448-.0185.4633A.677.677,0,0,1,77.4407,64.3716Z"/><path class="cls-7" d="M85.0308,64.3716a.913.913,0,0,1-.04-.1843c-.0211-.1211-.0553-.3-.1053-.5265a10.093,10.093,0,0,0-.5792-1.88A5.4741,5.4741,0,0,0,82.59,59.4775a3.2175,3.2175,0,0,0-1.58-.6,16.7562,16.7562,0,0,0-1.8428-.0974c-2.5485-.05-4.8573-.04-6.5265-.1027-.8345-.0289-1.5111-.0684-1.9771-.1026l-.5265-.0448a.873.873,0,0,1-.187-.0237,1.1447,1.1447,0,0,1,.187,0l.5265.0211c.4686.0184,1.1426.0421,1.9771.0605,1.6692.0422,3.9754.0185,6.5265.0658a16.5824,16.5824,0,0,1,1.8639.1027,3.3408,3.3408,0,0,1,1.6244.6292,5.0427,5.0427,0,0,1,1.0846,1.1479,6.7025,6.7025,0,0,1,.6424,1.2137,9.3368,9.3368,0,0,1,.545,1.9034c.0421.2317.0684.4107.0816.5265A1.6546,1.6546,0,0,1,85.0308,64.3716Z"/><rect class="cls-7" x="71.504" y="53.862" width="19.1686" height="2.7827"/><rect class="cls-8" x="75.7189" y="55.2546" width="10.436" height="1.3901"/><path class="cls-7" d="M98.4917,111.5757c0,.0132-.2106.0342-.5792.1395a5.0208,5.0208,0,0,0-1.448.7109,4.0153,4.0153,0,0,0-.8135.7555,2.8069,2.8069,0,0,0-.3344.5266,3.3882,3.3882,0,0,0-.2079.616,10.8155,10.8155,0,0,0-.1106,2.9355,6.1309,6.1309,0,0,1-.44,2.93,3.204,3.204,0,0,1-.79,1.0531,3.776,3.776,0,0,1-.9583.6108,3.9173,3.9173,0,0,1-.8977.2633,3.376,3.376,0,0,1-.7082.0289,2.3435,2.3435,0,0,1-.44-.0684.5271.5271,0,0,1-.1474-.0474c0-.0132.208.05.59.0684a3.4186,3.4186,0,0,0,.6924-.0526,3.7657,3.7657,0,0,0,1.8008-.8846,3.2086,3.2086,0,0,0,.7477-1.0188,6.1422,6.1422,0,0,0,.4186-2.8749,10.6751,10.6751,0,0,1,.1211-2.9671,3.686,3.686,0,0,1,.2237-.64,2.952,2.952,0,0,1,.35-.5266,4.1591,4.1591,0,0,1,.8424-.7634,4.818,4.818,0,0,1,1.4875-.6845,3.1635,3.1635,0,0,1,.437-.0816A.5255.5255,0,0,1,98.4917,111.5757Z"/><rect class="cls-7" x="89.6564" y="121.156" width="1.5743" height="1.914"/><rect class="cls-8" x="98.4917" y="106.7394" width="8.8248" height="9.6672"/><circle class="cls-7" cx="102.9054" cy="111.6108" r="2.9039"/><path class="cls-8" d="M104.3547,111.6125a1.4533,1.4533,0,1,1-1.4533-1.4532h.0027A1.4533,1.4533,0,0,1,104.3547,111.6125Z"/><circle class="cls-7" cx="99.6869" cy="108.2401" r="0.2685"/><circle class="cls-7" cx="105.9659" cy="108.2401" r="0.2685"/><path class="cls-7" d="M106.0238,115.1114a.2685.2685,0,1,1-.2686.2685A.2685.2685,0,0,1,106.0238,115.1114Z"/><circle class="cls-7" cx="99.6869" cy="115.4905" r="0.2685"/><rect class="cls-7" x="107.3164" y="106.7394" width="0.7108" height="9.6672"/><path class="cls-7" d="M114.8012,70.3584c0,.0368-2.53.0632-5.6472.0632s-5.6471-.0264-5.6471-.0632,2.5274-.0606,5.6471-.0606S114.8012,70.3215,114.8012,70.3584Z"/><path class="cls-7" d="M138.2479,71.5615h-1.7324l-4.8415.0184-16.7044.0237h-.0447l-.0132-.0447a4.1493,4.1493,0,0,1,4.1018-5.2944l-.0632.079a3.4875,3.4875,0,0,1-.129-1.1215,3.7067,3.7067,0,0,1,1.9139-3.1171,3.7808,3.7808,0,0,1,3.5384.0211l-.0869.0289a5.5287,5.5287,0,0,1,3.2513-3.02,5.1763,5.1763,0,0,1,4.11.1948,5.6079,5.6079,0,0,1,2.5431,2.78,5.3122,5.3122,0,0,1,.3133,3.3329l-.0474-.0552a3.9859,3.9859,0,0,1,1.9351.279,4.0526,4.0526,0,0,1,1.4348.982,2.5169,2.5169,0,0,1,.45.6477,3.7263,3.7263,0,0,1,.2422.69,6.1165,6.1165,0,0,1,.1632,1.2558,7.2576,7.2576,0,0,1-.15,1.7376,3.6168,3.6168,0,0,1-.1211.437c-.0315.0974-.05.1448-.05.1448s.0132-.0553.04-.15.0658-.2422.1079-.437a7.4545,7.4545,0,0,0,.1264-1.73A6.0353,6.0353,0,0,0,138.3611,68a2.7412,2.7412,0,0,0-.6845-1.3164,3.9737,3.9737,0,0,0-1.4138-.9583,3.9041,3.9041,0,0,0-1.8955-.2632h-.0606V65.401a5.22,5.22,0,0,0-.3185-3.2408,5.513,5.513,0,0,0-2.5037-2.7222,5.0573,5.0573,0,0,0-4.02-.1817,5.4021,5.4021,0,0,0-3.1592,2.9565l-.0264.0632-.0579-.0342a3.66,3.66,0,0,0-3.4225-.0158,3.5751,3.5751,0,0,0-1.8429,3.0118,3.3178,3.3178,0,0,0,.1238,1.082l.0237.0816h-.09a4.028,4.028,0,0,0-3.9754,5.1548l-.0579-.0421,16.6728.0263,4.8494.0158H138.14A1.0525,1.0525,0,0,1,138.2479,71.5615Z"/><path class="cls-7" d="M135.007,85.7622a.8653.8653,0,0,1-.1527,0h-.4423l-1.6507.0158-5.6945.0237h-.0605V82.653c0-3.0434,0-5.7919.0184-7.8007,0-.99.0158-1.7928.0211-2.3694v0c0,.5713.0131,1.3743.021,2.3694,0,2.0062,0,4.7573.0185,7.8007v3.0881l-.0606-.0605,5.6945.0237,1.6507.0158h.4423A.8661.8661,0,0,1,135.007,85.7622Z"/></svg>