<svg id="Layer_1" data-name="Layer 1" xmlns="http://www.w3.org/2000/svg" viewBox="0 0 579.4 368.32"><defs><style>.cls-1{font-size:16px;font-family:OpenSans-SemiboldItalic, Open Sans;font-weight:600;font-style:italic;}.cls-1,.cls-2{fill:#ff4e5a;}.cls-3{fill:#ececec;}.cls-4{fill:#f5f5f5;}.cls-5{fill:#e1e1e1;}.cls-6{fill:#fafafa;}.cls-7{fill:#1a2e35;}.cls-8{fill:#375a64;}.cls-9{fill:#ff4f5b;}.cls-10,.cls-11{opacity:0.4;}.cls-12{fill:#ffbf9d;}.cls-13{opacity:0.2;}.cls-14{fill:#ff9a6c;}.cls-15{fill:#fff;}</style></defs><title>slide2</title><text class="cls-1" transform="translate(147.74 13.71)">Reducir el costo de operaciones y mantenimiento</text><circle class="cls-2" cx="139.4" cy="10.32" r="3"/><rect class="cls-3" x="16.42" y="130.6" width="77.44" height="237.21"/><rect class="cls-4" x="93.62" y="131.36" width="61.2" height="236.44"/><rect class="cls-5" x="20.58" y="168.56" width="65.69" height="18.49"/><rect class="cls-4" x="22.41" y="170.89" width="3.68" height="14.15"/><path class="cls-6" d="M79,241.55a1.17,1.17,0,1,1-1.16-1.17A1.17,1.17,0,0,1,79,241.55Z" transform="translate(-48.6 -67.68)"/><path class="cls-6" d="M79,246.55a1.17,1.17,0,1,1-1.16-1.17A1.16,1.16,0,0,1,79,246.55Z" transform="translate(-48.6 -67.68)"/><rect class="cls-4" x="35.1" y="172.7" width="3.61" height="10.87"/><rect class="cls-4" x="40.32" y="172.7" width="3.61" height="10.87"/><rect class="cls-4" x="45.54" y="172.7" width="3.61" height="10.87"/><rect class="cls-4" x="50.76" y="172.7" width="3.61" height="10.87"/><rect class="cls-4" x="55.98" y="172.7" width="3.61" height="10.87"/><rect class="cls-4" x="61.2" y="172.7" width="3.61" height="10.87"/><rect class="cls-4" x="66.43" y="172.7" width="3.61" height="10.87"/><rect class="cls-4" x="71.65" y="172.7" width="3.61" height="10.87"/><rect class="cls-4" x="76.87" y="172.7" width="3.61" height="10.87"/><rect class="cls-4" x="82.09" y="172.7" width="3.61" height="10.87"/><rect class="cls-5" x="20.58" y="198.18" width="65.69" height="18.49"/><rect class="cls-4" x="22.41" y="200.51" width="3.68" height="14.15"/><path class="cls-6" d="M79,271.17A1.17,1.17,0,1,1,77.86,270,1.16,1.16,0,0,1,79,271.17Z" transform="translate(-48.6 -67.68)"/><path class="cls-6" d="M79,276.17A1.17,1.17,0,1,1,77.86,275,1.16,1.16,0,0,1,79,276.17Z" transform="translate(-48.6 -67.68)"/><rect class="cls-4" x="35.1" y="202.32" width="3.61" height="10.87"/><rect class="cls-4" x="40.32" y="202.32" width="3.61" height="10.87"/><rect class="cls-4" x="45.54" y="202.32" width="3.61" height="10.87"/><rect class="cls-4" x="50.76" y="202.32" width="3.61" height="10.87"/><rect class="cls-4" x="55.98" y="202.32" width="3.61" height="10.87"/><rect class="cls-4" x="61.2" y="202.32" width="3.61" height="10.87"/><rect class="cls-4" x="66.43" y="202.32" width="3.61" height="10.87"/><rect class="cls-4" x="71.65" y="202.32" width="3.61" height="10.87"/><rect class="cls-4" x="76.87" y="202.32" width="3.61" height="10.87"/><rect class="cls-4" x="82.09" y="202.32" width="3.61" height="10.87"/><rect class="cls-5" x="20.58" y="227.8" width="65.69" height="18.49"/><rect class="cls-4" x="22.41" y="230.13" width="3.68" height="14.15"/><path class="cls-6" d="M79,300.79a1.17,1.17,0,1,1-1.16-1.17A1.16,1.16,0,0,1,79,300.79Z" transform="translate(-48.6 -67.68)"/><path class="cls-6" d="M79,305.79a1.17,1.17,0,1,1-1.16-1.17A1.16,1.16,0,0,1,79,305.79Z" transform="translate(-48.6 -67.68)"/><rect class="cls-4" x="35.1" y="231.94" width="3.61" height="10.87"/><rect class="cls-4" x="40.32" y="231.94" width="3.61" height="10.87"/><rect class="cls-4" x="45.54" y="231.94" width="3.61" height="10.87"/><rect class="cls-4" x="50.76" y="231.94" width="3.61" height="10.87"/><rect class="cls-4" x="55.98" y="231.94" width="3.61" height="10.87"/><rect class="cls-4" x="61.2" y="231.94" width="3.61" height="10.87"/><rect class="cls-4" x="66.43" y="231.94" width="3.61" height="10.87"/><rect class="cls-4" x="71.65" y="231.94" width="3.61" height="10.87"/><rect class="cls-4" x="76.87" y="231.94" width="3.61" height="10.87"/><rect class="cls-4" x="82.09" y="231.94" width="3.61" height="10.87"/><rect class="cls-5" x="20.58" y="257.42" width="65.69" height="18.49"/><rect class="cls-4" x="22.41" y="259.75" width="3.68" height="14.15"/><path class="cls-6" d="M79,330.41a1.17,1.17,0,1,1-1.16-1.17A1.16,1.16,0,0,1,79,330.41Z" transform="translate(-48.6 -67.68)"/><path class="cls-6" d="M79,335.41a1.17,1.17,0,1,1-1.16-1.17A1.16,1.16,0,0,1,79,335.41Z" transform="translate(-48.6 -67.68)"/><rect class="cls-4" x="35.1" y="261.56" width="3.61" height="10.87"/><rect class="cls-4" x="40.32" y="261.56" width="3.61" height="10.87"/><rect class="cls-4" x="45.54" y="261.56" width="3.61" height="10.87"/><rect class="cls-4" x="50.76" y="261.56" width="3.61" height="10.87"/><rect class="cls-4" x="55.98" y="261.56" width="3.61" height="10.87"/><rect class="cls-4" x="61.2" y="261.56" width="3.61" height="10.87"/><rect class="cls-4" x="66.43" y="261.56" width="3.61" height="10.87"/><rect class="cls-4" x="71.65" y="261.56" width="3.61" height="10.87"/><rect class="cls-4" x="76.87" y="261.56" width="3.61" height="10.87"/><rect class="cls-4" x="82.09" y="261.56" width="3.61" height="10.87"/><rect class="cls-5" x="20.58" y="287.05" width="65.69" height="18.49"/><rect class="cls-4" x="22.41" y="289.37" width="3.68" height="14.15"/><path class="cls-6" d="M79,360a1.17,1.17,0,1,1-1.16-1.17A1.16,1.16,0,0,1,79,360Z" transform="translate(-48.6 -67.68)"/><path class="cls-6" d="M79,365a1.17,1.17,0,1,1-1.16-1.17A1.16,1.16,0,0,1,79,365Z" transform="translate(-48.6 -67.68)"/><rect class="cls-4" x="35.1" y="291.18" width="3.61" height="10.87"/><rect class="cls-4" x="40.32" y="291.18" width="3.61" height="10.87"/><rect class="cls-4" x="45.54" y="291.18" width="3.61" height="10.87"/><rect class="cls-4" x="50.76" y="291.18" width="3.61" height="10.87"/><rect class="cls-4" x="55.98" y="291.18" width="3.61" height="10.87"/><rect class="cls-4" x="61.2" y="291.18" width="3.61" height="10.87"/><rect class="cls-4" x="66.43" y="291.18" width="3.61" height="10.87"/><rect class="cls-4" x="71.65" y="291.18" width="3.61" height="10.87"/><rect class="cls-4" x="76.87" y="291.18" width="3.61" height="10.87"/><rect class="cls-4" x="82.09" y="291.18" width="3.61" height="10.87"/><rect class="cls-5" x="20.58" y="316.67" width="65.69" height="18.49"/><rect class="cls-4" x="22.41" y="318.99" width="3.68" height="14.15"/><path class="cls-6" d="M79,389.65a1.17,1.17,0,1,1-1.16-1.17A1.16,1.16,0,0,1,79,389.65Z" transform="translate(-48.6 -67.68)"/><path class="cls-6" d="M79,394.65a1.17,1.17,0,1,1-1.16-1.17A1.16,1.16,0,0,1,79,394.65Z" transform="translate(-48.6 -67.68)"/><rect class="cls-4" x="35.1" y="320.8" width="3.61" height="10.87"/><rect class="cls-4" x="40.32" y="320.8" width="3.61" height="10.87"/><rect class="cls-4" x="45.54" y="320.8" width="3.61" height="10.87"/><rect class="cls-4" x="50.76" y="320.8" width="3.61" height="10.87"/><rect class="cls-4" x="55.98" y="320.8" width="3.61" height="10.87"/><rect class="cls-4" x="61.2" y="320.8" width="3.61" height="10.87"/><rect class="cls-4" x="66.43" y="320.8" width="3.61" height="10.87"/><rect class="cls-4" x="71.65" y="320.8" width="3.61" height="10.87"/><rect class="cls-4" x="76.87" y="320.8" width="3.61" height="10.87"/><rect class="cls-4" x="82.09" y="320.8" width="3.61" height="10.87"/><rect class="cls-5" x="20.58" y="346.29" width="65.69" height="18.49"/><rect class="cls-4" x="22.41" y="348.61" width="3.68" height="14.15"/><path class="cls-6" d="M79,419.27a1.17,1.17,0,1,1-1.16-1.17A1.16,1.16,0,0,1,79,419.27Z" transform="translate(-48.6 -67.68)"/><path class="cls-6" d="M79,424.27a1.17,1.17,0,1,1-1.16-1.16A1.16,1.16,0,0,1,79,424.27Z" transform="translate(-48.6 -67.68)"/><rect class="cls-4" x="35.1" y="350.42" width="3.61" height="10.87"/><rect class="cls-4" x="40.32" y="350.42" width="3.61" height="10.87"/><rect class="cls-4" x="45.54" y="350.42" width="3.61" height="10.87"/><rect class="cls-4" x="50.76" y="350.42" width="3.61" height="10.87"/><rect class="cls-4" x="55.98" y="350.42" width="3.61" height="10.87"/><rect class="cls-4" x="61.2" y="350.42" width="3.61" height="10.87"/><rect class="cls-4" x="66.43" y="350.42" width="3.61" height="10.87"/><rect class="cls-4" x="71.65" y="350.42" width="3.61" height="10.87"/><rect class="cls-4" x="76.87" y="350.42" width="3.61" height="10.87"/><rect class="cls-4" x="82.09" y="350.42" width="3.61" height="10.87"/><path class="cls-5" d="M109.8,236.25a3.35,3.35,0,0,1-.07-.57c0-.38,0-.93-.07-1.65s0-1.58-.08-2.59a16.12,16.12,0,0,0-.46-3.37,11.8,11.8,0,0,0-1.75-3.69,8.22,8.22,0,0,0-3.59-2.89,17.5,17.5,0,0,0-5.1-1L93,220c-7.75-.67-14.78-1.11-19.88-1.2-2.54-.06-4.61-.05-6,0H65.47a2.17,2.17,0,0,1-.58,0,4.45,4.45,0,0,1,.57-.06l1.64-.11c1.43-.06,3.5-.12,6.05-.11,5.11,0,12.15.39,19.91,1.07l5.66.49a17.84,17.84,0,0,1,5.23,1.1,8.58,8.58,0,0,1,3.74,3.06,12.24,12.24,0,0,1,1.76,3.83,16.05,16.05,0,0,1,.39,3.45c0,1,0,1.89,0,2.6s0,1.22,0,1.64A2.9,2.9,0,0,1,109.8,236.25Z" transform="translate(-48.6 -67.68)"/><path class="cls-5" d="M89.88,236.25a1.8,1.8,0,0,1,0-.54c0-.41,0-.92,0-1.55s0-1.49-.08-2.43a7.51,7.51,0,0,0-.81-3,5.78,5.78,0,0,0-3-2.27,8.18,8.18,0,0,0-4.32-.44,7.31,7.31,0,0,0-2.22.76,4.18,4.18,0,0,0-1.73,1.63,2.34,2.34,0,0,0,0,2.29,3.07,3.07,0,0,0,2,1.47,2.49,2.49,0,0,0,2.28-.66,3.39,3.39,0,0,0,1-2.18,3.3,3.3,0,0,0-.68-2.22,5,5,0,0,0-1.73-1.53,6.62,6.62,0,0,0-2.17-.56c-.74-.11-1.46-.21-2.16-.28-1.39-.16-2.7-.25-3.89-.3-2.4-.1-4.34-.06-5.68-.07H65.11a2,2,0,0,1-.54,0,1.84,1.84,0,0,1,.53-.06l1.55-.08c1.34-.06,3.28-.14,5.69-.09,1.2,0,2.52.1,3.93.24.7.07,1.43.16,2.18.27.37.06.74.1,1.14.18a4.1,4.1,0,0,1,1.16.4,5.3,5.3,0,0,1,1.9,1.66,3.75,3.75,0,0,1,.77,2.52,3.8,3.8,0,0,1-1.16,2.48,2.93,2.93,0,0,1-2.71.78,3.5,3.5,0,0,1-2.26-1.7,2.81,2.81,0,0,1,0-2.74,4.7,4.7,0,0,1,1.92-1.81,7.53,7.53,0,0,1,2.37-.79,8.43,8.43,0,0,1,4.53.5,6.13,6.13,0,0,1,3.11,2.47,7.45,7.45,0,0,1,.78,3.19c.05,1,0,1.78,0,2.45s0,1.14-.06,1.55A3.37,3.37,0,0,1,89.88,236.25Z" transform="translate(-48.6 -67.68)"/><path class="cls-5" d="M115.16,236.25a4,4,0,0,1-.13-.61c-.08-.41-.19-1-.36-1.76a33.66,33.66,0,0,0-1.94-6.26A18.26,18.26,0,0,0,107,220a10.9,10.9,0,0,0-5.23-2,55.42,55.42,0,0,0-6.15-.33c-8.49-.16-16.19-.13-21.75-.35-2.79-.1-5-.23-6.59-.34l-1.79-.16a2.69,2.69,0,0,1-.62-.09h.63l1.79.06c1.55.06,3.8.14,6.59.19,5.56.14,13.24.06,21.75.22a52.64,52.64,0,0,1,6.21.34,11.19,11.19,0,0,1,5.42,2.1,16.69,16.69,0,0,1,3.62,3.83,22.13,22.13,0,0,1,2.14,4.05,31.3,31.3,0,0,1,1.82,6.36c.13.76.22,1.36.26,1.77A3,3,0,0,1,115.16,236.25Z" transform="translate(-48.6 -67.68)"/><rect class="cls-5" x="21.49" y="133.55" width="63.88" height="9.27"/><rect class="cls-4" x="35.53" y="138.19" width="34.78" height="4.64"/><path class="cls-7" d="M623,434.75l-1.48,0-4.35,0-16.74.11-61.56.3-203.09.64c-79.33.16-151.14.18-203.12,0-26-.08-47-.22-61.55-.41-7.27-.09-12.91-.2-16.74-.32s-5.83-.29-5.81-.41a1.81,1.81,0,0,0,.36.07c.25,0,.62.06,1.11.09q1.47.07,4.35.15c3.82.09,9.46.17,16.73.24,14.53.13,35.56.21,61.55.25,52,.08,123.79,0,203.12-.16l203.09-.5,61.56-.14,16.74,0h4.35Z" transform="translate(-48.6 -67.68)"/><path class="cls-7" d="M487.6,230.6a4.58,4.58,0,0,0-5.34-3.12,8.21,8.21,0,0,1-2.5.63,6.43,6.43,0,0,1-2.12-.76,6.81,6.81,0,0,0-8.7,3.8,6.22,6.22,0,0,0-9,7.1,5.46,5.46,0,0,0-1.08,10.41,6.14,6.14,0,0,0,4.56,9.08,5.59,5.59,0,0,0,8.74,5.39,5.56,5.56,0,0,0,10,1.81c1.89,1.93,5.33,1.64,7.32-.19a8.74,8.74,0,0,0,2.35-7.43,5.78,5.78,0,0,0,6.26-9,5.09,5.09,0,0,0,4.34-3.56,6.36,6.36,0,0,0-1.1-5.64,8.53,8.53,0,0,0-5-3.06,6.54,6.54,0,0,0-8.24-5.17" transform="translate(-48.6 -67.68)"/><polygon class="cls-8" points="431.67 292.24 429.42 364.45 425.98 364.45 426.65 292.44 431.67 292.24"/><polygon class="cls-8" points="444.08 291.38 461.04 367.59 464.72 367.41 450.71 291.38 444.08 291.38"/><polygon class="cls-8" points="412.76 292.24 393 367.59 388.64 367.41 407.22 291.92 412.76 292.24"/><path class="cls-8" d="M509.44,285.21s18.45-1.06,16.61,20.3-2.9,43-9.75,50.34-75.92,7.64-81.72,1.58,11.07-5.8,14.24-5.8,22.67,1.85,29-14.76S482.56,284.15,509.44,285.21Z" transform="translate(-48.6 -67.68)"/><path class="cls-8" d="M510.62,285.22s14.11,2.89,12.79,17.65-5,40.59-11.86,47.18-33.71,8-48.24,7.12c-16.87-1.06-27.51-4.27-27.51-4.27s-3.08,2-2.15,3.26,9.16,6.4,49,5.55,37.1-6.74,38.76-13.17,5.12-40.69,4.64-48.22S521.81,286.54,510.62,285.22Z" transform="translate(-48.6 -67.68)"/><path class="cls-9" d="M425.67,430.69l-.05-8.4,15.74-.19.2,12.29-1,.08c-4.34.29-22.08,1.18-25,.34C412.34,433.87,425.67,430.69,425.67,430.69Z" transform="translate(-48.6 -67.68)"/><g class="cls-10"><path d="M435.85,434.34a5.47,5.47,0,0,1,2-3.38,5.3,5.3,0,0,1,3.66-1.19l.06,4.4Z" transform="translate(-48.6 -67.68)"/></g><path class="cls-11" d="M419.16,432.48s-4.67,1.4-4.08,2.17,18.56.54,26.48-.26l0-.35-20.95.44S420.08,432.5,419.16,432.48Z" transform="translate(-48.6 -67.68)"/><path class="cls-7" d="M441.78,434l-.27,0-.78.06-2.86.16c-2.41.11-5.75.23-9.44.28s-7,0-9.44,0l-2.87-.08-.77,0-.27,0,.27,0h.78l2.86,0c2.41,0,5.75,0,9.44,0s7-.15,9.44-.23l2.85-.1.78,0Z" transform="translate(-48.6 -67.68)"/><path class="cls-7" d="M420.58,434.73a6.07,6.07,0,0,0-.55-1.36,6.46,6.46,0,0,0-1-1.08,2.54,2.54,0,0,1,1.54,2.44Z" transform="translate(-48.6 -67.68)"/><path class="cls-7" d="M425.2,432.31c-.05,0-.27-.23-.51-.59s-.39-.68-.34-.7.27.23.5.59A1.75,1.75,0,0,1,425.2,432.31Z" transform="translate(-48.6 -67.68)"/><path class="cls-7" d="M426.46,431.63s-.28-.13-.56-.37-.47-.46-.43-.5.28.12.56.36S426.5,431.59,426.46,431.63Z" transform="translate(-48.6 -67.68)"/><path class="cls-7" d="M427.25,430.13a2,2,0,0,1-.82.11,1.84,1.84,0,0,1-.83-.07,2.05,2.05,0,0,1,.82-.12A1.89,1.89,0,0,1,427.25,430.13Z" transform="translate(-48.6 -67.68)"/><path class="cls-7" d="M427.51,429.08a1.59,1.59,0,0,1-.91.28,1.57,1.57,0,0,1-1-.12,5.26,5.26,0,0,1,.93-.07A4.69,4.69,0,0,1,427.51,429.08Z" transform="translate(-48.6 -67.68)"/><path class="cls-7" d="M424.64,431a3.08,3.08,0,0,1-1,0,6.81,6.81,0,0,1-1.08-.23,4.11,4.11,0,0,1-.62-.24.56.56,0,0,1-.25-.31.41.41,0,0,1,.15-.41,1.87,1.87,0,0,1,2.3.51,1.91,1.91,0,0,1,.34.67.67.67,0,0,1,0,.28,3.17,3.17,0,0,0-.47-.86,1.85,1.85,0,0,0-.88-.55,1.57,1.57,0,0,0-1.2.1c-.16.12-.09.3.09.41a2.61,2.61,0,0,0,.57.23,6.56,6.56,0,0,0,1,.26C424.26,430.92,424.64,430.92,424.64,431Z" transform="translate(-48.6 -67.68)"/><path class="cls-7" d="M424.38,431a1,1,0,0,1-.12-.7,1.69,1.69,0,0,1,.26-.74,1,1,0,0,1,.84-.53.42.42,0,0,1,.32.47,1.21,1.21,0,0,1-.17.45,3,3,0,0,1-.47.62,1.68,1.68,0,0,1-.57.42s.2-.19.47-.51a3.41,3.41,0,0,0,.42-.61c.13-.22.22-.61,0-.65s-.51.24-.66.44a1.68,1.68,0,0,0-.28.66A5.15,5.15,0,0,0,424.38,431Z" transform="translate(-48.6 -67.68)"/><path class="cls-7" d="M441.4,429.73s-.45,0-1.16,0a5.12,5.12,0,0,0-2.53,1.08,5.05,5.05,0,0,0-1.55,2.26c-.23.68-.25,1.13-.29,1.13a1.34,1.34,0,0,1,0-.32,3.93,3.93,0,0,1,.16-.85,5,5,0,0,1,1.56-2.37,4.83,4.83,0,0,1,2.63-1.06,4,4,0,0,1,.87,0C441.29,429.69,441.4,429.71,441.4,429.73Z" transform="translate(-48.6 -67.68)"/><path class="cls-7" d="M439.69,423.2a27.78,27.78,0,0,1,.17,3.23,27.36,27.36,0,0,1,0,3.23,28.81,28.81,0,0,1-.18-3.23A26,26,0,0,1,439.69,423.2Z" transform="translate(-48.6 -67.68)"/><path class="cls-7" d="M433.85,432.83a13.32,13.32,0,0,1-4.6.1c0-.06,1,0,2.3,0S433.84,432.77,433.85,432.83Z" transform="translate(-48.6 -67.68)"/><path class="cls-7" d="M436.94,432.78s-.09.22-.19.46-.15.45-.21.44-.08-.24,0-.52S436.9,432.75,436.94,432.78Z" transform="translate(-48.6 -67.68)"/><path class="cls-7" d="M438.08,431.32s-.06.2-.22.37-.32.27-.36.24.06-.2.22-.37S438,431.29,438.08,431.32Z" transform="translate(-48.6 -67.68)"/><path class="cls-7" d="M439.73,430.64c0,.05-.22.06-.45.14s-.39.21-.43.17.08-.25.37-.35S439.75,430.59,439.73,430.64Z" transform="translate(-48.6 -67.68)"/><path class="cls-7" d="M440.91,430.31c0,.05-.07.13-.2.19s-.25.05-.27,0,.07-.13.2-.18S440.89,430.27,440.91,430.31Z" transform="translate(-48.6 -67.68)"/><path class="cls-9" d="M461.42,430.69l-.05-8.4,15.74-.19.2,12.29-1,.08c-4.33.29-22.08,1.18-25,.34C448.09,433.87,461.42,430.69,461.42,430.69Z" transform="translate(-48.6 -67.68)"/><g class="cls-10"><path d="M471.6,434.34a5.47,5.47,0,0,1,2-3.38,5.3,5.3,0,0,1,3.66-1.19l.06,4.4Z" transform="translate(-48.6 -67.68)"/></g><path class="cls-11" d="M454.91,432.48s-4.67,1.4-4.07,2.17,18.55.54,26.47-.26l0-.35-20.95.44S455.83,432.5,454.91,432.48Z" transform="translate(-48.6 -67.68)"/><path class="cls-7" d="M477.53,434l-.27,0-.78.06-2.86.16c-2.41.11-5.75.23-9.44.28s-7,0-9.44,0l-2.86-.08-.78,0-.27,0,.27,0h.78l2.86,0c2.41,0,5.75,0,9.44,0s7-.15,9.44-.23l2.86-.1.77,0Z" transform="translate(-48.6 -67.68)"/><path class="cls-7" d="M456.33,434.73a4.12,4.12,0,0,0-1.54-2.44,2.07,2.07,0,0,1,1.15,1A2.09,2.09,0,0,1,456.33,434.73Z" transform="translate(-48.6 -67.68)"/><path class="cls-7" d="M461,432.31c-.05,0-.27-.23-.51-.59a1.81,1.81,0,0,1-.34-.7s.27.23.5.59A1.75,1.75,0,0,1,461,432.31Z" transform="translate(-48.6 -67.68)"/><path class="cls-7" d="M462.21,431.63s-.28-.13-.56-.37-.46-.46-.43-.5.29.12.56.36S462.25,431.59,462.21,431.63Z" transform="translate(-48.6 -67.68)"/><path class="cls-7" d="M463,430.13a2,2,0,0,1-.82.11,1.78,1.78,0,0,1-.82-.07,2,2,0,0,1,.82-.12A1.86,1.86,0,0,1,463,430.13Z" transform="translate(-48.6 -67.68)"/><path class="cls-7" d="M463.26,429.08a1.59,1.59,0,0,1-.91.28,1.57,1.57,0,0,1-1-.12,5.26,5.26,0,0,1,.93-.07A4.74,4.74,0,0,1,463.26,429.08Z" transform="translate(-48.6 -67.68)"/><path class="cls-7" d="M460.4,431a3.14,3.14,0,0,1-1,0,6.37,6.37,0,0,1-1.08-.23,3.43,3.43,0,0,1-.62-.24.58.58,0,0,1-.26-.31.41.41,0,0,1,.15-.41,1.87,1.87,0,0,1,2.3.51,1.91,1.91,0,0,1,.34.67.67.67,0,0,1,0,.28,3.17,3.17,0,0,0-.47-.86,1.87,1.87,0,0,0-.87-.55,1.59,1.59,0,0,0-1.21.1c-.16.12-.09.3.09.41a2.83,2.83,0,0,0,.57.23,6.56,6.56,0,0,0,1,.26C460,430.92,460.4,430.92,460.4,431Z" transform="translate(-48.6 -67.68)"/><path class="cls-7" d="M460.14,431a1,1,0,0,1-.13-.7,1.6,1.6,0,0,1,.27-.74,1,1,0,0,1,.83-.53.41.41,0,0,1,.32.47,1.06,1.06,0,0,1-.17.45,2.65,2.65,0,0,1-.47.62,1.68,1.68,0,0,1-.57.42s.2-.19.47-.51a3.41,3.41,0,0,0,.42-.61c.14-.22.23-.61,0-.65s-.51.24-.66.44a1.68,1.68,0,0,0-.28.66A3.11,3.11,0,0,0,460.14,431Z" transform="translate(-48.6 -67.68)"/><path class="cls-7" d="M477.15,429.73s-.45,0-1.16,0a5.09,5.09,0,0,0-2.52,1.08,5,5,0,0,0-1.56,2.26c-.23.68-.25,1.13-.28,1.13s0-.12,0-.32a3.93,3.93,0,0,1,.16-.85,4.9,4.9,0,0,1,1.57-2.37,4.8,4.8,0,0,1,2.62-1.06,4,4,0,0,1,.87,0C477,429.69,477.15,429.71,477.15,429.73Z" transform="translate(-48.6 -67.68)"/><path class="cls-7" d="M475.44,423.2a27.78,27.78,0,0,1,.17,3.23,27.36,27.36,0,0,1,0,3.23,28.81,28.81,0,0,1-.18-3.23A26,26,0,0,1,475.44,423.2Z" transform="translate(-48.6 -67.68)"/><path class="cls-7" d="M469.6,432.83a8.65,8.65,0,0,1-2.29.25,8.47,8.47,0,0,1-2.3-.15c0-.06,1,0,2.3,0S469.6,432.77,469.6,432.83Z" transform="translate(-48.6 -67.68)"/><path class="cls-7" d="M472.69,432.78s-.08.22-.19.46-.15.45-.21.44-.08-.24,0-.52S472.65,432.75,472.69,432.78Z" transform="translate(-48.6 -67.68)"/><path class="cls-7" d="M473.83,431.32s-.06.2-.22.37-.32.27-.36.24.06-.2.22-.37S473.79,431.29,473.83,431.32Z" transform="translate(-48.6 -67.68)"/><path class="cls-7" d="M475.49,430.64c0,.05-.22.06-.45.14s-.4.21-.44.17.09-.25.37-.35S475.5,430.59,475.49,430.64Z" transform="translate(-48.6 -67.68)"/><path class="cls-7" d="M476.67,430.31c0,.05-.07.13-.2.19s-.26.05-.28,0,.07-.13.2-.18S476.65,430.27,476.67,430.31Z" transform="translate(-48.6 -67.68)"/><path class="cls-12" d="M431,257.89c-1.1,11-4,44.22,11.2,43.06,17.93-1.36,22.06-15.5,22.06-15.5l-3.49-12.78s-17.69,15.39-18.15,13.52c-2.49-10.19-1.83-24.16-1.43-29.14" transform="translate(-48.6 -67.68)"/><path class="cls-2" d="M510.32,297.1l-3.07-15.39c-2.26-12.59-19.92-13.46-19.92-13.46L473.47,268a27.43,27.43,0,0,0-16.61,5.76c-7.43,6.1-12.35,10.72-12.35,10.72l11.6,13.41,6.86-4.53s-2.47,4.46-2.06,8.26c.39,3.62,4.23,6.45,4.23,6.45l.94,23.57,41.15.45-5.55-35Z" transform="translate(-48.6 -67.68)"/><path class="cls-7" d="M491,280.78a3.88,3.88,0,0,1,.24,1c.15.74.33,1.64.53,2.7.47,2.39,1.07,5.49,1.73,8.91s1.23,6.65,1.6,8.94c.18,1.15.31,2.08.38,2.73a4.28,4.28,0,0,1,.06,1,3.88,3.88,0,0,1-.24-1l-.54-2.7L493,293.46c-.67-3.49-1.23-6.65-1.6-8.94-.18-1.15-.31-2.09-.38-2.73A4.28,4.28,0,0,1,491,280.78Z" transform="translate(-48.6 -67.68)"/><path class="cls-7" d="M510.6,297.26a74.68,74.68,0,0,1-8.36.27,75.54,75.54,0,0,1-8.36-.21,74.68,74.68,0,0,1,8.36-.27A75.54,75.54,0,0,1,510.6,297.26Z" transform="translate(-48.6 -67.68)"/><path class="cls-7" d="M456.11,297.92a81,81,0,0,1-5.76-6.66,79.44,79.44,0,0,1-5.39-7,82.08,82.08,0,0,1,5.76,6.67A82.09,82.09,0,0,1,456.11,297.92Z" transform="translate(-48.6 -67.68)"/><path class="cls-7" d="M461,297.36a8.55,8.55,0,0,1,.79-1.86l1-2a3.63,3.63,0,0,0,.68-2.38c-.33-1.85-.66-3.56-.85-4.79a8,8,0,0,1-.22-2,9.1,9.1,0,0,1,.55,1.95c.28,1.23.65,2.89,1,4.79a2.38,2.38,0,0,1-.17,1.47,10,10,0,0,1-.6,1.18c-.38.68-.73,1.32-1.07,1.92A9,9,0,0,1,461,297.36Z" transform="translate(-48.6 -67.68)"/><polygon class="cls-13" points="417.36 260.94 416.77 252.17 456.39 252.17 457.9 259.78 417.36 260.94"/><path class="cls-13" d="M491.33,282.16q.27,8.05.53,16.1a10.11,10.11,0,0,1-.71,5.07c-1.38,2.62-4.64,3.48-7.54,4.08L466,311l32.71-1.59Z" transform="translate(-48.6 -67.68)"/><path class="cls-12" d="M512.2,309.45c-.89-7.39-1.88-12.16-1.88-12.16l-16.09.24s1.44,8.13,1,10.3c-.39,1.9-31.44,3.15-39.53,3.28-.49-.36-1.19.25-1.81-.3a6.64,6.64,0,0,1-1.38-1.69,10.06,10.06,0,0,1-1.1-2.51.83.83,0,0,0-1.54-.35c-.32.69,0,3,1.58,5.22s-2.49,1.08-4,.68-6.1-1.4-6.57-1c-.7.54-.27,1.41,1.22,1.77s5.85,1.76,5.62,2.55-7.73-1.34-7.73-1.34-1.53-.71-1.83.19c-.56,1.63,7.56,3.27,8.34,3.41.54.1.31,1-.26.83s-7.43-2.29-8-.64c-.45,1.27,6.66,1.42,7.84,2.68s-5.38-.68-5.76.55c-.14.46,2.59.67,6.51,1.22a99.17,99.17,0,0,0,12.13.43c9.09.5,41.24,1.16,48.11.68C515.1,322.89,512.51,312,512.2,309.45Z" transform="translate(-48.6 -67.68)"/><path class="cls-7" d="M512,288.79s.08,0,.24,0,.4.07.71.15a10.84,10.84,0,0,1,2.5,1.17,21.87,21.87,0,0,1,3.46,2.69c.62.58,1.26,1.23,1.9,2a18,18,0,0,1,1.85,2.46,4.57,4.57,0,0,1,.37.77c.06.27.13.54.2.81.13.55.28,1.11.4,1.68.23,1.15.45,2.35.6,3.61a50,50,0,0,1,.32,8.05,83.73,83.73,0,0,1-3.09,18.16,72.34,72.34,0,0,1-2.89,9.11,32.09,32.09,0,0,1-4.44,7.73,20.18,20.18,0,0,1-2.87,3,16.92,16.92,0,0,1-3.37,2,41.42,41.42,0,0,1-6.66,2.24c-4.15,1.06-7.55,1.72-9.89,2.22l-2.7.57-.7.14a.77.77,0,0,1-.25,0l.24-.08.69-.18,2.68-.66c2.32-.56,5.72-1.27,9.85-2.36a41.92,41.92,0,0,0,6.57-2.28,17,17,0,0,0,3.28-2,20.39,20.39,0,0,0,2.79-3,32.6,32.6,0,0,0,4.35-7.64,73.1,73.1,0,0,0,2.86-9,84.51,84.51,0,0,0,3.11-18.06,50.69,50.69,0,0,0-.27-8c-.14-1.24-.36-2.43-.57-3.57-.11-.58-.26-1.13-.38-1.67-.07-.27-.13-.54-.19-.8a4.94,4.94,0,0,0-.33-.7,17,17,0,0,0-1.79-2.43c-.62-.73-1.25-1.38-1.86-2a21.57,21.57,0,0,0-3.37-2.72,11.82,11.82,0,0,0-2.43-1.24A7.6,7.6,0,0,1,512,288.79Z" transform="translate(-48.6 -67.68)"/><path class="cls-12" d="M440.56,259.65s.25-1.18.66-4.6l3.77-7.38s-.84-1.54-2.78,1.72a1.86,1.86,0,0,1-3.35-1.47,3,3,0,0,1,5.39-1.09s1.2.12,1.34-.82-2.58-3.26-4.89-2.58a7.12,7.12,0,0,0-2.57,1.44s.51-7.75-.12-7.82-1.51.4-2,8.91c0,0-.26-6.71-.39-7.57s-1.29-1.44-1.44.72c0,.23-.44,6.83-.44,6.83s-.75-4.36-.83-4.71c-.21-.92-1.12-.82-1.21.4-.06.92-.36,4.86-.36,4.86l-.57,12.15h-.07" transform="translate(-48.6 -67.68)"/><path class="cls-12" d="M472.3,272.06c-.09-4-.25-8.11-.25-8.11s-5.85-.74-6.1-6.71.34-19.72.34-19.72l10.77-5.17,9.4,10.72.14,28.8a7.15,7.15,0,0,1-7.15,7.18h0A7.14,7.14,0,0,1,472.3,272.06Z" transform="translate(-48.6 -67.68)"/><path class="cls-7" d="M467.8,247.57a.75.75,0,1,0,.76-.75A.76.76,0,0,0,467.8,247.57Z" transform="translate(-48.6 -67.68)"/><path class="cls-7" d="M466.58,246.73c.09.1.65-.37,1.45-.4s1.4.37,1.48.26-.05-.23-.31-.42a1.94,1.94,0,0,0-1.19-.34,1.88,1.88,0,0,0-1.15.45C466.61,246.49,466.53,246.68,466.58,246.73Z" transform="translate(-48.6 -67.68)"/><path class="cls-7" d="M476.52,247.57a.76.76,0,0,0,.73.78.77.77,0,1,0-.73-.78Z" transform="translate(-48.6 -67.68)"/><path class="cls-7" d="M475.46,246.88c.09.1.65-.37,1.45-.4s1.4.38,1.48.27-.05-.24-.31-.42a1.94,1.94,0,0,0-1.19-.35,2,2,0,0,0-1.16.45C475.49,246.64,475.41,246.84,475.46,246.88Z" transform="translate(-48.6 -67.68)"/><path class="cls-7" d="M472.45,253.77a5,5,0,0,0-1.31-.2c-.21,0-.4,0-.44-.2a1.16,1.16,0,0,1,.13-.65c.18-.54.38-1.1.58-1.69a30.8,30.8,0,0,0,1.29-4.43,31.81,31.81,0,0,0-1.62,4.31c-.19.6-.38,1.16-.55,1.7a1.33,1.33,0,0,0-.09.87.52.52,0,0,0,.34.31,1.46,1.46,0,0,0,.35,0A4.64,4.64,0,0,0,472.45,253.77Z" transform="translate(-48.6 -67.68)"/><path class="cls-14" d="M472.05,264a14.21,14.21,0,0,0,7.75-2.53s-1.82,4.35-7.65,4Z" transform="translate(-48.6 -67.68)"/><path class="cls-14" d="M472.73,255.88a1.6,1.6,0,0,1,.93-1.15,1.26,1.26,0,0,1,1,0,.88.88,0,0,1,.47.88,1,1,0,0,1-.83.77,3,3,0,0,1-1.18-.08.84.84,0,0,1-.31-.12.25.25,0,0,1-.13-.28" transform="translate(-48.6 -67.68)"/><path class="cls-7" d="M474.72,253.74c.06,0,.16.22.13.61a2.13,2.13,0,0,1-.66,1.36,2.15,2.15,0,0,1-1.39.58c-.39,0-.61-.11-.6-.17s.93-.07,1.67-.76S474.59,253.74,474.72,253.74Z" transform="translate(-48.6 -67.68)"/><path class="cls-7" d="M457.53,282a13.71,13.71,0,0,1,2-4.74,14.25,14.25,0,0,1-2,4.74Z" transform="translate(-48.6 -67.68)"/><path class="cls-7" d="M471.18,284a9.86,9.86,0,0,1-4.76-3.34,15.08,15.08,0,0,1,2.4,1.64A14.63,14.63,0,0,1,471.18,284Z" transform="translate(-48.6 -67.68)"/><path class="cls-7" d="M469.48,272.21a5.35,5.35,0,0,1-2,.93,5.06,5.06,0,0,1-2.13.48,5.15,5.15,0,0,1,2-.93A5.07,5.07,0,0,1,469.48,272.21Z" transform="translate(-48.6 -67.68)"/><path class="cls-7" d="M468.56,296.23a20.91,20.91,0,0,1,3.67-5.19,10.89,10.89,0,0,1-1.64,2.73A11.58,11.58,0,0,1,468.56,296.23Z" transform="translate(-48.6 -67.68)"/><path class="cls-7" d="M469.34,306a11.23,11.23,0,0,1-2.6-2,11.47,11.47,0,0,1-2.3-2.31,11.28,11.28,0,0,1,2.61,1.95A11.15,11.15,0,0,1,469.34,306Z" transform="translate(-48.6 -67.68)"/><path class="cls-7" d="M476.23,305.1a24.36,24.36,0,0,1-.83-3,24.33,24.33,0,0,1-.88-3,6.71,6.71,0,0,1,1.34,2.84A6.58,6.58,0,0,1,476.23,305.1Z" transform="translate(-48.6 -67.68)"/><path class="cls-7" d="M488.9,305.26a8.78,8.78,0,0,1-2.61,1.05,8.24,8.24,0,0,1-2.75.6,8.48,8.48,0,0,1,2.61-1.05A8.24,8.24,0,0,1,488.9,305.26Z" transform="translate(-48.6 -67.68)"/><path class="cls-7" d="M489.5,295.15a21.67,21.67,0,0,1-5.65,3.06,11.19,11.19,0,0,1,2.71-1.74A11.49,11.49,0,0,1,489.5,295.15Z" transform="translate(-48.6 -67.68)"/><path class="cls-7" d="M482.83,291.17a9.19,9.19,0,0,1-1.86-2.24,8.91,8.91,0,0,1-1.48-2.51,8.79,8.79,0,0,1,1.86,2.23A8.88,8.88,0,0,1,482.83,291.17Z" transform="translate(-48.6 -67.68)"/><path class="cls-7" d="M487.81,280.5s-.11,0-.26-.11l.16-.06a13,13,0,0,1-.37,2.81,8.06,8.06,0,0,1-1,2.92,13.59,13.59,0,0,1,.57-3c.27-1.22.49-2.27.64-2.72l.06-.19.1.13C487.79,280.39,487.84,280.47,487.81,280.5Z" transform="translate(-48.6 -67.68)"/><path class="cls-7" d="M498.67,273.36a22.77,22.77,0,0,1-6.4-1.3,11.35,11.35,0,0,1,3.24.42A11.22,11.22,0,0,1,498.67,273.36Z" transform="translate(-48.6 -67.68)"/><path class="cls-7" d="M496.07,283.71a6.55,6.55,0,0,1,.07-2.47,6.73,6.73,0,0,1,.54-2.42,6.61,6.61,0,0,1-.07,2.48A6.34,6.34,0,0,1,496.07,283.71Z" transform="translate(-48.6 -67.68)"/><path class="cls-7" d="M501.84,286.75a10.53,10.53,0,0,1,1.68-4.12,5.15,5.15,0,0,1-.62,2.15A5.34,5.34,0,0,1,501.84,286.75Z" transform="translate(-48.6 -67.68)"/><path class="cls-7" d="M501.89,292.57a12.31,12.31,0,0,1-2.89-1.79,12.46,12.46,0,0,1-2.61-2.18,12.12,12.12,0,0,1,2.89,1.79A12.77,12.77,0,0,1,501.89,292.57Z" transform="translate(-48.6 -67.68)"/><path class="cls-7" d="M474.21,329.27a7.08,7.08,0,0,1-2.27-1.25,7.53,7.53,0,0,1-2-1.65,7.08,7.08,0,0,1,2.27,1.25A7.53,7.53,0,0,1,474.21,329.27Z" transform="translate(-48.6 -67.68)"/><path class="cls-7" d="M484.64,325.59a23.28,23.28,0,0,1-4.18,5.15,11.93,11.93,0,0,1,1.9-2.72A12.23,12.23,0,0,1,484.64,325.59Z" transform="translate(-48.6 -67.68)"/><path class="cls-7" d="M495.47,330.62a6.42,6.42,0,0,1,.94-2.25,6.32,6.32,0,0,1,1.37-2,6.57,6.57,0,0,1-.95,2.25A6.21,6.21,0,0,1,495.47,330.62Z" transform="translate(-48.6 -67.68)"/><path class="cls-7" d="M492.58,331.22a6.81,6.81,0,0,1-1.44-2,6.57,6.57,0,0,1-1-2.25,12.88,12.88,0,0,1,2.47,4.26Z" transform="translate(-48.6 -67.68)"/><path class="cls-7" d="M465.87,236.11a3.82,3.82,0,1,0,5.55,4.43,3.2,3.2,0,0,0,.75,3.81,3.81,3.81,0,0,0,3.93.57,4.69,4.69,0,0,0,2.62-3.09,4.3,4.3,0,0,0,5.52,4,4.13,4.13,0,0,0,.76,7.36,3.78,3.78,0,0,0,3.16,6.79c1.81-.57,2.92-2.38,3.62-4.14a19.72,19.72,0,0,0-.06-15,16.85,16.85,0,0,0-11.24-9.64,14.72,14.72,0,0,0-14,4.16" transform="translate(-48.6 -67.68)"/><path class="cls-8" d="M496.21,236.66a.69.69,0,0,1,0,.2,2.74,2.74,0,0,1,0,.58,3.52,3.52,0,0,1-.94,2,3.35,3.35,0,0,1-3.16,1.06,3.75,3.75,0,0,1-2.92-3.07h.43a4.31,4.31,0,0,1-2,3,4,4,0,0,1-3.85.26,4.3,4.3,0,0,1-2.4-2.79,2.29,2.29,0,0,1,.16-1.84,1.4,1.4,0,0,1,.77-.58,1.06,1.06,0,0,1,1,.16,1.42,1.42,0,0,1,.35,1.68,3,3,0,0,1-1,1.16,4.13,4.13,0,0,1-2.62.71,3.76,3.76,0,0,1-2.09-.77,3.9,3.9,0,0,1-1.1-1.26,3.4,3.4,0,0,1-.38-1,1,1,0,0,1,0-.37A7.18,7.18,0,0,0,477,237a3.8,3.8,0,0,0,5.43,1.09,2.52,2.52,0,0,0,.88-1,1,1,0,0,0-.22-1.16.79.79,0,0,0-1.09.32,1.85,1.85,0,0,0-.09,1.47,3.88,3.88,0,0,0,2.15,2.48,3.53,3.53,0,0,0,3.4-.23,3.85,3.85,0,0,0,1.81-2.64l.23-1.55.2,1.55a3.38,3.38,0,0,0,2.57,2.78,3.08,3.08,0,0,0,2.89-.89,3.6,3.6,0,0,0,1-1.82C496.2,236.94,496.17,236.67,496.21,236.66Z" transform="translate(-48.6 -67.68)"/><path class="cls-8" d="M501,242.88s.06.28-.07.76a3.82,3.82,0,0,1-1.08,1.81,3.77,3.77,0,0,1-2.94,1.07,4.17,4.17,0,0,1-3.24-2c-.08-.14-.14-.29-.21-.42h.45a2.77,2.77,0,0,1-1.33,1.48,3.5,3.5,0,0,1-1.78.42,4,4,0,0,1-2.72-1.26,5.6,5.6,0,0,1-1.12-1.64c-.2-.43-.26-.68-.23-.69a11.33,11.33,0,0,0,1.58,2.1,3.74,3.74,0,0,0,2.49,1.06,2.79,2.79,0,0,0,2.66-1.63l.19-.51.25.5c.06.11.11.24.18.36a3.82,3.82,0,0,0,2.87,1.84,3.54,3.54,0,0,0,2.67-.89,4,4,0,0,0,1.14-1.61A6,6,0,0,1,501,242.88Z" transform="translate(-48.6 -67.68)"/><path class="cls-8" d="M495,254.16a2.31,2.31,0,0,1-1.82.36,3.17,3.17,0,0,1-1.84-.94,3.41,3.41,0,0,1-1-2.36l.36.21-.13.07a3.43,3.43,0,0,1-2.59.22,3.2,3.2,0,0,1-1.69-1.27,2.31,2.31,0,0,1-.49-1.83,5.65,5.65,0,0,0,.76,1.63,3,3,0,0,0,1.55,1.05,3.1,3.1,0,0,0,2.24-.22l.11-.06.36-.19v.4a3.06,3.06,0,0,0,.79,2.05,3,3,0,0,0,1.59.91A5.28,5.28,0,0,0,495,254.16Z" transform="translate(-48.6 -67.68)"/><path class="cls-8" d="M461.38,239.7a6,6,0,0,0,2.33,1.34,4.36,4.36,0,0,0,2.82-.19,4.56,4.56,0,0,0,2.37-2.47,6.12,6.12,0,0,0,.22-.78l.14-.72.31.66a1.13,1.13,0,0,0,1.24.53,2.57,2.57,0,0,0,1.27-.74,4.9,4.9,0,0,0,1.27-2.26,7,7,0,0,0,.06-2.43,1.43,1.43,0,0,1,.24.63,4.71,4.71,0,0,1,0,1.86,5,5,0,0,1-1.28,2.5,2.9,2.9,0,0,1-1.49.89,1.58,1.58,0,0,1-1.75-.78l.44-.06a4,4,0,0,1-.24.87,4.83,4.83,0,0,1-2.64,2.7,4.51,4.51,0,0,1-3.08.11,4.42,4.42,0,0,1-1.78-1.05C461.49,240,461.36,239.72,461.38,239.7Z" transform="translate(-48.6 -67.68)"/><path class="cls-8" d="M464,247.2c.05,0,.06.44-.39.91a2.38,2.38,0,0,1-2.3.6,4.51,4.51,0,0,1-2-1.18c-.42-.42-.64-.71-.6-.76s.35.16.82.5a5.61,5.61,0,0,0,1.93,1,2.29,2.29,0,0,0,2-.37C463.84,247.53,464,247.18,464,247.2Z" transform="translate(-48.6 -67.68)"/><path class="cls-8" d="M471.41,248.4s-.05-.32-.2-.85a3.61,3.61,0,0,0-1.32-1.86,3.38,3.38,0,1,0,0,5.43,3.65,3.65,0,0,0,1.32-1.86c.15-.54.16-.86.2-.86a1.8,1.8,0,0,1,0,.9,3.55,3.55,0,0,1-1.3,2.09,3.75,3.75,0,0,1-3.57.59,3.8,3.8,0,0,1,0-7.15,3.72,3.72,0,0,1,3.57.59,3.56,3.56,0,0,1,1.3,2.08A1.78,1.78,0,0,1,471.41,248.4Z" transform="translate(-48.6 -67.68)"/><path class="cls-8" d="M481.56,248.4s0-.32-.2-.85a3.49,3.49,0,0,0-1.32-1.86,3.38,3.38,0,1,0,0,5.43,3.53,3.53,0,0,0,1.32-1.86c.16-.54.16-.86.2-.86a1.8,1.8,0,0,1,0,.9,3.57,3.57,0,0,1-1.29,2.09,3.75,3.75,0,0,1-3.57.59,3.79,3.79,0,0,1,0-7.15,3.72,3.72,0,0,1,3.57.59,3.58,3.58,0,0,1,1.29,2.08A1.78,1.78,0,0,1,481.56,248.4Z" transform="translate(-48.6 -67.68)"/><path class="cls-8" d="M474.57,248.23c0,.13-.72.24-1.61.24s-1.62-.11-1.62-.24.73-.24,1.62-.24S474.57,248.1,474.57,248.23Z" transform="translate(-48.6 -67.68)"/><path class="cls-7" d="M438.78,331.18a239.26,239.26,0,0,1,41.68-.52L462.84,356l-15.9.06-3.41,72.62h-21l2-81.59a16.39,16.39,0,0,1,14.24-15.86Z" transform="translate(-48.6 -67.68)"/><path class="cls-7" d="M477.48,357.94s31.49,2.14,30.7-26.14c0,0-50.45-8.52-53.73,6.14-1.05,4.71,1.84,91.28,1.84,91.28h22" transform="translate(-48.6 -67.68)"/><path class="cls-8" d="M477.79,351.68a14.21,14.21,0,0,1,0,3.62,13.87,13.87,0,0,1-.44,3.6,27.85,27.85,0,0,1,.41-7.22Z" transform="translate(-48.6 -67.68)"/><path class="cls-8" d="M476.78,329.19s-.14.09-.43.2-.72.26-1.29.42a42.05,42.05,0,0,1-4.86,1,43.66,43.66,0,0,0-7.14,1.54,16,16,0,0,0-3.85,1.85,10.88,10.88,0,0,0-3.13,3.27,15,15,0,0,0-2.26,8.44c.14,2.74.27,5.22.38,7.33s.17,3.72.23,5c0,.54,0,1,0,1.34a1.86,1.86,0,0,1,0,.48,1.8,1.8,0,0,1-.08-.47c0-.36-.07-.81-.13-1.34-.09-1.24-.22-2.91-.38-4.94s-.34-4.56-.48-7.35a15.2,15.2,0,0,1,2.3-8.71,11.27,11.27,0,0,1,3.27-3.39,16.52,16.52,0,0,1,4-1.89,41.73,41.73,0,0,1,7.23-1.45c2.07-.29,3.73-.58,4.87-.85S476.77,329.16,476.78,329.19Z" transform="translate(-48.6 -67.68)"/><polygon class="cls-8" points="361.3 211.35 373.26 248.68 439.37 249.88 438.93 247.9 414.78 247.15 403.66 211.33 361.3 211.35"/><path class="cls-15" d="M436.74,297.69c.4,1.58-.28,3.13-1.51,3.46s-2.54-.69-2.93-2.27.28-3.12,1.51-3.45S436.35,296.11,436.74,297.69Z" transform="translate(-48.6 -67.68)"/><path class="cls-2" d="M557.07,305.67a5.55,5.55,0,0,0-3.71-1.07c0-.71,0-1.15,0-1.15H533.12s-.63,13.34,9.58,13.81c4.58.21,7.2-1.84,8.69-4.42a10,10,0,0,0,2.3.28,5.27,5.27,0,0,0,3.18-.9,4,4,0,0,0,1.52-3.42A3.92,3.92,0,0,0,557.07,305.67Zm-1.39,5a4.9,4.9,0,0,1-3.42.36,17.65,17.65,0,0,0,1-4.39,3.88,3.88,0,0,1,2.53.59,2,2,0,0,1,.62,1.61A2.14,2.14,0,0,1,555.68,310.63Z" transform="translate(-48.6 -67.68)"/><path class="cls-7" d="M550.37,299.14a2.1,2.1,0,0,1-.39-.45,4.25,4.25,0,0,1-.66-1.58,4.49,4.49,0,0,1,.24-2.7,8.65,8.65,0,0,1,2.27-2.78,6.74,6.74,0,0,0,2-3.64,6.28,6.28,0,0,0-.87-4.64,6.44,6.44,0,0,0-1.81-1.87,10,10,0,0,0-2.5-1.13,7.39,7.39,0,0,1-2.64-1.33,3.67,3.67,0,0,1-.94-1.23,2.48,2.48,0,0,1-.2-1.59c0-.08.05-.15.07-.22l.24.24a2.51,2.51,0,0,0-1.48,2.16,5,5,0,0,0,.6,2.68c.4.85.9,1.64,1.26,2.5a5.19,5.19,0,0,1,.51,2.68,3.8,3.8,0,0,1-1.2,2.31,7.56,7.56,0,0,1-2,1.35,42.05,42.05,0,0,0-3.93,1.69,5.52,5.52,0,0,0-2.29,2.54,6.06,6.06,0,0,0-.55,2.55,7.07,7.07,0,0,0,.42,2.21s0,0-.07-.13a3.35,3.35,0,0,1-.18-.4,5.34,5.34,0,0,1-.32-1.67,6.28,6.28,0,0,1,.5-2.65,5.73,5.73,0,0,1,2.35-2.68,40.45,40.45,0,0,1,3.93-1.75,7,7,0,0,0,1.93-1.3,3.47,3.47,0,0,0,1.09-2.11,4.84,4.84,0,0,0-.49-2.5c-.35-.82-.85-1.61-1.26-2.48a5.23,5.23,0,0,1-.64-2.88,3.42,3.42,0,0,1,.49-1.47,2.41,2.41,0,0,1,1.23-1l.35-.12-.1.36-.05.19a2.64,2.64,0,0,0,1,2.45,7.15,7.15,0,0,0,2.51,1.26,10.12,10.12,0,0,1,2.59,1.18,6.74,6.74,0,0,1,2.78,6.87,7,7,0,0,1-2.17,3.77,8.82,8.82,0,0,0-2.27,2.67,4.59,4.59,0,0,0-.29,2.59A5,5,0,0,0,550.37,299.14Z" transform="translate(-48.6 -67.68)"/><polygon class="cls-7" points="526.41 248.85 319.07 248.85 319.07 255.19 330.16 255.19 324.26 367.41 327.43 367.4 333.33 255.19 515.07 254.2 519.25 367.07 522.75 367.26 518.27 255.19 526.41 255.19 526.41 248.85"/><rect class="cls-3" x="118.02" y="97.44" width="88.26" height="270.37"/><rect class="cls-5" x="206.16" y="98.31" width="69.75" height="269.5"/><rect class="cls-7" x="122.91" y="140.71" width="74.87" height="21.08"/><rect class="cls-2" x="125" y="143.36" width="4.19" height="16.13"/><path class="cls-15" d="M182.73,214.44a1.34,1.34,0,1,1-1.34-1.33A1.34,1.34,0,0,1,182.73,214.44Z" transform="translate(-48.6 -67.68)"/><path class="cls-15" d="M182.73,220.14a1.34,1.34,0,1,1-1.34-1.33A1.34,1.34,0,0,1,182.73,220.14Z" transform="translate(-48.6 -67.68)"/><rect class="cls-8" x="139.45" y="145.42" width="4.12" height="12.39"/><rect class="cls-8" x="145.41" y="145.42" width="4.12" height="12.39"/><rect class="cls-8" x="151.36" y="145.42" width="4.12" height="12.39"/><rect class="cls-8" x="157.31" y="145.42" width="4.12" height="12.39"/><rect class="cls-8" x="163.26" y="145.42" width="4.12" height="12.39"/><rect class="cls-8" x="169.21" y="145.42" width="4.12" height="12.39"/><rect class="cls-8" x="175.16" y="145.42" width="4.12" height="12.39"/><rect class="cls-8" x="181.11" y="145.42" width="4.12" height="12.39"/><rect class="cls-8" x="187.06" y="145.42" width="4.12" height="12.39"/><rect class="cls-8" x="193.01" y="145.42" width="4.12" height="12.39"/><rect class="cls-7" x="122.91" y="170.99" width="74.87" height="21.08"/><rect class="cls-9" x="125" y="173.64" width="4.19" height="16.13"/><path class="cls-15" d="M182.73,244.72a1.34,1.34,0,1,1-1.34-1.33A1.33,1.33,0,0,1,182.73,244.72Z" transform="translate(-48.6 -67.68)"/><path class="cls-15" d="M182.73,250.42a1.34,1.34,0,1,1-1.34-1.33A1.33,1.33,0,0,1,182.73,250.42Z" transform="translate(-48.6 -67.68)"/><rect class="cls-8" x="139.45" y="175.7" width="4.12" height="12.39"/><rect class="cls-8" x="145.41" y="175.7" width="4.12" height="12.39"/><rect class="cls-8" x="151.36" y="175.7" width="4.12" height="12.39"/><rect class="cls-8" x="157.31" y="175.7" width="4.12" height="12.39"/><rect class="cls-8" x="163.26" y="175.7" width="4.12" height="12.39"/><rect class="cls-8" x="169.21" y="175.7" width="4.12" height="12.39"/><rect class="cls-8" x="175.16" y="175.7" width="4.12" height="12.39"/><rect class="cls-8" x="181.11" y="175.7" width="4.12" height="12.39"/><rect class="cls-8" x="187.06" y="175.7" width="4.12" height="12.39"/><rect class="cls-8" x="193.01" y="175.7" width="4.12" height="12.39"/><rect class="cls-7" x="122.91" y="201.51" width="74.87" height="21.08"/><rect class="cls-2" x="125" y="204.16" width="4.19" height="16.13"/><path class="cls-15" d="M182.73,275.24a1.34,1.34,0,1,1-1.34-1.33A1.33,1.33,0,0,1,182.73,275.24Z" transform="translate(-48.6 -67.68)"/><path class="cls-15" d="M182.73,280.94a1.34,1.34,0,1,1-1.34-1.33A1.33,1.33,0,0,1,182.73,280.94Z" transform="translate(-48.6 -67.68)"/><rect class="cls-8" x="139.45" y="206.23" width="4.12" height="12.39"/><rect class="cls-8" x="145.41" y="206.23" width="4.12" height="12.39"/><rect class="cls-8" x="151.36" y="206.23" width="4.12" height="12.39"/><rect class="cls-8" x="157.31" y="206.23" width="4.12" height="12.39"/><rect class="cls-8" x="163.26" y="206.23" width="4.12" height="12.39"/><rect class="cls-8" x="169.21" y="206.23" width="4.12" height="12.39"/><rect class="cls-8" x="175.16" y="206.23" width="4.12" height="12.39"/><rect class="cls-8" x="181.11" y="206.23" width="4.12" height="12.39"/><rect class="cls-8" x="187.06" y="206.23" width="4.12" height="12.39"/><rect class="cls-8" x="193.01" y="206.23" width="4.12" height="12.39"/><rect class="cls-7" x="122.91" y="232.46" width="74.87" height="21.08"/><rect class="cls-2" x="125" y="235.11" width="4.19" height="16.13"/><path class="cls-15" d="M182.73,306.19a1.34,1.34,0,1,1-1.34-1.34A1.34,1.34,0,0,1,182.73,306.19Z" transform="translate(-48.6 -67.68)"/><path class="cls-15" d="M182.73,311.89a1.34,1.34,0,1,1-1.34-1.34A1.34,1.34,0,0,1,182.73,311.89Z" transform="translate(-48.6 -67.68)"/><rect class="cls-8" x="139.45" y="237.17" width="4.12" height="12.39"/><rect class="cls-8" x="145.41" y="237.17" width="4.12" height="12.39"/><rect class="cls-8" x="151.36" y="237.17" width="4.12" height="12.39"/><rect class="cls-8" x="157.31" y="237.17" width="4.12" height="12.39"/><rect class="cls-8" x="163.26" y="237.17" width="4.12" height="12.39"/><rect class="cls-8" x="169.21" y="237.17" width="4.12" height="12.39"/><rect class="cls-8" x="175.16" y="237.17" width="4.12" height="12.39"/><rect class="cls-8" x="181.11" y="237.17" width="4.12" height="12.39"/><rect class="cls-8" x="187.06" y="237.17" width="4.12" height="12.39"/><rect class="cls-8" x="193.01" y="237.17" width="4.12" height="12.39"/><rect class="cls-7" x="122.91" y="267.79" width="74.87" height="21.08"/><rect class="cls-2" x="125" y="270.44" width="4.19" height="16.13"/><path class="cls-15" d="M182.73,341.51a1.34,1.34,0,1,1-1.34-1.33A1.34,1.34,0,0,1,182.73,341.51Z" transform="translate(-48.6 -67.68)"/><path class="cls-15" d="M182.73,347.21a1.34,1.34,0,1,1-1.34-1.33A1.34,1.34,0,0,1,182.73,347.21Z" transform="translate(-48.6 -67.68)"/><rect class="cls-8" x="139.45" y="272.5" width="4.12" height="12.39"/><rect class="cls-8" x="145.41" y="272.5" width="4.12" height="12.39"/><rect class="cls-8" x="151.36" y="272.5" width="4.12" height="12.39"/><rect class="cls-8" x="157.31" y="272.5" width="4.12" height="12.39"/><rect class="cls-8" x="163.26" y="272.5" width="4.12" height="12.39"/><rect class="cls-8" x="169.21" y="272.5" width="4.12" height="12.39"/><rect class="cls-8" x="175.16" y="272.5" width="4.12" height="12.39"/><rect class="cls-8" x="181.11" y="272.5" width="4.12" height="12.39"/><rect class="cls-8" x="187.06" y="272.5" width="4.12" height="12.39"/><rect class="cls-8" x="193.01" y="272.5" width="4.12" height="12.39"/><rect class="cls-7" x="122.91" y="334.06" width="74.87" height="21.08"/><rect class="cls-2" x="125" y="336.71" width="4.19" height="16.13"/><path class="cls-15" d="M182.73,407.78a1.34,1.34,0,1,1-1.34-1.33A1.34,1.34,0,0,1,182.73,407.78Z" transform="translate(-48.6 -67.68)"/><path class="cls-15" d="M182.73,413.48a1.34,1.34,0,1,1-1.34-1.33A1.34,1.34,0,0,1,182.73,413.48Z" transform="translate(-48.6 -67.68)"/><rect class="cls-8" x="139.45" y="338.77" width="4.12" height="12.39"/><rect class="cls-8" x="145.41" y="338.77" width="4.12" height="12.39"/><rect class="cls-8" x="151.36" y="338.77" width="4.12" height="12.39"/><rect class="cls-8" x="157.31" y="338.77" width="4.12" height="12.39"/><rect class="cls-8" x="163.26" y="338.77" width="4.12" height="12.39"/><rect class="cls-8" x="169.21" y="338.77" width="4.12" height="12.39"/><rect class="cls-8" x="175.16" y="338.77" width="4.12" height="12.39"/><rect class="cls-8" x="181.11" y="338.77" width="4.12" height="12.39"/><rect class="cls-8" x="187.06" y="338.77" width="4.12" height="12.39"/><rect class="cls-8" x="193.01" y="338.77" width="4.12" height="12.39"/><rect class="cls-7" x="122.91" y="300.95" width="74.87" height="21.08"/><rect class="cls-2" x="125" y="303.6" width="4.19" height="16.13"/><path class="cls-15" d="M182.73,374.68a1.34,1.34,0,1,1-1.34-1.34A1.34,1.34,0,0,1,182.73,374.68Z" transform="translate(-48.6 -67.68)"/><path class="cls-15" d="M182.73,380.38a1.34,1.34,0,1,1-1.34-1.34A1.34,1.34,0,0,1,182.73,380.38Z" transform="translate(-48.6 -67.68)"/><rect class="cls-8" x="139.45" y="305.66" width="4.12" height="12.39"/><rect class="cls-8" x="145.41" y="305.66" width="4.12" height="12.39"/><rect class="cls-8" x="151.36" y="305.66" width="4.12" height="12.39"/><rect class="cls-8" x="157.31" y="305.66" width="4.12" height="12.39"/><rect class="cls-8" x="163.26" y="305.66" width="4.12" height="12.39"/><rect class="cls-8" x="169.21" y="305.66" width="4.12" height="12.39"/><rect class="cls-8" x="175.16" y="305.66" width="4.12" height="12.39"/><rect class="cls-8" x="181.11" y="305.66" width="4.12" height="12.39"/><rect class="cls-8" x="187.06" y="305.66" width="4.12" height="12.39"/><rect class="cls-8" x="193.01" y="305.66" width="4.12" height="12.39"/><path class="cls-7" d="M217.81,208.4a2.68,2.68,0,0,1-.08-.65c0-.43,0-1.06-.07-1.88s0-1.8-.09-3a19.54,19.54,0,0,0-.51-3.85,13.84,13.84,0,0,0-2-4.22,9.41,9.41,0,0,0-4.11-3.3,19.54,19.54,0,0,0-5.82-1.18l-6.45-.56c-8.83-.77-16.85-1.26-22.66-1.36-2.9-.06-5.25,0-6.88,0l-1.87,0a2.76,2.76,0,0,1-.65,0,4.13,4.13,0,0,1,.65-.07l1.87-.11c1.62-.07,4-.14,6.89-.12,5.82,0,13.85.46,22.69,1.23l6.46.56a20.13,20.13,0,0,1,5.94,1.25,9.65,9.65,0,0,1,4.26,3.47,13.79,13.79,0,0,1,2,4.36,18.2,18.2,0,0,1,.45,3.92c0,1.16,0,2.16,0,3s0,1.4,0,1.87A5,5,0,0,1,217.81,208.4Z" transform="translate(-48.6 -67.68)"/><path class="cls-7" d="M195.09,208.4a3.84,3.84,0,0,1,0-.62l0-1.76c0-.76,0-1.7-.09-2.78a8.41,8.41,0,0,0-.92-3.47,6.61,6.61,0,0,0-3.38-2.6,9.32,9.32,0,0,0-4.93-.51,8.56,8.56,0,0,0-2.55.87,5,5,0,0,0-2,1.87,2.69,2.69,0,0,0,0,2.65,3.56,3.56,0,0,0,2.24,1.69,2.86,2.86,0,0,0,2.63-.76,3.92,3.92,0,0,0,1.18-2.51,3.82,3.82,0,0,0-.78-2.56,5.62,5.62,0,0,0-2-1.75,7.49,7.49,0,0,0-2.48-.63c-.84-.13-1.67-.24-2.46-.33-1.59-.18-3.09-.28-4.45-.33-2.72-.11-4.94-.07-6.47-.07h-1.76a2.4,2.4,0,0,1-.61,0,2.45,2.45,0,0,1,.61-.06l1.76-.09c1.53-.06,3.74-.15,6.48-.09,1.37,0,2.88.12,4.48.28.8.08,1.63.18,2.48.3.43.07.85.12,1.3.21a4.91,4.91,0,0,1,1.32.45,6,6,0,0,1,2.15,1.88,4.28,4.28,0,0,1,.88,2.86,4.39,4.39,0,0,1-1.32,2.81,3.35,3.35,0,0,1-3.06.88,4,4,0,0,1-2.55-1.92,3.14,3.14,0,0,1,0-3.1,5.27,5.27,0,0,1,2.17-2.05,9,9,0,0,1,2.7-.9,9.71,9.71,0,0,1,5.15.57,7,7,0,0,1,3.53,2.8,8.81,8.81,0,0,1,.89,3.63c.06,1.09,0,2,0,2.79s-.06,1.31-.07,1.76A2.6,2.6,0,0,1,195.09,208.4Z" transform="translate(-48.6 -67.68)"/><path class="cls-7" d="M223.92,208.4a3.48,3.48,0,0,1-.15-.7c-.08-.46-.21-1.14-.4-2a38.33,38.33,0,0,0-2.2-7.14,20.79,20.79,0,0,0-6.52-8.75,12.22,12.22,0,0,0-6-2.28,63.6,63.6,0,0,0-7-.37c-9.68-.19-18.45-.15-24.79-.39-3.17-.11-5.74-.26-7.51-.39l-2-.17a3.31,3.31,0,0,1-.71-.09,4.29,4.29,0,0,1,.71,0l2,.08c1.78.07,4.34.16,7.51.23,6.34.16,15.1.07,24.79.25a62.87,62.87,0,0,1,7.08.39,12.69,12.69,0,0,1,6.17,2.39,19.16,19.16,0,0,1,4.12,4.36,25.49,25.49,0,0,1,2.44,4.61,35.47,35.47,0,0,1,2.07,7.23c.16.88.26,1.56.31,2A6.2,6.2,0,0,1,223.92,208.4Z" transform="translate(-48.6 -67.68)"/><rect class="cls-7" x="123.94" y="100.8" width="72.81" height="10.57"/><rect class="cls-8" x="139.95" y="106.09" width="39.64" height="5.28"/><path class="cls-7" d="M275.05,387.7c0,.05-.8.13-2.2.53a19.07,19.07,0,0,0-5.5,2.7,15.26,15.26,0,0,0-3.09,2.87,10.64,10.64,0,0,0-1.27,2,12.86,12.86,0,0,0-.79,2.34c-.83,3.34-.58,7.17-.42,11.15s-.09,7.94-1.67,11.13a12.17,12.17,0,0,1-3,4,14.35,14.35,0,0,1-3.64,2.32,14.89,14.89,0,0,1-3.41,1,12.82,12.82,0,0,1-2.69.11,8.89,8.89,0,0,1-1.67-.26,2,2,0,0,1-.56-.18c0-.05.79.19,2.24.26a13,13,0,0,0,2.63-.2,14.3,14.3,0,0,0,6.84-3.36,12.18,12.18,0,0,0,2.84-3.87c1.5-3.09,1.75-7,1.59-10.92s-.41-7.85.46-11.27a14,14,0,0,1,.85-2.43,11.21,11.21,0,0,1,1.33-2,15.8,15.8,0,0,1,3.2-2.9,18.31,18.31,0,0,1,5.65-2.6,12.06,12.06,0,0,1,1.66-.31A2,2,0,0,1,275.05,387.7Z" transform="translate(-48.6 -67.68)"/><rect class="cls-7" x="192.89" y="356.41" width="5.98" height="7.27"/><rect class="cls-8" x="226.45" y="301.65" width="33.52" height="36.72"/><circle class="cls-7" cx="291.81" cy="387.84" r="11.03" transform="translate(-237.37 252.25) rotate(-45)"/><path class="cls-8" d="M297.32,387.84a5.52,5.52,0,1,1-5.51-5.52A5.52,5.52,0,0,1,297.32,387.84Z" transform="translate(-48.6 -67.68)"/><circle class="cls-7" cx="230.99" cy="307.35" r="1.02"/><circle class="cls-7" cx="254.84" cy="307.35" r="1.02"/><circle class="cls-7" cx="255.06" cy="334.47" r="1.02"/><circle class="cls-7" cx="230.99" cy="334.89" r="1.02"/><rect class="cls-7" x="259.97" y="301.65" width="2.7" height="36.72"/><line class="cls-7" x1="245.54" y1="163.46" x2="288.44" y2="163.46"/><path class="cls-7" d="M337,231.14c0,.14-9.61.24-21.45.24s-21.45-.1-21.45-.24,9.6-.23,21.45-.23S337,231,337,231.14Z" transform="translate(-48.6 -67.68)"/><path class="cls-7" d="M426.06,235.71h-.42l-1.26,0-4.9,0-18.39.07-63.45.09h-.17l-.05-.17A15.76,15.76,0,0,1,353,215.59l-.24.3a13.25,13.25,0,0,1-.49-4.26,14.08,14.08,0,0,1,7.27-11.84,14.36,14.36,0,0,1,13.44.08l-.33.11A21,21,0,0,1,385,188.51a19.66,19.66,0,0,1,15.61.74,21.3,21.3,0,0,1,9.66,10.56,20.18,20.18,0,0,1,1.19,12.66l-.18-.21a15.14,15.14,0,0,1,7.35,1.06,15.39,15.39,0,0,1,5.45,3.73,9.56,9.56,0,0,1,1.71,2.46,14.14,14.14,0,0,1,.92,2.62,23.23,23.23,0,0,1,.62,4.77,27.57,27.57,0,0,1-.57,6.6,13.81,13.81,0,0,1-.46,1.66c-.12.37-.19.55-.19.55s.05-.21.15-.57.25-.92.41-1.66a28.33,28.33,0,0,0,.48-6.57,22.92,22.92,0,0,0-.66-4.73,10.41,10.41,0,0,0-2.6-5,15.09,15.09,0,0,0-5.37-3.64,14.83,14.83,0,0,0-7.2-1l-.23,0,0-.23A19.83,19.83,0,0,0,409.88,200a20.94,20.94,0,0,0-9.51-10.34,19.21,19.21,0,0,0-15.27-.69,20.52,20.52,0,0,0-12,11.23l-.1.24-.22-.13a13.9,13.9,0,0,0-13-.06,13.58,13.58,0,0,0-7,11.44,12.61,12.61,0,0,0,.47,4.11l.09.31H353a15.3,15.3,0,0,0-15.1,19.58l-.22-.16,63.33.1,18.42.06,4.94,0,1.28,0A4,4,0,0,1,426.06,235.71Z" transform="translate(-48.6 -67.68)"/><path class="cls-7" d="M413.75,289.65a3.29,3.29,0,0,1-.58,0l-1.68,0-6.27.06-21.63.09h-.23v-.23c0-3.67,0-7.63,0-11.73,0-11.56,0-22,.07-29.63,0-3.76.06-6.81.08-9,0-1,0-1.84,0-2.44q0-.37,0-.63c0-.15,0-.22,0-.22s0,.07,0,.22,0,.38,0,.63c0,.6,0,1.41,0,2.44,0,2.17.05,5.22.08,9,0,7.62,0,18.07.07,29.63,0,4.1,0,8.06,0,11.73l-.23-.23,21.63.09,6.27.06,1.68,0A3.29,3.29,0,0,1,413.75,289.65Z" transform="translate(-48.6 -67.68)"/></svg>