<svg id="Layer_1" data-name="Layer 1" xmlns="http://www.w3.org/2000/svg" viewBox="0 0 631.81 419.65"><defs><style>.cls-1{font-size:16px;font-family:OpenSans-SemiboldItalic, Open Sans;font-weight:600;font-style:italic;}.cls-1,.cls-3{fill:#ff4e5a;}.cls-2{letter-spacing:1.99em;}.cls-4{fill:#ececec;}.cls-5{fill:#f5f5f5;}.cls-6{fill:#e1e1e1;}.cls-7{fill:#fafafa;}.cls-8{fill:#1a2e35;}.cls-9{fill:#375a64;}.cls-10{fill:#fff;}.cls-11{fill:#ffbf9d;}.cls-12{fill:#ff9a6c;}.cls-13,.cls-14{opacity:0.4;}.cls-15{fill:#ff4f5b;}.cls-16{opacity:0.6;}.cls-17{opacity:0.5;}</style></defs><title>slide3</title><text class="cls-1" transform="translate(141.85 13.71)"><tspan class="cls-2" xml:space="preserve">		</tspan><tspan x="72" y="0">Crecen automáticamente dependiendo de su uso</tspan><tspan x="0" y="20">Reduce el tiempo de comercialización</tspan></text><circle class="cls-3" cx="206.51" cy="8.32" r="3"/><circle class="cls-3" cx="135.51" cy="28.32" r="3"/><rect class="cls-4" x="92.76" y="147.39" width="84.76" height="259.65"/><rect class="cls-5" x="177.26" y="147.39" width="66.99" height="258.82"/><rect class="cls-6" x="97.31" y="188.94" width="71.9" height="20.24"/><rect class="cls-5" x="99.31" y="191.49" width="4.03" height="15.49"/><circle class="cls-7" cx="106.8" cy="194.75" r="1.28"/><circle class="cls-7" cx="106.8" cy="200.22" r="1.28"/><rect class="cls-5" x="113.2" y="193.47" width="3.96" height="11.9"/><rect class="cls-5" x="118.91" y="193.47" width="3.96" height="11.9"/><rect class="cls-5" x="124.63" y="193.47" width="3.96" height="11.9"/><rect class="cls-5" x="130.34" y="193.47" width="3.96" height="11.9"/><rect class="cls-5" x="136.06" y="193.47" width="3.96" height="11.9"/><rect class="cls-5" x="141.77" y="193.47" width="3.96" height="11.9"/><rect class="cls-5" x="147.49" y="193.47" width="3.96" height="11.9"/><rect class="cls-5" x="153.2" y="193.47" width="3.96" height="11.9"/><rect class="cls-5" x="158.92" y="193.47" width="3.96" height="11.9"/><rect class="cls-5" x="164.63" y="193.47" width="3.96" height="11.9"/><rect class="cls-6" x="97.31" y="221.37" width="71.9" height="20.24"/><rect class="cls-5" x="99.31" y="223.91" width="4.03" height="15.49"/><circle class="cls-7" cx="106.8" cy="227.17" r="1.28"/><circle class="cls-7" cx="106.8" cy="232.64" r="1.28"/><rect class="cls-5" x="113.2" y="225.89" width="3.96" height="11.9"/><rect class="cls-5" x="118.91" y="225.89" width="3.96" height="11.9"/><rect class="cls-5" x="124.63" y="225.89" width="3.96" height="11.9"/><rect class="cls-5" x="130.34" y="225.89" width="3.96" height="11.9"/><rect class="cls-5" x="136.06" y="225.89" width="3.96" height="11.9"/><rect class="cls-5" x="141.77" y="225.89" width="3.96" height="11.9"/><rect class="cls-5" x="147.49" y="225.89" width="3.96" height="11.9"/><rect class="cls-5" x="153.2" y="225.89" width="3.96" height="11.9"/><rect class="cls-5" x="158.92" y="225.89" width="3.96" height="11.9"/><rect class="cls-5" x="164.63" y="225.89" width="3.96" height="11.9"/><rect class="cls-6" x="97.31" y="253.79" width="71.9" height="20.24"/><rect class="cls-5" x="99.31" y="256.33" width="4.03" height="15.49"/><circle class="cls-7" cx="106.8" cy="259.59" r="1.28"/><path class="cls-7" d="M112.58,298.75a1.28,1.28,0,1,1-1.28-1.28A1.28,1.28,0,0,1,112.58,298.75Z" transform="translate(-4.49 -33.68)"/><rect class="cls-5" x="113.2" y="258.31" width="3.96" height="11.9"/><rect class="cls-5" x="118.91" y="258.31" width="3.96" height="11.9"/><rect class="cls-5" x="124.63" y="258.31" width="3.96" height="11.9"/><rect class="cls-5" x="130.34" y="258.31" width="3.96" height="11.9"/><rect class="cls-5" x="136.06" y="258.31" width="3.96" height="11.9"/><rect class="cls-5" x="141.77" y="258.31" width="3.96" height="11.9"/><rect class="cls-5" x="147.49" y="258.31" width="3.96" height="11.9"/><rect class="cls-5" x="153.2" y="258.31" width="3.96" height="11.9"/><rect class="cls-5" x="158.92" y="258.31" width="3.96" height="11.9"/><rect class="cls-5" x="164.63" y="258.31" width="3.96" height="11.9"/><rect class="cls-6" x="97.31" y="286.21" width="71.9" height="20.24"/><rect class="cls-5" x="99.31" y="288.76" width="4.03" height="15.49"/><circle class="cls-7" cx="106.8" cy="292.02" r="1.28"/><path class="cls-7" d="M112.58,331.18a1.28,1.28,0,1,1-2.56,0,1.28,1.28,0,1,1,2.56,0Z" transform="translate(-4.49 -33.68)"/><rect class="cls-5" x="113.2" y="290.74" width="3.96" height="11.9"/><rect class="cls-5" x="118.91" y="290.74" width="3.96" height="11.9"/><rect class="cls-5" x="124.63" y="290.74" width="3.96" height="11.9"/><rect class="cls-5" x="130.34" y="290.74" width="3.96" height="11.9"/><rect class="cls-5" x="136.06" y="290.74" width="3.96" height="11.9"/><rect class="cls-5" x="141.77" y="290.74" width="3.96" height="11.9"/><rect class="cls-5" x="147.49" y="290.74" width="3.96" height="11.9"/><rect class="cls-5" x="153.2" y="290.74" width="3.96" height="11.9"/><rect class="cls-5" x="158.92" y="290.74" width="3.96" height="11.9"/><rect class="cls-5" x="164.63" y="290.74" width="3.96" height="11.9"/><rect class="cls-6" x="97.31" y="318.64" width="71.9" height="20.24"/><rect class="cls-5" x="99.31" y="321.18" width="4.03" height="15.49"/><circle class="cls-7" cx="106.8" cy="324.44" r="1.28"/><path class="cls-7" d="M112.58,363.6a1.28,1.28,0,1,1-1.28-1.28A1.28,1.28,0,0,1,112.58,363.6Z" transform="translate(-4.49 -33.68)"/><rect class="cls-5" x="113.2" y="323.16" width="3.96" height="11.9"/><rect class="cls-5" x="118.91" y="323.16" width="3.96" height="11.9"/><rect class="cls-5" x="124.63" y="323.16" width="3.96" height="11.9"/><rect class="cls-5" x="130.34" y="323.16" width="3.96" height="11.9"/><rect class="cls-5" x="136.06" y="323.16" width="3.96" height="11.9"/><rect class="cls-5" x="141.77" y="323.16" width="3.96" height="11.9"/><rect class="cls-5" x="147.49" y="323.16" width="3.96" height="11.9"/><rect class="cls-5" x="153.2" y="323.16" width="3.96" height="11.9"/><rect class="cls-5" x="158.92" y="323.16" width="3.96" height="11.9"/><rect class="cls-5" x="164.63" y="323.16" width="3.96" height="11.9"/><rect class="cls-6" x="97.31" y="351.06" width="71.9" height="20.24"/><rect class="cls-5" x="99.31" y="353.61" width="4.03" height="15.49"/><circle class="cls-7" cx="106.8" cy="356.86" r="1.28"/><path class="cls-7" d="M112.58,396a1.28,1.28,0,1,1-1.28-1.28A1.28,1.28,0,0,1,112.58,396Z" transform="translate(-4.49 -33.68)"/><rect class="cls-5" x="113.2" y="355.58" width="3.96" height="11.9"/><rect class="cls-5" x="118.91" y="355.58" width="3.96" height="11.9"/><rect class="cls-5" x="124.63" y="355.58" width="3.96" height="11.9"/><rect class="cls-5" x="130.34" y="355.58" width="3.96" height="11.9"/><rect class="cls-5" x="136.06" y="355.58" width="3.96" height="11.9"/><rect class="cls-5" x="141.77" y="355.58" width="3.96" height="11.9"/><rect class="cls-5" x="147.49" y="355.58" width="3.96" height="11.9"/><rect class="cls-5" x="153.2" y="355.58" width="3.96" height="11.9"/><rect class="cls-5" x="158.92" y="355.58" width="3.96" height="11.9"/><rect class="cls-5" x="164.63" y="355.58" width="3.96" height="11.9"/><rect class="cls-6" x="97.31" y="383.48" width="71.9" height="20.24"/><rect class="cls-5" x="99.31" y="386.03" width="4.03" height="15.49"/><circle class="cls-7" cx="106.8" cy="389.29" r="1.28"/><path class="cls-7" d="M112.58,428.45a1.28,1.28,0,1,1-2.56,0,1.28,1.28,0,0,1,2.56,0Z" transform="translate(-4.49 -33.68)"/><rect class="cls-5" x="113.2" y="388.01" width="3.96" height="11.9"/><rect class="cls-5" x="118.91" y="388.01" width="3.96" height="11.9"/><rect class="cls-5" x="124.63" y="388.01" width="3.96" height="11.9"/><rect class="cls-5" x="130.34" y="388.01" width="3.96" height="11.9"/><rect class="cls-5" x="136.06" y="388.01" width="3.96" height="11.9"/><rect class="cls-5" x="141.77" y="388.01" width="3.96" height="11.9"/><rect class="cls-5" x="147.49" y="388.01" width="3.96" height="11.9"/><rect class="cls-5" x="153.2" y="388.01" width="3.96" height="11.9"/><rect class="cls-5" x="158.92" y="388.01" width="3.96" height="11.9"/><rect class="cls-5" x="164.63" y="388.01" width="3.96" height="11.9"/><path class="cls-6" d="M146.27,222.63a2.49,2.49,0,0,1-.08-.63c0-.41-.06-1-.08-1.8s0-1.73-.09-2.84a17.84,17.84,0,0,0-.5-3.68,13,13,0,0,0-1.92-4,8.8,8.8,0,0,0-3.93-3.16,19,19,0,0,0-5.58-1.14l-6.19-.53c-8.49-.74-16.18-1.21-21.76-1.32-2.79-.06-5-.05-6.61,0H97.74a4.4,4.4,0,0,1-.63,0,2.34,2.34,0,0,1,.62-.08l1.8-.11c1.56-.07,3.82-.14,6.61-.13,5.6,0,13.31.43,21.8,1.17l6.2.55a19.1,19.1,0,0,1,5.72,1.19,9.33,9.33,0,0,1,4.1,3.36,13.28,13.28,0,0,1,1.92,4.19,17.29,17.29,0,0,1,.43,3.77c0,1.12,0,2.07,0,2.85s0,1.33,0,1.8A3.07,3.07,0,0,1,146.27,222.63Z" transform="translate(-4.49 -33.68)"/><path class="cls-6" d="M124.46,222.63a2.16,2.16,0,0,1,0-.59c0-.45,0-1,0-1.7s0-1.63-.09-2.66a8.36,8.36,0,0,0-.88-3.33,6.38,6.38,0,0,0-3.24-2.48,8.86,8.86,0,0,0-4.72-.48,7.84,7.84,0,0,0-2.44.83,4.7,4.7,0,0,0-1.89,1.78,2.57,2.57,0,0,0,0,2.52,3.36,3.36,0,0,0,2.13,1.6,2.71,2.71,0,0,0,2.5-.72,3.67,3.67,0,0,0,1.12-2.38,3.63,3.63,0,0,0-.74-2.44,5.33,5.33,0,0,0-1.9-1.67,6.74,6.74,0,0,0-2.36-.61c-.81-.13-1.6-.23-2.37-.32-1.53-.17-3-.27-4.27-.32-2.61-.11-4.74-.07-6.21-.07H97.34a2.44,2.44,0,0,1-.59,0,2.49,2.49,0,0,1,.59-.07l1.69-.09c1.47-.06,3.59-.15,6.23-.09,1.31,0,2.76.11,4.3.26.77.08,1.57.18,2.38.29.41.07.82.12,1.25.2a4.46,4.46,0,0,1,1.27.44,5.81,5.81,0,0,1,2.08,1.81,4.09,4.09,0,0,1-.42,5.48,3.23,3.23,0,0,1-3,.86,3.87,3.87,0,0,1-2.47-1.86,3.07,3.07,0,0,1,0-3,5.12,5.12,0,0,1,2.1-2,8.37,8.37,0,0,1,2.6-.86,9.22,9.22,0,0,1,5,.55,6.69,6.69,0,0,1,3.4,2.7,8.28,8.28,0,0,1,.85,3.49,26.62,26.62,0,0,1,0,2.69c0,.68,0,1.24-.07,1.69A4.07,4.07,0,0,1,124.46,222.63Z" transform="translate(-4.49 -33.68)"/><path class="cls-6" d="M152.14,222.63A3.56,3.56,0,0,1,152,222c-.07-.44-.2-1.09-.38-1.92a37.56,37.56,0,0,0-2.12-6.86,20.06,20.06,0,0,0-6.26-8.38,11.81,11.81,0,0,0-5.72-2.18,61.08,61.08,0,0,0-6.74-.36c-9.29-.17-17.71-.14-23.81-.38-3-.11-5.51-.26-7.21-.38l-1.95-.17a4.07,4.07,0,0,1-.68-.09,2.55,2.55,0,0,1,.68,0l2,.07c1.71.06,4.17.15,7.21.21,6.09.15,14.51.06,23.81.23a58.1,58.1,0,0,1,6.8.38,12.19,12.19,0,0,1,5.94,2.3,17.92,17.92,0,0,1,4,4.19,24.13,24.13,0,0,1,2.34,4.43,34.64,34.64,0,0,1,2,7c.15.84.24,1.5.29,1.94A4.38,4.38,0,0,1,152.14,222.63Z" transform="translate(-4.49 -33.68)"/><rect class="cls-6" x="98.29" y="150.62" width="69.92" height="10.15"/><rect class="cls-5" x="113.67" y="155.69" width="38.07" height="5.08"/><rect class="cls-4" x="358.49" y="147.39" width="84.76" height="259.65"/><rect class="cls-5" x="442.99" y="147.39" width="66.99" height="258.82"/><rect class="cls-6" x="363.04" y="188.94" width="71.9" height="20.24"/><rect class="cls-5" x="365.04" y="191.49" width="4.03" height="15.49"/><circle class="cls-7" cx="372.53" cy="194.75" r="1.28"/><circle class="cls-7" cx="372.53" cy="200.22" r="1.28"/><rect class="cls-5" x="378.93" y="193.47" width="3.96" height="11.9"/><rect class="cls-5" x="384.64" y="193.47" width="3.96" height="11.9"/><rect class="cls-5" x="390.36" y="193.47" width="3.96" height="11.9"/><rect class="cls-5" x="396.07" y="193.47" width="3.96" height="11.9"/><rect class="cls-5" x="401.79" y="193.47" width="3.96" height="11.9"/><rect class="cls-5" x="407.5" y="193.47" width="3.96" height="11.9"/><rect class="cls-5" x="413.22" y="193.47" width="3.96" height="11.9"/><rect class="cls-5" x="418.93" y="193.47" width="3.96" height="11.9"/><rect class="cls-5" x="424.65" y="193.47" width="3.96" height="11.9"/><rect class="cls-5" x="430.36" y="193.47" width="3.96" height="11.9"/><rect class="cls-6" x="363.04" y="221.37" width="71.9" height="20.24"/><rect class="cls-5" x="365.04" y="223.91" width="4.03" height="15.49"/><circle class="cls-7" cx="372.53" cy="227.17" r="1.28"/><circle class="cls-7" cx="372.53" cy="232.64" r="1.28"/><rect class="cls-5" x="378.93" y="225.89" width="3.96" height="11.9"/><rect class="cls-5" x="384.64" y="225.89" width="3.96" height="11.9"/><rect class="cls-5" x="390.36" y="225.89" width="3.96" height="11.9"/><rect class="cls-5" x="396.07" y="225.89" width="3.96" height="11.9"/><rect class="cls-5" x="401.79" y="225.89" width="3.96" height="11.9"/><rect class="cls-5" x="407.5" y="225.89" width="3.96" height="11.9"/><rect class="cls-5" x="413.22" y="225.89" width="3.96" height="11.9"/><rect class="cls-5" x="418.93" y="225.89" width="3.96" height="11.9"/><rect class="cls-5" x="424.65" y="225.89" width="3.96" height="11.9"/><rect class="cls-5" x="430.36" y="225.89" width="3.96" height="11.9"/><rect class="cls-6" x="363.04" y="253.79" width="71.9" height="20.24"/><rect class="cls-5" x="365.04" y="256.33" width="4.03" height="15.49"/><circle class="cls-7" cx="372.53" cy="259.59" r="1.28"/><path class="cls-7" d="M378.31,298.75a1.28,1.28,0,1,1-1.28-1.28A1.28,1.28,0,0,1,378.31,298.75Z" transform="translate(-4.49 -33.68)"/><rect class="cls-5" x="378.93" y="258.31" width="3.96" height="11.9"/><rect class="cls-5" x="384.64" y="258.31" width="3.96" height="11.9"/><rect class="cls-5" x="390.36" y="258.31" width="3.96" height="11.9"/><rect class="cls-5" x="396.07" y="258.31" width="3.96" height="11.9"/><rect class="cls-5" x="401.79" y="258.31" width="3.96" height="11.9"/><rect class="cls-5" x="407.5" y="258.31" width="3.96" height="11.9"/><rect class="cls-5" x="413.22" y="258.31" width="3.96" height="11.9"/><rect class="cls-5" x="418.93" y="258.31" width="3.96" height="11.9"/><rect class="cls-5" x="424.65" y="258.31" width="3.96" height="11.9"/><rect class="cls-5" x="430.36" y="258.31" width="3.96" height="11.9"/><rect class="cls-6" x="363.04" y="286.21" width="71.9" height="20.24"/><rect class="cls-5" x="365.04" y="288.76" width="4.03" height="15.49"/><circle class="cls-7" cx="372.53" cy="292.02" r="1.28"/><path class="cls-7" d="M378.31,331.18a1.28,1.28,0,0,1-2.56,0,1.28,1.28,0,0,1,2.56,0Z" transform="translate(-4.49 -33.68)"/><rect class="cls-5" x="378.93" y="290.74" width="3.96" height="11.9"/><rect class="cls-5" x="384.64" y="290.74" width="3.96" height="11.9"/><rect class="cls-5" x="390.36" y="290.74" width="3.96" height="11.9"/><rect class="cls-5" x="396.07" y="290.74" width="3.96" height="11.9"/><rect class="cls-5" x="401.79" y="290.74" width="3.96" height="11.9"/><rect class="cls-5" x="407.5" y="290.74" width="3.96" height="11.9"/><rect class="cls-5" x="413.22" y="290.74" width="3.96" height="11.9"/><rect class="cls-5" x="418.93" y="290.74" width="3.96" height="11.9"/><rect class="cls-5" x="424.65" y="290.74" width="3.96" height="11.9"/><rect class="cls-5" x="430.36" y="290.74" width="3.96" height="11.9"/><rect class="cls-6" x="363.04" y="318.64" width="71.9" height="20.24"/><rect class="cls-5" x="365.04" y="321.18" width="4.03" height="15.49"/><circle class="cls-7" cx="372.53" cy="324.44" r="1.28"/><path class="cls-7" d="M378.31,363.6a1.28,1.28,0,1,1-1.28-1.28A1.28,1.28,0,0,1,378.31,363.6Z" transform="translate(-4.49 -33.68)"/><rect class="cls-5" x="378.93" y="323.16" width="3.96" height="11.9"/><rect class="cls-5" x="384.64" y="323.16" width="3.96" height="11.9"/><rect class="cls-5" x="390.36" y="323.16" width="3.96" height="11.9"/><rect class="cls-5" x="396.07" y="323.16" width="3.96" height="11.9"/><rect class="cls-5" x="401.79" y="323.16" width="3.96" height="11.9"/><rect class="cls-5" x="407.5" y="323.16" width="3.96" height="11.9"/><rect class="cls-5" x="413.22" y="323.16" width="3.96" height="11.9"/><rect class="cls-5" x="418.93" y="323.16" width="3.96" height="11.9"/><rect class="cls-5" x="424.65" y="323.16" width="3.96" height="11.9"/><rect class="cls-5" x="430.36" y="323.16" width="3.96" height="11.9"/><rect class="cls-6" x="363.04" y="351.06" width="71.9" height="20.24"/><rect class="cls-5" x="365.04" y="353.61" width="4.03" height="15.49"/><circle class="cls-7" cx="372.53" cy="356.86" r="1.28"/><path class="cls-7" d="M378.31,396a1.28,1.28,0,1,1-1.28-1.28A1.28,1.28,0,0,1,378.31,396Z" transform="translate(-4.49 -33.68)"/><rect class="cls-5" x="378.93" y="355.58" width="3.96" height="11.9"/><rect class="cls-5" x="384.64" y="355.58" width="3.96" height="11.9"/><rect class="cls-5" x="390.36" y="355.58" width="3.96" height="11.9"/><rect class="cls-5" x="396.07" y="355.58" width="3.96" height="11.9"/><rect class="cls-5" x="401.79" y="355.58" width="3.96" height="11.9"/><rect class="cls-5" x="407.5" y="355.58" width="3.96" height="11.9"/><rect class="cls-5" x="413.22" y="355.58" width="3.96" height="11.9"/><rect class="cls-5" x="418.93" y="355.58" width="3.96" height="11.9"/><rect class="cls-5" x="424.65" y="355.58" width="3.96" height="11.9"/><rect class="cls-5" x="430.36" y="355.58" width="3.96" height="11.9"/><rect class="cls-6" x="363.04" y="383.48" width="71.9" height="20.24"/><rect class="cls-5" x="365.04" y="386.03" width="4.03" height="15.49"/><circle class="cls-7" cx="372.53" cy="389.29" r="1.28"/><path class="cls-7" d="M378.31,428.45a1.28,1.28,0,0,1-2.56,0,1.28,1.28,0,0,1,2.56,0Z" transform="translate(-4.49 -33.68)"/><rect class="cls-5" x="378.93" y="388.01" width="3.96" height="11.9"/><rect class="cls-5" x="384.64" y="388.01" width="3.96" height="11.9"/><rect class="cls-5" x="390.36" y="388.01" width="3.96" height="11.9"/><rect class="cls-5" x="396.07" y="388.01" width="3.96" height="11.9"/><rect class="cls-5" x="401.79" y="388.01" width="3.96" height="11.9"/><rect class="cls-5" x="407.5" y="388.01" width="3.96" height="11.9"/><rect class="cls-5" x="413.22" y="388.01" width="3.96" height="11.9"/><rect class="cls-5" x="418.93" y="388.01" width="3.96" height="11.9"/><rect class="cls-5" x="424.65" y="388.01" width="3.96" height="11.9"/><rect class="cls-5" x="430.36" y="388.01" width="3.96" height="11.9"/><path class="cls-6" d="M412,222.63a2.49,2.49,0,0,1-.08-.63c0-.41-.06-1-.08-1.8s0-1.73-.09-2.84a17.84,17.84,0,0,0-.5-3.68,13,13,0,0,0-1.92-4,8.86,8.86,0,0,0-3.93-3.16,19,19,0,0,0-5.58-1.14l-6.19-.53c-8.49-.74-16.18-1.21-21.76-1.32-2.79-.06-5.05-.05-6.61,0h-1.79a4.27,4.27,0,0,1-.63,0,2.34,2.34,0,0,1,.62-.08l1.8-.11c1.56-.07,3.82-.14,6.61-.13,5.59,0,13.31.43,21.8,1.17l6.2.55a19.1,19.1,0,0,1,5.72,1.19,9.33,9.33,0,0,1,4.1,3.36,13.28,13.28,0,0,1,1.92,4.19,17.29,17.29,0,0,1,.43,3.77c0,1.12,0,2.07,0,2.85s0,1.33,0,1.8A3.07,3.07,0,0,1,412,222.63Z" transform="translate(-4.49 -33.68)"/><path class="cls-6" d="M390.18,222.63a3.49,3.49,0,0,1,0-.59c0-.45,0-1,0-1.7s0-1.63-.09-2.66a8.36,8.36,0,0,0-.88-3.33,6.38,6.38,0,0,0-3.24-2.48,8.89,8.89,0,0,0-4.73-.48,7.87,7.87,0,0,0-2.43.83,4.63,4.63,0,0,0-1.89,1.78,2.57,2.57,0,0,0,0,2.52,3.36,3.36,0,0,0,2.13,1.6,2.71,2.71,0,0,0,2.5-.72,3.67,3.67,0,0,0,1.12-2.38,3.63,3.63,0,0,0-.74-2.44,5.33,5.33,0,0,0-1.9-1.67,6.74,6.74,0,0,0-2.36-.61c-.82-.13-1.6-.23-2.37-.32-1.53-.17-3-.27-4.27-.32-2.61-.11-4.74-.07-6.21-.07h-1.69a2.44,2.44,0,0,1-.59,0,2.49,2.49,0,0,1,.59-.07l1.69-.09c1.47-.06,3.59-.15,6.23-.09,1.31,0,2.76.11,4.3.26.77.08,1.56.18,2.38.29.41.07.82.12,1.25.2a4.46,4.46,0,0,1,1.27.44,5.81,5.81,0,0,1,2.08,1.81,4.12,4.12,0,0,1,.85,2.77,4.2,4.2,0,0,1-1.27,2.71,3.23,3.23,0,0,1-3,.86,3.92,3.92,0,0,1-2.48-1.86,3.1,3.1,0,0,1,0-3,5.12,5.12,0,0,1,2.1-2,8.4,8.4,0,0,1,2.59-.86,9.25,9.25,0,0,1,5,.55,6.69,6.69,0,0,1,3.4,2.7,8.28,8.28,0,0,1,.85,3.49,26.62,26.62,0,0,1,0,2.69c0,.68-.05,1.24-.07,1.69A2.36,2.36,0,0,1,390.18,222.63Z" transform="translate(-4.49 -33.68)"/><path class="cls-6" d="M417.87,222.63a3.56,3.56,0,0,1-.16-.67c-.08-.44-.2-1.09-.38-1.92a37,37,0,0,0-2.13-6.86A20,20,0,0,0,409,204.8a11.81,11.81,0,0,0-5.72-2.18,61.08,61.08,0,0,0-6.74-.36c-9.29-.17-17.72-.14-23.81-.38-3-.11-5.51-.26-7.21-.38l-2-.17a4.07,4.07,0,0,1-.68-.09,2.51,2.51,0,0,1,.68,0l2,.07c1.71.06,4.17.15,7.21.21,6.09.15,14.51.06,23.81.23a58.1,58.1,0,0,1,6.8.38,12.19,12.19,0,0,1,5.94,2.3,17.92,17.92,0,0,1,4,4.19,24.13,24.13,0,0,1,2.34,4.43,34.64,34.64,0,0,1,2,7c.15.84.24,1.5.29,1.94A4.38,4.38,0,0,1,417.87,222.63Z" transform="translate(-4.49 -33.68)"/><rect class="cls-6" x="364.02" y="150.62" width="69.92" height="10.15"/><rect class="cls-5" x="379.4" y="155.69" width="38.07" height="5.08"/><path class="cls-8" d="M636.3,440.4c0,.14-141.44.26-315.89.26S4.49,440.54,4.49,440.4s141.42-.26,315.92-.26S636.3,440.25,636.3,440.4Z" transform="translate(-4.49 -33.68)"/><rect class="cls-4" x="187.61" y="110.53" width="96.61" height="295.95"/><rect class="cls-6" x="284.08" y="110.53" width="76.36" height="295"/><rect class="cls-8" x="192.96" y="257.9" width="81.95" height="23.07"/><rect class="cls-8" x="192.96" y="157.9" width="81.95" height="23.07"/><rect class="cls-9" x="195.24" y="160.8" width="4.59" height="17.66"/><path class="cls-10" d="M209.73,198.2a1.46,1.46,0,1,1-1.46-1.46A1.46,1.46,0,0,1,209.73,198.2Z" transform="translate(-4.49 -33.68)"/><path class="cls-10" d="M209.73,204.44a1.46,1.46,0,1,1-1.46-1.46A1.46,1.46,0,0,1,209.73,204.44Z" transform="translate(-4.49 -33.68)"/><rect class="cls-9" x="211.07" y="163.05" width="4.51" height="13.56"/><rect class="cls-9" x="217.58" y="163.05" width="4.51" height="13.56"/><rect class="cls-9" x="224.1" y="163.05" width="4.51" height="13.56"/><rect class="cls-9" x="230.61" y="163.05" width="4.51" height="13.56"/><rect class="cls-9" x="237.12" y="163.05" width="4.51" height="13.56"/><rect class="cls-9" x="243.64" y="163.05" width="4.51" height="13.56"/><rect class="cls-9" x="250.15" y="163.05" width="4.51" height="13.56"/><rect class="cls-9" x="256.67" y="163.05" width="4.51" height="13.56"/><rect class="cls-9" x="263.18" y="163.05" width="4.51" height="13.56"/><rect class="cls-9" x="269.69" y="163.05" width="4.51" height="13.56"/><rect class="cls-8" x="192.96" y="191.04" width="81.95" height="23.07"/><rect class="cls-9" x="195.24" y="193.94" width="4.59" height="17.66"/><path class="cls-10" d="M209.73,231.34a1.46,1.46,0,1,1-1.46-1.45A1.46,1.46,0,0,1,209.73,231.34Z" transform="translate(-4.49 -33.68)"/><path class="cls-10" d="M209.73,237.58a1.46,1.46,0,1,1-1.46-1.46A1.46,1.46,0,0,1,209.73,237.58Z" transform="translate(-4.49 -33.68)"/><rect class="cls-9" x="211.07" y="196.2" width="4.51" height="13.56"/><rect class="cls-9" x="217.58" y="196.2" width="4.51" height="13.56"/><rect class="cls-9" x="224.1" y="196.2" width="4.51" height="13.56"/><rect class="cls-9" x="230.61" y="196.2" width="4.51" height="13.56"/><rect class="cls-9" x="237.12" y="196.2" width="4.51" height="13.56"/><rect class="cls-9" x="243.64" y="196.2" width="4.51" height="13.56"/><rect class="cls-9" x="250.15" y="196.2" width="4.51" height="13.56"/><rect class="cls-9" x="256.67" y="196.2" width="4.51" height="13.56"/><rect class="cls-9" x="263.18" y="196.2" width="4.51" height="13.56"/><rect class="cls-9" x="269.69" y="196.2" width="4.51" height="13.56"/><rect class="cls-8" x="192.96" y="224.46" width="81.95" height="23.07"/><rect class="cls-9" x="195.24" y="227.36" width="4.59" height="17.66"/><path class="cls-10" d="M209.73,264.75a1.46,1.46,0,1,1-1.46-1.45A1.46,1.46,0,0,1,209.73,264.75Z" transform="translate(-4.49 -33.68)"/><path class="cls-10" d="M209.73,271a1.46,1.46,0,1,1-1.46-1.45A1.46,1.46,0,0,1,209.73,271Z" transform="translate(-4.49 -33.68)"/><rect class="cls-9" x="211.07" y="229.61" width="4.51" height="13.56"/><rect class="cls-9" x="217.58" y="229.61" width="4.51" height="13.56"/><rect class="cls-9" x="224.1" y="229.61" width="4.51" height="13.56"/><rect class="cls-9" x="230.61" y="229.61" width="4.51" height="13.56"/><rect class="cls-9" x="237.12" y="229.61" width="4.51" height="13.56"/><rect class="cls-9" x="243.64" y="229.61" width="4.51" height="13.56"/><rect class="cls-9" x="250.15" y="229.61" width="4.51" height="13.56"/><rect class="cls-9" x="256.67" y="229.61" width="4.51" height="13.56"/><rect class="cls-9" x="263.18" y="229.61" width="4.51" height="13.56"/><rect class="cls-9" x="269.69" y="229.61" width="4.51" height="13.56"/><rect class="cls-8" x="192.96" y="297" width="81.95" height="23.07"/><rect class="cls-9" x="195.24" y="299.9" width="4.59" height="17.66"/><path class="cls-10" d="M209.73,337.3a1.46,1.46,0,1,1-1.46-1.46A1.45,1.45,0,0,1,209.73,337.3Z" transform="translate(-4.49 -33.68)"/><path class="cls-10" d="M209.73,343.54a1.46,1.46,0,1,1-1.46-1.46A1.45,1.45,0,0,1,209.73,343.54Z" transform="translate(-4.49 -33.68)"/><rect class="cls-9" x="211.07" y="302.15" width="4.51" height="13.56"/><rect class="cls-9" x="217.58" y="302.15" width="4.51" height="13.56"/><rect class="cls-9" x="224.1" y="302.15" width="4.51" height="13.56"/><rect class="cls-9" x="230.61" y="302.15" width="4.51" height="13.56"/><rect class="cls-9" x="237.12" y="302.15" width="4.51" height="13.56"/><rect class="cls-9" x="243.64" y="302.15" width="4.51" height="13.56"/><rect class="cls-9" x="250.15" y="302.15" width="4.51" height="13.56"/><rect class="cls-9" x="256.67" y="302.15" width="4.51" height="13.56"/><rect class="cls-9" x="263.18" y="302.15" width="4.51" height="13.56"/><rect class="cls-9" x="269.69" y="302.15" width="4.51" height="13.56"/><rect class="cls-8" x="192.96" y="369.54" width="81.95" height="23.07"/><rect class="cls-9" x="195.24" y="372.44" width="4.59" height="17.66"/><path class="cls-10" d="M209.73,409.84a1.46,1.46,0,1,1-1.46-1.46A1.46,1.46,0,0,1,209.73,409.84Z" transform="translate(-4.49 -33.68)"/><path class="cls-10" d="M209.73,416.08a1.46,1.46,0,1,1-1.46-1.46A1.46,1.46,0,0,1,209.73,416.08Z" transform="translate(-4.49 -33.68)"/><rect class="cls-9" x="211.07" y="374.69" width="4.51" height="13.56"/><rect class="cls-9" x="217.58" y="374.69" width="4.51" height="13.56"/><rect class="cls-9" x="224.1" y="374.69" width="4.51" height="13.56"/><rect class="cls-9" x="230.61" y="374.69" width="4.51" height="13.56"/><rect class="cls-9" x="237.12" y="374.69" width="4.51" height="13.56"/><rect class="cls-9" x="243.64" y="374.69" width="4.51" height="13.56"/><rect class="cls-9" x="250.15" y="374.69" width="4.51" height="13.56"/><rect class="cls-9" x="256.67" y="374.69" width="4.51" height="13.56"/><rect class="cls-9" x="263.18" y="374.69" width="4.51" height="13.56"/><rect class="cls-9" x="269.69" y="374.69" width="4.51" height="13.56"/><rect class="cls-8" x="192.96" y="333.3" width="81.95" height="23.07"/><rect class="cls-9" x="195.24" y="336.2" width="4.59" height="17.66"/><path class="cls-10" d="M209.73,373.6a1.46,1.46,0,1,1-1.46-1.46A1.46,1.46,0,0,1,209.73,373.6Z" transform="translate(-4.49 -33.68)"/><path class="cls-10" d="M209.73,379.84a1.46,1.46,0,1,1-1.46-1.46A1.46,1.46,0,0,1,209.73,379.84Z" transform="translate(-4.49 -33.68)"/><rect class="cls-9" x="211.07" y="338.46" width="4.51" height="13.56"/><rect class="cls-9" x="217.58" y="338.46" width="4.51" height="13.56"/><rect class="cls-9" x="224.1" y="338.46" width="4.51" height="13.56"/><rect class="cls-9" x="230.61" y="338.46" width="4.51" height="13.56"/><rect class="cls-9" x="237.12" y="338.46" width="4.51" height="13.56"/><rect class="cls-9" x="243.64" y="338.46" width="4.51" height="13.56"/><rect class="cls-9" x="250.15" y="338.46" width="4.51" height="13.56"/><rect class="cls-9" x="256.67" y="338.46" width="4.51" height="13.56"/><rect class="cls-9" x="263.18" y="338.46" width="4.51" height="13.56"/><rect class="cls-9" x="269.69" y="338.46" width="4.51" height="13.56"/><path class="cls-8" d="M248.13,191.58a4,4,0,0,1-.08-.71c0-.47-.06-1.16-.08-2.05s0-2-.1-3.24a20.53,20.53,0,0,0-.56-4.21,15,15,0,0,0-2.19-4.61,10.28,10.28,0,0,0-4.49-3.62,21.78,21.78,0,0,0-6.37-1.29l-7.06-.61c-9.67-.84-18.45-1.38-24.8-1.49-3.18-.07-5.76-.05-7.53,0l-2.05,0a3.07,3.07,0,0,1-.72,0,3.16,3.16,0,0,1,.71-.08l2.05-.12c1.78-.07,4.36-.15,7.54-.13,6.37,0,15.17.5,24.84,1.34l7.07.62a21.86,21.86,0,0,1,6.5,1.36,10.61,10.61,0,0,1,4.66,3.81,15.21,15.21,0,0,1,2.2,4.77,20.52,20.52,0,0,1,.49,4.29c0,1.27,0,2.36,0,3.25s0,1.53,0,2.05A3.83,3.83,0,0,1,248.13,191.58Z" transform="translate(-4.49 -33.68)"/><path class="cls-8" d="M223.27,191.58a3.5,3.5,0,0,1-.05-.67l0-1.93c0-.84,0-1.86-.09-3a9.42,9.42,0,0,0-1-3.8,7.33,7.33,0,0,0-3.7-2.85,10.15,10.15,0,0,0-5.4-.55,9.22,9.22,0,0,0-2.79.95,5.29,5.29,0,0,0-2.17,2.05,2.92,2.92,0,0,0,0,2.89,3.86,3.86,0,0,0,2.46,1.85,3.13,3.13,0,0,0,2.88-.83,4.33,4.33,0,0,0,1.29-2.74,4.17,4.17,0,0,0-.86-2.8,6.12,6.12,0,0,0-2.17-1.92,8.08,8.08,0,0,0-2.71-.69q-1.4-.21-2.7-.36c-1.74-.2-3.37-.31-4.86-.37-3-.11-5.41-.07-7.09-.07h-1.92a4,4,0,0,1-.68,0,2.54,2.54,0,0,1,.67-.07l1.93-.1c1.67-.06,4.1-.17,7.1-.1,1.5,0,3.14.13,4.9.31.88.09,1.78.2,2.72.33.46.08.93.14,1.42.23a5.14,5.14,0,0,1,1.44.5,6.59,6.59,0,0,1,2.35,2,4.6,4.6,0,0,1,1,3.13,4.73,4.73,0,0,1-1.44,3.08,3.66,3.66,0,0,1-3.35,1,4.39,4.39,0,0,1-2.79-2.1,3.44,3.44,0,0,1,0-3.39,5.78,5.78,0,0,1,2.38-2.25,9.76,9.76,0,0,1,2.95-1,10.55,10.55,0,0,1,5.63.62,7.58,7.58,0,0,1,3.87,3.07,9.55,9.55,0,0,1,1,4c.06,1.2,0,2.23,0,3.06s-.05,1.44-.07,1.93A2.94,2.94,0,0,1,223.27,191.58Z" transform="translate(-4.49 -33.68)"/><path class="cls-8" d="M254.82,191.58a4.16,4.16,0,0,1-.16-.76c-.09-.5-.23-1.24-.43-2.19a43.31,43.31,0,0,0-2.42-7.82,22.7,22.7,0,0,0-7.13-9.57,13.41,13.41,0,0,0-6.54-2.49,68,68,0,0,0-7.68-.42c-10.59-.2-20.19-.15-27.14-.42-3.47-.12-6.28-.29-8.21-.42l-2.23-.19a4.5,4.5,0,0,1-.78-.1,3.86,3.86,0,0,1,.78,0l2.24.08c1.94.08,4.74.19,8.21.26,6.94.17,16.53.07,27.14.27a67.72,67.72,0,0,1,7.75.43,14,14,0,0,1,6.75,2.61,20.62,20.62,0,0,1,4.51,4.77,27.54,27.54,0,0,1,2.67,5,39.29,39.29,0,0,1,2.27,7.92c.18,1,.28,1.7.34,2.21A3.81,3.81,0,0,1,254.82,191.58Z" transform="translate(-4.49 -33.68)"/><rect class="cls-8" x="194.08" y="114.21" width="79.7" height="11.57"/><rect class="cls-9" x="211.61" y="120" width="43.39" height="5.78"/><path class="cls-8" d="M310.79,387.85c0,.06-.88.14-2.41.59a21,21,0,0,0-6,2.95,17,17,0,0,0-3.38,3.14,11.75,11.75,0,0,0-1.39,2.14,15.21,15.21,0,0,0-.87,2.57c-.91,3.66-.63,7.84-.45,12.2s-.11,8.7-1.83,12.19a13.48,13.48,0,0,1-3.25,4.34,15.87,15.87,0,0,1-4,2.54,15.48,15.48,0,0,1-3.73,1.11,13.38,13.38,0,0,1-2.94.13,9.84,9.84,0,0,1-1.83-.29,2.87,2.87,0,0,1-.62-.19c0-.06.87.21,2.46.28a14.85,14.85,0,0,0,2.88-.21,15.5,15.5,0,0,0,3.63-1.17,15.32,15.32,0,0,0,3.85-2.52,13.17,13.17,0,0,0,3.11-4.23c1.64-3.39,1.92-7.63,1.74-12s-.45-8.59.51-12.33a14.65,14.65,0,0,1,.92-2.66,12,12,0,0,1,1.47-2.21,16.24,16.24,0,0,1,3.5-3.17,19.59,19.59,0,0,1,6.18-2.85,12.25,12.25,0,0,1,1.82-.34A2.81,2.81,0,0,1,310.79,387.85Z" transform="translate(-4.49 -33.68)"/><rect class="cls-8" x="269.56" y="394.01" width="6.54" height="7.96"/><rect class="cls-9" x="306.3" y="334.07" width="36.69" height="40.2"/><circle class="cls-8" cx="329.14" cy="388.01" r="12.08" transform="translate(-128.89 584.95) rotate(-76.65)"/><path class="cls-9" d="M335.17,388a6,6,0,1,1-6-6A6,6,0,0,1,335.17,388Z" transform="translate(-4.49 -33.68)"/><circle class="cls-8" cx="311.26" cy="340.3" r="1.12"/><circle class="cls-8" cx="337.37" cy="340.3" r="1.12"/><circle class="cls-8" cx="337.61" cy="369.99" r="1.12"/><circle class="cls-8" cx="311.26" cy="370.45" r="1.12"/><rect class="cls-8" x="342.99" y="334.07" width="2.96" height="40.2"/><path class="cls-8" d="M454.38,404.91a3.61,3.61,0,0,1,.26.38c.18.28.42.67.74,1.16a14.74,14.74,0,0,1,1,2,19.44,19.44,0,0,1,1.1,2.84,26.78,26.78,0,0,1,1.16,8.26,28.13,28.13,0,0,1-2.39,10.77c-.22.47-.43.94-.65,1.42l-.79,1.39a27.33,27.33,0,0,1-1.84,2.74,23.57,23.57,0,0,1-5.07,4.82l-.74.54-.8.45c-.54.29-1.07.64-1.64.89l-1.75.75c-.58.26-1.21.39-1.82.6a25.34,25.34,0,0,1-7.88,1,29.45,29.45,0,0,1-8.22-1.39,28,28,0,0,1-7.74-4,23.22,23.22,0,0,1-6.13-6.61,73.77,73.77,0,0,1-4-8.35,24.36,24.36,0,0,0-4.89-7.66,12.05,12.05,0,0,0-3.68-2.42,13,13,0,0,0-4.24-.93c-5.78-.33-11.5,3-13.45,8a9.17,9.17,0,0,0-.57,3.83,5.51,5.51,0,0,0,1.37,3.39A4.08,4.08,0,0,0,385,430a5.67,5.67,0,0,0,3.21-1.31,7.61,7.61,0,0,0,2.35-6.11,13.87,13.87,0,0,0-1.64-6.06,15.2,15.2,0,0,0-21-6.1c-1,.6-1.53,1-1.55,1a10.11,10.11,0,0,1,1.5-1.07,14.89,14.89,0,0,1,4.92-1.88,15.35,15.35,0,0,1,8.27.63,15.63,15.63,0,0,1,8.16,7.27,14.33,14.33,0,0,1,1.71,6.22,9.69,9.69,0,0,1-.48,3.43,6.64,6.64,0,0,1-2,3,6.05,6.05,0,0,1-3.46,1.42,4.54,4.54,0,0,1-3.61-1.36,6,6,0,0,1-1.51-3.68,9.62,9.62,0,0,1,.59-4c2-5.23,7.95-8.64,13.92-8.32a13.34,13.34,0,0,1,4.42,1,12.29,12.29,0,0,1,3.84,2.52,24.86,24.86,0,0,1,5,7.82,73.74,73.74,0,0,0,4,8.29,22.64,22.64,0,0,0,6,6.47,27.68,27.68,0,0,0,7.58,3.94,28.91,28.91,0,0,0,8.09,1.38,24.68,24.68,0,0,0,7.73-1,17.85,17.85,0,0,0,1.79-.59l1.72-.72c.56-.25,1.07-.59,1.61-.87l.79-.44.73-.52a23.94,23.94,0,0,0,5-4.71,28.39,28.39,0,0,0,1.82-2.7l.79-1.36c.21-.47.43-.94.64-1.4a28,28,0,0,0,2.44-10.63,27.33,27.33,0,0,0-1.06-8.19,21.52,21.52,0,0,0-1.05-2.84,15.41,15.41,0,0,0-1-2c-.3-.5-.52-.9-.69-1.18Z" transform="translate(-4.49 -33.68)"/><rect class="cls-8" x="441.98" y="359.36" width="19.01" height="19.01"/><rect class="cls-10" x="369.41" y="206.3" width="64.75" height="47.61"/><path class="cls-8" d="M438.66,287.59s0-.31,0-.88,0-1.44,0-2.54c0-2.24,0-5.49-.06-9.63,0-8.3-.06-20.17-.11-34.56l.22.21-64.75.05h0l.26-.26c0,17.09,0,33.29,0,47.61l-.23-.23,46.67.11,13.3.07,3.54,0,.92,0h.32a1.36,1.36,0,0,1-.3,0l-.89,0-3.49,0-13.24.06-46.83.12h-.24v-.24c0-14.32,0-30.52,0-47.61v-.26h.26l64.75.05h.21V240c-.05,14.45-.09,26.36-.11,34.7,0,4.12,0,7.35-.06,9.57,0,1.08,0,1.92,0,2.5S438.66,287.59,438.66,287.59Z" transform="translate(-4.49 -33.68)"/><path class="cls-3" d="M390.67,255c-.06.18,1.49,21.14,1.49,20.9s29.38,0,29.38,0l.36-18.57H400l-1-2.58Z" transform="translate(-4.49 -33.68)"/><path class="cls-8" d="M438.07,255s.06,0,.18,0l.54,0,2.12,0,7.95-.07,12.2-.05h3.62c1.23,0,2.52,0,3.78-.08a5.27,5.27,0,0,0,3.37-1.61,5.44,5.44,0,0,0,1.21-3.69v0c0-7.24,0-15.19,0-23.52,0-17.14.05-32.65.07-43.92,0-5.59.06-10.13.08-13.3,0-1.55,0-2.76.05-3.62,0-.39,0-.7,0-.94a1.34,1.34,0,0,1,0-.32s0,.11,0,.32,0,.55,0,.94c0,.87,0,2.08.05,3.62,0,3.18,0,7.72.08,13.31,0,11.27.05,26.78.08,43.91,0,8.33,0,16.28,0,23.51h0a5.86,5.86,0,0,1-1.34,4,5.76,5.76,0,0,1-3.67,1.76c-1.34.11-2.59,0-3.83,0h-3.62l-12.2-.05-7.95-.07-2.12,0-.54,0Z" transform="translate(-4.49 -33.68)"/><path class="cls-8" d="M373.91,269.33a.75.75,0,0,1-.24,0l-.69,0-2.64,0-9.74,0-14.43,0-8.53,0a7.18,7.18,0,0,1-4.43-1.19,5.47,5.47,0,0,1-2-4.24,3.69,3.69,0,0,1,0-.47v0c0-6.22,0-12.14,0-17.52,0-2.69,0-5.25,0-7.64,0-1.2,0-2.36,0-3.46a7.2,7.2,0,0,0-.65-3,3,3,0,0,0-2.24-1.42,15.32,15.32,0,0,1-2.57-.42,3,3,0,0,1-1.55-1.68,6.67,6.67,0,0,1-.43-1.87,12.51,12.51,0,0,1,0-2.63c0-.3.08-.52.1-.67a.62.62,0,0,1,.07-.23s0,.32-.06.91a13.63,13.63,0,0,0,0,2.6,6.85,6.85,0,0,0,.46,1.79,2.71,2.71,0,0,0,1.43,1.51,15.17,15.17,0,0,0,2.52.37,4.87,4.87,0,0,1,1.38.46,2.82,2.82,0,0,1,1.12,1.1,7.67,7.67,0,0,1,.73,3.16c.1,1.12.07,2.27.08,3.47,0,2.4,0,5,0,7.65,0,5.39,0,11.31,0,17.54h0V264a4.92,4.92,0,0,0,1.84,3.84,6.61,6.61,0,0,0,4.12,1.1l8.53.05,14.43.13,9.74.14,2.65.06.68,0Z" transform="translate(-4.49 -33.68)"/><path class="cls-8" d="M326.15,222a2.13,2.13,0,1,1-2.13-2.12A2.12,2.12,0,0,1,326.15,222Z" transform="translate(-4.49 -33.68)"/><path class="cls-8" d="M373.91,263.14a4.69,4.69,0,0,1-.77.05l-2.22.05-8.2.08-12.25.05h-3.56a28.07,28.07,0,0,1-3.75-.11,5.5,5.5,0,0,1-3.5-1.85,5.87,5.87,0,0,1-1.22-3.92v-3.18c0-5.76,0-11.26,0-16.26,0-2.5,0-4.87,0-7.09a21.84,21.84,0,0,0-.16-3.19,3.86,3.86,0,0,0-1.08-2.55,4.37,4.37,0,0,0-2.39-.86,4.33,4.33,0,0,1-2.37-.59,3.28,3.28,0,0,1-1.19-1.77,7.65,7.65,0,0,1-.32-1.76,12.41,12.41,0,0,1,.08-2.44,3.34,3.34,0,0,1,.16-.84s0,.29,0,.85a13.94,13.94,0,0,0,0,2.41,7,7,0,0,0,.34,1.7,3.09,3.09,0,0,0,1.13,1.61,4.16,4.16,0,0,0,2.23.5,4.74,4.74,0,0,1,2.61.91,4.3,4.3,0,0,1,1.23,2.77,21.33,21.33,0,0,1,.19,3.23q0,3.35,0,7.1c0,5,0,10.5,0,16.27v3.23a5.29,5.29,0,0,0,1.1,3.54,5,5,0,0,0,3.18,1.68,28.08,28.08,0,0,0,3.67.13h3.56l12.25,0,8.2.08,2.22,0A4.69,4.69,0,0,1,373.91,263.14Z" transform="translate(-4.49 -33.68)"/><circle class="cls-8" cx="326.8" cy="182.26" r="2.12"/><polygon class="cls-9" points="369.41 206.3 369.41 213.43 434.16 212.6 434.16 206.3 369.41 206.3"/><path class="cls-9" d="M479.23,129.29c.19.53,2.65,35.87,2.65,35.87l-19.61-1.49-2.94-29Z" transform="translate(-4.49 -33.68)"/><polygon class="cls-8" points="477.39 131.48 479.29 130.93 476.56 95.08 474.5 95.66 477.39 131.48"/><path class="cls-8" d="M469.35,136.41a.83.83,0,1,1-.83-.83A.83.83,0,0,1,469.35,136.41Z" transform="translate(-4.49 -33.68)"/><path class="cls-8" d="M530.54,145.14a1.56,1.56,0,0,0,2.09,2c1-.46,1.26-1.87,1.12-3s-.46-2.36.07-3.38a7.93,7.93,0,0,1,1.86-1.84,5,5,0,0,0,1.61-4.12,4.18,4.18,0,0,0-2.69-3.43c-1.47-.5-3.35-.14-4.41-1.29-.77-.83-.75-2.13-1.32-3.1-.9-1.52-2.94-1.86-4.7-1.72s-3.55.61-5.23.09c-1.4-.43-2.52-1.49-3.82-2.17a7.69,7.69,0,0,0-10.58,10,4.91,4.91,0,0,0,2.26,2.49" transform="translate(-4.49 -33.68)"/><path class="cls-11" d="M528.8,175l-16.56-1.32c-.1-1.93,0-9.41,0-9.41s-6.89-1.08-7-8,1.11-22.71,1.11-22.71h0a23.93,23.93,0,0,1,24.05,3l1,.79Z" transform="translate(-4.49 -33.68)"/><path class="cls-8" d="M508,145.42a1,1,0,1,0-1.41-.07A1,1,0,0,0,508,145.42Z" transform="translate(-4.49 -33.68)"/><path class="cls-8" d="M506.32,143.85c.11.12.79-.4,1.74-.41s1.63.49,1.74.36-.06-.26-.36-.49a2.25,2.25,0,0,0-1.39-.44,2.35,2.35,0,0,0-1.38.47C506.37,143.58,506.27,143.79,506.32,143.85Z" transform="translate(-4.49 -33.68)"/><path class="cls-8" d="M517.25,144.67a1,1,0,1,0,1.38.33A1,1,0,0,0,517.25,144.67Z" transform="translate(-4.49 -33.68)"/><path class="cls-8" d="M516.63,144.68c.11.12.78-.4,1.73-.4s1.64.48,1.74.36-.05-.27-.35-.5a2.42,2.42,0,0,0-1.4-.44,2.29,2.29,0,0,0-1.38.48C516.68,144.41,516.58,144.63,516.63,144.68Z" transform="translate(-4.49 -33.68)"/><path class="cls-8" d="M512.82,152.51a4.54,4.54,0,0,0-1.53-.33c-.25,0-.44-.08-.46-.21a1.26,1.26,0,0,1,.18-.71c.24-.63.49-1.27.75-1.93a26.85,26.85,0,0,0,1.62-5.07,26.65,26.65,0,0,0-2.13,4.88c-.24.67-.48,1.31-.71,1.94a1.58,1.58,0,0,0-.13,1,.62.62,0,0,0,.42.4,1.42,1.42,0,0,0,.43.05A4.59,4.59,0,0,0,512.82,152.51Z" transform="translate(-4.49 -33.68)"/><path class="cls-10" d="M515.91,153.56a18.21,18.21,0,0,1-4.66,1.35,2.63,2.63,0,0,0,3.1,1C516.41,155.2,515.91,153.56,515.91,153.56Z" transform="translate(-4.49 -33.68)"/><path class="cls-12" d="M512.26,164.15a16,16,0,0,0,9-2.56s-2.12,5-9,4.34Z" transform="translate(-4.49 -33.68)"/><path class="cls-8" d="M506.27,135.31s4,2.34,9.67,0c3.7-1.51,7.92-2.08,8.79-1.29s.78,4.48,4.24,5.81c0,0-.76,7,2.06,7s1.87-11,1.87-11l-6.6-3.85-7.37-2-7.11.48-5.55,1.08Z" transform="translate(-4.49 -33.68)"/><path class="cls-11" d="M530.64,144.53c.11-.06,4.73-1.4,4.58,3.3s-4.85,3.59-4.85,3.46S530.64,144.53,530.64,144.53Z" transform="translate(-4.49 -33.68)"/><path class="cls-12" d="M531.86,149.55s.08.06.22.13a.87.87,0,0,0,.61,0,2,2,0,0,0,1-1.79,2.64,2.64,0,0,0-.19-1.18.94.94,0,0,0-.6-.65.4.4,0,0,0-.49.21c-.07.13,0,.22-.07.23s-.09-.08-.05-.28a.54.54,0,0,1,.19-.29.6.6,0,0,1,.46-.1,1.16,1.16,0,0,1,.84.75,2.87,2.87,0,0,1,.24,1.33,2.13,2.13,0,0,1-1.26,2,.86.86,0,0,1-.75-.15C531.87,149.66,531.85,149.56,531.86,149.55Z" transform="translate(-4.49 -33.68)"/><path class="cls-8" d="M533.83,129.93c0,.15-.73.08-1.52.33s-1.33.7-1.44.6.34-.8,1.29-1.09S533.89,129.8,533.83,129.93Z" transform="translate(-4.49 -33.68)"/><path class="cls-8" d="M531.16,127a3.32,3.32,0,0,1,.13,2.24c-.25,1.27-1,2-1.14,1.94s.42-.91.63-2S531,127,531.16,127Z" transform="translate(-4.49 -33.68)"/><path class="cls-8" d="M510.94,142.3c-.15.26-1.05,0-2.14,0s-2,.1-2.12-.17.81-.93,2.17-.87S511.09,142.06,510.94,142.3Z" transform="translate(-4.49 -33.68)"/><path class="cls-8" d="M521.5,141.42c-.14.25-1,0-2.13,0s-2,.1-2.12-.17.81-.94,2.17-.87S521.66,141.18,521.5,141.42Z" transform="translate(-4.49 -33.68)"/><path class="cls-3" d="M560.49,432.49l1.64,6.89s11.28,14.65,14.75,13.93c2.28-.47-.52-4.29-4.81-15.41l-.9-4.6Z" transform="translate(-4.49 -33.68)"/><path class="cls-8" d="M577.34,451.15a.59.59,0,0,1-.09.21,1.26,1.26,0,0,1-.47.44,1.88,1.88,0,0,1-1,.22,2.75,2.75,0,0,1-1.28-.47,56.25,56.25,0,0,1-5.68-5.3,74.62,74.62,0,0,1-5-5.9c-.6-.79-1.07-1.44-1.39-1.9l-.36-.53c-.08-.12-.12-.19-.11-.19l.15.17.39.5c.41.54.89,1.15,1.44,1.86,1.23,1.55,3,3.66,5.07,5.85a66.4,66.4,0,0,0,5.61,5.32,2.12,2.12,0,0,0,2.16.3A1.46,1.46,0,0,0,577.34,451.15Z" transform="translate(-4.49 -33.68)"/><path class="cls-8" d="M575.75,446.44s-.36,0-.92.05a5.35,5.35,0,0,0-2,.76,4.15,4.15,0,0,0-1.52,1.53c-.27.49-.34.84-.38.83a2.13,2.13,0,0,1,.25-.9,3.85,3.85,0,0,1,1.54-1.63,4.9,4.9,0,0,1,2.13-.74A1.93,1.93,0,0,1,575.75,446.44Z" transform="translate(-4.49 -33.68)"/><path class="cls-8" d="M565.07,443s.12-.5.21-1.3a5.27,5.27,0,0,0-.56-3,5,5,0,0,0-2.16-2.18,8.3,8.3,0,0,0-1.22-.44,1.17,1.17,0,0,1,.35,0,3.79,3.79,0,0,1,.93.29,4.8,4.8,0,0,1,2.28,2.21,5.14,5.14,0,0,1,.53,3.14,5.92,5.92,0,0,1-.22.95A1.28,1.28,0,0,1,565.07,443Z" transform="translate(-4.49 -33.68)"/><path class="cls-8" d="M561.21,433.66a7.86,7.86,0,0,1,.62,2.16c.2,1.22.43,2.19.38,2.21a7.8,7.8,0,0,1-.59-2.17C561.41,434.64,561.16,433.68,561.21,433.66Z" transform="translate(-4.49 -33.68)"/><path class="cls-8" d="M572.27,438.87c0,.06-.64,0-1.4.22s-1.32.47-1.35.42a2.5,2.5,0,0,1,1.31-.62A2.55,2.55,0,0,1,572.27,438.87Z" transform="translate(-4.49 -33.68)"/><path class="cls-8" d="M572.5,440.05c0,.06-.54,0-1.17.16s-1.08.44-1.11.39a1.7,1.7,0,0,1,1.07-.59A1.72,1.72,0,0,1,572.5,440.05Z" transform="translate(-4.49 -33.68)"/><path class="cls-8" d="M573.4,441.53a3.23,3.23,0,0,0-2.33.53,1.56,1.56,0,0,1,1.07-.69A1.51,1.51,0,0,1,573.4,441.53Z" transform="translate(-4.49 -33.68)"/><path class="cls-8" d="M571.5,438.38a1.32,1.32,0,0,1-.38-.05,7.07,7.07,0,0,1-1-.27,8.9,8.9,0,0,1-1.4-.62A8.23,8.23,0,0,1,568,437a1.13,1.13,0,0,1-.57-.86.67.67,0,0,1,.86-.53,1.85,1.85,0,0,1,.78.52c.41.41.76.8,1,1.13s.48.63.62.83a1.44,1.44,0,0,1,.19.33s-.35-.42-.93-1.06c-.28-.32-.64-.7-1.05-1.09a1.68,1.68,0,0,0-.7-.46c-.26-.07-.59.07-.6.34s.25.52.47.69.51.34.75.48a11.58,11.58,0,0,0,1.36.65C571,438.23,571.5,438.34,571.5,438.38Z" transform="translate(-4.49 -33.68)"/><path class="cls-8" d="M570.9,438.23a1.8,1.8,0,0,1,0-.34c0-.22,0-.54.08-.94a5.05,5.05,0,0,1,.35-1.36,3,3,0,0,1,.45-.72.75.75,0,0,1,.89-.28.86.86,0,0,1,.31.89,3.33,3.33,0,0,1-.25.81,4.07,4.07,0,0,1-.8,1.16,5.86,5.86,0,0,1-.72.61.82.82,0,0,1-.3.17s.39-.3.91-.88a4.32,4.32,0,0,0,.74-1.14,3.1,3.1,0,0,0,.22-.75c0-.26,0-.58-.21-.69s-.47,0-.64.24a2.93,2.93,0,0,0-.42.66,5,5,0,0,0-.39,1.31A8.37,8.37,0,0,1,570.9,438.23Z" transform="translate(-4.49 -33.68)"/><path class="cls-13" d="M562.13,439.38l-.79-3.31s2.76.51,3.48,2.58a8.71,8.71,0,0,1,.53,3.54l6,6.47s1.51-3,4.24-2.24c0,0,2.14,4.72,2.08,5.91s-1.44,1-1.93.81a24.05,24.05,0,0,1-5.38-4.24C567.19,445.6,563.67,441.41,562.13,439.38Z" transform="translate(-4.49 -33.68)"/><path class="cls-3" d="M504.43,436l-.05-9.19,17.22-.21.22,13.45-1.06.08c-4.75.32-24.18,1.3-27.36.38C489.84,439.45,504.43,436,504.43,436Z" transform="translate(-4.49 -33.68)"/><g class="cls-14"><path d="M515.58,440a6,6,0,0,1,2.15-3.7,5.79,5.79,0,0,1,4-1.3l.06,4.82Z" transform="translate(-4.49 -33.68)"/></g><path class="cls-13" d="M497.31,437.93s-5.12,1.54-4.46,2.37,20.31.59,29-.28l0-.38-22.93.48S498.31,438,497.31,437.93Z" transform="translate(-4.49 -33.68)"/><path class="cls-8" d="M522.06,439.62l-.29,0-.85.06-3.13.18c-2.65.12-6.3.25-10.34.31s-7.69,0-10.33,0l-3.14-.09-.85,0-.29,0a.94.94,0,0,1,.29,0H494l3.14,0c2.64,0,6.3,0,10.33,0s7.69-.16,10.33-.25l3.13-.11.85,0Z" transform="translate(-4.49 -33.68)"/><path class="cls-8" d="M498.86,440.39a6.85,6.85,0,0,0-.6-1.49,7.43,7.43,0,0,0-1.08-1.18,2.34,2.34,0,0,1,1.26,1.07A2.27,2.27,0,0,1,498.86,440.39Z" transform="translate(-4.49 -33.68)"/><path class="cls-8" d="M503.91,437.75s-.29-.26-.55-.65-.42-.74-.37-.77.29.26.55.65S504,437.72,503.91,437.75Z" transform="translate(-4.49 -33.68)"/><path class="cls-8" d="M505.3,437c0,.05-.31-.13-.61-.39s-.52-.51-.48-.56.31.14.61.4S505.34,437,505.3,437Z" transform="translate(-4.49 -33.68)"/><path class="cls-8" d="M506.16,435.36a2.2,2.2,0,0,1-.9.12,2.05,2.05,0,0,1-.9-.08,2.11,2.11,0,0,1,.9-.13A2,2,0,0,1,506.16,435.36Z" transform="translate(-4.49 -33.68)"/><path class="cls-8" d="M506.45,434.21a1.79,1.79,0,0,1-1,.3,1.86,1.86,0,0,1-1-.12,5.16,5.16,0,0,1,1-.09A5.59,5.59,0,0,1,506.45,434.21Z" transform="translate(-4.49 -33.68)"/><path class="cls-8" d="M503.31,436.25a3.06,3.06,0,0,1-1.11,0A7.06,7.06,0,0,1,501,436a4,4,0,0,1-.68-.27.59.59,0,0,1-.27-.34.42.42,0,0,1,.16-.45,2,2,0,0,1,2.89,1.3.76.76,0,0,1,0,.3,3,3,0,0,0-.52-.94,1.9,1.9,0,0,0-.95-.6,1.73,1.73,0,0,0-1.32.1c-.17.14-.1.34.09.46a3.45,3.45,0,0,0,.63.25,7,7,0,0,0,1.14.28C502.89,436.22,503.31,436.22,503.31,436.25Z" transform="translate(-4.49 -33.68)"/><path class="cls-8" d="M503,436.31a1.12,1.12,0,0,1-.13-.76,1.81,1.81,0,0,1,.29-.82,1.11,1.11,0,0,1,.91-.57.44.44,0,0,1,.35.5,1.18,1.18,0,0,1-.18.5,3.26,3.26,0,0,1-.52.68,1.59,1.59,0,0,1-.62.45s.21-.2.52-.55a3.71,3.71,0,0,0,.45-.67c.15-.24.25-.66,0-.71s-.56.26-.72.48a1.83,1.83,0,0,0-.31.73A4.3,4.3,0,0,0,503,436.31Z" transform="translate(-4.49 -33.68)"/><path class="cls-8" d="M521.65,434.92a9.85,9.85,0,0,0-1.27.06,5.42,5.42,0,0,0-4.47,3.65c-.25.74-.27,1.24-.31,1.23a1,1,0,0,1,0-.34,4.28,4.28,0,0,1,.17-.94,5.24,5.24,0,0,1,4.59-3.75,4.78,4.78,0,0,1,.95,0C521.53,434.87,521.65,434.9,521.65,434.92Z" transform="translate(-4.49 -33.68)"/><path class="cls-8" d="M519.77,427.77a57.07,57.07,0,0,1,.18,7.08,62.77,62.77,0,0,1-.18-7.08Z" transform="translate(-4.49 -33.68)"/><path class="cls-8" d="M513.39,438.31a10,10,0,0,1-2.51.28,9.57,9.57,0,0,1-2.52-.17c0-.06,1.13,0,2.51,0S513.38,438.25,513.39,438.31Z" transform="translate(-4.49 -33.68)"/><path class="cls-8" d="M516.76,438.26s-.09.24-.2.5-.17.49-.23.49-.09-.27,0-.57S516.73,438.22,516.76,438.26Z" transform="translate(-4.49 -33.68)"/><path class="cls-8" d="M518,436.66s-.07.22-.25.41-.35.3-.39.26.07-.23.24-.41S518,436.62,518,436.66Z" transform="translate(-4.49 -33.68)"/><path class="cls-8" d="M519.83,435.92c0,.06-.24.06-.5.15s-.43.23-.47.19.09-.28.41-.39S519.84,435.86,519.83,435.92Z" transform="translate(-4.49 -33.68)"/><path class="cls-8" d="M521.12,435.56c0,.05-.08.14-.22.2s-.27.06-.3,0,.08-.15.22-.2S521.1,435.51,521.12,435.56Z" transform="translate(-4.49 -33.68)"/><polyline class="cls-8" points="488.22 219.68 496.26 398.33 523.08 398.89 518.62 249.33 548.79 400.03 574.29 400.03 540.24 219.68"/><polygon class="cls-9" points="547.47 397.61 548.08 400.25 574.29 400.6 573.89 396.47 547.47 397.61"/><path class="cls-9" d="M572.37,431.13c.14,0,.31.29.38.7s0,.76-.14.78-.31-.29-.38-.7S572.22,431.16,572.37,431.13Z" transform="translate(-4.49 -33.68)"/><path class="cls-9" d="M571.38,425.28c.15,0,.37.62.51,1.42s.13,1.48,0,1.51-.37-.61-.51-1.42S571.24,425.31,571.38,425.28Z" transform="translate(-4.49 -33.68)"/><path class="cls-9" d="M570.4,419.43c.14,0,.37.62.5,1.42s.14,1.49,0,1.51-.36-.61-.5-1.42S570.26,419.46,570.4,419.43Z" transform="translate(-4.49 -33.68)"/><path class="cls-9" d="M569.42,413.58c.14,0,.37.62.5,1.42s.13,1.49,0,1.51-.37-.61-.5-1.42S569.28,413.61,569.42,413.58Z" transform="translate(-4.49 -33.68)"/><path class="cls-9" d="M568.43,407.73c.14,0,.37.62.51,1.42s.13,1.49,0,1.51-.37-.61-.51-1.42S568.29,407.76,568.43,407.73Z" transform="translate(-4.49 -33.68)"/><path class="cls-9" d="M567.45,401.88c.14,0,.36.61.5,1.42s.13,1.48,0,1.51-.37-.61-.5-1.42S567.3,401.91,567.45,401.88Z" transform="translate(-4.49 -33.68)"/><path class="cls-9" d="M566.46,396c.14,0,.36.61.5,1.42s.13,1.48,0,1.51-.37-.61-.5-1.42S566.31,396.06,566.46,396Z" transform="translate(-4.49 -33.68)"/><path class="cls-9" d="M565.46,390.18c.14,0,.37.62.51,1.42s.13,1.49,0,1.51-.37-.61-.51-1.42S565.32,390.21,565.46,390.18Z" transform="translate(-4.49 -33.68)"/><path class="cls-9" d="M564.47,384.33c.14,0,.36.62.5,1.42s.14,1.48,0,1.51-.36-.61-.5-1.42S564.32,384.36,564.47,384.33Z" transform="translate(-4.49 -33.68)"/><path class="cls-9" d="M563.46,378.49c.15,0,.37.61.51,1.41s.14,1.49,0,1.51-.37-.61-.51-1.42S563.32,378.51,563.46,378.49Z" transform="translate(-4.49 -33.68)"/><path class="cls-9" d="M562.46,372.64c.14,0,.37.61.51,1.42s.13,1.48,0,1.5-.37-.61-.51-1.42S562.32,372.66,562.46,372.64Z" transform="translate(-4.49 -33.68)"/><path class="cls-9" d="M561.45,366.79c.14,0,.37.61.51,1.42s.14,1.48,0,1.5-.37-.61-.51-1.41S561.31,366.82,561.45,366.79Z" transform="translate(-4.49 -33.68)"/><path class="cls-9" d="M560.44,361c.14,0,.37.6.51,1.41s.14,1.48,0,1.51-.37-.61-.51-1.42S560.29,361,560.44,361Z" transform="translate(-4.49 -33.68)"/><path class="cls-9" d="M559.41,355.1c.15,0,.38.61.52,1.42s.14,1.48,0,1.5-.38-.61-.52-1.41S559.27,355.13,559.41,355.1Z" transform="translate(-4.49 -33.68)"/><path class="cls-9" d="M558.39,349.26c.14,0,.37.61.51,1.41s.14,1.48,0,1.51-.37-.61-.51-1.42S558.25,349.28,558.39,349.26Z" transform="translate(-4.49 -33.68)"/><path class="cls-9" d="M557.35,343.41c.14,0,.38.61.52,1.42s.14,1.48,0,1.5-.37-.6-.51-1.41S557.21,343.44,557.35,343.41Z" transform="translate(-4.49 -33.68)"/><path class="cls-9" d="M556.31,337.57c.14,0,.38.61.52,1.42s.15,1.48,0,1.5-.37-.61-.51-1.41S556.17,337.6,556.31,337.57Z" transform="translate(-4.49 -33.68)"/><path class="cls-9" d="M555.26,331.73c.14,0,.38.61.52,1.42s.15,1.48,0,1.5-.38-.61-.52-1.41S555.12,331.76,555.26,331.73Z" transform="translate(-4.49 -33.68)"/><path class="cls-9" d="M554.21,325.89c.14,0,.37.61.52,1.42s.15,1.48,0,1.5-.38-.6-.53-1.41S554.06,325.92,554.21,325.89Z" transform="translate(-4.49 -33.68)"/><path class="cls-9" d="M553.14,320.06c.14,0,.38.6.52,1.41s.16,1.48,0,1.5-.37-.6-.52-1.41S553,320.08,553.14,320.06Z" transform="translate(-4.49 -33.68)"/><path class="cls-9" d="M552.06,314.22c.15,0,.38.61.53,1.41s.16,1.48,0,1.51-.37-.61-.52-1.41S551.92,314.25,552.06,314.22Z" transform="translate(-4.49 -33.68)"/><path class="cls-9" d="M551,308.39c.14,0,.38.6.53,1.41s.15,1.48,0,1.5-.37-.6-.52-1.41S550.84,308.41,551,308.39Z" transform="translate(-4.49 -33.68)"/><path class="cls-9" d="M549.88,302.56c.15,0,.38.6.53,1.41s.16,1.48,0,1.5-.38-.6-.53-1.41S549.74,302.58,549.88,302.56Z" transform="translate(-4.49 -33.68)"/><path class="cls-9" d="M548.78,296.73c.14,0,.38.6.53,1.41s.16,1.47,0,1.5-.38-.6-.53-1.41S548.64,296.75,548.78,296.73Z" transform="translate(-4.49 -33.68)"/><path class="cls-9" d="M547.66,290.9c.14,0,.38.6.53,1.41s.17,1.48,0,1.5-.38-.6-.54-1.4S547.52,290.93,547.66,290.9Z" transform="translate(-4.49 -33.68)"/><path class="cls-9" d="M546.53,285.08c.14,0,.38.6.54,1.4s.17,1.48,0,1.51-.38-.6-.54-1.41S546.39,285.1,546.53,285.08Z" transform="translate(-4.49 -33.68)"/><path class="cls-9" d="M545.38,279.25c.14,0,.39.6.54,1.41s.18,1.48,0,1.5-.39-.6-.55-1.4S545.24,279.28,545.38,279.25Z" transform="translate(-4.49 -33.68)"/><path class="cls-9" d="M544.22,273.43c.14,0,.39.6.55,1.41s.18,1.47,0,1.5-.38-.6-.54-1.4S544.08,273.46,544.22,273.43Z" transform="translate(-4.49 -33.68)"/><path class="cls-9" d="M543.05,267.62c.14,0,.39.6.55,1.4s.18,1.48,0,1.51-.39-.6-.55-1.41S542.91,267.65,543.05,267.62Z" transform="translate(-4.49 -33.68)"/><path class="cls-9" d="M541.86,261.8c.14,0,.39.6.55,1.4s.19,1.48.05,1.51-.39-.6-.56-1.4S541.72,261.83,541.86,261.8Z" transform="translate(-4.49 -33.68)"/><path class="cls-9" d="M541,257.42c.15,0,.33.28.41.68s0,.76-.1.79-.32-.28-.41-.68S540.81,257.45,541,257.42Z" transform="translate(-4.49 -33.68)"/><path class="cls-9" d="M523,431.11c.14,0,.28.33.3.74s-.08.75-.22.76-.28-.32-.3-.73S522.81,431.12,523,431.11Z" transform="translate(-4.49 -33.68)"/><path class="cls-9" d="M522.7,425.16c.15,0,.29.66.32,1.48s-.06,1.49-.2,1.5-.29-.66-.32-1.48S522.56,425.17,522.7,425.16Z" transform="translate(-4.49 -33.68)"/><path class="cls-9" d="M522.52,419.21c.14,0,.28.66.3,1.48s-.07,1.49-.21,1.5-.28-.66-.31-1.48S522.38,419.21,522.52,419.21Z" transform="translate(-4.49 -33.68)"/><path class="cls-9" d="M522.37,413.25c.14,0,.27.66.3,1.49s-.09,1.49-.23,1.49-.28-.66-.3-1.48S522.22,413.26,522.37,413.25Z" transform="translate(-4.49 -33.68)"/><path class="cls-9" d="M522.23,407.3c.14,0,.27.66.29,1.48s-.08,1.49-.22,1.5-.28-.66-.3-1.49S522.08,407.3,522.23,407.3Z" transform="translate(-4.49 -33.68)"/><path class="cls-9" d="M522.07,401.34c.15,0,.28.66.3,1.48s-.07,1.49-.22,1.5-.28-.66-.3-1.49S521.93,401.34,522.07,401.34Z" transform="translate(-4.49 -33.68)"/><path class="cls-9" d="M521.87,395.38c.15,0,.29.66.32,1.48s-.07,1.49-.21,1.5-.28-.66-.31-1.48S521.73,395.39,521.87,395.38Z" transform="translate(-4.49 -33.68)"/><path class="cls-9" d="M521.62,389.43c.15,0,.29.66.33,1.48s-.06,1.49-.2,1.5-.29-.66-.32-1.48S521.48,389.44,521.62,389.43Z" transform="translate(-4.49 -33.68)"/><path class="cls-9" d="M521.39,383.48c.15,0,.29.65.32,1.48s-.06,1.49-.2,1.49-.29-.65-.32-1.47S521.25,383.48,521.39,383.48Z" transform="translate(-4.49 -33.68)"/><path class="cls-9" d="M521.18,377.52c.15,0,.29.66.32,1.48s-.07,1.5-.21,1.5-.29-.66-.32-1.48S521,377.53,521.18,377.52Z" transform="translate(-4.49 -33.68)"/><path class="cls-9" d="M521,371.57c.15,0,.28.65.31,1.48s-.08,1.49-.22,1.49-.28-.66-.3-1.48S520.86,371.57,521,371.57Z" transform="translate(-4.49 -33.68)"/><path class="cls-9" d="M520.85,365.61c.14,0,.27.66.29,1.48s-.07,1.5-.22,1.5-.28-.66-.3-1.48S520.7,365.61,520.85,365.61Z" transform="translate(-4.49 -33.68)"/><path class="cls-9" d="M520.72,359.66c.14,0,.27.66.29,1.48s-.09,1.49-.23,1.49-.27-.66-.29-1.48S520.57,359.66,520.72,359.66Z" transform="translate(-4.49 -33.68)"/><path class="cls-9" d="M520.62,353.7c.14,0,.27.66.28,1.48s-.09,1.5-.24,1.5-.27-.66-.28-1.49S520.47,353.7,520.62,353.7Z" transform="translate(-4.49 -33.68)"/><path class="cls-9" d="M520.55,347.74c.14,0,.26.67.27,1.49s-.1,1.49-.24,1.49-.27-.66-.28-1.48S520.4,347.75,520.55,347.74Z" transform="translate(-4.49 -33.68)"/><path class="cls-9" d="M520.5,341.79c.15,0,.27.66.27,1.49s-.1,1.48-.25,1.49-.26-.67-.27-1.49S520.36,341.79,520.5,341.79Z" transform="translate(-4.49 -33.68)"/><path class="cls-9" d="M520.49,335.83c.14,0,.26.67.26,1.49s-.11,1.49-.26,1.49-.26-.67-.26-1.49S520.35,335.83,520.49,335.83Z" transform="translate(-4.49 -33.68)"/><path class="cls-9" d="M520.51,329.87c.14,0,.26.67.25,1.49s-.12,1.49-.26,1.49-.26-.67-.26-1.49S520.36,329.87,520.51,329.87Z" transform="translate(-4.49 -33.68)"/><path class="cls-9" d="M520.55,323.92c.15,0,.26.67.25,1.49s-.13,1.49-.27,1.49-.26-.67-.25-1.5S520.41,323.92,520.55,323.92Z" transform="translate(-4.49 -33.68)"/><path class="cls-9" d="M520.63,318c.15,0,.25.67.24,1.49s-.14,1.49-.28,1.49-.25-.67-.24-1.49S520.49,318,520.63,318Z" transform="translate(-4.49 -33.68)"/><path class="cls-9" d="M520.74,312c.14,0,.25.67.23,1.49s-.14,1.49-.29,1.49-.25-.68-.23-1.5S520.59,312,520.74,312Z" transform="translate(-4.49 -33.68)"/><path class="cls-9" d="M520.87,306.05c.15,0,.25.67.23,1.49s-.16,1.49-.3,1.49-.24-.67-.22-1.5S520.73,306,520.87,306.05Z" transform="translate(-4.49 -33.68)"/><path class="cls-9" d="M521.08,300.09c.15,0,.24.68.2,1.5s-.17,1.48-.32,1.48-.23-.68-.2-1.5S520.94,300.08,521.08,300.09Z" transform="translate(-4.49 -33.68)"/><path class="cls-9" d="M521.43,294.14c.14,0,.22.68.16,1.5s-.21,1.48-.36,1.47-.21-.68-.16-1.5S521.29,294.13,521.43,294.14Z" transform="translate(-4.49 -33.68)"/><path class="cls-9" d="M522,288.21c.15,0,.2.69.11,1.51s-.26,1.46-.41,1.45-.19-.69-.11-1.51S521.83,288.19,522,288.21Z" transform="translate(-4.49 -33.68)"/><path class="cls-9" d="M522.55,283.78c.14,0,.21.37.15.78s-.22.72-.36.7-.21-.36-.15-.77S522.41,283.76,522.55,283.78Z" transform="translate(-4.49 -33.68)"/><polygon class="cls-9" points="495.56 399.19 523.92 399.66 523.7 394.93 495.56 395.08 495.56 399.19"/><path class="cls-9" d="M518.65,255.63a3.83,3.83,0,0,1,.17,1.09c.08.7.17,1.72.27,3,.2,2.52.45,6,.69,9.87.11,1.93.22,3.76.31,5.45a16.79,16.79,0,0,0,.52,4.34,3.69,3.69,0,0,0,1.81,2.15,5.78,5.78,0,0,0,1,.3.56.56,0,0,1-.28,0,2.11,2.11,0,0,1-.83-.15,3.74,3.74,0,0,1-2.07-2.21,15.73,15.73,0,0,1-.66-4.44c-.11-1.69-.23-3.52-.35-5.44-.24-3.86-.43-7.36-.54-9.89-.05-1.27-.09-2.29-.1-3A5.23,5.23,0,0,1,518.65,255.63Z" transform="translate(-4.49 -33.68)"/><path class="cls-9" d="M521.41,258c0,.07-.23.24-.25.66a.83.83,0,0,0,.2.62.72.72,0,0,0,1.14-.47.81.81,0,0,0-.28-.58c-.31-.28-.62-.23-.64-.3s.33-.3.86,0a1.12,1.12,0,0,1,.54.87,1.16,1.16,0,0,1-2,.8,1.15,1.15,0,0,1-.22-1C521,258,521.41,257.93,521.41,258Z" transform="translate(-4.49 -33.68)"/><path class="cls-9" d="M546.64,262.23a5,5,0,0,1-2.22.85,9.42,9.42,0,0,1-10-4.46,5.06,5.06,0,0,1-.85-2.23c.08,0,.36.84,1.16,2a9.83,9.83,0,0,0,9.62,4.3C545.78,262.52,546.61,262.15,546.64,262.23Z" transform="translate(-4.49 -33.68)"/><path class="cls-9" d="M502,255.63a3.71,3.71,0,0,1-.1,1.93,7.6,7.6,0,0,1-6.69,5.87,3.68,3.68,0,0,1-1.93-.16c0-.09.74,0,1.88-.2a8,8,0,0,0,6.39-5.6C501.93,256.36,502,255.62,502,255.63Z" transform="translate(-4.49 -33.68)"/><path class="cls-11" d="M485.77,178.55l-25,6.49,4-29.63h0l.51-1.41,9.16-1.42-1.09-6.76a5.5,5.5,0,0,0-6.83-4.34l-3,.8a7.83,7.83,0,0,0-5,4c-1.73,3.41-3.43,7.13-3.27,6.81h0l-13.4,36.35a13.74,13.74,0,0,0,1.48,14.65c4.32,5.61,14.75,1.71,19.66.76l32-7.05Z" transform="translate(-4.49 -33.68)"/><path class="cls-11" d="M578,236.53a16.74,16.74,0,0,0-.08-22.06l-26.74-30.33-7.16,20c.49.33,20.82,22.13,20.82,22.13l-17.47,21.78A12.53,12.53,0,0,0,545.28,260l3,12.18,14.46-6.48-1-1.5h-9.6l-.57-2.3h0Z" transform="translate(-4.49 -33.68)"/><path class="cls-12" d="M568.59,222.39a8.39,8.39,0,0,1-2,2.38,13.26,13.26,0,0,1-2.25,2.07,7.08,7.08,0,0,1,1.88-2.44A10.83,10.83,0,0,1,568.59,222.39Z" transform="translate(-4.49 -33.68)"/><path class="cls-3" d="M487,259.71l57.74-3.87-.68-28.45,0-20.59,6.43,9.49,17.16-17.93-19.18-18.42h0a30,30,0,0,0-11.67-7.55,23.68,23.68,0,0,0-7.31-1.4h0a29.29,29.29,0,0,1-17.65,0,86.07,86.07,0,0,0-16.05,3L473.36,180l7.37,27.48L494.26,203S486.85,254,487,259.71Z" transform="translate(-4.49 -33.68)"/><polygon class="cls-15" points="545.96 182.6 549.9 181.43 548.55 179.89 545.96 182.6"/><path class="cls-8" d="M544.59,207.84a14.16,14.16,0,0,1-2.29-3.11,14.56,14.56,0,0,1-1.86-3.39,28.19,28.19,0,0,1,4.15,6.5Z" transform="translate(-4.49 -33.68)"/><polygon class="cls-15" points="476.3 174.1 471.82 168.21 474.57 167.61 476.3 174.1"/><g class="cls-16"><path class="cls-10" d="M552.78,184.47s-.07.09-.22.23l-.7.61a14.58,14.58,0,0,1-3.1,1.8,15.24,15.24,0,0,1-5.54,1.18,14.93,14.93,0,0,1-7.31-1.59,8.43,8.43,0,0,1-3.41-2.78,3.34,3.34,0,0,1-.6-2.33,2.28,2.28,0,0,1,1.74-1.79,3,3,0,0,1,2.54.53,4.73,4.73,0,0,1,1.58,2.13,7.19,7.19,0,0,1-.11,5.39,9,9,0,0,1-3.7,4.31,14,14,0,0,1-5.62,1.92,13.05,13.05,0,0,1-6.12-.51,8.44,8.44,0,0,1-2.76-1.61,10.32,10.32,0,0,1-2-2.54c-1.08-1.85-1.82-3.83-3.1-5.39a7.57,7.57,0,0,0-5.07-2.69,9.89,9.89,0,0,0-5.55,1,13.74,13.74,0,0,0-4.33,3.37,5.49,5.49,0,0,0-1.38,4.76,3.24,3.24,0,0,0,1.29,2,3.07,3.07,0,0,0,2.21.48,2.36,2.36,0,0,0,1.65-1.34,4.68,4.68,0,0,0,.41-2.16,12.87,12.87,0,0,0-.9-4.16A14.43,14.43,0,0,0,490,176.12c-.81-.05-1.24,0-1.24-.05A8.06,8.06,0,0,1,490,176a13.86,13.86,0,0,1,3.54.53,14.29,14.29,0,0,1,5,2.58,14.62,14.62,0,0,1,4.44,6,13.72,13.72,0,0,1,.95,4.3,5.13,5.13,0,0,1-.43,2.35,2.81,2.81,0,0,1-1.95,1.57,3.44,3.44,0,0,1-2.54-.53,3.71,3.71,0,0,1-1.49-2.21,5.32,5.32,0,0,1,.1-2.74,7.38,7.38,0,0,1,1.36-2.43,14.12,14.12,0,0,1,4.48-3.52,10.43,10.43,0,0,1,5.83-1.1,8.11,8.11,0,0,1,5.41,2.87c1.35,1.65,2.09,3.66,3.15,5.46a9.62,9.62,0,0,0,1.87,2.41,7.89,7.89,0,0,0,2.58,1.51,12.83,12.83,0,0,0,5.89.5,13.69,13.69,0,0,0,5.41-1.84,8.47,8.47,0,0,0,3.52-4.07,6.73,6.73,0,0,0,.14-5,4.37,4.37,0,0,0-1.42-1.94,2.56,2.56,0,0,0-2.17-.47,1.85,1.85,0,0,0-1.44,1.45,3,3,0,0,0,.53,2,8,8,0,0,0,3.24,2.66,14.76,14.76,0,0,0,7.14,1.63,15.31,15.31,0,0,0,5.46-1.08A16.11,16.11,0,0,0,552.78,184.47Z" transform="translate(-4.49 -33.68)"/></g><g class="cls-16"><path class="cls-10" d="M543.6,212.8h-.28l-.79-.07c-.71,0-1.74-.16-3.07-.22a21.66,21.66,0,0,0-4.83.28,11.49,11.49,0,0,0-5.67,2.68,7.55,7.55,0,0,0-2,3,4,4,0,0,0,.42,3.69,3,3,0,0,0,1.6,1.13,2.36,2.36,0,0,0,1.94-.3,3.44,3.44,0,0,0,1.31-1.64,4.11,4.11,0,0,0,.19-2.18,9.12,9.12,0,0,0-2.08-4.18,12.66,12.66,0,0,0-3.83-3.11,14.15,14.15,0,0,0-10.14-1.28,17.83,17.83,0,0,0-8.84,5.37,9.82,9.82,0,0,0-2.53,4.18,3.19,3.19,0,0,0,.22,2.22,2.8,2.8,0,0,0,1.66,1.37,3.79,3.79,0,0,0,4-1.05,4.84,4.84,0,0,0,.95-3.92,6.32,6.32,0,0,0-1.76-3.46,10.86,10.86,0,0,0-3-2.15,14.73,14.73,0,0,0-10.87-1.27,9.55,9.55,0,0,0-3.51,2.1,5.46,5.46,0,0,1,.76-.77,8.22,8.22,0,0,1,2.68-1.52,14.78,14.78,0,0,1,11.1,1.13,11.29,11.29,0,0,1,3.1,2.2,6.81,6.81,0,0,1,1.9,3.67,5.32,5.32,0,0,1-1,4.29,4.23,4.23,0,0,1-4.47,1.2,3.3,3.3,0,0,1-1.95-1.59,3.78,3.78,0,0,1-.27-2.56,10.41,10.41,0,0,1,2.64-4.41,18.41,18.41,0,0,1,9.09-5.54,14.67,14.67,0,0,1,10.51,1.34,13.4,13.4,0,0,1,4,3.24,9.75,9.75,0,0,1,2.17,4.43,4.79,4.79,0,0,1-.23,2.43,4,4,0,0,1-1.51,1.85,2.84,2.84,0,0,1-2.3.34,3.48,3.48,0,0,1-1.83-1.3,4.4,4.4,0,0,1-.45-4.08,7.8,7.8,0,0,1,2.15-3.15,11.72,11.72,0,0,1,5.87-2.7,21,21,0,0,1,4.89-.19c1.34.09,2.37.23,3.07.32l.79.12A1.45,1.45,0,0,1,543.6,212.8Z" transform="translate(-4.49 -33.68)"/></g><g class="cls-16"><path class="cls-10" d="M544.66,245.38l-.26.05c-.17,0-.43.07-.77.1a13.35,13.35,0,0,1-3-.11,14.6,14.6,0,0,1-4.47-1.47,13.87,13.87,0,0,1-4.74-4.06,7.41,7.41,0,0,1-.93-1.55,2.37,2.37,0,0,1,0-2,1.62,1.62,0,0,1,.74-.77,1.45,1.45,0,0,1,1.1-.05,2.84,2.84,0,0,1,1.49,1.5,6.66,6.66,0,0,1,.26,4.26,10.24,10.24,0,0,1-2.11,4,14.08,14.08,0,0,1-8.36,4.59,15.78,15.78,0,0,1-10.11-1.63c-.39-.21-.76-.47-1.14-.7s-.7-.54-1.06-.81a7.51,7.51,0,0,1-1.77-2,3.66,3.66,0,0,1-.45-2.63,2.53,2.53,0,0,1,1.78-2,3.47,3.47,0,0,1,2.57.38,4.29,4.29,0,0,1,1.71,1.85,5.54,5.54,0,0,1,.06,4.74,7,7,0,0,1-3.22,3.18,9.39,9.39,0,0,1-4.15,1,19.76,19.76,0,0,1-7.39-1.63,27.51,27.51,0,0,1-9.11-6,18.29,18.29,0,0,1-2.59-3,1.83,1.83,0,0,1,.18.19l.5.59c.45.5,1.11,1.25,2.05,2.13a28.21,28.21,0,0,0,9.1,5.78,20,20,0,0,0,7.25,1.54,8.82,8.82,0,0,0,3.95-.94,6.52,6.52,0,0,0,3-3,5,5,0,0,0-.06-4.31,3.83,3.83,0,0,0-1.52-1.64,2.93,2.93,0,0,0-2.18-.33,2,2,0,0,0-1.42,1.58,3.15,3.15,0,0,0,.4,2.27,7.08,7.08,0,0,0,1.66,1.85c.34.25.66.53,1,.77s.72.47,1.09.67a15.22,15.22,0,0,0,9.78,1.58,13.65,13.65,0,0,0,8.08-4.39,9.89,9.89,0,0,0,2-3.8,6.24,6.24,0,0,0-.21-4A2.43,2.43,0,0,0,532.2,236a1.06,1.06,0,0,0-1.34.6,1.94,1.94,0,0,0,0,1.63,6.62,6.62,0,0,0,.87,1.47,13.56,13.56,0,0,0,4.58,4,14.7,14.7,0,0,0,4.37,1.53,15.88,15.88,0,0,0,2.93.21l.77-.05Z" transform="translate(-4.49 -33.68)"/></g><polygon class="cls-13" points="476.3 174.1 471.82 168.21 474.57 167.61 476.3 174.1"/><polygon class="cls-17" points="545.96 182.6 549.9 181.43 548.55 179.89 545.96 182.6"/></svg>