<svg id="Capa_1" data-name="Capa 1" xmlns="http://www.w3.org/2000/svg" viewBox="0 0 418.34 160.16"><defs><style>.cls-1{fill:#e8505b;}.cls-2{fill:none;stroke:#000;stroke-miterlimit:10;stroke-width:0.25px;}.cls-3{font-size:8px;fill:#211915;font-family:IBMPlexMono, IBM Plex Mono;}</style></defs><g id="Cound_computing" data-name="Cound computing"><path d="M188.5,150.83V131.1a2.12,2.12,0,0,0-2.12-2.12h-3.25a5.68,5.68,0,0,0-6.26-3.46,7.09,7.09,0,0,0-13.58,0A5.68,5.68,0,0,0,157,129h-3.25a2.13,2.13,0,0,0-2.13,2.12v19.73l-2.83,8.5v1.54a2.12,2.12,0,0,0,2.12,2.12h38.27a2.12,2.12,0,0,0,2.13-2.12v-1.54Zm-12.91,7.91-.57-2.3a.71.71,0,0,0-.69-.53h-8.5a.71.71,0,0,0-.69.53l-.58,2.3H150.51l2.36-7.09h34.41l2.37,7.09Zm-1.46,0H166l.35-1.42h7.4Zm-11.85-22h1.42V140L161.78,142a2.1,2.1,0,0,0-.91-.22,2.13,2.13,0,1,0,2.12,2.13,2,2,0,0,0-.21-.91l2.34-2.34v-3.84h4.25v5.09a2.12,2.12,0,1,0,1.42,0v-5.09H175v3.84l2.34,2.34a2,2,0,0,0-.21.91,2.13,2.13,0,1,0,2.12-2.13,2.07,2.07,0,0,0-.91.22L176.46,140v-3.25h1.41a5.68,5.68,0,0,0,5.26-3.54h1.12V147.4H155.91V133.23H157a5.68,5.68,0,0,0,5.25,3.54Zm-.71,7.09a.71.71,0,1,1-.7-.71A.7.7,0,0,1,161.57,143.86Zm9.22,0a.71.71,0,1,1-.71-.71A.71.71,0,0,1,170.79,143.86Zm8.5-.71a.71.71,0,1,1-.71.71A.71.71,0,0,1,179.29,143.15Zm-17-16.3a4.13,4.13,0,0,1,1.31.21.7.7,0,0,0,.89-.46.29.29,0,0,0,0-.09,5.67,5.67,0,0,1,11.15,0,.71.71,0,0,0,.83.57l.09,0a4.11,4.11,0,0,1,1.3-.21,4.25,4.25,0,1,1,0,8.5H162.28a4.25,4.25,0,0,1,0-8.5Zm-9.21,4.25a.71.71,0,0,1,.71-.71h2.88a5.62,5.62,0,0,0,0,1.42H155.2a.71.71,0,0,0-.71.71v15.59a.71.71,0,0,0,.71.71H185a.71.71,0,0,0,.71-.71V132.52a.71.71,0,0,0-.71-.71h-1.47a4.83,4.83,0,0,0,0-1.42h2.89a.71.71,0,0,1,.71.71v19.14h-34Zm36.14,30.48H150.94a.7.7,0,0,1-.7-.71v-.71h39.68v.71A.71.71,0,0,1,189.21,161.58Z" transform="translate(-74.3 -59.53)"/><path d="M173.62,153.07H175v1.42h-1.42Z" transform="translate(-74.3 -59.53)"/><path d="M153.78,153.07h1.42v1.42h-1.42Z" transform="translate(-74.3 -59.53)"/><path d="M156.61,153.07H158v1.42h-1.42Z" transform="translate(-74.3 -59.53)"/><path d="M159.45,153.07h1.42v1.42h-1.42Z" transform="translate(-74.3 -59.53)"/><path d="M162.28,153.07h1.42v1.42h-1.42Z" transform="translate(-74.3 -59.53)"/><path d="M176.46,153.07h1.41v1.42h-1.41Z" transform="translate(-74.3 -59.53)"/><path d="M179.29,153.07h1.42v1.42h-1.42Z" transform="translate(-74.3 -59.53)"/><path d="M182.13,153.07h1.41v1.42h-1.41Z" transform="translate(-74.3 -59.53)"/><path d="M165.12,153.07h1.42v1.42h-1.42Z" transform="translate(-74.3 -59.53)"/><path d="M168,153.07h1.42v1.42H168Z" transform="translate(-74.3 -59.53)"/><path d="M170.79,153.07h1.41v1.42h-1.41Z" transform="translate(-74.3 -59.53)"/><path d="M185,153.07h1.42v1.42H185Z" transform="translate(-74.3 -59.53)"/><path d="M176.46,155.91h4.25v1.41h-4.25Z" transform="translate(-74.3 -59.53)"/><path d="M182.13,155.91h1.41v1.41h-1.41Z" transform="translate(-74.3 -59.53)"/><path d="M185,155.91h1.42v1.41H185Z" transform="translate(-74.3 -59.53)"/><path d="M153.78,155.91h1.42v1.41h-1.42Z" transform="translate(-74.3 -59.53)"/><path d="M156.61,155.91H158v1.41h-1.42Z" transform="translate(-74.3 -59.53)"/><path d="M159.45,155.91h4.25v1.41h-4.25Z" transform="translate(-74.3 -59.53)"/></g><g id="Blockchain"><path class="cls-1" d="M417.76,136.74a.71.71,0,0,0,.35-.62v-5.67a.69.69,0,0,0-.35-.61l-5-2.84a.75.75,0,0,0-.71,0l-5,2.84a.7.7,0,0,0-.36.61v1.69L402.52,130v-5.23a.71.71,0,0,0-.35-.61l-5-2.84a.73.73,0,0,0-.7,0l-5,2.84a.7.7,0,0,0-.36.61V130l-4.25,2.13v-1.69a.7.7,0,0,0-.36-.61l-5-2.84a.73.73,0,0,0-.7,0l-5,2.84a.7.7,0,0,0-.36.61v5.67a.73.73,0,0,0,.35.62l4.61,2.63v6.26l-4.61,2.63a.73.73,0,0,0-.35.62v5.67a.71.71,0,0,0,.35.61l5,2.84a.73.73,0,0,0,.7,0l4.59-2.63,5,3.11v1.74a.71.71,0,0,0,.36.61l5,2.84a.73.73,0,0,0,.7,0l5-2.84a.7.7,0,0,0,.36-.61v-1.74l5-3.11,4.59,2.62a.68.68,0,0,0,.7,0l5-2.83a.71.71,0,0,0,.36-.61v-5.67a.71.71,0,0,0-.35-.62l-4.61-2.63v-6.26Zm-4.61,1v-4l3.54-2v4Zm-.71,13.16-3.53-2,3.53-2,3.53,2Zm-4.25-19.23,3.54,2v4l-3.54-2Zm4.25-3.24,3.53,2-3.53,2-3.53-2Zm-15.59,28.14-3.53-2,3.53-2,3.53,2Zm-4.25-15.68,3.54,2v4l-3.54-2Zm5,2,3.54-2v4l-3.54,2Zm-.71-1.23-3.53-2,3.53-2,3.53,2ZM392.6,126l3.54,2v4l-3.54-2Zm5,2,3.54-2v4l-3.54,2Zm-.71-5.26,3.53,2-3.53,2-3.53-2ZM382,133.7l3.54-2v4l-3.54,2Zm-.71-5.27,3.53,2-3.53,2-3.53-2ZM377,131.67l3.54,2v4l-3.54-2Zm4.25,19.23-3.53-2,3.53-2,3.53,2Zm-4.25-.8,3.54,2v4l-3.54-2Zm5,6.06v-4l3.54-2v4Zm5-2v-5.27a.72.72,0,0,0-.36-.62l-4.6-2.63v-6.26l4.6-2.63a.72.72,0,0,0,.36-.62v-2.39l4.94-2.47,4.27,2.44v2.72l-4.6,2.63a.72.72,0,0,0-.36.62v5.66a.72.72,0,0,0,.36.62l4.6,2.63v2.72l-4.6,2.63a.72.72,0,0,0-.36.62v2.26Zm5.67,1.62,3.54,2v4l-3.54-2Zm5,6.06v-4l3.54-2v4Zm4.61-7.9-4.61-2.63v-2.72l4.61-2.63a.71.71,0,0,0,.35-.62v-5.66a.71.71,0,0,0-.35-.62l-4.61-2.63V133.7l4.27-2.44,4.94,2.47v2.39a.72.72,0,0,0,.36.62l4.6,2.63v6.26l-4.6,2.63a.72.72,0,0,0-.36.62v5.27l-4.25,2.66v-2.26A.71.71,0,0,0,402.17,153.93Zm6-3.83,3.54,2v4l-3.54-2Zm5,6.06v-4l3.54-2v4Z" transform="translate(-74.3 -59.53)"/></g><g id="Secure"><path class="cls-1" d="M283.47,110.55a.92.92,0,0,1-.43-.11l-8.59-5a24.71,24.71,0,0,1-12.24-21.3V67.18a.86.86,0,0,1,.58-.81l20.41-6.8a.83.83,0,0,1,.54,0l20.41,6.8a.87.87,0,0,1,.58.81V84.12a24.73,24.73,0,0,1-12.24,21.3l-8.6,5A.88.88,0,0,1,283.47,110.55ZM263.91,67.79V84.12A23,23,0,0,0,275.3,104l8.17,4.77,8.17-4.77A23,23,0,0,0,303,84.12V67.79l-19.56-6.52Z" transform="translate(-74.3 -59.53)"/><path class="cls-1" d="M283.47,106.61a.92.92,0,0,1-.43-.11l-6.88-4a21.34,21.34,0,0,1-10.55-18.36V69.63a.85.85,0,0,1,.58-.81l17-5.66a.83.83,0,0,1,.54,0l17,5.66a.86.86,0,0,1,.58.81V84.12a21.34,21.34,0,0,1-10.55,18.36l-6.88,4A.92.92,0,0,1,283.47,106.61ZM267.31,70.24V84.12A19.63,19.63,0,0,0,277,101l6.45,3.77,6.45-3.77a19.63,19.63,0,0,0,9.71-16.89V70.24l-16.16-5.38Z" transform="translate(-74.3 -59.53)"/><path class="cls-1" d="M283.47,85.89a.85.85,0,0,1,.85.85.85.85,0,1,0,1.7,0,2.53,2.53,0,0,0-1.7-2.39v-1a.85.85,0,0,0-1.7,0v1a2.54,2.54,0,0,0,.85,4.94.85.85,0,1,1-.85.85.85.85,0,1,0-1.7,0,2.54,2.54,0,0,0,1.7,2.4v1a.85.85,0,0,0,1.7,0v-1a2.55,2.55,0,0,0-.85-5,.85.85,0,0,1,0-1.7Z" transform="translate(-74.3 -59.53)"/><path class="cls-1" d="M290.27,79.94h-.85V75.69a6,6,0,1,0-11.9,0v4.25h-.85a2.56,2.56,0,0,0-2.56,2.55v11.9a2.56,2.56,0,0,0,2.56,2.55h13.6a2.55,2.55,0,0,0,2.55-2.55V82.49A2.55,2.55,0,0,0,290.27,79.94Zm-11-4.25a4.25,4.25,0,1,1,8.5,0v4.25h-.85V75.69a3.4,3.4,0,1,0-6.8,0v4.25h-.85Zm5.95,4.25h-3.4V75.69a1.7,1.7,0,1,1,3.4,0Zm5.95,14.45a.85.85,0,0,1-.85.85h-13.6a.85.85,0,0,1-.85-.85V82.49a.85.85,0,0,1,.85-.85h13.6a.85.85,0,0,1,.85.85Z" transform="translate(-74.3 -59.53)"/></g><g id="Database_network" data-name="Database network"><path class="cls-1" d="M301.82,199.76A18.4,18.4,0,0,0,292,184.93V180c0-2.24-5.35-2.83-8.51-2.83s-8.5.59-8.5,2.83v4.93a18.42,18.42,0,0,0-9.85,14.83c-1.65.43-2.91,1.13-2.91,2.21V212.6c0,2.24,5.35,2.83,8.51,2.83.31,0,.64,0,1,0a18.35,18.35,0,0,0,23.55,0c.34,0,.67,0,1,0,3.16,0,8.5-.59,8.5-2.83V202C304.72,201,303.74,200.27,301.82,199.76Zm1.49,9.27c-.2.5-2.81,1.44-7.09,1.44s-6.89-.94-7.09-1.41V207.2a19,19,0,0,0,7.09,1.15,26.6,26.6,0,0,0,4-.3,11.15,11.15,0,0,0,3.1-.85Zm0-3.55c-.06.15-.79.78-3.32,1.17a25,25,0,0,1-3.77.28c-4.29,0-6.89-.94-7.09-1.42v-1.86c1.81.88,4.95,1.15,7.09,1.15a23.37,23.37,0,0,0,4.94-.47,9.57,9.57,0,0,0,2.15-.67Zm0-3.51c-.12.17-.72.62-2.43,1a23.41,23.41,0,0,1-4.65.44c-4.27,0-6.87-.94-7.09-1.39h0c.22-.5,2.82-1.44,7.09-1.44A22.53,22.53,0,0,1,301,201,4.34,4.34,0,0,1,303.3,202ZM290.56,190.6c-.2.5-2.81,1.45-7.1,1.45s-6.89-1-7.08-1.42v-1.86a18.94,18.94,0,0,0,7.08,1.15c2.15,0,5.29-.28,7.09-1.15Zm-14.18-5.37a18.94,18.94,0,0,0,7.08,1.15c2.15,0,5.29-.28,7.09-1.15v.08h0v1.74c-.19.5-2.8,1.44-7.09,1.44s-6.89-.94-7.08-1.41Zm14.18-1.72c-.2.51-2.81,1.45-7.1,1.45s-6.89-.94-7.08-1.42v-1.85c1.8.87,4.94,1.14,7.08,1.14s5.29-.27,7.09-1.15Zm-7.1-4.93c4.2,0,6.79.91,7.08,1.42-.28.51-2.88,1.42-7.08,1.42s-6.86-.94-7.08-1.38v0C276.6,179.52,279.2,178.58,283.46,178.58Zm-12.75,22c4.2,0,6.79.91,7.08,1.42-.29.51-2.88,1.42-7.08,1.42s-6.87-.94-7.09-1.39h0C263.84,201.49,266.44,200.55,270.71,200.55Zm-7.09,6.65a11.51,11.51,0,0,0,3.1.85,26.6,26.6,0,0,0,4,.3,19,19,0,0,0,7.09-1.15V209c-.2.5-2.8,1.44-7.09,1.44-.7,0-1.33,0-1.92-.07-3.64-.25-5.06-1.09-5.17-1.34Zm14.18-3.55v1.83c-.2.51-2.8,1.45-7.09,1.45a25.21,25.21,0,0,1-3.78-.28c-2.52-.39-3.25-1-3.31-1.14v-1.86c1.81.88,4.95,1.15,7.09,1.15S276,204.53,277.8,203.65Zm-14.18,8.95v-1.85a15.73,15.73,0,0,0,5.06,1.07c.63.05,1.29.07,2,.07a19,19,0,0,0,7.09-1.15v1.83c-.2.5-2.81,1.45-7.09,1.45S263.82,213.07,263.62,212.6Zm19.84,5.67a17.12,17.12,0,0,1-9.64-3c2.7-.31,5.39-1.07,5.39-2.66V202c0-2.24-5.34-2.84-8.5-2.84a27.42,27.42,0,0,0-4.15.32,17,17,0,0,1,8.4-12.92v4.1c0,2.24,5.35,2.83,8.5,2.83s8.51-.59,8.51-2.83v-4.1a17,17,0,0,1,8.4,12.93,26.19,26.19,0,0,0-4.15-.33c-3.16,0-8.5.6-8.5,2.84V212.6c0,1.59,2.69,2.35,5.39,2.66A17.13,17.13,0,0,1,283.46,218.27ZM296.22,214c-.4,0-.78,0-1.16,0h0c-3.59-.15-5.75-1-5.93-1.39v-1.86a22.43,22.43,0,0,0,14.18,0v1.83C303.11,213.07,300.5,214,296.22,214Z" transform="translate(-74.3 -59.53)"/></g><path class="cls-2" d="M170.08,120.47V87.88A2.84,2.84,0,0,1,172.92,85h89.65" transform="translate(-74.3 -59.53)"/><path class="cls-2" d="M170.08,163v32.62a2.81,2.81,0,0,0,2.81,2.82h92.67" transform="translate(-74.3 -59.53)"/><line class="cls-2" x1="114.21" y1="82.2" x2="306.82" y2="82.2"/><text class="cls-3" transform="translate(237.51 28.17)">Seguridad</text><text class="cls-3" transform="translate(350.9 84.86)">Back-end</text><text class="cls-3" transform="translate(237.51 141.56)">Base de datos</text><text class="cls-3" transform="translate(24.24 84.86)">Front-end</text></svg>