<svg id="Capa_1" data-name="Capa 1" xmlns="http://www.w3.org/2000/svg" viewBox="0 0 333.07 56.69"><defs><style>.cls-1{fill:#e8505b;}.cls-2{stroke:#000;stroke-miterlimit:10;stroke-width:0.25px;}.cls-3{fill:#fafafa;}</style></defs><rect class="cls-1" x="106.3" width="226.77" height="56.69" rx="6.15"/><g id="Laptop-2"><path d="M40.91,143.17H72.47V123.08H40.91Zm1.44-18.65H71v17.21H42.35Z" transform="translate(-35.43 -113.39)"/><path d="M77.92,160.74l-2.58-15.48V122.37a2.16,2.16,0,0,0-2.15-2.16h-33A2.16,2.16,0,0,0,38,122.37v22.89l-2.58,15.48a2.16,2.16,0,0,0,1.77,2.48,2.19,2.19,0,0,0,.36,0H75.8A2.15,2.15,0,0,0,78,161.1,2.19,2.19,0,0,0,77.92,160.74ZM39.48,122.37a.72.72,0,0,1,.72-.72h33a.72.72,0,0,1,.72.72V144.6H39.48Zm10.27,39.45.88-3.07a.72.72,0,0,1,.69-.52H62.07a.72.72,0,0,1,.69.52l.87,3.07Zm26.6-.26a.74.74,0,0,1-.55.26H65.12l-1-3.46a2.17,2.17,0,0,0-2.07-1.57H51.32a2.17,2.17,0,0,0-2.07,1.57l-1,3.46H37.59a.73.73,0,0,1-.72-.72.49.49,0,0,1,0-.12L39.37,146H74L76.51,161A.75.75,0,0,1,76.35,161.56Z" transform="translate(-35.43 -113.39)"/><rect x="10.5" y="34.08" width="1.43" height="1.43"/><rect x="7.63" y="34.08" width="1.43" height="1.43"/><rect x="13.37" y="34.08" width="1.43" height="1.43"/><rect x="16.24" y="34.08" width="1.43" height="1.43"/><rect x="19.11" y="34.08" width="1.43" height="1.43"/><rect x="21.98" y="34.08" width="1.43" height="1.43"/><rect x="24.85" y="34.08" width="1.43" height="1.43"/><rect x="27.72" y="34.08" width="1.43" height="1.43"/><rect x="30.58" y="34.08" width="1.43" height="1.43"/><rect x="33.45" y="34.08" width="1.43" height="1.43"/><rect x="10.5" y="38.39" width="1.43" height="1.43"/><rect x="7.63" y="38.39" width="1.43" height="1.43"/><rect x="13.37" y="38.39" width="1.43" height="1.43"/><rect x="16.24" y="38.39" width="1.43" height="1.43"/><rect x="19.11" y="38.39" width="1.43" height="1.43"/><rect x="21.98" y="38.39" width="1.43" height="1.43"/><rect x="24.85" y="38.39" width="1.43" height="1.43"/><rect x="27.72" y="38.39" width="1.43" height="1.43"/><rect x="30.58" y="38.39" width="1.43" height="1.43"/><rect x="33.45" y="38.39" width="1.43" height="1.43"/><rect x="10.5" y="36.24" width="1.43" height="1.43"/><rect x="7.63" y="36.24" width="1.43" height="1.43"/><rect x="13.37" y="36.24" width="1.43" height="1.43"/><rect x="16.24" y="36.24" width="1.43" height="1.43"/><rect x="19.11" y="36.24" width="1.43" height="1.43"/><rect x="21.98" y="36.24" width="1.43" height="1.43"/><rect x="24.85" y="36.24" width="1.43" height="1.43"/><rect x="27.72" y="36.24" width="1.43" height="1.43"/><rect x="10.5" y="40.54" width="1.43" height="1.43"/><rect x="7.63" y="40.54" width="1.43" height="1.43"/><rect x="13.37" y="40.54" width="1.43" height="1.43"/><rect x="16.24" y="40.54" width="10.04" height="1.43"/><rect x="27.72" y="40.54" width="1.43" height="1.43"/><rect x="30.58" y="40.54" width="1.43" height="1.43"/><rect x="33.45" y="40.54" width="1.43" height="1.43"/><rect x="30.58" y="36.24" width="4.3" height="1.43"/><rect x="20.54" y="26.19" width="1.43" height="1.43"/><rect x="23.41" y="26.19" width="1.43" height="1.43"/><rect x="17.67" y="26.19" width="1.43" height="1.43"/></g><line class="cls-2" x1="39.55" y1="28.3" x2="113.99" y2="28.35"/><line class="cls-2" x1="154.32" y1="28.32" x2="170.34" y2="28.37"/><line class="cls-2" x1="212.11" y1="28.35" x2="227.1" y2="28.35"/><line class="cls-2" x1="269.15" y1="28.35" x2="286.66" y2="28.35"/><g id="Secure"><path class="cls-3" d="M226.77,167.24a.88.88,0,0,1-.42-.11l-8.6-5a24.73,24.73,0,0,1-12.24-21.3V123.87a.85.85,0,0,1,.58-.8l20.41-6.81a1,1,0,0,1,.54,0l20.41,6.81a.84.84,0,0,1,.58.8v16.94a24.72,24.72,0,0,1-12.23,21.3l-8.6,5A.92.92,0,0,1,226.77,167.24Zm-19.56-42.75v16.32a23,23,0,0,0,11.39,19.83l8.17,4.77,8.17-4.77a23,23,0,0,0,11.39-19.83V124.49L226.77,118Z" transform="translate(-35.43 -113.39)"/><path class="cls-3" d="M226.77,163.31a.79.79,0,0,1-.42-.12l-6.88-4a21.36,21.36,0,0,1-10.56-18.37V126.32a.85.85,0,0,1,.59-.8l17-5.67a.83.83,0,0,1,.54,0l17,5.67a.84.84,0,0,1,.58.8v14.49a21.35,21.35,0,0,1-10.55,18.37l-6.88,4A.82.82,0,0,1,226.77,163.31Zm-16.16-36.37v13.87a19.65,19.65,0,0,0,9.71,16.9l6.45,3.76,6.45-3.76a19.65,19.65,0,0,0,9.71-16.9V126.94l-16.16-5.38Z" transform="translate(-35.43 -113.39)"/><path class="cls-3" d="M226.77,142.58a.85.85,0,0,1,.85.85.85.85,0,1,0,1.7,0,2.54,2.54,0,0,0-1.7-2.39v-1a.85.85,0,1,0-1.7,0v1a2.54,2.54,0,0,0,.85,4.94.86.86,0,1,1-.85.85.85.85,0,0,0-1.7,0,2.56,2.56,0,0,0,1.7,2.4v1a.85.85,0,0,0,1.7,0v-1a2.55,2.55,0,0,0-.85-4.95.85.85,0,1,1,0-1.7Z" transform="translate(-35.43 -113.39)"/><path class="cls-3" d="M233.57,136.63h-.85v-4.25a5.95,5.95,0,1,0-11.9,0v4.25H220a2.55,2.55,0,0,0-2.55,2.55v11.91a2.55,2.55,0,0,0,2.55,2.55h13.6a2.56,2.56,0,0,0,2.56-2.55V139.18A2.56,2.56,0,0,0,233.57,136.63Zm-11-4.25a4.25,4.25,0,0,1,8.5,0v4.25h-.85v-4.25a3.4,3.4,0,1,0-6.8,0v4.25h-.85Zm5.95,4.25h-3.4v-4.25a1.7,1.7,0,1,1,3.4,0Zm6,14.46a.86.86,0,0,1-.86.85H220a.85.85,0,0,1-.85-.85V139.18a.85.85,0,0,1,.85-.85h13.6a.86.86,0,0,1,.86.85Z" transform="translate(-35.43 -113.39)"/></g><g id="Database_network" data-name="Database network"><path class="cls-3" d="M358.52,143.07a18.44,18.44,0,0,0-9.86-14.84v-4.92c0-2.24-5.34-2.84-8.5-2.84s-8.51.6-8.51,2.84v4.92a18.45,18.45,0,0,0-9.85,14.83c-1.65.44-2.9,1.13-2.9,2.22v10.63c0,2.23,5.34,2.83,8.5,2.83l1,0a18.35,18.35,0,0,0,23.55,0l1,0c3.16,0,8.51-.6,8.51-2.83V145.28C361.42,144.32,360.43,143.57,358.52,143.07Zm1.48,9.26c-.19.51-2.8,1.45-7.09,1.45s-6.89-.94-7.08-1.42V150.5c1.8.88,4.94,1.15,7.08,1.15a25.55,25.55,0,0,0,4-.29,11.54,11.54,0,0,0,3.09-.85Zm0-3.54c-.05.15-.79.78-3.31,1.17a25.11,25.11,0,0,1-3.78.28c-4.28,0-6.89-1-7.08-1.42V147a18.94,18.94,0,0,0,7.08,1.15,24.21,24.21,0,0,0,4.95-.47A9.66,9.66,0,0,0,360,147Zm0-3.51a4.5,4.5,0,0,1-2.43,1,22.69,22.69,0,0,1-4.65.44c-4.27,0-6.87-.93-7.08-1.38h0c.21-.51,2.81-1.44,7.08-1.44a23.36,23.36,0,0,1,4.79.46C359.31,144.68,359.88,145.11,360,145.28Zm-12.74-11.37c-.2.5-2.81,1.44-7.09,1.44s-6.9-.94-7.09-1.41v-1.86a22.4,22.4,0,0,0,14.17,0Zm-14.18-5.37a19,19,0,0,0,7.09,1.15c2.14,0,5.28-.28,7.08-1.16v1.83c-.19.51-2.8,1.45-7.08,1.45s-6.9-.94-7.09-1.42Zm14.18-1.72c-.2.51-2.81,1.45-7.09,1.45s-6.9-.94-7.09-1.42V125c1.81.88,4.95,1.15,7.09,1.15s5.28-.27,7.08-1.15Zm-7.09-4.93c4.2,0,6.79.91,7.07,1.42-.28.51-2.87,1.41-7.07,1.41s-6.87-.93-7.09-1.38h0C333.29,122.82,335.89,121.89,340.16,121.89Zm-12.76,22c4.2,0,6.79.9,7.08,1.42-.29.51-2.88,1.41-7.08,1.41s-6.87-.93-7.09-1.38h0C320.53,144.79,323.14,143.86,327.4,143.86Zm-7.09,6.65a11.51,11.51,0,0,0,3.1.85,25.42,25.42,0,0,0,4,.29c2.14,0,5.29-.27,7.09-1.15v1.83c-.19.51-2.8,1.45-7.09,1.45-.7,0-1.33,0-1.92-.07-3.64-.25-5.06-1.1-5.17-1.35ZM334.49,147v1.83c-.19.5-2.8,1.45-7.09,1.45a25.08,25.08,0,0,1-3.77-.28c-2.53-.39-3.26-1-3.32-1.14V147a19,19,0,0,0,7.09,1.15C329.54,148.11,332.69,147.83,334.49,147Zm-14.18,8.95v-1.85a16,16,0,0,0,5.07,1.07c.62,0,1.28.07,2,.07,2.14,0,5.29-.28,7.09-1.15v1.83c-.2.5-2.81,1.44-7.09,1.44S320.51,156.38,320.31,155.91Zm19.85,5.66a17,17,0,0,1-9.65-3c2.7-.31,5.4-1.06,5.4-2.65V145.28c0-2.24-5.35-2.84-8.51-2.84a27.42,27.42,0,0,0-4.15.32,17,17,0,0,1,8.4-12.92v4.1c0,2.23,5.35,2.83,8.51,2.83s8.5-.6,8.5-2.83v-4.1a17,17,0,0,1,8.41,12.92,26.4,26.4,0,0,0-4.16-.32c-3.16,0-8.5.6-8.5,2.84v10.63c0,1.59,2.7,2.34,5.39,2.65A17,17,0,0,1,340.16,161.57Zm12.75-4.25-1.15,0h0c-3.59-.15-5.76-1-5.93-1.39v-1.86a18.94,18.94,0,0,0,7.08,1.15c2.14,0,5.29-.28,7.09-1.15v1.83C359.81,156.38,357.2,157.32,352.91,157.32Z" transform="translate(-35.43 -113.39)"/></g><path class="cls-3" d="M191.34,146a8.49,8.49,0,0,0-6.39-8.23,12,12,0,0,0-.53-3.1h2.67a2.12,2.12,0,0,0,2.12-2.13v-6.47a2.83,2.83,0,1,0-1.41,0v6.47a.71.71,0,0,1-.71.71h-3.2a12.07,12.07,0,0,0-10.26-7v-1.45a2.14,2.14,0,0,0-2.13-2.13h-2.93a2.84,2.84,0,1,0,0,1.42h2.93a.71.71,0,0,1,.71.71v1.45A12.08,12.08,0,0,0,161.3,135a10,10,0,0,0-2.55-.33c-.24,0-.47,0-.71,0v-3.57a2.13,2.13,0,0,0-2.13-2.13h-2.83a.71.71,0,0,1-.71-.71v-2.22a2.83,2.83,0,1,0-1.41,0v2.22a2.12,2.12,0,0,0,2.12,2.13h2.83a.7.7,0,0,1,.71.71v3.77a9.92,9.92,0,0,0,2.13,19.6h.71v4.26a.7.7,0,0,1-.71.7H154.4a2.84,2.84,0,1,0,0,1.42h4.35a2.12,2.12,0,0,0,2.12-2.12v-4.26h8.51v2.94a2.84,2.84,0,1,0,1.41,0v-2.94h10.63v4.26a2.12,2.12,0,0,0,2.12,2.12h2.23a2.8,2.8,0,1,0,0-1.42h-2.22a.7.7,0,0,1-.7-.7v-4.26A8.51,8.51,0,0,0,191.34,146Zm-4.25-22.67a1.42,1.42,0,1,1,1.41,1.42A1.41,1.41,0,0,1,187.09,123.31Zm-21.26,1.42a1.42,1.42,0,1,1,1.42-1.42A1.42,1.42,0,0,1,165.83,124.73Zm-15.58-1.42a1.42,1.42,0,1,1,1.41,1.42A1.41,1.41,0,0,1,150.25,123.31Zm1.41,38.26a1.42,1.42,0,1,1,1.42-1.42A1.42,1.42,0,0,1,151.66,161.57Zm19.84-1.42a1.42,1.42,0,1,1-1.42-1.41A1.42,1.42,0,0,1,171.5,160.15Zm16.81-1.4h.19a1.39,1.39,0,1,1-.19,0Zm-17.52-5.68v-2.84a.71.71,0,0,0-1.41,0v2.84h-8.51v-4.25a.71.71,0,1,0-1.41,0v4.25h-.71a8.5,8.5,0,0,1-2.13-16.72v3.26a.71.71,0,0,0,1.42,0V136.1c.23,0,.47,0,.71,0a8.55,8.55,0,0,1,2.83.49.71.71,0,0,0,.91-.43.3.3,0,0,0,0-.1,10.68,10.68,0,0,1,9.7-8.43v4.22a.71.71,0,1,0,1.42,0V127.6a10.64,10.64,0,0,1,8.68,5.63H180a.71.71,0,0,0,0,1.42h2.92a10.39,10.39,0,0,1,.62,3.54v.13a.71.71,0,0,0,.59.69,7.09,7.09,0,0,1-1.29,14.06v-6.38a.71.71,0,0,0-1.42,0v6.38Z" transform="translate(-35.43 -113.39)"/><g id="Network"><path class="cls-3" d="M304.72,141.73a2.82,2.82,0,0,0-2.33-2.78,19.17,19.17,0,0,0-16.14-16.15,2.83,2.83,0,0,0-5.57,0A19.16,19.16,0,0,0,264.54,139a2.83,2.83,0,0,0,0,5.57,19.14,19.14,0,0,0,16.14,16.14,2.83,2.83,0,0,0,5.57,0,19.14,19.14,0,0,0,16.14-16.14A2.83,2.83,0,0,0,304.72,141.73ZM301,139.06a2.81,2.81,0,0,0-1.81,2h-3A2.86,2.86,0,0,0,294,139a31.72,31.72,0,0,0-.71-4.64,2.84,2.84,0,0,0,1.53-2.43,19.71,19.71,0,0,0,2.49-1.21A17.48,17.48,0,0,1,301,139.06Zm-15,19.72a2.87,2.87,0,0,0-1.76-1.36V153a2.84,2.84,0,0,0,2-1.9,29.13,29.13,0,0,1,3,.39,2.8,2.8,0,0,0,1.21,1.84A11.49,11.49,0,0,1,285.93,158.78Zm-4.93,0a11.43,11.43,0,0,1-4.47-5.48,2.8,2.8,0,0,0,1.21-1.85c1-.17,2-.31,3-.39a2.82,2.82,0,0,0,2,1.91v4.45A2.87,2.87,0,0,0,281,158.78Zm0-34.09a2.82,2.82,0,0,0,1.76,1.35v4.45a2.83,2.83,0,0,0-2,1.92c-1-.09-2-.21-3-.39a1.52,1.52,0,0,0,0-.21,2.83,2.83,0,0,0-1-2.16,11,11,0,0,1,4.23-5Zm4.93,0a11,11,0,0,1,4.23,5,2.82,2.82,0,0,0-1,2.16,1.52,1.52,0,0,0,0,.21q-1.44.25-3,.39a2.83,2.83,0,0,0-2-1.92V126a2.82,2.82,0,0,0,1.76-1.35ZM290.65,141H286.2a2.82,2.82,0,0,0-2-2v-3a2.8,2.8,0,0,0,2.06-2.14c1.14-.09,2.26-.24,3.38-.44a2.86,2.86,0,0,0,2.28,1.26,30.81,30.81,0,0,1,.67,4.39A2.84,2.84,0,0,0,290.65,141Zm-7.19,10.63a1.42,1.42,0,1,1,1.42-1.41A1.41,1.41,0,0,1,283.46,151.65Zm0-8.5a1.42,1.42,0,1,1,1.42-1.42A1.41,1.41,0,0,1,283.46,143.15Zm0-11.34a1.42,1.42,0,1,1-1.41,1.42A1.42,1.42,0,0,1,283.46,131.81Zm8.51,1.42a1.42,1.42,0,1,1,1.42-1.42A1.43,1.43,0,0,1,292,133.23Zm-15.59-1.42a1.42,1.42,0,1,1-1.42-1.42A1.43,1.43,0,0,1,276.38,131.81ZM275,134.64a2.86,2.86,0,0,0,2.28-1.26c1.12.2,2.24.35,3.38.44a2.8,2.8,0,0,0,2.06,2.14v3a2.82,2.82,0,0,0-2,2h-4.45a2.85,2.85,0,0,0-1.92-2A31.05,31.05,0,0,1,275,134.64Zm-1.5,5.67a1.42,1.42,0,1,1-1.41,1.42A1.42,1.42,0,0,1,273.54,140.31Zm.83,4.12a2.84,2.84,0,0,0,1.91-2h4.45a2.84,2.84,0,0,0,2,2v3a2.83,2.83,0,0,0-2.06,2.14c-1.07.09-2.09.21-3.07.39a2.83,2.83,0,0,0-2.67-1.92h-.08A30.59,30.59,0,0,1,274.37,144.43Zm.59,5.1a1.42,1.42,0,1,1-1.42,1.41A1.42,1.42,0,0,1,275,149.53Zm17,2.83a1.42,1.42,0,1,1,1.42-1.42A1.42,1.42,0,0,1,292,152.36Zm0-4.25A2.82,2.82,0,0,0,289.3,150c-1-.18-2-.3-3.06-.39a2.85,2.85,0,0,0-2.07-2.15v-3a2.84,2.84,0,0,0,2-2h4.45a2.83,2.83,0,0,0,1.92,2,30.64,30.64,0,0,1-.53,3.69Zm1.42-5a1.42,1.42,0,1,1,1.41-1.42A1.41,1.41,0,0,1,293.39,143.15Zm2.95-13.55a19,19,0,0,1-1.88.89,2.8,2.8,0,0,0-3-1.46,14.64,14.64,0,0,0-3.08-4.32A17.6,17.6,0,0,1,296.34,129.6Zm-12.88-7.71a1.42,1.42,0,1,1-1.41,1.42A1.41,1.41,0,0,1,283.46,121.89Zm-4.89,2.82A14.61,14.61,0,0,0,275.5,129a2.8,2.8,0,0,0-3,1.46,18.8,18.8,0,0,1-1.87-.89A17.62,17.62,0,0,1,278.57,124.71Zm-8.92,6a20.43,20.43,0,0,0,2.49,1.21,2.82,2.82,0,0,0,1.52,2.42A33.26,33.26,0,0,0,273,139a2.86,2.86,0,0,0-2.14,2.06h-3a2.83,2.83,0,0,0-1.81-2A17.4,17.4,0,0,1,269.65,130.68Zm-6,11a1.42,1.42,0,1,1,1.42,1.42A1.43,1.43,0,0,1,263.62,141.73ZM266,144.4a2.81,2.81,0,0,0,1.81-2h3A2.84,2.84,0,0,0,273,144.5a34.11,34.11,0,0,0,.57,4,2.81,2.81,0,0,0-1.39,2.42,2.48,2.48,0,0,0,.07.61,18.75,18.75,0,0,0-2.55,1.24A17.44,17.44,0,0,1,266,144.4Zm4.64,9.47a18.41,18.41,0,0,1,2.25-1.05,2.79,2.79,0,0,0,2.11,1l.23,0a15.15,15.15,0,0,0,3.38,5,17.51,17.51,0,0,1-8-4.88Zm12.86,7.7a1.42,1.42,0,1,1,1.42-1.41A1.41,1.41,0,0,1,283.46,161.57Zm4.89-2.82a15.21,15.21,0,0,0,3.4-5l.22,0a2.79,2.79,0,0,0,2.11-1,18.54,18.54,0,0,1,2.26,1.05A17.49,17.49,0,0,1,288.35,158.75Zm8.93-6a20,20,0,0,0-2.55-1.24,2.79,2.79,0,0,0-1.33-3,32.17,32.17,0,0,0,.58-4,2.83,2.83,0,0,0,2.14-2.06h3a2.81,2.81,0,0,0,1.81,2A17.44,17.44,0,0,1,297.28,152.79Zm4.61-9.64a1.42,1.42,0,1,1,1.42-1.42A1.42,1.42,0,0,1,301.89,143.15Z" transform="translate(-35.43 -113.39)"/></g></svg>