<svg id="Capa_1" data-name="Capa 1" xmlns="http://www.w3.org/2000/svg" viewBox="0 0 860.34 529.08"><defs><style>.cls-1{fill:none;}.cls-1,.cls-7{stroke:#050006;stroke-miterlimit:10;stroke-width:0.25px;}.cls-2{fill:#263238;}.cls-3{fill:#455a64;}.cls-4{fill:#e0e0e0;}.cls-5{fill:#fafafa;}.cls-6{font-size:8px;font-family:IBMPlexMono, IBM Plex Mono;}.cls-6,.cls-7{fill:#211915;}.cls-8{fill:#e8505b;}.cls-9{fill:#fbfbfb;}</style></defs><line class="cls-1" x1="90.01" y1="325.98" x2="196.31" y2="325.98"/><line class="cls-1" x1="472.69" y1="325.98" x2="578.99" y2="325.98"/><line class="cls-1" x1="578.99" y1="325.98" x2="621.51" y2="325.98"/><circle class="cls-2" cx="238.83" cy="184.25" r="42.52"/><circle class="cls-2" cx="430.17" cy="184.25" r="42.52"/><circle class="cls-2" cx="621.51" cy="184.25" r="42.52"/><circle class="cls-2" cx="812.85" cy="184.25" r="42.52"/><circle class="cls-2" cx="47.49" cy="184.25" r="42.52"/><circle class="cls-3" cx="238.83" cy="325.98" r="42.52"/><circle class="cls-3" cx="430.17" cy="325.98" r="42.52"/><circle class="cls-3" cx="621.51" cy="325.98" r="42.52"/><circle class="cls-3" cx="812.85" cy="325.98" r="42.52"/><circle class="cls-3" cx="47.49" cy="325.98" r="42.52"/><path class="cls-1" d="M737,76.32H893.43c3.58,0,6.49,1.27,6.49,2.82l.08,82.22" transform="translate(-278.49 -19.63)"/><circle class="cls-4" cx="238.83" cy="467.72" r="42.52"/><circle class="cls-4" cx="430.17" cy="467.72" r="42.52"/><circle class="cls-4" cx="621.51" cy="467.72" r="42.52"/><circle class="cls-4" cx="812.85" cy="467.72" r="42.52"/><circle class="cls-4" cx="47.49" cy="467.72" r="42.52"/><g id="System_protect" data-name="System protect"><path class="cls-3" d="M350.51,216.41v-26.3a2.84,2.84,0,0,0-2.84-2.84h-6.61V176.88a1,1,0,0,0-.94-.95,1,1,0,0,0-.48.13l-1.34.77a10.37,10.37,0,0,1-9.81.27L326.36,176a1,1,0,0,0-.85,0l-2.12,1.07a10.37,10.37,0,0,1-9.81-.27l-1.34-.77a1,1,0,0,0-1.42.82v10.39h-6.61a2.84,2.84,0,0,0-2.84,2.84v26.3l-3.77,11.34v2a2.83,2.83,0,0,0,2.83,2.84h51a2.84,2.84,0,0,0,2.84-2.84v-2ZM333.29,227l-.76-3.07a1,1,0,0,0-.92-.71H320.27a.93.93,0,0,0-.91.71l-.77,3.07H299.85l3.15-9.45h45.88L352,227Zm-1.94,0H320.54l.47-1.89h9.86Zm-18.64-48.45a12.27,12.27,0,0,0,11.52.28l1.7-.85,1.72.86a12.27,12.27,0,0,0,11.52-.29v10.27A21.7,21.7,0,0,1,327.66,208l-1.72.92-1.72-.92a21.7,21.7,0,0,1-11.51-19.18Zm10.62,31.12,2.17,1.15a.94.94,0,0,0,.89,0l2.16-1.15a23.55,23.55,0,0,0,12.13-16.69h4.16v18.9H307v-18.9h4.16A23.61,23.61,0,0,0,323.33,209.63Zm-20.07-19.52a1,1,0,0,1,.95-1h6.62c0,.64.05,1.27.11,1.89H306.1a1,1,0,0,0-1,.95v20.78a1,1,0,0,0,1,.95h39.68a.94.94,0,0,0,1-.95V192a1,1,0,0,0-1-.95h-4.84c.06-.62.1-1.25.11-1.89h6.62a1,1,0,0,1,.95,1v25.51H303.26Zm48.19,40.63h-51a1,1,0,0,1-.94-1v-.94H352.4v.94A1,1,0,0,1,351.45,230.74Z" transform="translate(-278.49 -19.63)"/><path class="cls-3" d="M330.67,219.4h1.89v1.89h-1.89Z" transform="translate(-278.49 -19.63)"/><path class="cls-3" d="M304.21,219.4h1.89v1.89h-1.89Z" transform="translate(-278.49 -19.63)"/><path class="cls-3" d="M308,219.4h1.89v1.89H308Z" transform="translate(-278.49 -19.63)"/><path class="cls-3" d="M311.77,219.4h1.89v1.89h-1.89Z" transform="translate(-278.49 -19.63)"/><path class="cls-3" d="M315.55,219.4h1.89v1.89h-1.89Z" transform="translate(-278.49 -19.63)"/><path class="cls-3" d="M334.45,219.4h1.89v1.89h-1.89Z" transform="translate(-278.49 -19.63)"/><path class="cls-3" d="M338.23,219.4h1.88v1.89h-1.88Z" transform="translate(-278.49 -19.63)"/><path class="cls-3" d="M342,219.4h1.89v1.89H342Z" transform="translate(-278.49 -19.63)"/><path class="cls-3" d="M319.33,219.4h1.89v1.89h-1.89Z" transform="translate(-278.49 -19.63)"/><path class="cls-3" d="M323.11,219.4H325v1.89h-1.89Z" transform="translate(-278.49 -19.63)"/><path class="cls-3" d="M326.89,219.4h1.89v1.89h-1.89Z" transform="translate(-278.49 -19.63)"/><path class="cls-3" d="M345.78,219.4h1.89v1.89h-1.89Z" transform="translate(-278.49 -19.63)"/><path class="cls-3" d="M334.45,223.18h5.66v1.89h-5.66Z" transform="translate(-278.49 -19.63)"/><path class="cls-3" d="M342,223.18h1.89v1.89H342Z" transform="translate(-278.49 -19.63)"/><path class="cls-3" d="M345.78,223.18h1.89v1.89h-1.89Z" transform="translate(-278.49 -19.63)"/><path class="cls-3" d="M304.21,223.18h1.89v1.89h-1.89Z" transform="translate(-278.49 -19.63)"/><path class="cls-3" d="M308,223.18h1.89v1.89H308Z" transform="translate(-278.49 -19.63)"/><path class="cls-3" d="M311.77,223.18h5.67v1.89h-5.67Z" transform="translate(-278.49 -19.63)"/><path class="cls-3" d="M325.11,206.29l.39.21a.94.94,0,0,0,.89,0l.39-.21a19.8,19.8,0,0,0,10.5-17.51v-6.2a.94.94,0,0,0-.94-.94.65.65,0,0,0-.2,0,14.26,14.26,0,0,1-9.33-1.18l-.45-.22a1,1,0,0,0-.85,0l-.44.22a14.31,14.31,0,0,1-9.33,1.18.94.94,0,0,0-1.12.73,1.11,1.11,0,0,0,0,.19v6.2a19.81,19.81,0,0,0,10.51,17.51Zm-8.62-22.58a16.16,16.16,0,0,0,9.43-1.54h0a16.18,16.18,0,0,0,9.43,1.54v5.07a17.9,17.9,0,0,1-9.45,15.81,17.94,17.94,0,0,1-9.45-15.81Z" transform="translate(-278.49 -19.63)"/><path class="cls-3" d="M324.05,196.72a1,1,0,0,0,.67-.28l7.9-7.9a.94.94,0,0,0,0-1.33,1,1,0,0,0-1.34,0l0,0-7.24,7.23-2.95-2.95a.94.94,0,0,0-1.33,1.34l3.61,3.61A1,1,0,0,0,324.05,196.72Z" transform="translate(-278.49 -19.63)"/></g><g id="Search_engine" data-name="Search engine"><path class="cls-3" d="M1110.84,184.92h-22.51a.94.94,0,0,1-.94-.94v-3.75a.94.94,0,0,1,.94-.94h22.51a.94.94,0,0,1,.94.94V184A.94.94,0,0,1,1110.84,184.92ZM1089.26,183h20.64v-1.88h-20.64Z" transform="translate(-278.49 -19.63)"/><path class="cls-3" d="M1069.56,184.92a2.82,2.82,0,1,1,2.82-2.82A2.81,2.81,0,0,1,1069.56,184.92Zm0-3.76a.94.94,0,1,0,.94.94A.94.94,0,0,0,1069.56,181.16Z" transform="translate(-278.49 -19.63)"/><path class="cls-3" d="M1076.13,184.92a2.82,2.82,0,1,1,2.81-2.82A2.82,2.82,0,0,1,1076.13,184.92Zm0-3.76a.94.94,0,1,0,.94.94A.94.94,0,0,0,1076.13,181.16Z" transform="translate(-278.49 -19.63)"/><path class="cls-3" d="M1082.7,184.92a2.82,2.82,0,1,1,2.81-2.82A2.82,2.82,0,0,1,1082.7,184.92Zm0-3.76a.94.94,0,1,0,.93.94A.94.94,0,0,0,1082.7,181.16Z" transform="translate(-278.49 -19.63)"/><path class="cls-3" d="M1084.57,201.8h-13.13a.94.94,0,0,1-.94-.93v-7.51a.94.94,0,0,1,.94-.94h35.65a.94.94,0,0,1,.94.94V199a.94.94,0,1,1-1.88,0V194.3h-33.77v5.63h12.19a.94.94,0,1,1,0,1.87Z" transform="translate(-278.49 -19.63)"/><path class="cls-3" d="M1096.77,199.93a9.38,9.38,0,1,0,9.38,9.38A9.38,9.38,0,0,0,1096.77,199.93Zm0,16.88a7.51,7.51,0,1,1,7.5-7.5A7.5,7.5,0,0,1,1096.77,216.81Z" transform="translate(-278.49 -19.63)"/><path class="cls-3" d="M1118.27,224.18l-2.74-2.74V178.35a2.81,2.81,0,0,0-2.81-2.81h-46.91a2.81,2.81,0,0,0-2.81,2.81v45a2.81,2.81,0,0,0,2.81,2.82H1107l4.62,4.61a4.69,4.69,0,1,0,6.72-6.55l-.09-.08Zm-53.4-45.83a.94.94,0,0,1,.94-.94h46.91a.94.94,0,0,1,.94.94v8.44h-48.79Zm.94,46a.94.94,0,0,1-.94-.94V188.67h48.79v30.89l-2.57-2.57a1,1,0,0,0-1.33,0l-.66.67-2-2a12.24,12.24,0,1,0-4,4l2,2-.67.66a1,1,0,0,0,0,1.33l.7.69Zm41.28-15A10.32,10.32,0,1,1,1096.77,199,10.32,10.32,0,0,1,1107.09,209.31Zm-2.4,9.25a11.93,11.93,0,0,0,1.33-1.33l1.75,1.75-1.33,1.33Zm12.25,10.93a2.88,2.88,0,0,1-4,0l-6.53-6.52,4-4,6.51,6.52a2.82,2.82,0,0,1,0,4Z" transform="translate(-278.49 -19.63)"/><path class="cls-3" d="M1081.76,206.49h-7.51a.94.94,0,1,1,0-1.87h7.51a.94.94,0,1,1,0,1.87Z" transform="translate(-278.49 -19.63)"/><path class="cls-3" d="M1081.76,210.25h-7.51a.94.94,0,0,1,0-1.88h7.51a.94.94,0,1,1,0,1.88Z" transform="translate(-278.49 -19.63)"/><path class="cls-3" d="M1081.76,214h-7.51a.94.94,0,0,1,0-1.88h7.51a.94.94,0,1,1,0,1.88Z" transform="translate(-278.49 -19.63)"/></g><g id="API"><path class="cls-3" d="M732.29,175.54H685a4.72,4.72,0,0,0-4.72,4.72V227.5a4.73,4.73,0,0,0,4.72,4.73h47.25A4.74,4.74,0,0,0,737,227.5V180.26A4.72,4.72,0,0,0,732.29,175.54ZM685,177.42h47.25a2.84,2.84,0,0,1,2.83,2.84V185H682.21v-4.72A2.84,2.84,0,0,1,685,177.42Zm-2.83,50.08V186.87h52.91v18.57a2.84,2.84,0,0,0-1.42.75l-1.92,1.91a11.79,11.79,0,0,0-1.38-.57v-2.7a2.84,2.84,0,0,0-2.84-2.84h-3.78a2.84,2.84,0,0,0-2.83,2.84v2.7a14,14,0,0,0-1.39.57l-1.91-1.91a2.89,2.89,0,0,0-4,0L711,208.86a2.84,2.84,0,0,0,0,4h0l1.92,1.92a13.12,13.12,0,0,0-.58,1.39h-2.7a2.83,2.83,0,0,0-2.84,2.83v3.78a2.84,2.84,0,0,0,2.84,2.83h2.7a13.12,13.12,0,0,0,.58,1.39L711,228.91a2.91,2.91,0,0,0-.75,1.43H685A2.84,2.84,0,0,1,682.21,227.5Zm50.08,2.84h-20l.07-.09,2.4-2.4a.94.94,0,0,0,.16-1.12,12.47,12.47,0,0,1-1-2.33,1,1,0,0,0-.91-.68h-3.38a1,1,0,0,1-1-.94V219a1,1,0,0,1,1-.95H713a1,1,0,0,0,.91-.67,12.19,12.19,0,0,1,1-2.33.94.94,0,0,0-.16-1.12l-2.4-2.4a.94.94,0,0,1,0-1.33h0l2.67-2.67a1,1,0,0,1,1.33,0l2.4,2.4a1,1,0,0,0,1.12.16,12.51,12.51,0,0,1,2.33-1,.94.94,0,0,0,.68-.9v-3.38a.94.94,0,0,1,.94-1h3.78a1,1,0,0,1,1,1v3.38a.93.93,0,0,0,.67.9,13.27,13.27,0,0,1,2.34,1,.94.94,0,0,0,1.11-.16l2.4-2.39.09-.07v20A2.84,2.84,0,0,1,732.29,230.34Z" transform="translate(-278.49 -19.63)"/><path class="cls-3" d="M686.93,184a2.84,2.84,0,1,0-2.83-2.84A2.84,2.84,0,0,0,686.93,184Zm0-3.78a.95.95,0,1,1-.94.94A.95.95,0,0,1,686.93,180.26Z" transform="translate(-278.49 -19.63)"/><path class="cls-3" d="M693.55,184a2.84,2.84,0,1,0-2.84-2.84A2.84,2.84,0,0,0,693.55,184Zm0-3.78a.95.95,0,1,1-.95.94A.94.94,0,0,1,693.55,180.26Z" transform="translate(-278.49 -19.63)"/><path class="cls-3" d="M700.16,184a2.84,2.84,0,1,0-2.83-2.84A2.84,2.84,0,0,0,700.16,184Zm0-3.78a.95.95,0,1,1-.94.94A.95.95,0,0,1,700.16,180.26Z" transform="translate(-278.49 -19.63)"/><path class="cls-3" d="M725.67,213.33a7.56,7.56,0,1,0,7.56,7.56A7.56,7.56,0,0,0,725.67,213.33Zm0,13.23a5.67,5.67,0,1,1,5.67-5.67A5.67,5.67,0,0,1,725.67,226.56Z" transform="translate(-278.49 -19.63)"/><path class="cls-3" d="M686.93,203.88a1,1,0,0,0,1-.94v-4.73h3.78v4.73a.95.95,0,0,0,1.89,0v-8.51a3.78,3.78,0,0,0-7.56,0v8.51A.94.94,0,0,0,686.93,203.88Zm2.84-11.34a1.89,1.89,0,0,1,1.89,1.89v1.89h-3.78v-1.89A1.89,1.89,0,0,1,689.77,192.54Z" transform="translate(-278.49 -19.63)"/><path class="cls-3" d="M696.38,203.88a1,1,0,0,0,1-.94v-4.73h2.83a2.84,2.84,0,0,0,2.84-2.83v-1.89a2.84,2.84,0,0,0-2.84-2.84h-3.78a1,1,0,0,0-.94.95v11.34A.94.94,0,0,0,696.38,203.88Zm1-11.34h2.83a1,1,0,0,1,1,1v1.89a1,1,0,0,1-1,.94h-2.83Z" transform="translate(-278.49 -19.63)"/><path class="cls-3" d="M705.83,203.88a.94.94,0,0,0,.94-.94V191.6a.95.95,0,1,0-1.89,0v11.34A1,1,0,0,0,705.83,203.88Z" transform="translate(-278.49 -19.63)"/><path class="cls-3" d="M686.93,209.55h18.9a.95.95,0,0,0,0-1.89h-18.9a.95.95,0,0,0,0,1.89Z" transform="translate(-278.49 -19.63)"/><path class="cls-3" d="M705.83,213.33h-18.9a.95.95,0,0,0,0,1.89h18.9a.95.95,0,0,0,0-1.89Z" transform="translate(-278.49 -19.63)"/><path class="cls-3" d="M703,219H686.93a.95.95,0,0,0,0,1.89H703a.95.95,0,0,0,0-1.89Z" transform="translate(-278.49 -19.63)"/></g><g id="DB_architecture" data-name="DB architecture"><path class="cls-3" d="M505,178.37h1.89v3.78H505Z" transform="translate(-278.49 -19.63)"/><path class="cls-3" d="M508.82,178.37h1.89v3.78h-1.89Z" transform="translate(-278.49 -19.63)"/><path class="cls-3" d="M512.6,178.37h1.89v3.78H512.6Z" transform="translate(-278.49 -19.63)"/><path class="cls-3" d="M516.38,178.37h1.89v3.78h-1.89Z" transform="translate(-278.49 -19.63)"/><path class="cls-3" d="M505,188.76h1.89v3.78H505Z" transform="translate(-278.49 -19.63)"/><path class="cls-3" d="M508.82,188.76h1.89v3.78h-1.89Z" transform="translate(-278.49 -19.63)"/><path class="cls-3" d="M512.6,188.76h1.89v3.78H512.6Z" transform="translate(-278.49 -19.63)"/><path class="cls-3" d="M516.38,188.76h1.89v3.78h-1.89Z" transform="translate(-278.49 -19.63)"/><path class="cls-3" d="M505,199.16h1.89v3.78H505Z" transform="translate(-278.49 -19.63)"/><path class="cls-3" d="M508.82,199.16h1.89v3.78h-1.89Z" transform="translate(-278.49 -19.63)"/><path class="cls-3" d="M512.6,199.16h1.89v3.78H512.6Z" transform="translate(-278.49 -19.63)"/><path class="cls-3" d="M516.38,199.16h1.89v3.78h-1.89Z" transform="translate(-278.49 -19.63)"/><path class="cls-3" d="M545.67,218.05a2.83,2.83,0,0,0-2.83-2.83h-7.56v-2.83a1.89,1.89,0,0,0-1.89-1.89H520a2.87,2.87,0,0,0-1.72-1.72v-3h12.28a2.84,2.84,0,0,0,2.84-2.83v-3.78a2.84,2.84,0,0,0-2.84-2.84h-.94v-.94h.94a2.84,2.84,0,0,0,2.84-2.84v-3.78a2.84,2.84,0,0,0-2.84-2.83h-.94v-1h.94a2.84,2.84,0,0,0,2.84-2.83v-3.78a2.83,2.83,0,0,0-2.84-2.83H504.1a2.83,2.83,0,0,0-2.84,2.83v3.78A2.84,2.84,0,0,0,504.1,185H505v1h-.94a2.84,2.84,0,0,0-2.84,2.83v3.78a2.84,2.84,0,0,0,2.84,2.84H505v.94h-.94a2.84,2.84,0,0,0-2.84,2.84v3.78a2.84,2.84,0,0,0,2.84,2.83h12.28v3a2.87,2.87,0,0,0-1.72,1.72h-13.4a1.89,1.89,0,0,0-1.89,1.89v2.83h-7.56a2.83,2.83,0,0,0-2.83,2.83v3.78a2.76,2.76,0,0,0,.74,1.89,2.78,2.78,0,0,0-.74,1.89v3.78a2.84,2.84,0,0,0,2.83,2.84h17a2.84,2.84,0,0,0,2.84-2.84v-3.78a2.87,2.87,0,0,0-.74-1.89,2.85,2.85,0,0,0,.74-1.89v-3.78a2.84,2.84,0,0,0-2.84-2.83h-7.56v-2.83h13.4a2.83,2.83,0,0,0,5.33,0h13.4v2.83h-7.56a2.83,2.83,0,0,0-2.83,2.83v3.78a2.79,2.79,0,0,0,.73,1.89,2.81,2.81,0,0,0-.73,1.89v3.78a2.83,2.83,0,0,0,2.83,2.84h17a2.84,2.84,0,0,0,2.83-2.84v-3.78a2.81,2.81,0,0,0-.73-1.89,2.79,2.79,0,0,0,.73-1.89Zm-42.52-35.9v-3.78a1,1,0,0,1,1-1h26.45a1,1,0,0,1,1,1v3.78a.94.94,0,0,1-1,.94H504.1A1,1,0,0,1,503.15,182.15Zm3.78,2.83h20.79v1H506.93Zm-3.78,7.56v-3.78a1,1,0,0,1,1-.94h26.45a.94.94,0,0,1,1,.94v3.78a1,1,0,0,1-1,1H504.1A1,1,0,0,1,503.15,192.54Zm3.78,2.84h20.79v.94H506.93Zm-3.78,7.56v-3.78a1,1,0,0,1,1-.95h26.45a1,1,0,0,1,1,.95v3.78a.94.94,0,0,1-1,.94H504.1A1,1,0,0,1,503.15,202.94Zm6.62,26.45a1,1,0,0,1-.95,1h-17a.94.94,0,0,1-.94-1v-3.78a.94.94,0,0,1,.94-.94h17a1,1,0,0,1,.95.94Zm0-11.34v3.78a1,1,0,0,1-.95.95h-17a.94.94,0,0,1-.94-.95v-3.78a.94.94,0,0,1,.94-.94h17A1,1,0,0,1,509.77,218.05Zm7.56-5.66a.95.95,0,1,1,0-1.89.95.95,0,0,1,0,1.89Zm7.55,5.66a1,1,0,0,1,1-.94h17a.94.94,0,0,1,.94.94v3.78a.94.94,0,0,1-.94.95h-17a1,1,0,0,1-1-.95Zm18.9,11.34a.94.94,0,0,1-.94,1h-17a1,1,0,0,1-1-1v-3.78a1,1,0,0,1,1-.94h17a.94.94,0,0,1,.94.94Z" transform="translate(-278.49 -19.63)"/><path class="cls-3" d="M526.77,219h1.89v1.89h-1.89Z" transform="translate(-278.49 -19.63)"/><path class="cls-3" d="M529.61,219h1.89v1.89h-1.89Z" transform="translate(-278.49 -19.63)"/><path class="cls-3" d="M532.44,219h1.89v1.89h-1.89Z" transform="translate(-278.49 -19.63)"/><path class="cls-3" d="M540,219h1.89v1.89H540Z" transform="translate(-278.49 -19.63)"/><path class="cls-3" d="M526.77,226.56h1.89v1.89h-1.89Z" transform="translate(-278.49 -19.63)"/><path class="cls-3" d="M529.61,226.56h1.89v1.89h-1.89Z" transform="translate(-278.49 -19.63)"/><path class="cls-3" d="M532.44,226.56h1.89v1.89h-1.89Z" transform="translate(-278.49 -19.63)"/><path class="cls-3" d="M540,226.56h1.89v1.89H540Z" transform="translate(-278.49 -19.63)"/><path class="cls-3" d="M492.76,219h1.89v1.89h-1.89Z" transform="translate(-278.49 -19.63)"/><path class="cls-3" d="M495.59,219h1.89v1.89h-1.89Z" transform="translate(-278.49 -19.63)"/><path class="cls-3" d="M498.43,219h1.89v1.89h-1.89Z" transform="translate(-278.49 -19.63)"/><path class="cls-3" d="M506,219h1.89v1.89H506Z" transform="translate(-278.49 -19.63)"/><path class="cls-3" d="M492.76,226.56h1.89v1.89h-1.89Z" transform="translate(-278.49 -19.63)"/><path class="cls-3" d="M495.59,226.56h1.89v1.89h-1.89Z" transform="translate(-278.49 -19.63)"/><path class="cls-3" d="M498.43,226.56h1.89v1.89h-1.89Z" transform="translate(-278.49 -19.63)"/><path class="cls-3" d="M506,226.56h1.89v1.89H506Z" transform="translate(-278.49 -19.63)"/><path class="cls-3" d="M527.72,179.31h1.89v1.89h-1.89Z" transform="translate(-278.49 -19.63)"/><path class="cls-3" d="M523.94,179.31h1.89v1.89h-1.89Z" transform="translate(-278.49 -19.63)"/><path class="cls-3" d="M527.72,189.71h1.89v1.89h-1.89Z" transform="translate(-278.49 -19.63)"/><path class="cls-3" d="M523.94,189.71h1.89v1.89h-1.89Z" transform="translate(-278.49 -19.63)"/><path class="cls-3" d="M527.72,200.1h1.89V202h-1.89Z" transform="translate(-278.49 -19.63)"/><path class="cls-3" d="M523.94,200.1h1.89V202h-1.89Z" transform="translate(-278.49 -19.63)"/></g><g id="Data_structure" data-name="Data structure"><path class="cls-3" d="M915.11,209.55a2.84,2.84,0,0,0,2.84-2.84v-1.88h3a3.78,3.78,0,1,0,0-1.89h-3v-1.89a2.83,2.83,0,0,0-2.84-2.83h-.94v-1.89h.94a2.84,2.84,0,0,0,2.84-2.84V191.6h4.72a2.83,2.83,0,0,0,2.83-2.83V183a3.78,3.78,0,1,0-1.89,0v5.8a1,1,0,0,1-.94.95H918v-1.89a2.84,2.84,0,0,0-2.84-2.84H884.89a2.84,2.84,0,0,0-2.83,2.84v1.89h-4.72a1,1,0,0,1-1-.95V183a3.78,3.78,0,1,0-1.89,0v5.8a2.83,2.83,0,0,0,2.84,2.83h4.72v1.89a2.84,2.84,0,0,0,2.83,2.84h1v1.89h-1a2.83,2.83,0,0,0-2.83,2.83V203l-3,0a3.78,3.78,0,1,0,0,1.89l3,0v1.84a2.84,2.84,0,0,0,2.83,2.84h1v1.89h-1a2.83,2.83,0,0,0-2.83,2.83v1.89h-4.72A2.84,2.84,0,0,0,874.5,219v5.8a3.78,3.78,0,1,0,1.89,0V219a1,1,0,0,1,1-.94h4.72v1.89a2.83,2.83,0,0,0,2.83,2.83h1v3.78h28.33v-3.78h.94a2.84,2.84,0,0,0,2.84-2.83v-1.89h4.72a.94.94,0,0,1,.94.94v5.8a3.77,3.77,0,1,0,1.89,0V219a2.83,2.83,0,0,0-2.83-2.83H918v-1.89a2.84,2.84,0,0,0-2.84-2.83h-.94v-1.89Zm9.45-7.56a1.89,1.89,0,1,1-1.89,1.89A1.89,1.89,0,0,1,924.56,202Zm-1.89-22.66a1.89,1.89,0,1,1,1.89,1.89A1.88,1.88,0,0,1,922.67,179.33Zm-49.11,0a1.89,1.89,0,1,1,1.89,1.89A1.89,1.89,0,0,1,873.56,179.33Zm1.89,26.44a1.89,1.89,0,1,1,1.89-1.89A1.89,1.89,0,0,1,875.45,205.77Zm1.89,22.67a1.89,1.89,0,1,1-1.89-1.89A1.89,1.89,0,0,1,877.34,228.44Zm49.11,0a1.89,1.89,0,1,1-1.89-1.89A1.89,1.89,0,0,1,926.45,228.44Zm-41.56-34a1,1,0,0,1-.94-.95v-5.66a1,1,0,0,1,.94-1h30.22a1,1,0,0,1,.95,1v5.66a1,1,0,0,1-.95.95Zm2.84,1.89h24.55v1.89H887.73Zm-2.84,11.33a.94.94,0,0,1-.94-.95v-5.66a1,1,0,0,1,.94-1h30.22a1,1,0,0,1,.95,1v5.66a1,1,0,0,1-.95.95Zm27.39,17H887.73v-1.89h24.55Zm2.83-11.33a1,1,0,0,1,.95.94v5.67a1,1,0,0,1-.95.94H884.89a.94.94,0,0,1-.94-.94v-5.67a.94.94,0,0,1,.94-.94Zm-2.83-1.89H887.73v-1.89h24.55Z" transform="translate(-278.49 -19.63)"/><path class="cls-3" d="M885.84,188.77h1.89v3.78h-1.89Z" transform="translate(-278.49 -19.63)"/><path class="cls-3" d="M889.61,188.77h1.89v3.78h-1.89Z" transform="translate(-278.49 -19.63)"/><path class="cls-3" d="M893.39,188.77h1.89v3.78h-1.89Z" transform="translate(-278.49 -19.63)"/><path class="cls-3" d="M901,188.77h1.89v3.78H901Z" transform="translate(-278.49 -19.63)"/><path class="cls-3" d="M897.17,188.77h1.89v3.78h-1.89Z" transform="translate(-278.49 -19.63)"/><path class="cls-3" d="M889.61,202h1.89v3.78h-1.89Z" transform="translate(-278.49 -19.63)"/><path class="cls-3" d="M885.84,202h1.89v3.78h-1.89Z" transform="translate(-278.49 -19.63)"/><path class="cls-3" d="M893.39,202h1.89v3.78h-1.89Z" transform="translate(-278.49 -19.63)"/><path class="cls-3" d="M897.17,202h1.89v3.78h-1.89Z" transform="translate(-278.49 -19.63)"/><path class="cls-3" d="M901,202h1.89v3.78H901Z" transform="translate(-278.49 -19.63)"/><path class="cls-3" d="M885.84,215.21h1.89V219h-1.89Z" transform="translate(-278.49 -19.63)"/><path class="cls-3" d="M889.61,215.21h1.89V219h-1.89Z" transform="translate(-278.49 -19.63)"/><path class="cls-3" d="M893.39,215.21h1.89V219h-1.89Z" transform="translate(-278.49 -19.63)"/><path class="cls-3" d="M897.17,215.21h1.89V219h-1.89Z" transform="translate(-278.49 -19.63)"/><path class="cls-3" d="M901,215.21h1.89V219H901Z" transform="translate(-278.49 -19.63)"/><path class="cls-3" d="M914.17,188.77a.94.94,0,0,0-.95-.94h-7.55a1,1,0,0,0-.95.94v3.78a1,1,0,0,0,.95.94h7.55a.94.94,0,0,0,.95-.94Zm-1.89,2.83h-5.67v-1.88h5.67Z" transform="translate(-278.49 -19.63)"/><path class="cls-3" d="M914.17,202a.94.94,0,0,0-.95-.94h-7.55a1,1,0,0,0-.95.94v3.78a1,1,0,0,0,.95.94h7.55a.94.94,0,0,0,.95-.94Zm-1.89,2.84h-5.67v-1.89h5.67Z" transform="translate(-278.49 -19.63)"/><path class="cls-3" d="M905.67,219.94h7.55a1,1,0,0,0,.95-.95v-3.78a.94.94,0,0,0-.95-.94h-7.55a1,1,0,0,0-.95.94V219A1,1,0,0,0,905.67,219.94Zm.94-3.78h5.67v1.89h-5.67Z" transform="translate(-278.49 -19.63)"/></g><g id="Domain"><path class="cls-5" d="M542.84,459h-51a2.83,2.83,0,0,0-2.83,2.83v51a2.83,2.83,0,0,0,2.83,2.83h51a2.83,2.83,0,0,0,2.83-2.83v-51A2.83,2.83,0,0,0,542.84,459Zm-52,2.83a.94.94,0,0,1,.94-.94h51a.94.94,0,0,1,.94.94v8.51H490.87Zm52.91,51a.94.94,0,0,1-.94.94h-51a.94.94,0,0,1-.94-.94V472.23h52.91Z" transform="translate(-278.49 -19.63)"/><path class="cls-5" d="M541,462.78H514.49a.94.94,0,0,0-.94.94v3.78a.94.94,0,0,0,.94.95H541a.94.94,0,0,0,.94-.95v-3.78A.94.94,0,0,0,541,462.78Zm-1,3.78H515.44v-1.89H540Z" transform="translate(-278.49 -19.63)"/><path class="cls-5" d="M495.59,462.78a2.84,2.84,0,1,0,2.84,2.83A2.83,2.83,0,0,0,495.59,462.78Zm0,3.78a.95.95,0,1,1,1-.95A.94.94,0,0,1,495.59,466.56Z" transform="translate(-278.49 -19.63)"/><path class="cls-5" d="M502.21,462.78a2.84,2.84,0,1,0,2.83,2.83A2.84,2.84,0,0,0,502.21,462.78Zm0,3.78a.95.95,0,1,1,0-1.89.95.95,0,0,1,0,1.89Z" transform="translate(-278.49 -19.63)"/><path class="cls-5" d="M508.82,462.78a2.84,2.84,0,1,0,2.84,2.83A2.83,2.83,0,0,0,508.82,462.78Zm0,3.78a.95.95,0,1,1,.95-.95A.94.94,0,0,1,508.82,466.56Z" transform="translate(-278.49 -19.63)"/><path class="cls-5" d="M517.33,511.91A18.9,18.9,0,1,0,498.43,493,18.89,18.89,0,0,0,517.33,511.91Zm-14.14-9.45h5.11a17.92,17.92,0,0,0,3.51,6.62A17.07,17.07,0,0,1,503.19,502.46Zm31.1-10.39h-6.6a32.65,32.65,0,0,0-.81-6.61h5.66A16.91,16.91,0,0,1,534.29,492.07Zm-17.91,10.39v7.45c-2.49-.59-4.7-3.42-6.08-7.45Zm-6.63-1.89a30.06,30.06,0,0,1-.9-6.61h7.53v6.61Zm8.52,9.34v-7.45h6.08C523,506.49,520.77,509.32,518.27,509.91Zm0-9.34V494h7.54a30.69,30.69,0,0,1-.91,6.61Zm9.42-6.61h6.6a16.91,16.91,0,0,1-1.75,6.61h-5.66A32.65,32.65,0,0,0,527.69,494Zm-1.89-1.89h-7.53v-6.61h6.63a30.69,30.69,0,0,1,.91,6.61Zm-7.53-8.5v-7.44c2.5.58,4.7,3.42,6.08,7.44Zm-1.89-7.44v7.44H510.3C511.68,479.55,513.89,476.71,516.38,476.13Zm0,9.33v6.61h-7.53a30.06,30.06,0,0,1,.9-6.61ZM507,492.07h-6.59a16.72,16.72,0,0,1,1.74-6.61h5.66A32.65,32.65,0,0,0,507,492.07Zm0,1.89a32.65,32.65,0,0,0,.81,6.61h-5.66a16.72,16.72,0,0,1-1.74-6.61Zm15.89,15.12a17.92,17.92,0,0,0,3.51-6.62h5.1A17,17,0,0,1,522.85,509.08Zm8.61-25.51h-5.1a17.94,17.94,0,0,0-3.52-6.62A17.07,17.07,0,0,1,531.46,483.57ZM511.8,477a18.07,18.07,0,0,0-3.51,6.62h-5.1A17.09,17.09,0,0,1,511.8,477Z" transform="translate(-278.49 -19.63)"/></g><g id="Email_Setting" data-name="Email Setting"><path class="cls-5" d="M708.66,486.4h3.78a.95.95,0,1,0,0-1.89h-3.78a5.67,5.67,0,1,1,5.67-5.67v1a.95.95,0,0,1-1.89,0v-1a3.8,3.8,0,1,0-1.21,2.76,2.82,2.82,0,0,0,5-1.81v-1a7.56,7.56,0,1,0-7.56,7.56Zm0-5.67a1.89,1.89,0,1,1,1.89-1.89A1.89,1.89,0,0,1,708.66,480.73Z" transform="translate(-278.49 -19.63)"/><path class="cls-5" d="M736.62,485.64l-8.11-5.88v-4.7a1,1,0,0,0-1-.94H724a15.85,15.85,0,0,0-1.15-2.8l2.5-2.49a1,1,0,0,0,0-1.34L720,462.14a1,1,0,0,0-1.34,0l-2.5,2.5a16.59,16.59,0,0,0-2.79-1.16v-3.54a.94.94,0,0,0-.95-.94h-7.56a.94.94,0,0,0-.94.94v3.54a16.69,16.69,0,0,0-2.8,1.16l-2.49-2.5a1,1,0,0,0-1.34,0L692,467.49a1,1,0,0,0,0,1.33l2.5,2.5a16.69,16.69,0,0,0-1.16,2.8h-3.53a.94.94,0,0,0-.95.94v4.7l-8.11,5.88a.92.92,0,0,0-.39.76v28.35a.94.94,0,0,0,.94.94h54.81a.94.94,0,0,0,.94-.94V486.4A.92.92,0,0,0,736.62,485.64Zm-37.39,14.93-17,12.33V488.25Zm8.88-4.09a1,1,0,0,1,1.11,0l23.93,17.32h-49Zm10,4.09,17-12.32V512.9Zm16.36-14.17-18,13-3.1-2.25v-3a15.76,15.76,0,0,0,2.79-1.15l2.5,2.49a1,1,0,0,0,1.34,0l5.34-5.34a1,1,0,0,0,0-1.34l-2.5-2.5a15.08,15.08,0,0,0,1.16-2.79h3.54a1,1,0,0,0,1-.95v-.53ZM690.71,476H694a.93.93,0,0,0,.91-.71,13.82,13.82,0,0,1,1.52-3.66,1,1,0,0,0-.15-1.15L694,468.16l4-4,2.33,2.34a1,1,0,0,0,1.15.15,14.1,14.1,0,0,1,3.66-1.52.93.93,0,0,0,.71-.91v-3.31h5.67v3.31a.94.94,0,0,0,.71.91,14.43,14.43,0,0,1,3.66,1.51.94.94,0,0,0,1.14-.14l2.34-2.34,4,4L721,470.49a.94.94,0,0,0-.15,1.15,14.13,14.13,0,0,1,1.51,3.66,1,1,0,0,0,.92.71h3.31v5.67h-3.31a.93.93,0,0,0-.91.71,13.9,13.9,0,0,1-1.52,3.65.94.94,0,0,0,.15,1.15l2.34,2.34-4,4L717,491.2a.94.94,0,0,0-1.14-.14,14.43,14.43,0,0,1-3.66,1.51,1,1,0,0,0-.71.92v2.3l-1.17-.85a2.84,2.84,0,0,0-3.33,0l-1.17.85v-2.3a1,1,0,0,0-.71-.92,14.43,14.43,0,0,1-3.66-1.51.94.94,0,0,0-1.15.15L698,493.54l-4-4,2.33-2.34a.94.94,0,0,0,.15-1.15,14.21,14.21,0,0,1-1.51-3.65,1,1,0,0,0-.92-.71h-3.31Zm-.94,7.56h3.53a16.59,16.59,0,0,0,1.16,2.79l-2.5,2.5a.94.94,0,0,0,0,1.33l5.35,5.35a1,1,0,0,0,1.34,0l2.49-2.5a15.89,15.89,0,0,0,2.8,1.16v3l-3.1,2.25-18-13,6-4.31v.53A1,1,0,0,0,689.77,483.57Z" transform="translate(-278.49 -19.63)"/><path class="cls-5" d="M708.66,490.18a11.34,11.34,0,1,0-11.33-11.34A11.34,11.34,0,0,0,708.66,490.18Zm0-20.79a9.45,9.45,0,1,1-9.44,9.45A9.45,9.45,0,0,1,708.66,469.39Z" transform="translate(-278.49 -19.63)"/></g><g id="Big_data" data-name="Big data"><path class="cls-2" d="M351.18,355.3V336.11a4.19,4.19,0,0,0-2.06-8.12,4.33,4.33,0,0,0-1.78.95L330.13,319a2.88,2.88,0,0,0,.06-.59,4.2,4.2,0,1,0-8.39,0,2.88,2.88,0,0,0,.06.59l-17.21,9.93a4.19,4.19,0,1,0-3.84,7.17V355.3a4.18,4.18,0,0,0,2.05,8.11,4.11,4.11,0,0,0,1.78-1l17.21,9.93a4,4,0,0,0-.05.6,4.2,4.2,0,0,0,8.39,0q0-.3-.06-.6l17.21-9.93a4.18,4.18,0,1,0,3.84-7.16Zm-15.31,3,2.57-4.36,7.65,4.32v0Zm-30,0v0l7.64-4.32,2.57,4.36Zm10.2-25.19-2.57,4.35-7.64-4.32v0Zm30,0v0l-7.65,4.32-2.57-4.35Zm2.9,22.22-5.67-9.63,5.67-9.62.1,0V355.3Zm-1.86,1.1-7.61-4.29,2.57-4.37,5.08,8.6ZM330,344.62l7.65-4.32,3.19,5.4-3.19,5.4L330,346.78a3.78,3.78,0,0,0,0-2.16ZM347.16,335l-5.08,8.6-2.57-4.36,7.61-4.3Zm-10.55,3.46-7.61,4.3a4.23,4.23,0,0,0-2-1.14v-8.54h6.4ZM326,347.8a2.1,2.1,0,1,1,2.1-2.1A2.1,2.1,0,0,1,326,347.8ZM327,331v-8.54l.1,0L332.2,331Zm-2.1-8.54V331h-5.15l5-8.57Zm0,10.64v8.54a4.33,4.33,0,0,0-2,1.14l-7.61-4.3,3.18-5.38Zm-20.12,23.27,5.08-8.61,2.58,4.37-7.61,4.29Zm6.3-10.68,3.19-5.4,7.64,4.32a3.78,3.78,0,0,0,0,2.16l-7.64,4.32ZM304.87,335l7.61,4.31-2.58,4.36-5.08-8.6ZM303,336.08l5.67,9.62L303,355.33a.29.29,0,0,0-.1,0V336.11Zm12.36,16.83,7.61-4.3a4.16,4.16,0,0,0,2,1.14v8.55h-6.39Zm9.57,7.48v8.55l-.1,0-5-8.58Zm2.1,8.55v-8.55h5.16L327.15,369Zm0-10.64v-8.55a4.06,4.06,0,0,0,2-1.14l7.61,4.3-3.17,5.39ZM350.13,330a2.1,2.1,0,1,1-2.1,2.1A2.1,2.1,0,0,1,350.13,330Zm-3.95.74c0,.1-.07.21-.1.31H334.64L329,321.39l.35-.42ZM326,316.32a2.1,2.1,0,1,1-2.1,2.1A2.1,2.1,0,0,1,326,316.32Zm-3,5.07L317.35,331H305.91c0-.1-.06-.21-.1-.31L322.68,321A3.47,3.47,0,0,0,323,321.39Zm-23.27,10.67a2.1,2.1,0,1,1,2.1,2.1A2.1,2.1,0,0,1,299.76,332.06Zm2.1,29.38a2.1,2.1,0,1,1,2.1-2.1A2.1,2.1,0,0,1,301.86,361.44Zm3.95-.73c0-.11.07-.21.1-.32h11.44L323,370a2.79,2.79,0,0,0-.35.42ZM326,375.09a2.1,2.1,0,1,1,2.1-2.1A2.1,2.1,0,0,1,326,375.09Zm3-5.07,5.68-9.63h11.44c0,.11.06.21.1.32l-16.87,9.73A4.87,4.87,0,0,0,329,370Zm21.17-8.58a2.1,2.1,0,1,1,2.1-2.1A2.1,2.1,0,0,1,350.13,361.44Z" transform="translate(-278.49 -19.63)"/></g><g id="Big_data-2" data-name="Big data"><path class="cls-2" d="M542.53,355.19V336a4.19,4.19,0,0,0-2-8.12,4.12,4.12,0,0,0-1.78,1l-17.21-9.93a4,4,0,0,0,0-.6,4.2,4.2,0,0,0-8.39,0,3.05,3.05,0,0,0,.06.6L496,328.84a4.18,4.18,0,1,0-5.6,6.22,4.13,4.13,0,0,0,1.76.94v19.19a4.19,4.19,0,0,0,2,8.12,4.27,4.27,0,0,0,1.78-.95l17.21,9.93a3.81,3.81,0,0,0-.05.59,4.2,4.2,0,1,0,8.39,0,2.88,2.88,0,0,0-.06-.59l17.21-9.93a4.19,4.19,0,0,0,5.6-6.23A4.3,4.3,0,0,0,542.53,355.19Zm-15.3,3,2.56-4.35,7.65,4.32v0Zm-30,0v0l7.65-4.32,2.56,4.35ZM507.46,333l-2.56,4.36L497.25,333v0Zm30,0v0l-7.65,4.32L527.23,333Zm2.9,22.22-5.67-9.62,5.68-9.63.1,0v19.19Zm-1.86,1.11-7.61-4.3,2.58-4.37,5.07,8.61Zm-17.09-11.82L529,340.2l3.19,5.4L529,351l-7.65-4.32a3.82,3.82,0,0,0,0-2.17Zm17.13-9.59-5.07,8.61-2.58-4.37,7.61-4.3ZM528,338.39l-7.6,4.3a4.14,4.14,0,0,0-2-1.14V333h6.4Zm-10.62,9.31a2.1,2.1,0,1,1,2.1-2.1A2.09,2.09,0,0,1,517.34,347.7Zm1-16.79v-8.55l.1,0,5.06,8.58Zm-2.1-8.55v8.55h-5.15l5.05-8.58Zm0,10.64v8.55a4.22,4.22,0,0,0-2,1.13l-7.61-4.3L509.9,333Zm-20.12,23.27,5.08-8.6,2.58,4.36-7.61,4.3Zm6.3-10.67,3.19-5.4,7.65,4.31a3.65,3.65,0,0,0,0,2.17L505.66,351Zm-6.25-10.73,7.61,4.3-2.58,4.37-5.08-8.61S496.2,334.88,496.22,334.87Zm-1.86,1.1L500,345.6l-5.67,9.62-.1,0V336Zm12.36,16.84,7.61-4.3a4.33,4.33,0,0,0,2,1.14v8.54H509.9Zm9.57,7.48v8.54l-.1,0-5.05-8.57Zm2.1,8.54v-8.54h5.16l-5,8.57Zm0-10.64v-8.54a4.31,4.31,0,0,0,2-1.14l7.6,4.3-3.17,5.38Zm23.09-28.33a2.1,2.1,0,1,1-2.1,2.09A2.1,2.1,0,0,1,541.48,329.86Zm-4,.73c0,.11-.07.21-.1.32H526l-5.68-9.63a3.54,3.54,0,0,0,.35-.42Zm-20.19-14.38a2.1,2.1,0,1,1-2.09,2.1A2.1,2.1,0,0,1,517.34,316.21Zm-3,5.07-5.68,9.63H497.26c0-.11-.06-.21-.1-.32L514,320.86A3.39,3.39,0,0,0,514.38,321.28ZM491.11,332a2.1,2.1,0,1,1,2.1,2.1A2.1,2.1,0,0,1,491.11,332Zm2.1,29.39a2.1,2.1,0,1,1,2.1-2.1A2.1,2.1,0,0,1,493.21,361.34Zm4-.74.1-.31H508.7l5.68,9.62a3.47,3.47,0,0,0-.35.43ZM517.34,375a2.1,2.1,0,1,1,2.1-2.1A2.09,2.09,0,0,1,517.34,375Zm3-5.07,5.68-9.62h11.44c0,.1.06.21.1.31l-16.87,9.74A4.7,4.7,0,0,0,520.31,369.91Zm21.17-8.57a2.1,2.1,0,1,1,2.1-2.1A2.1,2.1,0,0,1,541.48,361.34Z" transform="translate(-278.49 -19.63)"/></g><g id="Big_data-3" data-name="Big data"><path class="cls-2" d="M733.9,355.22V336a4.19,4.19,0,1,0-3.84-7.17l-17.21-9.93a3.93,3.93,0,0,0,.06-.59,4.2,4.2,0,1,0-8.4,0,5.9,5.9,0,0,0,.06.59l-17.21,9.93a4.19,4.19,0,1,0-3.83,7.17v19.18a4.19,4.19,0,1,0,2.05,8.12,4.11,4.11,0,0,0,1.78-.95l17.21,9.93c0,.2-.05.4-.06.59a4.2,4.2,0,1,0,8.4,0c0-.19,0-.39-.06-.59l17.21-9.93a4.18,4.18,0,1,0,5.59-6.22A4.11,4.11,0,0,0,733.9,355.22Zm-15.31,3,2.57-4.35,7.65,4.32v0Zm-30,0v0l7.65-4.32,2.57,4.35ZM698.83,333l-2.57,4.35-7.65-4.32v0Zm30,0v0l-7.65,4.32L718.59,333Zm2.9,22.22L726,345.63,731.7,336l.1,0v19.18Zm-1.87,1.1-7.6-4.3,2.57-4.36,5.08,8.6Zm-17.08-11.81,7.65-4.32,3.18,5.4L720.4,351l-7.65-4.32a3.78,3.78,0,0,0,0-2.16ZM729.88,335l-5.08,8.6-2.57-4.36,7.6-4.3Zm-10.55,3.46-7.61,4.3a4.14,4.14,0,0,0-2-1.14V333h6.4Zm-10.62,9.31a2.1,2.1,0,1,1,2.1-2.1A2.1,2.1,0,0,1,708.71,347.73Zm1-16.79V322.4l.1,0,5.06,8.58Zm-2.1-8.54v8.54H702.5l5.06-8.58Zm0,10.64v8.54a4.19,4.19,0,0,0-2,1.14l-7.61-4.3,3.17-5.38Zm-20.12,23.27,5.08-8.61,2.58,4.37-7.61,4.29Zm6.3-10.68,3.18-5.4,7.65,4.32a3.78,3.78,0,0,0,0,2.16L697,351Zm-6.25-10.73,7.61,4.3-2.58,4.37-5.08-8.6ZM685.73,336l5.67,9.62-5.67,9.63-.11,0V336Zm12.36,16.83,7.61-4.3a4.11,4.11,0,0,0,2,1.14v8.54h-6.4Zm9.57,7.48v8.55l-.1,0-5.06-8.58Zm2.1,8.55v-8.55h5.16l-5.06,8.58Zm0-10.65v-8.54a4.11,4.11,0,0,0,2-1.14l7.61,4.3-3.17,5.38Zm23.09-28.33a2.1,2.1,0,1,1-2.1,2.1A2.09,2.09,0,0,1,732.85,329.89Zm-4,.73c0,.11-.07.21-.1.32H717.36l-5.68-9.63c.12-.13.24-.27.35-.41Zm-20.19-14.37a2.1,2.1,0,1,1-2.1,2.1A2.1,2.1,0,0,1,708.71,316.25Zm-3,5.06-5.67,9.63H688.63c0-.11-.06-.21-.1-.32l16.86-9.73A4.87,4.87,0,0,0,705.74,321.31ZM682.48,332a2.1,2.1,0,1,1,2.09,2.1A2.1,2.1,0,0,1,682.48,332Zm2.09,29.38a2.1,2.1,0,1,1,2.1-2.1A2.1,2.1,0,0,1,684.57,361.37Zm3.95-.73c0-.11.07-.21.1-.32h11.45l5.67,9.63a4.87,4.87,0,0,0-.35.42ZM708.71,375a2.1,2.1,0,1,1,2.1-2.1A2.1,2.1,0,0,1,708.71,375Zm3-5.06,5.67-9.63H728.8c0,.11.06.21.1.32L712,370.37A4.87,4.87,0,0,0,711.68,370Zm21.17-8.58a2.1,2.1,0,1,1,2.09-2.1A2.1,2.1,0,0,1,732.85,361.37Z" transform="translate(-278.49 -19.63)"/></g><g id="Big_data-4" data-name="Big data"><path class="cls-2" d="M925.24,355.12V335.93a4.19,4.19,0,1,0-3.83-7.16l-17.21-9.94a3.81,3.81,0,0,0,0-.59,4.2,4.2,0,1,0-8.39,0,2.88,2.88,0,0,0,.06.59l-17.21,9.94a4.18,4.18,0,0,0-5.6,6.22,4.24,4.24,0,0,0,1.76.94v19.19a4.19,4.19,0,0,0,2,8.12,4.12,4.12,0,0,0,1.78-1l17.21,9.94a3.81,3.81,0,0,0,0,.59,4.2,4.2,0,1,0,8.39,0,2.88,2.88,0,0,0-.06-.59l17.21-9.94a4.18,4.18,0,1,0,5.6-6.22A4.24,4.24,0,0,0,925.24,355.12Zm-15.3,3,2.56-4.35,7.65,4.32v0Zm-30,0v0l7.65-4.32,2.56,4.35Zm10.2-25.19-2.56,4.35L880,333v0Zm30,0v0l-7.65,4.31-2.56-4.35Zm2.9,22.22-5.67-9.62,5.68-9.63.1,0v19.19Zm-1.86,1.11-7.61-4.3,2.58-4.37,5.07,8.61A.21.21,0,0,1,921.18,356.26Zm-17.09-11.82,7.65-4.32,3.19,5.41-3.19,5.4-7.65-4.32a3.65,3.65,0,0,0,0-2.17Zm17.13-9.59-5.07,8.61-2.58-4.37,7.61-4.3A.21.21,0,0,1,921.22,334.85Zm-10.54,3.46-7.61,4.31a4.14,4.14,0,0,0-2-1.14v-8.55h6.41Zm-10.62,9.31a2.1,2.1,0,1,1,2.09-2.09A2.1,2.1,0,0,1,900.06,347.62Zm1-16.79v-8.54l.1,0,5.06,8.57ZM899,322.29v8.54h-5.16l5.06-8.57Zm0,10.64v8.55a4.2,4.2,0,0,0-2,1.13l-7.61-4.3,3.18-5.38ZM878.89,356.2l5.07-8.61,2.58,4.37-7.61,4.3Zm6.29-10.67,3.19-5.41,7.65,4.32a3.65,3.65,0,0,0,0,2.17l-7.65,4.32Zm-6.25-10.73,7.61,4.3L884,343.47l-5.07-8.61A.09.09,0,0,1,878.93,334.8Zm-1.86,1.1,5.68,9.63-5.68,9.62-.1,0V335.93Zm12.36,16.83,7.61-4.29a4.2,4.2,0,0,0,2,1.13v8.55h-6.4Zm9.58,7.49v8.54l-.1,0-5.06-8.57Zm2.09,8.54v-8.54h5.16l-5,8.57Zm0-10.64v-8.55a4.2,4.2,0,0,0,2-1.13l7.61,4.29-3.17,5.39Zm23.09-28.34a2.1,2.1,0,1,1-2.1,2.1A2.1,2.1,0,0,1,924.19,329.78Zm-4,.74c0,.1-.07.21-.1.31H908.7L903,321.21a3.54,3.54,0,0,0,.35-.42Zm-20.18-14.38a2.1,2.1,0,1,1-2.1,2.1A2.1,2.1,0,0,1,900.06,316.14Zm-3,5.07-5.68,9.62H880a1.86,1.86,0,0,0-.1-.31l16.87-9.74A4.7,4.7,0,0,0,897.09,321.21Zm-23.27,10.67a2.1,2.1,0,1,1,2.1,2.1A2.1,2.1,0,0,1,873.82,331.88Zm2.1,29.39a2.1,2.1,0,1,1,2.1-2.1A2.1,2.1,0,0,1,875.92,361.27Zm4-.74c0-.1.07-.21.1-.31h11.44l5.68,9.62a4.7,4.7,0,0,0-.35.43Zm20.19,14.38a2.1,2.1,0,1,1,2.09-2.1A2.1,2.1,0,0,1,900.06,374.91Zm3-5.07,5.68-9.62h11.44c0,.1.06.21.1.31l-16.87,9.74A4.7,4.7,0,0,0,903,369.84Zm21.17-8.57a2.1,2.1,0,1,1,2.1-2.1A2.1,2.1,0,0,1,924.19,361.27Z" transform="translate(-278.49 -19.63)"/></g><g id="Big_data-5" data-name="Big data"><path class="cls-2" d="M1116.54,355.26V336.07a4.18,4.18,0,1,0-2.06-8.11,4.11,4.11,0,0,0-1.78,1L1095.49,319a3.05,3.05,0,0,0,.06-.6,4.2,4.2,0,0,0-8.39,0,3.05,3.05,0,0,0,.06.6L1070,328.91a4.18,4.18,0,1,0-5.6,6.22,4.13,4.13,0,0,0,1.76.94v19.19a4.19,4.19,0,0,0,2,8.12,4.33,4.33,0,0,0,1.78-.95l17.21,9.93a3.81,3.81,0,0,0,0,.59,4.2,4.2,0,1,0,8.39,0,2.88,2.88,0,0,0-.06-.59l17.21-9.93a4.19,4.19,0,0,0,5.6-6.23A4.3,4.3,0,0,0,1116.54,355.26Zm-15.3,3,2.56-4.35,7.65,4.32v0Zm-30,0v0l7.64-4.32,2.57,4.35Zm10.2-25.19-2.57,4.36-7.64-4.32v0Zm30,0v0l-7.65,4.32-2.56-4.36Zm2.9,22.22-5.67-9.62,5.67-9.63.1,0v19.19Zm-1.86,1.11-7.61-4.3,2.57-4.37,5.08,8.61Zm-17.09-11.81,7.65-4.32,3.19,5.4-3.19,5.4-7.65-4.32a3.78,3.78,0,0,0,0-2.16Zm17.13-9.6-5.08,8.61-2.57-4.37,7.61-4.3A.15.15,0,0,0,1112.52,335ZM1102,338.46l-7.61,4.3a4.06,4.06,0,0,0-2-1.14v-8.55h6.4Zm-10.62,9.31a2.1,2.1,0,1,1,2.1-2.1A2.1,2.1,0,0,1,1091.35,347.77ZM1092.4,331v-8.55l.1,0,5.06,8.58Zm-2.1-8.55V331h-5.15l5-8.58Zm0,10.64v8.55a4.16,4.16,0,0,0-2,1.14l-7.61-4.31,3.18-5.38Zm-20.12,23.27,5.08-8.6,2.58,4.36-7.61,4.3Zm6.3-10.67,3.19-5.4,7.65,4.32a3.62,3.62,0,0,0,0,2.16l-7.65,4.32Zm-6.25-10.73,7.61,4.3-2.58,4.37-5.08-8.61Zm-1.86,1.1,5.67,9.63-5.67,9.62-.1,0V336.07Zm12.36,16.84,7.61-4.3a4.33,4.33,0,0,0,2,1.14v8.54h-6.39Zm9.57,7.48v8.54l-.1,0-5-8.57Zm2.1,8.54v-8.54h5.16l-5,8.57Zm0-10.64v-8.54a4.23,4.23,0,0,0,2-1.14l7.61,4.3-3.17,5.38Zm23.09-28.33a2.1,2.1,0,1,1-2.1,2.1A2.1,2.1,0,0,1,1115.49,329.93Zm-4,.73c0,.11-.07.21-.1.32H1100l-5.68-9.63a4.87,4.87,0,0,0,.35-.42Zm-20.19-14.38a2.1,2.1,0,1,1-2.1,2.1A2.1,2.1,0,0,1,1091.35,316.28Zm-3,5.07-5.68,9.63h-11.44c0-.11-.06-.21-.1-.32l16.87-9.73A2.79,2.79,0,0,0,1088.39,321.35ZM1065.12,332a2.1,2.1,0,1,1,2.1,2.09A2.1,2.1,0,0,1,1065.12,332Zm2.1,29.38a2.1,2.1,0,1,1,2.1-2.1A2.1,2.1,0,0,1,1067.22,361.41Zm4-.74.1-.31h11.44l5.68,9.62a3.47,3.47,0,0,0-.35.43Zm20.18,14.38a2.1,2.1,0,1,1,2.1-2.1A2.1,2.1,0,0,1,1091.35,375.05Zm3-5.07,5.68-9.62h11.44c0,.1.06.21.1.31l-16.87,9.74C1094.56,370.26,1094.44,370.12,1094.32,370Zm21.17-8.57a2.1,2.1,0,1,1,2.1-2.1A2.1,2.1,0,0,1,1115.49,361.41Z" transform="translate(-278.49 -19.63)"/></g><g id="Sharing"><path class="cls-5" d="M925.51,462.78h-.94v-.95a2.83,2.83,0,0,0-2.83-2.83H874.49a2.83,2.83,0,0,0-2.83,2.83V494a2.83,2.83,0,0,0,2.83,2.83h1v4.73a2.83,2.83,0,0,0,2.83,2.83h17.48l-3.94,9.45h-3.15v1.89h26.46V513.8H912L908,504.35h17.48a2.84,2.84,0,0,0,2.84-2.83V465.61A2.84,2.84,0,0,0,925.51,462.78Zm-51,32.13a1,1,0,0,1-.94-1V461.83a.94.94,0,0,1,.94-.94h47.25a.94.94,0,0,1,.94.94v.95H875.44v32.13Zm48.19-26.46H877.33v-3.78h45.35Zm0,1.89V494a1,1,0,0,1-.94,1H877.33V470.34ZM909.92,513.8H893.86l3.94-9.45H906Zm16.54-12.28a.94.94,0,0,1-1,.94H878.27a.94.94,0,0,1-.94-.94v-4.73h44.41a2.83,2.83,0,0,0,2.83-2.83V464.67h.94a.94.94,0,0,1,1,.94Z" transform="translate(-278.49 -19.63)"/><rect class="cls-5" x="604.5" y="445.98" width="1.89" height="1.89"/><rect class="cls-5" x="608.28" y="445.98" width="1.89" height="1.89"/><rect class="cls-5" x="600.72" y="445.98" width="1.89" height="1.89"/><rect class="cls-5" x="622.45" y="479.06" width="1.89" height="1.89"/><rect class="cls-5" x="626.23" y="479.06" width="1.89" height="1.89"/><rect class="cls-5" x="618.68" y="479.06" width="1.89" height="1.89"/><rect class="cls-5" x="638.52" y="494.17" width="1.89" height="1.89"/><rect class="cls-5" x="606.39" y="494.17" width="1.89" height="1.89"/><path class="cls-5" d="M891.5,474.12h-4.33l-1.89-1.89h-3.23v9.45h9.45Zm-1.89,5.67h-5.67v-5.67h.55l1.89,1.89h3.23Z" transform="translate(-278.49 -19.63)"/><path class="cls-5" d="M891.5,493v-7.56h-4.33l-1.89-1.89h-3.23V493Zm-7.56-7.56h.55l1.89,1.89h3.23v3.78h-5.67Z" transform="translate(-278.49 -19.63)"/><path class="cls-5" d="M904.73,474.12h-4.34l-1.89-1.89h-3.22v9.45h9.45Zm-1.89,5.67h-5.67v-5.67h.55l1.89,1.89h3.23Z" transform="translate(-278.49 -19.63)"/><path class="cls-5" d="M904.73,485.46h-4.34l-1.89-1.89h-3.22V493h9.45Zm-1.89,5.67h-5.67v-5.67h.55l1.89,1.89h3.23Z" transform="translate(-278.49 -19.63)"/><path class="cls-5" d="M918,474.12h-4.34l-1.89-1.89h-3.22v9.45H918Zm-1.89,5.67H910.4v-5.67H911l1.89,1.89h3.23Z" transform="translate(-278.49 -19.63)"/><path class="cls-5" d="M918,485.46h-4.34l-1.89-1.89h-3.22V493H918Zm-1.89,5.67H910.4v-5.67H911l1.89,1.89h3.23Z" transform="translate(-278.49 -19.63)"/></g><path class="cls-5" d="M1111.16,474.49a16.06,16.06,0,0,0-31.53-3.69,13.22,13.22,0,1,0-3.4,26h1.88v5.67h-3.77a.94.94,0,0,0-.95.94,1,1,0,0,0,.22.61l9.45,11.33a.94.94,0,0,0,1.33.12l.12-.12L1094,504a.95.95,0,0,0-.72-1.55h-3.78V496.8h1.89v2.83a.94.94,0,0,0,.94.95h9.45a.94.94,0,0,0,.94-.95V496.8h5.67a11.33,11.33,0,0,0,2.82-22.31Zm-20,29.87-7.43,8.91-7.43-8.91h2.71a1,1,0,0,0,.94-.95V481.69h7.56v21.72a1,1,0,0,0,.94.95Zm9.57-5.67h-7.55V477a1,1,0,0,0-1-1h-2.7l7.42-8.91,7.43,8.91h-2.7a1,1,0,0,0-1,1Zm7.56-3.78h-5.67v-17h3.78a.94.94,0,0,0,.94-.94.92.92,0,0,0-.22-.61L1097.73,465a1,1,0,0,0-1.38-.08l-.07.08-9.45,11.33a.94.94,0,0,0,.13,1.33.92.92,0,0,0,.6.22h3.78v17h-1.89V480.74a.94.94,0,0,0-1-.94h-9.44a1,1,0,0,0-1,.94v14.17h-1.88a11.34,11.34,0,1,1,3.77-22,1,1,0,0,0,1.21-.57c0-.05,0-.09,0-.13a14.16,14.16,0,0,1,28,2.89v.17a1,1,0,0,0,.78.93,9.44,9.44,0,0,1-1.72,18.73Z" transform="translate(-278.49 -19.63)"/><path class="cls-1" d="M666.14,62.15H331.48c-3,0-5.42,1.31-5.42,2.94L326,161.36" transform="translate(-278.49 -19.63)"/><line class="cls-1" x1="430.17" y1="85.04" x2="430.17" y2="141.73"/><path class="cls-1" d="M677.89,76.32H523.78c-3.56,0-6.45,1.28-6.45,2.85v82.19" transform="translate(-278.49 -19.63)"/><path class="cls-1" d="M751.18,62.15h335c2.84,0,5.14,1.25,5.14,2.79v96.42" transform="translate(-278.49 -19.63)"/><text class="cls-6" transform="translate(21.05 238.46)">Servicio de<tspan x="-2.4" y="9.6">Autenticidad</tspan></text><text class="cls-6" transform="translate(207.63 243.6)">Base de datos</text><text class="cls-6" transform="translate(422.97 243.6)">API</text><text class="cls-6" transform="translate(587.91 243.6)">Almacenamiento</text><text class="cls-6" transform="translate(796.05 243.6)">Reporte</text><text class="cls-6" transform="translate(4.3 385.34)">Función de cálculo</text><text class="cls-6" transform="translate(195.63 385.34)">Función de cálculo</text><text class="cls-6" transform="translate(386.97 385.33)">Función de cálculo</text><text class="cls-6" transform="translate(578.31 385.33)">Función de cálculo</text><text class="cls-6" transform="translate(769.44 385.34)">Función de cálculo</text><text class="cls-6" transform="translate(28.29 527.07)">Servicio</text><text class="cls-6" transform="translate(219.63 527.07)">Servicio</text><text class="cls-6" transform="translate(410.97 527.07)">Servicio</text><text class="cls-6" transform="translate(602.31 527.07)">Servicio</text><text class="cls-6" transform="translate(793.65 527.07)">Servicio</text><line class="cls-7" x1="238.83" y1="255.12" x2="238.83" y2="283.46"/><line class="cls-7" x1="430.22" y1="255.12" x2="430.17" y2="283.46"/><line class="cls-7" x1="812.85" y1="396.85" x2="812.85" y2="425.2"/><line class="cls-7" x1="621.56" y1="396.85" x2="621.47" y2="425.2"/><line class="cls-7" x1="430.17" y1="396.85" x2="430.17" y2="425.2"/><line class="cls-7" x1="238.83" y1="396.85" x2="238.83" y2="425.2"/><line class="cls-7" x1="47.45" y1="396.85" x2="47.45" y2="425.2"/><g id="Money_exchange" data-name="Money exchange"><path class="cls-5" d="M329.76,472.23H326a.95.95,0,0,1,0-1.89h3.78a.95.95,0,1,1,0,1.89Z" transform="translate(-278.49 -19.63)"/><path class="cls-5" d="M340.15,483.57H298.58a1,1,0,0,1-.95-.95V459.94a1,1,0,0,1,.95-.94h41.57a.94.94,0,0,1,1,.94v22.68A1,1,0,0,1,340.15,483.57Zm-40.63-1.89h39.69V460.89H299.52Z" transform="translate(-278.49 -19.63)"/><path class="cls-5" d="M333.54,480.73H305.19a.94.94,0,0,1-.94-.94,2.84,2.84,0,0,0-2.84-2.84.94.94,0,0,1-.94-.94v-9.45a1,1,0,0,1,.94-.95,2.84,2.84,0,0,0,2.84-2.83,1,1,0,0,1,.94-.95h28.35a1,1,0,0,1,.95.95,2.83,2.83,0,0,0,2.83,2.83,1,1,0,0,1,.94.95V476a.94.94,0,0,1-.94.94,2.83,2.83,0,0,0-2.83,2.84A1,1,0,0,1,333.54,480.73ZM306,478.84h26.65a4.73,4.73,0,0,1,3.69-3.68v-7.75a4.73,4.73,0,0,1-3.69-3.69H306a4.73,4.73,0,0,1-3.68,3.69v7.75A4.73,4.73,0,0,1,306,478.84Z" transform="translate(-278.49 -19.63)"/><path class="cls-5" d="M354.05,482.9a1,1,0,0,0-1.34,0l-1.22,1.22V468.45a4.73,4.73,0,0,0-4.72-4.73h-2.84a.95.95,0,0,0,0,1.89h2.84a2.84,2.84,0,0,1,2.83,2.84v15.67l-1.22-1.22a.94.94,0,0,0-1.33,0,.93.93,0,0,0,0,1.31l2.83,2.84a1,1,0,0,0,1.34,0l2.83-2.84A.94.94,0,0,0,354.05,482.9Z" transform="translate(-278.49 -19.63)"/><path class="cls-5" d="M312.75,472.23H309a.95.95,0,0,1,0-1.89h3.78a.95.95,0,1,1,0,1.89Z" transform="translate(-278.49 -19.63)"/><path class="cls-5" d="M349.6,489.24H317.48a4.73,4.73,0,0,0-4.73,4.72v17a4.73,4.73,0,0,0,4.73,4.72H349.6a4.73,4.73,0,0,0,4.73-4.72V494A4.73,4.73,0,0,0,349.6,489.24Zm-32.12,1.89H349.6a2.83,2.83,0,0,1,2.84,2.83v1h-37.8v-1A2.83,2.83,0,0,1,317.48,491.13Zm35,7.55h-37.8v-1.89h37.8ZM349.6,513.8H317.48a2.84,2.84,0,0,1-2.84-2.83v-10.4h37.8V511A2.84,2.84,0,0,1,349.6,513.8Z" transform="translate(-278.49 -19.63)"/><path class="cls-5" d="M309.92,507.19h-4.73a2.84,2.84,0,0,1-2.83-2.84V488.68l1.22,1.22a.94.94,0,0,0,1.34,0,1,1,0,0,0,0-1.31l-2.84-2.84a.94.94,0,0,0-1.33,0l-2.84,2.84a.94.94,0,0,0,1.34,1.33l1.22-1.22v15.67a4.73,4.73,0,0,0,4.72,4.73h4.73a.95.95,0,0,0,0-1.89Z" transform="translate(-278.49 -19.63)"/><path class="cls-5" d="M346.77,504.35a3.78,3.78,0,0,0-2.35.85,3.78,3.78,0,1,0,0,5.87,3.77,3.77,0,1,0,2.35-6.72Zm-6.62,3.78a1.89,1.89,0,0,1,3.12-1.43,3.73,3.73,0,0,0,0,2.86A1.84,1.84,0,0,1,342,510,1.89,1.89,0,0,1,340.15,508.13Zm6.62,1.89a1.89,1.89,0,1,1,1.89-1.89A1.89,1.89,0,0,1,346.77,510Z" transform="translate(-278.49 -19.63)"/><path class="cls-5" d="M326,504.35h-6.61a1.89,1.89,0,0,0-1.89,1.89V510a1.88,1.88,0,0,0,1.89,1.89H326a1.88,1.88,0,0,0,1.89-1.89v-3.78A1.89,1.89,0,0,0,326,504.35Zm0,2.84h-1.89v-.95H326Zm-6.61-.95h2.83V510h-2.83Zm4.72,3.78v-.94H326V510Z" transform="translate(-278.49 -19.63)"/><path class="cls-5" d="M319.37,470.34a.95.95,0,1,1,0-1.89.94.94,0,0,1,.94.94.95.95,0,1,0,1.89,0,2.83,2.83,0,0,0-1.89-2.66v-1.12a.95.95,0,0,0-1.89,0v1.12a2.83,2.83,0,0,0,.95,5.5.95.95,0,0,1,0,1.89,1,1,0,0,1-.95-.95.95.95,0,0,0-1.89,0,2.84,2.84,0,0,0,1.93,2.67,1,1,0,0,0,0,.17V477a.95.95,0,1,0,1.89,0V476a.51.51,0,0,0,0-.17,2.82,2.82,0,0,0-.91-5.5Z" transform="translate(-278.49 -19.63)"/></g><circle class="cls-8" cx="430.18" cy="42.52" r="42.52"/><g id="Could_server" data-name="Could server"><path class="cls-9" d="M694.8,51.76h1.89v3.77H694.8Z" transform="translate(-278.49 -19.63)"/><path class="cls-9" d="M698.58,51.76h1.89v3.77h-1.89Z" transform="translate(-278.49 -19.63)"/><path class="cls-9" d="M702.36,51.76h1.89v3.77h-1.89Z" transform="translate(-278.49 -19.63)"/><path class="cls-9" d="M709.92,51.76h1.89v3.77h-1.89Z" transform="translate(-278.49 -19.63)"/><path class="cls-9" d="M706.14,51.76H708v3.77h-1.89Z" transform="translate(-278.49 -19.63)"/><path class="cls-9" d="M698.58,65h1.89v3.78h-1.89Z" transform="translate(-278.49 -19.63)"/><path class="cls-9" d="M694.8,65h1.89v3.78H694.8Z" transform="translate(-278.49 -19.63)"/><path class="cls-9" d="M702.36,65h1.89v3.78h-1.89Z" transform="translate(-278.49 -19.63)"/><path class="cls-9" d="M706.14,65H708v3.78h-1.89Z" transform="translate(-278.49 -19.63)"/><path class="cls-9" d="M709.92,65h1.89v3.78h-1.89Z" transform="translate(-278.49 -19.63)"/><path class="cls-9" d="M694.8,78.21h1.89V82H694.8Z" transform="translate(-278.49 -19.63)"/><path class="cls-9" d="M698.58,78.21h1.89V82h-1.89Z" transform="translate(-278.49 -19.63)"/><path class="cls-9" d="M702.36,78.21h1.89V82h-1.89Z" transform="translate(-278.49 -19.63)"/><path class="cls-9" d="M706.14,78.21H708V82h-1.89Z" transform="translate(-278.49 -19.63)"/><path class="cls-9" d="M709.92,78.21h1.89V82h-1.89Z" transform="translate(-278.49 -19.63)"/><path class="cls-9" d="M723.15,51.76a1,1,0,0,0-.95-.95h-7.56a.94.94,0,0,0-.94.95v3.77a.94.94,0,0,0,.94.95h7.56a1,1,0,0,0,.95-.95Zm-1.89,2.83h-5.67V52.7h5.67Z" transform="translate(-278.49 -19.63)"/><path class="cls-9" d="M722.2,64h-7.56a.94.94,0,0,0-.94.94v3.78a.94.94,0,0,0,.94.95h7.56a1,1,0,0,0,.95-.95V65A1,1,0,0,0,722.2,64Zm-.94,3.78h-5.67V65.93h5.67Z" transform="translate(-278.49 -19.63)"/><path class="cls-9" d="M714.64,82.94h7.56a1,1,0,0,0,.95-1V78.21a1,1,0,0,0-.95-.94h-7.56a.94.94,0,0,0-.94.94V82A1,1,0,0,0,714.64,82.94Zm1-3.78h5.67v1.89h-5.67Z" transform="translate(-278.49 -19.63)"/><path class="cls-9" d="M730.7,49v-.08a6.63,6.63,0,0,0-8.29-6.41,14.18,14.18,0,0,0-26.88,0,6.63,6.63,0,0,0-8.08,4.75,6.55,6.55,0,0,0-.21,1.65V49a11.33,11.33,0,0,0,3.94,21.6,2.83,2.83,0,0,0,2.67,1.93h.95v1.89h-.95A2.84,2.84,0,0,0,691,77.27v5.67a2.83,2.83,0,0,0,2.83,2.83h.95v2.84a.94.94,0,0,0,.94.94H722.2a1,1,0,0,0,.95-.94V85.77h.94a2.84,2.84,0,0,0,2.84-2.83h0V77.27a2.84,2.84,0,0,0-2.84-2.84h-.94V72.54h.94a2.82,2.82,0,0,0,2.67-1.93H727A11.33,11.33,0,0,0,730.7,49Zm-9.44,38.65H696.69V85.77h24.57Zm2.83-11.34a1,1,0,0,1,.95,1v5.67a1,1,0,0,1-.95.94H693.85a.94.94,0,0,1-.94-.94V77.27a1,1,0,0,1,.94-1Zm-2.83-1.89H696.69V72.54h24.57Zm2.83-3.78H693.85a.94.94,0,0,1-.94-.94V64a1,1,0,0,1,.94-1h30.24a1,1,0,0,1,.95,1v5.67A1,1,0,0,1,724.09,70.65Zm-27.4-11.34h24.57V61.2H696.69Zm-2.84-1.89a.94.94,0,0,1-.94-.94V50.81a.94.94,0,0,1,.94-.94h30.24a1,1,0,0,1,.95.94v5.67a1,1,0,0,1-.95.94Zm33.08,11.29V64a2.84,2.84,0,0,0-2.84-2.84h-.94V59.31h.94a2.83,2.83,0,0,0,2.84-2.83V50.81A2.83,2.83,0,0,0,724.09,48H693.85A2.83,2.83,0,0,0,691,50.81v5.67a2.83,2.83,0,0,0,2.83,2.83h.95V61.2h-.95A2.84,2.84,0,0,0,691,64v4.68a9.45,9.45,0,0,1-2.46-18.22.93.93,0,0,0,.6-1,4.7,4.7,0,0,1,4.05-5.26,3.44,3.44,0,0,1,.64,0,4.49,4.49,0,0,1,1.91.4,1,1,0,0,0,1.26-.46,1,1,0,0,0,.05-.16,12.29,12.29,0,0,1,23.8,0,1,1,0,0,0,1.15.68,1,1,0,0,0,.16-.06,4.49,4.49,0,0,1,1.91-.4,4.7,4.7,0,0,1,4.73,4.66c0,.22,0,.43,0,.64a.93.93,0,0,0,.6,1,9.44,9.44,0,0,1-2.45,18.21Z" transform="translate(-278.49 -19.63)"/></g><line class="cls-1" x1="664.06" y1="325.98" x2="770.36" y2="325.98"/></svg>