<svg id="Capa_1" data-name="Capa 1" xmlns="http://www.w3.org/2000/svg" viewBox="0 0 860.34 529.08"><defs><style>.cls-1{fill:none;}.cls-1,.cls-7{stroke:#050006;stroke-miterlimit:10;stroke-width:0.25px;}.cls-2{fill:#263238;}.cls-3{fill:#455a64;}.cls-4{fill:#e0e0e0;}.cls-5{fill:#fafafa;}.cls-6{font-size:8px;font-family:IBMPlexMono, IBM Plex Mono;}.cls-6,.cls-7{fill:#211915;}.cls-8{fill:#e8505b;}.cls-9{fill:#fbfbfb;}</style></defs><line class="cls-1" x1="90.01" y1="325.98" x2="196.31" y2="325.98"/><line class="cls-1" x1="472.69" y1="325.98" x2="578.99" y2="325.98"/><line class="cls-1" x1="578.99" y1="325.98" x2="621.51" y2="325.98"/><circle class="cls-2" cx="238.83" cy="184.25" r="42.52"/><circle class="cls-2" cx="430.17" cy="184.25" r="42.52"/><circle class="cls-2" cx="621.51" cy="184.25" r="42.52"/><circle class="cls-2" cx="812.85" cy="184.25" r="42.52"/><circle class="cls-2" cx="47.49" cy="184.25" r="42.52"/><circle class="cls-3" cx="238.83" cy="325.98" r="42.52"/><circle class="cls-3" cx="430.17" cy="325.98" r="42.52"/><circle class="cls-3" cx="621.51" cy="325.98" r="42.52"/><circle class="cls-3" cx="812.85" cy="325.98" r="42.52"/><circle class="cls-3" cx="47.49" cy="325.98" r="42.52"/><path class="cls-1" d="M453.54,76.32H610c3.58,0,6.49,1.27,6.49,2.82l.09,82.22" transform="translate(4.97 -19.63)"/><circle class="cls-4" cx="238.83" cy="467.72" r="42.52"/><circle class="cls-4" cx="430.17" cy="467.72" r="42.52"/><circle class="cls-4" cx="621.51" cy="467.72" r="42.52"/><circle class="cls-4" cx="812.85" cy="467.72" r="42.52"/><circle class="cls-4" cx="47.49" cy="467.72" r="42.52"/><g id="System_protect" data-name="System protect"><path class="cls-3" d="M67,216.41v-26.3a2.84,2.84,0,0,0-2.83-2.84H57.59V176.88a.93.93,0,0,0-1.41-.82l-1.35.77a10.35,10.35,0,0,1-9.8.27L42.89,176a1,1,0,0,0-.85,0l-2.12,1.07a10.35,10.35,0,0,1-9.8-.27l-1.35-.77a.94.94,0,0,0-1.41.82v10.39H20.74a2.84,2.84,0,0,0-2.83,2.84v26.3l-3.78,11.34v2A2.84,2.84,0,0,0,17,232.63H68a2.84,2.84,0,0,0,2.83-2.84v-2ZM49.83,227l-.77-3.07a.94.94,0,0,0-.92-.71H36.8a.93.93,0,0,0-.91.71L35.12,227H16.38l3.15-9.45H65.42L68.57,227Zm-1.95,0H37.07l.47-1.89h9.87ZM29.25,178.51a12.27,12.27,0,0,0,11.52.28l1.7-.85,1.71.86a12.27,12.27,0,0,0,11.52-.29v10.27A21.71,21.71,0,0,1,44.2,208l-1.73.92L40.75,208a21.69,21.69,0,0,1-11.5-19.18Zm10.61,31.12L42,210.78a.94.94,0,0,0,.89,0l2.17-1.15a23.57,23.57,0,0,0,12.12-16.69h4.16v18.9H23.58v-18.9h4.15A23.61,23.61,0,0,0,39.86,209.63ZM19.8,190.11a1,1,0,0,1,.94-1h6.63c0,.64.05,1.27.11,1.89H22.63a1,1,0,0,0-.94.95v20.78a.94.94,0,0,0,.94.95H62.32a.94.94,0,0,0,.94-.95V192a1,1,0,0,0-.94-.95H57.47c.06-.62.1-1.25.11-1.89h6.63a1,1,0,0,1,.94,1v25.51H19.8ZM68,230.74H17a1,1,0,0,1-.94-1v-.94H68.93v.94A1,1,0,0,1,68,230.74Z" transform="translate(4.97 -19.63)"/><path class="cls-3" d="M47.2,219.4h1.89v1.89H47.2Z" transform="translate(4.97 -19.63)"/><path class="cls-3" d="M20.74,219.4h1.89v1.89H20.74Z" transform="translate(4.97 -19.63)"/><path class="cls-3" d="M24.52,219.4h1.89v1.89H24.52Z" transform="translate(4.97 -19.63)"/><path class="cls-3" d="M28.3,219.4h1.89v1.89H28.3Z" transform="translate(4.97 -19.63)"/><path class="cls-3" d="M32.08,219.4H34v1.89H32.08Z" transform="translate(4.97 -19.63)"/><path class="cls-3" d="M51,219.4h1.89v1.89H51Z" transform="translate(4.97 -19.63)"/><path class="cls-3" d="M54.76,219.4h1.89v1.89H54.76Z" transform="translate(4.97 -19.63)"/><path class="cls-3" d="M58.54,219.4h1.89v1.89H58.54Z" transform="translate(4.97 -19.63)"/><path class="cls-3" d="M35.86,219.4h1.89v1.89H35.86Z" transform="translate(4.97 -19.63)"/><path class="cls-3" d="M39.64,219.4h1.89v1.89H39.64Z" transform="translate(4.97 -19.63)"/><path class="cls-3" d="M43.42,219.4h1.89v1.89H43.42Z" transform="translate(4.97 -19.63)"/><path class="cls-3" d="M62.32,219.4h1.89v1.89H62.32Z" transform="translate(4.97 -19.63)"/><path class="cls-3" d="M51,223.18h5.67v1.89H51Z" transform="translate(4.97 -19.63)"/><path class="cls-3" d="M58.54,223.18h1.89v1.89H58.54Z" transform="translate(4.97 -19.63)"/><path class="cls-3" d="M62.32,223.18h1.89v1.89H62.32Z" transform="translate(4.97 -19.63)"/><path class="cls-3" d="M20.74,223.18h1.89v1.89H20.74Z" transform="translate(4.97 -19.63)"/><path class="cls-3" d="M24.52,223.18h1.89v1.89H24.52Z" transform="translate(4.97 -19.63)"/><path class="cls-3" d="M28.3,223.18H34v1.89H28.3Z" transform="translate(4.97 -19.63)"/><path class="cls-3" d="M41.64,206.29l.39.21a.94.94,0,0,0,.89,0l.39-.21a19.8,19.8,0,0,0,10.5-17.51v-6.2a.94.94,0,0,0-.94-.94.65.65,0,0,0-.2,0,14.27,14.27,0,0,1-9.33-1.18l-.45-.22a1,1,0,0,0-.85,0l-.43.22a14.33,14.33,0,0,1-9.33,1.18.93.93,0,0,0-1.12.73.58.58,0,0,0,0,.19v6.2a19.8,19.8,0,0,0,10.5,17.51ZM33,183.71a16.18,16.18,0,0,0,9.43-1.54h0a16.14,16.14,0,0,0,9.42,1.54v5.07a17.9,17.9,0,0,1-9.45,15.81A17.91,17.91,0,0,1,33,188.78Z" transform="translate(4.97 -19.63)"/><path class="cls-3" d="M40.58,196.72a.91.91,0,0,0,.67-.28l7.91-7.9a.95.95,0,0,0-1.32-1.36l0,0-7.24,7.23-2.95-2.95a.94.94,0,0,0-1.33,1.34l3.62,3.61A.91.91,0,0,0,40.58,196.72Z" transform="translate(4.97 -19.63)"/></g><g id="Search_engine" data-name="Search engine"><path class="cls-3" d="M827.37,184.92H804.86a.94.94,0,0,1-.94-.94v-3.75a.94.94,0,0,1,.94-.94h22.51a.94.94,0,0,1,.94.94V184A.94.94,0,0,1,827.37,184.92ZM805.8,183h20.64v-1.88H805.8Z" transform="translate(4.97 -19.63)"/><path class="cls-3" d="M786.09,184.92a2.82,2.82,0,1,1,2.82-2.82A2.81,2.81,0,0,1,786.09,184.92Zm0-3.76a.94.94,0,1,0,.94.94A.94.94,0,0,0,786.09,181.16Z" transform="translate(4.97 -19.63)"/><path class="cls-3" d="M792.66,184.92a2.82,2.82,0,1,1,2.82-2.82A2.81,2.81,0,0,1,792.66,184.92Zm0-3.76a.94.94,0,1,0,.94.94A.94.94,0,0,0,792.66,181.16Z" transform="translate(4.97 -19.63)"/><path class="cls-3" d="M799.23,184.92A2.82,2.82,0,1,1,802,182.1,2.82,2.82,0,0,1,799.23,184.92Zm0-3.76a.94.94,0,1,0,.94.94A.94.94,0,0,0,799.23,181.16Z" transform="translate(4.97 -19.63)"/><path class="cls-3" d="M801.11,201.8H788a.94.94,0,0,1-.94-.93v-7.51a.94.94,0,0,1,.94-.94h35.65a.94.94,0,0,1,.94.94V199a.94.94,0,0,1-1.88,0V194.3H788.91v5.63h12.2a.94.94,0,0,1,0,1.87Z" transform="translate(4.97 -19.63)"/><path class="cls-3" d="M813.3,199.93a9.38,9.38,0,1,0,9.38,9.38A9.38,9.38,0,0,0,813.3,199.93Zm0,16.88a7.51,7.51,0,1,1,7.51-7.5A7.5,7.5,0,0,1,813.3,216.81Z" transform="translate(4.97 -19.63)"/><path class="cls-3" d="M834.8,224.18l-2.74-2.74V178.35a2.81,2.81,0,0,0-2.81-2.81H782.34a2.81,2.81,0,0,0-2.81,2.81v45a2.81,2.81,0,0,0,2.81,2.82h41.21l4.62,4.61a4.69,4.69,0,1,0,6.72-6.55l-.09-.08Zm-53.4-45.83a.94.94,0,0,1,.94-.94h46.91a.94.94,0,0,1,.94.94v8.44H781.4Zm.94,46a.94.94,0,0,1-.94-.94V188.67h48.79v30.89L827.62,217a1,1,0,0,0-1.33,0l-.66.67-2-2a12.24,12.24,0,1,0-4,4l2,2-.66.66a.94.94,0,0,0,0,1.33l.69.69Zm41.28-15A10.32,10.32,0,1,1,813.3,199,10.32,10.32,0,0,1,823.62,209.31Zm-2.39,9.25a11.84,11.84,0,0,0,1.32-1.33l1.76,1.75L823,220.31Zm12.25,10.93a2.89,2.89,0,0,1-4,0L823,223l4-4,6.52,6.52a2.81,2.81,0,0,1,0,4Z" transform="translate(4.97 -19.63)"/><path class="cls-3" d="M798.29,206.49h-7.5a.94.94,0,1,1,0-1.87h7.5a.94.94,0,1,1,0,1.87Z" transform="translate(4.97 -19.63)"/><path class="cls-3" d="M798.29,210.25h-7.5a.94.94,0,0,1,0-1.88h7.5a.94.94,0,0,1,0,1.88Z" transform="translate(4.97 -19.63)"/><path class="cls-3" d="M798.29,214h-7.5a.94.94,0,0,1,0-1.88h7.5a.94.94,0,0,1,0,1.88Z" transform="translate(4.97 -19.63)"/></g><g id="API"><path class="cls-3" d="M448.82,175.54H401.57a4.72,4.72,0,0,0-4.72,4.72V227.5a4.74,4.74,0,0,0,4.72,4.73h47.25a4.73,4.73,0,0,0,4.72-4.73V180.26A4.72,4.72,0,0,0,448.82,175.54Zm-47.25,1.88h47.25a2.84,2.84,0,0,1,2.83,2.84V185H398.74v-4.72A2.84,2.84,0,0,1,401.57,177.42Zm-2.83,50.08V186.87h52.91v18.57a2.88,2.88,0,0,0-1.42.75l-1.92,1.91a11.79,11.79,0,0,0-1.38-.57v-2.7a2.84,2.84,0,0,0-2.84-2.84h-3.78a2.84,2.84,0,0,0-2.83,2.84v2.7a14,14,0,0,0-1.39.57l-1.91-1.91a2.89,2.89,0,0,0-4,0l-2.67,2.67a2.83,2.83,0,0,0,0,4h0l1.91,1.92a13.12,13.12,0,0,0-.58,1.39h-2.7a2.83,2.83,0,0,0-2.83,2.83v3.78a2.83,2.83,0,0,0,2.83,2.83h2.7a13.12,13.12,0,0,0,.58,1.39l-1.91,1.91a2.85,2.85,0,0,0-.76,1.43H401.57A2.84,2.84,0,0,1,398.74,227.5Zm50.08,2.84H428.77l.07-.09,2.4-2.4a.94.94,0,0,0,.16-1.12,12.47,12.47,0,0,1-1-2.33,1,1,0,0,0-.91-.68h-3.38a.94.94,0,0,1-.94-.94V219a1,1,0,0,1,.94-.95h3.38a1,1,0,0,0,.91-.67,12.19,12.19,0,0,1,1-2.33.94.94,0,0,0-.16-1.12l-2.4-2.4a.94.94,0,0,1,0-1.33h0l2.68-2.67a.94.94,0,0,1,1.32,0l2.4,2.4a1,1,0,0,0,1.13.16,12.23,12.23,0,0,1,2.33-1,.93.93,0,0,0,.67-.9v-3.38a.94.94,0,0,1,.94-1h3.78a.94.94,0,0,1,1,1v3.38a.93.93,0,0,0,.67.9,13,13,0,0,1,2.34,1,.94.94,0,0,0,1.11-.16l2.41-2.39a.27.27,0,0,1,.08-.07v20A2.84,2.84,0,0,1,448.82,230.34Z" transform="translate(4.97 -19.63)"/><path class="cls-3" d="M403.46,184a2.84,2.84,0,1,0-2.83-2.84A2.84,2.84,0,0,0,403.46,184Zm0-3.78a.95.95,0,1,1-.94.94A.94.94,0,0,1,403.46,180.26Z" transform="translate(4.97 -19.63)"/><path class="cls-3" d="M410.08,184a2.84,2.84,0,1,0-2.84-2.84A2.84,2.84,0,0,0,410.08,184Zm0-3.78a.95.95,0,0,1,0,1.89.95.95,0,1,1,0-1.89Z" transform="translate(4.97 -19.63)"/><path class="cls-3" d="M416.69,184a2.84,2.84,0,1,0-2.83-2.84A2.84,2.84,0,0,0,416.69,184Zm0-3.78a.95.95,0,1,1-.94.94A.95.95,0,0,1,416.69,180.26Z" transform="translate(4.97 -19.63)"/><path class="cls-3" d="M442.2,213.33a7.56,7.56,0,1,0,7.56,7.56A7.55,7.55,0,0,0,442.2,213.33Zm0,13.23a5.67,5.67,0,1,1,5.67-5.67A5.66,5.66,0,0,1,442.2,226.56Z" transform="translate(4.97 -19.63)"/><path class="cls-3" d="M403.46,203.88a.94.94,0,0,0,1-.94v-4.73h3.78v4.73a.95.95,0,0,0,1.89,0v-8.51a3.78,3.78,0,1,0-7.56,0v8.51A.94.94,0,0,0,403.46,203.88Zm2.84-11.34a1.89,1.89,0,0,1,1.89,1.89v1.89h-3.78v-1.89A1.89,1.89,0,0,1,406.3,192.54Z" transform="translate(4.97 -19.63)"/><path class="cls-3" d="M412.91,203.88a.94.94,0,0,0,.95-.94v-4.73h2.83a2.84,2.84,0,0,0,2.84-2.83v-1.89a2.84,2.84,0,0,0-2.84-2.84h-3.78a1,1,0,0,0-.94.95v11.34A.94.94,0,0,0,412.91,203.88Zm.95-11.34h2.83a1,1,0,0,1,.95,1v1.89a1,1,0,0,1-.95.94h-2.83Z" transform="translate(4.97 -19.63)"/><path class="cls-3" d="M422.36,203.88a1,1,0,0,0,.95-.94V191.6a.95.95,0,1,0-1.89,0v11.34A.94.94,0,0,0,422.36,203.88Z" transform="translate(4.97 -19.63)"/><path class="cls-3" d="M403.46,209.55h18.9a.95.95,0,1,0,0-1.89h-18.9a.95.95,0,0,0,0,1.89Z" transform="translate(4.97 -19.63)"/><path class="cls-3" d="M422.36,213.33h-18.9a.95.95,0,0,0,0,1.89h18.9a.95.95,0,1,0,0-1.89Z" transform="translate(4.97 -19.63)"/><path class="cls-3" d="M419.53,219H403.46a.95.95,0,0,0,0,1.89h16.07a.95.95,0,0,0,0-1.89Z" transform="translate(4.97 -19.63)"/></g><g id="DB_architecture" data-name="DB architecture"><path class="cls-3" d="M221.57,178.37h1.89v3.78h-1.89Z" transform="translate(4.97 -19.63)"/><path class="cls-3" d="M225.35,178.37h1.89v3.78h-1.89Z" transform="translate(4.97 -19.63)"/><path class="cls-3" d="M229.13,178.37H231v3.78h-1.89Z" transform="translate(4.97 -19.63)"/><path class="cls-3" d="M232.91,178.37h1.89v3.78h-1.89Z" transform="translate(4.97 -19.63)"/><path class="cls-3" d="M221.57,188.76h1.89v3.78h-1.89Z" transform="translate(4.97 -19.63)"/><path class="cls-3" d="M225.35,188.76h1.89v3.78h-1.89Z" transform="translate(4.97 -19.63)"/><path class="cls-3" d="M229.13,188.76H231v3.78h-1.89Z" transform="translate(4.97 -19.63)"/><path class="cls-3" d="M232.91,188.76h1.89v3.78h-1.89Z" transform="translate(4.97 -19.63)"/><path class="cls-3" d="M221.57,199.16h1.89v3.78h-1.89Z" transform="translate(4.97 -19.63)"/><path class="cls-3" d="M225.35,199.16h1.89v3.78h-1.89Z" transform="translate(4.97 -19.63)"/><path class="cls-3" d="M229.13,199.16H231v3.78h-1.89Z" transform="translate(4.97 -19.63)"/><path class="cls-3" d="M232.91,199.16h1.89v3.78h-1.89Z" transform="translate(4.97 -19.63)"/><path class="cls-3" d="M262.2,218.05a2.83,2.83,0,0,0-2.83-2.83h-7.56v-2.83a1.89,1.89,0,0,0-1.89-1.89h-13.4a2.87,2.87,0,0,0-1.72-1.72v-3h12.29a2.83,2.83,0,0,0,2.83-2.83v-3.78a2.84,2.84,0,0,0-2.83-2.84h-1v-.94h1a2.84,2.84,0,0,0,2.83-2.84v-3.78a2.83,2.83,0,0,0-2.83-2.83h-1v-1h1a2.83,2.83,0,0,0,2.83-2.83v-3.78a2.83,2.83,0,0,0-2.83-2.83H220.63a2.82,2.82,0,0,0-2.83,2.83v3.78a2.83,2.83,0,0,0,2.83,2.83h.94v1h-.94a2.83,2.83,0,0,0-2.83,2.83v3.78a2.83,2.83,0,0,0,2.83,2.84h.94v.94h-.94a2.83,2.83,0,0,0-2.83,2.84v3.78a2.83,2.83,0,0,0,2.83,2.83h12.28v3a2.83,2.83,0,0,0-1.71,1.72H217.8a1.88,1.88,0,0,0-1.89,1.89v2.83h-7.56a2.84,2.84,0,0,0-2.84,2.83v3.78a2.8,2.8,0,0,0,.74,1.89,2.82,2.82,0,0,0-.74,1.89v3.78a2.84,2.84,0,0,0,2.84,2.84h17a2.84,2.84,0,0,0,2.84-2.84v-3.78a2.82,2.82,0,0,0-.74-1.89,2.8,2.8,0,0,0,.74-1.89v-3.78a2.84,2.84,0,0,0-2.84-2.83H217.8v-2.83h13.4a2.82,2.82,0,0,0,5.32,0h13.4v2.83h-7.56a2.83,2.83,0,0,0-2.83,2.83v3.78a2.79,2.79,0,0,0,.73,1.89,2.81,2.81,0,0,0-.73,1.89v3.78a2.84,2.84,0,0,0,2.83,2.84h17a2.83,2.83,0,0,0,2.83-2.84v-3.78a2.81,2.81,0,0,0-.73-1.89,2.79,2.79,0,0,0,.73-1.89Zm-42.51-35.9v-3.78a1,1,0,0,1,.94-1h26.46a1,1,0,0,1,.94,1v3.78a.94.94,0,0,1-.94.94H220.63A.94.94,0,0,1,219.69,182.15Zm3.77,2.83h20.79v1H223.46Zm-3.77,7.56v-3.78a.94.94,0,0,1,.94-.94h26.46a.94.94,0,0,1,.94.94v3.78a1,1,0,0,1-.94,1H220.63A1,1,0,0,1,219.69,192.54Zm3.77,2.84h20.79v.94H223.46Zm-3.77,7.56v-3.78a1,1,0,0,1,.94-.95h26.46a1,1,0,0,1,.94.95v3.78a.94.94,0,0,1-.94.94H220.63A.94.94,0,0,1,219.69,202.94Zm6.61,26.45a.94.94,0,0,1-1,1h-17a.94.94,0,0,1-.95-1v-3.78a.94.94,0,0,1,.95-.94h17a.94.94,0,0,1,1,.94Zm0-11.34v3.78a.94.94,0,0,1-1,.95h-17a.94.94,0,0,1-.95-.95v-3.78a.94.94,0,0,1,.95-.94h17A.94.94,0,0,1,226.3,218.05Zm7.56-5.66a.95.95,0,1,1,0-1.89.95.95,0,0,1,0,1.89Zm7.56,5.66a.94.94,0,0,1,.94-.94h17a.94.94,0,0,1,.94.94v3.78a.94.94,0,0,1-.94.95h-17a.94.94,0,0,1-.94-.95Zm18.89,11.34a.94.94,0,0,1-.94,1h-17a.94.94,0,0,1-.94-1v-3.78a.94.94,0,0,1,.94-.94h17a.94.94,0,0,1,.94.94Z" transform="translate(4.97 -19.63)"/><path class="cls-3" d="M243.31,219h1.89v1.89h-1.89Z" transform="translate(4.97 -19.63)"/><path class="cls-3" d="M246.14,219H248v1.89h-1.89Z" transform="translate(4.97 -19.63)"/><path class="cls-3" d="M249,219h1.89v1.89H249Z" transform="translate(4.97 -19.63)"/><path class="cls-3" d="M256.54,219h1.89v1.89h-1.89Z" transform="translate(4.97 -19.63)"/><path class="cls-3" d="M243.31,226.56h1.89v1.89h-1.89Z" transform="translate(4.97 -19.63)"/><path class="cls-3" d="M246.14,226.56H248v1.89h-1.89Z" transform="translate(4.97 -19.63)"/><path class="cls-3" d="M249,226.56h1.89v1.89H249Z" transform="translate(4.97 -19.63)"/><path class="cls-3" d="M256.54,226.56h1.89v1.89h-1.89Z" transform="translate(4.97 -19.63)"/><path class="cls-3" d="M209.29,219h1.89v1.89h-1.89Z" transform="translate(4.97 -19.63)"/><path class="cls-3" d="M212.13,219H214v1.89h-1.89Z" transform="translate(4.97 -19.63)"/><path class="cls-3" d="M215,219h1.89v1.89H215Z" transform="translate(4.97 -19.63)"/><path class="cls-3" d="M222.52,219h1.89v1.89h-1.89Z" transform="translate(4.97 -19.63)"/><path class="cls-3" d="M209.29,226.56h1.89v1.89h-1.89Z" transform="translate(4.97 -19.63)"/><path class="cls-3" d="M212.13,226.56H214v1.89h-1.89Z" transform="translate(4.97 -19.63)"/><path class="cls-3" d="M215,226.56h1.89v1.89H215Z" transform="translate(4.97 -19.63)"/><path class="cls-3" d="M222.52,226.56h1.89v1.89h-1.89Z" transform="translate(4.97 -19.63)"/><path class="cls-3" d="M244.25,179.31h1.89v1.89h-1.89Z" transform="translate(4.97 -19.63)"/><path class="cls-3" d="M240.47,179.31h1.89v1.89h-1.89Z" transform="translate(4.97 -19.63)"/><path class="cls-3" d="M244.25,189.71h1.89v1.89h-1.89Z" transform="translate(4.97 -19.63)"/><path class="cls-3" d="M240.47,189.71h1.89v1.89h-1.89Z" transform="translate(4.97 -19.63)"/><path class="cls-3" d="M244.25,200.1h1.89V202h-1.89Z" transform="translate(4.97 -19.63)"/><path class="cls-3" d="M240.47,200.1h1.89V202h-1.89Z" transform="translate(4.97 -19.63)"/></g><g id="Data_structure" data-name="Data structure"><path class="cls-3" d="M631.65,209.55a2.84,2.84,0,0,0,2.83-2.84v-1.88h3a3.79,3.79,0,1,0,0-1.89h-3v-1.89a2.83,2.83,0,0,0-2.83-2.83h-.95v-1.89h.95a2.84,2.84,0,0,0,2.83-2.84V191.6h4.72a2.82,2.82,0,0,0,2.83-2.83V183a3.78,3.78,0,1,0-1.89,0v5.8a1,1,0,0,1-.94.95h-4.72v-1.89a2.84,2.84,0,0,0-2.83-2.84H601.43a2.84,2.84,0,0,0-2.84,2.84v1.89h-4.72a1,1,0,0,1-.94-.95V183a3.79,3.79,0,1,0-1.89,0v5.8a2.83,2.83,0,0,0,2.83,2.83h4.72v1.89a2.84,2.84,0,0,0,2.84,2.84h.94v1.89h-.94a2.83,2.83,0,0,0-2.84,2.83V203l-3,0a3.78,3.78,0,1,0,0,1.89l3,0v1.84a2.84,2.84,0,0,0,2.84,2.84h.94v1.89h-.94a2.84,2.84,0,0,0-2.84,2.83v1.89h-4.72A2.83,2.83,0,0,0,591,219v5.8a3.77,3.77,0,1,0,1.89,0V219a.94.94,0,0,1,.94-.94h4.72v1.89a2.84,2.84,0,0,0,2.84,2.83h.94v3.78H630.7v-3.78h.95a2.83,2.83,0,0,0,2.83-2.83v-1.89h4.72a.94.94,0,0,1,.94.94v5.8a3.78,3.78,0,1,0,1.89,0V219a2.83,2.83,0,0,0-2.83-2.83h-4.72v-1.89a2.83,2.83,0,0,0-2.83-2.83h-.95v-1.89Zm9.44-7.56a1.89,1.89,0,1,1-1.89,1.89A1.89,1.89,0,0,1,641.09,202Zm-1.89-22.66a1.89,1.89,0,1,1,1.89,1.89A1.89,1.89,0,0,1,639.2,179.33Zm-49.11,0a1.89,1.89,0,1,1,1.89,1.89A1.89,1.89,0,0,1,590.09,179.33ZM592,205.77a1.89,1.89,0,1,1,1.89-1.89A1.89,1.89,0,0,1,592,205.77Zm1.89,22.67a1.89,1.89,0,1,1-1.89-1.89A1.89,1.89,0,0,1,593.87,228.44Zm49.11,0a1.89,1.89,0,1,1-1.89-1.89A1.89,1.89,0,0,1,643,228.44Zm-41.55-34a1,1,0,0,1-.95-.95v-5.66a1,1,0,0,1,.95-1h30.22a1,1,0,0,1,.94,1v5.66a1,1,0,0,1-.94.95Zm2.83,1.89h24.55v1.89H604.26Zm-2.83,11.33a.94.94,0,0,1-.95-.95v-5.66a1,1,0,0,1,.95-1h30.22a1,1,0,0,1,.94,1v5.66a.94.94,0,0,1-.94.95Zm27.38,17H604.26v-1.89h24.55Zm2.84-11.33a.94.94,0,0,1,.94.94v5.67a.94.94,0,0,1-.94.94H601.43a.94.94,0,0,1-.95-.94v-5.67a.94.94,0,0,1,.95-.94Zm-2.84-1.89H604.26v-1.89h24.55Z" transform="translate(4.97 -19.63)"/><path class="cls-3" d="M602.37,188.77h1.89v3.78h-1.89Z" transform="translate(4.97 -19.63)"/><path class="cls-3" d="M606.15,188.77H608v3.78h-1.89Z" transform="translate(4.97 -19.63)"/><path class="cls-3" d="M609.92,188.77h1.89v3.78h-1.89Z" transform="translate(4.97 -19.63)"/><path class="cls-3" d="M617.48,188.77h1.89v3.78h-1.89Z" transform="translate(4.97 -19.63)"/><path class="cls-3" d="M613.7,188.77h1.89v3.78H613.7Z" transform="translate(4.97 -19.63)"/><path class="cls-3" d="M606.15,202H608v3.78h-1.89Z" transform="translate(4.97 -19.63)"/><path class="cls-3" d="M602.37,202h1.89v3.78h-1.89Z" transform="translate(4.97 -19.63)"/><path class="cls-3" d="M609.92,202h1.89v3.78h-1.89Z" transform="translate(4.97 -19.63)"/><path class="cls-3" d="M613.7,202h1.89v3.78H613.7Z" transform="translate(4.97 -19.63)"/><path class="cls-3" d="M617.48,202h1.89v3.78h-1.89Z" transform="translate(4.97 -19.63)"/><path class="cls-3" d="M602.37,215.21h1.89V219h-1.89Z" transform="translate(4.97 -19.63)"/><path class="cls-3" d="M606.15,215.21H608V219h-1.89Z" transform="translate(4.97 -19.63)"/><path class="cls-3" d="M609.92,215.21h1.89V219h-1.89Z" transform="translate(4.97 -19.63)"/><path class="cls-3" d="M613.7,215.21h1.89V219H613.7Z" transform="translate(4.97 -19.63)"/><path class="cls-3" d="M617.48,215.21h1.89V219h-1.89Z" transform="translate(4.97 -19.63)"/><path class="cls-3" d="M630.7,188.77a.94.94,0,0,0-.94-.94H622.2a.94.94,0,0,0-.94.94v3.78a.94.94,0,0,0,.94.94h7.56a.94.94,0,0,0,.94-.94Zm-1.89,2.83h-5.66v-1.88h5.66Z" transform="translate(4.97 -19.63)"/><path class="cls-3" d="M630.7,202a.94.94,0,0,0-.94-.94H622.2a.94.94,0,0,0-.94.94v3.78a.94.94,0,0,0,.94.94h7.56a.94.94,0,0,0,.94-.94Zm-1.89,2.84h-5.66v-1.89h5.66Z" transform="translate(4.97 -19.63)"/><path class="cls-3" d="M622.2,219.94h7.56a1,1,0,0,0,.94-.95v-3.78a.94.94,0,0,0-.94-.94H622.2a.94.94,0,0,0-.94.94V219A1,1,0,0,0,622.2,219.94Zm.95-3.78h5.66v1.89h-5.66Z" transform="translate(4.97 -19.63)"/></g><g id="Domain"><path class="cls-5" d="M259.37,459h-51a2.84,2.84,0,0,0-2.84,2.83v51a2.84,2.84,0,0,0,2.84,2.83h51a2.83,2.83,0,0,0,2.83-2.83v-51A2.83,2.83,0,0,0,259.37,459Zm-52,2.83a.94.94,0,0,1,.95-.94h51a.94.94,0,0,1,.94.94v8.51H207.4Zm52.91,51a.94.94,0,0,1-.94.94h-51a.94.94,0,0,1-.95-.94V472.23h52.91Z" transform="translate(4.97 -19.63)"/><path class="cls-5" d="M257.48,462.78H231a.94.94,0,0,0-.94.94v3.78a.94.94,0,0,0,.94.95h26.46a1,1,0,0,0,.95-.95v-3.78A1,1,0,0,0,257.48,462.78Zm-.94,3.78H232v-1.89h24.57Z" transform="translate(4.97 -19.63)"/><path class="cls-5" d="M212.13,462.78a2.84,2.84,0,1,0,2.83,2.83A2.84,2.84,0,0,0,212.13,462.78Zm0,3.78a.95.95,0,1,1,.94-.95A.94.94,0,0,1,212.13,466.56Z" transform="translate(4.97 -19.63)"/><path class="cls-5" d="M218.74,462.78a2.84,2.84,0,1,0,2.83,2.83A2.83,2.83,0,0,0,218.74,462.78Zm0,3.78a.95.95,0,1,1,.95-.95A.94.94,0,0,1,218.74,466.56Z" transform="translate(4.97 -19.63)"/><path class="cls-5" d="M225.35,462.78a2.84,2.84,0,1,0,2.84,2.83A2.83,2.83,0,0,0,225.35,462.78Zm0,3.78a.95.95,0,1,1,1-.95A.94.94,0,0,1,225.35,466.56Z" transform="translate(4.97 -19.63)"/><path class="cls-5" d="M233.86,511.91A18.9,18.9,0,1,0,215,493,18.9,18.9,0,0,0,233.86,511.91Zm-14.13-9.45h5.1a17.92,17.92,0,0,0,3.51,6.62A17,17,0,0,1,219.73,502.46Zm31.09-10.39h-6.59a32.66,32.66,0,0,0-.82-6.61h5.66A16.91,16.91,0,0,1,250.82,492.07Zm-17.91,10.39v7.45c-2.49-.59-4.7-3.42-6.07-7.45Zm-6.63-1.89a30.67,30.67,0,0,1-.9-6.61h7.53v6.61Zm8.52,9.34v-7.45h6.08C239.51,506.49,237.3,509.32,234.8,509.91Zm0-9.34V494h7.54a30.07,30.07,0,0,1-.91,6.61Zm9.43-6.61h6.59a16.91,16.91,0,0,1-1.75,6.61h-5.66A32.66,32.66,0,0,0,244.23,494Zm-1.89-1.89H234.8v-6.61h6.63a30.07,30.07,0,0,1,.91,6.61Zm-7.54-8.5v-7.44c2.5.58,4.71,3.42,6.08,7.44Zm-1.89-7.44v7.44h-6.07C228.21,479.55,230.42,476.71,232.91,476.13Zm0,9.33v6.61h-7.53a30.67,30.67,0,0,1,.9-6.61Zm-9.42,6.61H216.9a16.74,16.74,0,0,1,1.75-6.61h5.66A32.66,32.66,0,0,0,223.49,492.07Zm0,1.89a33.38,33.38,0,0,0,.81,6.61h-5.65A16.74,16.74,0,0,1,216.9,494Zm15.89,15.12a17.92,17.92,0,0,0,3.51-6.62H248A17,17,0,0,1,239.38,509.08ZM248,483.57h-5.1a18.07,18.07,0,0,0-3.51-6.62A17,17,0,0,1,248,483.57ZM228.34,477a17.94,17.94,0,0,0-3.52,6.62h-5.09a17,17,0,0,1,8.6-6.62Z" transform="translate(4.97 -19.63)"/></g><g id="Email_Setting" data-name="Email Setting"><path class="cls-5" d="M425.2,486.4H429a.95.95,0,0,0,0-1.89H425.2a5.67,5.67,0,1,1,5.67-5.67v1a.95.95,0,0,1-1.89,0v-1a3.82,3.82,0,1,0-1.22,2.76,2.83,2.83,0,0,0,5-1.81v-1a7.56,7.56,0,1,0-7.56,7.56Zm0-5.67a1.89,1.89,0,1,1,1.89-1.89A1.88,1.88,0,0,1,425.2,480.73Z" transform="translate(4.97 -19.63)"/><path class="cls-5" d="M453.15,485.64,445,479.76v-4.7a.94.94,0,0,0-1-.94h-3.53a16.69,16.69,0,0,0-1.16-2.8l2.5-2.49a1,1,0,0,0,0-1.34l-5.35-5.35a.94.94,0,0,0-1.33,0l-2.5,2.5a16.69,16.69,0,0,0-2.8-1.16v-3.54A.94.94,0,0,0,429,459h-7.56a1,1,0,0,0-.95.94v3.54a16.59,16.59,0,0,0-2.79,1.16l-2.5-2.5a.94.94,0,0,0-1.33,0l-5.35,5.35a.94.94,0,0,0,0,1.33l2.5,2.5a15.17,15.17,0,0,0-1.16,2.8H406.3a1,1,0,0,0-.95.94v4.7l-8.11,5.88a.94.94,0,0,0-.39.76v28.35a.94.94,0,0,0,.95.94h54.8a.94.94,0,0,0,.94-.94V486.4A.92.92,0,0,0,453.15,485.64Zm-37.39,14.93-17,12.33V488.25Zm8.88-4.09a1,1,0,0,1,1.11,0l23.93,17.32h-49Zm10,4.09,17-12.32V512.9ZM451,486.4l-18,13-3.1-2.25v-3a15.85,15.85,0,0,0,2.8-1.15l2.49,2.49a1,1,0,0,0,1.34,0l5.35-5.34a1,1,0,0,0,0-1.34l-2.5-2.5a16.59,16.59,0,0,0,1.16-2.79h3.53a1,1,0,0,0,1-.95v-.53ZM407.24,476h3.31a1,1,0,0,0,.92-.71,13.79,13.79,0,0,1,1.51-3.66.94.94,0,0,0-.15-1.15l-2.33-2.33,4-4,2.34,2.34a.94.94,0,0,0,1.14.15,14.1,14.1,0,0,1,3.66-1.52.93.93,0,0,0,.71-.91v-3.31H428v3.31a.94.94,0,0,0,.71.91,14.28,14.28,0,0,1,3.66,1.51,1,1,0,0,0,1.15-.14l2.33-2.34,4,4-2.34,2.33a.94.94,0,0,0-.15,1.15,14.16,14.16,0,0,1,1.52,3.66.93.93,0,0,0,.91.71h3.31v5.67h-3.31a.94.94,0,0,0-.91.71,14.21,14.21,0,0,1-1.51,3.65,1,1,0,0,0,.14,1.15l2.34,2.34-4,4-2.33-2.34a1,1,0,0,0-1.15-.14,14.28,14.28,0,0,1-3.66,1.51,1,1,0,0,0-.71.92v2.3l-1.17-.85a2.84,2.84,0,0,0-3.33,0l-1.17.85v-2.3a1,1,0,0,0-.71-.92,14.43,14.43,0,0,1-3.66-1.51.92.92,0,0,0-1.14.15l-2.34,2.33-4-4,2.33-2.34A.94.94,0,0,0,413,486a14.21,14.21,0,0,1-1.51-3.65,1,1,0,0,0-.92-.71h-3.31Zm-.94,7.56h3.54a15.76,15.76,0,0,0,1.15,2.79l-2.5,2.5a1,1,0,0,0,0,1.33l5.35,5.35a1,1,0,0,0,1.34,0l2.5-2.5a15.8,15.8,0,0,0,2.79,1.16v3l-3.1,2.25-18-13,5.94-4.31v.53A1,1,0,0,0,406.3,483.57Z" transform="translate(4.97 -19.63)"/><path class="cls-5" d="M425.2,490.18a11.34,11.34,0,1,0-11.34-11.34A11.34,11.34,0,0,0,425.2,490.18Zm0-20.79a9.45,9.45,0,1,1-9.45,9.45A9.45,9.45,0,0,1,425.2,469.39Z" transform="translate(4.97 -19.63)"/></g><g id="Big_data" data-name="Big data"><path class="cls-2" d="M67.71,355.3V336.11a4.19,4.19,0,0,0-2-8.12,4.27,4.27,0,0,0-1.78.95L46.67,319a3.81,3.81,0,0,0,0-.59,4.2,4.2,0,1,0-8.39,0,2.88,2.88,0,0,0,.06.59l-17.21,9.93a4.19,4.19,0,0,0-5.6,6.23,4.24,4.24,0,0,0,1.76.94V355.3a4.18,4.18,0,0,0,2.05,8.11,4,4,0,0,0,1.78-1l17.21,9.93a4,4,0,0,0-.05.6,4.2,4.2,0,0,0,8.39,0,3.05,3.05,0,0,0-.06-.6l17.21-9.93a4.18,4.18,0,0,0,5.6-6.22A4.13,4.13,0,0,0,67.71,355.3Zm-15.3,3L55,353.94l7.65,4.32v0Zm-30,0v0l7.65-4.32,2.56,4.36Zm10.2-25.19-2.56,4.35-7.65-4.32v0Zm30,0v0L55,337.46l-2.56-4.35Zm2.9,22.22-5.67-9.63,5.68-9.62.1,0V355.3A.45.45,0,0,0,65.51,355.33Zm-1.86,1.1L56,352.14l2.58-4.37,5.07,8.6A.21.21,0,0,1,63.65,356.43ZM46.56,344.62l7.65-4.32,3.19,5.4-3.19,5.4-7.65-4.32a3.62,3.62,0,0,0,0-2.16ZM63.69,335l-5.07,8.6L56,339.27l7.61-4.3Zm-10.54,3.46-7.61,4.3a4.31,4.31,0,0,0-2-1.14v-8.54H50ZM42.53,347.8a2.1,2.1,0,1,1,2.09-2.1A2.1,2.1,0,0,1,42.53,347.8Zm1-16.79v-8.54l.1,0L48.73,331Zm-2.09-8.54V331H36.32l5.06-8.57Zm0,10.64v8.54a4.31,4.31,0,0,0-2,1.14l-7.61-4.3,3.18-5.38ZM21.36,356.38l5.07-8.61L29,352.14l-7.61,4.29Zm6.29-10.68,3.19-5.4,7.65,4.32a3.62,3.62,0,0,0,0,2.16l-7.65,4.32ZM21.4,335,29,339.28l-2.58,4.36L21.36,335A.16.16,0,0,1,21.4,335Zm-1.86,1.11,5.68,9.62-5.68,9.63a.29.29,0,0,0-.1,0V336.11ZM31.9,352.91l7.61-4.3a4.14,4.14,0,0,0,2,1.14v8.55h-6.4Zm9.58,7.48v8.55l-.1,0-5.06-8.58Zm2.09,8.55v-8.55h5.16l-5,8.58Zm0-10.64v-8.55a4.14,4.14,0,0,0,2-1.14l7.61,4.3L50,358.3ZM66.66,330a2.1,2.1,0,1,1-2.1,2.1A2.1,2.1,0,0,1,66.66,330Zm-3.95.74c0,.1-.07.21-.1.31H51.17l-5.68-9.62c.13-.14.24-.28.35-.42ZM42.53,316.32a2.1,2.1,0,1,1-2.1,2.1A2.1,2.1,0,0,1,42.53,316.32Zm-3,5.07L33.88,331H22.44a1.86,1.86,0,0,0-.1-.31L39.21,321A4.7,4.7,0,0,0,39.56,321.39ZM16.29,332.06a2.1,2.1,0,1,1,2.1,2.1A2.1,2.1,0,0,1,16.29,332.06Zm2.1,29.38a2.1,2.1,0,1,1,2.1-2.1A2.1,2.1,0,0,1,18.39,361.44Zm3.95-.73c0-.11.07-.21.1-.32H33.88L39.56,370a3.54,3.54,0,0,0-.35.42Zm20.19,14.38a2.1,2.1,0,1,1,2.09-2.1A2.1,2.1,0,0,1,42.53,375.09Zm3-5.07,5.68-9.63H62.61c0,.11.06.21.1.32l-16.87,9.73A3.54,3.54,0,0,0,45.49,370Zm21.17-8.58a2.1,2.1,0,1,1,2.1-2.1A2.1,2.1,0,0,1,66.66,361.44Z" transform="translate(4.97 -19.63)"/></g><g id="Big_data-2" data-name="Big data"><path class="cls-2" d="M259.06,355.19V336a4.19,4.19,0,0,0-2.05-8.12,4.24,4.24,0,0,0-1.78,1L238,318.91a4,4,0,0,0,0-.6,4.2,4.2,0,0,0-8.39,0,3.05,3.05,0,0,0,.06.6l-17.21,9.93a4.18,4.18,0,1,0-3.84,7.16v19.19a4.19,4.19,0,1,0,3.83,7.17l17.21,9.93a3.81,3.81,0,0,0,0,.59,4.2,4.2,0,1,0,8.39,0,2.88,2.88,0,0,0-.06-.59l17.21-9.93a4.19,4.19,0,0,0,5.6-6.23A4.24,4.24,0,0,0,259.06,355.19Zm-15.3,3,2.57-4.35,7.64,4.32v0Zm-30,0v0l7.65-4.32,2.56,4.35ZM224,333l-2.56,4.36L213.78,333v0Zm30,0v0l-7.64,4.32L243.76,333Zm2.9,22.22-5.67-9.62,5.68-9.63.1,0v19.19ZM255,356.33l-7.61-4.3,2.58-4.37,5.08,8.61Zm-17.09-11.82,7.65-4.31,3.19,5.4-3.19,5.4-7.65-4.32a3.65,3.65,0,0,0,0-2.17Zm17.14-9.59L250,343.53l-2.58-4.37,7.61-4.3S255,334.91,255.05,334.92Zm-10.55,3.47-7.61,4.3a4.16,4.16,0,0,0-2-1.14V333h6.4Zm-10.62,9.31a2.1,2.1,0,1,1,2.1-2.1A2.1,2.1,0,0,1,233.88,347.7Zm1.05-16.79v-8.55l.1,0,5.05,8.58Zm-2.1-8.55v8.55h-5.16l5.06-8.58Zm0,10.64v8.55a4.2,4.2,0,0,0-2,1.13l-7.6-4.3,3.17-5.38Zm-20.12,23.27,5.08-8.6,2.57,4.36-7.61,4.3ZM219,345.6l3.19-5.4,7.65,4.31a3.82,3.82,0,0,0,0,2.17L222.19,351Zm-6.25-10.73,7.61,4.3-2.57,4.37-5.08-8.61ZM210.9,336l5.67,9.63-5.67,9.62-.11,0V336Zm12.36,16.84,7.6-4.3a4.31,4.31,0,0,0,2,1.14v8.54h-6.4Zm9.57,7.48v8.54l-.1,0-5.06-8.57Zm2.1,8.54v-8.54h5.15L235,368.86Zm0-10.64v-8.54a4.33,4.33,0,0,0,2-1.14l7.61,4.3-3.17,5.38ZM258,329.86a2.1,2.1,0,1,1-2.1,2.09A2.1,2.1,0,0,1,258,329.86Zm-3.95.73c0,.11-.07.21-.1.32H242.53l-5.69-9.63a2.79,2.79,0,0,0,.35-.42Zm-20.18-14.38a2.1,2.1,0,1,1-2.1,2.1A2.1,2.1,0,0,1,233.88,316.21Zm-3,5.07-5.68,9.63H213.79c0-.11-.06-.21-.09-.32l16.86-9.73A4.58,4.58,0,0,0,230.91,321.28ZM207.64,332a2.1,2.1,0,1,1,2.1,2.1A2.1,2.1,0,0,1,207.64,332Zm2.1,29.39a2.1,2.1,0,1,1,2.1-2.1A2.1,2.1,0,0,1,209.74,361.34Zm3.95-.74c0-.1.07-.21.1-.31h11.44l5.68,9.62a4.7,4.7,0,0,0-.35.43ZM233.88,375a2.1,2.1,0,1,1,2.1-2.1A2.1,2.1,0,0,1,233.88,375Zm3-5.07,5.68-9.62H254l.1.31-16.87,9.74A3.47,3.47,0,0,0,236.84,369.91ZM258,361.34a2.1,2.1,0,1,1,2.1-2.1A2.1,2.1,0,0,1,258,361.34Z" transform="translate(4.97 -19.63)"/></g><g id="Big_data-3" data-name="Big data"><path class="cls-2" d="M450.43,355.22V336a4.19,4.19,0,1,0-3.84-7.17l-17.21-9.93a3,3,0,0,0,.06-.59,4.2,4.2,0,1,0-8.39,0,3,3,0,0,0,.06.59l-17.21,9.93a4.19,4.19,0,1,0-3.84,7.17v19.18a4.19,4.19,0,0,0,2.05,8.12,4.11,4.11,0,0,0,1.78-.95l17.21,9.93a4,4,0,0,0-.05.59,4.2,4.2,0,1,0,8.39,0c0-.19,0-.39-.06-.59l17.21-9.93a4.18,4.18,0,1,0,5.59-6.22A4.11,4.11,0,0,0,450.43,355.22Zm-15.31,3,2.57-4.35,7.65,4.32v0Zm-30,0v0l7.64-4.32,2.57,4.35ZM415.36,333l-2.57,4.35-7.64-4.32v0Zm30,0v0l-7.65,4.32L435.12,333Zm2.9,22.22-5.67-9.63,5.67-9.62.1,0v19.18Zm-1.86,1.1-7.61-4.3,2.57-4.36,5.08,8.6Zm-17.09-11.81,7.65-4.32,3.19,5.4-3.19,5.4-7.65-4.32a3.78,3.78,0,0,0,0-2.16ZM446.41,335l-5.08,8.6-2.57-4.36,7.61-4.3Zm-10.55,3.46-7.61,4.3a4.14,4.14,0,0,0-2-1.14V333h6.4Zm-10.62,9.31a2.1,2.1,0,1,1,2.1-2.1A2.1,2.1,0,0,1,425.24,347.73Zm1.05-16.79V322.4l.1,0,5.06,8.58Zm-2.1-8.54v8.54H419l5-8.58Zm0,10.64v8.54a4.24,4.24,0,0,0-2,1.14l-7.61-4.3L417.8,333Zm-20.12,23.27,5.08-8.61,2.58,4.37-7.61,4.29Zm6.3-10.68,3.19-5.4,7.64,4.32a3.78,3.78,0,0,0,0,2.16L413.56,351Zm-6.25-10.73,7.61,4.3-2.58,4.37-5.08-8.6ZM402.26,336l5.67,9.62-5.67,9.63-.1,0V336Zm12.36,16.83,7.61-4.3a4.16,4.16,0,0,0,2,1.14v8.54H417.8Zm9.57,7.48v8.55l-.1,0-5-8.58Zm2.1,8.55v-8.55h5.16l-5.05,8.58A.45.45,0,0,0,426.29,368.87Zm0-10.65v-8.54a4.06,4.06,0,0,0,2-1.14l7.61,4.3-3.17,5.38Zm23.09-28.33a2.1,2.1,0,1,1-2.1,2.1A2.1,2.1,0,0,1,449.38,329.89Zm-3.95.73c0,.11-.07.21-.1.32H433.89l-5.68-9.63c.12-.13.24-.27.35-.41Zm-20.19-14.37a2.1,2.1,0,1,1-2.1,2.1A2.1,2.1,0,0,1,425.24,316.25Zm-3,5.06-5.68,9.63H405.16c0-.11-.06-.21-.1-.32l16.87-9.73A2.79,2.79,0,0,0,422.28,321.31ZM399,332a2.1,2.1,0,1,1,2.1,2.1A2.1,2.1,0,0,1,399,332Zm2.1,29.38a2.1,2.1,0,1,1,2.1-2.1A2.1,2.1,0,0,1,401.11,361.37Zm3.95-.73c0-.11.07-.21.1-.32H416.6l5.68,9.63a2.79,2.79,0,0,0-.35.42ZM425.24,375a2.1,2.1,0,1,1,2.1-2.1A2.1,2.1,0,0,1,425.24,375Zm3-5.06,5.68-9.63h11.44c0,.11.06.21.1.32l-16.87,9.73A4.87,4.87,0,0,0,428.21,370Zm21.17-8.58a2.1,2.1,0,1,1,2.1-2.1A2.1,2.1,0,0,1,449.38,361.37Z" transform="translate(4.97 -19.63)"/></g><g id="Big_data-4" data-name="Big data"><path class="cls-2" d="M641.77,355.12V335.93a4.19,4.19,0,1,0-2-8.12,4.24,4.24,0,0,0-1.78,1l-17.21-9.94a5.61,5.61,0,0,0,.06-.59,4.2,4.2,0,1,0-8.4,0,5.61,5.61,0,0,0,.06.59l-17.21,9.94a4.18,4.18,0,1,0-3.84,7.16v19.19a4.19,4.19,0,0,0,2.06,8.12,4.24,4.24,0,0,0,1.78-1l17.21,9.94a2.88,2.88,0,0,0-.06.59,4.2,4.2,0,1,0,8.4,0,5.61,5.61,0,0,0-.06-.59l17.21-9.94a4.18,4.18,0,1,0,3.83-7.16Zm-15.3,3,2.57-4.35,7.65,4.32v0Zm-30,0v0l7.65-4.32,2.57,4.35Zm10.21-25.19-2.57,4.35L596.49,333v0Zm30,0v0L629,337.28l-2.57-4.35Zm2.89,22.22-5.67-9.62,5.68-9.63.1,0v19.19Zm-1.86,1.11L630.1,352l2.58-4.37,5.08,8.61Zm-17.08-11.82,7.65-4.32,3.18,5.41-3.18,5.4-7.65-4.32a3.82,3.82,0,0,0,0-2.17Zm17.13-9.59-5.08,8.61-2.58-4.37,7.61-4.3Zm-10.55,3.46-7.61,4.31a4.16,4.16,0,0,0-2-1.14v-8.55H624Zm-10.62,9.31a2.1,2.1,0,1,1,2.1-2.09A2.1,2.1,0,0,1,616.59,347.62Zm1-16.79v-8.54l.1,0,5.06,8.57Zm-2.1-8.54v8.54h-5.16l5.06-8.57Zm0,10.64v8.55a4.12,4.12,0,0,0-2,1.13l-7.61-4.3,3.17-5.38ZM595.42,356.2l5.08-8.61,2.57,4.37-7.61,4.3A.21.21,0,0,0,595.42,356.2Zm6.3-10.67,3.18-5.41,7.65,4.32a3.82,3.82,0,0,0,0,2.17l-7.65,4.32Zm-6.26-10.73,7.61,4.3-2.57,4.37-5.08-8.61Zm-1.85,1.1,5.67,9.63-5.67,9.62-.11,0V335.93ZM606,352.73l7.61-4.29a4.12,4.12,0,0,0,2,1.13v8.55h-6.4Zm9.57,7.49v8.54l-.1,0-5.06-8.57Zm2.1,8.54v-8.54h5.16l-5.06,8.57Zm0-10.64v-8.55a4.22,4.22,0,0,0,2-1.13l7.61,4.29L624,358.12Zm23.08-28.34a2.1,2.1,0,1,1-2.09,2.1A2.1,2.1,0,0,1,640.72,329.78Zm-4,.74c0,.1-.07.21-.09.31H625.24l-5.69-9.62a3.62,3.62,0,0,0,.36-.42Zm-20.18-14.38a2.1,2.1,0,1,1-2.1,2.1A2.1,2.1,0,0,1,616.59,316.14Zm-3,5.07-5.68,9.62H596.51l-.1-.31,16.86-9.74C613.38,320.93,613.5,321.07,613.62,321.21Zm-23.27,10.67a2.1,2.1,0,1,1,2.1,2.1A2.1,2.1,0,0,1,590.35,331.88Zm2.1,29.39a2.1,2.1,0,1,1,2.1-2.1A2.1,2.1,0,0,1,592.45,361.27Zm3.95-.74c0-.1.07-.21.1-.31h11.44l5.68,9.62c-.12.14-.24.28-.35.43Zm20.19,14.38a2.1,2.1,0,1,1,2.1-2.1A2.1,2.1,0,0,1,616.59,374.91Zm3-5.07,5.68-9.62h11.45c0,.1.06.21.09.31l-16.86,9.74A4.82,4.82,0,0,0,619.55,369.84Zm21.17-8.57a2.1,2.1,0,1,1,2.1-2.1A2.09,2.09,0,0,1,640.72,361.27Z" transform="translate(4.97 -19.63)"/></g><g id="Big_data-5" data-name="Big data"><path class="cls-2" d="M833.07,355.26V336.07A4.18,4.18,0,1,0,831,328a4.05,4.05,0,0,0-1.78,1L812,319a4,4,0,0,0,.05-.6,4.2,4.2,0,0,0-8.39,0,3.05,3.05,0,0,0,.06.6l-17.21,9.93a4.18,4.18,0,1,0-5.6,6.22,4.13,4.13,0,0,0,1.76.94v19.19a4.19,4.19,0,1,0,3.83,7.17l17.21,9.93a3.81,3.81,0,0,0,0,.59,4.2,4.2,0,1,0,8.39,0,2.88,2.88,0,0,0-.06-.59l17.21-9.93a4.19,4.19,0,0,0,5.6-6.23A4.24,4.24,0,0,0,833.07,355.26Zm-15.3,3,2.56-4.35,7.65,4.32v0Zm-30,0v0l7.65-4.32,2.56,4.35ZM798,333.07l-2.56,4.36-7.65-4.32v0Zm30,0v0l-7.65,4.32-2.56-4.36Zm2.9,22.22-5.67-9.62,5.68-9.63a.29.29,0,0,0,.1,0v19.19ZM829,356.4l-7.61-4.3,2.58-4.37,5.07,8.61Zm-17.09-11.81,7.65-4.32,3.19,5.4-3.19,5.4-7.65-4.32a3.62,3.62,0,0,0,0-2.16Zm17.13-9.6L824,343.6l-2.58-4.37,7.61-4.3Zm-10.54,3.47-7.61,4.3a4.14,4.14,0,0,0-2-1.14v-8.55h6.41Zm-10.62,9.31a2.1,2.1,0,1,1,2.09-2.1A2.1,2.1,0,0,1,807.89,347.77Zm1-16.79v-8.55l.1,0,5.06,8.58Zm-2.09-8.55V331h-5.16l5.06-8.58Zm0,10.64v8.55a4.14,4.14,0,0,0-2,1.14l-7.61-4.31,3.18-5.38Zm-20.12,23.27,5.07-8.6,2.58,4.36-7.61,4.3ZM793,345.67l3.19-5.4,7.65,4.32a3.62,3.62,0,0,0,0,2.16l-7.65,4.32Zm-6.25-10.73,7.61,4.3-2.58,4.37L786.72,335A.21.21,0,0,1,786.76,334.94ZM784.9,336l5.68,9.63-5.68,9.62-.1,0V336.07Zm12.36,16.84,7.61-4.3a4.31,4.31,0,0,0,2,1.14v8.54h-6.4Zm9.58,7.48v8.54l-.1,0-5.06-8.57Zm2.09,8.54v-8.54h5.16L809,368.93Zm0-10.64v-8.54a4.31,4.31,0,0,0,2-1.14l7.61,4.3-3.17,5.38ZM832,329.93a2.1,2.1,0,1,1-2.1,2.1A2.1,2.1,0,0,1,832,329.93Zm-3.95.73c0,.11-.07.21-.1.32H816.53l-5.68-9.63a3.54,3.54,0,0,0,.35-.42Zm-20.18-14.38a2.1,2.1,0,1,1-2.1,2.1A2.1,2.1,0,0,1,807.89,316.28Zm-3,5.07L799.24,331H787.8a2,2,0,0,0-.1-.32l16.87-9.73A3.54,3.54,0,0,0,804.92,321.35ZM781.65,332a2.1,2.1,0,1,1,2.1,2.09A2.1,2.1,0,0,1,781.65,332Zm2.1,29.38a2.1,2.1,0,1,1,2.1-2.1A2.1,2.1,0,0,1,783.75,361.41Zm4-.74c0-.1.07-.21.1-.31h11.44l5.68,9.62a4.7,4.7,0,0,0-.35.43Zm20.19,14.38A2.1,2.1,0,1,1,810,373,2.1,2.1,0,0,1,807.89,375.05Zm3-5.07,5.68-9.62H828c0,.1.06.21.1.31l-16.87,9.74A4.7,4.7,0,0,0,810.85,370ZM832,361.41a2.1,2.1,0,1,1,2.1-2.1A2.1,2.1,0,0,1,832,361.41Z" transform="translate(4.97 -19.63)"/></g><g id="Sharing"><path class="cls-5" d="M642.05,462.78h-.95v-.95a2.83,2.83,0,0,0-2.83-2.83H591a2.83,2.83,0,0,0-2.83,2.83V494a2.83,2.83,0,0,0,2.83,2.83h1v4.73a2.83,2.83,0,0,0,2.83,2.83h17.48l-3.93,9.45H605.2v1.89h26.45V513.8H628.5l-3.93-9.45h17.48a2.83,2.83,0,0,0,2.83-2.83V465.61A2.83,2.83,0,0,0,642.05,462.78Zm-51,32.13a1,1,0,0,1-.94-1V461.83a.94.94,0,0,1,.94-.94h47.25a.94.94,0,0,1,.94.94v.95H592v32.13Zm48.19-26.46H593.86v-3.78h45.35Zm0,1.89V494a1,1,0,0,1-.94,1H593.86V470.34ZM626.46,513.8H610.39l3.94-9.45h8.19ZM643,501.52a.94.94,0,0,1-.94.94H594.8a.94.94,0,0,1-.94-.94v-4.73h44.41A2.83,2.83,0,0,0,641.1,494V464.67h.95a.94.94,0,0,1,.94.94Z" transform="translate(4.97 -19.63)"/><rect class="cls-5" x="604.5" y="445.98" width="1.89" height="1.89"/><rect class="cls-5" x="608.28" y="445.98" width="1.89" height="1.89"/><rect class="cls-5" x="600.72" y="445.98" width="1.89" height="1.89"/><rect class="cls-5" x="622.45" y="479.06" width="1.89" height="1.89"/><rect class="cls-5" x="626.23" y="479.06" width="1.89" height="1.89"/><rect class="cls-5" x="618.68" y="479.06" width="1.89" height="1.89"/><rect class="cls-5" x="638.52" y="494.17" width="1.89" height="1.89"/><rect class="cls-5" x="606.39" y="494.17" width="1.89" height="1.89"/><path class="cls-5" d="M608,474.12H603.7l-1.89-1.89h-3.23v9.45H608Zm-1.89,5.67h-5.67v-5.67H601l1.89,1.89h3.22Z" transform="translate(4.97 -19.63)"/><path class="cls-5" d="M608,493v-7.56H603.7l-1.89-1.89h-3.23V493Zm-7.56-7.56H601l1.89,1.89h3.22v3.78h-5.67Z" transform="translate(4.97 -19.63)"/><path class="cls-5" d="M621.26,474.12h-4.33L615,472.23h-3.23v9.45h9.45Zm-1.89,5.67H613.7v-5.67h.55l1.89,1.89h3.23Z" transform="translate(4.97 -19.63)"/><path class="cls-5" d="M621.26,485.46h-4.33L615,483.57h-3.23V493h9.45Zm-1.89,5.67H613.7v-5.67h.55l1.89,1.89h3.23Z" transform="translate(4.97 -19.63)"/><path class="cls-5" d="M634.49,474.12h-4.34l-1.88-1.89H625v9.45h9.45Zm-1.89,5.67h-5.67v-5.67h.55l1.89,1.89h3.23Z" transform="translate(4.97 -19.63)"/><path class="cls-5" d="M634.49,485.46h-4.34l-1.88-1.89H625V493h9.45Zm-1.89,5.67h-5.67v-5.67h.55l1.89,1.89h3.23Z" transform="translate(4.97 -19.63)"/></g><path class="cls-5" d="M827.69,474.49a16.05,16.05,0,0,0-31.52-3.69,13.22,13.22,0,1,0-3.41,26h1.89v5.67h-3.78a1,1,0,0,0-1,.94,1,1,0,0,0,.22.61l9.45,11.33a.94.94,0,0,0,1.33.12l.12-.12L810.48,504a.95.95,0,0,0-.72-1.55H806V496.8h1.89v2.83a.94.94,0,0,0,.94.95h9.45a.94.94,0,0,0,.94-.95V496.8h5.67a11.33,11.33,0,0,0,2.82-22.31Zm-20,29.87-7.43,8.91-7.42-8.91h2.7a1,1,0,0,0,.95-.95V481.69h7.55v21.72a1,1,0,0,0,.95.95Zm9.57-5.67h-7.55V477a.94.94,0,0,0-1-1h-2.7l7.43-8.91L821,476h-2.71a1,1,0,0,0-1,1Zm7.56-3.78H819.2v-17H823a1,1,0,0,0,.95-.94,1,1,0,0,0-.22-.61L814.26,465a1,1,0,0,0-1.38-.08l-.07.08-9.44,11.33a.95.95,0,0,0,.72,1.55h3.78v17H806V480.74a.94.94,0,0,0-.94-.94h-9.45a.94.94,0,0,0-.94.94v14.17h-1.89a11.34,11.34,0,1,1,3.78-22,.94.94,0,0,0,1.2-.57.93.93,0,0,0,0-.13,14.17,14.17,0,0,1,28,2.89v.17a1,1,0,0,0,.77.93,9.44,9.44,0,0,1-1.72,18.73Z" transform="translate(4.97 -19.63)"/><path class="cls-1" d="M382.68,62.15H48c-3,0-5.43,1.31-5.43,2.94l-.07,96.27" transform="translate(4.97 -19.63)"/><line class="cls-1" x1="430.17" y1="85.04" x2="430.17" y2="141.73"/><path class="cls-1" d="M394.42,76.32H240.31c-3.56,0-6.45,1.28-6.45,2.85v82.19" transform="translate(4.97 -19.63)"/><path class="cls-1" d="M467.72,62.15h335c2.84,0,5.14,1.25,5.14,2.79v96.42" transform="translate(4.97 -19.63)"/><text class="cls-6" transform="translate(21.05 238.46)">Servicio de<tspan x="-2.4" y="9.6">Autenticidad</tspan></text><text class="cls-6" transform="translate(207.63 243.6)">Base de datos</text><text class="cls-6" transform="translate(422.97 243.6)">API</text><text class="cls-6" transform="translate(587.91 243.6)">Almacenamiento</text><text class="cls-6" transform="translate(796.05 243.6)">Reporte</text><text class="cls-6" transform="translate(4.3 385.34)">Función de cálculo</text><text class="cls-6" transform="translate(195.63 385.34)">Función de cálculo</text><text class="cls-6" transform="translate(386.97 385.33)">Función de cálculo</text><text class="cls-6" transform="translate(578.31 385.33)">Función de cálculo</text><text class="cls-6" transform="translate(769.44 385.34)">Función de cálculo</text><text class="cls-6" transform="translate(28.29 527.07)">Servicio</text><text class="cls-6" transform="translate(219.63 527.07)">Servicio</text><text class="cls-6" transform="translate(410.97 527.07)">Servicio</text><text class="cls-6" transform="translate(602.31 527.07)">Servicio</text><text class="cls-6" transform="translate(793.65 527.07)">Servicio</text><line class="cls-7" x1="238.83" y1="255.12" x2="238.83" y2="283.46"/><line class="cls-7" x1="430.22" y1="255.12" x2="430.17" y2="283.46"/><line class="cls-7" x1="812.85" y1="396.85" x2="812.85" y2="425.2"/><line class="cls-7" x1="621.56" y1="396.85" x2="621.47" y2="425.2"/><line class="cls-7" x1="430.17" y1="396.85" x2="430.17" y2="425.2"/><line class="cls-7" x1="238.83" y1="396.85" x2="238.83" y2="425.2"/><line class="cls-7" x1="47.45" y1="396.85" x2="47.45" y2="425.2"/><g id="Money_exchange" data-name="Money exchange"><path class="cls-5" d="M46.29,472.23H42.51a.95.95,0,0,1,0-1.89h3.78a.95.95,0,1,1,0,1.89Z" transform="translate(4.97 -19.63)"/><path class="cls-5" d="M56.69,483.57H15.11a1,1,0,0,1-.94-.95V459.94a.94.94,0,0,1,.94-.94H56.69a.94.94,0,0,1,.94.94v22.68A1,1,0,0,1,56.69,483.57Zm-40.63-1.89H55.74V460.89H16.06Z" transform="translate(4.97 -19.63)"/><path class="cls-5" d="M50.07,480.73H21.73a.94.94,0,0,1-.95-.94A2.84,2.84,0,0,0,18,477,1,1,0,0,1,17,476v-9.45a1,1,0,0,1,.95-.95,2.83,2.83,0,0,0,2.83-2.83,1,1,0,0,1,.95-.95H50.07a1,1,0,0,1,1,.95,2.83,2.83,0,0,0,2.83,2.83,1,1,0,0,1,.95.95V476a1,1,0,0,1-.95.94A2.84,2.84,0,0,0,51,479.79,1,1,0,0,1,50.07,480.73Zm-27.49-1.89H49.22a4.73,4.73,0,0,1,3.69-3.68v-7.75a4.73,4.73,0,0,1-3.69-3.69H22.58a4.73,4.73,0,0,1-3.69,3.69v7.75A4.73,4.73,0,0,1,22.58,478.84Z" transform="translate(4.97 -19.63)"/><path class="cls-5" d="M70.58,482.9a.94.94,0,0,0-1.33,0L68,484.12V468.45a4.75,4.75,0,0,0-4.73-4.73H60.47a.95.95,0,1,0,0,1.89H63.3a2.84,2.84,0,0,1,2.84,2.84v15.67l-1.23-1.22a.94.94,0,0,0-1.33,0,.93.93,0,0,0,0,1.31l2.83,2.84a1,1,0,0,0,1.34,0l2.83-2.84A.94.94,0,0,0,70.58,482.9Z" transform="translate(4.97 -19.63)"/><path class="cls-5" d="M29.29,472.23H25.51a.95.95,0,1,1,0-1.89h3.78a.95.95,0,0,1,0,1.89Z" transform="translate(4.97 -19.63)"/><path class="cls-5" d="M66.14,489.24H34A4.72,4.72,0,0,0,29.29,494v17A4.72,4.72,0,0,0,34,515.69H66.14A4.72,4.72,0,0,0,70.86,511V494A4.72,4.72,0,0,0,66.14,489.24ZM34,491.13H66.14A2.83,2.83,0,0,1,69,494v1H31.18v-1A2.82,2.82,0,0,1,34,491.13Zm35,7.55H31.18v-1.89H69ZM66.14,513.8H34A2.83,2.83,0,0,1,31.18,511v-10.4H69V511A2.83,2.83,0,0,1,66.14,513.8Z" transform="translate(4.97 -19.63)"/><path class="cls-5" d="M26.45,507.19H21.73a2.84,2.84,0,0,1-2.84-2.84V488.68l1.22,1.22a.94.94,0,0,0,1.34,0,1,1,0,0,0,0-1.31l-2.84-2.84a.94.94,0,0,0-1.33,0l-2.84,2.84a.94.94,0,0,0,1.34,1.33L17,488.68v15.67a4.74,4.74,0,0,0,4.73,4.73h4.72a.95.95,0,1,0,0-1.89Z" transform="translate(4.97 -19.63)"/><path class="cls-5" d="M63.3,504.35a3.78,3.78,0,0,0-2.35.85,3.78,3.78,0,1,0,0,5.87,3.77,3.77,0,1,0,2.35-6.72Zm-6.61,3.78a1.89,1.89,0,0,1,1.89-1.89,1.91,1.91,0,0,1,1.23.46,3.64,3.64,0,0,0,0,2.86,1.86,1.86,0,0,1-1.23.46A1.88,1.88,0,0,1,56.69,508.13ZM63.3,510a1.89,1.89,0,1,1,1.89-1.89A1.89,1.89,0,0,1,63.3,510Z" transform="translate(4.97 -19.63)"/><path class="cls-5" d="M42.51,504.35H35.9A1.89,1.89,0,0,0,34,506.24V510a1.89,1.89,0,0,0,1.89,1.89h6.61A1.88,1.88,0,0,0,44.4,510v-3.78A1.89,1.89,0,0,0,42.51,504.35Zm0,2.84H40.62v-.95h1.89Zm-6.61-.95h2.83V510H35.9ZM40.62,510v-.94h1.89V510Z" transform="translate(4.97 -19.63)"/><path class="cls-5" d="M35.9,470.34a.95.95,0,1,1,0-1.89.94.94,0,0,1,.94.94.95.95,0,1,0,1.89,0,2.83,2.83,0,0,0-1.89-2.66v-1.12a.95.95,0,0,0-1.89,0v1.12a2.83,2.83,0,0,0,.95,5.5.95.95,0,0,1,0,1.89,1,1,0,0,1-.95-.95.94.94,0,0,0-1.88,0A2.82,2.82,0,0,0,35,475.84a1,1,0,0,0,0,.17V477a.95.95,0,1,0,1.89,0V476a.51.51,0,0,0,0-.17,2.82,2.82,0,0,0-.91-5.5Z" transform="translate(4.97 -19.63)"/></g><circle class="cls-8" cx="430.18" cy="42.52" r="42.52"/><g id="Could_server" data-name="Could server"><path class="cls-9" d="M411.33,51.76h1.89v3.77h-1.89Z" transform="translate(4.97 -19.63)"/><path class="cls-9" d="M415.11,51.76H417v3.77h-1.89Z" transform="translate(4.97 -19.63)"/><path class="cls-9" d="M418.89,51.76h1.89v3.77h-1.89Z" transform="translate(4.97 -19.63)"/><path class="cls-9" d="M426.45,51.76h1.89v3.77h-1.89Z" transform="translate(4.97 -19.63)"/><path class="cls-9" d="M422.67,51.76h1.89v3.77h-1.89Z" transform="translate(4.97 -19.63)"/><path class="cls-9" d="M415.11,65H417v3.78h-1.89Z" transform="translate(4.97 -19.63)"/><path class="cls-9" d="M411.33,65h1.89v3.78h-1.89Z" transform="translate(4.97 -19.63)"/><path class="cls-9" d="M418.89,65h1.89v3.78h-1.89Z" transform="translate(4.97 -19.63)"/><path class="cls-9" d="M422.67,65h1.89v3.78h-1.89Z" transform="translate(4.97 -19.63)"/><path class="cls-9" d="M426.45,65h1.89v3.78h-1.89Z" transform="translate(4.97 -19.63)"/><path class="cls-9" d="M411.33,78.21h1.89V82h-1.89Z" transform="translate(4.97 -19.63)"/><path class="cls-9" d="M415.11,78.21H417V82h-1.89Z" transform="translate(4.97 -19.63)"/><path class="cls-9" d="M418.89,78.21h1.89V82h-1.89Z" transform="translate(4.97 -19.63)"/><path class="cls-9" d="M422.67,78.21h1.89V82h-1.89Z" transform="translate(4.97 -19.63)"/><path class="cls-9" d="M426.45,78.21h1.89V82h-1.89Z" transform="translate(4.97 -19.63)"/><path class="cls-9" d="M439.68,51.76a.94.94,0,0,0-.95-.95h-7.56a.94.94,0,0,0-.94.95v3.77a.94.94,0,0,0,.94.95h7.56a.94.94,0,0,0,.95-.95Zm-1.89,2.83h-5.67V52.7h5.67Z" transform="translate(4.97 -19.63)"/><path class="cls-9" d="M438.73,64h-7.56a.94.94,0,0,0-.94.94v3.78a.94.94,0,0,0,.94.95h7.56a.94.94,0,0,0,.95-.95V65A.94.94,0,0,0,438.73,64Zm-.94,3.78h-5.67V65.93h5.67Z" transform="translate(4.97 -19.63)"/><path class="cls-9" d="M431.17,82.94h7.56a1,1,0,0,0,.95-1V78.21a.94.94,0,0,0-.95-.94h-7.56a.94.94,0,0,0-.94.94V82A1,1,0,0,0,431.17,82.94Zm.95-3.78h5.67v1.89h-5.67Z" transform="translate(4.97 -19.63)"/><path class="cls-9" d="M447.24,49v-.08a6.64,6.64,0,0,0-8.3-6.41,14.17,14.17,0,0,0-26.87,0A6.64,6.64,0,0,0,404,47.27a6.55,6.55,0,0,0-.21,1.65V49a11.33,11.33,0,0,0,3.94,21.6,2.83,2.83,0,0,0,2.68,1.93h.94v1.89h-.94a2.84,2.84,0,0,0-2.84,2.84v5.67a2.84,2.84,0,0,0,2.84,2.83h.94v2.84a.94.94,0,0,0,.95.94h26.45a.94.94,0,0,0,.95-.94V85.77h.94a2.84,2.84,0,0,0,2.84-2.83h0V77.27a2.84,2.84,0,0,0-2.84-2.84h-.94V72.54h.94a2.83,2.83,0,0,0,2.68-1.93h.24A11.34,11.34,0,0,0,447.24,49Zm-9.45,38.65H413.22V85.77h24.57Zm2.83-11.34a1,1,0,0,1,.95,1v5.67a1,1,0,0,1-.95.94H410.39a.94.94,0,0,1-.95-.94V77.27a1,1,0,0,1,.95-1Zm-2.83-1.89H413.22V72.54h24.57Zm2.83-3.78H410.39a.94.94,0,0,1-.95-.94V64a1,1,0,0,1,.95-1h30.23a1,1,0,0,1,.95,1v5.67A1,1,0,0,1,440.62,70.65Zm-27.4-11.34h24.57V61.2H413.22Zm-2.83-1.89a.94.94,0,0,1-.95-.94V50.81a.94.94,0,0,1,.95-.94h30.23a1,1,0,0,1,.95.94v5.67a1,1,0,0,1-.95.94Zm33.07,11.29V64a2.84,2.84,0,0,0-2.84-2.84h-.94V59.31h.94a2.83,2.83,0,0,0,2.84-2.83V50.81A2.83,2.83,0,0,0,440.62,48H410.39a2.83,2.83,0,0,0-2.84,2.83v5.67a2.83,2.83,0,0,0,2.84,2.83h.94V61.2h-.94A2.84,2.84,0,0,0,407.55,64v4.68a9.46,9.46,0,0,1-2.46-18.22,1,1,0,0,0,.61-1,4.68,4.68,0,0,1,4-5.26,3.55,3.55,0,0,1,.65,0,4.52,4.52,0,0,1,1.91.4.94.94,0,0,0,1.25-.46l.06-.16a12.28,12.28,0,0,1,23.79,0,1,1,0,0,0,1.15.68.76.76,0,0,0,.16-.06,4.49,4.49,0,0,1,1.91-.4,4.69,4.69,0,0,1,4.73,4.66,4.49,4.49,0,0,1,0,.64.93.93,0,0,0,.6,1,9.44,9.44,0,0,1-2.45,18.21Z" transform="translate(4.97 -19.63)"/></g><line class="cls-1" x1="664.06" y1="325.98" x2="770.36" y2="325.98"/></svg>