<svg id="Layer_1" data-name="Layer 1" xmlns="http://www.w3.org/2000/svg" viewBox="0 0 600 600"><defs><style>.cls-1{fill:#4284f3;}.cls-2{fill:#4285f3;}.cls-3{fill:#4385f3;}.cls-4{fill:#fcfdfe;}.cls-5{fill:#fdfdfe;}.cls-6{fill:#fefefe;}.cls-7{fill:#a3c3f8;}</style></defs><title>googlecfArtboard 1</title><path class="cls-1" d="M71.6984,515.7762c0,2.3444-.0534,4.6906.0238,7.0324.0354,1.0721-.3306,1.4423-1.3554,1.3077a4.1393,4.1393,0,0,0-1.1945.0014c-1.5417.2544-2.5687-.1759-2.8942-1.8646-.0758-.3933-.1168-1.3615-1.12-.5585a12.9405,12.9405,0,0,1-20.2535-5.1321,17.8985,17.8985,0,0,1,1.4408-16.7706c3.2335-5.1634,8.2841-6.2884,13.9332-5.8108,5.62.4753,9.32,3.3616,11.02,8.7788.316,1.0069.3713,1.5949-1.0042,1.666-2.3339.12-4.6659.3757-6.9819.696-.9619.133-.9561-.49-1.087-1.0212a4.393,4.393,0,0,0-2.5077-3.3237,3.7219,3.7219,0,0,0-4.99,2.04,16.8965,16.8965,0,0,0-.2157,11.981,4.0383,4.0383,0,0,0,3.7,2.6341A4.1113,4.1113,0,0,0,62.2579,515.7c.3407-.493.6966-1.0978.3917-1.6658-.2665-.4965-.9083-.2387-1.38-.2439-3.5809-.0388-3.581-.0309-3.581-3.59,0-2.7273,0-2.7273,2.7733-2.7273,3.2423,0,6.4866.0645,9.726-.0318,1.2931-.0384,1.5888.3921,1.5376,1.6017C71.6308,511.284,71.6984,513.5315,71.6984,515.7762Z"/><path class="cls-1" d="M134.2549,513.5643c-2.7795-1.5084-3.8587-3.5884-3.2848-6.4563a5.9559,5.9559,0,0,1,3.7642-4.3243c3.3435-1.5147,6.8756-1.4943,10.4168-1.0778.7865.0926,1.1283.0446,1.3737-.7755.9424-3.15,2.4344-4.19,5.81-4.1871,2.9589.0022,2.9585.0022,2.7242,2.911-.012.1489-.0078.299-.0131.4485-.09,2.55-.0894,2.5527-2.6712,2.6779-.6526.0317-1.45.0011-1.7445.608-.2795.575.5156.8508.8413,1.2421a6.0241,6.0241,0,0,1-1.6125,9.1384c-2.8066,1.6016-5.9,1.6258-9.0041,1.5678a10.606,10.606,0,0,0-1.7835.0739.9685.9685,0,0,0-.8875.8816c-.0482.5644.3494.8036.82.8845a14.2022,14.2022,0,0,0,1.92.2251,56.0658,56.0658,0,0,1,8.7791.574,6.4939,6.4939,0,0,1,5.5555,6.3,6.3215,6.3215,0,0,1-4.9535,6.4763,32.5226,32.5226,0,0,1-17.6916-.1676c-2.0262-.6122-3.5576-1.8551-3.69-4.1893a4.0442,4.0442,0,0,1,2.2113-3.9416c.3486-.2025,1.034-.2249.4265-1.0119-2.336-3.0262-1.8065-5.383,1.5452-7.2772C133.4,513.9984,133.7048,513.8509,134.2549,513.5643Z"/><path class="cls-1" d="M321.1054,521.4635a7.5768,7.5768,0,0,1-8.9263,2.6855c-3.7153-1.1837-5.3-4.1808-5.9267-7.7639a19.7675,19.7675,0,0,1,.1878-7.7152c1.598-7.2718,8.9946-9.5965,14.21-5.2232V496.936c0-2.5888,0-2.5889,2.5958-2.5887,1.796,0,3.5925.0251,5.3878-.011.7111-.0144.9468.2311.9455.9443q-.0267,13.9192.0028,27.8384c.002.8126-.3118,1.0137-1.0558,1-1.945-.0354-3.8944-.08-5.8356.0139-1.2026.0583-1.8072-.244-1.5907-1.5407A9.8544,9.8544,0,0,0,321.1054,521.4635Z"/><path class="cls-1" d="M218.5276,509.4071a19.8544,19.8544,0,0,0,.5312,4.8859,4.12,4.12,0,0,0,3.9861,3.4068c1.9269-.0433,3.2938-1.188,3.7842-3.3919.2641-1.1868.5977-1.7188,2.0128-1.4937a50.2677,50.2677,0,0,0,6.1085.3837c.7468.0265.884.2334.7663.9827-1.2778,8.1357-8.2581,11.0462-14.5565,10.3221-7.4368-.8549-12.0352-6.04-12.2991-13.572a21.5272,21.5272,0,0,1,.8784-7.8236c2.3934-7.0046,7.565-9.6364,14.0109-9.2162,7.0473.4593,10.8208,4.0064,11.967,10.71.1517.8869.0453,1.2459-.9616,1.277-2.2869.0708-4.5713.2492-6.8537.4241-.8.0613-1.0525-.2445-1.021-1.0147a5.0309,5.0309,0,0,0-.2206-1.4693,3.9739,3.9739,0,0,0-3.3748-3.1487,3.7807,3.7807,0,0,0-3.8643,2.714A16.9484,16.9484,0,0,0,218.5276,509.4071Z"/><path class="cls-2" d="M346.108,509.2411c0-4.5407.0213-9.0816-.0176-13.622-.008-.938.209-1.3013,1.2368-1.2945q10.029.0669,20.0587,0c.9823-.0064,1.1638.3606,1.1337,1.2221-.0557,1.5948-.0637,3.1949.0024,4.7889.0382.92-.2655,1.1969-1.1836,1.1847-3.5421-.0472-7.0856.0122-10.6277-.0389-1.0027-.0144-1.381.2242-1.3791,1.3121.0061,3.4814-.04,3.4815,3.4139,3.4815,1.8462,0,3.6937.0418,5.5381-.017.931-.03,1.2186.3108,1.1817,1.2109-.0593,1.4446-.0655,2.8957.002,4.34.0433.9283-.2875,1.203-1.1943,1.1832-2.3939-.0523-4.7957.0845-7.1827-.0541-1.5172-.0882-1.8217.4535-1.764,1.8472.1114,2.69-.0062,5.3884.0526,8.0817.0215.9852-.2952,1.2895-1.2718,1.261-2.1937-.0639-4.3926-.0775-6.5851.0042-1.1115.0413-1.4565-.2805-1.44-1.419C346.1457,518.2232,346.108,513.7319,346.108,509.2411Z"/><path class="cls-2" d="M406.2785,504.4288c2.4224-3.1937,5.7459-3.4246,9.2571-2.5646a5.4147,5.4147,0,0,1,4.4685,5.6174c.11,5.1882.0635,10.38.1076,15.57.0063.746-.2057,1.081-1.0123,1.0682-2.3453-.0369-4.6924-.05-7.0369.0061-.9344.0225-1.0377-.4151-1.0335-1.1774.0238-4.2923.0148-8.5848.01-12.8773-.0022-1.8168-.4833-2.4906-1.7912-2.554-1.45-.07-2.4185.8642-2.44,2.5814-.0518,4.142-.067,8.2858,0,12.4273.02,1.211-.2614,1.6759-1.5545,1.6116-2.141-.1066-4.2919-.0636-6.4369-.013-.896.0211-1.2165-.2487-1.2119-1.1813q.05-9.9573-.0015-19.9148c-.0049-.9243.2772-1.2092,1.19-1.1786,1.8447.0618,3.6989.11,5.5377-.0118,1.3711-.0906,1.9224.3335,1.711,1.7122C406.0024,503.8061,405.8961,504.1485,406.2785,504.4288Z"/><path class="cls-2" d="M384.6516,520.7484c-2.3456,3.5926-5.4915,4.2871-9.0866,3.6221a5.6744,5.6744,0,0,1-4.9367-5.8658c-.0688-5.1892-.0012-10.38-.0384-15.57-.0062-.8666.2759-1.1034,1.11-1.0837,2.1447.05,4.2939.0781,6.4364-.008,1.1428-.046,1.5377.2372,1.5129,1.4607-.0819,4.0407-.0336,8.084-.03,12.1263.002,2.1015.4752,2.83,1.8178,2.8332a2.6593,2.6593,0,0,0,2.5985-2.89c.0436-3.992.0675-7.9858-.0141-11.9766-.0256-1.2526.3254-1.62,1.57-1.5574,2.0907.1051,4.1911.0581,6.2863.0141.8076-.0169,1.1472.1756,1.1428,1.07q-.049,10.0307.0015,20.0617c.0055.9874-.41,1.1552-1.255,1.1366-1.9454-.0431-3.8936-.0548-5.8381.0044-.9381.0285-1.4084-.2033-1.29-1.2321C384.7071,522.3054,384.6516,521.7028,384.6516,520.7484Z"/><path class="cls-1" d="M515.8585,504.5691a9.0638,9.0638,0,0,1,10.5125-2.3539,5.8524,5.8524,0,0,1,3.4645,5.6483c.092,5.1351.0639,10.2724.1058,15.4086.0055.6726-.2952.8455-.902.841-2.3939-.0177-4.7888-.04-7.1819.0087-.9792.02-.9926-.5293-.9907-1.2372.0116-4.2894.02-8.5788-.003-12.868-.01-1.8494-.7136-2.6027-2.1956-2.4868-1.3965.1092-2.16,1.1378-2.1713,3.0466-.0215,3.4912-.0065,6.9826-.0066,10.4739,0,3.0578,0,3.0579-3.0243,3.0578-1.6459,0-3.2931-.0392-4.9372.015-.8639.0284-1.099-.2977-1.0958-1.1254q.0385-10.025-.0025-20.05c-.0038-.8511.2568-1.1209,1.1035-1.0966,1.8938.0543,3.794.09,5.6841-.0092,1.2413-.065,1.9233.1834,1.6486,1.5881A7.294,7.294,0,0,0,515.8585,504.5691Z"/><path class="cls-1" d="M293.9947,520.9069c-2.4914,3.5542-5.6639,4.1189-9.2305,3.4361a5.3209,5.3209,0,0,1-4.5755-5.0219c-.1521-5.532-.0817-11.07-.12-16.6056-.0046-.6555.2617-.861.8892-.8553,2.394.0219,4.7892.0471,7.182-.0094,1.0372-.0245.94.5964.94,1.26q-.0075,5.761-.002,11.522c0,.4489-.0025.8979.0077,1.3466.0252,1.1079.17,2.135,1.5872,2.2758a2.5659,2.5659,0,0,0,2.68-2.1054,18.8434,18.8434,0,0,0,.2-3.8743c0-3.0426.0287-6.0856-.0171-9.1276-.0138-.9207.1721-1.34,1.2179-1.3033,2.1919.0781,4.3891.0528,6.5829.0088.7826-.0157,1.0286.2364,1.0257,1.02q-.0378,10.1.0031,20.2009c.0046.9268-.4058,1.06-1.1746,1.0451-1.8449-.0349-3.6951-.0877-5.5349.0154-1.2726.0714-1.9015-.2456-1.6695-1.6235A12.2026,12.2026,0,0,0,293.9947,520.9069Z"/><path class="cls-2" d="M187.1817,514.7716c-2.1934,0-4.388.044-6.5795-.0194-.971-.0281-1.2216.3106-1.0812,1.22a2.9129,2.9129,0,0,0,2.4207,2.8158c1.7141.3358,3.387-.1587,4.0033-1.5536a1.5335,1.5335,0,0,1,1.83-1.0229c1.985.155,3.9736.3216,5.9625.3466,1.1559.0146,1.0634.503.7545,1.275a10.233,10.233,0,0,1-4.1841,4.925c-4.1177,2.6013-11.5378,2.4452-15.5412-.32a11.17,11.17,0,0,1-4.4034-12.3823,11.5438,11.5438,0,0,1,10.0975-8.4865c4.2216-.3573,8.1644.2175,11.2934,3.4516,2.4157,2.4968,3.1086,5.5774,3.0762,8.9224-.0077.805-.4652.8384-1.0687.8341C191.5685,514.7619,189.3751,514.7712,187.1817,514.7716Z"/><path class="cls-1" d="M263.9008,501.48c6.5413.0855,11.2119,3.4508,12.364,8.699,1.6478,7.5063-3.126,13.6389-11.1956,14.3821-6.523.6008-11.9953-2.9645-13.3972-8.7286a11.4912,11.4912,0,0,1,10.2838-14.2636C262.7,501.5076,263.4494,501.5,263.9008,501.48Z"/><path class="cls-1" d="M115.2668,501.5446c6.1872-.0276,10.8836,3.2207,12.1453,8.34,1.8679,7.58-2.9734,13.9658-11.1275,14.6772-6.6826.583-12.2034-3.1167-13.4631-9.0221a11.4634,11.4634,0,0,1,10.6518-13.9907C114.0691,501.5137,114.6689,501.5446,115.2668,501.5446Z"/><path class="cls-1" d="M491.4894,501.5606c5.8212-.0264,10.2363,2.6968,11.79,7.3685,2.4541,7.38-1.7648,14.9546-10.8393,15.6438-6.0023.4558-10.9438-2.32-12.9315-7.3542a11.503,11.503,0,0,1,9.8889-15.6508C490.0906,501.513,490.7919,501.5606,491.4894,501.5606Z"/><path class="cls-1" d="M87.9058,501.5541c4.9609-.0328,9.1011,1.7037,11.2627,6.3646,3.1454,6.7823-.2179,14.8834-8.5684,16.3932-3.9581.7156-7.7835.3266-11.0974-2.203A11.4264,11.4264,0,0,1,75.55,509.6612a11.6277,11.6277,0,0,1,10.2631-8.1C86.5076,501.5121,87.2082,501.5541,87.9058,501.5541Z"/><path class="cls-1" d="M532.6,517.8235c2.2084-.3,4.2814-.5587,6.3447-.8786.5441-.0844.756.1027,1.0513.528,1.1863,1.709,5.6512,2.4811,7.4153,1.3391a.8849.8849,0,0,0,.5081-.9819,1.2061,1.2061,0,0,0-1.1022-.8811c-1.8566-.3556-3.7317-.6166-5.5857-.9842a31.6105,31.6105,0,0,1-3.1655-.854,5.8609,5.8609,0,0,1-4.3034-5.0349,6.301,6.301,0,0,1,2.5361-6.3064,10.2531,10.2531,0,0,1,4.9085-2.0437,18.0246,18.0246,0,0,1,8.425.4972,8.4437,8.4437,0,0,1,4.7148,3.7165c.5739.9424.6821,1.4825-.6841,1.642-1.4791.1726-2.9394.5119-4.4048.7944a1.46,1.46,0,0,1-1.5764-.4525,5.3,5.3,0,0,0-5.4166-1.033c-.4032.18-.9094.3407-.9027.8763a1.036,1.036,0,0,0,.98.9751c1.9112.3206,3.8337.5745,5.7458.89A22.1785,22.1785,0,0,1,551,510.25a6.7067,6.7067,0,0,1,1.7681,12.2178c-3.2583,2.0969-6.9269,2.33-10.6594,2.0268a13.8747,13.8747,0,0,1-4.4866-1.059A8.6564,8.6564,0,0,1,532.6,517.8235Z"/><path class="cls-1" d="M434.9941,501.4805c5.73.0439,9.552,2.5912,10.9026,6.9322.5531,1.7779.5253,1.848-1.3451,2.0474-1.1388.1214-2.2928.1066-3.43.24-2.3337.2736-2.3375.3009-3.3112-1.7344a2.3243,2.3243,0,0,0-2.5018-1.4844,2.2439,2.2439,0,0,0-2.0377,1.9061,14.5513,14.5513,0,0,0-.0313,6.9548,2.4086,2.4086,0,0,0,2.4034,2.0606,2.3583,2.3583,0,0,0,2.6632-1.9028c.2663-1.2512.8791-1.3589,1.9594-1.2179,1.6267.2123,3.2745.29,4.916.3533.9561.037,1.2861.2468,1.0062,1.3262-1.3215,5.096-5.9016,8.1226-11.68,7.6142-5.401-.4752-9.2564-3.4475-10.4954-8.0916a12.0385,12.0385,0,0,1,4.2878-12.9469A11.0635,11.0635,0,0,1,434.9941,501.4805Z"/><path class="cls-1" d="M449.9424,513.475c0-1.545-.0516-3.0924.0188-4.6342.0442-.9679-.25-1.292-1.25-1.2818-2.27.0231-2.27-.031-2.27-2.2856,0-.1495-.003-.2991.0006-.4486.0212-.8942-.2593-1.9745.1452-2.6345.4768-.7782,1.6516-.2757,2.5142-.2991.8128-.0221.8463-.4476.85-1.0551.01-1.7436.0815-3.4872.0713-5.23-.0042-.7225.266-.94.9661-.9381,2.2419.0073,4.4844-.0242,6.7257-.08.7109-.0177.9649.2351.95.9475-.0353,1.7437.0256,3.49-.0263,5.2325-.0244.8211.1965,1.2371,1.0733,1.1011a.592.592,0,0,1,.1493,0c1.0722.109,2.8676-.4445,3.0824.2537.4762,1.5478.2161,3.3324.1892,5.0193-.0094.5879-.5763.4058-.94.438-1.1275.1-2.6083-.494-3.2986.2585-.734.8-.1908,2.2824-.2294,3.4651-.0439,1.3443-.0145,2.691-.0092,4.0367.0092,2.3329.6964,3.0556,2.9641,2.6137,1.4424-.2811,1.685.1387,1.582,1.4157-.1,1.238-.0265,2.49-.0224,3.7362.0017.4836-.0547.8559-.679.9388a21.6691,21.6691,0,0,1-7.7192.006,5.5968,5.5968,0,0,1-4.8132-5.7912c-.0611-1.5924-.0106-3.1891-.0106-4.7838Z"/><path class="cls-2" d="M238.8866,509.21c0-4.5375.0237-9.0751-.019-13.6122-.0091-.9653.254-1.306,1.2584-1.2728,2.1916.0725,4.3876.0485,6.5808.0085.7934-.0145,1.1511.156,1.1482,1.0589q-.0436,13.8366-.0006,27.6733c.0029.9163-.3859,1.0666-1.1653,1.0543-2.1934-.0349-4.3895-.0656-6.5808.0112-1.0441.0366-1.2447-.3826-1.2375-1.309C238.9057,518.285,238.8866,513.7474,238.8866,509.21Z"/><path class="cls-1" d="M166.4254,509.1845c0,4.4867-.0426,8.9741.0281,13.46.019,1.2068-.3608,1.5355-1.5208,1.4878-2.09-.0859-4.1871-.05-6.28-.0123-.7743.014-1.0361-.25-1.0344-1.0306q.03-13.8342-.0042-27.6683c-.0025-.8644.289-1.1078,1.1184-1.089,2.0928.0473,4.19.0731,6.28-.0081,1.0952-.0426,1.4572.2528,1.44,1.4007C166.3858,500.21,166.4253,504.6977,166.4254,509.1845Z"/><path class="cls-2" d="M475.2108,513.0826c0,3.1919-.0371,6.3844.0213,9.5752.0193,1.0523-.1854,1.5308-1.3789,1.4773-2.14-.0959-4.2885-.0586-6.432-.0119-.8709.019-1.2367-.2014-1.2316-1.1589q.0523-10.0242,0-20.0488c-.0045-.9033.352-1.0762,1.1492-1.0619,2.2436.0405,4.49.0577,6.732-.0062.9544-.0271,1.1668.3341,1.156,1.211C475.1862,506.3993,475.2107,509.7411,475.2108,513.0826Z"/><path class="cls-3" d="M470.7118,500.2428c-1.436,0-3.3573.5634-4.1818-.1467-.9681-.8338-.2756-2.8067-.3086-4.2828-.0541-2.4163-.0146-2.4172,2.466-2.4171,1.7941,0,3.5887.0277,5.3819-.0119.7982-.0176,1.1862.1868,1.1567,1.0773q-.0819,2.4641-.0006,4.9326c.0264.8361-.3462,1.0064-1.0748.98-1.1447-.0417-2.2921-.0111-3.4383-.0111Z"/><path class="cls-4" d="M142.6772,527.2457a22.9628,22.9628,0,0,1-4.73-.492c-.8108-.2106-1.541-.6109-1.5043-1.5847.0392-1.0411.912-1.326,1.7-1.3093,2.6282.0557,5.2549.2124,7.88.3729a1.1536,1.1536,0,0,1,1.1933,1.1122,1.3968,1.3968,0,0,1-1.1418,1.5349A10.9635,10.9635,0,0,1,142.6772,527.2457Z"/><path class="cls-5" d="M141.9547,511.1487a2.3171,2.3171,0,0,1-2.6208-2.6577,2.6345,2.6345,0,1,1,5.2664.0356C144.6167,510.3032,143.7515,511.1608,141.9547,511.1487Z"/><path class="cls-6" d="M320.585,512.7c0,1.1416.0644,2.2877-.0159,3.4235a2.5029,2.5029,0,0,1-2.2255,2.5623A2.3845,2.3845,0,0,1,315.67,516.63a14.0448,14.0448,0,0,1,.2867-8.2053,2.1606,2.1606,0,0,1,2.5947-1.4909,2.1023,2.1023,0,0,1,1.9979,2.0458c.1069,1.2315.0241,2.4794.0241,3.72Z"/><path class="cls-5" d="M182.6417,510.3093c-.5945,0-1.1891.0044-1.7836-.0009-1.4425-.0131-1.6489-.2951-1.2137-1.6472.4907-1.5245,1.7285-2.2248,3.526-1.9947A2.9581,2.9581,0,0,1,185.735,509.5c.0513.5966-.1407.8185-.7153.8078-.7924-.0148-1.5853-.0037-2.378-.0037Z"/><path class="cls-6" d="M260.9978,513.1893a11.8068,11.8068,0,0,1,.4226-4.1349,2.5724,2.5724,0,0,1,2.704-2.098,2.4967,2.4967,0,0,1,2.4455,2.2164,17.4088,17.4088,0,0,1-.1647,8.1254,2.3156,2.3156,0,0,1-2.4578,1.9429,2.4721,2.4721,0,0,1-2.5271-1.919A11.5312,11.5312,0,0,1,260.9978,513.1893Z"/><path class="cls-6" d="M118.116,512.896a14.4348,14.4348,0,0,1-.5,4.4278,2.3083,2.3083,0,0,1-2.335,1.9145,2.3573,2.3573,0,0,1-2.5805-1.8115,15.4944,15.4944,0,0,1,.0151-8.5317,2.424,2.424,0,0,1,2.6518-1.9386,2.5966,2.5966,0,0,1,2.4326,2.2393A12.15,12.15,0,0,1,118.116,512.896Z"/><path class="cls-6" d="M494.3033,513.158a13.8175,13.8175,0,0,1-.3961,3.8694,2.6017,2.6017,0,0,1-5.12.1421,16.4786,16.4786,0,0,1-.03-7.83c.4238-1.7207,1.35-2.4605,2.78-2.3768,1.5653.0915,2.1746,1.1275,2.5069,2.5083A16.862,16.862,0,0,1,494.3033,513.158Z"/><path class="cls-6" d="M90.6215,512.4868a17.741,17.741,0,0,1-.4058,4.6351,2.5749,2.5749,0,0,1-5.0181.23,15.8585,15.8585,0,0,1,.0027-8.3987,2.4431,2.4431,0,0,1,2.6144-1.9988,2.5308,2.5308,0,0,1,2.4773,2.1669A13.3909,13.3909,0,0,1,90.6215,512.4868Z"/><path class="cls-7" d="M291.5874,431.9628q-34.9778-.0014-69.9555.0084c-11.4819.0154-20.0406-5.3787-26.1131-14.6605-4.1286-6.3107-7.4561-13.142-11.221-19.695-3.11-5.4137-6.402-10.7236-9.493-16.1479-3.05-5.3519-5.8976-10.8187-8.9306-16.18-2.3147-4.0918-4.8132-8.0792-7.1677-12.149-1.6651-2.8781-3.1891-5.8376-4.8425-8.7227-2.47-4.31-5.0093-8.579-7.4974-12.8782q-3.4085-5.8894-6.77-11.8059-3.5577-6.2281-7.1-12.4653-3.7956-6.669-7.5871-13.34c-.9573-1.6876-1.7379-3.4562-2.5494-5.2184-2.69-5.8426-2.2417-11.9595-1.1756-17.8347.7014-3.8657,2.753-7.6093,4.98-11.0874,2.49-3.8873,4.65-7.9858,6.9485-11.995q3.8043-6.6348,7.6007-13.274c2.4111-4.2059,4.8066-8.4208,7.2471-12.61,2.4027-4.1244,4.8857-8.2021,7.2736-12.3349,2.2614-3.9138,4.4373-7.8768,6.6654-11.81,1.6423-2.8992,3.3074-5.7854,4.9633-8.6768,1.7717-3.0937,3.5328-6.1935,5.32-9.2785,2.4825-4.2861,4.9969-8.5537,7.4751-12.8422q3.6369-6.2938,7.2254-12.6154c1.4812-2.6061,2.825-5.2959,4.4113-7.8351,1.8512-2.9631,3.5128-6.0338,5.488-8.9337,2.6267-3.8563,6.2905-6.356,10.1378-8.6835,5.9588-3.6049,12.5344-4.034,19.3282-4.0189,44.5842.0992,89.1687.022,133.753.0694,13.0385.0138,22.4105,6.2777,28.8059,17.413,3.2255,5.616,6.5869,11.154,9.8062,16.7735,2.2959,4.0078,4.2645,8.2149,6.7334,12.1085,2.4374,3.844,4.5886,7.84,6.8753,11.7622,3.31,5.6775,6.3775,11.5,9.7909,17.1127,2.4832,4.0835,4.6648,8.3346,7.2782,12.3523,2.5553,3.9284,4.5511,8.217,6.8821,12.2963,2.9033,5.0809,5.9273,10.0927,8.8465,15.1647,3.2986,5.7313,6.5085,11.5137,9.8182,17.2386,1.4606,2.5267,2.9315,5.0267,4.2149,7.6657a29.4979,29.4979,0,0,1,3.2863,15.6265,35.54,35.54,0,0,1-4.9784,15.42c-3.1317,5.2215-6.0261,10.5849-9.0672,15.8615-3.2059,5.5623-6.5063,11.0705-9.6849,16.6482-3.0089,5.28-5.8423,10.6608-8.8841,15.9215-3.0521,5.2786-6.3287,10.4273-9.3891,15.7013-2.4029,4.141-4.58,8.4126-6.9426,12.5777-2.3253,4.0989-4.7848,8.1216-7.1378,12.2052-3.113,5.4022-5.9958,10.9467-9.3133,16.2187-4.0222,6.3922-6.9741,13.438-11.7885,19.3361a35.5581,35.5581,0,0,1-8.8141,7.537c-5.1179,3.2378-10.4447,4.1335-16.275,4.1111C337.2394,431.9118,314.4133,431.9637,291.5874,431.9628Z"/><path class="cls-1" d="M292,430.9278c-23.8107,0-47.6234.176-71.4313-.0843-9.8967-.1082-17.6865-4.8295-23.2608-13.0883-4.6009-6.8166-8.3377-14.13-12.3711-21.2747-2.9877-5.2926-6.4315-10.3407-9.2053-15.7377-2.8959-5.6348-6.1517-11.065-9.3166-16.5249-3.0186-5.2074-6.0721-10.4234-9.08-15.6371-2.4595-4.2632-4.9477-8.54-7.2644-12.9035-2.8479-5.3636-6.3519-10.3814-9.15-15.7683-2.2837-4.3974-5.0542-8.4991-7.274-12.9316-1.9918-3.9774-4.404-7.7441-6.6293-11.6045-2.8592-4.96-5.3263-9.9333-5.3038-15.981a33.9823,33.9823,0,0,1,2.26-13.3511,81.3131,81.3131,0,0,1,4.8046-8.7286c2.3519-4.071,4.7878-8.0935,7.137-12.1661,3.0806-5.34,6.1164-10.7065,9.1625-16.0666,3.2072-5.6435,6.369-11.3132,9.6168-16.9332,2.3931-4.141,4.937-8.1949,7.332-12.3348,2.3912-4.1332,4.6529-8.3411,7.0222-12.4872,2.94-5.1452,5.96-10.2451,8.8936-15.3937,2.5444-4.4649,5.2168-8.8526,7.6236-13.4025,2.19-4.1408,4.885-8.0121,7.1716-12.1059,1.9855-3.5546,3.82-7.1945,6.5816-10.2305a31.7363,31.7363,0,0,1,9.3842-6.8738c6.5255-3.307,13.4483-3.3839,20.4736-3.3788q64.6585.0474,129.3168-.0206a38.8472,38.8472,0,0,1,12.31,1.9188,27.887,27.887,0,0,1,15.3342,12.2653c3.6438,6.0366,7.0534,12.2142,10.5905,18.3115,4.0838,7.04,8.0745,14.132,12.1491,21.1763,3.124,5.4009,6.4008,10.7135,9.521,16.1165,3.0369,5.2588,5.9186,10.607,8.9455,15.8717,3.7651,6.5491,7.6331,13.039,11.4117,19.5805,3.003,5.1987,5.9058,10.4554,8.914,15.6511,2.4773,4.2786,5.0534,8.5,7.5692,12.7564,4.7227,7.99,6.9282,16.3575,4.9574,25.7564-1.03,4.9131-3.1982,9.1107-5.6642,13.3126-2.4189,4.1218-4.6474,8.3549-7.0182,12.5055-2.2542,3.9464-4.6238,7.8272-6.8709,11.7775-2.5258,4.44-4.93,8.95-7.464,13.3847-2.2555,3.947-4.6238,7.83-6.93,11.7479-1.7267,2.934-3.4287,5.8826-5.15,8.82-1.7933,3.059-3.6157,6.1011-5.39,9.1707-1.5813,2.7347-3.0988,5.5062-4.673,8.245-2.627,4.57-5.3051,9.1117-7.9085,13.6954-2.3223,4.0888-4.5331,8.241-6.8659,12.3236-2.2561,3.9484-4.6157,7.8374-6.91,11.764-2.1395,3.6611-4.1864,7.3793-7.3539,10.3121a37.389,37.389,0,0,1-11,6.9706c-3.55,1.516-6.9554,1.5727-10.52,1.5766q-34.2382.0375-68.4763.0128Z"/><path class="cls-6" d="M370.2276,278.6544c.0012,12.2335-.0308,24.4672.0328,36.7a6.4546,6.4546,0,0,1-2.0315,5.0217c-7.6565,7.5535-15.2343,15.1868-22.8453,22.7865-2.2014,2.1981-2.8378,2.1954-5.031.01-2.9078-2.8978-5.7382-5.8779-8.7374-8.6774-1.5458-1.4429-1.343-2.3712.0642-3.7805,5.7372-5.7459,11.34-11.6254,17.0469-17.402a5.7824,5.7824,0,0,0,1.8024-4.3711q-.0505-30.173.0043-60.3463a7.0664,7.0664,0,0,0-2.2811-5.4418c-5.5823-5.4371-11.01-11.0327-16.575-16.488-1.3894-1.3621-1.6631-2.2867-.1145-3.7861,3.1157-3.0165,6.068-6.2059,9.0138-9.3923,1.5543-1.6812,2.8637-1.7791,4.5215-.074q11.7536,12.0884,23.63,24.0566a5.5207,5.5207,0,0,1,1.519,4.238C370.2093,254.0232,370.2265,266.3388,370.2276,278.6544Z"/><path class="cls-6" d="M212.1053,278.455c-.0007-12.2278.033-24.4558-.035-36.6832a6.1752,6.1752,0,0,1,1.9892-4.779q11.8038-11.6974,23.4739-23.5292c1.5967-1.6238,2.7114-1.5885,4.2464.0361,3.0424,3.22,6.1859,6.35,9.3939,9.4049,1.3962,1.33,1.4117,2.242.0165,3.61-5.86,5.7446-11.5971,11.6143-17.4452,17.3713a6.2139,6.2139,0,0,0-1.9923,4.7895c.0451,20.0239.0766,40.0482-.0279,60.0717-.0148,2.8266,1.8,4.299,3.3809,5.9341q7.87,8.1415,15.9925,16.0376c1.4477,1.4132,1.5709,2.3442.036,3.7779-3.1168,2.9114-6.0564,6.0118-9.0939,9.009-2.2885,2.2581-2.6,2.2367-4.946-.1106-7.5415-7.5461-15.0376-15.1384-22.6535-22.6086a7.5425,7.5425,0,0,1-2.364-5.8943C212.14,302.7465,212.1061,290.6007,212.1053,278.455Z"/><path class="cls-6" d="M330.3613,278.5279c.8963,5.9555-4.73,9.7015-8.8553,9.4331-5.9716-.3886-9.18-2.6194-9.5971-9.4273-.3026-4.9441,4.4139-9.6648,9.5632-9.2864C326.9644,269.6509,330.3629,272.83,330.3613,278.5279Z"/><path class="cls-6" d="M270.7268,278.6782c.7688,4.9948-4.7458,9.5226-9.2389,9.3279-5.6559-.2453-9.3364-3.98-9.4958-9.47-.1444-4.9765,4.3427-9.1967,9.47-9.1987C266.962,269.335,270.7141,273.118,270.7268,278.6782Z"/><path class="cls-6" d="M282.034,278.6012c-.7134-4.4087,3.9439-9.4726,9.4447-9.2861a9.5843,9.5843,0,0,1,9.2032,9.341c.2084,5.2274-3.9184,8.9313-9.5458,8.927C285.7307,287.5791,282.0279,283.9251,282.034,278.6012Z"/></svg>