<svg id="Layer_1" data-name="Layer 1" xmlns="http://www.w3.org/2000/svg" viewBox="0 0 227 148"><defs><style>.cls-1,.cls-14,.cls-18,.cls-2,.cls-3{isolation:isolate;}.cls-2,.cls-3{font-size:5.1795px;font-family:OpenSans-SemiboldItalic, Open Sans;font-weight:600;font-style:italic;}.cls-2,.cls-3,.cls-4{fill:#ff4e5a;}.cls-2{letter-spacing:1.99em;}.cls-5{fill:#ececec;}.cls-6{fill:#f5f5f5;}.cls-7{fill:#e1e1e1;}.cls-8{fill:#fafafa;}.cls-9{fill:#1a2e35;}.cls-10{fill:#375a64;}.cls-11{fill:#fff;}.cls-12{fill:#ffbf9d;}.cls-13{fill:#ff9a6c;}.cls-14,.cls-15{opacity:0.4;}.cls-16{fill:#ff4f5b;}.cls-17{opacity:0.6;}.cls-18{opacity:0.5;}</style></defs><title>iArtboard 1</title><g class="cls-1"><text class="cls-2" transform="translate(44.0239 33.9028)"><tspan xml:space="preserve">  </tspan></text><text class="cls-3" transform="translate(67.3306 33.9028)">Crecen automáticamente dependiendo de su uso</text><text class="cls-3" transform="translate(44.0239 40.3784)">Reduce el tiempo de comercialización</text></g><circle class="cls-4" cx="64.955" cy="32.1589" r="0.9712"/><circle class="cls-4" cx="41.9712" cy="38.6332" r="0.9712"/><rect class="cls-5" x="65.9589" y="63.8481" width="19.2282" height="58.9027"/><rect class="cls-6" x="85.1281" y="63.8481" width="15.197" height="58.7144"/><rect class="cls-7" x="66.9911" y="73.2739" width="16.3108" height="4.5915"/><rect class="cls-6" x="67.4448" y="73.8524" width="0.9142" height="3.514"/><circle class="cls-8" cx="69.144" cy="74.5919" r="0.2904"/><circle class="cls-8" cx="69.144" cy="75.8328" r="0.2904"/><rect class="cls-6" x="70.5958" y="74.3015" width="0.8983" height="2.6996"/><rect class="cls-6" x="71.8912" y="74.3015" width="0.8983" height="2.6996"/><rect class="cls-6" x="73.1888" y="74.3015" width="0.8983" height="2.6996"/><rect class="cls-6" x="74.4841" y="74.3015" width="0.8983" height="2.6996"/><rect class="cls-6" x="75.7817" y="74.3015" width="0.8983" height="2.6996"/><rect class="cls-6" x="77.0771" y="74.3015" width="0.8983" height="2.6996"/><rect class="cls-6" x="78.3747" y="74.3015" width="0.8983" height="2.6996"/><rect class="cls-6" x="79.67" y="74.3015" width="0.8983" height="2.6996"/><rect class="cls-6" x="80.9676" y="74.3015" width="0.8983" height="2.6996"/><rect class="cls-6" x="82.2629" y="74.3015" width="0.8983" height="2.6996"/><rect class="cls-7" x="66.9911" y="80.6308" width="16.3108" height="4.5915"/><rect class="cls-6" x="67.4448" y="81.207" width="0.9142" height="3.514"/><circle class="cls-8" cx="69.144" cy="81.9465" r="0.2904"/><circle class="cls-8" cx="69.144" cy="83.1874" r="0.2904"/><rect class="cls-6" x="70.5958" y="81.6562" width="0.8983" height="2.6996"/><rect class="cls-6" x="71.8912" y="81.6562" width="0.8983" height="2.6996"/><rect class="cls-6" x="73.1888" y="81.6562" width="0.8983" height="2.6996"/><rect class="cls-6" x="74.4841" y="81.6562" width="0.8983" height="2.6996"/><rect class="cls-6" x="75.7817" y="81.6562" width="0.8983" height="2.6996"/><rect class="cls-6" x="77.0771" y="81.6562" width="0.8983" height="2.6996"/><rect class="cls-6" x="78.3747" y="81.6562" width="0.8983" height="2.6996"/><rect class="cls-6" x="79.67" y="81.6562" width="0.8983" height="2.6996"/><rect class="cls-6" x="80.9676" y="81.6562" width="0.8983" height="2.6996"/><rect class="cls-6" x="82.2629" y="81.6562" width="0.8983" height="2.6996"/><rect class="cls-7" x="66.9911" y="87.9854" width="16.3108" height="4.5915"/><rect class="cls-6" x="67.4448" y="88.5616" width="0.9142" height="3.514"/><circle class="cls-8" cx="69.144" cy="89.3011" r="0.2904"/><path class="cls-8" d="M69.4366,90.5443a.29.29,0,1,1-.29-.29h0A.29.29,0,0,1,69.4366,90.5443Z"/><rect class="cls-6" x="70.5958" y="89.0108" width="0.8983" height="2.6996"/><rect class="cls-6" x="71.8912" y="89.0108" width="0.8983" height="2.6996"/><rect class="cls-6" x="73.1888" y="89.0108" width="0.8983" height="2.6996"/><rect class="cls-6" x="74.4841" y="89.0108" width="0.8983" height="2.6996"/><rect class="cls-6" x="75.7817" y="89.0108" width="0.8983" height="2.6996"/><rect class="cls-6" x="77.0771" y="89.0108" width="0.8983" height="2.6996"/><rect class="cls-6" x="78.3747" y="89.0108" width="0.8983" height="2.6996"/><rect class="cls-6" x="79.67" y="89.0108" width="0.8983" height="2.6996"/><rect class="cls-6" x="80.9676" y="89.0108" width="0.8983" height="2.6996"/><rect class="cls-6" x="82.2629" y="89.0108" width="0.8983" height="2.6996"/><rect class="cls-7" x="66.9911" y="95.34" width="16.3108" height="4.5915"/><rect class="cls-6" x="67.4448" y="95.9185" width="0.9142" height="3.514"/><circle class="cls-8" cx="69.144" cy="96.658" r="0.2904"/><path class="cls-8" d="M69.4366,97.9012a.29.29,0,1,1-.5807.0008v-.0008a.29.29,0,1,1,.5807-.0008Z"/><rect class="cls-6" x="70.5958" y="96.3677" width="0.8983" height="2.6996"/><rect class="cls-6" x="71.8912" y="96.3677" width="0.8983" height="2.6996"/><rect class="cls-6" x="73.1888" y="96.3677" width="0.8983" height="2.6996"/><rect class="cls-6" x="74.4841" y="96.3677" width="0.8983" height="2.6996"/><rect class="cls-6" x="75.7817" y="96.3677" width="0.8983" height="2.6996"/><rect class="cls-6" x="77.0771" y="96.3677" width="0.8983" height="2.6996"/><rect class="cls-6" x="78.3747" y="96.3677" width="0.8983" height="2.6996"/><rect class="cls-6" x="79.67" y="96.3677" width="0.8983" height="2.6996"/><rect class="cls-6" x="80.9676" y="96.3677" width="0.8983" height="2.6996"/><rect class="cls-6" x="82.2629" y="96.3677" width="0.8983" height="2.6996"/><rect class="cls-7" x="66.9911" y="102.6969" width="16.3108" height="4.5915"/><rect class="cls-6" x="67.4448" y="103.2731" width="0.9142" height="3.514"/><circle class="cls-8" cx="69.144" cy="104.0126" r="0.2904"/><path class="cls-8" d="M69.4366,105.2558a.29.29,0,1,1-.29-.29h0A.29.29,0,0,1,69.4366,105.2558Z"/><rect class="cls-6" x="70.5958" y="103.7223" width="0.8983" height="2.6996"/><rect class="cls-6" x="71.8912" y="103.7223" width="0.8983" height="2.6996"/><rect class="cls-6" x="73.1888" y="103.7223" width="0.8983" height="2.6996"/><rect class="cls-6" x="74.4841" y="103.7223" width="0.8983" height="2.6996"/><rect class="cls-6" x="75.7817" y="103.7223" width="0.8983" height="2.6996"/><rect class="cls-6" x="77.0771" y="103.7223" width="0.8983" height="2.6996"/><rect class="cls-6" x="78.3747" y="103.7223" width="0.8983" height="2.6996"/><rect class="cls-6" x="79.67" y="103.7223" width="0.8983" height="2.6996"/><rect class="cls-6" x="80.9676" y="103.7223" width="0.8983" height="2.6996"/><rect class="cls-6" x="82.2629" y="103.7223" width="0.8983" height="2.6996"/><rect class="cls-7" x="66.9911" y="110.0515" width="16.3108" height="4.5915"/><rect class="cls-6" x="67.4448" y="110.63" width="0.9142" height="3.514"/><circle class="cls-8" cx="69.144" cy="111.3673" r="0.2904"/><path class="cls-8" d="M69.4366,112.6059a.29.29,0,1,1-.29-.29h0A.29.29,0,0,1,69.4366,112.6059Z"/><rect class="cls-6" x="70.5958" y="111.0769" width="0.8983" height="2.6996"/><rect class="cls-6" x="71.8912" y="111.0769" width="0.8983" height="2.6996"/><rect class="cls-6" x="73.1888" y="111.0769" width="0.8983" height="2.6996"/><rect class="cls-6" x="74.4841" y="111.0769" width="0.8983" height="2.6996"/><rect class="cls-6" x="75.7817" y="111.0769" width="0.8983" height="2.6996"/><rect class="cls-6" x="77.0771" y="111.0769" width="0.8983" height="2.6996"/><rect class="cls-6" x="78.3747" y="111.0769" width="0.8983" height="2.6996"/><rect class="cls-6" x="79.67" y="111.0769" width="0.8983" height="2.6996"/><rect class="cls-6" x="80.9676" y="111.0769" width="0.8983" height="2.6996"/><rect class="cls-6" x="82.2629" y="111.0769" width="0.8983" height="2.6996"/><rect class="cls-7" x="66.9911" y="117.4061" width="16.3108" height="4.5915"/><rect class="cls-6" x="67.4448" y="117.9846" width="0.9142" height="3.514"/><circle class="cls-8" cx="69.144" cy="118.7241" r="0.2904"/><path class="cls-8" d="M69.4366,119.9673a.29.29,0,1,1-.5807.0008v-.0008a.29.29,0,0,1,.5807,0Z"/><rect class="cls-6" x="70.5958" y="118.4338" width="0.8983" height="2.6996"/><rect class="cls-6" x="71.8912" y="118.4338" width="0.8983" height="2.6996"/><rect class="cls-6" x="73.1888" y="118.4338" width="0.8983" height="2.6996"/><rect class="cls-6" x="74.4841" y="118.4338" width="0.8983" height="2.6996"/><rect class="cls-6" x="75.7817" y="118.4338" width="0.8983" height="2.6996"/><rect class="cls-6" x="77.0771" y="118.4338" width="0.8983" height="2.6996"/><rect class="cls-6" x="78.3747" y="118.4338" width="0.8983" height="2.6996"/><rect class="cls-6" x="79.67" y="118.4338" width="0.8983" height="2.6996"/><rect class="cls-6" x="80.9676" y="118.4338" width="0.8983" height="2.6996"/><rect class="cls-6" x="82.2629" y="118.4338" width="0.8983" height="2.6996"/><path class="cls-7" d="M77.0793,73.2762a.5652.5652,0,0,1-.0181-.143c0-.093-.0136-.2268-.0182-.4083s0-.3925-.02-.6443a4.0536,4.0536,0,0,0-.1134-.8348,2.9493,2.9493,0,0,0-.4356-.9074,1.997,1.997,0,0,0-.8915-.7169,4.31,4.31,0,0,0-1.2659-.2586l-1.4042-.12c-1.926-.1679-3.6705-.2745-4.9363-.2995-.633-.0136-1.1343-.0113-1.4995,0H66.07a.9737.9737,0,0,1-.1429,0,.5293.5293,0,0,1,.1406-.0181l.4084-.025c.3538-.0158.8665-.0317,1.4995-.0295,1.27,0,3.0194.0976,4.9454.2655l1.4065.1247a4.3326,4.3326,0,0,1,1.2976.27,2.1168,2.1168,0,0,1,.93.7622,3.011,3.011,0,0,1,.4355.95,3.92,3.92,0,0,1,.0976.8553v1.0549A.6983.6983,0,0,1,77.0793,73.2762Z"/><path class="cls-7" d="M72.1316,73.2762a.4922.4922,0,0,1,0-.1339v-.3856c0-.1588,0-.37-.02-.6035a1.8976,1.8976,0,0,0-.2-.7554,1.4472,1.4472,0,0,0-.735-.5626,2.01,2.01,0,0,0-1.0708-.1089,1.7783,1.7783,0,0,0-.5535.1883,1.0666,1.0666,0,0,0-.4288.4038.5833.5833,0,0,0,0,.5717.7625.7625,0,0,0,.4832.363.615.615,0,0,0,.5672-.1634.8326.8326,0,0,0,.2541-.54.8238.8238,0,0,0-.1679-.5535,1.209,1.209,0,0,0-.431-.3789,1.5309,1.5309,0,0,0-.5354-.1384c-.1838-.0294-.363-.0521-.5377-.0725-.347-.0386-.68-.0613-.9686-.0726-.5921-.025-1.0753-.0159-1.4088-.0159h-.3993a.5546.5546,0,0,1-.1338,0,.5641.5641,0,0,1,.1338-.0159l.3834-.02c.3335-.0136.8144-.034,1.4133-.02.2972,0,.6261.0249.9755.0589.1747.0182.3562.0409.54.0658.093.0159.186.0273.2836.0454a1.0128,1.0128,0,0,1,.2881.1,1.318,1.318,0,0,1,.4718.4106A.9279.9279,0,0,1,70.24,72.185a.7329.7329,0,0,1-.6806.1951.8779.8779,0,0,1-.56-.422.6963.6963,0,0,1,0-.68,1.1607,1.1607,0,0,1,.4764-.4537,1.897,1.897,0,0,1,.59-.1951,2.0914,2.0914,0,0,1,1.1343.1247,1.5185,1.5185,0,0,1,.7713.6125,1.88,1.88,0,0,1,.1928.7918,6.0288,6.0288,0,0,1,0,.61,2.6953,2.6953,0,0,1-.0159.3834A.9042.9042,0,0,1,72.1316,73.2762Z"/><path class="cls-7" d="M78.411,73.2762a.805.805,0,0,1-.0318-.143c-.0159-.1-.0454-.2472-.0862-.4355a8.5255,8.5255,0,0,0-.4809-1.5562,4.5519,4.5519,0,0,0-1.42-1.9011,2.6794,2.6794,0,0,0-1.2977-.4945,13.8462,13.8462,0,0,0-1.529-.0817c-2.1074-.0386-4.0175-.0317-5.4014-.0862-.68-.0249-1.25-.059-1.6356-.0862l-.4423-.0386a.9122.9122,0,0,1-.1543-.02.5777.5777,0,0,1,.1543,0l.4537.0159c.3879.0136.946.034,1.6356.0476,1.3815.0341,3.2916.0137,5.4014.0522a13.187,13.187,0,0,1,1.5426.0862,2.7649,2.7649,0,0,1,1.3475.5218,4.0655,4.0655,0,0,1,.9074.9505,5.4722,5.4722,0,0,1,.5309,1.005,7.8614,7.8614,0,0,1,.4537,1.588c.034.1905.0544.34.0658.44A1.0022,1.0022,0,0,1,78.411,73.2762Z"/><rect class="cls-7" x="67.2134" y="64.5808" width="15.8616" height="2.3026"/><rect class="cls-6" x="70.7024" y="65.731" width="8.6363" height="1.1524"/><rect class="cls-5" x="126.2409" y="63.8481" width="19.2282" height="58.9027"/><rect class="cls-6" x="145.4101" y="63.8481" width="15.197" height="58.7144"/><rect class="cls-7" x="127.2731" y="73.2739" width="16.3108" height="4.5915"/><rect class="cls-6" x="127.7268" y="73.8524" width="0.9142" height="3.514"/><circle class="cls-8" cx="129.4259" cy="74.5919" r="0.2904"/><circle class="cls-8" cx="129.4259" cy="75.8328" r="0.2904"/><rect class="cls-6" x="130.8778" y="74.3015" width="0.8983" height="2.6996"/><rect class="cls-6" x="132.1732" y="74.3015" width="0.8983" height="2.6996"/><rect class="cls-6" x="133.4708" y="74.3015" width="0.8983" height="2.6996"/><rect class="cls-6" x="134.7661" y="74.3015" width="0.8983" height="2.6996"/><rect class="cls-6" x="136.0637" y="74.3015" width="0.8983" height="2.6996"/><rect class="cls-6" x="137.359" y="74.3015" width="0.8983" height="2.6996"/><rect class="cls-6" x="138.6566" y="74.3015" width="0.8983" height="2.6996"/><rect class="cls-6" x="139.952" y="74.3015" width="0.8983" height="2.6996"/><rect class="cls-6" x="141.2496" y="74.3015" width="0.8983" height="2.6996"/><rect class="cls-6" x="142.5449" y="74.3015" width="0.8983" height="2.6996"/><rect class="cls-7" x="127.2731" y="80.6308" width="16.3108" height="4.5915"/><rect class="cls-6" x="127.7268" y="81.207" width="0.9142" height="3.514"/><circle class="cls-8" cx="129.4259" cy="81.9465" r="0.2904"/><circle class="cls-8" cx="129.4259" cy="83.1874" r="0.2904"/><rect class="cls-6" x="130.8778" y="81.6562" width="0.8983" height="2.6996"/><rect class="cls-6" x="132.1732" y="81.6562" width="0.8983" height="2.6996"/><rect class="cls-6" x="133.4708" y="81.6562" width="0.8983" height="2.6996"/><rect class="cls-6" x="134.7661" y="81.6562" width="0.8983" height="2.6996"/><rect class="cls-6" x="136.0637" y="81.6562" width="0.8983" height="2.6996"/><rect class="cls-6" x="137.359" y="81.6562" width="0.8983" height="2.6996"/><rect class="cls-6" x="138.6566" y="81.6562" width="0.8983" height="2.6996"/><rect class="cls-6" x="139.952" y="81.6562" width="0.8983" height="2.6996"/><rect class="cls-6" x="141.2496" y="81.6562" width="0.8983" height="2.6996"/><rect class="cls-6" x="142.5449" y="81.6562" width="0.8983" height="2.6996"/><rect class="cls-7" x="127.2731" y="87.9854" width="16.3108" height="4.5915"/><rect class="cls-6" x="127.7268" y="88.5616" width="0.9142" height="3.514"/><circle class="cls-8" cx="129.4259" cy="89.3011" r="0.2904"/><path class="cls-8" d="M129.7186,90.5443a.29.29,0,1,1-.29-.29h0A.29.29,0,0,1,129.7186,90.5443Z"/><rect class="cls-6" x="130.8778" y="89.0108" width="0.8983" height="2.6996"/><rect class="cls-6" x="132.1732" y="89.0108" width="0.8983" height="2.6996"/><rect class="cls-6" x="133.4708" y="89.0108" width="0.8983" height="2.6996"/><rect class="cls-6" x="134.7661" y="89.0108" width="0.8983" height="2.6996"/><rect class="cls-6" x="136.0637" y="89.0108" width="0.8983" height="2.6996"/><rect class="cls-6" x="137.359" y="89.0108" width="0.8983" height="2.6996"/><rect class="cls-6" x="138.6566" y="89.0108" width="0.8983" height="2.6996"/><rect class="cls-6" x="139.952" y="89.0108" width="0.8983" height="2.6996"/><rect class="cls-6" x="141.2496" y="89.0108" width="0.8983" height="2.6996"/><rect class="cls-6" x="142.5449" y="89.0108" width="0.8983" height="2.6996"/><rect class="cls-7" x="127.2731" y="95.34" width="16.3108" height="4.5915"/><rect class="cls-6" x="127.7268" y="95.9185" width="0.9142" height="3.514"/><circle class="cls-8" cx="129.4259" cy="96.658" r="0.2904"/><path class="cls-8" d="M129.7186,97.9012a.29.29,0,1,1-.29-.29A.29.29,0,0,1,129.7186,97.9012Z"/><rect class="cls-6" x="130.8778" y="96.3677" width="0.8983" height="2.6996"/><rect class="cls-6" x="132.1732" y="96.3677" width="0.8983" height="2.6996"/><rect class="cls-6" x="133.4708" y="96.3677" width="0.8983" height="2.6996"/><rect class="cls-6" x="134.7661" y="96.3677" width="0.8983" height="2.6996"/><rect class="cls-6" x="136.0637" y="96.3677" width="0.8983" height="2.6996"/><rect class="cls-6" x="137.359" y="96.3677" width="0.8983" height="2.6996"/><rect class="cls-6" x="138.6566" y="96.3677" width="0.8983" height="2.6996"/><rect class="cls-6" x="139.952" y="96.3677" width="0.8983" height="2.6996"/><rect class="cls-6" x="141.2496" y="96.3677" width="0.8983" height="2.6996"/><rect class="cls-6" x="142.5449" y="96.3677" width="0.8983" height="2.6996"/><rect class="cls-7" x="127.2731" y="102.6969" width="16.3108" height="4.5915"/><rect class="cls-6" x="127.7268" y="103.2731" width="0.9142" height="3.514"/><circle class="cls-8" cx="129.4259" cy="104.0126" r="0.2904"/><path class="cls-8" d="M129.7186,105.2558a.29.29,0,1,1-.29-.29h0A.29.29,0,0,1,129.7186,105.2558Z"/><rect class="cls-6" x="130.8778" y="103.7223" width="0.8983" height="2.6996"/><rect class="cls-6" x="132.1732" y="103.7223" width="0.8983" height="2.6996"/><rect class="cls-6" x="133.4708" y="103.7223" width="0.8983" height="2.6996"/><rect class="cls-6" x="134.7661" y="103.7223" width="0.8983" height="2.6996"/><rect class="cls-6" x="136.0637" y="103.7223" width="0.8983" height="2.6996"/><rect class="cls-6" x="137.359" y="103.7223" width="0.8983" height="2.6996"/><rect class="cls-6" x="138.6566" y="103.7223" width="0.8983" height="2.6996"/><rect class="cls-6" x="139.952" y="103.7223" width="0.8983" height="2.6996"/><rect class="cls-6" x="141.2496" y="103.7223" width="0.8983" height="2.6996"/><rect class="cls-6" x="142.5449" y="103.7223" width="0.8983" height="2.6996"/><rect class="cls-7" x="127.2731" y="110.0515" width="16.3108" height="4.5915"/><rect class="cls-6" x="127.7268" y="110.63" width="0.9142" height="3.514"/><circle class="cls-8" cx="129.4259" cy="111.3673" r="0.2904"/><path class="cls-8" d="M129.7186,112.6059a.29.29,0,1,1-.29-.29h0A.29.29,0,0,1,129.7186,112.6059Z"/><rect class="cls-6" x="130.8778" y="111.0769" width="0.8983" height="2.6996"/><rect class="cls-6" x="132.1732" y="111.0769" width="0.8983" height="2.6996"/><rect class="cls-6" x="133.4708" y="111.0769" width="0.8983" height="2.6996"/><rect class="cls-6" x="134.7661" y="111.0769" width="0.8983" height="2.6996"/><rect class="cls-6" x="136.0637" y="111.0769" width="0.8983" height="2.6996"/><rect class="cls-6" x="137.359" y="111.0769" width="0.8983" height="2.6996"/><rect class="cls-6" x="138.6566" y="111.0769" width="0.8983" height="2.6996"/><rect class="cls-6" x="139.952" y="111.0769" width="0.8983" height="2.6996"/><rect class="cls-6" x="141.2496" y="111.0769" width="0.8983" height="2.6996"/><rect class="cls-6" x="142.5449" y="111.0769" width="0.8983" height="2.6996"/><rect class="cls-7" x="127.2731" y="117.4061" width="16.3108" height="4.5915"/><rect class="cls-6" x="127.7268" y="117.9846" width="0.9142" height="3.514"/><circle class="cls-8" cx="129.4259" cy="118.7241" r="0.2904"/><path class="cls-8" d="M129.7186,119.9673a.29.29,0,1,1-.29-.29A.29.29,0,0,1,129.7186,119.9673Z"/><rect class="cls-6" x="130.8778" y="118.4338" width="0.8983" height="2.6996"/><rect class="cls-6" x="132.1732" y="118.4338" width="0.8983" height="2.6996"/><rect class="cls-6" x="133.4708" y="118.4338" width="0.8983" height="2.6996"/><rect class="cls-6" x="134.7661" y="118.4338" width="0.8983" height="2.6996"/><rect class="cls-6" x="136.0637" y="118.4338" width="0.8983" height="2.6996"/><rect class="cls-6" x="137.359" y="118.4338" width="0.8983" height="2.6996"/><rect class="cls-6" x="138.6566" y="118.4338" width="0.8983" height="2.6996"/><rect class="cls-6" x="139.952" y="118.4338" width="0.8983" height="2.6996"/><rect class="cls-6" x="141.2496" y="118.4338" width="0.8983" height="2.6996"/><rect class="cls-6" x="142.5449" y="118.4338" width="0.8983" height="2.6996"/><path class="cls-7" d="M137.3613,73.2762a.5652.5652,0,0,1-.0181-.143c0-.093-.0136-.2268-.0182-.4083s0-.3925-.02-.6443a4.0536,4.0536,0,0,0-.1134-.8348,2.9493,2.9493,0,0,0-.4356-.9074,2.01,2.01,0,0,0-.8915-.7169,4.31,4.31,0,0,0-1.2659-.2586l-1.4042-.12c-1.926-.1679-3.67-.2745-4.9363-.2995-.633-.0136-1.1457-.0113-1.5,0h-.406a.9467.9467,0,0,1-.1429,0,.5293.5293,0,0,1,.1406-.0181l.4083-.025c.3539-.0158.8666-.0317,1.4995-.0295,1.2682,0,3.0195.0976,4.9455.2655l1.4065.1247a4.3332,4.3332,0,0,1,1.2976.27,2.1168,2.1168,0,0,1,.93.7622,3.011,3.011,0,0,1,.4355.95,3.9265,3.9265,0,0,1,.0976.8553v1.0549A.6983.6983,0,0,1,137.3613,73.2762Z"/><path class="cls-7" d="M132.4113,73.2762a.809.809,0,0,1,0-.1339v-.3856c0-.1588,0-.37-.02-.6035a1.8959,1.8959,0,0,0-.2-.7554,1.4472,1.4472,0,0,0-.735-.5626,2.017,2.017,0,0,0-1.073-.1089,1.7864,1.7864,0,0,0-.5513.1883,1.05,1.05,0,0,0-.4287.4038.5827.5827,0,0,0,0,.5717.7623.7623,0,0,0,.4832.363.6149.6149,0,0,0,.5671-.1634.8326.8326,0,0,0,.2541-.54.8238.8238,0,0,0-.1679-.5535,1.209,1.209,0,0,0-.431-.3789,1.5309,1.5309,0,0,0-.5354-.1384c-.186-.0294-.363-.0521-.5376-.0725-.3471-.0386-.6806-.0613-.9687-.0726-.5921-.025-1.0753-.0159-1.4088-.0159h-.3834a.5546.5546,0,0,1-.1338,0,.5641.5641,0,0,1,.1338-.0159l.3834-.02c.3335-.0136.8144-.034,1.4133-.02.2972,0,.6262.0249.9755.0589.1747.0182.3539.0409.54.0658.093.0159.186.0273.2836.0454a1.0128,1.0128,0,0,1,.2881.1,1.318,1.318,0,0,1,.4718.4106.9346.9346,0,0,1,.1929.6284.9531.9531,0,0,1-.2881.6148.7329.7329,0,0,1-.6806.1951.89.89,0,0,1-.5626-.422.703.703,0,0,1,0-.68,1.1613,1.1613,0,0,1,.4764-.4537,1.9018,1.9018,0,0,1,.5876-.1951,2.0987,2.0987,0,0,1,1.1342.1247,1.5176,1.5176,0,0,1,.7713.6125,1.8784,1.8784,0,0,1,.1929.7918,6.0879,6.0879,0,0,1,0,.61c0,.1543-.0114.2813-.0159.3834A.5343.5343,0,0,1,132.4113,73.2762Z"/><path class="cls-7" d="M138.6929,73.2762a.8185.8185,0,0,1-.0363-.152c-.0181-.1-.0453-.2473-.0862-.4356a8.3879,8.3879,0,0,0-.4832-1.5562,4.5367,4.5367,0,0,0-1.4065-1.9011,2.6787,2.6787,0,0,0-1.2976-.4945,13.8707,13.8707,0,0,0-1.529-.0817c-2.1074-.0385-4.02-.0317-5.4014-.0862-.68-.0249-1.25-.0589-1.6356-.0862l-.4537-.0385a.92.92,0,0,1-.1542-.02.5769.5769,0,0,1,.1542,0l.4537.0159c.3879.0136.946.0341,1.6356.0477,1.3816.034,3.2917.0136,5.4014.0521a13.2093,13.2093,0,0,1,1.5427.0862,2.7662,2.7662,0,0,1,1.3475.5218,4.0655,4.0655,0,0,1,.9074.95,5.4779,5.4779,0,0,1,.5308,1.005,7.855,7.855,0,0,1,.4537,1.588c.0341.1905.0545.34.0658.44A.9935.9935,0,0,1,138.6929,73.2762Z"/><rect class="cls-7" x="127.4954" y="64.5808" width="15.8617" height="2.3026"/><rect class="cls-6" x="130.9844" y="65.731" width="8.6363" height="1.1524"/><path class="cls-9" d="M188.2447,122.6782c0,.0318-32.0862.059-71.661.059s-71.6678-.0272-71.6678-.059,32.0818-.059,71.6678-.059S188.2447,122.6442,188.2447,122.6782Z"/><rect class="cls-5" x="87.4761" y="55.4862" width="21.9164" height="67.1375"/><rect class="cls-7" x="109.3607" y="55.4862" width="17.3226" height="66.922"/><rect class="cls-9" x="88.6897" y="88.9178" width="18.5907" height="5.2335"/><rect class="cls-9" x="88.6897" y="66.2323" width="18.5907" height="5.2335"/><rect class="cls-10" x="89.207" y="66.8902" width="1.0413" height="4.0062"/><path class="cls-11" d="M91.4755,67.7341a.3312.3312,0,1,1-.3312-.3312.3312.3312,0,0,1,.3312.3312Z"/><path class="cls-11" d="M91.4755,69.15a.3312.3312,0,1,1-.3312-.3312.3312.3312,0,0,1,.3312.3312Z"/><rect class="cls-10" x="92.7981" y="67.4006" width="1.0231" height="3.0761"/><rect class="cls-10" x="94.2749" y="67.4006" width="1.0231" height="3.0761"/><rect class="cls-10" x="95.754" y="67.4006" width="1.0231" height="3.0761"/><rect class="cls-10" x="97.2308" y="67.4006" width="1.0231" height="3.0761"/><rect class="cls-10" x="98.7076" y="67.4006" width="1.0231" height="3.0761"/><rect class="cls-10" x="100.1867" y="67.4006" width="1.0231" height="3.0761"/><rect class="cls-10" x="101.6635" y="67.4006" width="1.0231" height="3.0761"/><rect class="cls-10" x="103.1426" y="67.4006" width="1.0231" height="3.0761"/><rect class="cls-10" x="104.6194" y="67.4006" width="1.0231" height="3.0761"/><rect class="cls-10" x="106.0963" y="67.4006" width="1.0231" height="3.0761"/><rect class="cls-9" x="88.6897" y="73.7503" width="18.5907" height="5.2335"/><rect class="cls-10" x="89.207" y="74.4082" width="1.0413" height="4.0062"/><path class="cls-11" d="M91.4755,75.2521a.3312.3312,0,1,1-.3335-.329h.0023A.3313.3313,0,0,1,91.4755,75.2521Z"/><path class="cls-11" d="M91.4755,76.6676a.3312.3312,0,1,1-.3312-.3312.3312.3312,0,0,1,.3312.3312Z"/><rect class="cls-10" x="92.7981" y="74.9209" width="1.0231" height="3.0761"/><rect class="cls-10" x="94.2749" y="74.9209" width="1.0231" height="3.0761"/><rect class="cls-10" x="95.754" y="74.9209" width="1.0231" height="3.0761"/><rect class="cls-10" x="97.2308" y="74.9209" width="1.0231" height="3.0761"/><rect class="cls-10" x="98.7076" y="74.9209" width="1.0231" height="3.0761"/><rect class="cls-10" x="100.1867" y="74.9209" width="1.0231" height="3.0761"/><rect class="cls-10" x="101.6635" y="74.9209" width="1.0231" height="3.0761"/><rect class="cls-10" x="103.1426" y="74.9209" width="1.0231" height="3.0761"/><rect class="cls-10" x="104.6194" y="74.9209" width="1.0231" height="3.0761"/><rect class="cls-10" x="106.0963" y="74.9209" width="1.0231" height="3.0761"/><rect class="cls-9" x="88.6897" y="81.3318" width="18.5907" height="5.2335"/><rect class="cls-10" x="89.207" y="81.9896" width="1.0413" height="4.0062"/><path class="cls-11" d="M91.4755,82.8313a.3312.3312,0,1,1-.3335-.329h.0023A.3313.3313,0,0,1,91.4755,82.8313Z"/><path class="cls-11" d="M91.4755,84.2491a.3312.3312,0,1,1-.3335-.3289h.0023A.3313.3313,0,0,1,91.4755,84.2491Z"/><rect class="cls-10" x="92.7981" y="82.5001" width="1.0231" height="3.0761"/><rect class="cls-10" x="94.2749" y="82.5001" width="1.0231" height="3.0761"/><rect class="cls-10" x="95.754" y="82.5001" width="1.0231" height="3.0761"/><rect class="cls-10" x="97.2308" y="82.5001" width="1.0231" height="3.0761"/><rect class="cls-10" x="98.7076" y="82.5001" width="1.0231" height="3.0761"/><rect class="cls-10" x="100.1867" y="82.5001" width="1.0231" height="3.0761"/><rect class="cls-10" x="101.6635" y="82.5001" width="1.0231" height="3.0761"/><rect class="cls-10" x="103.1426" y="82.5001" width="1.0231" height="3.0761"/><rect class="cls-10" x="104.6194" y="82.5001" width="1.0231" height="3.0761"/><rect class="cls-10" x="106.0963" y="82.5001" width="1.0231" height="3.0761"/><rect class="cls-9" x="88.6897" y="97.7878" width="18.5907" height="5.2335"/><rect class="cls-10" x="89.207" y="98.4456" width="1.0413" height="4.0062"/><path class="cls-11" d="M91.4755,99.29a.3312.3312,0,1,1-.3312-.3312h0a.3291.3291,0,0,1,.3312.3267Z"/><path class="cls-11" d="M91.4755,100.7051a.3312.3312,0,1,1-.3312-.3312h0a.329.329,0,0,1,.3312.3267Z"/><rect class="cls-10" x="92.7981" y="98.9561" width="1.0231" height="3.0761"/><rect class="cls-10" x="94.2749" y="98.9561" width="1.0231" height="3.0761"/><rect class="cls-10" x="95.754" y="98.9561" width="1.0231" height="3.0761"/><rect class="cls-10" x="97.2308" y="98.9561" width="1.0231" height="3.0761"/><rect class="cls-10" x="98.7076" y="98.9561" width="1.0231" height="3.0761"/><rect class="cls-10" x="100.1867" y="98.9561" width="1.0231" height="3.0761"/><rect class="cls-10" x="101.6635" y="98.9561" width="1.0231" height="3.0761"/><rect class="cls-10" x="103.1426" y="98.9561" width="1.0231" height="3.0761"/><rect class="cls-10" x="104.6194" y="98.9561" width="1.0231" height="3.0761"/><rect class="cls-10" x="106.0963" y="98.9561" width="1.0231" height="3.0761"/><rect class="cls-9" x="88.6897" y="114.2438" width="18.5907" height="5.2335"/><rect class="cls-10" x="89.207" y="114.9017" width="1.0413" height="4.0062"/><path class="cls-11" d="M91.4755,115.7455a.3312.3312,0,1,1-.3312-.3312h0A.3312.3312,0,0,1,91.4755,115.7455Z"/><path class="cls-11" d="M91.4755,117.1611a.3312.3312,0,1,1-.3312-.3312h0A.3312.3312,0,0,1,91.4755,117.1611Z"/><rect class="cls-10" x="92.7981" y="115.4121" width="1.0231" height="3.0761"/><rect class="cls-10" x="94.2749" y="115.4121" width="1.0231" height="3.0761"/><rect class="cls-10" x="95.754" y="115.4121" width="1.0231" height="3.0761"/><rect class="cls-10" x="97.2308" y="115.4121" width="1.0231" height="3.0761"/><rect class="cls-10" x="98.7076" y="115.4121" width="1.0231" height="3.0761"/><rect class="cls-10" x="100.1867" y="115.4121" width="1.0231" height="3.0761"/><rect class="cls-10" x="101.6635" y="115.4121" width="1.0231" height="3.0761"/><rect class="cls-10" x="103.1426" y="115.4121" width="1.0231" height="3.0761"/><rect class="cls-10" x="104.6194" y="115.4121" width="1.0231" height="3.0761"/><rect class="cls-10" x="106.0963" y="115.4121" width="1.0231" height="3.0761"/><rect class="cls-9" x="88.6897" y="106.0226" width="18.5907" height="5.2335"/><rect class="cls-10" x="89.207" y="106.6805" width="1.0413" height="4.0062"/><path class="cls-11" d="M91.4755,107.5243a.3312.3312,0,1,1-.3312-.3312h0A.3312.3312,0,0,1,91.4755,107.5243Z"/><path class="cls-11" d="M91.4755,108.94a.3312.3312,0,1,1-.3312-.3312h0A.3312.3312,0,0,1,91.4755,108.94Z"/><rect class="cls-10" x="92.7981" y="107.1931" width="1.0231" height="3.0761"/><rect class="cls-10" x="94.2749" y="107.1931" width="1.0231" height="3.0761"/><rect class="cls-10" x="95.754" y="107.1931" width="1.0231" height="3.0761"/><rect class="cls-10" x="97.2308" y="107.1931" width="1.0231" height="3.0761"/><rect class="cls-10" x="98.7076" y="107.1931" width="1.0231" height="3.0761"/><rect class="cls-10" x="100.1867" y="107.1931" width="1.0231" height="3.0761"/><rect class="cls-10" x="101.6635" y="107.1931" width="1.0231" height="3.0761"/><rect class="cls-10" x="103.1426" y="107.1931" width="1.0231" height="3.0761"/><rect class="cls-10" x="104.6194" y="107.1931" width="1.0231" height="3.0761"/><rect class="cls-10" x="106.0963" y="107.1931" width="1.0231" height="3.0761"/><path class="cls-9" d="M100.1867,66.2323a.9073.9073,0,0,1-.0181-.161c0-.1067-.0137-.2632-.0182-.4651s0-.4537-.0227-.735a4.6609,4.6609,0,0,0-.127-.9551,3.4053,3.4053,0,0,0-.4968-1.0458,2.3329,2.3329,0,0,0-1.0186-.8212,4.9431,4.9431,0,0,0-1.4451-.2926l-1.6016-.1384c-2.1936-.1905-4.1854-.313-5.6259-.338-.7214-.0159-1.3067-.0113-1.7083,0h-.465a.6969.6969,0,0,1-.1633,0,.7148.7148,0,0,1,.161-.0181l.4651-.0273c.4038-.0159.9891-.034,1.7105-.0295,1.445,0,3.4413.1135,5.635.304l1.6039.1407a4.9584,4.9584,0,0,1,1.4745.3085,2.4069,2.4069,0,0,1,1.0572.8643,3.45,3.45,0,0,1,.499,1.0821,4.652,4.652,0,0,1,.1112.9732V66.08A.8674.8674,0,0,1,100.1867,66.2323Z"/><path class="cls-9" d="M94.5471,66.2323a.7969.7969,0,0,1-.0113-.152v-.4378c0-.1905,0-.4219-.02-.68a2.1354,2.1354,0,0,0-.2268-.8621,1.6625,1.6625,0,0,0-.8394-.6465,2.3017,2.3017,0,0,0-1.225-.1248,2.0909,2.0909,0,0,0-.6329.2155,1.2009,1.2009,0,0,0-.4923.4651.6625.6625,0,0,0,0,.6556.8759.8759,0,0,0,.5581.42.71.71,0,0,0,.6533-.1883.983.983,0,0,0,.2927-.6216.9461.9461,0,0,0-.1951-.6352,1.3889,1.3889,0,0,0-.4923-.4356,1.8322,1.8322,0,0,0-.6148-.1565q-.3175-.0477-.6125-.0817c-.3947-.0453-.7645-.07-1.1025-.0839-.6806-.025-1.2273-.0159-1.6084-.0159h-.4356a.9023.9023,0,0,1-.1542,0,.58.58,0,0,1,.152-.0159l.4378-.0227c.3789-.0136.93-.0385,1.6107-.0226a11.1359,11.1359,0,0,1,1.1116.07c.2.02.4038.0454.617.0748.1044.0182.211.0318.3221.0522a1.1671,1.1671,0,0,1,.3267.1134,1.4962,1.4962,0,0,1,.5331.4538,1.0435,1.0435,0,0,1,.2269.71,1.0732,1.0732,0,0,1-.3267.6987.83.83,0,0,1-.76.2269.9961.9961,0,0,1-.6329-.4764.78.78,0,0,1,0-.7691,1.3114,1.3114,0,0,1,.54-.51,2.2161,2.2161,0,0,1,.6692-.2268,2.3936,2.3936,0,0,1,1.2772.1406,1.72,1.72,0,0,1,.878.6965,2.1653,2.1653,0,0,1,.2268.9074c.0136.2722,0,.5059,0,.6942s-.0113.3266-.0159.4378A.6632.6632,0,0,1,94.5471,66.2323Z"/><path class="cls-9" d="M101.7044,66.2323a.9391.9391,0,0,1-.0363-.1724c-.02-.1134-.0522-.2813-.0976-.4968a9.828,9.828,0,0,0-.549-1.774,5.15,5.15,0,0,0-1.6174-2.171,3.043,3.043,0,0,0-1.4837-.5649,15.4114,15.4114,0,0,0-1.7422-.0952c-2.4024-.0454-4.58-.0341-6.1568-.0953-.7872-.0272-1.4247-.0658-1.8625-.0953l-.5059-.0431a1.0233,1.0233,0,0,1-.1769-.0227.8715.8715,0,0,1,.1769,0l.5082.0182c.44.0181,1.0752.0431,1.8624.059,1.5744.0385,3.75.0158,6.1569.0612a15.3684,15.3684,0,0,1,1.7581.0975A3.1768,3.1768,0,0,1,99.47,61.53a4.6788,4.6788,0,0,1,1.0232,1.0821,6.2577,6.2577,0,0,1,.6057,1.1343,8.9151,8.9151,0,0,1,.5149,1.7967c.0409.2268.0635.3856.0771.5013A.868.868,0,0,1,101.7044,66.2323Z"/><rect class="cls-9" x="88.9438" y="56.3211" width="18.0803" height="2.6247"/><rect class="cls-10" x="92.9206" y="57.6346" width="9.8432" height="1.3112"/><path class="cls-9" d="M114.4014,110.757c0,.0136-.2.0318-.5467.1339a4.7635,4.7635,0,0,0-1.3612.6692,3.8566,3.8566,0,0,0-.7667.7123,2.6685,2.6685,0,0,0-.3154.4855,3.4551,3.4551,0,0,0-.1973.583,10.137,10.137,0,0,0-.1021,2.7676,5.8019,5.8019,0,0,1-.4151,2.7654,3.0585,3.0585,0,0,1-.7373.9845,3.599,3.599,0,0,1-.9074.5762,3.5127,3.5127,0,0,1-.8462.2518,3.0263,3.0263,0,0,1-.667.0295,2.2253,2.2253,0,0,1-.4151-.0658.6459.6459,0,0,1-.1406-.0431c0-.0136.1973.0477.558.0636a3.366,3.366,0,0,0,.6534-.0477,3.5163,3.5163,0,0,0,.8234-.2654,3.4732,3.4732,0,0,0,.8734-.5717,2.9852,2.9852,0,0,0,.7055-.96,5.797,5.797,0,0,0,.3948-2.7222,9.9181,9.9181,0,0,1,.1157-2.7971,3.3189,3.3189,0,0,1,.2087-.6035,2.7225,2.7225,0,0,1,.3334-.5013,3.6849,3.6849,0,0,1,.794-.7191,4.4446,4.4446,0,0,1,1.402-.6466,2.783,2.783,0,0,1,.4129-.0771A.6382.6382,0,0,1,114.4014,110.757Z"/><rect class="cls-9" x="106.0668" y="119.7949" width="1.4836" height="1.8058"/><rect class="cls-10" x="114.4014" y="106.1973" width="8.3233" height="9.1195"/><circle class="cls-9" cx="118.5603" cy="110.7854" r="2.7404"/><path class="cls-10" d="M119.9321,110.791a1.3612,1.3612,0,1,1-1.3611-1.3611A1.3611,1.3611,0,0,1,119.9321,110.791Z"/><circle class="cls-9" cx="115.5266" cy="107.6106" r="0.2541"/><circle class="cls-9" cx="121.4497" cy="107.6106" r="0.2541"/><circle class="cls-9" cx="121.5042" cy="114.3459" r="0.2541"/><circle class="cls-9" cx="115.5266" cy="114.4502" r="0.2541"/><rect class="cls-9" x="122.7247" y="106.1973" width="0.6715" height="9.1195"/><path class="cls-9" d="M146.9754,114.6272a.8052.8052,0,0,1,.059.0862c.0408.0635.0953.152.1678.2631a3.3463,3.3463,0,0,1,.2269.4537,4.4078,4.4078,0,0,1,.2495.6443,6.0732,6.0732,0,0,1,.2632,1.8738,6.3817,6.3817,0,0,1-.5422,2.4432c-.05.1066-.0975.2133-.1474.3222l-.1793.3153a6.1927,6.1927,0,0,1-.4174.6216,5.3465,5.3465,0,0,1-1.15,1.0934l-.1679.1225-.1815.1021c-.1225.0658-.2427.1452-.372.2019l-.397.17c-.1316.059-.2745.0885-.4129.1362a5.75,5.75,0,0,1-1.7876.2268,6.678,6.678,0,0,1-1.8647-.3153,6.3529,6.3529,0,0,1-1.7559-.9074,5.269,5.269,0,0,1-1.3906-1.5,16.723,16.723,0,0,1-.9074-1.8943,5.5243,5.5243,0,0,0-1.1094-1.7377,2.7332,2.7332,0,0,0-.8348-.549,2.9493,2.9493,0,0,0-.9618-.2109,3.1083,3.1083,0,0,0-3.0512,1.8148,2.0783,2.0783,0,0,0-.1293.8688,1.2493,1.2493,0,0,0,.3108.7691.9254.9254,0,0,0,.744.2767,1.2862,1.2862,0,0,0,.7282-.2971,1.7268,1.7268,0,0,0,.5332-1.3861,3.1473,3.1473,0,0,0-.3721-1.3748,3.4482,3.4482,0,0,0-4.6584-1.4418q-.0533.028-.1055.058c-.2269.1361-.3471.2269-.3517.2269a2.2992,2.2992,0,0,1,.34-.2428,3.379,3.379,0,0,1,1.1162-.4264,3.4809,3.4809,0,0,1,1.876.1429,3.5459,3.5459,0,0,1,1.8512,1.6492,3.252,3.252,0,0,1,.3879,1.411,2.1994,2.1994,0,0,1-.1089.7781,1.5067,1.5067,0,0,1-.4537.6806,1.3719,1.3719,0,0,1-.7849.3221,1.03,1.03,0,0,1-.819-.3085,1.3607,1.3607,0,0,1-.3425-.8348,2.1818,2.1818,0,0,1,.1338-.9074,3.2118,3.2118,0,0,1,3.1578-1.8874,3.0248,3.0248,0,0,1,1.0027.2268,2.7876,2.7876,0,0,1,.8712.5717,5.6385,5.6385,0,0,1,1.1342,1.774,16.74,16.74,0,0,0,.9074,1.8806,5.1374,5.1374,0,0,0,1.3612,1.4678,6.28,6.28,0,0,0,1.7195.8938,6.5565,6.5565,0,0,0,1.8353.313,5.5985,5.5985,0,0,0,1.7536-.2268,4.05,4.05,0,0,0,.406-.1339l.39-.1633c.1271-.0567.2428-.1339.3653-.1974l.1792-.1.1656-.1179a5.43,5.43,0,0,0,1.1342-1.0685,6.4282,6.4282,0,0,0,.4129-.6125l.1792-.3086c.0477-.1066.0976-.2132.1452-.3176a6.3521,6.3521,0,0,0,.5536-2.4114,6.2012,6.2012,0,0,0-.24-1.858,4.8932,4.8932,0,0,0-.2382-.6442,3.4919,3.4919,0,0,0-.2269-.4537c-.068-.1135-.1179-.2042-.1565-.2677Z"/><rect class="cls-9" x="145.181" y="111.9344" width="4.3125" height="4.3125"/><rect class="cls-11" x="128.7182" y="77.2121" width="14.6888" height="10.8005"/><path class="cls-9" d="M143.4092,88.0126v-.7758c0-.5082,0-1.2455-.0136-2.1846,0-1.8829-.0136-4.5757-.0249-7.84l.05.0476-14.6888.0114h0l.059-.059V88.0126l-.0522-.0522,10.5873.025,3.0171.0159h1.0844a.3092.3092,0,0,1-.068,0h-.9937l-3.0035.0136-10.6236.0272h-.0545V77.1281h.059l14.6888.0114h.0477v.0771c-.0114,3.2781-.02,5.98-.025,7.8719,0,.9346,0,1.6673-.0136,2.171v.5671A.4.4,0,0,1,143.4092,88.0126Z"/><path class="cls-4" d="M132.5225,80.6194c-.0136.0409.338,4.7957.338,4.7413s6.665,0,6.665,0l.0817-4.2127h-4.9681l-.2269-.5853Z"/><path class="cls-9" d="M143.2754,80.6194h.6443l1.8035-.0159,2.7676-.0113h.8212c.279,0,.5717,0,.8575-.0181a1.1958,1.1958,0,0,0,.7645-.3653,1.2339,1.2339,0,0,0,.2745-.8371h0V74.0361c0-3.8883.0113-7.4068.0159-9.9634,0-1.2681.0136-2.2981.0181-3.0172,0-.3516,0-.6261.0114-.8212v-.2132a.304.304,0,0,1,0-.0726v.2858c0,.1974,0,.4719.0113.8212,0,.7214,0,1.7513.0181,3.0194,0,2.5567.0114,6.0752.0182,9.9612V79.37h0a1.3294,1.3294,0,0,1-.304.9074,1.3068,1.3068,0,0,1-.8325.3992c-.304.025-.5876,0-.8689,0h-.8212l-2.7676-.0113-1.8035-.0159H143.3Z"/><path class="cls-9" d="M128.72,83.87a.1655.1655,0,0,1-.0544,0h-8.1736a1.6283,1.6283,0,0,1-1.0049-.27,1.2407,1.2407,0,0,1-.4537-.9619.8243.8243,0,0,1,0-.1066h0V76.0392a1.6337,1.6337,0,0,0-.1475-.68.6807.6807,0,0,0-.5081-.3222,3.4757,3.4757,0,0,1-.5831-.0952.6808.6808,0,0,1-.3516-.3811,1.5133,1.5133,0,0,1-.0975-.4243,2.8327,2.8327,0,0,1,0-.5966.8032.8032,0,0,1,.0227-.152.1412.1412,0,0,1,.0158-.0522s0,.0726-.0136.2065a3.091,3.091,0,0,0,0,.59,1.5551,1.5551,0,0,0,.1044.4061.615.615,0,0,0,.3244.3425,3.4461,3.4461,0,0,0,.5716.084,1.1027,1.1027,0,0,1,.3131.1043.6406.6406,0,0,1,.2541.25,1.7421,1.7421,0,0,1,.1656.7169c.0227.2541.0159.515.0181.7872v5.7145h0v.1247a1.1164,1.1164,0,0,0,.4174.8711,1.5,1.5,0,0,0,.9347.25l1.935.0113,3.2736.0295,2.2095.0318.6012.0136h.1542Z"/><path class="cls-9" d="M117.8859,73.1332a.4832.4832,0,1,1-.4855-.4809h.0023a.481.481,0,0,1,.4832.4787Z"/><path class="cls-9" d="M128.72,82.466a1.0628,1.0628,0,0,1-.1746.0114l-.5037.0113-1.86.0182-2.7789.0113h-.8076a6.3581,6.3581,0,0,1-.8507-.025,1.2472,1.2472,0,0,1-.794-.42,1.3317,1.3317,0,0,1-.2768-.8893V75.1658a4.9437,4.9437,0,0,0-.0363-.7236.8757.8757,0,0,0-.245-.5785.9909.9909,0,0,0-.5422-.1951.9828.9828,0,0,1-.5376-.1338.7448.7448,0,0,1-.27-.4016,1.7372,1.7372,0,0,1-.0726-.3992,2.8226,2.8226,0,0,1,.0182-.5536.7586.7586,0,0,1,.0363-.1905v.1928a3.1587,3.1587,0,0,0,0,.5467,1.5864,1.5864,0,0,0,.0771.3857.701.701,0,0,0,.2563.3652.9435.9435,0,0,0,.5059.1134,1.0755,1.0755,0,0,1,.5921.2065.9756.9756,0,0,1,.2791.6284,4.8386,4.8386,0,0,1,.0431.7327v6.0343a1.2,1.2,0,0,0,.2495.8031,1.1341,1.1341,0,0,0,.7214.3811,6.3589,6.3589,0,0,0,.8326.0295h3.5865l1.86.0182h.5036A1.0591,1.0591,0,0,1,128.72,82.466Z"/><circle class="cls-9" cx="119.0519" cy="71.7585" r="0.4809"/><polygon class="cls-10" points="128.718 77.212 128.718 78.83 143.407 78.641 143.407 77.212 128.718 77.212"/><path class="cls-10" d="M152.6127,52.1016c.0431.12.6012,8.1372.6012,8.1372l-4.4486-.338-.667-6.5787Z"/><polygon class="cls-9" points="153.214 60.239 153.645 60.114 153.026 51.981 152.558 52.113 153.214 60.239"/><path class="cls-9" d="M150.3714,53.7168a.1883.1883,0,1,1-.1883-.1883h0A.1883.1883,0,0,1,150.3714,53.7168Z"/><path class="cls-9" d="M164.2526,55.6972a.3539.3539,0,0,0,.4741.4537.6491.6491,0,0,0,.2541-.6805,1.3147,1.3147,0,0,1,.0159-.7668,1.8015,1.8015,0,0,1,.4219-.4174,1.1341,1.1341,0,0,0,.3653-.9347.9484.9484,0,0,0-.61-.7781c-.3334-.1134-.76-.0317-1-.2926-.1747-.1883-.17-.4832-.2994-.7033a1.0992,1.0992,0,0,0-1.0663-.39,3.1716,3.1716,0,0,1-1.1864.02,5.483,5.483,0,0,1-.8666-.4923,1.7445,1.7445,0,0,0-2.4,2.2685,1.1138,1.1138,0,0,0,.5127.5649"/><path class="cls-12" d="M163.8579,62.4711l-3.7567-.3c-.0227-.4378,0-2.1347,0-2.1347a1.8893,1.8893,0,0,1-1.588-1.8148c-.025-1.57.2518-5.1519.2518-5.1519h0a5.4288,5.4288,0,0,1,5.4558.6806l.2269.1792Z"/><path class="cls-9" d="M159.1393,55.7607a.2268.2268,0,1,0-.32-.0164l.0006.0006A.2267.2267,0,0,0,159.1393,55.7607Z"/><path class="cls-9" d="M158.7582,55.4046c.025.0272.1792-.0908.3947-.093s.37.1111.3948.0816-.0137-.0589-.0817-.1111a.51.51,0,0,0-.3153-.1.5328.5328,0,0,0-.3131.1066C158.77,55.3433,158.7469,55.391,158.7582,55.4046Z"/><path class="cls-9" d="M161.2377,55.5906a.2266.2266,0,1,0,.0013-.0008Z"/><path class="cls-9" d="M161.0971,55.5929c.0249.0272.1769-.0908.3924-.0908s.3721.1089.3948.0817-.0114-.0613-.0794-.1134a.5488.5488,0,0,0-.3176-.1.52.52,0,0,0-.3131.1089C161.1084,55.5316,161.0857,55.5815,161.0971,55.5929Z"/><path class="cls-9" d="M160.2328,57.3691a1.03,1.03,0,0,0-.3471-.0748c-.0567,0-.1-.0182-.1044-.0477a.2856.2856,0,0,1,.0409-.161c.0544-.143.1111-.2881.17-.4379a6.0883,6.0883,0,0,0,.3675-1.15,6.045,6.045,0,0,0-.4832,1.107c-.0544.152-.1089.2972-.1611.44a.359.359,0,0,0-.0295.2269.1408.1408,0,0,0,.0953.0907.3218.3218,0,0,0,.0976.0114A1.0411,1.0411,0,0,0,160.2328,57.3691Z"/><path class="cls-11" d="M160.9337,57.6073a4.13,4.13,0,0,1-1.0571.3063.5965.5965,0,0,0,.7032.2268C161.0472,57.9794,160.9337,57.6073,160.9337,57.6073Z"/><path class="cls-13" d="M160.1057,60.01a3.63,3.63,0,0,0,2.0417-.5807,1.9121,1.9121,0,0,1-2.0417.9845Z"/><path class="cls-9" d="M158.7469,53.4672a2.5819,2.5819,0,0,0,2.1936,0,3.0681,3.0681,0,0,1,1.9941-.2926c.1973.1792.1769,1.0163.9618,1.318,0,0-.1724,1.588.4674,1.588s.4242-2.4954.4242-2.4954l-1.4972-.8734-1.672-.4537-1.6129.1089-1.259.245Z"/><path class="cls-12" d="M164.2753,55.5588c.025-.0136,1.073-.3176,1.039.7487a.8062.8062,0,0,1-1.1.7849C164.2141,57.0629,164.2753,55.5588,164.2753,55.5588Z"/><path class="cls-13" d="M164.5521,56.6976a.3435.3435,0,0,0,.05.0295.1971.1971,0,0,0,.1383,0,.4535.4535,0,0,0,.2269-.406.5991.5991,0,0,0-.0431-.2677.2133.2133,0,0,0-.1361-.1475.0908.0908,0,0,0-.1112.0477c-.0159.0295,0,.05-.0159.0521s-.02-.0181-.0113-.0635a.1226.1226,0,0,1,.0431-.0658.1362.1362,0,0,1,.1044-.0226.2631.2631,0,0,1,.19.17.6514.6514,0,0,1,.0545.3017.4831.4831,0,0,1-.2859.4537.1951.1951,0,0,1-.17-.034C164.5543,56.7226,164.55,56.7,164.5521,56.6976Z"/><path class="cls-9" d="M164.999,52.2468c0,.034-.1656.0181-.3449.0748s-.3017.1588-.3266.1361.0771-.1814.2926-.2472S165.0126,52.2173,164.999,52.2468Z"/><path class="cls-9" d="M164.3933,51.5821a.7533.7533,0,0,1,.0295.5081c-.0568.2881-.2269.4537-.2587.44s.0953-.2064.143-.4537S164.357,51.5821,164.3933,51.5821Z"/><path class="cls-9" d="M159.8063,55.053c-.0341.0589-.2382,0-.4855,0s-.4537.0226-.4809-.0386.1837-.211.4922-.1974S159.84,54.9985,159.8063,55.053Z"/><path class="cls-9" d="M162.2019,54.8533c-.0318.0567-.2269,0-.4832,0s-.4538.0227-.481-.0385.1838-.2133.4923-.1974S162.2381,54.7989,162.2019,54.8533Z"/><path class="cls-4" d="M171.0469,120.8838l.372,1.563s2.559,3.3234,3.3461,3.16c.5173-.1066-.1179-.9732-1.0911-3.4958l-.2042-1.0436Z"/><path class="cls-9" d="M174.8694,125.1169a.1335.1335,0,0,1-.02.0476.2856.2856,0,0,1-.1066.1.4274.4274,0,0,1-.2269.05.6236.6236,0,0,1-.29-.1067,12.7607,12.7607,0,0,1-1.2885-1.2023,16.9235,16.9235,0,0,1-1.1343-1.3384c-.1361-.1792-.2427-.3267-.3153-.431l-.0817-.12c-.0181-.0272-.0272-.0431-.0249-.0431l.034.0386.0885.1134c.093.1225.2019.2609.3267.422.279.3516.68.83,1.15,1.3271a15.0659,15.0659,0,0,0,1.2727,1.2068.4809.4809,0,0,0,.49.0681A.3321.3321,0,0,0,174.8694,125.1169Z"/><path class="cls-9" d="M174.5087,124.0484s-.0817,0-.2087.0114a1.212,1.212,0,0,0-.4537.1724.9411.9411,0,0,0-.3448.3471c-.0613.1111-.0772.1905-.0862.1882a.4816.4816,0,0,1,.0567-.2041.8734.8734,0,0,1,.3493-.37,1.112,1.112,0,0,1,.4832-.1679A.439.439,0,0,1,174.5087,124.0484Z"/><path class="cls-9" d="M172.0859,123.268a2.6788,2.6788,0,0,0,.0476-.2949,1.1956,1.1956,0,0,0-.127-.6805,1.1344,1.1344,0,0,0-.49-.4946,1.8837,1.8837,0,0,0-.2768-.1.2642.2642,0,0,1,.0794,0,.8617.8617,0,0,1,.211.0658,1.0888,1.0888,0,0,1,.5172.5013,1.1665,1.1665,0,0,1,.12.7124,1.35,1.35,0,0,1-.05.2155A.2906.2906,0,0,1,172.0859,123.268Z"/><path class="cls-9" d="M171.21,121.1492a1.7818,1.7818,0,0,1,.1407.49c.0454.2768.0975.4968.0862.5014a1.7685,1.7685,0,0,1-.1339-.4923C171.2556,121.3715,171.1989,121.1538,171.21,121.1492Z"/><path class="cls-9" d="M173.7192,122.3311a3.1547,3.1547,0,0,0-.3176.05,3.0555,3.0555,0,0,1-.3062.0953.5669.5669,0,0,1,.2972-.1406A.578.578,0,0,1,173.7192,122.3311Z"/><path class="cls-9" d="M173.7714,122.5988c0,.0136-.1225,0-.2654.0363s-.245.1-.2518.0885a.3854.3854,0,0,1,.2427-.1339A.39.39,0,0,1,173.7714,122.5988Z"/><path class="cls-9" d="M173.9756,122.9346a.7325.7325,0,0,0-.5286.12.3538.3538,0,0,1,.2428-.1565A.3423.3423,0,0,1,173.9756,122.9346Z"/><path class="cls-9" d="M173.5446,122.22a.2986.2986,0,0,1-.0862-.0114,1.6,1.6,0,0,1-.2269-.0612,2.0136,2.0136,0,0,1-.3176-.1407,1.8409,1.8409,0,0,1-.1633-.1.2561.2561,0,0,1-.1293-.1951.1519.1519,0,0,1,.1748-.125l.02.0048a.4205.4205,0,0,1,.1769.1179,2.3161,2.3161,0,0,1,.2269.2564c.0544.0749.1089.1429.1406.1883a.3276.3276,0,0,1,.0431.0748s-.0794-.0952-.211-.24c-.0635-.0726-.1451-.1588-.2381-.2473a.3819.3819,0,0,0-.1588-.1043c-.059-.0159-.1339.0158-.1362.0771s.0568.1179.1067.1565a1.6693,1.6693,0,0,0,.17.1089,2.6275,2.6275,0,0,0,.3085.1475C173.4311,122.1859,173.5446,122.2109,173.5446,122.22Z"/><path class="cls-9" d="M173.4085,122.1859a.3972.3972,0,0,1,0-.0771,1.0264,1.0264,0,0,1,.0181-.2132,1.1459,1.1459,0,0,1,.0794-.3085.6782.6782,0,0,1,.1021-.1634.17.17,0,0,1,.2019-.0635.1951.1951,0,0,1,.07.2019.7543.7543,0,0,1-.0567.1838.9212.9212,0,0,1-.1815.2631,1.3319,1.3319,0,0,1-.1633.1384.185.185,0,0,1-.0681.0385,1.7213,1.7213,0,0,0,.2065-.2.98.98,0,0,0,.1678-.2586.698.698,0,0,0,.05-.17c0-.059,0-.1316-.0476-.1566a.1173.1173,0,0,0-.1452.0545.668.668,0,0,0-.0953.15,1.1334,1.1334,0,0,0-.0884.2972A1.9184,1.9184,0,0,1,173.4085,122.1859Z"/><path class="cls-14" d="M171.4189,122.4468l-.1792-.7509s.6262.1157.79.5853a1.9761,1.9761,0,0,1,.12.8031l1.3611,1.4677s.3426-.6805.9619-.5081a6.4768,6.4768,0,0,1,.4719,1.3407c-.0136.27-.3267.2268-.4379.1837a5.4539,5.4539,0,0,1-1.22-.9618C172.5668,123.8579,171.7683,122.9073,171.4189,122.4468Z"/><path class="cls-4" d="M158.3294,121.68l-.0113-2.0848,3.9064-.0477.05,3.0512-.24.0182a46.445,46.445,0,0,1-6.2068.0862C155.02,122.4627,158.3294,121.68,158.3294,121.68Z"/><g class="cls-15"><path d="M160.8589,122.5875a1.361,1.361,0,0,1,.4877-.8394,1.3134,1.3134,0,0,1,.9074-.2949l.0136,1.0934Z"/></g><path class="cls-14" d="M156.7142,122.1179s-1.1614.3493-1.0117.5376a37.5735,37.5735,0,0,0,6.5787-.0635v-.0862l-5.2017.1089S156.9411,122.1338,156.7142,122.1179Z"/><path class="cls-9" d="M162.3289,122.5013h-.0658l-.1928.0136-.71.0408c-.6011.0272-1.4291.0567-2.3456.07s-1.7446,0-2.3434,0l-.7124-.02H155.7a.2135.2135,0,0,1,.0658,0h3.2531c.9142,0,1.7445-.0363,2.3434-.0567l.71-.0249h.1929Z"/><path class="cls-9" d="M157.0659,122.6759a1.561,1.561,0,0,0-.1361-.338,1.69,1.69,0,0,0-.245-.2676.5307.5307,0,0,1,.2858.2427A.5149.5149,0,0,1,157.0659,122.6759Z"/><path class="cls-9" d="M158.2115,122.0771a.857.857,0,0,1-.1248-.1475c-.059-.0885-.0953-.1679-.0839-.1747s.0658.059.1248.1475S158.2319,122.07,158.2115,122.0771Z"/><path class="cls-9" d="M158.5268,121.9069c0,.0113-.07-.0295-.1384-.0885s-.1179-.1157-.1089-.127.07.0318.1384.0907A.39.39,0,0,1,158.5268,121.9069Z"/><path class="cls-9" d="M158.7219,121.5349a.5.5,0,0,1-.2042.0272.4643.4643,0,0,1-.2041-.0182.48.48,0,0,1,.2041-.0295A.4549.4549,0,0,1,158.7219,121.5349Z"/><path class="cls-9" d="M158.7877,121.274a.4061.4061,0,0,1-.2269.068.4212.4212,0,0,1-.2268-.0272,1.174,1.174,0,0,1,.2268-.02A1.27,1.27,0,0,1,158.7877,121.274Z"/><path class="cls-9" d="M158.0754,121.7368a.6964.6964,0,0,1-.2518,0,1.6124,1.6124,0,0,1-.2723-.0567.91.91,0,0,1-.1542-.0613.1341.1341,0,0,1-.0613-.0771.0954.0954,0,0,1,.0363-.1021.4536.4536,0,0,1,.6556.2949.17.17,0,0,1,0,.0681.68.68,0,0,0-.1179-.2133.4308.4308,0,0,0-.2155-.1361.3926.3926,0,0,0-.2995.0227c-.0386.0317-.0227.0771.02.1043a.7756.7756,0,0,0,.143.0567,1.5826,1.5826,0,0,0,.2586.0636C157.98,121.73,158.0754,121.73,158.0754,121.7368Z"/><path class="cls-9" d="M158.005,121.75a.2541.2541,0,0,1-.0294-.1724.41.41,0,0,1,.0657-.1861.2521.2521,0,0,1,.2065-.1293.1.1,0,0,1,.0794.1135.2682.2682,0,0,1-.0408.1134.7439.7439,0,0,1-.118.1543.3612.3612,0,0,1-.1407.102s.0477-.0453.118-.1247a.84.84,0,0,0,.1021-.152c.034-.0545.0567-.15,0-.1611s-.127.059-.1633.1089a.4153.4153,0,0,0-.07.1656A.9822.9822,0,0,0,158.005,121.75Z"/><path class="cls-9" d="M162.2359,121.4351a2.2181,2.2181,0,0,0-.2881.0136,1.23,1.23,0,0,0-1.0141.828c-.0567.1679-.0612.2813-.07.279a.2268.2268,0,0,1,0-.0771.9732.9732,0,0,1,.0386-.2133,1.1888,1.1888,0,0,1,1.0412-.8507,1.0938,1.0938,0,0,1,.2156,0C162.2087,121.4237,162.2359,121.4305,162.2359,121.4351Z"/><path class="cls-9" d="M161.8094,119.813a12.9294,12.9294,0,0,1,.0408,1.6062A14.2533,14.2533,0,0,1,161.8094,119.813Z"/><path class="cls-9" d="M160.3621,122.2041a2.27,2.27,0,0,1-.5694.0635,2.1673,2.1673,0,0,1-.5717-.0386c0-.0136.2563,0,.5694,0S160.36,122.1905,160.3621,122.2041Z"/><path class="cls-9" d="M161.1266,122.1927s-.02.0545-.0454.1135-.0386.1111-.0522.1111-.02-.0612,0-.1293S161.12,122.1837,161.1266,122.1927Z"/><path class="cls-9" d="M161.4079,121.83a.2705.2705,0,0,1-.0568.093c-.0408.0431-.0793.068-.0884.059s.0159-.0522.0544-.093S161.4079,121.8207,161.4079,121.83Z"/><path class="cls-9" d="M161.823,121.6619c0,.0136-.0544.0136-.1134.034s-.0976.0522-.1066.0431.02-.0635.093-.0884S161.8253,121.6483,161.823,121.6619Z"/><path class="cls-9" d="M162.1156,121.58c0,.0114-.0181.0318-.05.0454s-.0612.0136-.068,0,.0181-.034.05-.0454S162.1111,121.5689,162.1156,121.58Z"/><polyline class="cls-9" points="155.671 80.247 157.495 120.775 163.579 120.902 162.567 86.974 169.411 121.161 175.196 121.161 167.472 80.247"/><polygon class="cls-10" points="169.112 120.612 169.25 121.21 175.196 121.29 175.105 120.353 169.112 120.612"/><path class="cls-10" d="M173.7419,120.5753c.0318,0,.07.0658.0862.1588s0,.1724-.0317.1769-.07-.0658-.0862-.1588S173.7079,120.5821,173.7419,120.5753Z"/><path class="cls-10" d="M173.5173,119.2482c.0341,0,.084.1406.1157.3221s.0295.3358,0,.3426-.0839-.1384-.1157-.3222S173.4856,119.255,173.5173,119.2482Z"/><path class="cls-10" d="M173.295,117.9211c.0318,0,.084.1406.1135.3221s.0317.338,0,.3426-.0817-.1384-.1135-.3222S173.2633,117.9279,173.295,117.9211Z"/><path class="cls-10" d="M173.0727,116.594c.0318,0,.0839.1406.1134.3221s.0295.338,0,.3426-.0839-.1384-.1134-.3222S173.041,116.6008,173.0727,116.594Z"/><path class="cls-10" d="M172.8481,115.2669c.0318,0,.084.1406.1157.3221s.03.338,0,.3426-.0839-.1384-.1157-.3222S172.8164,115.2737,172.8481,115.2669Z"/><path class="cls-10" d="M172.6258,113.94c.0318,0,.0817.1384.1134.3221s.0295.3358,0,.3426-.0839-.1384-.1134-.3222S172.5918,113.9466,172.6258,113.94Z"/><path class="cls-10" d="M172.4012,112.6059c.0318,0,.0817.1384.1135.3221s.0294.3358,0,.3426-.084-.1384-.1135-.3222S172.3672,112.62,172.4012,112.6059Z"/><path class="cls-10" d="M172.1744,111.2856c.0317,0,.0839.1406.1157.3221s.03.338,0,.3426-.084-.1384-.1157-.3222S172.1426,111.2924,172.1744,111.2856Z"/><path class="cls-10" d="M171.95,109.9585c.0317,0,.0816.1406.1134.3221s.0318.3358,0,.3426-.0817-.1384-.1134-.3222S171.9158,109.9653,171.95,109.9585Z"/><path class="cls-10" d="M171.7207,108.6337c.034,0,.0839.1383.1157.32s.0317.338,0,.3426-.084-.1384-.1157-.3222S171.6889,108.6382,171.7207,108.6337Z"/><path class="cls-10" d="M171.4938,107.3066c.0318,0,.0839.1383.1157.3221s.03.3358,0,.34-.0839-.1384-.1157-.3221S171.462,107.3111,171.4938,107.3066Z"/><path class="cls-10" d="M171.2647,105.98c.0317,0,.0839.1384.1157.3221s.0317.3358,0,.34-.084-.1384-.1157-.32S171.2329,105.9863,171.2647,105.98Z"/><path class="cls-10" d="M171.0356,104.666c.0317,0,.0839.1361.1157.32s.0317.3358,0,.3426-.084-.1384-.1157-.3221S171.0015,104.666,171.0356,104.666Z"/><path class="cls-10" d="M170.8019,103.3275c.034,0,.0862.1384.118.3222s.0317.3357,0,.34-.0862-.1384-.118-.32S170.77,103.3344,170.8019,103.3275Z"/><path class="cls-10" d="M170.5705,102.0027c.0318,0,.0839.1384.1157.32s.0318.3357,0,.3425-.0839-.1383-.1157-.3221S170.5387,102.0073,170.5705,102.0027Z"/><path class="cls-10" d="M170.3346,100.6756c.0317,0,.0862.1384.1179.3222s.0318.3357,0,.34-.0839-.1361-.1157-.32S170.3028,100.6824,170.3346,100.6756Z"/><path class="cls-10" d="M170.0986,99.3508c.0318,0,.0863.1384.118.3221s.0341.3358,0,.34-.0839-.1384-.1157-.32S170.0669,99.3576,170.0986,99.3508Z"/><path class="cls-10" d="M169.8605,98.026c.0317,0,.0862.1383.1179.3221s.0341.3357,0,.34-.0862-.1384-.1179-.32S169.8287,98.0328,169.8605,98.026Z"/><path class="cls-10" d="M169.6223,96.7011c.0317,0,.0839.1384.1179.3222s.0341.3357,0,.34-.0862-.1362-.12-.32S169.5882,96.7079,169.6223,96.7011Z"/><path class="cls-10" d="M169.38,95.3786c.0318,0,.0862.1361.118.32s.0363.3358,0,.34-.0839-.1361-.118-.32S169.3478,95.3831,169.38,95.3786Z"/><path class="cls-10" d="M169.1345,94.0537c.0341,0,.0862.1384.12.32s.0362.3358,0,.3426-.084-.1384-.118-.32S169.1028,94.0605,169.1345,94.0537Z"/><path class="cls-10" d="M168.8941,92.7312c.0317,0,.0862.1361.12.32s.034.3358,0,.34-.0839-.1361-.118-.32S168.8578,92.7357,168.8941,92.7312Z"/><path class="cls-10" d="M168.64,91.4086c.034,0,.0862.1361.12.32s.0363.3357,0,.34-.0862-.1361-.12-.32S168.6082,91.4132,168.64,91.4086Z"/><path class="cls-10" d="M168.39,90.0861c.0318,0,.0862.1361.12.32s.0363.3335,0,.34-.0862-.1361-.12-.32S168.3587,90.0906,168.39,90.0861Z"/><path class="cls-10" d="M168.1364,88.7635c.0317,0,.0862.1361.12.32s.0386.3357,0,.34-.0862-.1361-.1225-.3175S168.1046,88.77,168.1364,88.7635Z"/><path class="cls-10" d="M167.88,87.4432c.0318,0,.0862.1361.1225.3176s.0386.3357,0,.3426-.0862-.1362-.1225-.32S167.8483,87.4477,167.88,87.4432Z"/><path class="cls-10" d="M167.6191,86.1206c.0318,0,.0885.1362.1225.32s.0409.3358,0,.34-.0884-.1361-.1247-.3176S167.5874,86.1275,167.6191,86.1206Z"/><path class="cls-10" d="M167.356,84.8c.0317,0,.0885.1361.1247.32s.0409.3335,0,.34-.0862-.1361-.1225-.3176S167.3242,84.8072,167.356,84.8Z"/><path class="cls-10" d="M167.0906,83.4823c.0317,0,.0884.1361.1247.3176s.0409.3358,0,.3426-.0884-.1361-.1247-.32S167.0588,83.4891,167.0906,83.4823Z"/><path class="cls-10" d="M166.8206,82.162c.0318,0,.0885.1362.1248.3176s.0431.3358.0113.3426-.0885-.1361-.127-.3176S166.7888,82.1688,166.8206,82.162Z"/><path class="cls-10" d="M166.6255,81.1684c.034,0,.0749.0635.093.1543s0,.1724-.0227.1792-.0726-.0635-.093-.1543S166.5824,81.1752,166.6255,81.1684Z"/><path class="cls-10" d="M162.5421,120.5707c.0318,0,.0636.0749.0681.1679s-.0182.17-.05.1724-.0635-.0726-.0681-.1656S162.499,120.573,162.5421,120.5707Z"/><path class="cls-10" d="M162.4741,119.221c.034,0,.0658.15.0726.3357s-.0136.338-.0454.34-.0658-.15-.0726-.3358S162.4423,119.2232,162.4741,119.221Z"/><path class="cls-10" d="M162.4332,117.8712c.0318,0,.0636.15.0681.3357s-.0159.338-.0476.34-.0636-.15-.07-.3357S162.4015,117.8712,162.4332,117.8712Z"/><path class="cls-10" d="M162.3992,116.5191c.0318,0,.0613.15.0681.338s-.02.338-.0522.338-.0635-.15-.0681-.3357S162.3652,116.5214,162.3992,116.5191Z"/><path class="cls-10" d="M162.3675,115.1693c.0317,0,.0612.15.0657.3358s-.0181.338-.05.34-.0635-.15-.068-.338S162.3334,115.1693,162.3675,115.1693Z"/><path class="cls-10" d="M162.3312,113.8173c.034,0,.0635.15.068.3357s-.0159.338-.05.34-.0635-.15-.068-.338S162.2994,113.8173,162.3312,113.8173Z"/><path class="cls-10" d="M162.2858,112.4652c.034,0,.0658.15.0726.3358s-.0159.338-.0477.34-.0635-.15-.07-.3358S162.254,112.4675,162.2858,112.4652Z"/><path class="cls-10" d="M162.2291,111.1154c.034,0,.0658.15.0748.3358s-.0136.338-.0453.34-.0658-.15-.0726-.3358S162.1973,111.1177,162.2291,111.1154Z"/><path class="cls-10" d="M162.1769,109.7657c.034,0,.0658.1474.0726.3357s-.0136.338-.0454.338-.0658-.1474-.0726-.3334S162.1451,109.7657,162.1769,109.7657Z"/><path class="cls-10" d="M162.1293,108.4136c.034,0,.0657.15.0726.3358s-.0159.34-.0477.34-.0658-.15-.0726-.3357S162.0884,108.4159,162.1293,108.4136Z"/><path class="cls-10" d="M162.0884,107.0638c.0341,0,.0636.1475.07.3358s-.0181.338-.05.338-.0635-.15-.068-.3358S162.0567,107.0638,162.0884,107.0638Z"/><path class="cls-10" d="M162.0544,105.7118c.0318,0,.0612.15.0658.3357s-.0159.34-.05.34-.0636-.15-.0681-.3357S162.02,105.7118,162.0544,105.7118Z"/><path class="cls-10" d="M162.0249,104.362c.0318,0,.0613.15.0658.3357s-.02.3381-.0522.3381-.0612-.15-.0658-.3358S161.9909,104.362,162.0249,104.362Z"/><path class="cls-10" d="M162.0022,103.01c.0318,0,.0613.15.0635.3357s-.02.34-.0544.34-.0613-.15-.0635-.338S161.9682,103.01,162.0022,103.01Z"/><path class="cls-10" d="M161.9863,101.6579c.0318,0,.059.152.0613.338s-.0227.338-.0544.338-.0613-.15-.0636-.3357S161.9523,101.66,161.9863,101.6579Z"/><path class="cls-10" d="M161.975,100.3081c.034,0,.0613.15.0613.338s-.0227.3358-.0568.338-.0589-.152-.0612-.338S161.9432,100.3081,161.975,100.3081Z"/><path class="cls-10" d="M161.9727,98.9561c.0318,0,.059.152.059.338s-.0249.338-.059.338-.059-.152-.059-.338S161.941,98.9561,161.9727,98.9561Z"/><path class="cls-10" d="M161.9773,97.604c.0317,0,.059.152.0567.338s-.0272.338-.059.338-.059-.152-.059-.338S161.9432,97.604,161.9773,97.604Z"/><path class="cls-10" d="M161.9863,96.2542c.0341,0,.059.152.0568.338s-.03.3381-.0613.3381-.059-.152-.0567-.34S161.9546,96.2542,161.9863,96.2542Z"/><path class="cls-10" d="M162.0045,94.9113c.034,0,.0567.1519.0544.338s-.0317.338-.0635.338-.0567-.152-.0544-.338S161.9727,94.9113,162.0045,94.9113Z"/><path class="cls-10" d="M162.0294,93.55c.0318,0,.0568.152.0522.338s-.0317.338-.0658.338-.0567-.1542-.0521-.34S161.9954,93.55,162.0294,93.55Z"/><path class="cls-10" d="M162.0589,92.2c.0341,0,.0567.152.0522.338s-.0363.3381-.068.3381-.0545-.152-.05-.34S162.0272,92.189,162.0589,92.2Z"/><path class="cls-10" d="M162.1066,90.8483c.034,0,.0544.1542.0454.34s-.0386.3357-.0726.3357-.0522-.1542-.0454-.34S162.0748,90.846,162.1066,90.8483Z"/><path class="cls-10" d="M162.186,89.4985c.0317,0,.05.1543.0363.34s-.0477.3357-.0817.3335-.0476-.1543-.0363-.34S162.1542,89.4962,162.186,89.4985Z"/><path class="cls-10" d="M162.3153,88.1533c.034,0,.0454.1565.0249.3425s-.059.3312-.093.329-.0431-.1566-.0249-.3426S162.2767,88.1487,162.3153,88.1533Z"/><path class="cls-10" d="M162.44,87.1483c.0318,0,.0477.0839.0341.1769s-.05.1634-.0817.1588-.0476-.0816-.034-.1746S162.4083,87.1438,162.44,87.1483Z"/><polygon class="cls-10" points="157.336 120.97 163.769 121.077 163.72 120.004 157.336 120.038 157.336 120.97"/><path class="cls-10" d="M161.5553,80.7623a.8721.8721,0,0,1,.0386.2473c.0181.1588.0385.39.0612.6806.0454.5717.1021,1.3611.1566,2.239.0249.4379.05.853.07,1.2364A3.8042,3.8042,0,0,0,162,86.15a.8368.8368,0,0,0,.4106.4878,1.31,1.31,0,0,0,.2268.068.1265.1265,0,0,1-.0635,0,.4776.4776,0,0,1-.1883-.034.8485.8485,0,0,1-.47-.5013,3.569,3.569,0,0,1-.15-1.0073c-.025-.3834-.0522-.7985-.0794-1.2341-.0544-.8756-.0975-1.67-.1225-2.2436-.0113-.2881-.02-.5195-.0227-.68A1.1889,1.1889,0,0,1,161.5553,80.7623Z"/><path class="cls-10" d="M162.1814,81.3a.319.319,0,0,0-.0567.15.1883.1883,0,0,0,.0454.1407.1633.1633,0,0,0,.2586-.1067.1839.1839,0,0,0-.0635-.1315c-.07-.0635-.1407-.0522-.1452-.0681s.0749-.068.1951,0a.2541.2541,0,0,1,.1225.1974.2563.2563,0,1,1-.5036-.0454C162.0884,81.3,162.1814,81.2841,162.1814,81.3Z"/><path class="cls-10" d="M167.905,82.26a1.1343,1.1343,0,0,1-.5036.1928,2.1369,2.1369,0,0,1-2.2686-1.0118,1.1469,1.1469,0,0,1-.1928-.5058c.0182,0,.0817.1905.2631.4537a2.23,2.23,0,0,0,2.1824.9754C167.71,82.3254,167.8982,82.2414,167.905,82.26Z"/><path class="cls-10" d="M157.7782,80.7623a.8425.8425,0,0,1-.0227.4379,1.7242,1.7242,0,0,1-1.5176,1.3316.8349.8349,0,0,1-.4379-.0363c0-.02.1679,0,.4265-.0454a1.8148,1.8148,0,0,0,1.45-1.27A2.0683,2.0683,0,0,0,157.7782,80.7623Z"/><path class="cls-12" d="M154.0963,63.2764l-5.6713,1.4723.9074-6.7217h0l.1157-.32,2.078-.3221-.2473-1.5335a1.2478,1.2478,0,0,0-1.449-1.007q-.0506.0092-.1.0224l-.6806.1815a1.7763,1.7763,0,0,0-1.1342.9074c-.3925.7736-.7781,1.6175-.7418,1.5449h0l-3.04,8.2462a3.117,3.117,0,0,0,.3358,3.3234c.98,1.2726,3.3461.3879,4.46.1724l7.2594-1.5993Z"/><path class="cls-12" d="M175.0191,76.4294a3.7976,3.7976,0,0,0-.0181-5.0044l-6.0661-6.88-1.6243,4.5371c.1112.0749,4.7231,5.02,4.7231,5.02l-3.9631,4.9409a2.8425,2.8425,0,0,0-.4741,2.7109l.68,2.7631,3.28-1.47-.2268-.34h-2.1778l-.1293-.5218h0Z"/><path class="cls-13" d="M172.8844,73.2217a1.9017,1.9017,0,0,1-.4537.54,3.0031,3.0031,0,0,1-.51.47,1.6054,1.6054,0,0,1,.4265-.5535A2.4551,2.4551,0,0,1,172.8844,73.2217Z"/><path class="cls-4" d="M154.3754,81.6879l13.0985-.8779-.1542-6.454V69.6851l1.4587,2.1528,3.8928-4.0675L168.32,63.5918h0a6.8054,6.8054,0,0,0-2.6474-1.7128,5.3726,5.3726,0,0,0-1.6583-.3176h0a6.6446,6.6446,0,0,1-4.004,0,19.5226,19.5226,0,0,0-3.641.6806l-5.0883,1.3634,1.6719,6.2339,3.0693-1.0163S154.3414,80.3926,154.3754,81.6879Z"/><polygon class="cls-16" points="168.769 71.836 169.663 71.57 169.357 71.221 168.769 71.836"/><path class="cls-9" d="M167.44,69.921a3.2148,3.2148,0,0,1-.5195-.7055,3.3029,3.3029,0,0,1-.4219-.7691,6.3929,6.3929,0,0,1,.9414,1.4746Z"/><polygon class="cls-16" points="152.967 69.907 151.95 68.571 152.574 68.435 152.967 69.907"/><g class="cls-17"><path class="cls-11" d="M169.2979,64.6194a.5129.5129,0,0,1-.05.0522l-.1588.1384a3.3123,3.3123,0,0,1-.7033.4083,3.4566,3.4566,0,0,1-1.2568.2677,3.3877,3.3877,0,0,1-1.6583-.3607,1.913,1.913,0,0,1-.7735-.6307.7572.7572,0,0,1-.1361-.5285.5171.5171,0,0,1,.3947-.4061.6805.6805,0,0,1,.5762.12,1.073,1.073,0,0,1,.3584.4832,1.6311,1.6311,0,0,1-.0249,1.2228,2.0422,2.0422,0,0,1-.8394.9777,3.1767,3.1767,0,0,1-1.2749.4356,2.9612,2.9612,0,0,1-1.3883-.1157,1.9159,1.9159,0,0,1-.6262-.3653,2.3439,2.3439,0,0,1-.4537-.5762A9.2116,9.2116,0,0,0,160.58,64.52a1.7176,1.7176,0,0,0-1.15-.61,2.2442,2.2442,0,0,0-1.259.2269,3.1168,3.1168,0,0,0-.9823.7645,1.2455,1.2455,0,0,0-.313,1.08.7344.7344,0,0,0,.2926.4537.6964.6964,0,0,0,.5013.1089.5353.5353,0,0,0,.3744-.304,1.0631,1.0631,0,0,0,.093-.49,2.9187,2.9187,0,0,0-.2042-.9437,3.2735,3.2735,0,0,0-2.8766-2.08,2.7048,2.7048,0,0,1-.2813-.0114,1.8382,1.8382,0,0,1,.2813-.0159,3.1455,3.1455,0,0,1,.8031.12,3.2415,3.2415,0,0,1,1.1343.5853,3.3168,3.3168,0,0,1,1.0072,1.3611,3.1105,3.1105,0,0,1,.2155.9755,1.1639,1.1639,0,0,1-.0975.5331.6375.6375,0,0,1-.4424.3561.78.78,0,0,1-.5762-.12.8416.8416,0,0,1-.338-.5014,1.2057,1.2057,0,0,1,.0227-.6215,1.6732,1.6732,0,0,1,.3085-.5513,3.2021,3.2021,0,0,1,1.0163-.7985,2.3658,2.3658,0,0,1,1.3226-.25,1.84,1.84,0,0,1,1.2272.6511,9.2156,9.2156,0,0,1,.7146,1.2386,2.1847,2.1847,0,0,0,.4243.5468,1.7888,1.7888,0,0,0,.5852.3425,2.9108,2.9108,0,0,0,1.3362.1134,3.1052,3.1052,0,0,0,1.2273-.4174,1.921,1.921,0,0,0,.7985-.9233,1.5268,1.5268,0,0,0,.0318-1.1342.9909.9909,0,0,0-.3221-.44.5809.5809,0,0,0-.4923-.1067.42.42,0,0,0-.3267.329.68.68,0,0,0,.12.4537,1.8143,1.8143,0,0,0,.735.6034,3.3475,3.3475,0,0,0,1.62.37,3.474,3.474,0,0,0,1.2386-.245A3.6547,3.6547,0,0,0,169.2979,64.6194Z"/></g><g class="cls-17"><path class="cls-11" d="M167.2153,71.0462h-.0635l-.1792-.0159c-.1611,0-.3947-.0363-.6965-.05a4.9163,4.9163,0,0,0-1.0957.0635,2.607,2.607,0,0,0-1.2862.608,1.7123,1.7123,0,0,0-.4537.6805.9073.9073,0,0,0,.0952.8371.6807.6807,0,0,0,.363.2564.5355.5355,0,0,0,.44-.0681.7805.7805,0,0,0,.2972-.372.9323.9323,0,0,0,.0431-.4946,2.07,2.07,0,0,0-.4719-.9482,2.8715,2.8715,0,0,0-.8688-.7055,3.21,3.21,0,0,0-2.3-.29,4.0445,4.0445,0,0,0-2.0054,1.2182,2.2279,2.2279,0,0,0-.574.9483.7238.7238,0,0,0,.05.5036.6354.6354,0,0,0,.3766.3108.86.86,0,0,0,.9074-.2382,1.098,1.098,0,0,0,.2155-.8893,1.4337,1.4337,0,0,0-.3992-.7849,2.4662,2.4662,0,0,0-.6806-.4878,3.3418,3.3418,0,0,0-2.4659-.2881,2.1679,2.1679,0,0,0-.7962.4764,1.2317,1.2317,0,0,1,.1724-.1746,1.8642,1.8642,0,0,1,.6079-.3449,3.3528,3.3528,0,0,1,2.5181.2564,2.56,2.56,0,0,1,.7033.4991,1.5452,1.5452,0,0,1,.431.8325,1.2069,1.2069,0,0,1-.2269.9732.9594.9594,0,0,1-1.014.2722.7487.7487,0,0,1-.4424-.3607.8573.8573,0,0,1-.0612-.5807,2.3613,2.3613,0,0,1,.5989-1,4.176,4.176,0,0,1,2.0621-1.2568,3.328,3.328,0,0,1,2.3842.304,3.04,3.04,0,0,1,.9075.735,2.2112,2.2112,0,0,1,.4922,1.005,1.0866,1.0866,0,0,1-.0521.5512.9076.9076,0,0,1-.3426.42.6444.6444,0,0,1-.5218.0771.789.789,0,0,1-.4151-.2949.9981.9981,0,0,1-.1021-.9256,1.77,1.77,0,0,1,.4877-.7145,2.66,2.66,0,0,1,1.3317-.6126,4.7672,4.7672,0,0,1,1.1093-.0431c.304.02.5376.0522.6964.0726l.1793.0273A.3235.3235,0,0,1,167.2153,71.0462Z"/></g><g class="cls-17"><path class="cls-11" d="M167.4558,78.4371l-.059.0113c-.0386,0-.0975.0159-.1747.0227a3.0323,3.0323,0,0,1-.6805-.0249,3.311,3.311,0,0,1-1.0141-.3335,3.1465,3.1465,0,0,1-1.0753-.921,1.6817,1.6817,0,0,1-.2109-.3517.5372.5372,0,0,1,0-.4537.3669.3669,0,0,1,.1678-.1746.3287.3287,0,0,1,.25-.0114.6446.6446,0,0,1,.338.34,1.511,1.511,0,0,1,.059.9664,2.3233,2.3233,0,0,1-.4787.9074,3.1943,3.1943,0,0,1-1.8965,1.0413,3.58,3.58,0,0,1-2.2935-.37c-.0885-.0476-.1724-.1066-.2586-.1588s-.1588-.1225-.24-.1838a1.7052,1.7052,0,0,1-.4015-.4537.83.83,0,0,1-.1021-.5966.574.574,0,0,1,.4038-.4537.7875.7875,0,0,1,.583.0862.9731.9731,0,0,1,.388.42,1.2567,1.2567,0,0,1,.0136,1.0753,1.5881,1.5881,0,0,1-.73.7214,2.1294,2.1294,0,0,1-.9414.2268,4.4828,4.4828,0,0,1-1.6765-.37,6.2424,6.2424,0,0,1-2.0666-1.3612,4.1471,4.1471,0,0,1-.5876-.6805.396.396,0,0,1,.0408.0431l.1135.1338c.1021.1134.2518.2836.465.4832a6.4007,6.4007,0,0,0,2.0644,1.3112,4.5382,4.5382,0,0,0,1.6447.3494,2.0009,2.0009,0,0,0,.8961-.2133,1.4783,1.4783,0,0,0,.68-.68,1.1344,1.1344,0,0,0-.0136-.9778.8688.8688,0,0,0-.3448-.372.6645.6645,0,0,0-.4945-.0749.4538.4538,0,0,0-.3222.3585.7141.7141,0,0,0,.0908.5149,1.6061,1.6061,0,0,0,.3765.42c.0772.0567.15.12.2269.1747a2.492,2.492,0,0,0,.2473.152,3.4528,3.4528,0,0,0,2.2186.3584,3.0965,3.0965,0,0,0,1.833-.9959,2.2427,2.2427,0,0,0,.4537-.862,1.4157,1.4157,0,0,0-.0476-.9074.5515.5515,0,0,0-.27-.2632.24.24,0,0,0-.304.1361.44.44,0,0,0,0,.37,1.5032,1.5032,0,0,0,.1974.3335,3.0752,3.0752,0,0,0,1.039.9074,3.3352,3.3352,0,0,0,.9913.3471,3.6,3.6,0,0,0,.6647.0476l.1747-.0113Z"/></g><polygon class="cls-14" points="152.967 69.907 151.95 68.571 152.574 68.435 152.967 69.907"/><polygon class="cls-18" points="168.769 71.836 169.663 71.57 169.357 71.221 168.769 71.836"/></svg>