<svg id="Layer_1" data-name="Layer 1" xmlns="http://www.w3.org/2000/svg" viewBox="0 0 227 148"><defs><style>.cls-1{opacity:0.8;}.cls-2,.cls-3{fill:#e1e1e1;}.cls-2,.cls-4{fill-rule:evenodd;}.cls-4,.cls-5{fill:#f5f5f5;}.cls-6{fill:#1a2e35;}.cls-7{fill:#375a64;}.cls-8{fill:#ff4f5b;}.cls-18,.cls-19,.cls-9{fill:#ff4e5a;}.cls-10{fill:#ececec;}.cls-11{fill:#ffbf9d;}.cls-12{fill:#ff9a6c;}.cls-13{opacity:0.3;}.cls-14{fill:#fafafa;}.cls-15{fill:#fff;}.cls-16{fill:none;}.cls-17,.cls-18,.cls-19{isolation:isolate;}.cls-18,.cls-19{font-size:5.1785px;font-family:OpenSans-SemiboldItalic, Open Sans;font-weight:600;font-style:italic;}.cls-19{letter-spacing:1.9371em;}</style></defs><title>iArtboard 1 copy 2</title><g class="cls-1"><path class="cls-2" d="M169.2224,112.1361a9.9525,9.9525,0,0,1-1.06,2.3993l1.2484,2.0866L166.4992,119.4l-2.0254-1.3458a9.8458,9.8458,0,0,1-2.4469.9471l-.5936,2.3584-4.0214-.0951-.48-2.3834a9.7537,9.7537,0,0,1-2.3993-1.0626l-2.0866,1.2484-2.7776-2.9113,1.3458-2.0255a9.8409,9.8409,0,0,1-.947-2.4468l-2.3585-.5913.0951-4.0215,2.3834-.48a9.7514,9.7514,0,0,1,1.0626-2.3992l-1.2483-2.0866,2.9112-2.7777,2.0255,1.3458a9.8625,9.8625,0,0,1,2.4446-.947l.5935-2.3562,4.0215.0951.48,2.3834a9.7537,9.7537,0,0,1,2.3993,1.0626l2.0866-1.2483,2.7776,2.9112-1.3458,2.0255a9.8451,9.8451,0,0,1,.9471,2.4468l2.3562.5913-.0952,4.0215-2.3812.478Zm-5.2086-2.49a4.316,4.316,0,1,0-4.4156,4.214A4.314,4.314,0,0,0,164.0138,109.6462Z"/></g><path class="cls-3" d="M105.6635,52.0707a1.0958,1.0958,0,0,1-.0386.3534,1.4516,1.4516,0,0,1-1.16,1.0626,1.4784,1.4784,0,0,1-.7726-.0771,1.3634,1.3634,0,0,1-.3693-.2084,1.4175,1.4175,0,0,1-.3059-.3194,1.4666,1.4666,0,0,1,.0408-1.7446,1.4093,1.4093,0,0,1,.3195-.3058,1.3506,1.3506,0,0,1,.3783-.19,1.4687,1.4687,0,0,1,.7749-.0408,1.4525,1.4525,0,0,1,1.1078,1.1169,1.0263,1.0263,0,0,1,.025.3535c-.0114,0,0-.1269-.0522-.3489a1.4382,1.4382,0,0,0-.5052-.7839,1.4035,1.4035,0,0,0-1.3231-.2243,1.4082,1.4082,0,0,0-.6593.4735,1.3916,1.3916,0,0,0-.0385,1.6493,1.31,1.31,0,0,0,.2877.3036,1.346,1.346,0,0,0,.3489.1994,1.4318,1.4318,0,0,0,.7341.0816,1.3929,1.3929,0,0,0,.5981-.2447,1.4293,1.4293,0,0,0,.5415-.759C105.6567,52.1975,105.6544,52.0684,105.6635,52.0707Z"/><path class="cls-3" d="M107.3966,52.8976l.05-.0136c.0362-.009.0861-.0181.15-.034.1382-.0294.3353-.0725.5913-.1268l-.0113.0136c.0068-.3421.0136-.793.0227-1.339l.0158.02c-.2379-.0589-.5029-.1246-.7839-.1949l-.0136-.0045-.0045-.0136a3.3338,3.3338,0,0,0-.3149-.8065l-.0068-.0136.0091-.0136c.1382-.2107.29-.4373.4463-.6752l.0022.0363c-.2922-.3036-.6-.6276-.9266-.9652l.0408.0046c-.2152.1291-.4509.2718-.6933.4168l-.0181.0114-.0181-.0114a3.2706,3.2706,0,0,0-.7907-.3489l-.02-.0068-.0045-.02c-.05-.2447-.1042-.5166-.1609-.793l.034.0294c-.4191-.009-.8745-.02-1.339-.0294l.0386-.0295c-.0612.2447-.1292.5121-.1972.7839l-.0068.0227-.0226.0045a3.28,3.28,0,0,0-.8043.3127l-.02.0113-.02-.0136c-.2107-.1405-.4418-.2923-.6751-.4463l.05-.0045c-.3058.2922-.6343.6071-.9674.9243l.0068-.05c.1314.22.2719.4554.4146.6932l.0136.02-.0136.02a3.3437,3.3437,0,0,0-.3489.7862h0c-.0136.0136.0317-.0295-.0317.0294h-.0045l-.0068.0023-.0136.0023-.0249.0045-.05.0091-.1.02-.1993.0407c-.1315.0272-.2651.0544-.3943.0793l.034-.0385c-.0113.4531-.02.8972-.0317,1.339l-.0317-.0408c.2651.0657.5256.1314.7839.1971l.0226.0068.0068.0249a3.2917,3.2917,0,0,0,.31.8043l.0113.02-.0135.02q-.2277.3432-.4486.6729l-.0046-.05q.4725.4962.9221.97l-.0475-.0068c.2356-.1405.4667-.2787.6955-.4146l.02-.0113.0181.0113a3.2561,3.2561,0,0,0,.7884.3512l.02.0068.0046.02c.0543.2718.1064.5346.1586.7929l-.0318-.0272c.4713.0114.9153.0227,1.3367.034l-.0317.0249c.07-.2764.1359-.5346.1994-.7839l.0045-.0181.0181-.0045a3.2124,3.2124,0,0,0,.8066-.31l.0136-.0068.0136.0091c.2446.1631.4644.31.6729.4485l-.0295.0023c.3761-.3557.6978-.6593.9719-.92l-.0022.0226c-.1632-.2786-.2991-.5075-.41-.6978l-.0045-.0068.0045-.0068a3.4549,3.4549,0,0,0,.29-.5867c.0227-.0657.0408-.1156.0544-.1518.02-.0272.0249-.0431.0271-.0431a.4248.4248,0,0,1-.0113.0521q-.0137.051-.0476.1564a3.191,3.191,0,0,1-.2809.5958v-.0136c.1156.1881.2515.4146.4191.691l.0068.0136-.0113.0113c-.2719.2628-.5913.5687-.9651.9289l-.0136.0136-.0159-.0113c-.2084-.1382-.43-.2832-.6751-.4441l.0272.0023a3.3268,3.3268,0,0,1-.82.3195l.0227-.0227c-.0612.2492-.1269.51-.1949.7839l-.0068.0249h-.0249c-.4237-.009-.8677-.0181-1.339-.0294h-.0271l-.0046-.0272c-.0521-.2583-.1065-.5211-.1608-.793l.0249.0272a3.3082,3.3082,0,0,1-.8066-.3557h.0386c-.2266.1359-.4577.2741-.6933.4169l-.0249.0158-.02-.0226q-.4519-.4724-.9244-.9674l-.0226-.0227.0181-.0272c.1472-.222.2968-.4463.4463-.6751l-.0023.0408a3.3539,3.3539,0,0,1-.3194-.8225l.0294.0295c-.2582-.0657-.521-.1314-.7839-.1971l-.0317-.0068V52.551c.0114-.44.02-.8859.0317-1.339v-.034l.0318-.0068c.1314-.0272.2628-.0521.3942-.0793l.1994-.0407.1-.02.05-.0091.0249-.0045.0136-.0023.0068-.0023h.0045c-.0634.0567-.0181.0159-.0317.0295h0a3.2541,3.2541,0,0,1,.358-.8066v.0431c-.1428-.2379-.2832-.4758-.4146-.6933l-.0159-.0272.0227-.0226c.333-.3172.6615-.63.97-.9244l.0227-.0226.0272.0181c.2333.154.4622.3081.6729.4486l-.0408-.0023a3.3249,3.3249,0,0,1,.8224-.3172l-.0295.0295c.068-.2719.136-.5392.1971-.7839l.0068-.0295h.0318c.4644.0114.9175.0227,1.3367.034h.0294l.0068.03c.0544.2764.1088.546.1586.7929l-.0249-.0272a3.3606,3.3606,0,0,1,.8065.358h-.0362c.2424-.145.48-.2855.6955-.4146l.0227-.0136.0181.0181q.486.51.9221.97l.0159.0181-.0136.02c-.1586.2356-.31.4622-.4486.6729l.0022-.0272a3.3122,3.3122,0,0,1,.315.82l-.0182-.0181c.2832.0725.5461.14.7839.1994l.0159.0045v.0159c-.0159.5437-.0295.9946-.0385,1.3367v.0113l-.0113.0023c-.2561.0476-.4532.0861-.5891.111-.0657.0113-.1155.02-.1518.0272C107.4148,52.8954,107.3966,52.8976,107.3966,52.8976Z"/><g class="cls-1"><path class="cls-4" d="M120.0477,43.26a6.44,6.44,0,0,1-.6978,1.5768l.8224,1.373-1.9144,1.826-1.3322-.8858a6.4942,6.4942,0,0,1-1.6085.623l-.39,1.552-2.6462-.0635-.3172-1.5678a6.542,6.542,0,0,1-1.5791-.6978l-1.373.8225-1.8261-1.9145.8859-1.3321a6.4991,6.4991,0,0,1-.6231-1.6086l-1.5519-.39.0612-2.6462,1.5678-.3172a6.4378,6.4378,0,0,1,.6978-1.5768l-.8224-1.373,1.9144-1.8261,1.3322.8859a6.4944,6.4944,0,0,1,1.6085-.6231l.39-1.55,2.6462.0611.3172,1.5678a6.4614,6.4614,0,0,1,1.5791.6978l1.373-.8224,1.8261,1.9145-.8859,1.3321a6.4934,6.4934,0,0,1,.623,1.6086l1.552.39-.0635,2.6462-1.5655.3172Zm-3.4256-1.638a2.8384,2.8384,0,1,0-2.9045,2.7708A2.8376,2.8376,0,0,0,116.6221,41.6218Z"/></g><path class="cls-5" d="M78.6236,122.4106c4.5357-2.5058,6.0718-7.8843,6.423-12.8278a5.3792,5.3792,0,0,0-.0748-2.4446,1.6861,1.6861,0,0,0-1.9484-1.0829c-.6412.222-.981.9062-1.3843,1.4567a4.8262,4.8262,0,0,1-2.1229,1.6381,1.8373,1.8373,0,0,1-1.7037-.025c-.6683-.4667-.6479-1.4545-.5573-2.2724l.51-4.5674a7.684,7.684,0,0,0,.0091-2.4536A2.55,2.55,0,0,0,76.36,97.949a1.5459,1.5459,0,0,0-2.0119.8314,7.5858,7.5858,0,0,0-.1314,1.015.8652.8652,0,0,1-.589.7567.9939.9939,0,0,1-.8587-.4689,10.9617,10.9617,0,0,1-1.64-3.1515,15.1606,15.1606,0,0,0-1.5-3.233,4.4457,4.4457,0,0,0-2.8184-1.996,2.66,2.66,0,0,0-2.9045,1.52,3.9882,3.9882,0,0,0,.7635,3.3712,18.2912,18.2912,0,0,0,3.4188,4.0215,1.5258,1.5258,0,0,1,.5641.75c.12.5641-.4531,1.0512-1.01,1.1736a9.4692,9.4692,0,0,1-1.93.0136,1.8423,1.8423,0,0,0-1.67.7929c-.4236.8.1835,1.749.8111,2.397a15.6944,15.6944,0,0,0,4.3454,3.1582,5.2948,5.2948,0,0,1,1.6312,1.0173,1.5244,1.5244,0,0,1,.3014,1.7853,1.5476,1.5476,0,0,1-1.7423.4667,10.8809,10.8809,0,0,1-1.7218-.8745,2.8785,2.8785,0,0,0-3.36.2764,2.607,2.607,0,0,0-.5166,2.2588,6.0119,6.0119,0,0,0,1.0264,2.1523,15.81,15.81,0,0,0,6.2167,5.4238,10.8591,10.8591,0,0,0,7.59,1.0037"/><path class="cls-3" d="M77.6766,119.1889a73.2559,73.2559,0,0,0-2.0776-8.1946q-.333-1.074-.6547-2.1206c-.2175-.6956-.43-1.3843-.682-2.0459a36.8549,36.8549,0,0,0-1.6629-3.7178c-.5868-1.1577-1.1849-2.2339-1.7513-3.2353-.5687-1.0014-1.117-1.9257-1.6539-2.7459A29.2442,29.2442,0,0,0,66.38,93.45c-.3647-.4078-.6593-.7137-.8609-.9176l-.2311-.2311a.6122.6122,0,0,0-.0816-.0747.5619.5619,0,0,0,.07.0861c.0544.0611.1269.14.22.2424.1949.2107.48.5234.8383.9357a31.0366,31.0366,0,0,1,2.7686,3.7c.5279.8224,1.0693,1.7468,1.6335,2.75.5618,1.0037,1.1554,2.0821,1.7377,3.2376a37.3263,37.3263,0,0,1,1.6493,3.7065c.2492.657.4622,1.3412.6774,2.039.2153.6956.4328,1.4047.6548,2.1184a75.6176,75.6176,0,0,1,2.0843,8.1742"/><path class="cls-3" d="M74.2193,106.8188a1.794,1.794,0,0,0,.1155-.34c.0657-.222.1518-.5437.2538-.947.2016-.802.4418-1.919.7023-3.1514s.5166-2.3427.73-3.14c.1065-.3987.1949-.72.2583-.9424a1.6879,1.6879,0,0,0,.0838-.3512,1.7467,1.7467,0,0,0-.1382.3308c-.0815.2175-.1858.5346-.3036.9311-.24.793-.5142,1.9031-.7748,3.1379-.2537,1.2166-.4826,2.3177-.6593,3.1582-.0815.3806-.1495.7-.2062.9561A1.6759,1.6759,0,0,0,74.2193,106.8188Z"/><path class="cls-3" d="M63.9154,103.7466a2.2617,2.2617,0,0,0,.4146.0952c.2673.0521.6547.1268,1.1282.2333.9516.2062,2.2566.5347,3.6816.9629,1.4228.4305,2.6961.8723,3.6046,1.2212.4576.17.8224.3194,1.0761.4191a2.4049,2.4049,0,0,0,.3988.145,2.3581,2.3581,0,0,0-.3761-.1994c-.247-.1178-.6072-.2809-1.06-.4644-.904-.3738-2.1727-.836-3.6023-1.2665a36.5211,36.5211,0,0,0-3.702-.92c-.48-.0929-.87-.1518-1.1418-.1858A1.9471,1.9471,0,0,0,63.9154,103.7466Z"/><path class="cls-3" d="M77.5678,118.9805a.55.55,0,0,0,.0861-.12c.0589-.0974.1314-.2175.22-.3625.19-.3149.4508-.7771.768-1.3526.6344-1.1509,1.4591-2.7685,2.3472-4.5651s1.6969-3.4211,2.3064-4.5833c.299-.5642.5437-1.0286.7249-1.3753.0793-.15.1428-.2741.1949-.376a.5478.5478,0,0,0,.0589-.136.5477.5477,0,0,0-.0861.12c-.0589.0974-.1314.2175-.22.36-.19.3149-.4508.7771-.768,1.3526-.6344,1.1509-1.459,2.7685-2.3472,4.5652s-1.6969,3.4187-2.3063,4.581c-.2991.5641-.5438,1.0286-.725,1.3752-.0793.15-.1428.2741-.1949.3761A.6622.6622,0,0,0,77.5678,118.9805Z"/><path class="cls-3" d="M64.0739,113.0084a.57.57,0,0,0,.1337.0725c.1065.0475.2356.1064.392.1789.3625.1609.85.3784,1.4454.6435,1.2189.5437,2.8954,1.3118,4.7464,2.1636s3.5366,1.6063,4.7668,2.1251c.6163.2583,1.117.4645,1.4636.5982.1609.0611.2945.111.4033.1518a.5308.5308,0,0,0,.145.043.5667.5667,0,0,0-.1337-.0725l-.3919-.179c-.3625-.1608-.85-.3783-1.4455-.6434-1.2189-.5415-2.8954-1.3118-4.7487-2.1636-1.8509-.8519-3.5366-1.6064-4.7668-2.1229-.6162-.2583-1.1169-.4644-1.4635-.5981-.1609-.0612-.2946-.111-.4033-.1518A.47.47,0,0,0,64.0739,113.0084Z"/><path class="cls-6" d="M167.9764,122.7414c0,.0317-22.4317.0589-50.0969.0589-27.6742,0-50.1013-.0272-50.1013-.0589s22.4271-.059,50.1013-.059C145.5447,122.6824,167.9764,122.7074,167.9764,122.7414Z"/><path class="cls-6" d="M108.3437,118.8989H106.25v-.2266h2.0934a2.483,2.483,0,0,0,2.4808-2.4808v-55.02a3.0008,3.0008,0,0,1,2.9974-2.9974h4.5357v.2265h-4.5357a2.7752,2.7752,0,0,0-2.7709,2.7709v55.0177A2.7121,2.7121,0,0,1,108.3437,118.8989Z"/><rect class="cls-6" x="80.3205" y="86.5666" width="24.1286" height="32.2168"/><rect class="cls-7" x="76.7953" y="91.8613" width="26.3783" height="6.5453"/><rect class="cls-6" x="77.9666" y="93.2093" width="5.1927" height="0.7998"/><rect class="cls-6" x="77.9666" y="94.5845" width="5.1927" height="0.7998"/><rect class="cls-6" x="77.9666" y="96.0073" width="5.1927" height="0.7998"/><path class="cls-6" d="M85.2142,93.6919a.2991.2991,0,1,1-.2991-.2991A.2988.2988,0,0,1,85.2142,93.6919Z"/><path class="cls-6" d="M86.5305,93.6919a.2991.2991,0,1,1-.299-.2991A.2988.2988,0,0,1,86.5305,93.6919Z"/><path class="cls-6" d="M87.8446,93.6919a.2991.2991,0,1,1-.2991-.2991A.2988.2988,0,0,1,87.8446,93.6919Z"/><path class="cls-6" d="M89.1586,93.6919a.2991.2991,0,1,1-.2991-.2991A.2988.2988,0,0,1,89.1586,93.6919Z"/><path class="cls-6" d="M99.347,93.6919a.2991.2991,0,1,1-.2991-.2991A.2988.2988,0,0,1,99.347,93.6919Z"/><path class="cls-6" d="M100.6882,93.6919a.2991.2991,0,1,1-.299-.2991A.2988.2988,0,0,1,100.6882,93.6919Z"/><path class="cls-6" d="M90.4749,93.6919a.2991.2991,0,1,1-.299-.2991A.2988.2988,0,0,1,90.4749,93.6919Z"/><path class="cls-6" d="M96.9319,93.6919a.2991.2991,0,1,1-.2991-.2991A.2988.2988,0,0,1,96.9319,93.6919Z"/><path class="cls-5" d="M91.789,93.6919a.298.298,0,1,1-.2991-.2991A.2988.2988,0,0,1,91.789,93.6919Z"/><path class="cls-5" d="M93.103,93.6919a.2991.2991,0,1,1-.2991-.2991A.2988.2988,0,0,1,93.103,93.6919Z"/><path class="cls-5" d="M95.7719,93.6919a.2991.2991,0,1,1-.2991-.2991A.2988.2988,0,0,1,95.7719,93.6919Z"/><path class="cls-5" d="M101.78,93.6919a.2979.2979,0,1,1-.2968-.2991A.3013.3013,0,0,1,101.78,93.6919Z"/><path class="cls-8" d="M94.4193,93.6919a.2991.2991,0,1,1-.299-.2991A.2988.2988,0,0,1,94.4193,93.6919Z"/><path class="cls-8" d="M98.1825,93.6919a.2991.2991,0,1,1-.2991-.2991A.2988.2988,0,0,1,98.1825,93.6919Z"/><path class="cls-6" d="M101.1844,95.1283a.2979.2979,0,1,1,.299.299A.2988.2988,0,0,1,101.1844,95.1283Z"/><path class="cls-6" d="M99.8681,95.1283a.2991.2991,0,1,1,.299.299A.2987.2987,0,0,1,99.8681,95.1283Z"/><path class="cls-6" d="M98.554,95.1283a.2991.2991,0,1,1,.2991.299A.2988.2988,0,0,1,98.554,95.1283Z"/><path class="cls-6" d="M97.24,95.1283a.2991.2991,0,1,1,.299.299A.2988.2988,0,0,1,97.24,95.1283Z"/><path class="cls-6" d="M87.0516,95.1283a.2991.2991,0,1,1,.2991.299A.2988.2988,0,0,1,87.0516,95.1283Z"/><path class="cls-6" d="M85.71,95.1283a.2991.2991,0,1,1,.299.299A.2987.2987,0,0,1,85.71,95.1283Z"/><path class="cls-6" d="M95.9237,95.1283a.2991.2991,0,1,1,.299.299A.2987.2987,0,0,1,95.9237,95.1283Z"/><path class="cls-6" d="M89.4667,95.1283a.298.298,0,1,1,.2968.299A.2983.2983,0,0,1,89.4667,95.1283Z"/><path class="cls-5" d="M94.61,95.1283a.298.298,0,1,1,.2991.299A.2988.2988,0,0,1,94.61,95.1283Z"/><path class="cls-5" d="M93.2956,95.1283a.2991.2991,0,1,1,.299.299A.2988.2988,0,0,1,93.2956,95.1283Z"/><path class="cls-5" d="M90.6267,95.1283a.2991.2991,0,1,1,.2991.299A.2988.2988,0,0,1,90.6267,95.1283Z"/><path class="cls-5" d="M84.6184,95.1283a.2991.2991,0,1,1,.299.299A.2987.2987,0,0,1,84.6184,95.1283Z"/><path class="cls-8" d="M91.9793,95.1283a.2991.2991,0,1,1,.299.299A.2987.2987,0,0,1,91.9793,95.1283Z"/><path class="cls-8" d="M88.2161,95.1283a.2991.2991,0,1,1,.2991.299A.2988.2988,0,0,1,88.2161,95.1283Z"/><path class="cls-6" d="M85.2142,96.4061a.2991.2991,0,1,1-.2991-.2991A.2987.2987,0,0,1,85.2142,96.4061Z"/><circle class="cls-6" cx="86.2315" cy="96.4061" r="0.2968"/><circle class="cls-6" cx="87.5478" cy="96.4061" r="0.2991"/><path class="cls-6" d="M89.1586,96.4061a.2991.2991,0,1,1-.2991-.2991A.2987.2987,0,0,1,89.1586,96.4061Z"/><circle class="cls-6" cx="99.0502" cy="96.4061" r="0.2968"/><circle class="cls-6" cx="100.3914" cy="96.4061" r="0.2968"/><path class="cls-6" d="M90.4749,96.4061a.2991.2991,0,1,1-.299-.2991A.2987.2987,0,0,1,90.4749,96.4061Z"/><path class="cls-6" d="M96.9319,96.4061a.2991.2991,0,1,1-.2991-.2991A.2987.2987,0,0,1,96.9319,96.4061Z"/><circle class="cls-5" cx="91.4899" cy="96.4061" r="0.2968"/><path class="cls-5" d="M93.103,96.4061a.2991.2991,0,1,1-.2991-.2991A.2987.2987,0,0,1,93.103,96.4061Z"/><path class="cls-5" d="M95.7719,96.4061a.2991.2991,0,1,1-.2991-.2991A.2987.2987,0,0,1,95.7719,96.4061Z"/><path class="cls-5" d="M101.78,96.4061a.2979.2979,0,1,1-.2968-.2991A.2982.2982,0,0,1,101.78,96.4061Z"/><path class="cls-8" d="M94.4193,96.4061a.2991.2991,0,1,1-.299-.2991A.2987.2987,0,0,1,94.4193,96.4061Z"/><circle class="cls-8" cx="97.8857" cy="96.4061" r="0.2968"/><rect class="cls-7" x="76.7953" y="99.9381" width="26.3783" height="6.5453"/><path class="cls-6" d="M85.1508,101.703a.2991.2991,0,1,1-.2991-.299A.2988.2988,0,0,1,85.1508,101.703Z"/><path class="cls-6" d="M86.4648,101.703a.2979.2979,0,1,1-.2968-.299A.2983.2983,0,0,1,86.4648,101.703Z"/><path class="cls-6" d="M87.7789,101.703a.2991.2991,0,1,1-.2991-.299A.2988.2988,0,0,1,87.7789,101.703Z"/><path class="cls-6" d="M89.0952,101.703a.2991.2991,0,1,1-.2991-.299A.2988.2988,0,0,1,89.0952,101.703Z"/><path class="cls-6" d="M99.2835,101.703a.2991.2991,0,1,1-.299-.299A.2987.2987,0,0,1,99.2835,101.703Z"/><path class="cls-6" d="M100.6225,101.703a.2991.2991,0,1,1-.299-.299A.2988.2988,0,0,1,100.6225,101.703Z"/><path class="cls-6" d="M90.4092,101.703a.2991.2991,0,1,1-.299-.299A.2988.2988,0,0,1,90.4092,101.703Z"/><path class="cls-6" d="M96.8662,101.703a.298.298,0,1,1-.2991-.299A.2988.2988,0,0,1,96.8662,101.703Z"/><path class="cls-5" d="M91.7233,101.703a.2991.2991,0,1,1-.2991-.299A.2988.2988,0,0,1,91.7233,101.703Z"/><path class="cls-5" d="M93.0373,101.703a.2991.2991,0,1,1-.2991-.299A.2988.2988,0,0,1,93.0373,101.703Z"/><path class="cls-5" d="M95.7062,101.703a.2991.2991,0,1,1-.2991-.299A.2988.2988,0,0,1,95.7062,101.703Z"/><path class="cls-5" d="M101.7145,101.703a.2991.2991,0,1,1-.299-.299A.2987.2987,0,0,1,101.7145,101.703Z"/><path class="cls-8" d="M94.3536,101.703a.2991.2991,0,1,1-.299-.299A.2988.2988,0,0,1,94.3536,101.703Z"/><path class="cls-8" d="M98.1168,101.703a.2991.2991,0,1,1-.2991-.299A.2988.2988,0,0,1,98.1168,101.703Z"/><path class="cls-6" d="M101.1187,103.1394a.2991.2991,0,1,1,.299.2991A.2987.2987,0,0,1,101.1187,103.1394Z"/><circle class="cls-6" cx="100.1014" cy="103.1394" r="0.2991"/><path class="cls-6" d="M98.4883,103.1394a.2991.2991,0,1,1,.2991.2991A.2987.2987,0,0,1,98.4883,103.1394Z"/><path class="cls-6" d="M97.1743,103.1394a.2991.2991,0,1,1,.299.2991A.2987.2987,0,0,1,97.1743,103.1394Z"/><path class="cls-6" d="M86.9859,103.1394a.2991.2991,0,1,1,.2991.2991A.2987.2987,0,0,1,86.9859,103.1394Z"/><path class="cls-6" d="M85.6447,103.1394a.2991.2991,0,1,1,.299.2991A.2987.2987,0,0,1,85.6447,103.1394Z"/><circle class="cls-6" cx="96.157" cy="103.1394" r="0.2991"/><path class="cls-6" d="M89.4033,103.1394a.2991.2991,0,1,1,.2991.2991A.2987.2987,0,0,1,89.4033,103.1394Z"/><path class="cls-5" d="M94.5439,103.1394a.2991.2991,0,1,1,.2991.2991A.2987.2987,0,0,1,94.5439,103.1394Z"/><path class="cls-5" d="M93.23,103.1394a.2991.2991,0,1,1,.299.2991A.2987.2987,0,0,1,93.23,103.1394Z"/><circle class="cls-5" cx="90.8601" cy="103.1394" r="0.2991"/><path class="cls-5" d="M84.5549,103.1394a.2991.2991,0,1,1,.2991.2991A.2987.2987,0,0,1,84.5549,103.1394Z"/><path class="cls-8" d="M91.9136,103.1394a.2991.2991,0,1,1,.299.2991A.2987.2987,0,0,1,91.9136,103.1394Z"/><path class="cls-8" d="M88.15,103.1394a.2991.2991,0,1,1,.2991.2991A.2987.2987,0,0,1,88.15,103.1394Z"/><path class="cls-6" d="M85.1508,104.4172a.2991.2991,0,1,1-.2991-.299A.2988.2988,0,0,1,85.1508,104.4172Z"/><path class="cls-6" d="M86.4648,104.4172a.2979.2979,0,1,1-.2968-.299A.2983.2983,0,0,1,86.4648,104.4172Z"/><path class="cls-6" d="M87.7789,104.4172a.2991.2991,0,1,1-.2991-.299A.2988.2988,0,0,1,87.7789,104.4172Z"/><path class="cls-6" d="M89.0952,104.4172a.2991.2991,0,1,1-.2991-.299A.2988.2988,0,0,1,89.0952,104.4172Z"/><path class="cls-6" d="M99.2835,104.4172a.2991.2991,0,1,1-.299-.299A.2987.2987,0,0,1,99.2835,104.4172Z"/><path class="cls-6" d="M100.6225,104.4172a.2991.2991,0,1,1-.299-.299A.2988.2988,0,0,1,100.6225,104.4172Z"/><path class="cls-6" d="M90.4092,104.4172a.2991.2991,0,1,1-.299-.299A.2988.2988,0,0,1,90.4092,104.4172Z"/><path class="cls-6" d="M96.8662,104.4172a.298.298,0,1,1-.2991-.299A.2988.2988,0,0,1,96.8662,104.4172Z"/><path class="cls-5" d="M91.7233,104.4172a.2991.2991,0,1,1-.2991-.299A.2988.2988,0,0,1,91.7233,104.4172Z"/><path class="cls-5" d="M93.0373,104.4172a.2991.2991,0,1,1-.2991-.299A.2988.2988,0,0,1,93.0373,104.4172Z"/><path class="cls-5" d="M95.7062,104.4172a.2991.2991,0,1,1-.2991-.299A.2988.2988,0,0,1,95.7062,104.4172Z"/><path class="cls-5" d="M101.7145,104.4172a.2991.2991,0,1,1-.299-.299A.2987.2987,0,0,1,101.7145,104.4172Z"/><path class="cls-8" d="M94.3536,104.4172a.2991.2991,0,1,1-.299-.299A.2988.2988,0,0,1,94.3536,104.4172Z"/><path class="cls-8" d="M98.1168,104.4172a.2991.2991,0,1,1-.2991-.299A.2988.2988,0,0,1,98.1168,104.4172Z"/><rect class="cls-6" x="77.9666" y="101.2862" width="5.1927" height="0.7998"/><rect class="cls-6" x="77.9666" y="102.6614" width="5.1927" height="0.7998"/><rect class="cls-6" x="77.9666" y="104.0819" width="5.1927" height="0.7998"/><rect class="cls-7" x="76.7953" y="108.015" width="26.3783" height="6.5453"/><rect class="cls-6" x="77.9666" y="109.363" width="5.1927" height="0.7998"/><rect class="cls-6" x="77.9666" y="110.736" width="5.1927" height="0.7998"/><rect class="cls-6" x="77.9666" y="112.1588" width="5.1927" height="0.7998"/><path class="cls-6" d="M85.0534,109.78a.2991.2991,0,1,1-.2991-.2991A.2987.2987,0,0,1,85.0534,109.78Z"/><path class="cls-6" d="M86.37,109.78a.2991.2991,0,1,1-.2991-.2991A.2987.2987,0,0,1,86.37,109.78Z"/><path class="cls-6" d="M87.6837,109.78a.2991.2991,0,1,1-.2991-.2991A.2987.2987,0,0,1,87.6837,109.78Z"/><path class="cls-6" d="M88.9978,109.78a.2991.2991,0,1,1-.2991-.2991A.2987.2987,0,0,1,88.9978,109.78Z"/><path class="cls-6" d="M99.1861,109.78a.2991.2991,0,1,1-.299-.2991A.2987.2987,0,0,1,99.1861,109.78Z"/><path class="cls-6" d="M100.5274,109.78a.2991.2991,0,1,1-.2991-.2991A.2987.2987,0,0,1,100.5274,109.78Z"/><path class="cls-6" d="M90.3141,109.78a.2991.2991,0,1,1-.2991-.2991A.2987.2987,0,0,1,90.3141,109.78Z"/><path class="cls-6" d="M96.771,109.78a.2979.2979,0,1,1-.2968-.2991A.2983.2983,0,0,1,96.771,109.78Z"/><path class="cls-5" d="M91.6281,109.78a.2991.2991,0,1,1-.2991-.2991A.2987.2987,0,0,1,91.6281,109.78Z"/><path class="cls-5" d="M92.9422,109.78a.298.298,0,1,1-.2968-.2991A.2983.2983,0,0,1,92.9422,109.78Z"/><path class="cls-5" d="M95.611,109.78a.2991.2991,0,1,1-.299-.2991A.2987.2987,0,0,1,95.611,109.78Z"/><path class="cls-5" d="M101.6194,109.78a.2991.2991,0,1,1-.2991-.2991A.2987.2987,0,0,1,101.6194,109.78Z"/><path class="cls-8" d="M94.2585,109.78a.298.298,0,1,1-.2991-.2991A.2987.2987,0,0,1,94.2585,109.78Z"/><path class="cls-8" d="M98.0216,109.78a.2991.2991,0,1,1-.299-.2991A.2987.2987,0,0,1,98.0216,109.78Z"/><path class="cls-6" d="M101.0235,111.2163a.2991.2991,0,1,1,.2991.299A.2988.2988,0,0,1,101.0235,111.2163Z"/><path class="cls-6" d="M99.7072,111.2163a.2991.2991,0,1,1,.2991.299A.2988.2988,0,0,1,99.7072,111.2163Z"/><path class="cls-6" d="M98.3932,111.2163a.2991.2991,0,1,1,.299.299A.2987.2987,0,0,1,98.3932,111.2163Z"/><path class="cls-6" d="M97.0791,111.2163a.2991.2991,0,1,1,.2991.299A.2988.2988,0,0,1,97.0791,111.2163Z"/><path class="cls-6" d="M86.8907,111.2163a.2991.2991,0,1,1,.2991.299A.2988.2988,0,0,1,86.8907,111.2163Z"/><path class="cls-6" d="M85.55,111.2163a.2991.2991,0,1,1,.2991.299A.2988.2988,0,0,1,85.55,111.2163Z"/><path class="cls-6" d="M95.7628,111.2163a.2991.2991,0,1,1,.2991.299A.2988.2988,0,0,1,95.7628,111.2163Z"/><path class="cls-6" d="M89.3059,111.2163a.2991.2991,0,1,1,.299.299A.2987.2987,0,0,1,89.3059,111.2163Z"/><path class="cls-5" d="M94.4488,111.2163a.2991.2991,0,1,1,.299.299A.2987.2987,0,0,1,94.4488,111.2163Z"/><path class="cls-5" d="M93.1347,111.2163a.2991.2991,0,1,1,.2991.299A.2988.2988,0,0,1,93.1347,111.2163Z"/><path class="cls-5" d="M90.4659,111.2163a.2991.2991,0,1,1,.299.299A.2987.2987,0,0,1,90.4659,111.2163Z"/><path class="cls-5" d="M84.4575,111.2163a.2991.2991,0,1,1,.2991.299A.2988.2988,0,0,1,84.4575,111.2163Z"/><path class="cls-8" d="M91.8184,111.2163a.298.298,0,1,1,.2991.299A.2988.2988,0,0,1,91.8184,111.2163Z"/><path class="cls-8" d="M88.0553,111.2163a.2991.2991,0,1,1,.299.299A.2987.2987,0,0,1,88.0553,111.2163Z"/><path class="cls-6" d="M85.0534,112.4941a.2991.2991,0,1,1-.2991-.2991A.2987.2987,0,0,1,85.0534,112.4941Z"/><path class="cls-6" d="M86.37,112.4941a.2991.2991,0,1,1-.2991-.2991A.2987.2987,0,0,1,86.37,112.4941Z"/><path class="cls-6" d="M87.6837,112.4941a.2991.2991,0,1,1-.2991-.2991A.2987.2987,0,0,1,87.6837,112.4941Z"/><path class="cls-6" d="M88.9978,112.4941a.2991.2991,0,1,1-.2991-.2991A.2987.2987,0,0,1,88.9978,112.4941Z"/><path class="cls-6" d="M99.1861,112.4941a.2991.2991,0,1,1-.299-.2991A.2987.2987,0,0,1,99.1861,112.4941Z"/><path class="cls-6" d="M100.5274,112.4941a.2991.2991,0,1,1-.2991-.2991A.2987.2987,0,0,1,100.5274,112.4941Z"/><path class="cls-6" d="M90.3141,112.4941a.2991.2991,0,1,1-.2991-.2991A.2987.2987,0,0,1,90.3141,112.4941Z"/><path class="cls-6" d="M96.771,112.4941a.2979.2979,0,1,1-.2968-.2991A.2983.2983,0,0,1,96.771,112.4941Z"/><path class="cls-5" d="M91.6281,112.4941a.2991.2991,0,1,1-.2991-.2991A.2987.2987,0,0,1,91.6281,112.4941Z"/><path class="cls-5" d="M92.9422,112.4941a.298.298,0,1,1-.2968-.2991A.2983.2983,0,0,1,92.9422,112.4941Z"/><path class="cls-5" d="M95.611,112.4941a.2991.2991,0,1,1-.299-.2991A.2987.2987,0,0,1,95.611,112.4941Z"/><path class="cls-5" d="M101.6194,112.4941a.2991.2991,0,1,1-.2991-.2991A.2987.2987,0,0,1,101.6194,112.4941Z"/><path class="cls-8" d="M94.2585,112.4941a.298.298,0,1,1-.2991-.2991A.2987.2987,0,0,1,94.2585,112.4941Z"/><path class="cls-8" d="M98.0216,112.4941a.2991.2991,0,1,1-.299-.2991A.2987.2987,0,0,1,98.0216,112.4941Z"/><polygon class="cls-6" points="107.141 98.395 103.174 98.407 103.174 91.861 107.141 91.852 107.141 98.395"/><polygon class="cls-6" points="107.141 106.42 103.174 106.431 103.174 99.886 107.141 99.877 107.141 106.42"/><polygon class="cls-6" points="107.141 114.549 103.174 114.558 103.174 108.015 107.141 108.004 107.141 114.549"/><rect class="cls-6" x="78.1591" y="87.9894" width="5.1927" height="0.7998"/><polygon class="cls-6" points="107.141 90.439 103.174 90.45 103.174 83.855 107.141 83.843 107.141 90.439"/><rect class="cls-7" x="76.9878" y="83.8434" width="26.3783" height="6.5453"/><rect class="cls-6" x="78.1591" y="85.1914" width="5.1927" height="0.7998"/><rect class="cls-6" x="78.1591" y="86.5666" width="5.1927" height="0.7998"/><path class="cls-6" d="M85.4068,85.674a.2991.2991,0,1,1-.2991-.2991A.2987.2987,0,0,1,85.4068,85.674Z"/><path class="cls-6" d="M86.7208,85.674a.2991.2991,0,1,1-.299-.2991A.2987.2987,0,0,1,86.7208,85.674Z"/><path class="cls-6" d="M88.0349,85.674a.2991.2991,0,1,1-.2991-.2991A.2987.2987,0,0,1,88.0349,85.674Z"/><path class="cls-6" d="M89.3512,85.674a.2991.2991,0,1,1-.2991-.2991A.2987.2987,0,0,1,89.3512,85.674Z"/><path class="cls-6" d="M99.54,85.674a.2991.2991,0,1,1-.2991-.2991A.2987.2987,0,0,1,99.54,85.674Z"/><path class="cls-6" d="M100.8785,85.674a.2991.2991,0,1,1-.299-.2991A.2987.2987,0,0,1,100.8785,85.674Z"/><path class="cls-6" d="M90.6652,85.674a.2991.2991,0,1,1-.299-.2991A.2987.2987,0,0,1,90.6652,85.674Z"/><path class="cls-6" d="M97.1222,85.674a.2991.2991,0,1,1-.2991-.2991A.2987.2987,0,0,1,97.1222,85.674Z"/><path class="cls-5" d="M91.9793,85.674a.2991.2991,0,1,1-.2991-.2991A.2987.2987,0,0,1,91.9793,85.674Z"/><path class="cls-5" d="M93.2956,85.674a.2991.2991,0,1,1-.2991-.2991A.2987.2987,0,0,1,93.2956,85.674Z"/><path class="cls-5" d="M95.9622,85.674a.2991.2991,0,1,1-.2991-.2991A.2987.2987,0,0,1,95.9622,85.674Z"/><path class="cls-5" d="M101.9705,85.674a.2979.2979,0,1,1-.299-.2991A.2987.2987,0,0,1,101.9705,85.674Z"/><path class="cls-8" d="M94.61,85.674a.2991.2991,0,1,1-.299-.2991A.2987.2987,0,0,1,94.61,85.674Z"/><path class="cls-8" d="M98.375,85.674a.2991.2991,0,1,1-.299-.2991A.2987.2987,0,0,1,98.375,85.674Z"/><path class="cls-6" d="M101.3747,87.11a.2979.2979,0,1,1,.2968.299A.2983.2983,0,0,1,101.3747,87.11Z"/><circle class="cls-6" cx="100.3574" cy="87.1104" r="0.2991"/><path class="cls-6" d="M98.7443,87.11a.2991.2991,0,1,1,.2991.299A.2988.2988,0,0,1,98.7443,87.11Z"/><path class="cls-6" d="M97.43,87.11a.2991.2991,0,1,1,.2991.299A.2988.2988,0,0,1,97.43,87.11Z"/><path class="cls-6" d="M87.2419,87.11a.2991.2991,0,1,1,.2991.299A.2988.2988,0,0,1,87.2419,87.11Z"/><path class="cls-6" d="M85.9007,87.11a.2991.2991,0,1,1,.299.299A.2988.2988,0,0,1,85.9007,87.11Z"/><path class="cls-6" d="M96.1162,87.11a.2991.2991,0,1,1,.2991.299A.2988.2988,0,0,1,96.1162,87.11Z"/><circle class="cls-6" cx="89.9561" cy="87.1104" r="0.2991"/><circle class="cls-5" cx="95.099" cy="87.1104" r="0.2991"/><circle class="cls-5" cx="93.7827" cy="87.1104" r="0.2991"/><path class="cls-5" d="M90.8193,87.11a.2991.2991,0,1,1,.2991.299A.2988.2988,0,0,1,90.8193,87.11Z"/><circle class="cls-5" cx="85.1077" cy="87.1104" r="0.2991"/><path class="cls-8" d="M92.1718,87.11a.2991.2991,0,1,1,.2991.299A.2988.2988,0,0,1,92.1718,87.11Z"/><path class="cls-8" d="M88.4064,87.11a.2991.2991,0,1,1,.2991.299A.2988.2988,0,0,1,88.4064,87.11Z"/><path class="cls-6" d="M85.4068,88.3881a.2991.2991,0,1,1-.2991-.299A.2988.2988,0,0,1,85.4068,88.3881Z"/><path class="cls-6" d="M86.7208,88.3881a.2991.2991,0,1,1-.299-.299A.2987.2987,0,0,1,86.7208,88.3881Z"/><path class="cls-6" d="M88.0349,88.3881a.2991.2991,0,1,1-.2991-.299A.2988.2988,0,0,1,88.0349,88.3881Z"/><path class="cls-6" d="M89.3512,88.3881a.2991.2991,0,1,1-.2991-.299A.2988.2988,0,0,1,89.3512,88.3881Z"/><path class="cls-6" d="M99.54,88.3881a.2991.2991,0,1,1-.2991-.299A.2988.2988,0,0,1,99.54,88.3881Z"/><path class="cls-6" d="M100.8785,88.3881a.2991.2991,0,1,1-.299-.299A.2987.2987,0,0,1,100.8785,88.3881Z"/><path class="cls-6" d="M90.6652,88.3881a.2991.2991,0,1,1-.299-.299A.2987.2987,0,0,1,90.6652,88.3881Z"/><path class="cls-6" d="M97.1222,88.3881a.2991.2991,0,1,1-.2991-.299A.2988.2988,0,0,1,97.1222,88.3881Z"/><path class="cls-5" d="M91.9793,88.3881a.2991.2991,0,1,1-.2991-.299A.2988.2988,0,0,1,91.9793,88.3881Z"/><path class="cls-5" d="M93.2956,88.3881a.2991.2991,0,1,1-.2991-.299A.2988.2988,0,0,1,93.2956,88.3881Z"/><path class="cls-5" d="M95.9622,88.3881a.2991.2991,0,1,1-.2991-.299A.2988.2988,0,0,1,95.9622,88.3881Z"/><path class="cls-5" d="M101.9705,88.3881a.2979.2979,0,1,1-.299-.299A.2987.2987,0,0,1,101.9705,88.3881Z"/><path class="cls-8" d="M94.61,88.3881a.2991.2991,0,1,1-.299-.299A.2987.2987,0,0,1,94.61,88.3881Z"/><path class="cls-8" d="M98.375,88.3881a.2991.2991,0,1,1-.299-.299A.2987.2987,0,0,1,98.375,88.3881Z"/><polygon class="cls-6" points="106.896 122.737 102.929 122.746 102.929 116.203 106.896 116.192 106.896 122.737"/><rect class="cls-7" x="76.7432" y="116.2029" width="26.3783" height="6.5453"/><rect class="cls-6" x="77.9145" y="117.5509" width="5.1927" height="0.7998"/><rect class="cls-6" x="77.9145" y="118.9261" width="5.1927" height="0.7998"/><path class="cls-6" d="M85.1621,118.0334a.2991.2991,0,1,1-.2991-.299A.2988.2988,0,0,1,85.1621,118.0334Z"/><path class="cls-6" d="M86.4761,118.0334a.2991.2991,0,1,1-.299-.299A.2987.2987,0,0,1,86.4761,118.0334Z"/><path class="cls-6" d="M87.79,118.0334a.2991.2991,0,1,1-.2991-.299A.2988.2988,0,0,1,87.79,118.0334Z"/><path class="cls-6" d="M89.1065,118.0334a.2991.2991,0,1,1-.2991-.299A.2988.2988,0,0,1,89.1065,118.0334Z"/><path class="cls-6" d="M99.2949,118.0334a.2991.2991,0,1,1-.2991-.299A.2988.2988,0,0,1,99.2949,118.0334Z"/><path class="cls-6" d="M100.6361,118.0334a.2991.2991,0,1,1-.2991-.299A.2988.2988,0,0,1,100.6361,118.0334Z"/><path class="cls-6" d="M90.4205,118.0334a.2991.2991,0,1,1-.299-.299A.2987.2987,0,0,1,90.4205,118.0334Z"/><path class="cls-6" d="M96.8775,118.0334a.2991.2991,0,1,1-.2991-.299A.2988.2988,0,0,1,96.8775,118.0334Z"/><path class="cls-5" d="M91.7346,118.0334a.2991.2991,0,1,1-.2991-.299A.2988.2988,0,0,1,91.7346,118.0334Z"/><path class="cls-5" d="M93.0509,118.0334a.2991.2991,0,1,1-.2991-.299A.2988.2988,0,0,1,93.0509,118.0334Z"/><path class="cls-5" d="M95.7175,118.0334a.2991.2991,0,1,1-.2991-.299A.2988.2988,0,0,1,95.7175,118.0334Z"/><path class="cls-5" d="M101.7259,118.0334a.2991.2991,0,1,1-.2991-.299A.2988.2988,0,0,1,101.7259,118.0334Z"/><path class="cls-8" d="M94.3649,118.0334a.2991.2991,0,1,1-.299-.299A.2987.2987,0,0,1,94.3649,118.0334Z"/><path class="cls-8" d="M98.13,118.0334a.2991.2991,0,1,1-.2991-.299A.2988.2988,0,0,1,98.13,118.0334Z"/><path class="cls-6" d="M101.13,119.47a.2991.2991,0,1,1,.2991.2991A.2987.2987,0,0,1,101.13,119.47Z"/><path class="cls-6" d="M99.816,119.47a.2991.2991,0,1,1,.299.2991A.2987.2987,0,0,1,99.816,119.47Z"/><path class="cls-6" d="M98.5,119.47a.2991.2991,0,1,1,.299.2991A.2987.2987,0,0,1,98.5,119.47Z"/><path class="cls-6" d="M97.1856,119.47a.298.298,0,1,1,.2968.2991A.2983.2983,0,0,1,97.1856,119.47Z"/><path class="cls-6" d="M86.9972,119.47a.2991.2991,0,1,1,.2991.2991A.2987.2987,0,0,1,86.9972,119.47Z"/><path class="cls-6" d="M85.656,119.47a.2991.2991,0,1,1,.2991.2991A.2987.2987,0,0,1,85.656,119.47Z"/><path class="cls-6" d="M95.8716,119.47a.2991.2991,0,1,1,.299.2991A.2987.2987,0,0,1,95.8716,119.47Z"/><path class="cls-6" d="M89.4146,119.47a.2991.2991,0,1,1,.2991.2991A.2987.2987,0,0,1,89.4146,119.47Z"/><path class="cls-5" d="M94.5553,119.47a.2991.2991,0,1,1,.299.2991A.2987.2987,0,0,1,94.5553,119.47Z"/><path class="cls-5" d="M93.2412,119.47a.298.298,0,1,1,.2991.2991A.2987.2987,0,0,1,93.2412,119.47Z"/><path class="cls-5" d="M90.5746,119.47a.2991.2991,0,1,1,.2991.2991A.2987.2987,0,0,1,90.5746,119.47Z"/><path class="cls-5" d="M84.5662,119.47a.2991.2991,0,1,1,.2991.2991A.2987.2987,0,0,1,84.5662,119.47Z"/><path class="cls-8" d="M91.9272,119.47a.2979.2979,0,1,1,.2968.2991A.3012.3012,0,0,1,91.9272,119.47Z"/><path class="cls-8" d="M88.1617,119.47a.298.298,0,1,1,.2968.2991A.3013.3013,0,0,1,88.1617,119.47Z"/><path class="cls-6" d="M85.1621,120.7454a.2991.2991,0,1,1-.2991-.2991A.2987.2987,0,0,1,85.1621,120.7454Z"/><path class="cls-6" d="M86.4761,120.7454a.2991.2991,0,1,1-.299-.2991A.2987.2987,0,0,1,86.4761,120.7454Z"/><circle class="cls-6" cx="87.4934" cy="120.7454" r="0.2991"/><path class="cls-6" d="M89.1065,120.7454a.2991.2991,0,1,1-.2991-.2991A.2987.2987,0,0,1,89.1065,120.7454Z"/><circle class="cls-6" cx="98.9958" cy="120.7454" r="0.2991"/><circle class="cls-6" cx="100.337" cy="120.7454" r="0.2991"/><path class="cls-6" d="M90.4205,120.7454a.2991.2991,0,1,1-.299-.2991A.2987.2987,0,0,1,90.4205,120.7454Z"/><path class="cls-6" d="M96.8775,120.7454a.2991.2991,0,1,1-.2991-.2991A.2987.2987,0,0,1,96.8775,120.7454Z"/><path class="cls-5" d="M91.7346,120.7454a.2991.2991,0,1,1-.2991-.2991A.2987.2987,0,0,1,91.7346,120.7454Z"/><circle class="cls-5" cx="92.7518" cy="120.7454" r="0.2991"/><path class="cls-5" d="M95.7175,120.7454a.2991.2991,0,1,1-.2991-.2991A.2987.2987,0,0,1,95.7175,120.7454Z"/><path class="cls-5" d="M101.7259,120.7454a.2991.2991,0,1,1-.2991-.2991A.2987.2987,0,0,1,101.7259,120.7454Z"/><path class="cls-8" d="M94.3649,120.7454a.2991.2991,0,1,1-.299-.2991A.2987.2987,0,0,1,94.3649,120.7454Z"/><circle class="cls-8" cx="97.8313" cy="120.7454" r="0.2991"/><path class="cls-6" d="M111.051,73.6573h-.2265v-.2742A3.4789,3.4789,0,0,1,114.3,69.9077h1.237v.2266H114.3a3.2517,3.2517,0,0,0-3.2489,3.2488Z"/><path class="cls-6" d="M111.051,86.5825h-.2265v-.2742A3.4789,3.4789,0,0,1,114.3,82.8329h1.237V83.06H114.3a3.2517,3.2517,0,0,0-3.2489,3.2488Z"/><path class="cls-6" d="M111.051,97.79h-.2265v-.2742A3.4789,3.4789,0,0,1,114.3,94.0408h1.237v.2266H114.3a3.2517,3.2517,0,0,0-3.2489,3.2488Z"/><path class="cls-6" d="M111.051,110.335h-.2265v-.2742a3.4789,3.4789,0,0,1,3.4754-3.4754h1.237v.2266H114.3a3.2517,3.2517,0,0,0-3.2489,3.2488Z"/><path class="cls-9" d="M73.7616,102.6886l.0839,4.3159s-4.3364,1.1736-4.3976,1.9711l8.351.5007.1473-6.7311Z"/><path class="cls-10" d="M76.44,106.6874a.3415.3415,0,0,1,.2288.3942.3285.3285,0,0,1-.39.2311.3627.3627,0,0,1-.2424-.4192.3372.3372,0,0,1,.43-.1948"/><path class="cls-10" d="M77.7967,109.4786l.0135-.6707-7.9159-.3217s-.4668.2492-.4668.51Z"/><path class="cls-6" d="M73.71,106.9615c0,.0408.2039.0634.4033.1971.2016.1291.3036.3081.3421.2923.0385-.0068-.0181-.2538-.2628-.4124C73.95,106.88,73.7005,106.923,73.71,106.9615Z"/><path class="cls-6" d="M72.8237,107.31c-.0091.0385.1654.111.3013.2877.1405.1722.1722.358.213.358.0385.0068.07-.2311-.102-.4463C73.0661,107.2923,72.8259,107.2719,72.8237,107.31Z"/><path class="cls-6" d="M72.3094,108.3526c.0362.009.0974-.1949-.0045-.4192-.1-.2265-.29-.3172-.3082-.2832-.0226.034.0975.1564.179.3421C72.26,108.1758,72.2686,108.348,72.3094,108.3526Z"/><path class="cls-6" d="M73.8,105.976c.0159.0385.2062-.0159.435.0045.2311.0158.41.0951.4328.0612.0249-.0295-.15-.1836-.4214-.2017C73.9746,105.8151,73.78,105.942,73.8,105.976Z"/><path class="cls-6" d="M73.7979,105.1037a.7923.7923,0,0,0,.4191.0045,1.878,1.878,0,0,0,.6842-.2514.51.51,0,0,0,.1292-.0975.1813.1813,0,0,0,.0226-.2175.2227.2227,0,0,0-.1767-.0974.6706.6706,0,0,0-.1586.0181,1.3787,1.3787,0,0,0-.2628.0861,1.5543,1.5543,0,0,0-.3919.247c-.1971.1767-.2651.3285-.2515.3376.0181.0135.1155-.1133.3149-.2583a1.5911,1.5911,0,0,1,.3784-.2039,1.5154,1.5154,0,0,1,.2424-.07c.0883-.0226.1654-.02.1858.0182.009.0158.009.02-.0091.0475a.43.43,0,0,1-.0952.07,1.83,1.83,0,0,1-.2243.1223,2.3393,2.3393,0,0,1-.4078.15A3.2245,3.2245,0,0,0,73.7979,105.1037Z"/><path class="cls-6" d="M73.85,105.1649a.6785.6785,0,0,0,.1178-.4033,1.3712,1.3712,0,0,0-.05-.46,1.5165,1.5165,0,0,0-.102-.256.3454.3454,0,0,0-.2651-.2153.1951.1951,0,0,0-.1767.1133.558.558,0,0,0-.0453.1541.9151.9151,0,0,0-.0045.2832.9475.9475,0,0,0,.1722.4372c.1608.22.3307.2719.333.2583.0136-.02-.1269-.1019-.2492-.3126a.9864.9864,0,0,1-.1269-.3965.8815.8815,0,0,1,.0113-.2424c.0136-.0884.05-.1609.0816-.15.0408,0,.111.068.145.1405a1.4306,1.4306,0,0,1,.1.2288,1.5376,1.5376,0,0,1,.0748.4192C73.8749,105.004,73.83,105.1581,73.85,105.1649Z"/><path class="cls-6" d="M99.0751,76.385,78.499,80.1233a6.0446,6.0446,0,0,0-4.8439,4.504q-.0374.1563-.0679.3194c-.6842,3.4822-.7137,19.398-.7137,19.398l5.5847-.0634,1.0082-17.9752,15.8478-2.1682a4.6816,4.6816,0,0,0,2.8592-1.4794C99.5078,81.1609,99.9247,79.1377,99.0751,76.385Z"/><path class="cls-9" d="M76.0929,94.2492l.3806,4.3s-4.2457,1.4681-4.2525,2.27l8.3669-.0748L80.2707,94.02Z"/><path class="cls-10" d="M79.0405,98.0532a.3435.3435,0,0,1,.256.3783.33.33,0,0,1-.3716.2583.3607.3607,0,0,1-.27-.401.3407.3407,0,0,1,.4169-.2243"/><path class="cls-10" d="M80.5856,100.747l-.0317-.6706-7.9183.222s-.4191.3375-.4146.5211Z"/><path class="cls-6" d="M76.3353,98.5154c.0046.0407.2085.0475.4169.17.2107.1155.324.2877.36.27.0363-.0091-.0362-.2515-.29-.392C76.5687,98.4157,76.324,98.4791,76.3353,98.5154Z"/><path class="cls-6" d="M75.4767,98.9232c-.0068.0407.1722.1.3217.265.1518.1609.1971.3467.2379.3421.0385.0046.0544-.2356-.1337-.4395C75.7168,98.8892,75.4744,98.8846,75.4767,98.9232Z"/><path class="cls-6" d="M75.0326,99.9993c.0385.0068.0839-.1994-.0317-.4191s-.3126-.2968-.3285-.2628c-.02.034.1087.1472.2016.3285C74.9715,99.8271,74.9918,99.9971,75.0326,99.9993Z"/><path class="cls-6" d="M76.3557,97.5253c.0182.0362.2039-.0295.435-.0272.2311,0,.4146.068.435.0317.0227-.0317-.1608-.1722-.435-.1722C76.5189,97.3554,76.3353,97.4936,76.3557,97.5253Z"/><path class="cls-6" d="M76.2968,96.6576a.7943.7943,0,0,0,.4192-.025,1.8715,1.8715,0,0,0,.43-.1585,1.8223,1.8223,0,0,0,.2334-.1405.6035.6035,0,0,0,.1223-.1042.1758.1758,0,0,0,.0068-.2175.2224.2224,0,0,0-.1835-.0838.5964.5964,0,0,0-.1563.0294,1.6222,1.6222,0,0,0-.256.102,1.4764,1.4764,0,0,0-.3739.2741c-.1857.19-.2424.3466-.2288.3534.0181.0136.1065-.12.2968-.2786a1.7876,1.7876,0,0,1,.3625-.2311,1.44,1.44,0,0,1,.2356-.0861c.0884-.0272.1632-.0317.1881.0068.009.0136.0113.02-.0068.0475a.4429.4429,0,0,1-.0884.0771,2.2942,2.2942,0,0,1-.2152.1382,2.5031,2.5031,0,0,1-.3965.1767A2.4486,2.4486,0,0,0,76.2968,96.6576Z"/><path class="cls-6" d="M76.3512,96.7119a.6558.6558,0,0,0,.0884-.41,1.365,1.365,0,0,0-.2017-.7046.3459.3459,0,0,0-.2786-.1971.2014.2014,0,0,0-.17.1268.542.542,0,0,0-.0339.1564.8985.8985,0,0,0,.0136.2832.96.96,0,0,0,.2016.4236c.1744.2085.3489.2492.3512.2334.0135-.02-.1337-.0929-.27-.2945a.959.959,0,0,1-.154-.3875.8624.8624,0,0,1-.0045-.2424c.009-.0906.0385-.1631.0725-.1563.0407-.0023.1155.0612.154.1291a1.2236,1.2236,0,0,1,.1156.2221,1.4517,1.4517,0,0,1,.1019.4146C76.3648,96.5511,76.3308,96.7074,76.3512,96.7119Z"/><path class="cls-6" d="M98.7262,76.48,79.5751,72.2571a3.97,3.97,0,0,0-1.8691-.179h0a3.9964,3.9964,0,0,0-3.4006,4.4655l.2718,18.9993,6.7357-.44-.2583-15.4423Z"/><path class="cls-7" d="M74.3462,79.3892a.37.37,0,0,1,.0068.0793c.0022.0589.0045.1359.009.2356.0045.213.0136.5188.0227.9131.0158.8.0385,1.9552.0657,3.3938.0475,2.8909.111,6.9282.1857,11.5319l-.0611-.0566c1.2823-.068,2.6122-.136,3.9738-.2085.981-.05,1.9439-.1,2.8615-.1472l-.0544.0589c-.1223-4.8847-.2288-9.1983-.3059-12.3-.0339-1.5429-.0611-2.7845-.0793-3.6454-.0067-.4237-.0113-.7522-.0158-.9833,0-.1087,0-.1925-.0023-.2537,0-.0566.0023-.0861.0023-.0861a.4254.4254,0,0,1,.0068.0861c.0022.0612.0068.1473.0113.2537.0091.2289.02.56.0363.981.0271.861.0657,2.1.1132,3.6431.0861,3.0994.2085,7.413.3444,12.2977l.0023.0566-.0567.0023c-.9175.0476-1.88.0974-2.8614.1495-1.3616.07-2.6915.1382-3.9739.2062l-.0611.0022v-.0611c-.0589-4.6037-.1088-8.641-.145-11.5319-.0136-1.4387-.025-2.5941-.0317-3.3939-.0023-.3919-.0023-.6978-.0023-.913,0-.1.0023-.179.0023-.2356Z"/><path class="cls-7" d="M81.0161,79.4572c-.0068-.0317,1.6-.4056,3.5887-.836s3.6068-.7522,3.6136-.7205-1.6.4056-3.5887.836C82.6428,79.1672,81.0251,79.4889,81.0161,79.4572Z"/><path class="cls-7" d="M81.8951,77.6266a.6167.6167,0,0,1,.0612.3172,1.7532,1.7532,0,0,1-.6434,1.3842c-.1586.1246-.2764.17-.2832.1564a2.8929,2.8929,0,0,0,.657-.8247A2.8452,2.8452,0,0,0,81.8951,77.6266Z"/><path class="cls-11" d="M95.1919,56.4705l-4.3432-.3467c-.0271-.5075.0091-2.47.0091-2.47a2.17,2.17,0,0,1-1.8306-2.0889c-.0227-1.8079.29-5.9562.29-5.9562h0a6.2777,6.2777,0,0,1,6.31.793l.2673.2061Z"/><path class="cls-12" d="M90.8533,53.6294a4.2083,4.2083,0,0,0,2.3562-.6683,2.227,2.227,0,0,1-2.3608,1.1373Z"/><path class="cls-11" d="M95.6722,48.482c.0317-.0136,1.2415-.3671,1.203.8677a.9307.9307,0,0,1-1.2732.9062C95.602,50.22,95.6722,48.482,95.6722,48.482Z"/><path class="cls-12" d="M95.9939,49.8005c.0045-.0045.02.0159.0566.034a.2185.2185,0,0,0,.1609.0091.5279.5279,0,0,0,.2605-.469.7217.7217,0,0,0-.05-.31.2468.2468,0,0,0-.1563-.17.1085.1085,0,0,0-.1292.0544c-.0181.034-.0113.0589-.0181.0612-.0045.0022-.0249-.0227-.0136-.0725a.13.13,0,0,1,.0521-.0748.1623.1623,0,0,1,.12-.0272.302.302,0,0,1,.22.1994.7466.7466,0,0,1,.0634.3466.56.56,0,0,1-.3308.5234.2287.2287,0,0,1-.1948-.0386C95.9962,49.83,95.9916,49.8005,95.9939,49.8005Z"/><path class="cls-6" d="M90.0716,48.4117a.2581.2581,0,0,0,.2493.2606.2466.2466,0,0,0,.265-.2334.258.258,0,0,0-.2492-.26A.248.248,0,0,0,90.0716,48.4117Z"/><path class="cls-6" d="M89.6593,48.1535c.0317.0339.2266-.1111.5052-.1111.2764-.0022.48.14.5121.1065.0158-.0158-.0182-.0747-.1065-.14a.7214.7214,0,0,0-.41-.1269.6786.6786,0,0,0-.401.1291C89.6729,48.0764,89.6434,48.1376,89.6593,48.1535Z"/><path class="cls-6" d="M92.8379,48.5092a.2581.2581,0,0,0,.2492.2605.2466.2466,0,0,0,.2651-.2334.258.258,0,0,0-.2492-.2605A.2451.2451,0,0,0,92.8379,48.5092Z"/><path class="cls-6" d="M92.3893,48.2056c.0318.034.2289-.111.5053-.111.2764-.0023.48.14.512.1064.0159-.0158-.0181-.0747-.1065-.14a.7208.7208,0,0,0-.41-.1269.6791.6791,0,0,0-.401.1291C92.4029,48.1285,92.3735,48.19,92.3893,48.2056Z"/><path class="cls-6" d="M91.3812,50.265a1.8546,1.8546,0,0,0-.4509-.0816c-.07-.0068-.1382-.02-.15-.07a.3733.3733,0,0,1,.0476-.2107c.0657-.1722.1359-.3512.2106-.5392a9.0581,9.0581,0,0,0,.4713-1.4115,9.3181,9.3181,0,0,0-.5845,1.3707c-.07.19-.1382.3693-.2017.5438a.4091.4091,0,0,0-.0362.2786.181.181,0,0,0,.1155.1042.5021.5021,0,0,0,.12.0159A2.0223,2.0223,0,0,0,91.3812,50.265Z"/><path class="cls-6" d="M92.199,50.4553c-.0453-.0023-.0453.2991-.3036.512-.2582.2153-.5777.1813-.5822.2221-.0045.0181.0725.0589.2062.0611a.7482.7482,0,0,0,.4848-.17.6627.6627,0,0,0,.2356-.43C92.2534,50.5278,92.2194,50.4553,92.199,50.4553Z"/><path class="cls-6" d="M92.3168,47.1158c.0272.0748.3036.0408.63.0793.3262.0317.589.1292.6321.0612.02-.0317-.0272-.1042-.1337-.1767a1.1047,1.1047,0,0,0-.9629-.1042C92.3667,47.0207,92.3055,47.08,92.3168,47.1158Z"/><path class="cls-6" d="M89.7613,47.3492c.05.0634.24-.0023.4712-.0046.2288-.0113.4259.0431.469-.0226.02-.0317-.0114-.0952-.0952-.1541a.6578.6578,0,0,0-.3829-.1042.6451.6451,0,0,0-.3761.1269C89.7681,47.254,89.7409,47.3175,89.7613,47.3492Z"/><path class="cls-6" d="M88.4381,44.47a.6614.6614,0,0,1,.247-.5958.4766.4766,0,0,1,.614.0453.5532.5532,0,0,1,.4735-.6706c.2945-.0182.546.2039.8315.2809a1.3264,1.3264,0,0,0,.8428-.0974c.2673-.1088.5165-.256.7884-.3557A2.3091,2.3091,0,0,1,95.19,44.4334a1.0261,1.0261,0,0,1,1.0875.4123,1.6941,1.6941,0,0,1,.2583,1.1849,3.7374,3.7374,0,0,1-.2062.8111c0,.0226.0023.0453.0023.07-.0182.9946-.1314,2.1614-.5551,2.1659-.7386.0114-.5619-1.38-.5619-1.38-.9062-.3512-.5686-1.7083-.7952-1.9144s-.7-.6843-2.5986.2854a3.6915,3.6915,0,0,1-2.252.2447c-.0159-.0023-.0317-.0068-.0476-.0091l-.0113-.0022-.0159-.0068a1.7693,1.7693,0,0,1-.4871-.2062.9565.9565,0,0,1-.401-.4463.528.528,0,0,1,.1042-.5664A1.1263,1.1263,0,0,1,88.4381,44.47Z"/><path class="cls-9" d="M103.6992,69.2937a2.4653,2.4653,0,0,1-1.2574,2.8275c-.0068.0022-.0113.0068-.0181.009a3.1842,3.1842,0,0,1-2.5443-.0385l-.6208-.2809.2085,5.2154c-3.07,2.0028-11.5455.4916-13.2085-3.05-.0113-.9153-.3738-8.2422-.3738-8.2422l-.1586-8.1426A5.8918,5.8918,0,0,1,89.9538,55.51c.3285-.0385.5891-.0634.7771-.0861a7.69,7.69,0,0,0,4.6309-.0022h0a12.0947,12.0947,0,0,1,1.9167.367,4.8026,4.8026,0,0,1,3.6816,3.054c.3149,1.0626,2.3426,8.931,2.3426,8.931Z"/><path class="cls-9" d="M87.797,56.0309a5,5,0,0,0-2.7187,2.4945A55.53,55.53,0,0,0,83.7824,65.51l-.972,1.8759a3.1648,3.1648,0,0,0-.3557,1.4545v.2855a3.17,3.17,0,0,0,.7091,1.996h0a3.1745,3.1745,0,0,0,2.1727,1.1554c.97.0861,2.1456.1246,2.3948-.1609a12.1606,12.1606,0,0,0,1.1056-1.8645l-2.83-1.5044,1.2189-2.2565Z"/><path class="cls-6" d="M98.2029,67.2411c.0339,0,.0611-1.2121.0611-2.7051,0-1.4953-.0272-2.7051-.0611-2.7051s-.0612,1.212-.0612,2.7051S98.1689,67.2411,98.2029,67.2411Z"/><path class="cls-6" d="M87.149,65.193a9.8111,9.8111,0,0,0,.0612-1.5474,9.8111,9.8111,0,0,0-.0612-1.5474,9.8189,9.8189,0,0,0-.0611,1.5474A9.8189,9.8189,0,0,0,87.149,65.193Z"/><path class="cls-9" d="M99.4535,76.6456c.2243-.0385.3489.299.2288.4916a1.119,1.119,0,0,1-.5732.3534,20.2928,20.2928,0,0,0-2.0051,1.1985,8.0825,8.0825,0,0,1-4.8665.5823,9.1564,9.1564,0,0,1-2.7277-.6842,4.175,4.175,0,0,1-2.0436-1.8714,10.5848,10.5848,0,0,0-.6412-1.4115c-.1948-.2809-.4576-.5074-.6615-.7793a1.1457,1.1457,0,0,1-.2606-.9538.5779.5779,0,0,1,.793-.3875"/><g class="cls-13"><path d="M93.57,78.44a5.2251,5.2251,0,0,1-2.9838-1.43,10.0385,10.0385,0,0,1-1.9778-2.7073c-.0725-.136-.2289-.2946-.3489-.1994a.2363.2363,0,0,0-.0725.1314,2.6619,2.6619,0,0,0,.5414,2.3721,4.3652,4.3652,0,0,0,2.098,1.35,12.457,12.457,0,0,0,2.4876.4463"/></g><path class="cls-3" d="M100.2306,57.6372c.0022,0-.0023.0136-.0136.0386a1.1266,1.1266,0,0,1-.0521.1042,1.3956,1.3956,0,0,1-.2923.3421,1.8091,1.8091,0,0,1-.6276.3353,2.3347,2.3347,0,0,1-.94.068,4.6126,4.6126,0,0,1-1.1033-.29c-.3829-.14-.7817-.3195-1.2121-.46a4.9756,4.9756,0,0,0-2.9-.043,7.7791,7.7791,0,0,0-1.4024.6072,4.2883,4.2883,0,0,1-1.3639.4871,2.8188,2.8188,0,0,1-1.3-.1654,8.3845,8.3845,0,0,1-1.0354-.4713,9.1556,9.1556,0,0,0-1.484-.6774c-.3693-.111-.5845-.1223-.5822-.1382a.8125.8125,0,0,1,.1563.0091,2.7241,2.7241,0,0,1,.44.0838,8.11,8.11,0,0,1,1.5089.648,8.2418,8.2418,0,0,0,1.0286.4531,2.7077,2.7077,0,0,0,1.2551.15,4.3076,4.3076,0,0,0,1.3254-.4826,7.6773,7.6773,0,0,1,1.4205-.6185,5.043,5.043,0,0,1,2.9657.0522c.4395.1449.836.3262,1.2143.4712a4.7457,4.7457,0,0,0,1.0785.2968,2.2912,2.2912,0,0,0,.9107-.0476,1.8311,1.8311,0,0,0,.6185-.3058A1.6677,1.6677,0,0,0,100.2306,57.6372Z"/><path class="cls-3" d="M98.085,63.163c.0023.0136-.1585.0249-.4395.0838a10.9949,10.9949,0,0,0-1.1713.3286,9.1674,9.1674,0,0,1-1.76.4531,3.2517,3.2517,0,0,1-1.0806-.0544,4.3317,4.3317,0,0,1-1.0739-.4418,10.3217,10.3217,0,0,0-1.9552-1.0082,4.1876,4.1876,0,0,0-1.774-.0906,9.4018,9.4018,0,0,0-1.1872.2583q-.19.0543-.3194.0883a.3937.3937,0,0,1-.1133.025.3883.3883,0,0,1,.1065-.0476c.07-.0272.1767-.0635.3126-.111a7.8865,7.8865,0,0,1,1.1872-.2968,4.1809,4.1809,0,0,1,1.817.07A10.1175,10.1175,0,0,1,92.6159,63.43a4.327,4.327,0,0,0,1.0422.4327A3.082,3.082,0,0,0,94.7,63.922a9.7715,9.7715,0,0,0,1.7467-.4237,8.8326,8.8326,0,0,1,1.1872-.2945,2.3744,2.3744,0,0,1,.3308-.0362A.3422.3422,0,0,1,98.085,63.163Z"/><path class="cls-3" d="M102.7635,65.6529a2.2046,2.2046,0,0,0-.6887.0249,3.0759,3.0759,0,0,0-.7024.2606c-.256.1246-.5279.2854-.836.4236a2.3413,2.3413,0,0,1-.9243.2243,2.1333,2.1333,0,0,1-.7658-.1268,1.9259,1.9259,0,0,1-.4622-.2425.56.56,0,0,1-.1427-.1268,4.09,4.09,0,0,0,.63.2922,2.1885,2.1885,0,0,0,.7363.0974,2.371,2.371,0,0,0,.8791-.222c.299-.1336.5732-.29.836-.4146a2.8289,2.8289,0,0,1,.734-.2424,1.4875,1.4875,0,0,1,.5234-.0023A.4105.4105,0,0,1,102.7635,65.6529Z"/><path class="cls-3" d="M87.115,63.8042a1.5148,1.5148,0,0,0-.4576-.0816,1.8971,1.8971,0,0,0-.4984.0793,6.2469,6.2469,0,0,1-.6185.1586,1.48,1.48,0,0,1-1.1306-.2673.86.86,0,0,1-.3194-.3648,4.6873,4.6873,0,0,0,.367.2945,1.5073,1.5073,0,0,0,1.0648.22c.2153-.0362.4192-.1019.6117-.1473a1.7253,1.7253,0,0,1,.5257-.0566A.6332.6332,0,0,1,87.115,63.8042Z"/><path class="cls-3" d="M99.1635,72.9005c-.0023.0136-.1926-.0385-.5415-.0543a4.2237,4.2237,0,0,0-1.4523.2243,14.4013,14.4013,0,0,0-2.0141.879,11.1171,11.1171,0,0,1-1.2053.512,4.8235,4.8235,0,0,1-1.382.2878,3.1741,3.1741,0,0,1-1.3911-.247,6.5122,6.5122,0,0,1-1.1395-.6547c-.3444-.2357-.6616-.4667-.9743-.6638a4.6309,4.6309,0,0,0-.913-.4464,2.6033,2.6033,0,0,0-1.4432-.1291,3.0615,3.0615,0,0,0-.5029.1948,1.369,1.369,0,0,1,.4916-.24,2.5679,2.5679,0,0,1,1.4817.0929,4.5794,4.5794,0,0,1,.938.4418c.3171.1948.6389.4236.9832.657a6.64,6.64,0,0,0,1.1215.6366,3.0574,3.0574,0,0,0,1.3412.2356,6.8453,6.8453,0,0,0,2.5443-.7816,13.8494,13.8494,0,0,1,2.0368-.8609,4.9726,4.9726,0,0,1,.8337-.1767,3.4946,3.4946,0,0,1,.6434-.0136,2.4774,2.4774,0,0,1,.4033.0611A.6547.6547,0,0,1,99.1635,72.9005Z"/><path class="cls-3" d="M88.2184,75.37a2.0215,2.0215,0,0,0-.7409-.2582,2.0428,2.0428,0,0,0-.7725.1427c-.0091-.0113.0566-.0816.1948-.1518a1.1567,1.1567,0,0,1,.5868-.1087,1.14,1.14,0,0,1,.5641.1971C88.1753,75.2817,88.2275,75.361,88.2184,75.37Z"/><path class="cls-3" d="M97.9468,78.193c-.0135.0022-.0271-.1088-.1064-.2878a1.5826,1.5826,0,0,0-.5257-.6253,2.248,2.248,0,0,0-1.1373-.4078,3.6508,3.6508,0,0,0-1.4749.256c-.5075.1836-.9719.4124-1.4092.5959a6.2236,6.2236,0,0,1-1.1985.3874,2.9044,2.9044,0,0,1-.85.0476,1.4246,1.4246,0,0,1-.2288-.0385c-.0521-.0113-.077-.02-.077-.0249a3.7316,3.7316,0,0,0,1.1373-.068,6.5855,6.5855,0,0,0,1.1713-.4056c.43-.188.8949-.4214,1.4115-.6071a3.6493,3.6493,0,0,1,1.5247-.2538,2.2733,2.2733,0,0,1,1.1781.4509,1.5711,1.5711,0,0,1,.5188.6751,1.1329,1.1329,0,0,1,.0567.2243C97.9491,78.1658,97.9514,78.193,97.9468,78.193Z"/><path class="cls-6" d="M88.1889,75.6578c.0114-.0046.0544.1608.1971.4282a3.3054,3.3054,0,0,0,.8089.9764,7.0787,7.0787,0,0,0,3.9557,1.2733,6.8173,6.8173,0,0,0,2.2973-.2492,11.4815,11.4815,0,0,0,1.774-.682c.4916-.2333.8813-.4372,1.1509-.5754.1269-.0634.2288-.1156.3126-.1586a.3706.3706,0,0,1,.1133-.0476.4819.4819,0,0,1-.1019.07c-.0816.0475-.1813.1064-.3014.1789-.265.1518-.6479.3671-1.1373.6117a10.8824,10.8824,0,0,1-1.7807.7114,6.73,6.73,0,0,1-2.3336.2606,9.7642,9.7642,0,0,1-2.3109-.426,4.7785,4.7785,0,0,1-1.6924-.9017,3.1941,3.1941,0,0,1-.7975-1.02,2.6049,2.6049,0,0,1-.1291-.3285A.4788.4788,0,0,1,88.1889,75.6578Z"/><g class="cls-13"><path d="M99.2586,71.881a3.0037,3.0037,0,0,1-1.5383-.4055,1.631,1.631,0,0,0-1.4976-.0838,5.09,5.09,0,0,0-.56.5256,2.5481,2.5481,0,0,1-1.9733.36,31.56,31.56,0,0,1-4.76-1.0512c-.1541-.0431-.793-.2832-.793-.2832l.7024-.1586.6434-.2016.4916-.1065,4.8371.7408s.3307-.3466.3307-.3579l-1.0965-1.3277c1.5927.7046,5.1112,2.2951,5.2086,2.2837"/></g><path class="cls-11" d="M88.7621,65.8387l.1473-.111a3.3873,3.3873,0,0,1,2.6666-.6163h0a4.6286,4.6286,0,0,1,2.0775.9742l1.16.9561-1.2347,2.2112-.8406-1.1758s-.7839,1.0648-.9243.9515a1.7712,1.7712,0,0,1-.3081-.4485l.56-.7839-1.3435.2809-1.96-.8949.8406-1.0648-.8406.2809Z"/><path class="cls-6" d="M99.4059,71.881a.4443.4443,0,0,0-.1088-.0611c-.0838-.0408-.1925-.0929-.3239-.1586-.2968-.1382-.7092-.3308-1.2167-.5687-1.0512-.48-2.5012-1.1419-4.1528-1.894l.0272.0861c.256-.46.5233-.9335.7952-1.4206.17-.3036.3353-.6026.4939-.8858l-.0589.0317c1.962.1926,3.7.3625,4.9639.4871.614.0544,1.1147.1,1.4749.1314.1632.0113.2946.0227.3988.0295a.6324.6324,0,0,0,.1382.0022.5351.5351,0,0,0-.136-.0249c-.1019-.0136-.2333-.0294-.3964-.0521-.36-.0408-.8587-.1-1.4727-.17-1.2642-.1337-3-.32-4.9594-.5279l-.0407-.0045-.02.0362c-.1586.2832-.3263.5823-.4939.8859-.2719.4871-.537.9628-.793,1.4228l-.0317.0589.0612.0271c1.6584.7386,3.1129,1.3866,4.1687,1.8556.5142.2243.9289.4032,1.23.5346.1359.0567.2469.102.333.1382A.54.54,0,0,0,99.4059,71.881Z"/><path class="cls-6" d="M86.5418,69.049a.5613.5613,0,0,0-.2061-.0317,1.961,1.961,0,0,0-.571.034.6778.6778,0,0,0-.3579.2016.9644.9644,0,0,0-.1881.4305,1.0193,1.0193,0,0,0,.0453.5166.969.969,0,0,0,.3422.4395,2.5044,2.5044,0,0,0,.981.3489,4.3968,4.3968,0,0,0,.8405.0815,1.5037,1.5037,0,0,0,.7612-.1336,3.9162,3.9162,0,0,1-.7612.0453,5.063,5.063,0,0,1-.82-.1065,2.6285,2.6285,0,0,1-.9311-.3376.8518.8518,0,0,1-.3489-.8382.83.83,0,0,1,.154-.3829.5915.5915,0,0,1,.3036-.1835,2.2475,2.2475,0,0,1,.5483-.07A.7381.7381,0,0,0,86.5418,69.049Z"/><path class="cls-6" d="M85.4181,72.3251a1.3672,1.3672,0,0,0,.4871.0566,3.0926,3.0926,0,0,0,1.1713-.1948,2.5351,2.5351,0,0,0,.5823-.31,1.372,1.372,0,0,0,.36-.4078,1.1079,1.1079,0,0,0,.1745-.46c-.02-.0091-.0839.17-.247.4146a1.471,1.471,0,0,1-.3534.3625,2.6386,2.6386,0,0,1-.56.2854,3.6348,3.6348,0,0,1-1.126.2221A3.2141,3.2141,0,0,0,85.4181,72.3251Z"/><path class="cls-6" d="M84.0633,66.4549a2.3442,2.3442,0,0,0,.3353.401c.2175.2379.5233.5619.8677.9153s.6593.6684.8927.89a2.1623,2.1623,0,0,0,.3964.3444,2.2936,2.2936,0,0,0-.333-.4056c-.2175-.24-.5234-.5641-.8677-.9175A12.0851,12.0851,0,0,0,84.0633,66.4549Z"/><polygon class="cls-6" points="90.833 65.635 95.144 70.859 94.814 71.217 87.815 70.15 84.346 64.928 84.668 64.638 90.833 65.635"/><path class="cls-11" d="M86.2586,67.0145h0a.6677.6677,0,0,1,.6231.426,1.4415,1.4415,0,0,0,.4237.6774,1.5008,1.5008,0,0,0,1.13.1676c.2832-.1382,1.4137-1.1554,1.6108-1.0421s.367.367.17.5935-1.2438.904-1.0467,1.1306,2.4038-.77,2.7414-.682c.34.0884.537.2968.34.4328a12.56,12.56,0,0,0-1.7807.8994,12.3729,12.3729,0,0,1,2.3471-.4531c.0839.1405.2266.367,0,.4531-.2265.0838-2.1772.5936-2.3471.6774a4.1712,4.1712,0,0,1-.8723.2538,8.8327,8.8327,0,0,0-.9107.29A1.9933,1.9933,0,0,1,87.28,70.8l-.2288-.0928a.8987.8987,0,0,1-.5573-.8859l.0453-.77-.247-.6366Z"/><path class="cls-7" d="M84.3352,64.9528a.47.47,0,0,0,.1291.0318c.1.0181.222.0385.3738.0657.3421.0543.8088.1291,1.38.222.589.0906,1.2823.1948,2.0481.3126.3851.0589.7907.12,1.2075.1836a2.3138,2.3138,0,0,1,1.1713.4735,7.9259,7.9259,0,0,1,.8542.981c.265.3307.5211.65.7657.9538.4871.6026.9289,1.1486,1.3028,1.6108.3647.4463.666.8111.8858,1.0807.1.1178.1812.213.2447.29.0566.0657.0883.0974.0929.0952a.7066.7066,0,0,0-.0725-.1111c-.0612-.0815-.136-.1812-.2266-.3035-.2129-.2742-.5029-.648-.8541-1.1057-.367-.4667-.802-1.0195-1.28-1.6289-.2424-.3059-.4961-.6276-.7589-.9584a7.81,7.81,0,0,0-.8678-.9991,2.4161,2.4161,0,0,0-1.23-.4984c-.4191-.0612-.8247-.12-1.2121-.1767-.768-.1065-1.4613-.2039-2.0526-.2855-.5709-.0748-1.04-.1382-1.3843-.1835-.1518-.0181-.2764-.0317-.3783-.0431A.5386.5386,0,0,0,84.3352,64.9528Z"/><path class="cls-14" d="M87.6089,66.097a.5774.5774,0,0,1,.1949.1586.2047.2047,0,0,1,.009.2356.2146.2146,0,0,1-.2877.0045.2742.2742,0,0,1-.111-.1676.1994.1994,0,0,1,.0589-.1881.1534.1534,0,0,1,.19-.0068"/><g class="cls-13"><path d="M86.4263,68.904c-.7839-.7272-1.4251-1.47-2.2112-2.1976-.1609-.15-.3331-.3693-.2266-.56a.3328.3328,0,0,1,.32-.1427.7947.7947,0,0,1,.34.1382c.9448.58,1.2937,1.7853,1.7785,2.7617"/></g><path class="cls-3" d="M98.9618,71.58a.334.334,0,0,1,.0476-.1722,1.5426,1.5426,0,0,1,.2945-.3874,2.277,2.277,0,0,0,.426-.5483,2.2474,2.2474,0,0,0,.2356-.8111,4.2948,4.2948,0,0,0-.179-1.5428,4.5652,4.5652,0,0,1-.1608-.6367,3.09,3.09,0,0,1,.24.6118,3.8872,3.8872,0,0,1,.2152,1.5791,2.2225,2.2225,0,0,1-.2582.85,2.092,2.092,0,0,1-.4622.555,1.9386,1.9386,0,0,0-.3127.3512A1.4236,1.4236,0,0,1,98.9618,71.58Z"/><path class="cls-3" d="M96.4719,67.25a1.07,1.07,0,0,1,.0476.4757,2.3184,2.3184,0,0,1-1.1849,1.9054,1.0982,1.0982,0,0,1-.4486.1677c-.0068-.0182.1632-.0816.4056-.2379a2.5065,2.5065,0,0,0,1.1441-1.84C96.47,67.4337,96.4516,67.2524,96.4719,67.25Z"/><path class="cls-3" d="M85.4725,68.1655a.3142.3142,0,0,1,.0272.1608.9454.9454,0,0,1-.1065.4327,1.0234,1.0234,0,0,1-.4758.4622,2.3962,2.3962,0,0,1-.7907.1246,1.3011,1.3011,0,0,0-.6865.2878,1.521,1.521,0,0,0-.3919.478,2.4968,2.4968,0,0,0-.1722.5551.3651.3651,0,0,1-.0113-.1609,1.1747,1.1747,0,0,1,.1087-.43,1.5,1.5,0,0,1,.3988-.5257,1.3686,1.3686,0,0,1,.7431-.3217,2.4428,2.4428,0,0,0,.759-.1065.9792.9792,0,0,0,.4463-.4032A1.3573,1.3573,0,0,0,85.4725,68.1655Z"/><path class="cls-9" d="M164.0931,41.7849a3.4021,3.4021,0,0,1,2.1229.0272,1.7542,1.7542,0,0,1,.97.6.7464.7464,0,0,1-.1292,1.0309.99.99,0,0,1-.6728.077,2.5851,2.5851,0,0,0-1.6358.0114c-.2764.1563-.4871.4485-.8.5006a.7193.7193,0,0,1-.7363-.4531,1.2258,1.2258,0,0,1,.0317-.9085A1.3934,1.3934,0,0,1,164.0931,41.7849Z"/><path class="cls-9" d="M163.0192,38.7807a1.008,1.008,0,0,0,1.4885.2334,2.8312,2.8312,0,0,0,.8066-1.2121,6.97,6.97,0,0,0,.8315-3.2262,1.8291,1.8291,0,0,0-.2991-.9471.9582.9582,0,0,0-.8609-.4214,1.4039,1.4039,0,0,0-.9.7205,7.89,7.89,0,0,0-1.2256,3.2511,2.7343,2.7343,0,0,0,.1585,1.6018"/><path class="cls-9" d="M161.8457,39.4309a2.0326,2.0326,0,0,0,.5641-1.8147,3.6218,3.6218,0,0,0-.8836-1.7445,5.9675,5.9675,0,0,0-1.8125-1.4273,2.1213,2.1213,0,0,0-.8654-.27.9453.9453,0,0,0-.8043.3489,1.4006,1.4006,0,0,0,.0362,1.2937,15.0488,15.0488,0,0,0,1.0286,2.1455,3.5316,3.5316,0,0,0,1.2574,1.4115,1.3036,1.3036,0,0,0,1.5474-.0045"/><path class="cls-6" d="M161.8638,47.143a1.1962,1.1962,0,0,0,.07-.2469c.0431-.1813.0952-.4078.1609-.68a10.288,10.288,0,0,1,.29-.9878,7.9067,7.9067,0,0,1,.5279-1.1419,4.43,4.43,0,0,1,.7544-.9946,2.2665,2.2665,0,0,1,.8542-.5347,2.1091,2.1091,0,0,1,.6751-.1132,1.3381,1.3381,0,0,0,.256-.0023,1.2376,1.2376,0,0,0-.2537-.0385,1.9805,1.9805,0,0,0-.6978.0838,2.2971,2.2971,0,0,0-.8972.5347,4.345,4.345,0,0,0-.7794,1.015,7.5179,7.5179,0,0,0-.5279,1.16,8.5246,8.5246,0,0,0-.2718,1.0036c-.0612.29-.102.5234-.1269.6865A1.0089,1.0089,0,0,0,161.8638,47.143Z"/><path class="cls-6" d="M161.9816,46.62a.4683.4683,0,0,0,.0226-.1156c.0114-.0883.0272-.1994.0454-.3353.0385-.29.0951-.7091.1812-1.2257.1654-1.0331.4055-2.1387.7907-3.6884.3625-1.4567.8156-3.1491,1.1962-4.2389.0839-.2469.1654-.4712.2379-.6638.0725-.1949.1337-.3625.19-.4984.05-.1269.0907-.2311.1224-.315a.5445.5445,0,0,0,.0362-.1132.4675.4675,0,0,0-.0544.1042c-.0362.0815-.0838.1835-.14.3081-.0612.1337-.1292.2991-.2062.4939-.0793.1926-.1654.4146-.2537.6615a38.7368,38.7368,0,0,0-1.1872,3.9218c-.3852,1.5542-.657,2.9792-.8043,4.0169-.077.5188-.1223.94-.1472,1.2325-.0091.1359-.0182.2492-.025.3375A.4234.4234,0,0,0,161.9816,46.62Z"/><path class="cls-6" d="M162.3622,43.8511a2.412,2.412,0,0,0,.0453-.3489c.0182-.2266.03-.5551.02-.9606a12.3649,12.3649,0,0,0-.1223-1.4205,11.3842,11.3842,0,0,0-.3557-1.7083,8.7876,8.7876,0,0,0-1.3367-2.866,4.0055,4.0055,0,0,0-.3489-.4236c-.0544-.0589-.102-.1179-.1518-.1677-.05-.0453-.0974-.0884-.1405-.1269a2.6378,2.6378,0,0,0-.27-.2288,10.5641,10.5641,0,0,1,.8473.99,9.2167,9.2167,0,0,1,1.296,2.85,13.48,13.48,0,0,1,.3625,1.6947,13.8044,13.8044,0,0,1,.1427,1.4092c.0181.4032.0181.73.0136.956A2.6148,2.6148,0,0,0,162.3622,43.8511Z"/><rect class="cls-5" x="115.3942" y="41.436" width="47.437" height="71.151"/><rect class="cls-10" x="115.3942" y="51.6221" width="47.437" height="11.6701"/><rect class="cls-10" x="115.3942" y="76.4439" width="47.437" height="11.6701"/><circle class="cls-8" cx="121.4637" cy="57.5058" r="2.4106"/><path class="cls-15" d="M122.6622,56.7876c.068.07-.4033.6344-1.0512,1.262-.1337.1291-.2628.2492-.3852.3579l-.1269.1133-.1087-.1155c-.4418-.4735-.7227-.8451-.6661-.8995.0544-.0543.4282.2243.904.6639l-.2356-.0023c.1132-.1178.2378-.2424.3715-.3716C122.0143,57.1683,122.5942,56.7174,122.6622,56.7876Z"/><path class="cls-6" d="M126.4412,59.8326a20.5381,20.5381,0,0,1-.0589-2.184,20.5753,20.5753,0,0,1,.0589-2.1841,20.5393,20.5393,0,0,1,.0589,2.1841A19.83,19.83,0,0,1,126.4412,59.8326Z"/><path class="cls-6" d="M131.208,56.6223l.0816-.1722a.7971.7971,0,0,0,.51.179c.2673,0,.3828-.1043.3828-.2379,0-.3784-.9357-.1382-.9357-.7137,0-.2379.1858-.4418.5914-.4418a.9032.9032,0,0,1,.4961.1359l-.0725.1768a.7985.7985,0,0,0-.4236-.1269c-.2628,0-.3761.111-.3761.2447,0,.3783.9357.14.9357.7091,0,.2356-.19.4395-.5982.4395A.898.898,0,0,1,131.208,56.6223Z"/><path class="cls-6" d="M133.7432,56.2847h-.9492a.3962.3962,0,0,0,.4236.3421.4362.4362,0,0,0,.3376-.1405l.1178.136a.6385.6385,0,0,1-1.092-.4079.5726.5726,0,0,1,.5868-.5958.5635.5635,0,0,1,.5777.6026A.2985.2985,0,0,1,133.7432,56.2847Zm-.9492-.1518h.7521a.3785.3785,0,0,0-.7521,0Z"/><path class="cls-6" d="M134.6721,55.6186v.2062a.3617.3617,0,0,0-.0475-.0023.35.35,0,0,0-.3693.3965v.58h-.213V55.6277h.2039v.1971A.4484.4484,0,0,1,134.6721,55.6186Z"/><path class="cls-6" d="M136.0179,55.6277l-.512,1.1713h-.2175l-.5121-1.1713h.22l.4033.9379.41-.9379Z"/><path class="cls-6" d="M137.239,56.2847H136.29a.3962.3962,0,0,0,.4236.3421.4362.4362,0,0,0,.3376-.1405l.1178.136a.6385.6385,0,0,1-1.092-.4079.5726.5726,0,0,1,.5868-.5958.5635.5635,0,0,1,.5777.6026A.2985.2985,0,0,1,137.239,56.2847Zm-.9515-.1518h.7522a.3786.3786,0,0,0-.7522,0Z"/><path class="cls-6" d="M138.1657,55.6186v.2062a.3624.3624,0,0,0-.0476-.0023.35.35,0,0,0-.3693.3965v.58h-.213V55.6277h.2039v.1971A.4485.4485,0,0,1,138.1657,55.6186Z"/><path class="cls-6" d="M139.4231,55.2538V56.799h-.22V55.4441h-.3489v-.1925h.5687Z"/><path class="cls-6" d="M153.1367,70.3042v1.3072h-.154l-.7839-.9742v.9742h-.1858V70.3042h.154l.7839.9742v-.9742Z"/><path class="cls-6" d="M153.4222,70.9567a.6949.6949,0,1,1,.6955.6683A.6636.6636,0,0,1,153.4222,70.9567Zm1.203,0a.5075.5075,0,1,0-.5052.5029A.4913.4913,0,0,0,154.6252,70.9567Z"/><path class="cls-6" d="M155.971,71.6092l-.2809-.4011c-.0272.0023-.0544.0046-.0816.0046h-.3217v.3965h-.1858V70.3019h.51c.34,0,.546.1722.546.4554a.412.412,0,0,1-.2878.4123l.31.44Zm-.0068-.85c0-.1858-.1246-.2923-.3648-.2923h-.3172v.5891h.3172C155.84,71.0541,155.9642,70.9453,155.9642,70.76Z"/><path class="cls-6" d="M157.6656,71.6092l-.0022-.9516-.4713.793h-.0861l-.4712-.7885v.9471h-.179V70.3019h.1541l.546.9176.5369-.9176h.1518l.0023,1.3073Z"/><path class="cls-6" d="M159.07,71.2829h-.6955l-.1428.3263H158.04l.5913-1.3073h.1858l.5935,1.3073h-.1971Zm-.0657-.15-.2809-.6412-.281.6412Z"/><path class="cls-6" d="M159.605,70.3042h.1858v1.1441h.7068v.1631h-.8949V70.3042Z"/><path class="cls-6" d="M153.1367,58.4234v1.3072h-.154l-.7839-.9742v.9742h-.1858V58.4234h.154l.7839.9742v-.9742Z"/><path class="cls-6" d="M153.4222,59.0759a.6949.6949,0,1,1,.6955.6683A.6636.6636,0,0,1,153.4222,59.0759Zm1.203,0a.5075.5075,0,1,0-.5052.503A.4913.4913,0,0,0,154.6252,59.0759Z"/><path class="cls-6" d="M155.971,59.7306l-.2809-.401c-.0272.0023-.0544.0046-.0816.0046h-.3217v.3964h-.1858V58.4234h.51c.34,0,.546.1722.546.4554a.412.412,0,0,1-.2878.4123l.31.44Zm-.0068-.8518c0-.1858-.1246-.2923-.3648-.2923h-.3172v.5891h.3172C155.84,59.1733,155.9642,59.0668,155.9642,58.8788Z"/><path class="cls-6" d="M157.6656,59.7306l-.0022-.9515-.4713.793h-.0861l-.4712-.7885v.947h-.179V58.4234h.1541l.546.9176.5369-.9176h.1518l.0023,1.3072Z"/><path class="cls-6" d="M159.07,59.4044h-.6955l-.1428.3262H158.04l.5913-1.3072h.1858l.5935,1.3072h-.1971Zm-.0657-.15-.2809-.6412-.281.6412Z"/><path class="cls-6" d="M159.605,58.4234h.1858v1.1441h.7068v.1631h-.8949V58.4234Z"/><circle class="cls-8" cx="121.3065" cy="69.2435" r="2.4106"/><path class="cls-15" d="M122.5082,68.5234c.0679.07-.4033.6344-1.0513,1.262-.1337.1291-.2628.2492-.3851.3579l-.1269.1133-.1088-.1155c-.4418-.4736-.7227-.8451-.666-.8995.0543-.0544.4282.2243.9039.6638l-.2356-.0022c.1133-.1178.2379-.2425.3716-.3716C121.8579,68.904,122.44,68.4532,122.5082,68.5234Z"/><path class="cls-6" d="M126.2872,71.5684a20.5075,20.5075,0,0,1-.0589-2.1841,20.5406,20.5406,0,0,1,.0589-2.184,20.5381,20.5381,0,0,1,.0589,2.184A20.5393,20.5393,0,0,1,126.2872,71.5684Z"/><path class="cls-6" d="M131.208,68.3467l.0816-.1722a.7971.7971,0,0,0,.51.179c.2673,0,.3828-.1042.3828-.2379,0-.3783-.9357-.1382-.9357-.7136,0-.2379.1858-.4418.5914-.4418a.9024.9024,0,0,1,.4961.1359l-.0725.1767a.7985.7985,0,0,0-.4236-.1269c-.2628,0-.3761.1111-.3761.2447,0,.3784.9357.14.9357.7092,0,.2356-.19.4395-.5982.4395A.8986.8986,0,0,1,131.208,68.3467Z"/><path class="cls-6" d="M133.7432,68.0091h-.9492a.3961.3961,0,0,0,.4236.3421.4365.4365,0,0,0,.3376-.14l.1178.1359a.6385.6385,0,0,1-1.092-.4078.5726.5726,0,0,1,.5868-.5959.5636.5636,0,0,1,.5777.6027A.2978.2978,0,0,1,133.7432,68.0091Zm-.9492-.1518h.7521a.3785.3785,0,0,0-.7521,0Z"/><path class="cls-6" d="M134.6721,67.343v.2062a.3617.3617,0,0,0-.0475-.0023.35.35,0,0,0-.3693.3965v.5823h-.213V67.3544h.2039v.1971A.4456.4456,0,0,1,134.6721,67.343Z"/><path class="cls-6" d="M136.0179,67.3521l-.512,1.1713h-.2175l-.5121-1.1713h.22l.4033.938.41-.938Z"/><path class="cls-6" d="M137.239,68.0091H136.29a.3961.3961,0,0,0,.4236.3421.4365.4365,0,0,0,.3376-.14l.1178.1359a.6385.6385,0,0,1-1.092-.4078.5726.5726,0,0,1,.5868-.5959.5636.5636,0,0,1,.5777.6027A.2978.2978,0,0,1,137.239,68.0091Zm-.9515-.1518h.7522a.3786.3786,0,0,0-.7522,0Z"/><path class="cls-6" d="M138.1657,67.343v.2062a.3624.3624,0,0,0-.0476-.0023.35.35,0,0,0-.3693.3965v.5823h-.213V67.3544h.2039v.1971A.4458.4458,0,0,1,138.1657,67.343Z"/><path class="cls-6" d="M140.03,68.3308v.1926h-1.1124v-.1495l.63-.6072c.1631-.1586.1948-.256.1948-.3534,0-.1586-.1133-.256-.3285-.256a.4865.4865,0,0,0-.3965.1676l-.15-.1314a.7159.7159,0,0,1,.5664-.2333c.3217,0,.53.1653.53.43a.6274.6274,0,0,1-.2537.4849l-.4735.4553Z"/><rect class="cls-8" x="130.9611" y="69.9825" width="12.633" height="1.629"/><path class="cls-6" d="M153.2138,82.5271H153.4v1.1441h.7069v.1631h-.8949V82.5271Z"/><path class="cls-6" d="M154.3216,82.5271h.1858v1.3072h-.1858Z"/><path class="cls-6" d="M155.8056,83.1728h.179v.51a.7694.7694,0,0,1-.4939.1654.669.669,0,1,1,.0045-1.3367.6523.6523,0,0,1,.503.2016l-.1156.1156a.52.52,0,0,0-.3783-.1518.5032.5032,0,1,0-.0023,1.0059.556.556,0,0,0,.3059-.0838v-.4259Z"/><path class="cls-6" d="M157.4663,82.5271v1.3072h-.1858V83.252h-.75v.5823h-.1858V82.5271h.1858v.5618h.75v-.5618Z"/><path class="cls-6" d="M158.1188,82.6879H157.67v-.1631h1.0807v.1631h-.4486V83.832h-.1858V82.6879Z"/><circle class="cls-8" cx="121.4622" cy="82.2773" r="2.4106"/><path class="cls-15" d="M122.6622,81.5619c.068.07-.4033.6344-1.0512,1.2619-.1337.1292-.2628.2493-.3852.358l-.1269.1133L120.99,83.18c-.4418-.4735-.7227-.845-.6661-.8994.0544-.0544.4282.2243.904.6638l-.2356-.0023c.1132-.1178.2378-.2424.3715-.3715C122.0143,81.9425,122.5942,81.4917,122.6622,81.5619Z"/><path class="cls-6" d="M126.4412,84.6069a20.5393,20.5393,0,0,1-.0589-2.1841,20.5726,20.5726,0,0,1,.0589-2.184,20.5381,20.5381,0,0,1,.0589,2.184A19.8653,19.8653,0,0,1,126.4412,84.6069Z"/><path class="cls-6" d="M131.208,81.1564l.0816-.1722a.7971.7971,0,0,0,.51.179c.2673,0,.3828-.1043.3828-.2379,0-.3784-.9357-.1382-.9357-.7137,0-.2379.1858-.4418.5914-.4418a.9024.9024,0,0,1,.4961.136l-.0725.1767a.7985.7985,0,0,0-.4236-.1269c-.2628,0-.3761.111-.3761.2447,0,.3783.9357.1405.9357.7091,0,.2356-.19.44-.5982.44A.9236.9236,0,0,1,131.208,81.1564Z"/><path class="cls-6" d="M133.7432,80.8165h-.9492a.3961.3961,0,0,0,.4236.3421.4365.4365,0,0,0,.3376-.14l.1178.1359a.6385.6385,0,0,1-1.092-.4078.5726.5726,0,0,1,.5868-.5959.5636.5636,0,0,1,.5777.6027A.2927.2927,0,0,1,133.7432,80.8165Zm-.9492-.1518h.7521a.3785.3785,0,0,0-.7521,0Z"/><path class="cls-6" d="M134.6721,80.1505v.2061a.378.378,0,0,0-.0475-.0022.35.35,0,0,0-.3693.3964v.5823h-.213V80.1618h.2039v.1971A.4456.4456,0,0,1,134.6721,80.1505Z"/><path class="cls-6" d="M136.0179,80.1618l-.512,1.1713h-.2175l-.5121-1.1713h.22l.4033.9379.41-.9379Z"/><path class="cls-6" d="M137.239,80.8165H136.29a.3961.3961,0,0,0,.4236.3421.4365.4365,0,0,0,.3376-.14l.1178.1359a.6385.6385,0,0,1-1.092-.4078.5726.5726,0,0,1,.5868-.5959.5636.5636,0,0,1,.5777.6027A.2927.2927,0,0,1,137.239,80.8165Zm-.9515-.1518h.7522a.3786.3786,0,0,0-.7522,0Z"/><path class="cls-6" d="M138.1657,80.1505v.2061a.3787.3787,0,0,0-.0476-.0022.35.35,0,0,0-.3693.3964v.5823h-.213V80.1618h.2039v.1971A.4457.4457,0,0,1,138.1657,80.1505Z"/><path class="cls-6" d="M140.0008,80.8777c0,.26-.1926.4735-.5845.4735a.8758.8758,0,0,1-.5687-.188l.102-.1745a.697.697,0,0,0,.4667.1654c.2311,0,.3647-.1065.3647-.2741,0-.1632-.1178-.27-.3828-.27h-.1246v-.1541l.39-.478h-.7453v-.1926h1.0195v.1495l-.4033.4984C139.8445,80.4631,140.0008,80.6376,140.0008,80.8777Z"/><rect class="cls-8" x="131.1174" y="83.0187" width="5.8611" height="1.629"/><path class="cls-6" d="M151.9065,95.3345a.6949.6949,0,1,1,.6955.6683A.6636.6636,0,0,1,151.9065,95.3345Zm1.203,0a.5075.5075,0,1,0-.5052.5029A.4913.4913,0,0,0,153.11,95.3345Z"/><path class="cls-6" d="M153.7688,94.8451v.4554h.6548v.1608h-.6548v.5279h-.1858V94.682h.9221v.1631Z"/><path class="cls-6" d="M154.9537,94.8451v.4554h.6548v.1608h-.6548v.5279h-.1858V94.682h.9221v.1631Z"/><path class="cls-6" d="M155.9529,94.682h.1857v1.1441h.7069v.1631h-.8949V94.682Z"/><path class="cls-6" d="M157.0607,94.682h.1858v1.3072h-.1858Z"/><path class="cls-6" d="M158.7645,94.682v1.3072H158.61l-.7839-.9742v.9742h-.1858V94.682h.1541l.7839.9742V94.682Z"/><path class="cls-6" d="M160.1034,95.8261v.1631h-.9493V94.682h.9221v.1631H159.34v.401h.6548v.1586H159.34v.4214Z"/><path class="cls-7" d="M123.8494,94.2855a2.4092,2.4092,0,1,1-2.0594-2.7142A2.4086,2.4086,0,0,1,123.8494,94.2855Z"/><path class="cls-6" d="M126.4344,96.3381a20.5381,20.5381,0,0,1-.0589-2.184,20.5753,20.5753,0,0,1,.0589-2.1841,20.5393,20.5393,0,0,1,.0589,2.1841A19.83,19.83,0,0,1,126.4344,96.3381Z"/><path class="cls-6" d="M131.2012,93.1278l.0816-.1722a.7971.7971,0,0,0,.51.179c.2673,0,.3828-.1042.3828-.2379,0-.3784-.9357-.1382-.9357-.7137,0-.2379.1858-.4418.5914-.4418a.9024.9024,0,0,1,.4961.136l-.0725.1767a.7985.7985,0,0,0-.4236-.1269c-.2628,0-.3761.111-.3761.2447,0,.3783.9357.1405.9357.7091,0,.2356-.19.44-.5982.44A.898.898,0,0,1,131.2012,93.1278Z"/><path class="cls-6" d="M133.7364,92.79h-.9492a.3961.3961,0,0,0,.4236.3421.4362.4362,0,0,0,.3376-.1405l.1178.136a.6385.6385,0,0,1-1.092-.4078.5726.5726,0,0,1,.5868-.5959.5635.5635,0,0,1,.5777.6027A.3027.3027,0,0,1,133.7364,92.79Zm-.9492-.1518h.7521a.3785.3785,0,0,0-.7521,0Z"/><path class="cls-6" d="M134.6653,92.1218v.2062a.3772.3772,0,0,0-.0475-.0022.35.35,0,0,0-.3693.3964v.5823h-.213V92.1332h.2039V92.33A.45.45,0,0,1,134.6653,92.1218Z"/><path class="cls-6" d="M136.0111,92.1332l-.512,1.1713h-.2175l-.5121-1.1713h.22l.4033.9379.41-.9379Z"/><path class="cls-6" d="M137.2322,92.79h-.9492a.3961.3961,0,0,0,.4236.3421.4362.4362,0,0,0,.3376-.1405l.1178.136a.6385.6385,0,0,1-1.092-.4078.5726.5726,0,0,1,.5868-.5959.5635.5635,0,0,1,.5777.6027A.3027.3027,0,0,1,137.2322,92.79Zm-.9515-.1518h.7522a.3786.3786,0,0,0-.7522,0Z"/><path class="cls-6" d="M138.1589,92.1218v.2062a.3787.3787,0,0,0-.0476-.0022.35.35,0,0,0-.3693.3964v.5823h-.213V92.1332h.2039V92.33A.45.45,0,0,1,138.1589,92.1218Z"/><path class="cls-6" d="M140.2817,92.9239h-.2945v.3806h-.2152v-.3806h-.8587V92.77l.7907-1.0127h.2379l-.7567.9765h.5936v-.3353h.2084v.3353h.2945v.19Z"/><path class="cls-6" d="M148.27,96.3381s-.0022-.0362-.0045-.1042c-.0023-.0725-.0023-.1722-.0045-.2991-.0023-.2673-.0068-.65-.0136-1.1418l.0226.0226c-2.8614.02-9.4679.0363-17.16.0363h0l.0589-.0589h0v1.5451l-.0589-.0589c4.8008.0091,9.0805.0181,12.1663.0249,1.5428.0068,2.7844.0136,3.65.0181.426.0046.759.0068.9924.0091.1087.0023.1948.0023.2605.0045.0589,0,.0884.0023.0906.0023a.5226.5226,0,0,1-.0838.0045c-.0612,0-.145.0023-.2515.0046-.2288.0022-.5573.0045-.9787.009-.8609.0046-2.1.0091-3.6363.0182-3.0971.0068-7.3926.0158-12.2093.0249h-.0589V94.7952h0l.0589-.0589h0c7.6894,0,14.2982.0136,17.16.0363h.0227v.0226c-.0068.4985-.0113.8859-.0136,1.1555-.0023.1246-.0045.222-.0045.2945A.6384.6384,0,0,1,148.27,96.3381Z"/><path class="cls-15" d="M122.2385,93.1663c.07.0679-.22.478-.65.9175-.4282.44-.8315.7386-.9017.6707s.22-.4781.65-.9176C121.765,93.3974,122.1683,93.0983,122.2385,93.1663Z"/><path class="cls-15" d="M122.2567,94.7363c-.068.07-.4781-.22-.9176-.65-.4395-.4282-.7386-.8315-.6706-.9017s.478.22.9176.65C122.0256,94.2606,122.3246,94.6661,122.2567,94.7363Z"/><rect class="cls-8" x="131.1174" y="58.3079" width="14.5836" height="1.5882"/><path class="cls-6" d="M148.277,59.896s-.0022-.0362-.0045-.1042c-.0023-.0725-.0023-.1722-.0045-.299-.0023-.2674-.0068-.65-.0136-1.1419l.0226.0227c-2.8614.02-9.4679.0362-17.16.0362h0l.0589-.0589h0V59.896l-.0589-.0589c4.8008.0091,9.0805.0182,12.1663.025,1.5428.0068,2.7844.0135,3.65.0181.426.0045.759.0068.9924.009.1087.0023.1948.0023.26.0046a.3656.3656,0,0,1,.0906.0022.5275.5275,0,0,1-.0838.0046c-.0612,0-.145.0022-.2515.0045-.2288.0023-.5573.0045-.9787.0091-.8609.0045-2.1.009-3.6363.0181-3.0971.0068-7.3926.0158-12.2093.0249h-.0589v-1.604h0l.0589-.0589h0c7.6894,0,14.2982.0136,17.16.0362H148.3v.0227c-.0068.4984-.0113.8858-.0136,1.1554-.0023.1246-.0045.2221-.0045.2946A.7214.7214,0,0,1,148.277,59.896Z"/><path class="cls-6" d="M148.123,71.5684s-.0023-.0363-.0046-.1042c-.0022-.0725-.0022-.1722-.0045-.2991q-.0034-.4009-.0136-1.1419l.0227.0227c-2.8615.02-9.468.0362-17.16.0362h0l.0589-.0589h0v1.5452l-.0589-.0589c4.8008.009,9.0805.0181,12.1662.0249,1.5429.0068,2.7844.0136,3.65.0181.4259.0046.759.0068.9923.0091.1088.0022.1948.0022.2606.0045.0566,0,.0883.0023.0906.0023a.559.559,0,0,1-.0839.0045c-.0611,0-.145.0023-.2514.0045-.2289.0023-.5574.0046-.9788.0091-.8609.0045-2.1.0091-3.6363.0181-3.097.0068-7.3926.0159-12.2092.025h-.059V70.0255h0c-.0521.0521.0725-.0725.059-.0589h0c7.6894,0,14.2981.0136,17.16.0363h.0226v.0226c-.0068.4984-.0113.8859-.0136,1.1555-.0022.1246-.0045.222-.0045.2945C148.1252,71.5389,148.123,71.5706,148.123,71.5684Z"/><path class="cls-6" d="M148.277,84.6069s-.0022-.0363-.0045-.1042c-.0023-.0725-.0023-.1722-.0045-.2991-.0023-.2651-.0068-.648-.0136-1.1419l.0226.0227c-2.8614.02-9.4679.0362-17.16.0362h0l.0589-.0589h0v1.5452l-.0589-.0589c4.8008.009,9.0805.0181,12.1663.0249,1.5428.0068,2.7844.0136,3.65.0181.426.0045.759.0068.9924.0091.1087.0022.1948.0022.26.0045a.3559.3559,0,0,1,.0906.0023.5565.5565,0,0,1-.0838.0045c-.0612,0-.145.0023-.2515.0045-.2288.0023-.5573.0046-.9787.0091-.8609.0045-2.1.0091-3.6363.0181-3.0971.0068-7.3926.0159-12.2093.0249h-.0589V83.064h0l.0589-.0589h0c7.6894,0,14.2982.0136,17.16.0362H148.3v.0227c-.0068.4984-.0113.8858-.0136,1.1554-.0023.1246-.0045.2221-.0045.2946A.7223.7223,0,0,1,148.277,84.6069Z"/><rect class="cls-10" x="115.3942" y="100.9191" width="47.437" height="11.6701"/><path class="cls-6" d="M153.2138,107.7748H153.4v1.1442h.7069v.1631h-.8949v-1.3073Z"/><path class="cls-6" d="M154.3216,107.7748h.1858v1.3073h-.1858Z"/><path class="cls-6" d="M155.8056,108.4205h.179v.51a.7694.7694,0,0,1-.4939.1654.669.669,0,1,1,.0045-1.3367.652.652,0,0,1,.503.2016l-.1156.1156a.52.52,0,0,0-.3783-.1518.5032.5032,0,1,0-.0023,1.0059.556.556,0,0,0,.3059-.0838v-.426Z"/><path class="cls-6" d="M157.4663,107.7748v1.3073h-.1858V108.5h-.75v.5823h-.1858v-1.3073h.1858v.5619h.75v-.5619Z"/><path class="cls-6" d="M158.1188,107.938H157.67v-.1632h1.0807v.1632h-.4486v1.1441h-.1858V107.938Z"/><circle class="cls-8" cx="121.4637" cy="106.7531" r="2.4106"/><path class="cls-15" d="M122.6622,106.0371c.068.07-.4033.6344-1.0512,1.262-.1337.1291-.2628.2492-.3852.3579l-.1269.1133-.1087-.1155c-.4418-.4736-.7227-.8451-.6661-.8995.0544-.0544.4282.2243.904.6638l-.2356-.0022c.1132-.1178.2378-.2425.3715-.3716C122.0143,106.4177,122.5942,105.9669,122.6622,106.0371Z"/><path class="cls-6" d="M126.4412,109.0821a20.5393,20.5393,0,0,1-.0589-2.1841,20.5726,20.5726,0,0,1,.0589-2.184,20.5381,20.5381,0,0,1,.0589,2.184A19.8638,19.8638,0,0,1,126.4412,109.0821Z"/><path class="cls-6" d="M131.208,105.6316l.0816-.1722a.7971.7971,0,0,0,.51.179c.2673,0,.3828-.1042.3828-.2379,0-.3784-.9357-.1382-.9357-.7137,0-.2378.1858-.4418.5914-.4418a.9024.9024,0,0,1,.4961.136l-.0725.1767a.7985.7985,0,0,0-.4236-.1269c-.2628,0-.3761.111-.3761.2447,0,.3784.9357.1405.9357.7091,0,.2357-.19.44-.5982.44A.9231.9231,0,0,1,131.208,105.6316Z"/><path class="cls-6" d="M133.7432,105.2917h-.9492a.3962.3962,0,0,0,.4236.3422.4366.4366,0,0,0,.3376-.1405l.1178.1359a.6385.6385,0,0,1-1.092-.4078.5726.5726,0,0,1,.5868-.5958.5635.5635,0,0,1,.5777.6026A.2927.2927,0,0,1,133.7432,105.2917Zm-.9492-.1517h.7521a.3785.3785,0,0,0-.7521,0Z"/><path class="cls-6" d="M134.6721,104.6257v.2061a.378.378,0,0,0-.0475-.0022.35.35,0,0,0-.3693.3964v.5823h-.213V104.637h.2039v.1971A.4456.4456,0,0,1,134.6721,104.6257Z"/><path class="cls-6" d="M136.0179,104.637l-.512,1.1713h-.2175l-.5121-1.1713h.22l.4033.9379.41-.9379Z"/><path class="cls-6" d="M137.239,105.2917H136.29a.3962.3962,0,0,0,.4236.3422.4366.4366,0,0,0,.3376-.1405l.1178.1359a.6385.6385,0,0,1-1.092-.4078.5726.5726,0,0,1,.5868-.5958.5635.5635,0,0,1,.5777.6026A.2927.2927,0,0,1,137.239,105.2917Zm-.9515-.1517h.7522a.3786.3786,0,0,0-.7522,0Z"/><path class="cls-6" d="M138.1657,104.6257v.2061a.3787.3787,0,0,0-.0476-.0022.35.35,0,0,0-.3693.3964v.5823h-.213V104.637h.2039v.1971A.4457.4457,0,0,1,138.1657,104.6257Z"/><path class="cls-6" d="M140.0008,105.3529c0,.2606-.1926.4735-.5845.4735a.8758.8758,0,0,1-.5687-.188l.102-.1745a.6965.6965,0,0,0,.4667.1654c.2311,0,.3647-.1065.3647-.2741,0-.1631-.1178-.27-.3828-.27h-.1246v-.1541l.39-.478h-.7453v-.1926h1.0195v.1495l-.4033.4985C139.8445,104.9383,140.0008,105.1128,140.0008,105.3529Z"/><rect class="cls-8" x="131.1174" y="107.4939" width="5.8611" height="1.629"/><path class="cls-6" d="M148.277,109.0821s-.0022-.0363-.0045-.1042c-.0023-.0725-.0023-.1722-.0045-.2991-.0023-.2651-.0068-.6479-.0136-1.1419l.0226.0227c-2.8614.02-9.4679.0363-17.16.0363h0c-.0136.0135.111-.1111.0589-.059h0v1.5452l-.0589-.0589c4.8008.009,9.0805.0181,12.1663.0249,1.5428.0068,2.7844.0136,3.65.0181.426.0045.759.0068.9924.0091.1087.0022.1948.0022.26.0045a.5727.5727,0,0,1,.0906.0023.5226.5226,0,0,1-.0838.0045c-.0612,0-.145.0023-.2515.0045-.2288.0023-.5573.0046-.9787.0091-.8609.0045-2.1.0091-3.6363.0181-3.0971.0068-7.3926.0159-12.2093.0249h-.0589v-1.604h0l.0589-.0589h0c7.6894,0,14.2982.0136,17.16.0362H148.3v.0227c-.0068.4984-.0113.8858-.0136,1.1555-.0023.1246-.0045.222-.0045.2945A.7223.7223,0,0,1,148.277,109.0821Z"/><path class="cls-6" d="M122.1026,47.2767l.1-.2062a.9835.9835,0,0,0,.623.2152c.3263,0,.4667-.1246.4667-.2854,0-.4531-1.1441-.1677-1.1441-.8564,0-.2855.2266-.53.7228-.53a1.12,1.12,0,0,1,.6071.1654l-.0883.213a.9856.9856,0,0,0-.5189-.1518c-.3217,0-.4576.1337-.4576.2945,0,.4531,1.1441.17,1.1441.8519,0,.2832-.2311.5279-.7318.5279A1.1529,1.1529,0,0,1,122.1026,47.2767Z"/><path class="cls-6" d="M125.1974,46.8711h-1.16a.4818.4818,0,0,0,.5189.41.5381.5381,0,0,0,.4123-.17l.1427.1654a.72.72,0,0,1-.5641.2288.7088.7088,0,0,1-.768-.7182.6932.6932,0,0,1,.7182-.7159.6834.6834,0,0,1,.7068.7227C125.2042,46.8145,125.2,46.8462,125.1974,46.8711Zm-1.1577-.1835h.9176a.4626.4626,0,0,0-.9176,0Z"/><path class="cls-6" d="M126.33,46.0691v.247a.5442.5442,0,0,0-.0589-.0023.4224.4224,0,0,0-.4508.4735v.7h-.2583V46.0827h.2469v.2356A.5548.5548,0,0,1,126.33,46.0691Z"/><path class="cls-6" d="M127.9728,46.0827l-.6253,1.4047h-.2651l-.6253-1.4047h.27l.4916,1.126.5007-1.126Z"/><path class="cls-6" d="M129.4613,46.8711h-1.16a.4816.4816,0,0,0,.5188.41.5379.5379,0,0,0,.4123-.17l.1428.1654a.7205.7205,0,0,1-.5642.2288.7088.7088,0,0,1-.768-.7182.6932.6932,0,0,1,.7182-.7159.6834.6834,0,0,1,.7069.7227C129.4681,46.8145,129.4635,46.8462,129.4613,46.8711Zm-1.16-.1835h.9175a.4626.4626,0,0,0-.9175,0Z"/><path class="cls-6" d="M130.5941,46.0691v.247a.5451.5451,0,0,0-.0589-.0023.4224.4224,0,0,0-.4509.4735v.7h-.2583V46.0827h.247v.2356A.5547.5547,0,0,1,130.5941,46.0691Z"/><path class="cls-6" d="M130.7436,47.34l.1087-.2016a.9391.9391,0,0,0,.5007.145c.24,0,.34-.0725.34-.19,0-.315-.904-.0431-.904-.6027,0-.2515.2288-.4214.5959-.4214a1.0613,1.0613,0,0,1,.521.1269l-.111.2016a.7593.7593,0,0,0-.4123-.111c-.2266,0-.3376.0816-.3376.1926,0,.3308.9063.0612.9063.6072,0,.2537-.2379.4168-.6163.4168A1.0251,1.0251,0,0,1,130.7436,47.34Z"/><path class="cls-6" d="M132.8665,47.2767l.1-.2062a.9838.9838,0,0,0,.6231.2152c.3262,0,.4667-.1246.4667-.2854,0-.4531-1.1441-.1677-1.1441-.8564,0-.2855.2265-.53.7227-.53a1.1208,1.1208,0,0,1,.6072.1654l-.0884.213a.9855.9855,0,0,0-.5188-.1518c-.3217,0-.4577.1337-.4577.2945,0,.4531,1.1442.17,1.1442.8519,0,.2832-.2311.5279-.7318.5279A1.1529,1.1529,0,0,1,132.8665,47.2767Z"/><path class="cls-6" d="M135.4787,47.4058a.5.5,0,0,1-.3127.0974.4047.4047,0,0,1-.4531-.44v-.7726h-.2424v-.2084h.2424v-.3081h.2583v.3081h.41v.2084h-.41v.7613a.2084.2084,0,0,0,.2243.2356.3355.3355,0,0,0,.2016-.0657Z"/><path class="cls-6" d="M136.9241,46.64v.85h-.2447v-.1857a.5338.5338,0,0,1-.4689.2016c-.324,0-.5279-.17-.5279-.4146,0-.2266.1495-.41.5755-.41h.41v-.05c0-.2152-.1268-.34-.3829-.34a.7322.7322,0,0,0-.4531.1518l-.1087-.19a.9522.9522,0,0,1,.5913-.1812C136.7021,46.0691,136.9241,46.2549,136.9241,46.64Zm-.2583.4192v-.1971h-.3987c-.256,0-.3285.0974-.3285.2175,0,.14.1178.2288.3149.2288A.4182.4182,0,0,0,136.6658,47.0592Z"/><path class="cls-6" d="M138.2087,47.4058a.5.5,0,0,1-.3126.0974.4048.4048,0,0,1-.4532-.44v-.7726h-.2424v-.2084h.2424v-.3081h.2583v.3081h.41v.2084h-.41v.7613a.2085.2085,0,0,0,.2243.2356.3358.3358,0,0,0,.2017-.0657Z"/><path class="cls-6" d="M139.8535,46.0827v1.4047h-.2446v-.213a.5866.5866,0,0,1-.4849.2288.5564.5564,0,0,1-.614-.6117v-.8088h.2583v.7794c0,.2764.1405.4146.3852.4146a.4169.4169,0,0,0,.4418-.4667v-.7273Z"/><path class="cls-6" d="M140.1662,47.34l.1087-.2016a.9391.9391,0,0,0,.5007.145c.24,0,.34-.0725.34-.19,0-.315-.904-.0431-.904-.6027,0-.2515.2288-.4214.5959-.4214a1.0613,1.0613,0,0,1,.521.1269l-.111.2016a.7593.7593,0,0,0-.4123-.111c-.2266,0-.3376.0816-.3376.1926,0,.3308.9063.0612.9063.6072,0,.2537-.2379.4168-.6163.4168A1.0251,1.0251,0,0,1,140.1662,47.34Z"/><path class="cls-6" d="M120.929,46.1552h-2.2316a.0382.0382,0,0,1-.0385-.0385v-.5891a.0382.0382,0,0,1,.0385-.0385h2.2316a.0382.0382,0,0,1,.0386.0385v.5891A.0369.0369,0,0,1,120.929,46.1552Z"/><path class="cls-6" d="M120.929,46.9889h-2.2316a.0382.0382,0,0,1-.0385-.0385v-.589a.0381.0381,0,0,1,.0385-.0385h2.2316a.0382.0382,0,0,1,.0386.0385v.589A.0369.0369,0,0,1,120.929,46.9889Z"/><path class="cls-6" d="M120.929,47.8227h-2.2316a.0382.0382,0,0,1-.0385-.0385v-.5891a.0382.0382,0,0,1,.0385-.0385h2.2316a.0382.0382,0,0,1,.0386.0385v.5891A.0369.0369,0,0,1,120.929,47.8227Z"/><circle class="cls-6" cx="160.3481" cy="45.3577" r="0.3557"/><path class="cls-6" d="M160.7015,46.3229a.3557.3557,0,1,1-.3557-.3557A.3549.3549,0,0,1,160.7015,46.3229Z"/><circle class="cls-6" cx="160.3481" cy="47.3446" r="0.3557"/><path class="cls-6" d="M162.8335,112.5892c0-.4825-.0227-29.2511-.0544-71.151l.0544.0544c-14.4749.0023-30.5425.0023-47.4325.0045h-.0068l.0589-.0589c-.0045,26.8247-.0091,51.565-.0113,71.151l-.0476-.0476c28.9158.0272,47.0541.0454,47.4393.0476-.3852,0-18.5235.0181-47.437.0476h-.0476v-.0476c-.0023-19.586-.0068-44.3286-.0113-71.151v-.0589h.0657c16.89.0023,32.9553.0046,47.4324.0046h.0544v.0543C162.8539,83.3359,162.8335,112.1044,162.8335,112.5892Z"/><rect class="cls-16" x="23.7283" y="26.188" width="139.7094" height="12.5449"/><g class="cls-17"><text class="cls-18" transform="translate(23.7285 30.1221)"> </text><text class="cls-18" transform="translate(25.0752 30.1221)">Pagas lo que usas sin pagar por adelantado</text><text class="cls-19" transform="translate(23.7285 36.5957)"> </text><text class="cls-18" transform="translate(35.3809 36.5957)">Reduces los costos de desarrollo</text></g><circle class="cls-9" cx="22.971" cy="28.0523" r="0.971"/><circle class="cls-9" cx="33.0043" cy="34.5254" r="0.971"/></svg>