<svg id="Layer_1" data-name="Layer 1" xmlns="http://www.w3.org/2000/svg" viewBox="0 0 600 600"><defs><style>.cls-1{fill:#5c676c;}.cls-2{fill:#3f6ea2;}.cls-3{fill:#3f6ea1;}.cls-4{fill:#424f55;}.cls-5{fill:#fcfdfd;}.cls-6{fill:#fdfdfd;}.cls-7{fill:#fefefe;}.cls-8{fill:#fcfcfc;}.cls-9{fill:#e5e5e6;}.cls-10{fill:#a9d6f0;}.cls-11{fill:#70b5e7;}.cls-12{fill:#5fa5d9;}.cls-13{fill:#babcbe;}.cls-14{fill:#48555a;}.cls-15{fill:#475459;}.cls-16{fill:#465258;}.cls-17{fill:#475359;}.cls-18{fill:#465359;}.cls-19{fill:#465358;}</style></defs><title>openfaasArtboard 1</title><path class="cls-1" d="M51.1085,456.4419l1.1408-.1055c2.1057,2.0084,1.9427,4.675,1.9585,7.2158q.1272,20.4769-.0062,40.9544c-.0186,2.5333.16,5.2168-2.0739,7.15l-.5627.0306-.4565-.33Z"/><path class="cls-2" d="M374.9827,491.5424c.008-9.7456-.214-19.4978.0718-29.235.2744-9.35,5.6249-16.4229,13.6806-19.0093a19.7887,19.7887,0,0,1,21.5053,6.3042c3.3744,4.0456,4.4873,8.8294,4.5061,13.8871.071,19.0933-.0276,38.1873.0851,57.28.0252,4.265-1.4426,6.1223-5.9257,6.0306-4.27-.0874-5.4885-2.0366-5.4313-5.9292.1313-8.9482-.0452-17.9009.0879-26.849.0432-2.9024-.5894-4.1218-3.8883-4.2561-13.4276-.5465-13.4217-.6792-13.4225,12.6,0,6.3645-.0709,12.73.02,19.0931.0544,3.7866-1.5911,5.3039-5.4028,5.3217-3.8915.0181-5.9891-1.1265-5.9347-5.4047C375.0608,511.4326,374.9747,501.487,374.9827,491.5424Z"/><path class="cls-3" d="M483.5528,491.1354c0,9.933-.1038,19.8677.052,29.7983.0607,3.8645-.924,5.8606-5.3,5.8756-4.506.0155-5.8791-1.8072-5.775-6.0912.2173-8.9345-.042-17.88.123-26.8165.056-3.0337-.7778-4.0268-3.9711-4.1328-13.6708-.4539-13.6666-.5747-13.6669,12.9567,0,6.1584-.0935,12.3188.0338,18.4747.0737,3.562-.8743,5.6421-4.9831,5.5721-3.6951-.0629-6.1146-.7541-6.09-5.2136.1085-20.0641-.21-40.1343.1815-60.1914a19.7015,19.7015,0,0,1,20.3356-19.1387c10.7305.3724,18.7952,8.5844,19.0037,19.7045.1825,9.7309.0381,19.468.0381,29.2023Z"/><path class="cls-4" d="M243.4915,484.1244c0-11.921-.0234-23.842.009-35.7629.0167-6.1523,4.2268-8.9389,9.6589-5.8287a6.4243,6.4243,0,0,0,5.1635.8836c13.9592-2.7407,24.7308,5.462,24.9882,19.6368.3535,19.4645.0626,38.94.1336,58.4108.0138,3.7847-1.5271,5.3038-5.361,5.3134-3.8957.01-5.9316-1.119-5.91-5.3983.0978-19.073.0006-38.147.0659-57.22.0164-4.7962-1.1433-8.7407-6.2723-10.183-6.1425-1.7273-11.1447,2.2048-11.3122,9.3219-.2569,10.9217-.0931,21.8532-.1012,32.7806-.0061,8.3447-.1178,16.6916.0476,25.033.08,4.0345-1.3589,5.7174-5.5479,5.6787-4.1274-.0381-5.6524-1.6583-5.6093-5.7112C243.5756,508.762,243.492,496.4427,243.4915,484.1244Z"/><path class="cls-4" d="M52.1277,511.6564q.0608-27.66.1216-55.32c2.8284-9.4571,10.9965-15.074,20.5949-14.1622,9.3068.8841,17.2487,8.5376,17.4794,18.071.3887,16.06.412,32.1448-.023,48.2025-.2625,9.69-8.4555,17.3115-18.132,18.161C62.9687,527.4163,54.4692,521.075,52.1277,511.6564Z"/><path class="cls-2" d="M510.5448,505.6608c-.1276-6.5774,1.1133-7.8035,6.7388-7.185,2.9223.3213,4.2693,1.6734,4.1417,4.6271a27.9969,27.9969,0,0,0,.1331,5.3527,8.3421,8.3421,0,0,0,6.91,7.2845,7.9583,7.9583,0,0,0,8.7588-3.6968c2.1316-3.2453,2.2785-6.4543-.35-9.8468-7.5378-9.73-14.8519-19.6332-22.242-29.4772-4.9593-6.6062-5.5235-14.2013-1.2757-20.99,4.3958-7.0254,10.9044-10.5,19.151-9.4272,8.1865,1.0644,13.76,5.9229,16.274,13.8181.8249,2.5911.7681,5.47,1.0543,8.2241.4416,4.2486-1.3045,6.1616-5.7735,6.12-4.1832-.0386-5.7666-1.8289-5.514-5.8014a24.723,24.723,0,0,0-.1526-4.1611c-.4356-4.0942-2.9976-6.4586-6.7572-7.3542-3.6426-.8676-6.7114.6065-8.7926,3.6333-2.2525,3.2757-2.1719,6.5729.3366,9.8719,7.45,9.7983,14.8078,19.6672,22.1851,29.5209,5.1464,6.8739,5.3948,15.2251.6911,22.0371a19.4711,19.4711,0,0,1-20.8922,7.9166,19.2672,19.2672,0,0,1-14.6162-17.49C510.4883,507.65,510.5448,506.6534,510.5448,505.6608Z"/><path class="cls-4" d="M120.5764,484.4853c-.0016-12.1291.1516-24.2611-.0794-36.3858-.0884-4.6394,1.4327-6.5132,6.18-6.1835,4.75.33,9.544-.0429,14.31.1279a19.4285,19.4285,0,0,1,19.0414,18.4424c.1734,2.5744.139,5.1676.1014,7.7507-.1976,13.59-8.0186,21.7226-21.5523,21.3429-5.8957-.1655-7.4627,1.5393-7.07,7.2294.5188,7.52.0624,15.1036.1539,22.6583.0491,4.0462.1565,7.5027-5.6949,7.3508-5.3853-.14-5.4431-3.26-5.4172-7.139C120.6278,507.9485,120.5779,496.2168,120.5764,484.4853Z"/><path class="cls-4" d="M185.701,484.2764c-.0015-11.1281-.0247-22.2563.0063-33.3843.0221-7.9329.91-8.7689,9.0576-8.7882,4.9679-.0118,9.94.131,14.9023-.041,3.96-.1372,4.5664,2.1616,4.583,5.3179.0174,3.32-.4016,5.79-4.7723,5.7142-4.1013-.0711-9.4843-1.9146-12.0187.8215-2.7082,2.9239-.84,8.3309-.8853,12.6438-.1245,11.84-.0444,11.97,11.9484,12.1076,3.9249.0451,5.8181,1.0618,5.7983,5.3678-.0205,4.4446-1.8061,5.794-6.1164,5.7931-11.6732-.0024-11.7013.16-11.6589,11.6873.016,4.357-1.3373,9.7343.7053,12.7994,2.3058,3.46,8.0645,1.056,12.2953,1.2551,3.7207.175,4.7856,1.8867,4.7168,5.2414-.0672,3.2737-.3784,6.003-4.7054,5.9115-5.5615-.1176-11.1278-.0666-16.6914-.0162-4.9327.0447-7.247-2.2228-7.199-7.2584C185.7787,507.7257,185.7025,496.0007,185.701,484.2764Z"/><path class="cls-2" d="M317.4071,484.8108c-.0015-11.5172-.0407-23.0346.0137-34.5516.0309-6.5423,1.5874-8.0824,8.0313-8.1454,5.1624-.05,10.3321.1493,15.4864-.0607,3.9729-.1618,5.213,1.5657,5.1294,5.3341-.0755,3.4041-.461,5.737-4.7739,5.6968-4.0922-.0382-9.4261-1.9089-11.9952.89-2.731,2.9752-.8579,8.3414-.9061,12.6521-.1319,11.8077-.0469,11.9316,12.1188,12.0751,3.9052.046,5.7212.9769,5.7223,5.35.0012,4.5265-1.7252,5.7683-6.0058,5.7816-11.8812.0369-11.88.1907-11.8809,12.2045,0,6.5529-.1353,13.1094.0446,19.6573.1105,4.0219-1.7846,5.12-5.45,5.0759-3.5532-.0432-5.6231-.9326-5.58-5.0261C317.4917,509.4346,317.4087,497.1223,317.4071,484.8108Z"/><path class="cls-5" d="M403.415,468.6214c-.0306,10.4646-.047,10.1092-10.5652,10.5943-5.7627.2658-7.8554-1.4132-7.1034-7.16.4836-3.6953-.05-7.5246.4433-11.2177.6682-5.0049,5.0272-8.4574,9.54-7.66,4.8131.8505,7.7622,3.6712,7.6905,8.9261C403.39,464.2761,403.415,466.4489,403.415,468.6214Z"/><path class="cls-6" d="M472.6257,468.9222c-.0257,10.1583-.0456,9.7725-10.2927,10.3007-5.9885.3087-8.293-1.3189-7.4033-7.4181.51-3.4934-.0561-7.1374.38-10.6491a8.8317,8.8317,0,0,1,9.3172-8.0792c4.6527.3476,7.8633,4.0659,7.99,9.3172C472.6693,464.5687,472.6257,466.746,472.6257,468.9222Z"/><path class="cls-7" d="M61.9029,484.214c-.0041-7.14-.1014-14.2817.0259-21.4194.1068-5.99,3.6744-9.8312,8.8369-9.8737,5.1318-.0421,8.8468,3.821,8.8944,9.8011q.1731,21.716-.0168,43.434c-.0607,5.92-4.0152,9.8245-9.1027,9.6267-4.933-.1917-8.4627-3.9107-8.5923-9.5548C61.78,498.8935,61.9071,491.5523,61.9029,484.214Z"/><path class="cls-8" d="M131.3908,465.28a13.6735,13.6735,0,0,1,.0452-3.5457c.922-3.3443-3.2187-9.2524,5.0172-8.9535,9.2377.3353,12.4763,2.5344,12.6673,10.1872a67.5118,67.5118,0,0,1-.06,7.1144c-.5453,6.737-10.7231,11.8545-16.4747,8.38-1.2657-.7647-1.1757-1.938-1.184-3.0985C131.378,472.0024,131.3934,468.6411,131.3908,465.28Z"/><path class="cls-4" d="M145.2365,213.3611q0-48.6315.01-97.2631c.0468-33.7206,23.6488-57.3979,57.4306-57.4365q97.5613-.1114,195.1228.0009c33.6307.0391,57.5253,23.8806,57.5685,57.4685q.1253,97.5614.0046,195.1228c-.0364,34.0807-23.7,57.533-57.9086,57.5468q-97.261.0393-194.5221,0c-34.29-.0144-57.66-23.3467-57.6982-57.58Q145.19,262.2911,145.2365,213.3611Z"/><path class="cls-9" d="M297.6024,215.3591c-.9639-1.1735-1.8753-2.1642-2.6546-3.25-13.6695-19.04-32.0466-25.7285-54.82-20.9632-3.6924.7726-7.4663,1.221-11.0985,2.2037-8.8212,2.3867-16.8807.3848-24.7153-3.68a93.2884,93.2884,0,0,1-18.8511-13.5157c-1.8786-1.67-3.7074-3.167-6.3342-2.0244-2.7095,1.1784-2.7082,3.6241-2.55,6.09,3.04,47.2858,28.6948,79.56,72.9138,88.7993,6.3986,1.3369,13.0272,1.5858,19.1286,4.2629,9.7534,4.28,12.4412,9.7271,9.5818,19.9313-1.66,5.9231-3.7156,11.7364-5.3307,17.6705-1.05,3.8573-2.5672,3.9573-5.66,1.8295-8.39-5.7727-17.2451-10.5518-27.5279-12.24-17.8172-2.9256-34.4043-.1756-49.5391,10.0238-9.3069,6.2719-18.9876,11.4429-30.5663,12.3743-4.5858.3688-6.2764-.9368-6.0224-5.3491.1025-1.7805-.1165-3.5771-.1167-5.3664q-.0117-98.1725.0115-196.3448c.0265-29.0036,20.1571-48.981,49.2778-48.9975q97.5757-.0554,195.1514.0006c28.8453.017,49.33,20.3971,49.3505,49.1256q.0681,97.874.0074,195.748c-.0027,12.0124-.5729,12.4986-12.3653,10.2924-10.0138-1.8734-18.3482-7.35-26.7492-12.6864-16.8187-10.6826-34.953-12.2285-53.8739-7.3566-8.8017,2.2663-16.2494,7.38-23.68,12.3358-3.2019,2.1355-4.6328,1.6917-5.9448-1.8794-2.6691-7.2645-5.8148-14.3539-8.4845-21.6182-2.7265-7.4191-.8479-12.104,6.0616-15.8821,5.4929-3.0035,11.5274-4.2359,17.66-5.0542,40.6225-5.4212,69.8372-33.5873,76.5456-73.8875.8149-4.8952,1.325-9.8415,1.96-14.7661.338-2.62.6273-5.36-2.13-6.8918-2.798-1.5546-4.7871.2789-6.87,1.9715-4.315,3.506-8.6352,7.0364-13.2054,10.1915-10.3208,7.1252-21.4444,9.702-33.93,6.3215-8.6212-2.3343-17.5275-3.8724-26.5441-2.8892-13.8025,1.505-24.6156,8.4272-33.2029,19.0966C300.8691,210.9937,299.3459,213.0779,297.6024,215.3591Z"/><path class="cls-10" d="M443.5242,332.088c-8.1743,16.2556-20.3208,25.8939-37.9069,28.2324a40.8352,40.8352,0,0,1-5.3629.2425q-99.9712.0183-199.9424-.01c-17.56-.0137-30.8035-8.0071-40.2117-22.605-1.14-1.7691-2.6069-3.5409-2.364-6.2075,13.349-.4476,24.9582-5.6351,35.9322-12.9067,22.2666-14.7543,44.7167-14.55,66.9512.1212,26.4382,17.4452,52.6817,17.403,79.1193-.0763,22.4637-14.8519,44.9852-14.5114,67.5.2652C421.1034,328.2431,426.5782,330.0229,443.5242,332.088Z"/><path class="cls-11" d="M287.2075,217.1847c1.5383,2.0591,3.232,4.0213,4.5864,6.1949,4.4985,7.2193,6.7941,7.3267,11.2032.2933a73.8567,73.8567,0,0,1,12.1821-15.3676c10.2786-9.4962,22.6473-10.6638,35.7172-8.8553a68.5229,68.5229,0,0,1,8.748,1.7431c15.6866,4.31,29.8439.9331,42.9335-8.2448,1.5729-1.1029,2.9056-2.7637,5.649-2.8037-1.8085,14.749-6.4744,28.24-15.315,40.08-13.7307,18.3877-32.5191,28.0316-54.988,30.99-7.5515.9944-14.8395,2.7312-21.369,6.8341-9.7183,6.1067-12.7445,14.2054-8.9621,25.0149,2.4892,7.1137,5.43,14.073,8.283,21.0546,2.7923,6.8325,2.8589,6.8246-4.38,7.91a32.296,32.296,0,0,1-3.5677.1518c-4.3762,1.6565-5.6562-1.4873-6.7668-4.54a168.3937,168.3937,0,0,1-7.0907-24.6016c-4.6321-23.213-7.8152-46.6-8.3657-70.2914C285.6611,220.878,284.0951,218.31,287.2075,217.1847Z"/><path class="cls-12" d="M287.2075,217.1847c1.201,33.86,4.496,67.39,15.49,99.7345.9249,2.7209,1.5034,5.467,5.2293,5.26-8.7753,2.2447-17.2695.35-25.7458-1.7641-2.5151-.6273-2.7841-1.9507-1.9228-4.3849,2.3817-6.73,4.5933-13.5333,6.5474-20.4,4.1557-14.6031-1.3037-25.1287-15.47-30.8636-6.9163-2.8-14.2679-3.2765-21.4416-4.7247-35.4743-7.1612-59.9012-35.235-62.7734-70.1593,2.9514.47,4.7559,2.7774,7.0158,4.262,12.8318,8.4292,26.5338,10.8659,41.5348,7.0483,9.6541-2.4568,19.5516-3.73,29.435-1C274.7343,202.8532,281.8,208.9722,287.2075,217.1847Z"/><path class="cls-4" d="M255.5009,154.8118c-13.0929,3.9671-25.268,7.5-37.3222,11.4067-3.4611,1.1216-4.9.602-5.9541-2.9648-4.5482-15.3929-9.2911-30.7291-14.0888-46.0465-.987-3.1509-.2071-4.4149,3.0285-5.3678q26.2325-7.7262,52.31-15.973c3.1767-1.0078,4.2962-.0894,5.0764,2.6808,1.2356,4.387,2.9178,8.6744,3.81,13.1245.856,4.2708,3.3432,5.5992,7.2783,6.16,16.5021,2.3515,32.9611,5.0055,49.4649,7.3441,3.5433.502,4.7275,1.8087,4.1506,5.3933-2.554,15.87-4.95,31.7659-7.361,47.6588-.4169,2.7479-1.1635,3.9986-4.5848,3.4246q-27.0054-4.5311-54.1233-8.3774c-3.8189-.543-4.4858-1.7265-3.5812-5.3013C254.6106,163.9936,254.8206,159.8117,255.5009,154.8118Z"/><path class="cls-4" d="M349.1245,166.7912c-13.8309.5974-13.9523.6066-14.728-9.7156-1.0423-13.8706-1.822-27.7607-2.8366-41.6336-.2249-3.0747.2218-4.5772,3.9263-4.7875q26.4826-1.5036,52.925-3.6692c4.3661-.3621,6.0107.74,6.2519,5.1989q1.2879,23.81,3.1687,47.5863c.254,3.1986-.94,3.5678-3.53,3.7444C378.0465,164.6233,361.8,165.86,349.1245,166.7912Z"/><path class="cls-13" d="M316.5963,133.9177c-1.9164,12.5925-3.78,24.9321-5.6834,37.2656-.38,2.4659-.8909,4.4706-4.4359,3.8673-14.2523-2.4255-28.5316-4.7118-42.8422-6.7609-3.2651-.4675-3.9414-1.7979-3.4811-4.654,1.9852-12.32,3.9817-24.639,5.8047-36.9834.4093-2.7713,1.8758-3.1594,4.1122-2.8164q22.0233,3.3775,44.0449,6.7664C316.1869,130.9211,317.5365,131.7529,316.5963,133.9177Z"/><path class="cls-13" d="M260.2522,124.9747c-1.1509,7.4761-2.1418,13.932-3.14,20.3868-.34,2.1981-1.563,3.2329-3.7991,3.883-10.8376,3.1508-21.6252,6.48-32.3819,9.8984-2.4234.77-3.54.3974-4.3056-2.1567q-5.4588-18.2085-11.2168-36.3268c-.8778-2.78.23-3.9925,2.7361-4.7464q21.0486-6.3308,42.0653-12.7673c1.5852-.4843,3.0961-1.1678,3.7931,1.1462C256.1676,111.4766,258.3429,118.6581,260.2522,124.9747Z"/><path class="cls-13" d="M345.133,161.0071c-4.7417.1636-4.6133.1558-5.0763-7.4691-.6368-10.4879-1.337-20.9774-2.3321-31.4355-.3758-3.95.5692-5.7574,4.7753-6.0074,14.0522-.8355,28.09-1.91,42.1322-2.9147,2.4263-.1736,4.1388.0717,4.3173,3.2557q1.0323,18.4107,2.48,36.797c.2827,3.5933-.9554,4.9563-4.5423,5.1478C374.0167,159.0683,361.1584,159.9783,345.133,161.0071Z"/><path class="cls-14" d="M303.9866,143.4291c-.8581,6.4627-1.534,11.55-2.2087,16.6373-.18,1.3579-.1173,2.9637-2.1318,2.8792-1.961-.0822-2.8313-1.2551-2.5742-3.1649.7638-5.6739,1.5778-11.341,2.3609-17.0123.2562-1.8554,1.4486-2.2,2.9964-1.8142A1.835,1.835,0,0,1,303.9866,143.4291Z"/><path class="cls-15" d="M276.9225,142.048c-.5528,4.4884-1.0886,9.4251-1.809,14.3348-.2189,1.4923-.5391,3.3906-2.8688,2.9193-1.851-.3745-1.8105-1.8827-1.64-3.3036.6135-5.1239,1.1808-10.2565,1.9668-15.3547.2381-1.5446.049-4.027,2.926-3.3945C278.2786,137.8608,276.9693,139.9768,276.9225,142.048Z"/><path class="cls-16" d="M283.9577,156.6931c.6593-4.4384,1.478-9.7346,2.2155-15.0421.23-1.6536.89-2.52,2.69-2.3305,1.9516.2052,2.087,1.4025,1.8688,2.9582q-1.116,7.9593-2.164,15.9283c-.1971,1.4913-.5513,2.7372-2.4454,2.69C283.7627,160.8385,283.7975,159.2369,283.9577,156.6931Z"/><path class="cls-17" d="M251.5448,134.1344c.4852,3.0066-.0735,3.8014-1.4529,4.2575-1.6367.5411-2.2618-.4561-2.6029-1.6188-1.6751-5.7106-3.2794-11.4424-4.867-17.1783-.4123-1.49.57-2.1988,1.796-2.566a1.9063,1.9063,0,0,1,2.6829,1.503C248.7121,124.2577,250.3573,129.974,251.5448,134.1344Z"/><path class="cls-17" d="M231.8075,120.4935c1.8894-.2,2.1223,1.1525,2.4326,2.22,1.5349,5.2811,2.9915,10.5849,4.4766,15.88.3763,1.3421.9459,2.73-1.1517,3.2091-1.5983.3653-2.7545-.1242-3.2037-1.7189q-2.3961-8.5068-4.6811-17.0445C229.1685,121.1148,230.6238,120.7579,231.8075,120.4935Z"/><path class="cls-18" d="M226.35,143.9757c.2861.8545-.74,1.279-2.015,1.6123-1.2956.3388-2.235.3359-2.6723-1.2782q-2.3217-8.5684-4.8113-17.091c-.5461-1.8727.5043-2.5,1.9472-2.9476,1.6566-.5142,2.1073.7611,2.43,1.8519C222.9079,131.7987,224.5025,137.4993,226.35,143.9757Z"/><path class="cls-14" d="M348.4273,131.5917c0-.2019.0228-1.1926-.0052-2.1819-.0452-1.5984.46-2.68,2.28-2.7665,1.8679-.0889,2.34,1.0133,2.4307,2.5894.3187,5.53.6755,11.0567,1.0024,16.5858.1071,1.8115-.378,3.1126-2.5775,3.0552-2.02-.0527-2.012-1.4739-2.1106-2.8791C349.1282,141.4563,348.8047,136.9183,348.4273,131.5917Z"/><path class="cls-18" d="M380.7932,137.8812c0,2.1743.0255,4.7544-.0123,7.3336a2.1138,2.1138,0,0,1-4.2063.3732c-.3977-6.1272-.6559-12.2642-.8949-18.4a1.746,1.746,0,0,1,1.85-1.8761,2.0694,2.0694,0,0,1,2.3624,2.0862C380.2431,130.7461,380.4772,134.1068,380.7932,137.8812Z"/><path class="cls-19" d="M367.5163,140.4674c-1.1292,2.24,2.1626,6.8369-2.1352,7.1032-4.6778.29-2.139-4.5-2.6054-6.9755a100.065,100.065,0,0,1-.94-11.2044c-.1056-1.4413-.1129-2.8523,1.7975-3.1183,2.12-.2952,2.6931.89,2.8253,2.7688C366.7217,132.7832,367.1408,136.5142,367.5163,140.4674Z"/></svg>