<svg id="Layer_1" data-name="Layer 1" xmlns="http://www.w3.org/2000/svg" viewBox="0 0 600 600"><defs><style>.cls-1{fill:#008471;}.cls-2{fill:#325c7f;}.cls-3{fill:#6decd7;}.cls-4{fill:#5aa9f9;}.cls-5{fill:#24528d;}.cls-6{fill:#25538e;}.cls-7{fill:#28568f;}.cls-8{fill:#2a5790;}.cls-9{fill:#28558f;}.cls-10{fill:#23528d;}.cls-11{fill:#23538e;}.cls-12{fill:#376385;}.cls-13{fill:#305f83;}.cls-14{fill:#2b5790;}.cls-15{fill:#2c5b80;}.cls-16{fill:#2b5a7f;}.cls-17{fill:#2a5a7f;}.cls-18{fill:#2a597e;}.cls-19{fill:#27558f;}.cls-20{fill:#fff;}</style></defs><title>apacheopenwhiskArtboard 1</title><path class="cls-1" d="M297.4335,145.7647H437.81l70.4464,118.3395c-5.4406,8.9594-10.9784,18.2744-16.709,27.4693-8.3419,13.3843-15.8839,27.2417-24.5573,40.4444-4.4839,6.8255-8.3573,14.104-12.59,21.131-4.55,7.5531-8.9059,15.26-13.4556,22.8382-1.17,1.9493-2.0926,4.0473-3.0869,5.995-7.6994-12.5421-15.5065-25.0621-23.1046-37.7077-4.885-8.13-9.3112-16.5366-14.2124-24.6567-7.813-12.9444-15.9112-25.7164-23.7647-38.6368-3.3951-5.5855-6.4808-11.3591-9.7071-17.0472-3.8529-2.1052-6.2254-5.5375-8.4073-9.1946-19.2446-32.2551-38.6371-64.4219-57.8475-96.6967C298.6679,154.4369,294.3321,150.9946,297.4335,145.7647Z"/><path class="cls-2" d="M278.4421,415.8652H139.9788C116.605,376.4664,93.156,336.9408,69.87,297.689l70.1737-117.8805c10.8835,17.7046,21.5193,35.57,32.1963,53.3706,6.0254,10.0454,11.9646,20.2748,17.6587,30.5838,5.5551,10.0574,11.6467,19.8319,17.881,29.4863.9352,1.4481-.1393,4.6485,3.1376,4.447,5.5354,4.158,8.33,10.3623,11.6023,16.0975,17.2107,30.1611,35.7665,59.5257,52.944,89.7024C277.6034,407.256,281.5641,410.7616,278.4421,415.8652Z"/><path class="cls-3" d="M297.4335,145.7647c1.038,6.0553,5.4626,10.3421,8.2414,15.4755,4.6636,8.6149,9.8829,16.9333,14.9852,25.3052,8.0109,13.1442,16.1861,26.1885,24.16,39.3546,4.7327,7.814,9.2056,15.7851,13.8106,23.6767,2.7976,4.7944,5.6241,9.5719,8.4377,14.357H228.3419c-1.8124-4.0382,1.6038-6.1847,2.8584-8.3,4.1767-7.0434,8.5172-13.9823,12.456-21.1884,6.59-12.057,14.1342-23.5594,20.9089-35.5292,6.7636-11.95,13.9057-23.7056,20.8917-35.5344C289.0226,157.344,290.8832,149.859,297.4335,145.7647Z"/><path class="cls-4" d="M278.4421,415.8652c.7754-3.3788-1.5564-5.9124-3.101-8.1385-6.7473-9.7241-11.8372-20.39-18-30.4326-8.0587-13.1325-16.4971-26.0539-23.99-39.5022-3.3146-5.9495-6.9609-11.7708-10.1834-17.7912-3.3572-6.2722-6.23-13.2107-11.5383-18.3807-1.2674-1.2343-.4319-2.63-.7131-3.9238h139.56c-7.1148,11.78-13.9526,22.752-20.4234,33.9367-4.2759,7.3909-8.8861,14.5827-13.1971,21.9125-6.3135,10.7342-13.1332,21.1966-19.11,32.0578-4.8791,8.8658-10.2845,17.4186-15.0617,26.329C281.696,413.7759,280.7063,415.4676,278.4421,415.8652Z"/><path class="cls-5" d="M281.4745,456.1889H292.29c5.45,18.1943,10.877,36.31,16.8307,56.1843,6.5566-19.548,12.6028-37.5741,18.8094-56.0784h8.8731c5.25,18.1069,12.1074,36.0319,18.8814,55.0093,1.8156-9.7569,5.52-18.2311,7.9942-27.189,2.5069-9.0762,5.32-18.1379,8.1886-27.7143h10.2084c-7.3246,22.8871-14.5425,45.4411-21.9777,68.6736-2.5286,1.67-5.9745-.2575-8.7917.6544-6.308-18.82-12.4025-37.0039-18.803-56.1-8.8582,18.6617-13.0074,37.9195-20.2214,55.8243h-7.793C295.6285,503.49,290.5016,479.9111,281.4745,456.1889Z"/><path class="cls-6" d="M113.85,501.361c-2.6732,1.0923-2.9358,4.1571-3.52,5.9462-3.1523,9.6519-10.37,13.8612-19.1742,17.0433a17.4877,17.4877,0,0,1-5.7984,1.2072c-6.3241.0964-12.65.0358-18.4108.0358-5.6342-3.2183-11.1411-5.6284-15.3217-10.3395-4.6869-5.2815-6.2712-11.551-7.3247-18.0763-.4977-3.0824.1942-6.3413-.1359-9.4692-1.16-10.9893,3.9433-19.2735,12.0212-25.5181,6.5213-5.0413,14.1534-8.8583,22.8409-8.2559,7.2514.5027,14.0947,2.9531,20.5693,6.26,5.7867,2.9558,7.5483,9.5465,12.09,13.6455-1.3382,3.9834,2.8777,6.6029,2.3422,10.7233C113.31,490.085,113.85,495.77,113.85,501.361Z"/><path class="cls-7" d="M168.7137,513.9876l-11.4554,11.4555h-17.38l-3.2562-4.5458c-.8911,1.0523-1.6153,1.5089-1.6209,1.9742-.0752,6.2677-.05,12.5366-.05,19.2026H124.5991V480.8816l3.2577-6.1419c4.8724,1.2622,5.4043,4.5273,4.5368,10.6173,6.2238-8.029,12.67-10.6249,20.3053-10.4218a16.8444,16.8444,0,0,1,16.0547,13.713c1.4626,7.1588,3.7059,14.2117.0378,21.4088C168.2339,511.1509,168.7137,512.7734,168.7137,513.9876Z"/><path class="cls-8" d="M400.6942,489.7739v35.4292h-9.56c-.0986-.1382-.8051-.667-.8063-1.1974-.0549-23.1085-.0474-46.2172-.0474-69.7414h10.4759V481.69c2.3575-1.938,3.9-4.2282,5.6552-4.4047,2.5086-.2524,3.5857-3.1851,6.4952-2.4528,2.3079.5809,4.8788.117,7.3619.117a67.3132,67.3132,0,0,1,6.684,4.061,58.4557,58.4557,0,0,1,5.3451,5.2488v40.5974c-2.4386,1.3815-4.89.51-7.6227.7238-2.5151-13.7593,2.1415-28.1443-2.7341-41.38l-7.2557-3.1823C410.4059,483.4074,404.3479,482.9228,400.6942,489.7739Z"/><path class="cls-6" d="M515.1445,454.0547h7.7966v40.5792c1.7,2.1992,3.6078,1.0962,5.43,1.4741l18.9353-19.147c2.731.525,5.2825-.8484,7.6674,1.1426l-19.7021,19.6945c7.5369,8.7648,15.3273,17.2069,21.7286,26.7986-2.0885,2.0048-4.68.5163-7.0346,1.0552-8.6293-6.4695-12.8961-17.0387-21.7587-23.1633h-4.8848v22.8968h-8.1774Z"/><path class="cls-9" d="M278.8159,525.3789H268.1584V486.7225c-3.3245-3.0691-6.7709-6.2909-10.7958-5.2067-4.6254,1.246-10.061,2.1153-12.7162,7.8207v35.397c-2.555,1.3635-5.1958.9656-7.9591.477V475.173c5.4845-1.0419,4.8367,4.0737,7.558,6.5628,5.37-4.5406,11.6905-7.6163,19.0063-6.694,5.79.73,9.106,5.5562,12.73,9.053C280.6192,497.5441,277.29,511.1644,278.8159,525.3789Z"/><path class="cls-10" d="M219.6472,514.2773l3.805,3.8049c-2.2726,3.5783-5.9073,5.4451-10.13,7.511H193.3275c-14.6338-9.7353-16.99-23.0571-11.3681-39.2714,2.68-2.463,6.0157-5.5294,10.2188-9.3927,7.4846-2.8746,16.2522-3.51,24.2445,2.5373,6.6982,5.0685,8.3406,12.0919,6.7653,20.4391H188.5291c-2.9411,9.2784,3.4379,13.9795,8.562,19.2524C204.8482,519.3231,212.8123,520.583,219.6472,514.2773Z"/><path class="cls-11" d="M467.8183,489.5637c3.004-2.2059,2.48-5.1443,3.0311-7.5876,2.85-3.7466,7.9282-3.6486,10.8323-6.5431,6.1134-2.174,11.5045.9091,17.1217,1.7681,1.36.2079,2.4515,2.1738,3.21,2.8963.435,2.9862-1.6639,3.59-2.7723,5.2167-5.9909-4.204-12.33-6.027-19.6843-1.1872l-3.0533,6.1415c4.1379,5.4347,10.4614,5.8569,15.915,7.7439,3.2,1.1071,6.4389,1.8261,8.6956,4.4631a12.589,12.589,0,0,1,.2025,16.4668c-1.9556,2.457-4.314,4.5935-6.2334,6.6061H475.6874c-1.96-2.4744-5.8757-2.1349-7.2669-5.297,2.4247-2.7406,4.8411-4.6553,8.7054-1.8028,6.3461,4.6846,12.4158,3.6179,17.9738-1.6544,1.54-2.2443.056-4.7555.8518-6.8252-3.44-4.0507-8.04-4.9716-12.5085-6.244-6.3876-1.8188-11.57-5.1448-13.9459-11.7773A14.5262,14.5262,0,0,0,467.8183,489.5637Z"/><path class="cls-12" d="M394.1336,406.6776c-4.2588,5.3687-10.048,8.2708-18.2466,6.7876-.21,4.2348-.4089,8.256-.6024,12.162-1.62,1.6142-3.4811.22-5.5973,1.2431v-35.972h15.4051c2.8774,1.7769,6.5882,2.9624,9.0412,7.3748Z"/><path class="cls-13" d="M489.41,409.9056v15.5916c-1.907,1.51-3.669.6921-5.8054.8578v-35.54h5.736v16.3923H508.432V390.7485h3.9155v35.04c-.4322.6413-1.4439.7067-3.2189.5211-1.6451-4.32.0574-9.2076-1.0106-13.9408l-2.4627-2.4628Z"/><path class="cls-14" d="M455.5392,475.1535v49.63c-2.3054,1.6045-4.8022.4814-7.1361.812-.2568-.2274-.7374-.4525-.738-.6786-.0352-15.67-.0319-31.34-.0319-47.2257C449.1847,475.29,451.604,474.3709,455.5392,475.1535Z"/><path class="cls-15" d="M359.2394,426.32h-5.9356c-2.5464-1.6862.8228-6.5346-5.2717-7.9875H333.9509c-2.0744,1.693-4.0752,3.9751-2.3832,7.8229h-6.6991c5.5544-12.04,8.5939-24.8568,15.2785-35.4357,3.23-.5049,4.7824,1.1842,5.1371,2.4688,2.9508,10.6885,9.417,19.9895,12.0139,30.7967C357.4329,424.5464,358.0993,424.98,359.2394,426.32Z"/><path class="cls-16" d="M407.2161,418.5029c-.67,6.5184-.6982,6.5-6.8387,7.51,4.7291-12.1372,9.2832-23.8251,13.8091-35.4409h5.0563c3.7439,11.8978,9.7795,23.2138,14.2172,35.9656-7.5733-.25-6.91-4.8039-7.8874-8.0349Z"/><path class="cls-17" d="M550.805,393.6292c-5.1355,2.64-11.0919.0131-16.7161,1.6465V407.21h13.8016c.6417,2.48-1.3353,2.6124-1.8847,4.0878H534.4821c-1.2594,3.5937-.6135,6.9512-.5822,10.6573h15.2168a2.954,2.954,0,0,1,1.5354,3.1432c-.4674.44-.9315,1.2546-1.4067,1.261-6.29.0853-12.5812.0569-19.2826.0569V391.0708h20.7228Q550.7453,392.35,550.805,393.6292Z"/><path class="cls-18" d="M443.2259,399.9755c5.2976-6.262,11.1676-11.1552,20.1661-9.111,1.7978,2.3187,5.7252,1.8815,6.8717,5.1677a2.9734,2.9734,0,0,1-3.7526.7468c-8.3367-4.9078-13.8575-.2076-19.3608,5.48.886,5.4794-1.8895,11.5442,3.8287,17.5195,7.1206,3.3019,9.9929,3.4547,18.2131.3093a2.2228,2.2228,0,0,1,1.2605,2.5c-6.2418,3.8289-6.2418,3.8289-17.9227,3.8285-1.9349-2.95-7.815-1.8745-7.3852-7.2376-3.2687-2.0125-1.8514-6.0536-3.981-8.9142C438.7741,407.054,444.3583,403.7989,443.2259,399.9755Z"/><path class="cls-19" d="M457.6157,457.8156V463.44c-1.7606,2.2807-3.585,3.7166-6.295,3.0508l-6.0707-5.8467,7.5278-6.96C453.9811,453.5456,456.1606,454.2056,457.6157,457.8156Z"/><path class="cls-20" d="M103.2988,502.68c-3.9575,8.3261-9.6576,12.8536-18.2462,15.0774-12.2707,3.1771-26.2509-3.4215-30.3091-15.6333-4.4725-13.4588-1.8908-25.0657,8.6419-34.7511,1.0335-.95,1.9907-1.9837,2.3113-2.305,9.2249-3.5785,17.75-4.0159,27.6114.9461.1167.1167,1.5835,1.6326,3.1032,3.0934,3.716,3.5722,6.8643,7.2946,6.9755,12.961.0854,4.3455,4.6458,8.3371.1293,13.2135C102.1184,496.7912,103.2988,500.6882,103.2988,502.68Z"/><path class="cls-20" d="M134.9512,513.64V489.4259c8.54-9.61,10.3154-10.0228,21.232-4.8865,6.7089,7.2548,3.054,16.306,4.275,24.2926-2.4357,3.5723-3.3642,7.819-8.6057,10.224h-11.95l-3.25-5.7506Z"/><path class="cls-20" d="M215.1373,495.55H187.5606c4.7559-12.153,7.7262-14.199,20.1819-14.2678q3.6894,3.7082,7.3948,7.4259Z"/><path class="cls-20" d="M385.0985,409.3535h-9.2427V395.6306c4.0347-3.0016,7.696.43,12.4133,1.8236C387.3319,401.3328,390.3216,406.0108,385.0985,409.3535Z"/><path class="cls-20" d="M340.076,398.6389c5.9359.8811,3.0268,4.8439,4.6509,7.0286,1.32,1.7763,3.8193,3.9255,3.2676,7.5167H335.3566C335.7276,407.9779,340.7461,404.2893,340.076,398.6389Z"/><path class="cls-20" d="M416.6247,396.398c3.0533,6,3.5845,11.954,7.63,17.031H409.8205C411.953,408.0913,414.1333,402.6339,416.6247,396.398Z"/></svg>