<svg id="Layer_1" data-name="Layer 1" xmlns="http://www.w3.org/2000/svg" viewBox="0 0 600 600"><defs><style>.cls-1{fill:#f08339;}.cls-2{fill:#9d5125;}.cls-3{fill:#342f30;}.cls-4{fill:#fefefe;}.cls-5{fill:#6a3b1a;}.cls-6{fill:#f8bd92;}.cls-7{fill:#fdfdfd;}</style></defs><title>awslambdaArtboard 1</title><path class="cls-1" d="M299.2,118.6c.9175-.9044,1.7216-.2317,2.5462.1813q49.2587,24.6712,98.5194,49.3385c5.7249,2.8659,11.4276,5.7824,17.2286,8.4866,2.0439.9528,2.5665,2.196,2.56,4.356q-.197,63.6093-.2347,127.2189c-.01,11.8717.0364,23.745.2508,35.614.0475,2.625-.7464,3.9916-3.12,5.1557q-27.2517,13.3673-54.3809,26.984-29.81,14.9019-59.5843,29.8759c-1.007.5034-1.9083,1.6446-3.2958.9943-1.13-1.8989-.8985-4.008-.899-6.0674q-.0153-54.8537-.0073-109.7072-.0009-84.1182-.0024-168.2365A12.1137,12.1137,0,0,1,299.2,118.6Z"/><path class="cls-2" d="M299.2,118.6c1.0471,1.13.5629,2.5217.5632,3.7864q.0366,139.8478.0182,279.6956c0,1.5742-.061,3.1485-.0928,4.7229-11.7966-5.7706-23.6642-11.4026-35.1744-17.7429-.3-6.7116-.0358-13.427-.1506-20.1395-.017-.992.3493-2.0531-.3361-2.9785l.0295.0652c-1.2689-1.44-.8943-3.2108-.8969-4.8634q-.045-29.3825-.0188-58.7652,0-69.0774.0211-138.1549c.0011-1.8334-.46-3.7991.913-5.4244.0654-6.8515.1561-13.703.1749-20.5546.0039-1.4072.17-2.3971,1.6716-3.132C277.0442,129.67,288.1137,124.1179,299.2,118.6Z"/><path class="cls-1" d="M264.0752,158.8009c.0224,1.0359.0641,2.0717.0642,3.1075q.0046,100.4972-.0008,200.9941c0,1.0354-.0534,2.0707-.0818,3.1062l-27.6644,8.8234c-1.1892-1.2342-.9447-2.8082-.9507-4.288-.0332-8.2007-.0153-16.4016-.0154-24.6024q-.0017-95.7234-.0017-191.4468a11.6837,11.6837,0,0,1,.4229-4.1931c.7282-.6766,1.4308-.0961,2.0833.1116Q251.0126,154.5771,264.0752,158.8009Z"/><path class="cls-2" d="M235.8475,150.3018c.9013,1.0739.4831,2.3546.4835,3.5346q.0323,107.9555.021,215.9107c0,1.6953.0256,3.3905.04,5.0854-.6012.3119-1.0693-.0523-1.5658-.3017-6.2844-3.1565-12.5438-6.3647-18.8741-9.4261a3.223,3.223,0,0,1-2.0714-3.4683c.0828-3.65-.07-7.3058-.1257-10.9591-1.2314-1.4448-.9436-3.2034-.9452-4.8721q-.03-30.8124-.0127-61.6246,0-52.1547.0138-104.3094c.0009-1.7595-.3334-3.6147.9222-5.1656l-.029.0359c.727-3.2747.1407-6.5935.3327-9.8861a16.023,16.023,0,0,1,.1677-3.581C221.239,157.2623,228.5807,153.8561,235.8475,150.3018Z"/><path class="cls-1" d="M213.7329,174.7056c.02,3.3889.059,6.7778.0585,10.1667q-.0141,82.9025-.0367,165.8049c-6.03,1.3128-11.9418,3.1633-18.0837,3.9655-1.2431-1.4381-.9591-3.1962-.9611-4.8653q-.031-25.434-.0123-50.8681-.0012-62.0307-.0019-124.0615a11.8914,11.8914,0,0,1,.4191-4.1914c4.4566.1808,8.6044,1.88,12.9445,2.6453C209.9734,173.64,211.8431,174.23,213.7329,174.7056Z"/><path class="cls-2" d="M195.1148,170.6564c.94,1.0577.5124,2.3434.513,3.5194q.0453,90.2334.043,180.4669c-4.928-1.8759-9.4509-4.5954-14.2134-6.8148-1.4147-.6594-1.039-1.853-1.04-2.9214q-.0217-23.0452-.0089-46.0905,0-58.9564-.0556-117.9126c-.0043-2.19.5474-3.4024,2.5854-4.3108C187.06,174.7553,191.0629,172.6507,195.1148,170.6564Z"/><path class="cls-3" d="M139.5076,479.16q-2.8115,11.61-5.6226,23.2193c-1.0381,4.2878-2.2227,8.5474-3.0572,12.8744a4.374,4.374,0,0,1-4.4633,3.9861c-.21.0167-.4193.0392-.6289.0582-10.8023.9825-11.39.5464-14.1211-9.9009q-5.7768-22.1-11.6167-44.1835c-1.3869-5.2739-.9525-5.8413,4.4775-5.8761,6.9545-.0446,6.9269-.0383,8.502,6.8666,3.03,13.284,6.0948,26.56,9.8,39.91,1.1169-4.4709,2.2609-8.9351,3.345-13.414,2.3723-9.8012,4.8117-19.5881,7.0065-29.4293.6276-2.8137,2.0978-3.7671,4.7425-3.9259,8.45-.5072,8.63-.4038,10.6314,7.6015q4.6625,18.6486,9.3544,37.29a4.9272,4.9272,0,0,0,1.07,2.4623c3.3813-14.5694,6.8307-28.95,9.9819-43.395.6705-3.0732,2.199-3.8921,4.9442-3.9793,7.5578-.24,7.9232.177,6.0011,7.4q-6.279,23.5969-12.5388,47.1992c-1.2432,4.6841-1.9007,5.226-6.6774,5.4208-10.3154.4208-10.3086.4191-12.8259-9.5564q-3.8538-15.2711-7.7313-30.5361Z"/><path class="cls-3" d="M351.9659,481.0517c12.3832-9.7156,20.2544-9.5883,26.7625.4612,1.227-1.1112,2.4138-2.2322,3.6493-3.2965,5.0592-4.3581,10.7628-5.6677,16.9941-3.0586,5.9342,2.4847,7.8245,7.7913,8.016,13.5828.306,9.25.1149,18.5171.1324,27.7769.0007.3155.1068.7168-.0441.9336-2.2013,3.1652-5.4776,1.6628-8.3285,1.7708-1.7.0644-3.2084-.397-3.1628-2.871.1375-7.4686.0369-14.9415.0513-22.4127a15.2947,15.2947,0,0,0-1.0369-6.1713c-1.5038-3.4972-5.0735-4.9591-8.3169-3.0592-3.6807,2.1559-6.6567,4.6928-6.3287,9.8775.4441,7.0222-.0061,14.0966.1718,21.1424.0638,2.5271-.987,3.4163-3.2168,3.5541-.42.026-.84.0608-1.26.0771-6.8583.2681-7.1158.0269-7.1161-6.6463,0-6.5241-.0122-13.0483.0047-19.5725a12.7123,12.7123,0,0,0-1.1377-5.8207,5.5676,5.5676,0,0,0-5.9045-3.31c-3.9552.3389-8.354,5.187-8.3563,9.172-.0044,7.4712-.115,14.945.0588,22.4123.0625,2.6844-1.1229,3.5736-3.4578,3.7065-.21.012-.42.03-.63.0436-7.2073.4607-7.6325.066-7.6325-7.0844q0-16.1,0-32.2c0-4.5637.2915-4.8664,4.7081-4.9235,4.78-.0618,5.1635.2784,5.28,4.66C351.8756,480.1711,351.9243,480.545,351.9659,481.0517Z"/><path class="cls-3" d="M430.6332,479.5983c2.885-2.3192,5.342-4.2628,8.4262-5.0958,8.8373-2.3868,16.5843,1.56,19.5765,10.2823a35.9562,35.9562,0,0,1-.08,24.1387c-4.4559,12.6138-18.2158,15.6919-27.8231,6.3454-.4262-.4147-.5637-1.1262-1.0716-1.4621-1.1589,5.3636-3.0248,6.5213-8.37,5.4347a2.4684,2.4684,0,0,1-2.3384-2.7571q.0523-29.1948-.0075-58.39a2.6026,2.6026,0,0,1,2.5425-2.9364c.5185-.0833,1.0391-.1653,1.562-.207,6.8763-.548,7.5835.0958,7.5835,6.8828Z"/><path class="cls-3" d="M71.5775,505.4658c-2.9481,0-5.9017.108-8.8423-.0406-1.7582-.0889-2.6373.3993-3.11,2.1876-.7771,2.9373-1.9658,5.7648-2.7623,8.698a3.7146,3.7146,0,0,1-3.5416,2.9727c-8.599,1.18-9.58.0348-6.7516-8.0789,5.5273-15.8586,11.1334-31.69,16.5423-47.5891,1.0539-3.0977,2.7582-4.2485,5.9485-4.3,10.4493-.1668,10.4608-.256,13.8864,9.4676q7.9521,22.572,15.8668,45.1573c1.7046,4.8691,1.3029,5.3857-3.9331,5.4218-7.3631.0506-7.3631.0506-9.6293-6.7861-2.3571-7.1109-2.3571-7.1109-9.8831-7.1109Z"/><path class="cls-3" d="M498.6754,513.697c-3.3247,2.9268-6.4005,5.5728-10.5971,6.4828-8.2909,1.7977-15.66-1.741-18.6186-9.6444a35.3031,35.3031,0,0,1,.2137-26.19c4.4113-10.9322,16.4832-13.8087,25.7159-6.4353.4071.3252.81.6561,1.4567,1.181.6634-2.842.2731-5.52.3181-8.1591.0736-4.3124.0869-8.6284-.0115-12.94-.039-1.7092.6253-2.5621,2.2484-2.7684a27.6063,27.6063,0,0,1,2.8129-.2978c6.1428-.1449,6.44.1472,6.44,6.0946q0,26.8288,0,53.6577c0,4.3471-.2761,4.629-4.5465,4.6828-4.7937.0605-5.031-.154-5.174-4.6427A7.4675,7.4675,0,0,0,498.6754,513.697Z"/><path class="cls-3" d="M202.9562,520.7025c-5.6047-.2393-10.4172-1.1559-14.7352-3.84-2.4548-1.5257-3.8221-8.2406-2.2087-10.5522,1.1344-1.6255,2.2316-.4539,3.234.1524,4.3105,2.6074,8.8469,4.3393,14.0007,4.0662a11.5814,11.5814,0,0,0,5.1326-1.3564,6.6525,6.6525,0,0,0,1.4738-10.7116,20.8148,20.8148,0,0,0-5.8369-3.6757c-3.0059-1.4935-6.1263-2.792-9.0045-4.5-6.9993-4.1525-9.6817-10.5948-8.1164-18.8594,1.2379-6.5355,6.58-11.3511,14.0019-12.7734a28.8687,28.8687,0,0,1,17.2823,1.8486c2.7007,1.1691,4.1067,8.1216,2.1864,10.2723-1.0483,1.174-1.9731.1652-2.8057-.24-3.6277-1.767-7.3142-3.205-11.4546-2.982-3.1552.17-5.8312,1.1681-6.9731,4.4037-1.093,3.097.094,5.9525,3.3611,8.0483a53.7944,53.7944,0,0,0,5.3007,2.759c2.0675,1.0211,4.2052,1.908,6.2309,3.004,8.4719,4.5841,11.4671,10.3193,10.1869,19.3321-1.0345,7.2835-7.0047,13.1257-15.2835,14.8172C206.7748,520.356,204.56,520.498,202.9562,520.7025Z"/><path class="cls-3" d="M319.7945,514.8722c-3.1248,2.4385-6.1192,4.9562-10.11,5.5018-11.0649,1.5127-19.8538-5.0854-17.2371-17.024,1.1813-5.39,6.1339-8.9044,13.6071-9.9173a50.2773,50.2773,0,0,1,10.072-.57c1.8894.125,2.243-.6341,2.21-2.35-.1064-5.4711-2.2347-7.6707-7.6278-7.8127-3.8908-.1025-7.4267,1.0886-10.986,2.4588-1.4989.577-3.2471,2.7921-4.8537.0958-1.3681-2.2961-.56-6.3053,1.5274-7.6371a23.5406,23.5406,0,0,1,8.25-3.0027,33.8693,33.8693,0,0,1,12.2362-.3185c8.3726,1.3953,12.2462,5.003,12.64,13.4951.4477,9.6669.1354,19.3682.2062,29.0542a2.105,2.105,0,0,1-2.0218,2.3251,15.7909,15.7909,0,0,1-2.5129.1856C320.6157,519.4255,320.4569,519.2933,319.7945,514.8722Z"/><path class="cls-3" d="M546.0534,514.8645c-1.0677.8182-2.0288,1.56-2.9953,2.2944-4.9326,3.7488-10.3709,4.3327-16.1339,2.4461-5.4566-1.7861-8.4366-5.9093-8.73-11.85-.2825-5.723,2.2822-10.1014,7.4284-12.3971,5.1164-2.2823,10.5875-2.6807,16.075-2.467,2.437.0949,3.0378-.6438,2.8645-2.9847-.367-4.96-2.3614-7.01-7.2783-7.2029-3.9979-.1568-7.6461,1.0174-11.305,2.4426-1.4954.5825-3.24,2.7968-4.8666.1335-1.38-2.2593-.58-6.322,1.4907-7.6482a23.4665,23.4665,0,0,1,8.2463-3.0114,33.8314,33.8314,0,0,1,12.2362-.3285c8.3927,1.397,12.2638,4.9839,12.6633,13.4719.4551,9.6663.1378,19.368.2113,29.054a2.0989,2.0989,0,0,1-1.9956,2.3457,17.8231,17.8231,0,0,1-2.828.1921C546.8049,519.39,546.6571,519.2571,546.0534,514.8645Z"/><path class="cls-3" d="M255.4054,488.72c-.0006-8.531.0915-17.0635-.058-25.5919-.0435-2.479.9558-3.4572,3.1917-3.652.1048-.0092.209-.0264.3134-.04,7.5694-1.0176,8.7982.0353,8.7982,7.539,0,12.9543.0717,25.9095-.06,38.8625-.0266,2.6152.3842,3.6918,3.344,3.5028,4.72-.3014,9.4753-.0078,14.2123-.114,2.0533-.046,2.8967.845,2.9611,2.7565.0142.4209.0418.8414.0547,1.2624.1837,5.9787.0422,6.1237-5.9655,6.1236-7.2671,0-14.5342.0125-21.8013-.0056-4.1058-.01-4.9686-.8677-4.9819-5.05C255.387,505.782,255.4061,497.251,255.4054,488.72Z"/><path class="cls-1" d="M264.0273,365.9436c.6777.4284.5795,1.121.5773,1.7637q-.0367,10.679-.0895,21.3561c-.7239-4.4324-.1653-8.8938-.3145-13.3388C264.0912,372.4661,264.0814,369.2041,264.0273,365.9436Z"/><path class="cls-1" d="M214.2043,161.2744q.0393,5.8569.0749,11.7139c.003.64.0892,1.3241-.5752,1.753.0459-3.6019.0687-7.2046.1546-10.8058C213.88,163.0475,213.527,162.0855,214.2043,161.2744Z"/><path class="cls-2" d="M335.9779,306.0506,336,219.2357c1.0583-1.1234,2.4994-1.26,3.8906-1.4229,4.8592-.5678,9.702-1.2623,14.5586-1.8471,1.21-.1457,2.4687-.2828,3.3672.8761a9.3,9.3,0,0,1,.547,4.1618q.0125,41.6532,0,83.3066a10.0617,10.0617,0,0,1-.4991,4.1707c-.8417,1.2341-2.1053,1.07-3.2942.88-5.26-.8412-10.5535-1.422-15.8382-2.0712A4.4288,4.4288,0,0,1,335.9779,306.0506Z"/><path class="cls-2" d="M403.7169,207.085c1.0919.6155.6654,1.6732.6659,2.5435q.0318,52.7367.0033,105.4735c0,.9847.3687,2.1114-.68,2.87a42.0808,42.0808,0,0,1-17.7894-2.5665,4.8018,4.8018,0,0,1-.5337-2.4577c.0076-12.33-.1756-24.6609.088-36.9833a5.6934,5.6934,0,0,1,1.61-3.7732c2.3682-2.78,4.5646-5.7049,6.9934-8.4318.702-.7881.7354-1.1757.0029-2.0084-2.4107-2.7407-4.7085-5.5817-6.97-8.4508a6.1142,6.1142,0,0,1-1.6242-3.7959c-.2709-12.3933-.0988-24.7808-.0929-37.1678a5.0521,5.0521,0,0,1,.4362-2.1911c1.4474-1.6912,3.5873-1.4422,5.4427-1.7332C395.3884,207.7663,399.4957,206.8334,403.7169,207.085Z"/><path class="cls-4" d="M386.1652,209.8812l.0342,40.6825c-1.3726.1889-2.0171-.861-2.7133-1.6953-8.0712-9.6717-15.9158-19.53-24.03-29.1673a13.7049,13.7049,0,0,1-1.9632-3.0855L336,219.2357q.0009-11.1472.0013-22.2945c1.2035-.6869,2.3973-.2034,3.557.0954,14.6593,3.7768,29.3347,7.492,43.9564,11.4134C384.5016,208.7146,385.5611,208.8881,386.1652,209.8812Z"/><path class="cls-4" d="M386.19,274.8788q.0558,20.3446.1115,40.6894c-3.2439,2.3311-7.2051,2.4885-10.8706,3.4566-12.1505,3.2089-24.2927,6.4536-36.4878,9.4922-.95.2367-1.9366.9021-2.8912-.0224q-.0371-11.2218-.074-22.4438,10.7309,1.3434,21.4612,2.6872c3.3071-4.9215,7.3229-9.2813,11.0587-13.8594q7.391-9.0575,14.8764-18.0394C384.1246,275.9417,384.6533,274.6706,386.19,274.8788Z"/><path class="cls-5" d="M386.1652,209.8812l-50.1643-12.94c-.0253-2.7256.0146-5.4537-.1012-8.1753-.07-1.65.3229-2.126,2.0467-1.6,13.47,4.1079,26.9676,8.1259,40.449,12.1971,8.4477,2.5511,16.8821,5.1461,25.322,7.7217C397.9572,208.5869,392.0352,209.0708,386.1652,209.8812Z"/><path class="cls-6" d="M336.0516,328.4946q24.2975-6.3259,48.5967-12.6457c.5388-.14,1.1015-.1889,1.653-.2805q8.7022,1.2012,17.4045,2.4032c-6.6339,2.6693-13.5952,4.3007-20.4091,6.3927-14.6431,4.4956-29.3368,8.8265-44.0073,13.2334-3.359,1.009-3.37,1.025-3.355-2.6074C335.9433,332.8249,336.0105,330.66,336.0516,328.4946Z"/><path class="cls-4" d="M430.6394,496.2532c-.9554-4.0707.5144-7.9394,4.8517-10.7309,4.6532-2.995,9.66-1.6939,11.6056,3.4591a21.9205,21.9205,0,0,1,.0526,16.026c-2.31,5.94-7.7517,7.2417-12.6636,3.2426C430.6877,505.1578,430.6394,505.018,430.6394,496.2532Z"/><path class="cls-4" d="M71.4848,470.6805c.5375,1.4909.8367,2.2707,1.1011,3.0621,2.4227,7.2544,4.84,14.5108,7.3459,22.03H63.1836C65.8648,487.6681,68.5368,479.5916,71.4848,470.6805Z"/><path class="cls-4" d="M496.9722,497.2269c1.1387,4.9223-.2744,8.79-4.6172,11.6217-4.915,3.205-10.072,1.8478-12.0144-3.6517a21.4957,21.4957,0,0,1,.3232-16.3206c2.2611-5.0949,7.0087-6.2541,11.7329-3.285C496.8579,488.3951,498.011,492.3468,496.9722,497.2269Z"/><path class="cls-7" d="M318.3024,504.06c-.0016,5.7884-6.6874,10.0554-11.8258,7.796a5.03,5.03,0,0,1-3.15-4.3377,5.2912,5.2912,0,0,1,2.4351-5.417c3.61-2.2523,7.7005-1.9086,11.6078-1.5338C319.38,500.76,317.7183,503.0756,318.3024,504.06Z"/><path class="cls-7" d="M540.4768,500.4385c1.0963.4339,3.5448-.9977,3.83.7532.3869,2.3753,1.2731,5.2227-.9086,7.4381-2.3559,2.3923-5.0078,4.13-8.5816,3.7511-2.811-.2984-4.7574-1.6915-5.21-4.5634a5.413,5.413,0,0,1,3.2082-6.1866A15.9664,15.9664,0,0,1,540.4768,500.4385Z"/><path class="cls-1" d="M386.19,274.8788c-3.2986,3.1008-5.8843,6.8132-8.7648,10.27-6.0253,7.2305-11.9625,14.5343-17.97,21.78-.5675.6844-.9166,1.69-2.0166,1.8094q.0272-46.0615.0541-92.1227c5.0818,5.16,9.3093,11.0421,13.9755,16.553,4.3148,5.0957,8.471,10.3255,12.7257,15.4725.5858.7086,1.0379,1.5964,2.0061,1.9219,2.2949,3.9989,5.614,7.2021,8.4456,10.7816.8782,1.11.88,1.6484.0161,2.7705C391.8758,267.7337,388.5485,270.9279,386.19,274.8788Z"/></svg>