<svg id="Layer_1" data-name="Layer 1" xmlns="http://www.w3.org/2000/svg" viewBox="0 0 600 600"><defs><style>.cls-1{fill:#f3811f;}.cls-2{fill:#faac40;}.cls-3{fill:#545559;}.cls-4{fill:#55565a;}.cls-5{fill:#56575b;}.cls-6{fill:#58595d;}.cls-7{fill:#525357;}.cls-8{fill:#434449;}.cls-9{fill:#f27a00;}.cls-10{fill:#f7f7f7;}.cls-11{fill:#fafafa;}.cls-12{fill:#efefef;}.cls-13{fill:#f6f6f6;}</style></defs><title>cloudflareArtboard 1</title><path class="cls-1" d="M377.9334,331.4539c20.8709,6.75,29.9585,25.2457,21.5667,43.365-2.9589,6.3888-8.0056,7.6174-14.248,7.6145-107.9408-.05-215.8826-.2418-323.8216.2065-14.8066.0614-14.4852-8.9243-14.4171-18.5208.24-33.7616,25.2489-63.9519,61.8462-72.4266,9.8752-2.2868,11.9659-4.7338,12.478-14.9046,2.1063-41.8362,35.3381-65.0264,74.2366-50.573,15.3883,5.7177,16.2222-3.1636,21.1-11.6084,26.1418-45.2572,65.5213-67.6322,117.7248-63.8166,47.7079,3.4871,81.7281,28.6349,101.1077,72.2721,18.14,40.8458-16.9789,92.9876-63.5963,94.0208-54.68,1.2118-109.3914.9543-164.0858,1.6159-6.88.0831-14.4872-2.3125-24.3063,6.628l45.4178,5.0634c21.2661,5.88,42.97,2.29,64.4259,2.4144C321.5377,332.9677,349.8037,335.1625,377.9334,331.4539Z"/><path class="cls-2" d="M511.5543,323.5945c-12.8549-7.6781-26.7391-4.9416-40.07-6.1152-12.5054-1.1009-23.5626-5.2334-26.967-18.1831-4.2575-16.1948.1283-31.8084,8.7822-45.7295,1.51-2.4282,7.988-2.3334,12.1945-2.4334,54.004-1.2836,105.2288,59.777,95.2522,112.788-2.3285,12.3733-6.625,18.8548-20.9156,18.497-37.1089-.929-74.2628-.7067-111.3862-.1347-17.0906.2633-19.1264-5.812-10.6906-19.1309,12.5069-19.7463,29.81-31.1939,53.4988-32.6354C484.7588,329.6954,498.6554,331.1425,511.5543,323.5945Z"/><path class="cls-3" d="M505.5022,524.82c-9.2971,2.8642-14.4952.0649-17.8829-6.9209-1.0664-2.1992-2.5023-4.6193-5.4978-4.0473-3.4114.6514-2.8338,3.6762-2.6266,5.9828.3964,4.4136-.9653,6.1366-5.7626,6.2243-5.2476.0959-5.5555-2.4516-5.4832-6.4624.1715-9.5161.2553-19.0435-.0343-28.5539-.1373-4.509,1.1266-6.3826,5.8853-6.0476,5.9671.42,12.0516-.3146,17.9487.4734,9.862,1.3177,17.1381,11.498,11.6663,17.91C496.34,512.02,499.4291,517.7108,505.5022,524.82Z"/><path class="cls-4" d="M146.7179,505.7324c-.0246-12.1681,8.9617-21.0185,21.4159-21.092,13.2126-.078,22.4183,8.7817,22.1966,21.3624-.21,11.9133-9.7169,20.8328-22.0454,20.6829C155.448,526.53,146.7429,518.0722,146.7179,505.7324Z"/><path class="cls-3" d="M521.395,504.591c0-19.5283,0-19.5284,19.9462-19.52,2.1258.0009,4.252-.02,6.3774.01,3.0776.0438,6.3894-.8245,6.35,4.4207-.0381,5.1149-2.7191,5.7851-6.7587,5.6339-3.537-.1324-7.0876-.068-10.6257.0723-1.6917.0671-3.6988.08-3.9273,2.5076-.2791,2.965,1.8458,3.4721,4.0421,3.566,3.5377.1512,7.0843.1632,10.6262.1338,3.0174-.025,4.5334,1.1966,4.4845,4.3885-.05,3.2408-1.7706,4.35-4.6952,4.3187a9.613,9.613,0,0,0-3.1711.08c-3.77,1.3414-11.2487-3.3779-10.9039,3.5829.2982,6.0195,7.6092,1.8474,11.6229,2.9975,3.0989.8879,7.5865-2.1592,9.2156,2.4534,1.0085,2.8555,1.2363,6.687-3.8323,6.76-2.48.0358-4.96.0369-7.44.0411C521.395,526.0737,521.395,526.0729,521.395,504.591Z"/><path class="cls-5" d="M204.4917,499.6752c.0074-3.54.1269-7.0845-.0228-10.6178-.1892-4.4683,2.8616-3.942,5.6981-4.0029,3.018-.0648,5.6271-.04,5.47,4.2449-.2067,5.6554-.03,11.3251-.0092,16.9885.02,5.5431,1.735,10.2419,8.121,10.1083,5.9337-.1242,7.1449-4.7286,7.0891-9.81-.0583-5.3088.1489-10.6241-.0371-15.9268-.1393-3.9711,1.2032-5.7462,5.4381-5.7708,4.3053-.025,6.7334.978,6.4024,5.8837-.2853,4.2284-.0277,8.4916-.0647,12.7389-.1445,16.5954-5.459,22.7331-19.62,22.7-13.7929-.0319-18.2616-5.422-18.47-22.2885C204.4691,502.5072,204.4843,501.0911,204.4917,499.6752Z"/><path class="cls-4" d="M89.467,511.1868C85.64,522.1887,78.4028,527.2705,67.51,526.6426c-9.742-.5615-18.06-7.2606-19.99-16.0991a21.089,21.089,0,0,1,11.5053-23.8129c8.7872-4.2621,19.8584-2.3517,26.2253,4.7434,2.2718,2.5317,6.245,6.2,3.6862,8.8-2.7,2.7443-8.0316,2.382-11.5-.9949-1.7991-1.7516-3.3974-3.4881-5.9428-4.1352-5.2045-1.3231-8.9958.6361-11.5808,5.04-2.89,4.9239-1.9857,9.6343,1.8877,13.5351,3.6458,3.6716,8.5816,4.9127,12.35,1.1846C78.832,510.2719,83.6944,509.712,89.467,511.1868Z"/><path class="cls-5" d="M452.697,524.4191c-10.2631,7.3064-13.7558-5.8666-22.4391-6.1105-8.6987-.2444-11.2346,13.6388-21.4717,5.9958,4.9078-11.6953,9.7549-23.9727,15.2357-35.96,2.2994-5.03,11.2657-5.0968,13.5245-.1068C443.0056,500.2968,447.8172,512.65,452.697,524.4191Z"/><path class="cls-4" d="M277.026,485.5158c13.9591,1.05,20.973,6.7721,21.8515,17.8276.9381,11.807-4.24,18.23-17.6236,21.8619a7.6736,7.6736,0,0,0-2.0218-.6115c-18.046-1.0287-18.0463-1.024-18.0463-18.711v-2.122C261.1858,487.2672,261.1858,487.2672,277.026,485.5158Z"/><path class="cls-4" d="M315.5057,505.4185c.001-20.3648.001-20.3651,20.1207-20.353,2.47.0015,4.9464.1276,7.4076-.0149,3.417-.1979,5.2758.8844,5.08,4.6994-.1612,3.1383-.65,5.6342-4.5636,5.6064-3.8806-.0275-7.7634-.031-11.642.0744-2.47.0671-5.2479-.0112-4.8928,3.767.28,2.9761,2.5907,2.8353,4.6907,2.8893,2.1156.0544,4.2534-.1623,6.3459.0662,3.3978.3711,8.4314-1.9378,8.2948,4.7535-.1219,5.975-4.6642,3.7783-7.7432,4.2358a11.45,11.45,0,0,1-3.1691.0006c-6.1274-.8241-9.5162,1.1482-8.6154,7.982.6,4.5522-.61,7.2069-6.1738,7.0509-5.433-.1522-5.2117-3.3232-5.1571-6.9978C315.5565,514.5927,315.5047,510.0052,315.5057,505.4185Z"/><path class="cls-6" d="M103.0118,505.6492c0-4.584.2152-9.181-.06-13.7483-.2822-4.6765.7958-7.1028,6.2713-7.0008,5.0008.0932,5.9229,2.3748,5.6766,6.5254-.1877,3.1624.2242,6.3708-.0867,9.5136-1.0185,10.2938-.0958,18.5115,13.863,15.5432,3.3235-.7067,6.0748.0668,6.089,4.8083.0146,4.8855-2.8575,4.8359-6.1929,4.7783-1.7624-.03-3.526-.0022-5.289.0011C103.0121,526.1081,103.0121,526.1081,103.0118,505.6492Z"/><path class="cls-7" d="M364.2436,504.7469c-.0012-4.5929.0947-9.1885-.0325-13.7779-.0961-3.4664-.0468-6.2,4.8178-5.9823,3.9445.1769,7.0364.2634,6.4984,5.508a83.6088,83.6088,0,0,0-.0545,8.474c-.0033,15.5062-.0134,15.5905,15.0436,17.4182,3.1591.3835,5.3087.8324,5.4173,4.7347.1073,3.8563-1.6839,4.9949-5.0825,4.8816-1.764-.0587-3.5324.01-5.2987.0211C364.2448,526.16,364.2448,526.16,364.2436,504.7469Z"/><path class="cls-8" d="M277.026,485.5158c-14.7961,4.3362-14.7961,4.3362-14.7942,21.415a37.5084,37.5084,0,0,1-.0353,5.2839c-1.2411,8.6462,2.0909,12.5375,11.0569,11.3158,2.7088-.369,5.692-.5654,8,1.6748-21.1485,1.7728-21.1485,1.7728-21.1485-18.6963q0-2.6569,0-5.3139C260.1053,484.6362,260.1053,484.6362,277.026,485.5158Z"/><path class="cls-9" d="M377.9334,331.4539c-28.93,8.5839-58.5208,2.938-87.7437,3.28-20.326.2381-41.5095,5.808-61.2533-4.3438Q303.435,330.9219,377.9334,331.4539Z"/><path class="cls-10" d="M485.8993,504.9034c-4.2764.3567-6.6271-.468-6.5874-4.9464.0429-4.828,3.0962-4.7046,6.3353-4.5872,3.4608.1255,7.8268-.1934,7.6081,4.7893C493.0505,504.8228,488.5926,504.4277,485.8993,504.9034Z"/><path class="cls-11" d="M157.9419,506.3959c.1265-7.3524,3.6968-11.5627,10.2762-11.658,6.6095-.0958,10.546,4.3293,10.666,10.8147.1208,6.5347-3.8086,10.9936-10.3456,11.1513C161.8614,516.8649,158.58,512.3175,157.9419,506.3959Z"/><path class="cls-12" d="M431.4819,498.8652c.3042,4.94,5.2292,7.4462,1.21,11.1395-.8807.8093-4.37.5631-4.791-.212C425.8191,505.9657,428.4662,503.2546,431.4819,498.8652Z"/><path class="cls-13" d="M270.8,506.122c1.3722-4.2077-2.9427-11.099,6.191-10.4748,6.886.4706,10.4222,4.2574,10.3224,10.716-.1054,6.8149-5.055,9.9722-11.1766,10.1766C267.1058,516.8415,272.9626,509.3136,270.8,506.122Z"/></svg>