<svg id="Layer_1" data-name="Layer 1" xmlns="http://www.w3.org/2000/svg" viewBox="0 0 600 600"><defs><style>.cls-1{fill:#fecb01;}.cls-2{fill:#fea601;}.cls-3{fill:#f78500;}.cls-4{fill:#f79121;}.cls-5{fill:#404040;}.cls-6{fill:#454545;}.cls-7{fill:#464646;}.cls-8{fill:#fefefe;}.cls-9{fill:#fdfdfd;}</style></defs><title>firebaseArtboard 1</title><path class="cls-1" d="M346.6946,150.2266c8.8414-6.9029,16.04-15.5147,24.1151-23.2162,5.68-5.4172,11.1407-11.0635,16.7249-16.5816,1.0822-1.0694,2.0677-2.72,3.8784-2.1257,1.7427.5721,1.74,2.5253,1.9871,3.9461,3.2736,18.8622,6.4147,37.7474,9.6537,56.6156q9.6685,56.3231,19.3962,112.636c2.2841,13.2842,4.39,26.6006,6.8382,39.854.8578,4.6434-.7722,7.3761-4.7276,9.5363q-60.2712,32.9161-120.4413,66.0169c-4.2558,2.3449-7.8753,2.3-12.0752-.0718Q233.7672,363.924,175.378,331.2105c-3.0116-1.6929-6.2115-3.3643-3.1137-7.5894a23.259,23.259,0,0,1,5.0188-6.4621c28.8781-28.8519,57.3144-58.1634,86.7552-86.4289,19.2533-18.4846,37.9091-37.5484,56.9955-56.1859,6.957-6.7682,13.7184-13.7332,20.64-20.5364C343.1693,152.5382,344.4072,150.6679,346.6946,150.2266Z"/><path class="cls-2" d="M173.2594,318.9518c1.3051-15.0089,4.3543-29.7617,6.62-44.6279,4.3856-28.7766,9.0048-57.5177,13.5408-86.2713q6.805-43.1365,13.6341-86.2691,4.3869-27.7923,8.7277-55.5917c.351-2.2579-.13-5.5368,2.1785-6.1169,2.4327-.6112,3.4464,2.6649,4.8014,4.46q28.337,37.5338,56.61,75.1161a32.0569,32.0569,0,0,0,2.3535,2.5267,1.9,1.9,0,0,1,.323,1.6648c-16.0134,30.2836-32.7562,60.1742-49.0734,90.2954-12.7773,23.5866-25.9049,46.9809-38.5553,70.636-5.3543,10.0122-10.97,19.8823-16.2815,29.9194C177.1289,316.5991,176.309,319.1809,173.2594,318.9518Z"/><path class="cls-3" d="M173.2594,318.9518c5.2651-5.4665,7.7043-12.6582,11.26-19.1057,22.3631-40.5483,44.3525-81.3025,66.4832-121.979q13.7365-25.2477,27.544-50.4567c.8335-1.5258,1.3463-3.3158,3.1946-4.0445,2.479-.694,3.5157,1.244,4.6313,2.7231q16.9036,22.4127,33.7167,44.8935c.9427,1.2621,1.8157,2.5528,1.6783,4.2426-17.0577,17.87-34.3559,35.4987-52.5053,52.2724-1.44,1.3305-2.8854,2.657-4.2721,4.0417q-43.7514,43.6884-87.5,87.38c-1.6566,1.6531-3.48,3.1387-5.2262,4.7021C172.222,321.985,172.0667,320.3248,173.2594,318.9518Z"/><path class="cls-4" d="M321.7677,175.2251Q303.5571,151.139,285.38,127.0277c-1.0657-1.4193-2.0061-2.8538-3.6387-3.6615q-.0082-.5946-.0165-1.1888c5.05-9.0293,10.1308-18.0418,15.134-27.0972,1.7773-3.2169,3.6027-4.6832,6.438-1.0082q21.6755,28.0949,43.3973,56.1545A284.43,284.43,0,0,1,321.7677,175.2251Z"/><path class="cls-5" d="M288.1675,454.8906c4.46-2.4786,7.4407-5.5088,11.4789-6.6724,13.0376-3.7569,26.2517,2.3524,31.3465,15.2895a52.7688,52.7688,0,0,1,.0326,40.0032c-6.9707,17.3627-26.1461,21.7491-40.64,9.6971-.6432-.5348-1.3919-.9428-2.4174-1.6274-2.2075,2.3631.8676,7.9179-5.6192,7.5857-9.2038-.4713-9.2371.1571-9.2372-9.1576-.0006-28.4618.1854-56.9259-.1563-85.3836-.0686-5.7126,2.1106-6.627,6.8169-6.18,4.0586.3855,9.026-1.71,8.5434,5.9978C287.7031,434.2277,288.1675,444.08,288.1675,454.8906Z"/><path class="cls-5" d="M404.929,484.1187c.4073,12.4062-.67,22.1615,2.127,31.6595a3.5518,3.5518,0,0,1,.0238,2.5121c-1.1495,1.827-14.6024.53-15.064-1.5872-1.1911-5.4646-3.0908-3.3411-6.0486-1.3179a25.602,25.602,0,0,1-21.4495,3.7535c-9.285-2.3075-15.932-9.4044-16.7286-18.18-.8333-9.18,3.9232-17.09,12.7359-21.1274,7.8635-3.6027,16.2982-3.7544,24.668-3.6085,4.2.0732,5.3738-1.2734,5.0167-5.29-.5109-5.7464-2.2563-10.34-8.4216-11.991-7.1523-1.9153-13.5058.2936-16.7346,5.8331-1.4311,2.4553-12.2671,4.4276-14.6479,2.7223-1.2024-.8614-.8559-1.932-.4852-2.9135a22.9541,22.9541,0,0,1,4.4773-7.97c9.787-10.44,29.69-12.6645,41.4578-4.4524a20.4591,20.4591,0,0,1,9.0295,16.8148C405.0982,474.93,404.929,480.8982,404.929,484.1187Z"/><path class="cls-5" d="M44.1232,470.8963c0-14.1306.1263-28.2632-.0837-42.3907-.056-3.7679,1.0379-4.8474,4.8057-4.8038,16.7779.1937,33.5667.37,50.3355-.0663,6.1048-.1587,4.5807,3.4409,4.8654,6.7187.3364,3.872-.2817,5.96-5.1347,5.7873-11.2462-.3995-22.5186.0049-33.7752-.2-3.7673-.0687-5.6754.5461-5.4407,4.9624.3626,6.8253.2441,13.6886.0348,20.5267-.1059,3.46,1.081,4.6074,4.5442,4.5328,9.0482-.195,18.1075.0961,27.1542-.1319,4.5114-.1136,7.2306.1237,7.1034,6.1111-.115,5.4117-1.7741,6.6143-6.7809,6.3966-8.815-.3834-17.6657.1018-26.4872-.1979-4.2136-.1432-5.7343.9326-5.5806,5.4076.3411,9.9238-.1809,19.8794.2284,29.7981.2,4.849-1.475,6.3289-5.9365,5.6257a8.304,8.304,0,0,0-2.643.0017c-5.6415.963-7.6039-.9393-7.3726-7.0167C44.48,498.288,44.1228,484.5854,44.1232,470.8963Z"/><path class="cls-5" d="M250.3276,500.2416c8.7591,7.7833,8.8429,8.6717-1.1108,14.59-11.7117,6.964-23.8648,7.19-35.7622.4639-12.0782-6.8286-16.042-18.12-15.8932-31.2473.0962-8.4841,1.866-16.4843,6.9384-23.655,7.94-11.2239,18.8711-14.9037,31.7946-12.443,12.1363,2.3108,18.825,10.6291,21.54,22.3931q.2232.9667.4187,1.94c3.1241,15.4156,2.7835,15.8371-12.5909,15.8462-9.4921.0056-18.9868.1706-28.4751-.0106-3.97-.0758-4.8993,1.1274-4,5.02,3.1089,13.4606,17.8463,19.539,30.2616,12.1844A80.9678,80.9678,0,0,0,250.3276,500.2416Z"/><path class="cls-5" d="M530.4,488.1732c-6.1809,0-12.3766.2637-18.5381-.0824-5.046-.2834-5.3684,1.7672-4.2275,5.885,3.9477,14.2483,20.7821,19.5224,32.8238,9.2827,5.0354-4.282,6.356-.8144,9.0729,1.5544,4.34,3.7839-.2273,5.5432-2.0226,7.0492-10.564,8.8615-22.74,10.4143-35.333,5.6607-12.1873-4.6-18.7615-14.1168-20.0273-27.0745-1.027-10.5146.077-20.6041,6.3013-29.6818,7.3117-10.6638,19.2171-15.7325,32.2668-12.8243,12.3576,2.7541,18.9638,11.1678,21.4968,23.2516,3.4736,16.5717,3.23,16.9336-13.2038,16.9336H530.4Z"/><path class="cls-5" d="M421.2257,497.16c2.63,0,5.0549.0893,7.4712-.02,3.85-.1749,6.5318.0079,8.3011,4.8666,2.8167,7.7346,19.0135,9.6143,24.8579,3.5493,4.0126-4.164,2.5864-10.8649-3.3016-13.5724a65.7937,65.7937,0,0,0-11.3284-3.4682c-5.1382-1.3067-10.176-2.7891-14.7359-5.6014-10.963-6.7616-12.26-19.6419-2.8448-28.4466,11.2641-10.5335,33.7411-9.5023,43.8961,2.0208a8.7547,8.7547,0,0,1,1.6194,2.0741c1.4082,3.24,4.606,6.7667,1.6367,10.0432-2.4327,2.6841-12.7228-.4956-14.4662-3.7935-3.7144-7.0264-16.1018-8.9533-21.8393-3.3972-4.7341,4.5844-2.892,11.5844,4.0581,13.9862,6.8487,2.3669,14.047,3.7469,20.8385,6.2481,9.2911,3.4217,13.5712,9.8272,13.2544,18.4084-.2392,6.4766-3.4889,11.2123-8.702,14.7219-11.143,7.5015-30.1646,6.9174-40.49-1.53C424.5758,509.2605,421.4037,504.06,421.2257,497.16Z"/><path class="cls-5" d="M167.9685,455.7552c4.3293-4.3938,8.5994-8.4046,15.12-8.5212,4.1266-.0737,5.854,1.1028,5.8875,5.6185.0417,5.6248.4506,9.4649-7.6817,9.1269-9.9581-.4139-13.7225,4.4755-13.7267,14.25-.0054,12.3562-.1294,24.7145.0727,37.0674.065,3.9691-.4957,5.9668-5.2621,5.7668-12.0038-.5035-9.7452,1.1636-9.83-9.7555q-.2112-27.1379.0366-54.2781c.02-2.572-1.8411-7.2021,3.6017-6.4329,3.9134.553,10.5066-3.7932,10.8982,4.9085A9.1462,9.1462,0,0,0,167.9685,455.7552Z"/><path class="cls-6" d="M132.7714,483.4824c0,10.1255-.1736,20.2554.0875,30.3741.1012,3.9174-.7628,5.8285-5.0258,5.1667a18.0413,18.0413,0,0,0-5.27-.0027c-4.088.59-5.1748-.9856-5.1306-5.0682q.3255-30.0428.0094-60.09c-.0409-4.1421.8158-6.2384,5.357-5.5612a19.7338,19.7338,0,0,0,5.2721.0054c3.7854-.4682,4.8668,1.0831,4.7808,4.8018C132.6177,463.2279,132.7714,473.3569,132.7714,483.4824Z"/><path class="cls-7" d="M133.5817,429.0489a8.081,8.081,0,0,1-8.9823,8.0792c-4.8127-.4679-7.8523-3.1675-7.5763-8.1555.2924-5.2834,3.6009-7.6623,8.8562-7.4074C131.0182,421.8143,133.0724,424.9586,133.5817,429.0489Z"/><path class="cls-8" d="M288.1682,483.3515c0-3.2989-.0143-6.598.0028-9.8968q.0564-10.8071,9.9883-13.52c7.32-2.0057,14.883.3254,17.7605,6.4616a39.2309,39.2309,0,0,1,.115,34.2807c-2.9371,6.3532-9.8868,8.5315-17.6585,6.6227-6.721-1.6508-10.1809-6.4078-10.2063-14.0511C288.159,489.9493,288.1682,486.65,288.1682,483.3515Z"/><path class="cls-9" d="M390.1613,492.5829c-.0213,11.8379-11.6543,18.9878-21.7434,14.2911-4.1751-1.9435-5.6471-5.5394-5.663-9.6124a9.9873,9.9873,0,0,1,5.9785-9.5159c5.9729-2.8306,12.4355-3.0444,18.7361-2.3741C392.856,485.9446,388.3977,490.9768,390.1613,492.5829Z"/><path class="cls-8" d="M228.7442,477.34a94.7687,94.7687,0,0,0-10.5122.0747c-5.5206.6229-5.5425-1.9474-4.2571-6.0516,2.78-8.8768,8.23-12.8838,16.9156-12.1379,7.5923.6521,11.8828,5.34,13.1718,13.8317.4722,3.1109-.0648,4.4987-3.485,4.3269C236.6421,477.1859,232.6893,477.3377,228.7442,477.34Z"/><path class="cls-8" d="M522.2254,477.34a89.5646,89.5646,0,0,0-9.8554.0682c-5.6276.6305-5.392-2.1553-4.1482-6.1132,2.8008-8.9128,8.2235-12.8419,16.9576-12.0631,7.555.6737,11.8551,5.43,13.1193,13.8976.48,3.2156-.26,4.4126-3.5825,4.2555C530.5611,477.1881,526.39,477.3373,522.2254,477.34Z"/></svg>