<svg id="Layer_1" data-name="Layer 1" xmlns="http://www.w3.org/2000/svg" viewBox="0 0 600 600"><defs><style>.cls-1{fill:#0766ad;}.cls-2{fill:#6693c8;}.cls-3{fill:#fefefe;}.cls-4{fill:#fdfdfe;}.cls-5{fill:#010101;}.cls-6{fill:#060606;}.cls-7{fill:#181818;}.cls-8{fill:#f8f8f8;}.cls-9{fill:#e9e9e9;}</style></defs><title>knativeArtboard 1</title><path class="cls-1" d="M413.3591,254.2171c2.6554,12.0329,5.0129,24.1434,8.1191,36.0589,1.1711,4.4926.2715,7.6557-2.41,11.003q-40.6128,50.702-81.0721,101.5264a9.8447,9.8447,0,0,1-8.6,4.1251c-43.6627-.0889-87.3261-.1395-130.988.0693-5.1249.0245-7.88-2.478-10.6644-5.9787q-39.8522-50.1121-79.8674-100.0939c-2.6111-3.25-3.4238-6.2654-2.5166-10.1889,9.7955-42.3649,19.6141-84.7252,29.1571-127.1472,1.0475-4.6565,3.7272-6.5859,7.5276-8.4113q57.52-27.6269,114.9006-55.5432c5.1008-2.4947,9.202-1.8295,13.9414.4621,25.8047,12.4776,51.6987,24.7705,77.5619,37.1269,2.7859,5.3443-1.5188,8.8672-3.8454,12.36-5.4709,8.2126-7.5772,16.54-5.102,26.3122,1.5075,5.9514,3.212,12.1018,3.3213,18.1943.2708,15.0941,7.6171,25.46,19.8505,33.2144a44.496,44.496,0,0,1,7.7095,6.65c8.9217,9.1123,19.2039,14.0016,32.3417,12.2714C408.25,245.5,413.4779,246.6951,413.3591,254.2171Z"/><path class="cls-2" d="M413.3591,254.2171c-1.9437-3.5823-4.0631-6.5247-9.0379-5.5424-14.6933,2.9013-26.13-3.2451-36.2867-13.1956-4.8271-4.729-9.7931-9.484-15.3584-13.248-6.6215-4.4783-9.7968-9.9545-10.7251-17.9783-1.3692-11.8359-4.2416-23.4921-6.2564-35.2621a18.9129,18.9129,0,0,1,2.621-13.2793c3.6062-6.0252,6.7768-12.3112,10.1333-18.4858.4747-.3816,1.2177-.6706,1.3857-1.1579,9.9721-28.9229,39.0572-27.3042,60.517-37.8269,2.45-1.2013,4.8073.6712,7.0751,1.4831,13.3389,4.7755,26.5806,9.8307,39.9881,14.4011,3.592,1.2245,5.5811,3.3177,7.3341,6.4129,6.845,12.0866,13.7138,24.1666,20.9306,36.0321a17.0256,17.0256,0,0,1,2.1252,12.3905c-2.3982,13.9558-4.9981,27.8777-7.29,41.85-.5662,3.4518-2.663,5.32-5.0786,7.3417-10.1854,8.526-20.62,16.7995-30.2856,25.8862-7.2336,6.8-15.6334,4.209-23.7145,4.8187C417.7185,249.1379,412.734,247.4255,413.3591,254.2171Z"/><path class="cls-3" d="M220.4205,266.4637c-.0023-17.327.2421-34.6594-.1409-51.9779-.1262-5.706,1.457-7.2876,7.1858-7.346,20.1707-.2055,20.1691-.4419,20.1679,19.4314,0,7.7352-.1444,15.4745.08,23.2032.0636,2.1959-1.5411,5.1391,1.3273,6.4037.4888.2155,2.59-2.8744,3.7435-4.5752,8.486-12.5177,17.118-24.9438,25.2714-37.6758,3.1643-4.9414,6.6359-7.4157,12.72-6.7668,5.5068.5874,11.1322-.034,16.6917.2012,2.2622.0958,5.6476-1.5082,6.5141,1.132.48,1.462-2.02,4.0917-3.4714,5.9671-9.6405,12.4574-19.2331,24.956-29.1228,37.2141-3.552,4.4026-4.06,7.83-.7981,12.9614,11.4125,17.954,21.9595,36.4583,33.3744,54.4107,4.4344,6.9741,2.1,6.7919-4.5145,7.7222-16.8981,2.3767-27.7873-2.9489-33.9123-19.5558-3.4742-9.42-9.9139-17.718-14.6788-26.7011-2.6145-4.9291-4.4433-4.5535-7.6478-.4373-3.52,4.5207-6.473,8.815-5.6716,14.9936.5131,3.9557.0962,8.0322.0962,12.0545,0,19.8622.0014,19.633-20.0274,19.5084-5.65-.0351-7.4411-1.4633-7.3186-7.2612C220.66,301.7416,220.4227,284.1,220.4205,266.4637Z"/><path class="cls-4" d="M391.1315,173.5372c-.0016-5.867.27-11.75-.07-17.597-.4222-7.259,5.7012-7.6367,8.1007-5.0766,4.3309,4.6207,6.789,1.83,10.5076.3042,11.9341-4.8956,22.0407,1.4841,22.6317,14.346.4106,8.937.0147,17.9084.2672,26.8564.1327,4.7007-2.1724,5.72-6.2647,5.6042-3.89-.11-6.63-.8539-6.5606-5.5843q.1767-12.04-.0353-24.0844c-.0731-4.5432-.7524-9.1281-6.8145-8.8975-5.6369.2145-9.1877,2.8315-9.012,9.228.212,7.7137-.1224,15.4423.0854,23.1562.1372,5.0906-2.4594,6.1687-6.9029,6.1994-4.3459.03-6.1493-1.5035-5.9875-5.9293C391.3017,185.895,391.133,179.713,391.1315,173.5372Z"/><path class="cls-5" d="M111.39,484.4286c.0109-10.8747.5222-21.7818-.1631-32.6131-.4832-7.6379,2.5416-8.5736,9.298-8.8793,7.7631-.3513,8.8178,2.5191,8.66,9.2009-.1774,7.5349-1.5549,15.2319.8948,22.7,5.4423-5.27,10.902-10.5222,16.3226-15.8145,8.0445-7.8541,14.0907-19.3009,28.431-15.7719,2.0586.5066,5.0025-1.4863,5.9919,1.3123.3456.9777-1.8174,3.0295-3.0818,4.3552-4.288,4.4961-8.6693,8.9038-13.046,13.3146C151.5045,475.53,151.48,475.5371,162.61,491.2851c6.484,9.1741,12.9134,18.3913,19.6136,27.4061,3.6548,4.9175,2.4755,5.6836-3.2663,6.1954-10.1989.9092-17.8674-1.0656-22.5292-11.3318-2.6823-5.907-6.9388-11.1643-10.9063-16.3958-2.0928-2.76-3.2145-8.9517-7.0348-7.228-4.39,1.9806-9.44,5.62-9.4845,12.039-.0294,4.272-.6622,8.669.1218,12.7919,1.9186,10.0879-3.7435,10.349-11.2014,10.0866-4.9593-.1745-6.8038-1.4687-6.6483-6.6338C111.6135,506.9618,111.3794,495.6917,111.39,484.4286Z"/><path class="cls-5" d="M313.0919,501.2647c0,4.6489-.7444,9.4457.144,13.9181,2.3632,11.8977-6.8644,11.6682-11.8023,8.81-5.4284-3.1416-8.1254-1.2276-12.522.1963a35.2089,35.2089,0,0,1-17.1915,1.1789c-8.9349-1.608-13.7042-6.9707-14.3388-15.6224-.6541-8.9164,4.3137-14.69,12.499-17.2776,4.7505-1.5019,9.8507-1.9984,14.8333-2.6368,4.9646-.6361,10.5244-.1841,11.9445-6.6835a5.9375,5.9375,0,0,0-4.4958-7.1721c-5.3023-1.5146-11.8337-2.5906-14.7487,2.8664-2.7858,5.2151-6.4256,4.712-10.4875,4.5387-2.4062-.1027-6.1759,1.6452-6.8371-2.0058-.4105-2.266,1.029-5.2558,2.4371-7.3948,5.8133-8.8307,22.6864-12.071,37.4788-8.0461,12.1027,3.293,13.5428,12.1868,13.0582,22.5464-.199,4.2525-.033,8.5221-.033,12.784Z"/><path class="cls-5" d="M247.49,503.13c0,4.26-.4731,8.5845.1051,12.764.9984,7.2164-1.6618,8.9324-8.7959,9.1026-8.0193.1913-7.5008-3.9658-7.376-9.2785.191-8.1271-.066-16.2638.0586-24.3935.12-7.8183-1.963-14.4909-10.9966-14.4934-9.2423-.0025-12.315,6.4616-12.241,14.9219.078,8.9056-.4392,17.8425.148,26.71.532,8.0325-4.7694,5.8759-9.0289,6.2637-4.9579.4514-7.7493-.2075-7.5036-6.5838.5511-14.3062.1409-28.6483.1857-42.9756.027-8.6169,6.23-13.5644,12.4423-8.2582,6.0021,5.1265,8.34,1.2043,12.2445-.55,14.2866-6.42,27.9439.5437,30.0035,15.9219.9152,6.8336.1545,13.8916.1545,20.8477Z"/><path class="cls-5" d="M488.5548,499.0487c-3.88.0062-7.7993-.3329-11.6272.1131-3.0844.3593-8.0763-2.3673-8.836,2.4237-.6492,4.0936,1.8683,8.4336,5.8786,10.6589a16.0448,16.0448,0,0,0,16.621-.2337c1.6271-.9483,2.7084-2.79,4.2637-3.9125,4.1657-3.0054,10.1-2.9644,12.9219-.6486,2.3715,1.9465-1.7965,6.8793-4.1678,9.7771-7.5606,9.2392-26.0544,11.6-37.5539,5.0688-12.4455-7.0688-17.6809-25.1135-11.6-39.982,5.2317-12.792,19.7163-20.4972,33.1191-17.618,13.2724,2.8511,23.3378,16.0041,23.0864,29.6208-.0661,3.5838-1.2819,4.8075-4.6468,4.7525C500.1956,498.9737,494.3746,499.0424,488.5548,499.0487Z"/><path class="cls-5" d="M417.8438,524.4135c-6.2437,1.823-8.7725-1.2245-10.5766-6.9453-4.3927-13.9292-9.72-27.5653-14.0364-41.5158-.8767-2.8333-5.5168-8.0851-.5066-9.2371,5.2608-1.21,13.4542-4.2072,15.9971,5.7643,2.2814,8.9465,5.1169,17.7545,7.8336,26.5849a35.7208,35.7208,0,0,0,2.53,5.1755,36.3941,36.3941,0,0,0,2.3511-4.856c2.798-8.8088,6.0837-17.5251,8.0193-26.5275,1.885-8.767,8.3271-7.5315,13.46-6.3827,7.1573,1.602,1.8576,6.5509.8941,9.6357-4.137,13.2449-9.2036,26.2119-13.0017,39.5451C428.739,522.9157,425.582,526.5556,417.8438,524.4135Z"/><path d="M348.2961,524.93c-14.267-.2135-18.4922-4.2161-18.7985-17.1923-.1648-6.9781.1939-13.973-.11-20.9417-.2047-4.6918,2.8409-11.6022-6.8-10.9924-3.3492.2119-2.2417-3.3411-2.3921-5.4157-.1392-1.9215-.0271-4.3347,2.6831-4.06,8.767.888,6.8092-5.477,6.452-9.9427-.52-6.5033,1.56-8.5941,8.2849-8.58,6.4914.014,8.9919,1.6085,8.3027,8.3014-.53,5.1457-1.7521,11.6052,7.44,10.1092,3.82-.6217,4.2926,1.8907,4.3066,5.0083.0147,3.2739-.8831,5.4019-4.5282,4.8068-8.0334-1.3116-7.5047,3.9092-7.3725,9.1821.1651,6.59.0789,13.1874.0277,19.7811-.0254,3.2679.3332,7.241,3.9429,7.3807,6.3151.2446,9.0488,2.2914,7.89,8.8072C356.2958,528.6437,350.3054,522.5341,348.2961,524.93Z"/><path class="cls-6" d="M366.4019,495.413c.0029-6.5654.1207-13.1336-.033-19.6954-.1312-5.6-.7418-10.0863,7.905-9.94,8.3134.1412,8.2212,4.0823,8.117,10.0219-.2437,13.8989-.4515,27.82.088,41.7021.265,6.8173-2.8561,7.2582-8.2591,7.3736-5.6892.1214-8.4925-.9129-7.9572-7.46C366.8585,510.1262,366.3991,502.7508,366.4019,495.413Z"/><path class="cls-7" d="M374.8564,443.2064c4.8485-.6942,7.625.0958,7.82,6.3547.2507,8.0517-4.4785,6.9308-9.5712,7.333-5.9964.4736-6.6278-2.3018-6.9868-7.37C365.5751,441.8548,370.2432,442.9205,374.8564,443.2064Z"/><path class="cls-8" d="M283.1289,515.3758c-5.1658.2753-9.2271-1.0783-9.5756-7.1228-.36-6.2421,9.3839-11.4108,19.836-11.3169,4.9634.0446,3.23,3.3215,3.2942,5.46C296.9424,511.03,292.08,515.561,283.1289,515.3758Z"/><path class="cls-9" d="M481.2387,490.1455c-3.8492-3.1948-11.8557,3.6733-12.4347-4.42-.4434-6.1962,5.7517-9.3751,12.133-9.74,7.4569-.4263,12.9951,4.3045,12.5154,10.4746C492.9069,493.4771,485.2914,487.4009,481.2387,490.1455Z"/></svg>