<svg id="Layer_1" data-name="Layer 1" xmlns="http://www.w3.org/2000/svg" viewBox="0 0 600 600"><defs><style>.cls-1{fill:#182f51;}.cls-2{fill:#69a650;}.cls-3{fill:#6cb1c8;}.cls-4{fill:#495adb;}.cls-5{fill:#193052;}.cls-6{fill:#fdfdfd;}</style></defs><title>kubelessArtboard 1</title><path class="cls-1" d="M457.9065,231.1239c0,18.1426.25,36.29-.0667,54.4267-.35,20.0648-9.1288,35.829-26.4254,46.0412q-47.8794,28.2689-96.2668,55.6731c-16.7969,9.4762-34.5367,9.6878-51.3761.2286q-49.2927-27.6894-97.9079-56.5765c-16.3346-9.7472-25.0147-25.206-25.2716-44.1817q-.7623-56.2947.02-112.6055c.3-19.4418,9.4414-34.8636,26.3664-44.8061q47.4051-27.8478,95.1911-55.0459c17.91-10.2215,36.215-10.179,54.1211.038q47.483,27.093,94.6715,54.7c17.5159,10.2984,26.5457,26.0945,26.88,46.43C458.1468,194,457.9064,212.5641,457.9065,231.1239Zm-251.1515-.6622q0,36.9051-.0164,73.81c-.0049,3.7364-.1193,7.3492,5.1651,7.3462q42.8474-.0245,85.6949.0043c4.0232.0031,5.5378-2.0869,5.48-5.8887-.0795-5.2114-.2751-10.4414.055-15.6331.367-5.77-1.9833-7.6452-7.6726-7.561-18.1359.2684-36.2794-.0119-54.417.1886-3.9492.0436-5.2971-.84-5.22-5.06.2731-15.0072.1067-30.0225.1067-45.0348,0-25.2289-.1122-50.4588.0859-75.6861.0445-5.6711-1.908-8.0513-7.65-7.6547a94.6577,94.6577,0,0,1-13.7515-.0062c-6.0572-.4667-8.0134,2.0471-7.9568,7.9914C206.89,181.6706,206.755,206.0668,206.755,230.4617Zm205.0013.196c0-25.009-.08-50.0184.0668-75.0265.0295-5.0373-1.6466-7.3526-6.897-7.0105-4.358.2839-8.7493.0528-13.1259.0569-8.8267.0082-8.8388.01-8.84,8.575-.0046,40.0144-.0776,80.0291.1062,120.0426.02,4.3634-1.01,5.5269-5.424,5.4591-17.9189-.2751-35.8445-.1213-53.7676-.1111-7.8307.0045-8.3048.4637-8.34,7.9632-.02,4.3765.2772,8.7757-.0717,13.1242-.4828,6.0173,1.9417,8.0366,7.9337,7.9855q40.3239-.3438,80.6517.02c6.0986.0626,7.8868-1.9673,7.8206-7.928C411.5987,279.427,411.7566,255.0415,411.7563,230.6577Zm-44.2382-54.3508c0-6.6666-.0833-13.3347.0311-19.9994.07-4.0493-1.3949-6.32-5.7509-6.304q-20.3121.0756-40.6246.0055c-3.9241-.01-5.6677,1.8758-5.656,5.75q.0615,20.3121.0029,40.6247c-.01,3.91,1.8435,5.6892,5.73,5.6776q20.3123-.06,40.6247-.0033c3.921.01,5.6882-1.875,5.656-5.7511C367.4764,189.6405,367.5165,182.9735,367.5181,176.3069Zm-64.6543-.3354c0-6.6611-.1207-13.3252.0433-19.9822.1056-4.2857-1.7986-6.04-5.9646-6.0212q-19.6705.09-39.3418-.01c-4.0666-.0233-6.2866,1.55-6.276,5.8327q.05,20.2953.0091,40.5909c-.0039,3.8758,1.8911,5.7065,5.7573,5.6988q19.9832-.04,39.9663.0086c4.2327.0169,5.9592-1.9214,5.8518-6.1354C302.74,189.2968,302.8641,182.6326,302.8638,175.9715Zm39.2055,38.7111c-6.6607,0-13.324.1115-19.9813-.04-4.3539-.0988-6.6145,1.4544-6.5769,6.1166q.1584,19.6686-.0027,39.3393c-.0379,4.5473,1.9683,6.3249,6.4271,6.2855,13.1123-.116,26.2266-.0945,39.3394-.0105,4.0758.0261,6.2622-1.49,6.2443-5.8106q-.0831-19.9818.0067-39.9641c.0223-4.2417-1.9291-6.0168-6.0994-5.9446C354.9759,214.7663,348.5219,214.6841,342.0693,214.6826Zm-64.6588.0523c-6.4639,0-12.9342.1746-19.39-.0581-4.71-.17-6.8354,1.3911-6.7459,6.4323.23,12.9239.18,25.8558.0194,38.7818-.0549,4.4144,1.3314,6.5133,6.0751,6.4493,13.1341-.177,26.2727-.1367,39.4081-.0177,4.1409.0375,6.1556-1.3889,6.1146-5.7893q-.1866-20.0157,0-40.034c.04-4.376-1.9187-5.9124-6.0906-5.8068C290.3415,214.8559,283.8745,214.7355,277.4105,214.7349Zm22.5556,66.4343-.09-1.2342c-18.0866,0-36.1781-.2371-54.2568.1389-5.7077.1187-6.8949-1.7644-6.8641-7.1071.2175-37.7019.1267-75.4057.0842-113.1088-.0023-2.0141.5725-4.1722-1.218-7.2551v7.3685q0,56.5547.0006,113.1094c0,1.4581.065,2.9186.002,4.3738-.1142,2.6375,1.0973,3.7406,3.73,3.7354Q270.66,281.1324,299.9661,281.1692ZM204.8914,153.9164l-.6247-.2558V307.0645l.6247-.0021Zm6.5126,160.1678.0039.49h87.2366l-.0037-.49Zm109.2581-.1726-.2472.6247H407.46l-.0039-.6247Zm43.1951-165.7057-.19-.6246H319.1243l.0047.6246Zm-50.8945,49.7625.6245.5292V153.75l-.6245-.001Zm57.1246-43.8807-.6245-.5292v44.7479l.6245.001Zm-6.4357,50.5593.2221-.6158H319.4151l.0068.6158Zm-50.0087,81.6495-.482.0125v20.8227l.482-.0174Z"/><path class="cls-2" d="M302.8639,175.9715c0,6.6611-.1243,13.3253.0453,19.9821.1074,4.214-1.6191,6.1523-5.8518,6.1354q-19.9828-.08-39.9663-.0086c-3.8662.0077-5.7612-1.823-5.7573-5.6988q.02-20.2954-.0091-40.5909c-.0106-4.2824,2.2094-5.856,6.276-5.8327q19.67.1127,39.3418.01c4.166-.0191,6.07,1.7355,5.9646,6.0212C302.7431,162.6463,302.8638,169.31,302.8639,175.9715Z"/><path class="cls-3" d="M342.0693,214.6834c6.4526.0007,12.9066.0829,19.3572-.0288,4.17-.0722,6.1217,1.7029,6.0994,5.9446q-.1048,19.9815-.0067,39.9641c.0179,4.32-2.1685,5.8367-6.2443,5.8106-13.1128-.084-26.2271-.1055-39.3394.0105-4.4588.0394-6.465-1.7382-6.4271-6.2855q.1637-19.6686.0027-39.3393c-.0376-4.6622,2.223-6.2154,6.5769-6.1166C328.7453,214.7941,335.4086,214.6826,342.0693,214.6834Z"/><path class="cls-4" d="M277.4105,214.7352c6.464,0,12.931.1207,19.3908-.0428,4.1719-.1056,6.1308,1.4308,6.0906,5.8068q-.1842,20.0157,0,40.034c.041,4.4-1.9737,5.8268-6.1146,5.7893-13.1354-.119-26.274-.1593-39.4081.0177-4.7437.064-6.13-2.0349-6.0751-6.4493.1608-12.926.21-25.8579-.0194-38.7818-.09-5.0412,2.0357-6.6021,6.7459-6.4323C264.4763,214.91,270.9466,214.7349,277.4105,214.7352Z"/><path class="cls-5" d="M299.9661,281.1692q-29.3062,0-58.6125.0208c-2.6326.0052-3.8441-1.0979-3.73-3.7354.063-1.4552-.002-2.9157-.002-4.3738q-.0012-56.5547-.0006-113.1094v-7.3685c1.79,3.0829,1.2157,5.241,1.218,7.2551.0425,37.7031.1333,75.4069-.0842,113.1088-.0308,5.3427,1.1564,7.2258,6.8641,7.1071,18.0787-.376,36.17-.1389,54.2568-.1389Z"/><path class="cls-5" d="M204.8914,153.9164v153.146l-.6247.0021V153.6606Z"/><ellipse class="cls-5" cx="255.0243" cy="314.3293" rx="61.6857" ry="0.3466"/><path class="cls-5" d="M320.6621,313.9116h86.7938l.0039.6247H320.4149Z"/><path class="cls-5" d="M363.8572,148.2059H319.129l-.0047-.6246h44.5432Z"/><path class="cls-5" d="M312.9627,197.9684v-44.22l.6245.001v44.7478Z"/><path class="cls-5" d="M370.0873,154.0877v44.22l-.6245-.001V153.5585Z"/><path class="cls-5" d="M363.6516,204.647h-44.23l-.0068-.6158h44.4586Z"/><path class="cls-5" d="M313.6429,286.2965v20.8178l-.482.0174V286.309Z"/><path class="cls-1" d="M63.4547,470.4773c11.52-13.8473,22.5947-27.0485,33.502-40.3862a6.3462,6.3462,0,0,1,5.76-2.618c5.02.1709,10.0505.0509,15.63.0509-.9893,1.2633-1.6616,2.1739-2.387,3.04-9.9271,11.8546-19.8294,23.73-29.8313,35.5214-1.3888,1.6373-1.4827,2.7075-.2045,4.5024,10.8615,15.2514,21.6087,30.5843,32.3875,45.8946.6019.855,1.181,1.726,2.11,3.0857-6.4108,0-12.2156.0231-18.02-.0162-1.4532-.01-1.8037-1.4126-2.45-2.3383q-12.2478-17.546-24.4523-35.122c-.4961-.7118-.8173-1.6069-1.8614-2.026-3.0879,3.2733-6.1778,6.6062-9.3413,9.8679-.9716,1.0018-.8414,2.1523-.8422,3.3248-.0052,7.8324-.0745,15.6658.044,23.4964.0322,2.1221-.3724,3.02-2.7332,2.8773a82.7624,82.7624,0,0,0-10.7.0047c-2.5872.18-2.571-1.116-2.5681-3.0114q.0609-39.8558.0268-79.7118c0-2.4786.0773-4.9606-.0288-7.4346-.0677-1.58.508-2.029,2.05-1.9875,3.7647.1014,7.5456.2123,11.2974-.0309,2.4633-.16,2.66.8916,2.6482,2.9036-.076,12.69-.0368,25.3807-.0357,38.0711Z"/><path class="cls-5" d="M209.6636,512.7749c-.1651.9832-.372,1.9253-.475,2.8787-.4236,3.9227-.4119,3.9245-4.4827,3.9253-2.4793,0-4.9684-.1366-7.435.0405-2.0569.1476-2.4382-.6575-2.4264-2.5466.08-12.793.0409-25.5866.0409-38.38,0-17.7521.0356-35.5044-.0453-53.2561-.01-2.1972.35-3.2094,2.853-3.0284a79.742,79.742,0,0,0,9.8118.0126c2.1407-.11,2.868.3892,2.8315,2.738-.1555,10.0142-.0644,20.0321-.0634,30.0487,0,.5715,0,1.1431,0,1.9157a3.8013,3.8013,0,0,0,.9153-.4016c12.5822-11.7668,32.1839-8.4532,39.3928,7.3067a49.6115,49.6115,0,0,1,.1855,42.1374c-7.4943,16.6729-27.3947,19.7657-40.4531,6.8588C210.1946,512.9069,209.9757,512.89,209.6636,512.7749Zm.6066-27.5989c0,4.0639.06,8.129-.03,12.191a7.1544,7.1544,0,0,0,1.2435,4.169c3.2848,5.1364,8.1839,7.0114,13.9987,6.6957,5.8347-.3167,10.023-3.4176,11.8781-8.8541a41.3113,41.3113,0,0,0-.1159-28.2658c-4.4094-11.888-20.1135-10.1988-24.97-3.2352a9.2519,9.2519,0,0,0-2.0555,6.0023C210.41,477.6358,210.27,481.4094,210.27,485.176Z"/><path class="cls-5" d="M301.64,490.1569c-6.7409.0006-13.4822.0385-20.2226-.0268-1.6273-.0158-2.2607.22-1.9186,2.1257,1.3007,7.248,4.6584,13.03,11.9444,15.2887,7.9046,2.45,15.2184.6939,20.9706-5.3881,1.9836-2.0973,2.9308-1.7357,4.46.0733a42.4379,42.4379,0,0,0,3.2023,3.1009c2.9231,2.7956,3.0186,2.8929.0051,5.86-10.4841,10.3214-23.049,11.9794-36.302,7.3123-12.8746-4.5339-18.8654-14.8015-19.8684-28.0538-.7476-9.8793.5106-19.4418,6.3785-27.82,7.4932-10.6989,20-15.0556,33.1017-11.7035,11.0006,2.8147,18.379,12.1294,19.9236,25.0931.47,3.9468.4881,7.905.5824,11.8688.0443,1.8608-.5215,2.3379-2.3322,2.31C314.9243,490.0943,308.2816,490.1563,301.64,490.1569Zm-7.5487-11.23c4.1542,0,8.3086.0191,12.4625-.0154.88-.0073,1.94.4077,2.0868-1.262.64-7.26-4.6635-14.2482-11.6877-15.219a15.3474,15.3474,0,0,0-17.2047,15.0956c-.0192,1.701.9556,1.3875,1.88,1.3914C285.7827,478.9351,289.9369,478.9253,294.0911,478.9271Z"/><path class="cls-5" d="M414.297,500.1912c2.27,2.1566,4.58,4.4629,7.02,6.622,1.2527,1.1084.5405,1.8109-.1636,2.6867-6.775,8.4269-15.9109,11.5575-26.3146,11.223-19.6281-.631-31.8267-14.2864-31.4788-34.91.174-10.3133,2.4808-19.9009,10.1262-27.4038,8.8907-8.725,19.6284-10.4088,31.1261-6.9273,11.0134,3.3348,15.9519,11.9924,18.03,22.6867.8768,4.5116.6353,9.0817.8124,13.634.0806,2.0715-.7154,2.4-2.5431,2.3906-12.99-.0673-25.9806.0375-38.9692-.0957-2.6113-.0268-3.2163.7177-2.662,3.1506,1.527,6.7019,4.8194,12.0824,11.62,14.2486,7.4289,2.3662,14.2915.83,20.24-4.321C412.1883,502.269,413.1575,501.2734,414.297,500.1912ZM393.5209,478.926c4.2623,0,8.5247.017,12.7868-.0136.9-.0065,1.9378.3527,2.0267-1.3317.5124-9.7045-7.3882-16.7477-16.8808-15.1066-7.7384,1.3378-11.1057,9.0851-12.1151,15.2019-.26,1.5734.8884,1.2331,1.693,1.2382C385.1945,478.9406,389.3577,478.9265,393.5209,478.926Z"/><path class="cls-1" d="M165.5215,513.3125c-4.8139,5.2475-10.9805,7.2163-17.8361,7.4693-13.354.4928-21.8221-6.9066-23.1492-20.2043-.5035-5.0452-.3085-10.1033-.3211-15.1566-.0261-10.5083.066-21.0176-.066-31.5242-.0289-2.3019.67-2.8764,2.8486-2.755a84.3317,84.3317,0,0,0,9.8086-.004c2.22-.1355,2.8061.5093,2.7866,2.7566-.1155,13.2831-.06,26.5677-.0541,39.8518a24.6833,24.6833,0,0,0,.9978,7.9212,8.7835,8.7835,0,0,0,7.4724,6.3653,18.2367,18.2367,0,0,0,11.5493-1.7736c3.7892-2.0161,6.0773-4.8594,6.0013-9.6538-.226-14.2718-.0383-28.55-.1287-42.8247-.013-2.0554.4726-2.7506,2.6015-2.6413,3.5594.1826,7.137.1182,10.7031.0177,1.543-.0436,2.0612.3937,2.0576,1.997q-.0726,32.2683-.0026,64.5368c.0038,1.6932-.7123,1.9426-2.1389,1.9077-3.17-.0776-6.357-.1992-9.5122.0336-2.4156.1782-3.154-.6986-3.012-2.9677A4.3159,4.3159,0,0,0,165.5215,513.3125Z"/><path class="cls-5" d="M479.0079,471.6641a25.9763,25.9763,0,0,0-2.6745.0146c-2.9218.3051-4.8119.0267-5.7231-3.7064-1.0212-4.1839-4.9262-6.0278-9.1415-6.43-4.5988-.4386-9.032.12-12.0111,4.2088-2.7077,3.7164-1.353,8.3745,2.942,10.4309,3.9574,1.8948,8.2772,2.6576,12.5041,3.6894,4.8223,1.1771,9.5626,2.5751,13.8376,5.1977a17.7669,17.7669,0,0,1,2.6046,28.6378,26.0119,26.0119,0,0,1-13.2455,6.2833c-9.9868,1.7252-19.5971.97-28.1348-5.1291a21.1,21.1,0,0,1-8.9257-14.52c-.256-1.7066.0653-2.5362,2.0947-2.4406,3.56.1677,7.135.1006,10.7013.0221,1.4478-.0318,1.9965.3782,2.27,1.9171.8294,4.6722,3.8614,7.4642,8.3459,8.6707a20.3791,20.3791,0,0,0,12.0138-.2366c3.1986-1.0849,5.493-3.1554,5.7218-6.8273.22-3.5274-1.3448-5.9621-4.9607-7.6564-3.5263-1.6523-7.3333-2.3685-11.09-3.2528-5.32-1.2523-10.5273-2.8192-15.1162-5.9268-9.0839-6.1517-10.5316-17.8873-3.2214-26.0917a23.1045,23.1045,0,0,1,2.3486-2.27c10.2673-8.6665,29.6281-8.5252,39.8087.2554a19.725,19.725,0,0,1,6.857,13.0947c.18,1.5031-.2027,2.1929-1.86,2.0926C482.9779,471.5725,480.99,471.6638,479.0079,471.6641Z"/><path class="cls-5" d="M544.2462,471.6644c-.5949,0-1.1929-.0393-1.7842.0066-3.2028.2482-5.3655.1009-6.784-4.023-2.5667-7.4615-16.2469-8.5143-20.8556-2.0662a6.9094,6.9094,0,0,0,2.72,10.52c3.9372,1.9591,8.2693,2.6946,12.4954,3.7336,4.8211,1.1852,9.5726,2.5477,13.8592,5.1567a17.7136,17.7136,0,0,1,2.6008,28.8308,26.0407,26.0407,0,0,1-13.2916,6.2062c-9.8878,1.657-19.4033.9014-27.8716-5.11a21.0767,21.0767,0,0,1-8.89-13.9026c-.3686-2.0654-.2072-3.3529,2.546-3.1318a96.8267,96.8267,0,0,0,10.1079.0381c1.4392-.0355,2.06.3363,2.3018,1.8971.6517,4.2,3.2754,6.9373,7.19,8.3255a20.0549,20.0549,0,0,0,13.1457.13c3.211-1.0466,5.4946-3.16,5.7642-6.8069.2568-3.4733-1.3569-5.9668-4.9606-7.6641-3.5241-1.66-7.3319-2.3766-11.0894-3.2618-5.42-1.2768-10.7237-2.87-15.3689-6.0931a17.0675,17.0675,0,0,1-3.0063-25.92,23.5088,23.5088,0,0,1,2.1209-2.08c10.3894-8.9489,29.9845-8.8208,40.265.2674a18.8627,18.8627,0,0,1,6.5663,12.9039c.1373,1.5437-.1787,2.175-1.8339,2.0727C548.2181,471.5711,546.2292,471.6644,544.2462,471.6644Z"/><path class="cls-5" d="M350.695,471.2205c0,15.1676-.06,30.3357.0612,45.5024.0192,2.4071-.6719,3.0371-2.972,2.9057-3.36-.1919-6.7413-.1338-10.1078-.0168-1.7337.06-2.41-.3144-2.4063-2.2587q.0949-46.395.0054-92.79c-.0032-1.7769.6156-2.1653,2.22-2.1244,3.5665.0909,7.1439.1611,10.7033-.0234,2.1955-.1139,2.5454.7564,2.5363,2.7077C350.6627,440.4886,350.695,455.8546,350.695,471.2205Z"/><path class="cls-6" d="M210.27,485.176c0-3.7666.1395-7.54-.0511-11.2971a9.2519,9.2519,0,0,1,2.0555-6.0023c4.8567-6.9636,20.5608-8.6528,24.97,3.2352a41.3113,41.3113,0,0,1,.1159,28.2658c-1.8551,5.4365-6.0434,8.5374-11.8781,8.8541-5.8148.3157-10.7139-1.5593-13.9987-6.6957a7.1544,7.1544,0,0,1-1.2435-4.169C210.33,493.305,210.27,489.24,210.27,485.176Z"/></svg>