<svg id="Layer_1" data-name="Layer 1" xmlns="http://www.w3.org/2000/svg" viewBox="0 0 600 600"><defs><style>.cls-1{fill:#2675ba;}.cls-2{fill:#2374b8;}</style></defs><title>microsoftazureArtboard 1</title><path class="cls-1" d="M73.8243,511.5357c5.4343-13.4983,10.8-26.59,15.9309-39.7737.9987-2.5661,2.26-3.51,4.9386-3.2291a50.7431,50.7431,0,0,0,7.08.0282c1.4053-.05,2.0107.2962,2.0061,1.8723q-.075,26.1135-.0066,52.2273c.0031,1.4185-.5292,1.7083-1.8409,1.7557-7.4171.2683-7.4159.3026-7.4159-7.1869V481.0139c-.8944.1482-.8137,1-1.0414,1.5686-5.2658,13.146-10.5991,26.2665-15.669,39.488-.9134,2.3821-2.29,2.382-4.1837,2.3336-1.8211-.0464-3.3091.1824-4.2537-2.2511-5.3983-13.9077-11.0577-27.7142-16.97-41.5765v2.3389c0,13.035-.0294,26.07.0367,39.1048.0089,1.7456-.3293,2.425-2.2677,2.4154-6.3668-.0315-6.3672.053-6.3671-6.406,0-15.6595.0334-31.3192-.0427-46.9784-.0093-1.9167.4083-2.6459,2.4451-2.5127a64.5829,64.5829,0,0,0,8.3923-.002c1.8468-.12,2.5849.64,3.2045,2.2485,5.09,13.2135,10.26,26.396,15.4114,39.5856C73.3362,510.6893,73.53,510.981,73.8243,511.5357Z"/><path class="cls-1" d="M366.24,524.384c3.0378-8.1521,5.8936-15.8407,8.7678-23.5224,3.7354-9.9838,7.51-19.9529,11.2034-29.9523.573-1.5515,1.1829-2.5209,3.1056-2.3221,2.68.277,5.9042-.9369,7.947.4547,2.0445,1.3927,2.2328,4.762,3.1753,7.2841q8.0736,21.6073,16.0577,43.2014c.9021.2454,1.1147-.4648,1.4522-.9187q9.3112-12.5242,18.5912-25.0717c.389-.5263,1.1985-1.0284.822-1.7674s-1.2638-.3888-1.9215-.3924c-4.8975-.027-9.7979-.1092-14.6916.0307-1.9968.0571-2.5246-.58-2.486-2.5213.0893-4.498-.01-4.5,4.3543-4.5,8.1336,0,16.2675-.0344,24.4.0406,1.0905.01,2.7366-.8232,3.2279.6947a4.7125,4.7125,0,0,1-.8706,4.4271c-3.8161,5.0051-7.4943,10.1155-11.224,15.1865q-3.8848,5.2816-7.7624,10.5685c-.3468.4744-1.0217.9258-.7664,1.5546.3386.8342,1.2209.4491,1.8544.4529,5.4222.0322,10.8462.09,16.2664-.0195,1.9429-.0393,2.7709.3406,2.6938,2.5482-.1587,4.5386-.0222,4.5437-4.5445,4.5438-11.8069,0-23.614-.0355-35.42.039-1.733.0109-2.64-.3622-3.1729-2.1669-1.0124-3.4313-2.3936-6.7521-3.5134-10.1544a2.2834,2.2834,0,0,0-2.5627-1.9225c-6.033.1-12.0693.0908-18.1027.0053a2.2594,2.2594,0,0,0-2.5827,1.8943c-1.0873,3.5038-2.399,6.9377-3.4945,10.4392-.43,1.3759-1.0363,1.9842-2.5673,1.9039C371.8663,524.2847,369.244,524.384,366.24,524.384Zm25.8472-46.6875c-2.62,7.6832-5.1089,15.1062-7.7,22.4935-.616,1.7564-.8045,2.67,1.6362,2.5647,4.1785-.1808,8.3728-.1339,12.5555-.0121,1.853.0539,1.9782-.4942,1.4239-2.0679C397.3474,493.1343,394.7861,485.5608,392.0875,477.6965Z"/><path class="cls-2" d="M340.21,472.3671c0,3.4012.15,6.463-.05,9.5016-.1441,2.1846.689,2.798,2.673,2.5385a11.2954,11.2954,0,0,1,2.3586-.0051c1.4534.1178,3.5-.7082,4.2285.426.997,1.5509.301,3.7253.31,5.6316.0047,1.0045-.8136.9894-1.5089,1.0036-1.836.0376-3.6818.1648-5.5066.028-1.9112-.1433-2.601.4275-2.5514,2.4579.1367,5.5946.0405,11.1947.0489,16.7926.01,6.72,2.7009,8.6379,9.3336,6.4583a26.5976,26.5976,0,0,1,.19,5.8881c.002,1.006-.8491,1.2106-1.6139,1.431a16.63,16.63,0,0,1-11.5519-.4581c-3.9546-1.7261-5.2682-5.1918-5.3191-9.1931-.0879-6.9088-.11-13.82.0006-20.7283.0325-2.0321-.4938-2.7646-2.6106-2.6612-3.49.17-6.9993.15-10.4921.0063-2.01-.0828-2.71.4651-2.683,2.599.1159,9.27,0,18.543.0909,27.8136.0181,1.8641-.3247,2.5646-2.3981,2.54-6.6489-.0792-6.65.0172-6.6495-6.6214,0-7.96-.0408-15.92.0318-23.8783.0158-1.7271-.3433-2.5616-2.2873-2.463-1.4236.0721-3.6153.7568-4.155-.4651-.7164-1.6217-.3248-3.7588-.2994-5.6729.0162-1.22,1.0594-.8992,1.78-.9374,4.8869-.2593,4.8873-.2526,4.9308-4.9626.0956-10.3439,7.4783-16.3409,17.7059-14.4946,1.64.296,2.3332.9387,2.0959,2.5629a2.1806,2.1806,0,0,0-.0016.2621c-.0314,1.3959.4039,3.0615-.2085,4.1222-.8442,1.4619-2.47-.03-3.7745-.0006-4.1287.0923-6.3715,1.97-6.7784,6.0691-.6386,6.4328-.6387,6.4329,5.7593,6.433,2.7115,0,5.425-.0632,8.1337.0251,1.3938.0454,1.9429-.4628,1.7655-1.8156a1.3192,1.3192,0,0,1,0-.2621c.1728-2.4157-1.0908-5.73.4771-7.0418C333.7688,473.5516,337.127,473.3287,340.21,472.3671Z"/><path class="cls-1" d="M225.9691,504.2094c-.0252,12.83-8.2773,21.1453-20.9249,21.0852-12.2135-.0581-20.1675-8.2-20.131-20.607.0387-13.1447,8.18-21.2516,21.318-21.2285C218.585,483.4808,225.9944,491.27,225.9691,504.2094Zm-31.721.3337a14.9106,14.9106,0,0,0,1.1016,6.7663c1.8845,4.5676,5.9017,7.0033,11.0584,6.75,4.7285-.2319,8.0367-2.8528,9.46-7.6807a20.9311,20.9311,0,0,0,.0681-11.6466c-1.3531-4.9247-4.6219-7.7354-9.2042-7.9645-5.7212-.2861-9.6359,2.1563-11.4959,7.1771A16.2686,16.2686,0,0,0,194.2481,504.5431Z"/><path class="cls-1" d="M299.929,502.8928c.9938,12.1578-6.7144,21.3351-18.7587,22.334-12.3988,1.0284-21.1689-6.36-22.1912-18.6958-1.0625-12.8208,6.4195-21.9991,18.9057-22.9822C291.1421,482.5049,299.5086,489.9083,299.929,502.8928Zm-31.66,1.8228a14.1786,14.1786,0,0,0,.6154,5.2206,10.735,10.735,0,0,0,10.6041,8.1454c5.3046.0544,8.8662-2.583,10.4115-7.8182a20.4489,20.4489,0,0,0,.014-11.6334c-1.4494-5.0468-4.7288-7.7362-9.5368-7.8682-5.6013-.1537-9.3712,2.2966-11.1617,7.2847A16.7652,16.7652,0,0,0,268.2691,504.7156Z"/><path class="cls-1" d="M551.8024,515.1079c0,1.8919-.0518,3.7823.0193,5.668.043,1.14-.7091,1.529-1.51,1.8747-6.832,2.9484-13.8113,3.7045-20.9262,1.1448a14.7285,14.7285,0,0,1-6.9419-5.3952c-5.4967-7.54-5.1306-20.8811.7985-28.0766a18.8329,18.8329,0,0,1,20.6188-5.94c6.3462,2.0105,10.4281,8.0908,10.9834,16.3607.4183,6.23.4182,6.23-5.6587,6.23-6.3859.0006-12.773.0691-19.157-.0405-1.9845-.034-2.335.6346-2.0175,2.439a10.4019,10.4019,0,0,0,9.2053,8.7323,19.8106,19.8106,0,0,0,12.21-2.0765A3.98,3.98,0,0,1,551.8024,515.1079ZM536.9068,500.57c2.5369,0,5.0737-.0048,7.6105.0025.9353.0027,1.6336-.0032,1.649-1.362.067-5.9562-4.9107-10.151-10.6292-8.8444-3.6589.836-7.2454,5.134-7.5878,8.8935-.1113,1.2219.47,1.3113,1.347,1.31Q533.1015,500.5662,536.9068,500.57Z"/><path class="cls-1" d="M479.4529,518.6653c-.92,1.0723-1.6734,2.0987-2.5726,2.9758-7.3425,7.1614-20.27,3.6155-22.8673-6.2627a27.63,27.63,0,0,1-.8372-7.0146c-.01-7.26.04-14.5212-.0368-21.7807-.0179-1.685.4324-2.2317,2.2-2.2435,6.9934-.047,6.993-.1144,6.9932,6.8636,0,5.3359-.013,10.6719.01,16.0077a23.7923,23.7923,0,0,0,.2244,3.66c.6856,4.2674,2.8481,6.5775,6.5524,7.1317a8.8063,8.8063,0,0,0,9.1957-4.68,14.27,14.27,0,0,0,1.448-6.8588c.0114-6.648.0638-13.2969-.0357-19.9434-.0263-1.7582.5491-2.1649,2.2226-2.1735,6.8281-.0351,6.8281-.0908,6.8282,6.6987,0,10.322-.0606,20.6446.0522,30.9652.0221,2.02-.5646,2.58-2.4885,2.4088-1.9969-.1779-4.345.56-5.9415-.2632C478.6845,523.2721,480.3269,520.6392,479.4529,518.6653Z"/><path class="cls-1" d="M228.5515,514.8132c3.8375,2.4821,7.548,3.8475,11.6864,3.7245a12.8487,12.8487,0,0,0,4.87-.8707c3.3171-1.4585,3.7953-5.1.9827-7.3828a14.3115,14.3115,0,0,0-4.4318-2.21,39.1583,39.1583,0,0,1-7.6606-3.3786c-7.1429-4.3873-7.3709-13.6711-.2905-18.1714,6.275-3.9884,13.0961-3.7035,19.9823-1.7487a1.5458,1.5458,0,0,1,1.189,1.7625c-.0344,2.0011-.0107,4.0033-.0107,6.0006-1.1271.3959-1.735-.4292-2.4715-.7526a15.3819,15.3819,0,0,0-10.972-1.0143c-1.9113.584-3.5021,1.6377-3.7,3.9193-.197,2.2757,1.1173,3.6,2.9626,4.4822,3.2276,1.5438,6.7461,2.4,9.8771,4.1928,3.2586,1.8657,5.7176,4.29,6.2115,8.2288.651,5.1907-1.8112,9.5412-6.8965,11.7073-6.49,2.7645-13.1007,2.5138-19.7312.4255a2.0163,2.0163,0,0,1-1.62-2.2971C228.6155,519.4273,228.5515,517.4174,228.5515,514.8132Z"/><path class="cls-1" d="M157.7451,493.3431c-8.6406-3.8642-14.7553-3.1422-18.8668,2.0445-3.866,4.8771-3.9971,13.3212-.2823,18.1844,3.883,5.0836,9.6885,5.5771,19.254,1.4766,0,2.18-.0284,4.24.0093,6.3.0283,1.5482-1.196,1.8193-2.2227,2.1829-8.09,2.8657-15.9688,2.87-22.6558-3.1464-6.9965-6.2949-7.62-14.4721-5.1238-22.9583,2.8084-9.5459,11.6857-14.8291,22.6035-13.8944,7.1829.6149,7.5008.9582,7.3914,8.02C157.8441,492.06,157.7927,492.5671,157.7451,493.3431Z"/><path class="cls-1" d="M505.7238,491.5785c.702-1.2836,1.0453-1.9845,1.4536-2.6452a10.764,10.764,0,0,1,6.8708-5.2816c4.2384-.958,5.5705.0539,5.5454,4.2781-.0082,1.3882.3664,3.1472-.3259,4.06-.7085.9345-2.3311-.3362-3.6149-.3756-3.9838-.1223-7.1591,1.9628-8.8536,6.1222a18.8816,18.8816,0,0,0-1.27,7.19c-.0016,5.7728-.0669,11.5469.0377,17.3178.0319,1.7567-.5324,2.3378-2.2287,2.156-2.2254-.2385-5.2064.9619-6.49-.5207-1.1033-1.2746-.39-4.1645-.3944-6.34-.019-10.2336.04-20.4677-.0513-30.7-.0169-1.9107.4089-2.7538,2.4428-2.4734,2.1333.294,4.8511-.9147,6.2951.5286C506.4292,486.1818,505.2933,488.859,505.7238,491.5785Z"/><path class="cls-1" d="M171.8913,491.4152A48.9221,48.9221,0,0,1,174.71,487.17a9.47,9.47,0,0,1,9.322-3.5545c1.1549.19,1.9794.6727,1.7955,2.0592a11.5918,11.5918,0,0,0-.0088,1.3108c-.0287,1.6579.5217,3.7118-.2585,4.862-.7764,1.1446-2.75-.286-4.2617-.25-3.6716.0883-6.0391,1.9741-7.6981,5.0258a17.7808,17.7808,0,0,0-1.863,8.6234c-.0233,5.6852-.0542,11.3713.023,17.0556.0209,1.5374-.3263,2.1-2.01,2.1276-7.0544.1144-7.0534.1778-7.0533-6.77,0-10.3211.0434-20.6426-.04-30.963-.0149-1.84.5066-2.5447,2.3514-2.3274,2.144.2526,4.865-.9081,6.3111.4959C172.64,486.1482,171.4955,488.8446,171.8913,491.4152Z"/><path class="cls-1" d="M121.54,504.4854c0,5.8485-.06,11.6979.0366,17.5447.0289,1.7458-.3449,2.4082-2.2677,2.4047-6.91-.0126-6.91.065-6.91-6.8929,0-10.1257.055-20.2519-.0456-30.3765-.0206-2.0729.3762-2.8813,2.6723-2.8379,6.5121.1233,6.5142.0148,6.5145,6.5407Q121.54,497.6769,121.54,504.4854Z"/><path class="cls-1" d="M122.3939,470.6461a5.2008,5.2008,0,0,1-5.3716,5.2227,5.0968,5.0968,0,0,1-5.2925-4.9876,4.983,4.983,0,0,1,5.2005-5.294A5.0751,5.0751,0,0,1,122.3939,470.6461Z"/><path class="cls-2" d="M320.0733,143.3113c9.257,15.9862,17.946,30.9512,26.5971,45.9381q54.4088,94.2567,108.7915,188.528c4.1395,7.1761,4.0947,7.2072-4.2358,7.2079q-117.0237.009-234.0475.0146-5.3793,0-10.7586,0l-.09-1.0159q28.7242-5.0727,57.4487-10.1449c29.8484-5.2656,59.687-10.5879,89.5578-15.7228,4.3843-.7536,5.205-1.4716,2-5.2663-25.1513-29.78-50.106-59.7257-75.1738-89.5762-1.7155-2.0428-2.7736-3.6613-1.679-6.6478q20.0274-54.6412,39.7654-109.3887C318.6018,146.2656,319.1179,145.3533,320.0733,143.3113Z"/><path class="cls-2" d="M306.7431,126.7221c-.32,5.0312-3.281,9.0731-5.2928,13.4049Q252.2124,246.1457,202.7491,352.06c-1.0666,2.2888-1.7684,4.5629-5.1669,4.548-24.3539-.1064-48.7086-.0568-74.2074-.0568,4.5365-7.9978,8.6171-15.3019,12.8-22.5473q34.6361-60.0007,69.24-120.02a40.4241,40.4241,0,0,1,9.4878-10.8928q44.7773-37.5741,89.5551-75.1475a10.7462,10.7462,0,0,1,2.3533-1.1477Z"/><path class="cls-2" d="M306.8109,126.7958l.265-.436q-.1658.1816-.3322.3629Z"/></svg>