<svg id="Layer_1" data-name="Layer 1" xmlns="http://www.w3.org/2000/svg" viewBox="0 0 600 600"><defs><style>.cls-1{fill:#1c8cfe;}.cls-2{fill:#1a8afe;}.cls-3{fill:#1d8ffe;}.cls-4{fill:#239afe;}.cls-5{fill:#2eb2fe;}.cls-6{fill:#2095fe;}.cls-7{fill:#249efe;}.cls-8{fill:#35bffe;}.cls-9{fill:#2cadfe;}.cls-10{fill:#31b6fe;}.cls-11{fill:#2aa8fe;}.cls-12{fill:#1f92fe;}.cls-13{fill:#26a1fe;}.cls-14{fill:#38c3fe;}.cls-15{fill:#33bbfe;}.cls-16{fill:#27a4fe;}.cls-17{fill:#034382;}.cls-18{fill:#fefefe;}</style></defs><title>spotinstArtboard 1</title><path class="cls-1" d="M109.1193,306.28c4.2248-9.3386,1.8481-19.4452,3.3629-29.1515,5.3841-34.499,21.6856-62.3472,49.0215-83.8723.3913-.3081,1.0845-.2327,1.6369-.3364,5.0092.2443,4.4664,4.3454,4.56,7.3306.2784,8.8655.9394,17.7744-.8082,26.5892-18.1172,20.7563-29.0061,44.7024-26.3225,72.4138,1.33,13.73.1782,23.1738-13.5963,29.0275-6.1615,2.6184-9.5866,9.2733-13.9492,14.385-3.1453.3193-3.9054-2.177-4.0113-4.2279C108.46,327.7246,107.1491,316.9892,109.1193,306.28Z"/><path class="cls-2" d="M109.1193,306.28c3.1462,8.8591,1.445,18.0587,1.9505,27.1055.1764,3.1572-1.2706,6.7383,1.9547,9.28-3.7263,8.225-7.1659,16.4661-7.72,25.7226-.3995,6.67-4.61,9.43-11.2927,10.1071-20.0943,2.0348-18.4233,5.408-16.6259-16.2467C79.291,339.292,89.4462,319.7771,109.1193,306.28Z"/><path class="cls-3" d="M166.8925,226.84c-3.2121-8.0612-.801-16.48-1.5822-24.6932-.3006-3.1609,1.2382-6.7865-2.17-9.2264,10.4658-9.0306,22.5883-14.855,35.8306-18.5117,4.646-1.8271,5.5451,1.7154,5.7551,4.6738.5293,7.4579,1.5555,14.9792-.4069,22.4109C190.8163,208.4245,177.6923,215.9161,166.8925,226.84Z"/><path class="cls-4" d="M293.8975,213.7089a162.6147,162.6147,0,0,0-33.9749-15.1432c-.7319-9.5766.4208-19.2314-1.1926-28.7715a101.7271,101.7271,0,0,1,38.95,13.3107c4.5988,8.6466,2.7463,17.8141,1.9307,26.8235C299.3529,212.78,297.7012,215.3285,293.8975,213.7089Z"/><path class="cls-5" d="M434.01,288.1938c-4.8518-13.5877-11.1185-26.2749-22.6609-35.6043a181.4687,181.4687,0,0,0,1.0068-20.9378c-.0136-3.2932-.3786-6.8024,2.4031-9.4392,10.7146,3.306,18.324,10.7449,25.3081,19.0158,2.0244,13.4994.9841,27.0705.75,40.6069C440.7518,285.6113,440.2308,290.3354,434.01,288.1938Z"/><path class="cls-6" d="M258.73,169.7942c5.98,9.3588,4.1089,19.0431,1.1929,28.7711a181.2726,181.2726,0,0,0-30.1162-2.1041c-3.5979-4.3449-2.4585-9.5726-2.3751-14.4585.0862-5.0408-1.1218-9.2821-4.8149-12.7451C234.6992,166.426,246.7212,167.6638,258.73,169.7942Z"/><path class="cls-7" d="M293.8975,213.7089c4.5457-.612,3.7472-4.122,3.7664-7.0928.0507-7.8368.0167-15.6742.0164-23.5113a78.6086,78.6086,0,0,1,23.8649,16.5908c4.5032,10.7476,2.5629,21.8857,1.7772,32.9018-.1986,2.7855-1.9061,5.3227-5.5766,4.8593A153.1149,153.1149,0,0,0,293.8975,213.7089Z"/><path class="cls-8" d="M482.7394,272.6061a48.9928,48.9928,0,0,1,20.2338,17.3923c1.9187,12.37.8085,24.7974.55,37.1959-.07,3.338-.8873,6.9884-5.677,6.8683-2.8823-1.0223-4.1867-3.1829-5.1342-6.0378a59.7689,59.7689,0,0,0-13.5994-22.7737c-1.2727-7.9835-.7551-16.0094-.4435-24.0167C478.7993,277.8889,479.5106,274.5956,482.7394,272.6061Z"/><path class="cls-9" d="M414.759,222.2125c.0017,7.5256-.0257,15.0514.0188,22.5768.0185,3.1434.0708,6.2339-3.4287,7.8-7.9-5.2524-16.2284-9.6041-25.4356-12.1107-3.3167-9.6345-5.6049-19.21,1.6222-28.2387C397.24,213.8445,406.7971,215.8513,414.759,222.2125Z"/><path class="cls-10" d="M434.01,288.1938c4.6454.2383,4.5406-2.9232,4.5264-6.1721-.0464-10.6247-.0153-21.25-.017-31.8746-.0005-3.0635-.3393-6.1839,1.5478-8.9189,4.6864,3.6612,7.9825,8.4841,10.7051,13.625,2.2211,4.1938,5.109,7.2231,9.7917,8.3439,3.24,9.9023,5.8365,19.7625-1.8962,28.946C450.7113,289.1858,442.0478,290.6435,434.01,288.1938Z"/><path class="cls-11" d="M387.5357,212.24c-3.4572,9.2454-.7638,18.8441-1.6222,28.2387a80.0469,80.0469,0,0,0-27.1494.0234c-3.1244-3.4993-2.4835-7.8367-2.3575-11.912a31.0166,31.0166,0,0,0-3.1986-15.2589C364.5481,209.742,376.0061,209.8663,387.5357,212.24Z"/><path class="cls-12" d="M222.6167,169.2576c5.1662-.4206,7.6625,1.4355,7.2916,7.1306-.434,6.6649-.1016,13.38-.1016,20.073L204.32,201.493c-3.2135-6.4119-1.0392-13.2733-1.6479-19.903-.2682-2.9208.909-6.5215-3.7-7.1815A60.7724,60.7724,0,0,1,222.6167,169.2576Z"/><path class="cls-13" d="M317.7458,237.4567c3.9483-1.6446,3.7039-5.0858,3.7042-8.4825.0008-9.7594.0593-19.5189.0952-29.2784,7.0038,3.7353,10.0263,11.7535,16.86,15.6723a47.4389,47.4389,0,0,1,.0371,33.915c-6.1407,5.479-11.0647,3.1983-15.18-2.5934C321.1915,243.7765,319.57,240.5445,317.7458,237.4567Z"/><path class="cls-14" d="M497.8462,334.0626c4.4023-2.0319,3.2168-6.0515,3.4725-9.604.8259-11.4744-1.8755-23.1181,1.6546-34.46,11.9193,10.6759,16.6478,24.9548,19.9667,39.9271.386,1.7417.2347,3.9373-1.965,3.8145C513.2459,333.308,505.5938,338.0555,497.8462,334.0626Z"/><path class="cls-15" d="M458.6678,292.1431c3.8707-9.4366,1.0645-19.3106,1.8962-28.9462a58.3721,58.3721,0,0,1,22.1752,9.41c-2.7275,7.5652-1.4723,15.4366-1.8469,23.189-.1544,3.1962,1.2835,6.7791-1.78,9.4556A87.8059,87.8059,0,0,0,458.6678,292.1431Z"/><path class="cls-16" d="M338.4419,249.2831l-.0371-33.915c5.1611.9647,9.745-2.2682,14.8043-2.0362,4.815.47,5.68,3.6508,5.5928,7.77-.1364,6.4642-.0372,12.9334-.0378,19.4C351.5523,242.4162,345.0608,245.9971,338.4419,249.2831Z"/><path class="cls-17" d="M123.6761,462.6693c16.7763-12.814,34.8354-12.346,47.4461,1.11,12.6735,13.5234,12.6876,35.2585.0323,49.7633-11.4166,13.0849-28.9811,13.674-46.6647,1.0706,0,3.6213,0,6.8125,0,10.0037,0,7.3613-.0847,14.724.0377,22.0832.0539,3.2393-1.135,4.5084-4.4719,4.5753-10.9.2188-10.8982.3214-10.8982-10.4494q0-39.886.017-79.7722c.0022-2.1847-.6565-5.1533,1.9828-5.9074,3.2578-.9307,7.0352-1.2762,10.1262.2456C123.7855,456.6243,121.951,460.2559,123.6761,462.6693Z"/><path class="cls-17" d="M223.9827,453.6792c20.2031,0,35.6766,15.4777,35.6161,35.6246-.0582,19.3831-16.0465,34.863-36.0037,34.8589-20.7089-.0044-36.2229-15.1632-36.2813-35.4507C187.2563,468.7352,203.0159,453.6787,223.9827,453.6792Z"/><path class="cls-17" d="M372.6425,464.2408c9.9634-10.4757,21.2293-13.4758,34.1957-9.5987,11.3036,3.38,18.8522,12.5725,19.4174,24.9311.5966,13.0445.2482,26.1324.3,39.2014.0023.5961.1139,1.42-.2151,1.754-3.6123,3.6714-8.18,1.2683-12.2949,1.73-2.748.3081-2.795-2.151-2.7994-4.1466-.02-9.1648.0422-18.33-.0409-27.4944a46.7727,46.7727,0,0,0-.6882-8.5043c-1.9613-10.0423-8.9616-15.5642-18.3363-14.7066a17.8,17.8,0,0,0-16.3488,17.8445c-.2127,10.5128-.1872,21.0358.0131,31.549.0787,4.13-.98,5.982-5.544,5.7941-10.8949-.4484-10.1713,1.7111-10.1783-10.1225q-.015-25.4664,0-50.9327c.0028-6.3855.3237-6.7733,5.4085-6.8094,6.4222-.0456,6.7816.3127,6.9386,6.88C372.4837,462.1756,372.5425,462.7413,372.6425,464.2408Z"/><path class="cls-17" d="M320.3012,526.3476c-1.4565-6.0539-4.18-4.89-7.8684-4.1221-11.1237,2.3162-22.2521,2.8457-30.7675-6.8662a20.55,20.55,0,0,1-5.0979-14.074c.06-10.2167-.1011-20.4363.0928-30.65.0545-2.8661-1.0357-3.75-3.5717-3.6962-1.051.0222-2.1032-.0117-3.1549-.0136-7.0486-.0123-9.1116-3.0314-7.22-10.0987.7241-2.705,2.6948-2.4425,4.57-2.5458,8.9755-.4946,8.9755-.4732,8.9772-9.3472.0006-3.3055.0131-6.611.01-9.9165-.0022-2.5442,1.1116-3.8982,3.8015-3.8849,12.508.0619,11.48-1.2889,11.6125,10.7172.0456,4.131-1.8588,9.5139,1.1351,12.03,2.3271,1.9555,7.4442.6613,11.3218.6779,2.8464.0121,5.6929-.2209,8.5407-.2938,5.3092-.1359,5.7952.3474,5.9986,5.7735.2352,6.272-.3571,6.8867-6.6416,6.8879-5.4091.001-10.8268.1845-16.2239-.07-3.1346-.1475-3.8246,1.1319-3.7928,3.9208.1065,9.3143-.051,18.6318.0668,27.9459.11,8.694,9.7162,14.1269,17.7015,10.2626,1.5116-.7315,1.1671-1.3265.6513-2.3457-.6649-1.3139-1.2542-2.6662-2.19-4.6763,6.0035,1.7406,11.387,3.4061,16.8337,4.8292,2.1921.5727,1.5236,1.829,1.1033,3.0371C324.42,514.9152,322.58,519.9769,320.3012,526.3476Z"/><path class="cls-17" d="M511.3314,485.3855c.0027-5.1048-.2314-10.2248.1-15.3078.1691-2.5913-.6848-3.0681-2.8746-2.8923-1.4919.12-3.02-.13-4.4988.0519-4.1806.5146-5.8057-.9619-5.86-5.4286-.0849-7.0077-.2327-7.2246,6.5235-7.2279,7.2138-.0036,7.2135-.0036,7.214-7.4225,0-3.7535.0808-7.5092-.0214-11.26-.0829-3.04,1.3173-4.4493,4.2816-4.463,11.2485-.052,11.2731-.7841,11.0819,9.9732-.0613,3.4521.1323,6.914-.0573,10.3568-.1318,2.3928.6817,3.0741,3.0374,3.0153,6.1519-.1537,12.323.1891,18.461-.1411,3.7084-.2,4.69,1.5583,4.9812,4.6478.6909,7.3235-.0906,8.2134-7.49,8.2148-4.9546.001-9.9161.16-14.8613-.0564-3.189-.1394-4.1841,1.0686-4.13,4.1535.1461,8.2551.3282,16.5261-.0165,24.7693-.5225,12.499,6.9736,14.6807,16.9516,13.1585a12.2849,12.2849,0,0,0,2.1429-.6734c6.505-2.2783,9.703-.2531,10.656,6.6935.2987,2.1779-.88,3.332-2.5968,4.2363-9.7152,5.1174-19.8408,5.9668-29.9354,1.7625-9.003-3.75-12.6754-11.4678-13.0558-20.8479C511.159,495.6018,511.3288,490.49,511.3314,485.3855Z"/><path class="cls-17" d="M71.1362,524.17a48.8856,48.8856,0,0,1-22.2706-4.9726c-6.116-2.8944-6.295-3.5275-3.138-9.2888.4312-.7869.9227-1.5405,1.366-2.321,1.5766-2.7751,3.3849-3.7068,6.4725-1.7132,6.5527,4.2307,13.9251,5.25,21.5888,4.7635,4.1274-.2619,7.45-1.7,8.1943-6.1826.7637-4.6007-2.4883-6.1552-6.0908-7.5118-7.422-2.7949-15.2638-4.5257-22.3011-8.2692-12.2147-6.4978-12.8833-22.5473-1.4141-30.341a27.0809,27.0809,0,0,1,10.37-4.1575,48.5914,48.5914,0,0,1,29.0514,3.48c5.5974,2.4746,5.7471,3.3115,2.9142,8.6345-.493.9263-1.1039,1.7954-1.5367,2.7471-1.2617,2.7745-3.0691,3.1709-5.6915,1.707a33.4415,33.4415,0,0,0-19.05-4.225,12.13,12.13,0,0,0-5.1813,1.3184,6.1962,6.1962,0,0,0-3.0933,5.643c-.0364,2.0456,1.5387,3.0561,3.2512,3.8947,6.7753,3.3179,14.22,4.6671,21.2262,7.3008,10.3417,3.8875,14.8856,11.0173,13.3112,21.6-1.2732,8.5584-7.2051,13.18-14.7792,15.97A34.3587,34.3587,0,0,1,71.1362,524.17Z"/><path class="cls-17" d="M463.98,523.8557a51.3711,51.3711,0,0,1-24.5782-6.2946c-2.7873-1.5174-4.1555-3.3494-1.6055-6.2541a10.9116,10.9116,0,0,0,1.1158-1.946c3.251-5.8232,3.2734-5.866,9.1518-2.7684a33.6515,33.6515,0,0,0,22.65,3.4378c2.52-.4829,4.4817-1.6675,5.3473-4.2278,1.2235-3.6189-.1827-6.7676-3.9953-8.1965-7.1442-2.6777-14.4588-4.9222-21.5191-7.7972-10.6629-4.3421-14.722-14.942-9.7964-24.6685a17.7714,17.7714,0,0,1,8.9767-8.4936c13.3622-5.7438,26.33-3.8591,39.0078,2.3715,2.08,1.0222,2.9792,2.3191,1.5449,4.5316-.5661.8732-.927,1.8767-1.4288,2.795-3.1179,5.7056-3.1139,5.6834-9.1022,3.12a35.7417,35.7417,0,0,0-17.5381-3.0218c-3.7877.3432-6.8847,1.6916-7.5317,5.7516-.6269,3.9342,2.6536,5.0447,5.4645,6.0285,7.0575,2.47,14.36,4.3208,21.2432,7.19,12.7234,5.3044,15.313,21.8792,5.1682,31.2538a25.9743,25.9743,0,0,1-14.0587,6.5142C469.6881,523.61,466.82,523.6437,463.98,523.8557Z"/><path class="cls-17" d="M346.3148,488.8338c0,9.5995-.125,19.2015.0629,28.7973.0724,3.6971-1.1472,4.9784-4.9125,4.954-10.6271-.0687-10.6281.0757-10.6281-10.6631q0-25.6488.0087-51.2975c.0072-5.3531.5644-5.8987,5.9818-5.8856,10.2432.0247,9.4858-1.1467,9.4871,9.3461Q346.3162,476.4594,346.3148,488.8338Z"/><path class="cls-17" d="M338.1588,442.2538c-6.3881-.0658-10.6167-4.2041-10.494-10.27.1176-5.8118,4.6845-9.8946,11.0315-9.8622,6.3678.0326,10.3928,4.0685,10.3237,10.3517C348.9533,438.5391,344.7527,442.3216,338.1588,442.2538Z"/><path class="cls-18" d="M164.4454,487.8821c.0343,12.78-8.2121,21.7933-19.9926,21.8527-11.7871.06-20.4-8.691-20.5381-20.8663s8.3549-21.264,20.0039-21.4067A20.245,20.245,0,0,1,164.4454,487.8821Z"/><path class="cls-18" d="M243.7978,488.8047c-.0119,11.9925-8.8952,21.1349-20.4671,21.064-11.1933-.0685-20.0464-9.3634-20.0648-21.0661-.0184-11.7212,9.2573-21.4993,20.3382-21.44C235.0219,467.4242,243.81,476.7551,243.7978,488.8047Z"/></svg>